<?xml version="1.0" encoding="UTF-8" standalone="no"?>
<!-- Created with Inkscape (http://www.inkscape.org/) -->

<svg
   width="64"
   version="1.1"
   height="64"
   id="svg27"
   sodipodi:docname="dialog-password.svg"
   inkscape:version="1.2 (dc2aedaf03, 2022-05-15)"
   xmlns:inkscape="http://www.inkscape.org/namespaces/inkscape"
   xmlns:sodipodi="http://sodipodi.sourceforge.net/DTD/sodipodi-0.dtd"
   xmlns="http://www.w3.org/2000/svg"
   xmlns:svg="http://www.w3.org/2000/svg">
  <sodipodi:namedview
     id="namedview29"
     pagecolor="#505050"
     bordercolor="#eeeeee"
     borderopacity="1"
     inkscape:showpageshadow="0"
     inkscape:pageopacity="0"
     inkscape:pagecheckerboard="0"
     inkscape:deskcolor="#505050"
     showgrid="false"
     inkscape:zoom="3.1156893"
     inkscape:cx="-7.5424723"
     inkscape:cy="32.737539"
     inkscape:window-width="1308"
     inkscape:window-height="742"
     inkscape:window-x="58"
     inkscape:window-y="26"
     inkscape:window-maximized="1"
     inkscape:current-layer="layer1" />
  <defs
     id="defs3811">
    <linearGradient
       id="linearGradient3052">
      <stop
         style="stop-color:#555753"
         id="stop3054" />
      <stop
         offset="1"
         style="stop-color:#2e3436"
         id="stop3056" />
    </linearGradient>
    <radialGradient
       id="a"
       cx="-256"
       cy="-256.20001"
       gradientTransform="matrix(0,-0.8333347,-0.83333471,0,369.93825,-56.676655)"
       gradientUnits="userSpaceOnUse"
       r="96">
      <stop
         offset="0"
         stop-opacity="0"
         id="stop258" />
      <stop
         offset=".899"
         stop-opacity="0"
         id="stop260" />
      <stop
         offset=".949"
         stop-opacity=".261658"
         id="stop262" />
      <stop
         offset="1"
         id="stop264" />
    </radialGradient>
    <filter
       id="b"
       color-interpolation-filters="sRGB"
       height="1.12"
       width="1.12"
       x="-0.060000002"
       y="-0.060000002">
      <feGaussianBlur
         stdDeviation="3.4"
         id="feGaussianBlur267" />
    </filter>
    <linearGradient
       id="c"
       gradientUnits="userSpaceOnUse"
       x1="-434"
       x2="-82"
       y1="-256"
       y2="-256">
      <stop
         offset="0"
         stop-opacity="0"
         id="stop270" />
      <stop
         offset=".499"
         id="stop272" />
      <stop
         offset="1"
         stop-opacity="0"
         id="stop274" />
    </linearGradient>
    <filter
       id="d"
       color-interpolation-filters="sRGB"
       height="1.192"
       width="1.192"
       x="-0.095999999"
       y="-0.095999999">
      <feGaussianBlur
         stdDeviation="14.08"
         id="feGaussianBlur277" />
    </filter>
    <filter
       id="e"
       color-interpolation-filters="sRGB"
       height="1.024"
       width="1.024"
       x="-0.012"
       y="-0.012">
      <feGaussianBlur
         stdDeviation="1.76"
         id="feGaussianBlur280" />
    </filter>
    <filter
       id="f"
       color-interpolation-filters="sRGB"
       height="1.024"
       width="1.024"
       x="-0.012"
       y="-0.012">
      <feGaussianBlur
         stdDeviation="1.12"
         id="feGaussianBlur283" />
    </filter>
    <filter
       id="g"
       color-interpolation-filters="sRGB"
       height="1.096"
       width="1.096"
       x="-0.048"
       y="-0.048">
      <feGaussianBlur
         stdDeviation="4.48"
         id="feGaussianBlur286" />
    </filter>
  </defs>
  <metadata
     id="metadata3814" />
  <g
     inkscape:label="Layer 1"
     inkscape:groupmode="layer"
     id="layer1"
     transform="matrix(1 0 0 1 -736.85718 -157.93361)">
    <g
       id="g815"
       transform="matrix(0.21180918,0,0,0.21180918,645.2795,155.90498)">
      <circle
         cx="583.43872"
         cy="160.65701"
         filter="url(#g)"
         opacity="0.1"
         r="112"
         id="circle289" />
      <circle
         cx="583.43872"
         cy="158.65701"
         filter="url(#f)"
         opacity="0.1"
         r="112"
         id="circle291" />
      <circle
         cx="583.43872"
         cy="156.65701"
         opacity="0.1"
         r="114"
         id="circle293" />
      <circle
         cx="-583.43872"
         cy="-156.65701"
         fill="#c8c4b7"
         r="112"
         transform="scale(-1)"
         id="circle295" />
      <path
         d="m 583.43874,44.657028 a 112,112 0 0 0 -111.99999,112.000002 112,112 0 0 0 111.99999,112 z"
         fill="#ffffff"
         opacity="0.25"
         id="path297" />
      <circle
         cx="-258"
         cy="-256"
         fill-opacity="0.996078"
         filter="url(#e)"
         opacity="0.1"
         r="176"
         transform="matrix(0,-0.5,-0.50000001,0,455.43874,28.657022)"
         id="circle299" />
      <circle
         cx="-258"
         cy="-256"
         fill="url(#c)"
         filter="url(#d)"
         opacity="0.4"
         r="176"
         transform="matrix(0,-0.5,-0.50000001,0,455.43874,28.657022)"
         id="circle301"
         style="fill:url(#c)" />
      <g
         transform="matrix(0,-1,-1,0,454.68675,33.409018)"
         id="g309">
        <circle
           cx="-123.248"
           cy="-128.752"
           fill="#f7f7f7"
           r="88"
           id="circle303" />
        <circle
           cx="-124.248"
           cy="-128.752"
           fill="#ffffff"
           r="80"
           id="circle305" />
        <circle
           cx="-123.248"
           cy="-128.752"
           fill="#aea795"
           r="80"
           id="circle307" />
      </g>
      <circle
         cx="-157"
         cy="-152"
         filter="url(#b)"
         opacity="0.1"
         r="68"
         transform="matrix(0,-1,-1,0,431.43874,0.657034)"
         id="circle311" />
      <path
         d="m 583.43804,76.656329 a 80.000136,80.000135 0 0 0 -79.9993,80.000691 80.000136,80.000135 0 0 0 79.9993,80.0007 80.000136,80.000135 0 0 0 80.0007,-80.0007 80.000136,80.000135 0 0 0 -80.0007,-80.000691 z m 0,28.622581 a 51.378131,51.37813 0 0 1 51.37811,51.37811 51.378131,51.37813 0 0 1 -51.37811,51.37811 51.378131,51.37813 0 0 1 -51.3781,-51.37811 51.378131,51.37813 0 0 1 51.3781,-51.37811 z"
         fill="url(#a)"
         opacity="0.05"
         id="path313"
         style="fill:url(#a)" />
      <circle
         cx="-156.65701"
         cy="-583.43872"
         fill="#f7f7f7"
         r="68"
         transform="matrix(0,-1,-1,0,0,0)"
         id="circle315" />
      <circle
         cx="-156.65701"
         cy="-583.43872"
         opacity="0.1"
         r="60"
         transform="matrix(0,-1,-1,0,0,0)"
         id="circle317" />
      <circle
         cx="-156.65701"
         cy="-583.43872"
         opacity="0.1"
         r="32"
         transform="matrix(0,-1,-1,0,0,0)"
         id="circle319" />
      <path
         d="m 583.43874,68.657032 a 87.999993,87.999992 0 0 0 -88,87.999998 87.999993,87.999992 0 0 0 0.041,0.83008 87.999993,87.999992 0 0 1 87.959,-86.830078 87.999993,87.999992 0 0 1 87.95898,87.169918 87.999993,87.999992 0 0 0 0.041,-1.16992 87.999993,87.999992 0 0 0 -88,-87.999998 z"
         fill="#ffffff"
         id="path321" />
      <path
         d="m 575.43874,116.65703 h 16 v 42.49998 l -5.33334,5 5.33334,5 v 27.50002 h -16 v -42.50002 l 5.33332,-5 -5.33332,-5 z"
         fill="#3b3b3b"
         id="path323" />
      <path
         d="m 583.43874,88.657032 a 68.000001,68 0 0 0 -68,67.999998 68.000001,68 0 0 0 0.041,0.82812 68.000001,68 0 0 1 67.95898,-66.828118 68.000001,68 0 0 1 67.95898,67.171878 68.000001,68 0 0 0 0.041,-1.17188 68.000001,68 0 0 0 -68,-67.999998 z"
         fill="#ffffff"
         id="path325" />
      <path
         d="m 583.43874,44.657022 a 112,112 0 0 0 -111.99999,111.999998 112,112 0 0 0 0.041,1.16992 A 112,112 0 0 1 583.43872,46.657022 112,112 0 0 1 695.3977,157.4871 a 112,112 0 0 0 0.041,-0.83008 112,112 0 0 0 -112,-111.999998 z"
         fill="#ffffff"
         opacity="0.3"
         id="path327" />
      <path
         d="m 583.43874,268.65702 a 112,112 0 0 1 -111.99999,-112 112,112 0 0 1 0.041,-1.16992 112,112 0 0 0 111.95897,111.16992 112,112 0 0 0 111.95898,-110.83008 112,112 0 0 1 0.041,0.83008 112,112 0 0 1 -112,112 z"
         opacity="0.2"
         id="path329" />
    </g>
  </g>
</svg>
