<?xml version="1.0" encoding="UTF-8" standalone="no"?>
<!-- Created with Inkscape (http://www.inkscape.org/) -->

<svg
   width="64"
   version="1.1"
   height="64"
   id="svg21"
   sodipodi:docname="dialog-question.svg"
   inkscape:version="1.2 (dc2aedaf03, 2022-05-15)"
   xmlns:inkscape="http://www.inkscape.org/namespaces/inkscape"
   xmlns:sodipodi="http://sodipodi.sourceforge.net/DTD/sodipodi-0.dtd"
   xmlns="http://www.w3.org/2000/svg"
   xmlns:svg="http://www.w3.org/2000/svg">
  <sodipodi:namedview
     id="namedview23"
     pagecolor="#505050"
     bordercolor="#eeeeee"
     borderopacity="1"
     inkscape:showpageshadow="0"
     inkscape:pageopacity="0"
     inkscape:pagecheckerboard="0"
     inkscape:deskcolor="#505050"
     showgrid="false"
     inkscape:zoom="4.40625"
     inkscape:cx="3.5177305"
     inkscape:cy="37.219858"
     inkscape:window-width="1308"
     inkscape:window-height="742"
     inkscape:window-x="58"
     inkscape:window-y="26"
     inkscape:window-maximized="1"
     inkscape:current-layer="layer1" />
  <defs
     id="defs3811">
    <filter
       id="a"
       color-interpolation-filters="sRGB"
       height="1.1423948"
       width="1.2947106"
       x="-0.1473553"
       y="-0.071197387">
      <feGaussianBlur
         stdDeviation="4.264"
         id="feGaussianBlur279" />
    </filter>
    <filter
       id="b"
       color-interpolation-filters="sRGB"
       height="1.0177993"
       width="1.0368388"
       x="-0.018419412"
       y="-0.0088996728">
      <feGaussianBlur
         stdDeviation=".533"
         id="feGaussianBlur282" />
    </filter>
    <linearGradient
       id="c"
       gradientUnits="userSpaceOnUse"
       x1="80.751999"
       x2="176.752"
       y1="11.248008"
       y2="235.248"
       gradientTransform="translate(526.40306,37.948025)">
      <stop
         offset="0"
         stop-color="#1a7fd4"
         id="stop285" />
      <stop
         offset="1"
         stop-color="#37a6e6"
         id="stop287" />
    </linearGradient>
    <filter
       id="d"
       color-interpolation-filters="sRGB"
       height="1.024"
       width="1.024"
       x="-0.012"
       y="-0.012">
      <feGaussianBlur
         stdDeviation="1.12"
         id="feGaussianBlur290" />
    </filter>
    <filter
       id="e"
       color-interpolation-filters="sRGB"
       height="1.096"
       width="1.096"
       x="-0.048"
       y="-0.048">
      <feGaussianBlur
         stdDeviation="4.48"
         id="feGaussianBlur293" />
    </filter>
  </defs>
  <metadata
     id="metadata3814" />
  <g
     inkscape:label="Layer 1"
     inkscape:groupmode="layer"
     id="layer1"
     transform="matrix(1 0 0 1 -736.85718 -157.93361)">
    <g
       id="g743"
       transform="matrix(0.21180918,0,0,0.21180918,630.08933,154.94358)">
      <circle
         cx="655.15503"
         cy="165.19603"
         filter="url(#e)"
         opacity="0.1"
         r="112"
         id="circle296" />
      <circle
         cx="655.15503"
         cy="163.19603"
         filter="url(#d)"
         opacity="0.1"
         r="112"
         id="circle298" />
      <circle
         cx="655.15503"
         cy="161.19603"
         opacity="0.1"
         r="114"
         id="circle300" />
      <circle
         cx="655.15503"
         cy="161.19603"
         fill="url(#c)"
         r="112"
         id="circle302"
         style="fill:url(#c)" />
      <path
         d="m 543.15506,170.89193 a 112.5345,112.53445 0 0 0 111.97753,102.3041 112.5345,112.53445 0 0 0 112.02247,-102.3041 z"
         fill="#ffffff"
         opacity="0.1"
         id="path304" />
      <g
         enable-background="new"
         transform="matrix(1.0084216,0,0,1.0084215,503.30136,7.079293)"
         id="g312">
        <path
           d="m 153.89668,86.1329 0.0144,0.0144 c -6.38475,5.8e-4 -12.42422,0.73157 -18.1184,2.18952 -5.16949,1.3539 -9.74902,3.20192 -13.97956,5.33883 l 4.32123,11.95324 c 8.23977,-4.18257 16.69148,-6.47226 25.34324,-6.47226 7.27388,0 13.04389,1.92276 17.01647,5.88974 3.91997,3.77969 5.90554,8.82432 5.90554,14.80417 0,3.72839 -0.87242,7.21805 -2.60359,10.39524 -1.54764,3.08853 -3.57676,6.03016 -6.08089,8.81269 -2.45268,2.72518 -5.03758,5.44964 -7.76004,8.17224 l -0.0105,0.0105 -0.0287,0.0106 c -2.65318,2.52051 -5.17326,5.30965 -7.56872,8.37043 l -0.0105,0.0106 -0.005,0.0105 c -2.35612,2.87955 -4.31476,6.01852 -5.88798,9.42323 -1.40046,3.3205 -2.1194,7.03566 -2.1194,11.1935 0,2.49378 0.28918,4.83292 0.67724,7.116 h 13.02163 c -0.0106,-0.27883 -0.0719,-0.52891 -0.0719,-0.81924 v -2.23518 c 0,-4.64148 0.92128,-8.86054 2.77908,-12.58649 1.80519,-3.74922 4.03265,-7.15998 6.67577,-10.22507 l 0.0105,-0.0105 c 0.005,-0.005 0.005,-0.0102 0.0106,-0.0288 2.60847,-3.15506 5.49118,-6.16698 8.64064,-9.04235 3.06538,-2.79891 5.86099,-5.73092 8.38812,-8.78997 2.49982,-3.026 4.59706,-6.24546 6.30553,-9.65822 v -0.005 c 1.65715,-3.44353 2.5001,-7.34352 2.5001,-11.76194 0,-3.49655 -0.57921,-7.14575 -1.7615,-10.95132 l -0.0105,-0.0287 -0.005,-0.0288 c -1.02332,-3.83862 -2.92711,-7.27985 -5.76339,-10.37412 -2.80955,-3.06495 -6.60995,-5.58877 -11.46356,-7.55652 l -0.0288,-0.0105 -0.0287,-0.0105 c -4.61748,-2.05225 -10.72179,-3.12603 -18.29915,-3.12646 z m -3.23176,119.34734 c -3.89101,0 -6.72709,1.18861 -8.89336,3.59486 -2.2245,2.4718 -3.29137,5.25691 -3.29137,8.59695 0,3.3399 1.06745,6.13048 3.29137,8.60213 2.16627,2.40697 5.00235,3.58782 8.89336,3.58782 3.89132,0 6.7322,-1.18142 8.89858,-3.58782 2.2243,-2.47165 3.29146,-5.26223 3.29146,-8.60213 0,-3.34004 -1.06644,-6.12515 -3.29146,-8.59695 -2.16638,-2.40697 -5.00726,-3.59486 -8.89858,-3.59486 z"
           filter="url(#a)"
           opacity="0.2"
           id="path306" />
        <path
           d="m 153.89668,86.132904 0.0144,0.01437 c -6.38475,5.75e-4 -12.42422,0.731564 -18.1184,2.189516 -5.16949,1.353896 -9.74902,3.20192 -13.97956,5.338833 l 4.32123,11.953237 c 8.23977,-4.18257 16.69148,-6.472259 25.34324,-6.472259 7.27388,0 13.04389,1.922759 17.01647,5.889739 3.91997,3.77969 5.90554,8.82432 5.90554,14.80417 0,3.72839 -0.87242,7.21805 -2.60359,10.39524 -1.54764,3.08853 -3.57676,6.03016 -6.08089,8.81269 -2.45268,2.72518 -5.03758,5.44964 -7.76004,8.17224 l -0.0105,0.0105 -0.0287,0.0106 c -2.65318,2.52051 -5.17326,5.30965 -7.56872,8.37043 l -0.0105,0.0106 -0.005,0.0105 c -2.35612,2.87955 -4.31476,6.01852 -5.88798,9.42323 -1.40046,3.3205 -2.1194,7.03566 -2.1194,11.1935 0,2.49378 0.28918,4.83292 0.67724,7.116 h 13.02163 c -0.0106,-0.27883 -0.0719,-0.52891 -0.0719,-0.81924 v -2.23518 c 0,-4.64148 0.92128,-8.86054 2.77908,-12.58649 1.80519,-3.74922 4.03265,-7.15998 6.67577,-10.22507 l 0.0105,-0.0105 c 0.005,-0.005 0.005,-0.0102 0.0106,-0.0288 2.60847,-3.15506 5.49118,-6.16698 8.64064,-9.04235 3.06538,-2.79891 5.86099,-5.73092 8.38812,-8.78997 2.49982,-3.026 4.59706,-6.24546 6.30553,-9.65822 v -0.005 c 1.65715,-3.44353 2.5001,-7.34352 2.5001,-11.76194 0,-3.49655 -0.57921,-7.14575 -1.7615,-10.95132 l -0.0105,-0.0287 -0.005,-0.0288 c -1.02332,-3.83862 -2.92711,-7.279847 -5.76339,-10.374116 -2.80955,-3.064949 -6.60995,-5.588772 -11.46356,-7.55652 l -0.0288,-0.01049 -0.0287,-0.01049 c -4.61748,-2.052258 -10.72179,-3.126032 -18.29915,-3.126464 z m -3.23176,119.347336 c -3.89101,0 -6.72709,1.18861 -8.89336,3.59486 -2.2245,2.4718 -3.29137,5.25691 -3.29137,8.59695 0,3.3399 1.06745,6.13048 3.29137,8.60213 2.16627,2.40697 5.00235,3.58782 8.89336,3.58782 3.89132,0 6.7322,-1.18142 8.89858,-3.58782 2.2243,-2.47165 3.29146,-5.26223 3.29146,-8.60213 0,-3.34004 -1.06644,-6.12515 -3.29146,-8.59695 -2.16638,-2.40697 -5.00726,-3.59486 -8.89858,-3.59486 z"
           filter="url(#b)"
           opacity="0.1"
           id="path308" />
        <path
           d="m 153.89668,84.133064 0.0144,0.01437 c -6.38475,5.75e-4 -12.42422,0.731564 -18.1184,2.189516 -5.16949,1.353896 -9.74902,3.20192 -13.97956,5.338833 l 4.32123,11.953237 c 8.23977,-4.182566 16.69148,-6.472259 25.34324,-6.472259 7.27388,0 13.04389,1.922762 17.01647,5.889739 3.91997,3.77969 5.90554,8.82432 5.90554,14.80417 0,3.72839 -0.87242,7.21805 -2.60359,10.39524 -1.54764,3.08853 -3.57676,6.03016 -6.08089,8.81269 -2.45268,2.72518 -5.03758,5.44964 -7.76004,8.17224 l -0.0105,0.0105 -0.0287,0.0106 c -2.65318,2.52051 -5.17326,5.30965 -7.56872,8.37043 l -0.0105,0.0106 -0.005,0.0105 c -2.35612,2.87955 -4.31476,6.01852 -5.88798,9.42323 -1.40046,3.3205 -2.1194,7.03566 -2.1194,11.1935 0,2.49378 0.28918,4.83292 0.67724,7.116 h 13.02163 c -0.0106,-0.27883 -0.0719,-0.52891 -0.0719,-0.81924 v -2.23518 c 0,-4.64148 0.92128,-8.86054 2.77908,-12.58649 1.80519,-3.74922 4.03265,-7.15998 6.67577,-10.22507 l 0.0105,-0.0105 c 0.005,-0.005 0.005,-0.0102 0.0106,-0.0288 2.60847,-3.15506 5.49118,-6.16698 8.64064,-9.04235 3.06538,-2.79891 5.86099,-5.73092 8.38812,-8.78997 2.49982,-3.026 4.59706,-6.24546 6.30553,-9.65822 v -0.005 c 1.65715,-3.44353 2.5001,-7.34352 2.5001,-11.76194 0,-3.49655 -0.57921,-7.14575 -1.7615,-10.95132 l -0.0105,-0.0287 -0.005,-0.0288 c -1.02332,-3.83862 -2.92711,-7.279847 -5.76339,-10.374116 -2.80955,-3.064949 -6.60995,-5.588772 -11.46356,-7.55652 l -0.0288,-0.01049 -0.0287,-0.01049 C 167.58266,85.200746 161.47835,84.126972 153.90099,84.12654 Z M 150.66492,203.4804 c -3.89101,0 -6.72709,1.18861 -8.89336,3.59486 -2.2245,2.4718 -3.29137,5.25691 -3.29137,8.59695 0,3.3399 1.06745,6.13048 3.29137,8.60213 2.16627,2.40697 5.00235,3.58782 8.89336,3.58782 3.89132,0 6.7322,-1.18142 8.89858,-3.58782 2.2243,-2.47165 3.29146,-5.26223 3.29146,-8.60213 0,-3.34004 -1.06644,-6.12515 -3.29146,-8.59695 -2.16638,-2.40697 -5.00726,-3.59486 -8.89858,-3.59486 z"
           fill="#ffffff"
           id="path310" />
      </g>
      <path
         d="m 655.15506,49.196033 a 112,112 0 0 0 -112,111.999997 112,112 0 0 0 0.041,1.16991 112,112 0 0 1 111.95898,-111.169907 112,112 0 0 1 111.95898,110.830067 112,112 0 0 0 0.041,-0.83007 112,112 0 0 0 -112,-111.999997 z"
         fill="#ffffff"
         opacity="0.3"
         id="path314" />
      <path
         d="m 655.15506,273.19603 a 112,112 0 0 1 -112,-112 112,112 0 0 1 0.041,-1.16993 112,112 0 0 0 111.95898,111.16993 112,112 0 0 0 111.95898,-110.83009 112,112 0 0 1 0.041,0.83008 112,112 0 0 1 -112,112.00001 z"
         opacity="0.2"
         id="path316" />
    </g>
  </g>
</svg>
