<?xml version="1.0" encoding="UTF-8" standalone="no"?>
<!-- Created with Inkscape (http://www.inkscape.org/) -->

<svg
   width="64"
   version="1.1"
   height="64"
   id="svg21"
   sodipodi:docname="dialog-warning.svg"
   inkscape:version="1.2 (dc2aedaf03, 2022-05-15)"
   xmlns:inkscape="http://www.inkscape.org/namespaces/inkscape"
   xmlns:sodipodi="http://sodipodi.sourceforge.net/DTD/sodipodi-0.dtd"
   xmlns:xlink="http://www.w3.org/1999/xlink"
   xmlns="http://www.w3.org/2000/svg"
   xmlns:svg="http://www.w3.org/2000/svg">
  <sodipodi:namedview
     id="namedview23"
     pagecolor="#505050"
     bordercolor="#eeeeee"
     borderopacity="1"
     inkscape:showpageshadow="0"
     inkscape:pageopacity="0"
     inkscape:pagecheckerboard="0"
     inkscape:deskcolor="#505050"
     showgrid="false"
     inkscape:zoom="2.203125"
     inkscape:cx="0.68085106"
     inkscape:cy="45.843972"
     inkscape:window-width="1308"
     inkscape:window-height="742"
     inkscape:window-x="58"
     inkscape:window-y="26"
     inkscape:window-maximized="1"
     inkscape:current-layer="layer1" />
  <defs
     id="defs3811">
    <linearGradient
       inkscape:collect="always"
       xlink:href="#linearGradient4169"
       id="linearGradient4173"
       x1="23.283331"
       y1="4.2333317"
       x2="48.154163"
       y2="63.5"
       gradientUnits="userSpaceOnUse"
       gradientTransform="matrix(3.7795275,0,0,3.7795275,547.12669,39.73503)" />
    <linearGradient
       inkscape:collect="always"
       id="linearGradient4169">
      <stop
         style="stop-color:#da1636;stop-opacity:1;"
         offset="0"
         id="stop4165" />
      <stop
         style="stop-color:#f22c42;stop-opacity:1;"
         offset="1"
         id="stop4167" />
    </linearGradient>
    <filter
       inkscape:collect="always"
       style="color-interpolation-filters:sRGB"
       id="filter12342"
       x="-0.012"
       y="-0.012"
       width="1.024"
       height="1.024">
      <feGaussianBlur
         inkscape:collect="always"
         stdDeviation="0.29633333"
         id="feGaussianBlur12344" />
    </filter>
  </defs>
  <metadata
     id="metadata3814" />
  <g
     inkscape:label="Layer 1"
     inkscape:groupmode="layer"
     id="layer1"
     transform="matrix(1 0 0 1 -736.85718 -157.93361)">
    <g
       id="g493"
       transform="matrix(0.20684378,0,0,0.20684378,629.21142,154.82498)">
      <circle
         style="opacity:0.1;mix-blend-mode:normal;fill:#000000;fill-opacity:0.98859;stroke-width:0.264583;filter:url(#filter12342)"
         id="path12224"
         cx="33.866665"
         cy="34.395832"
         r="29.633333"
         transform="matrix(3.7795275,0,0,3.7795275,547.12669,39.73503)" />
      <circle
         style="fill:url(#linearGradient4173);fill-opacity:1;stroke-width:0.999999"
         id="path3815"
         cx="675.12671"
         cy="167.73502"
         r="112" />
      <path
         d="m 563.14916,177.43092 c 5.28651,57.91135 53.82537,102.25708 111.97752,102.3041 58.16939,-0.0238 106.73438,-44.3756 112.02247,-102.3041 z"
         style="display:inline;opacity:0.05;fill:#ffffff;fill-opacity:1;stroke:none;stroke-width:10.6667;stroke-linecap:round;stroke-linejoin:round;stroke-miterlimit:4;stroke-dasharray:none;stroke-opacity:1;enable-background:new"
         id="path7401" />
      <path
         d="m 682.26063,135.10046 c 0,5.84703 -0.13599,11.35411 -0.40794,16.52125 -0.13598,5.03116 -0.40792,9.92635 -0.81586,14.68555 -0.40792,4.75921 -0.88385,9.38244 -1.42776,13.86969 -0.40793,4.48726 -0.88385,8.97451 -1.42776,13.46176 h -6.11898 c -1.22379,-9.11048 -2.24362,-18.22097 -3.05949,-27.33145 -0.67989,-9.11048 -1.01983,-19.51274 -1.01983,-31.2068 V 95.73503 h 14.27762 z m 4.07932,93.21247 c 0,3.12748 -1.01983,5.77903 -3.05949,7.95467 -1.90368,2.17564 -4.62323,3.26346 -8.15864,3.26346 -3.53541,0 -6.32294,-1.08782 -8.3626,-3.26346 -1.90369,-2.17564 -2.85553,-4.82719 -2.85553,-7.95467 0,-3.12748 0.95184,-5.77904 2.85553,-7.95468 2.03966,-2.17563 4.82719,-3.26345 8.3626,-3.26345 3.53541,0 6.25496,1.08782 8.15864,3.26345 2.03966,2.17564 3.05949,4.8272 3.05949,7.95468 z"
         style="font-style:normal;font-variant:normal;font-weight:300;font-stretch:normal;font-family:Ubuntu;-inkscape-font-specification:'Ubuntu Light';text-align:center;text-anchor:middle;fill:#ffffff;fill-opacity:1;stroke-width:5.09915px"
         id="path9559" />
      <path
         id="path4737"
         style="opacity:0.2;fill:#000000;fill-opacity:1;stroke-width:1.00002"
         d="m 787.10716,166.2487 c -0.28274,61.64758 -50.33224,111.47623 -111.98047,111.48633 -61.453,-0.0179 -111.41421,-49.54945 -111.96289,-111 -0.0139,0.33328 -0.0262,0.66661 -0.0371,1 0,61.85589 50.14411,112 112,112 61.85589,0 112,-50.14411 112,-112 -0.003,-0.49548 -0.01,-0.99094 -0.0195,-1.48633 z"
         sodipodi:nodetypes="ccccscc" />
      <path
         d="M 787.10715,169.22136 C 786.82441,107.57378 736.77491,57.745141 675.12668,57.735031 613.67369,57.75295 563.71248,107.28448 563.1638,168.73503 c -0.014,-0.33328 -0.0261,-0.66661 -0.037,-1 0,-61.85589 50.1441,-112 111.99999,-112 61.85589,0 112,50.14411 112,112 -0.003,0.49548 -0.01,0.99094 -0.0197,1.48633 z"
         style="opacity:0.3;fill:#ffffff;fill-opacity:1;stroke-width:1.00002"
         id="path4908" />
    </g>
  </g>
</svg>
