<?xml version="1.0" encoding="UTF-8" standalone="no"?>
<svg
   height="64"
   width="64"
   version="1.1"
   id="svg27"
   sodipodi:docname="dialog-positive.svg"
   inkscape:version="1.2 (dc2aedaf03, 2022-05-15)"
   xmlns:inkscape="http://www.inkscape.org/namespaces/inkscape"
   xmlns:sodipodi="http://sodipodi.sourceforge.net/DTD/sodipodi-0.dtd"
   xmlns:xlink="http://www.w3.org/1999/xlink"
   xmlns="http://www.w3.org/2000/svg"
   xmlns:svg="http://www.w3.org/2000/svg">
  <defs
     id="defs31">
    <filter
       inkscape:collect="always"
       style="color-interpolation-filters:sRGB"
       id="filter12342"
       x="-0.012"
       y="-0.012"
       width="1.024"
       height="1.024">
      <feGaussianBlur
         inkscape:collect="always"
         stdDeviation="0.29633333"
         id="feGaussianBlur12344" />
    </filter>
    <linearGradient
       inkscape:collect="always"
       xlink:href="#linearGradient4169"
       id="linearGradient4173"
       x1="23.283331"
       y1="4.2333317"
       x2="48.154163"
       y2="63.5"
       gradientUnits="userSpaceOnUse"
       gradientTransform="matrix(3.7795275,0,0,3.7795275,589.33945,109.18184)" />
    <linearGradient
       inkscape:collect="always"
       id="linearGradient4169">
      <stop
         style="stop-color:#5b9c2c;stop-opacity:1;"
         offset="0"
         id="stop4165" />
      <stop
         style="stop-color:#47ab2c;stop-opacity:1;"
         offset="1"
         id="stop4167" />
    </linearGradient>
  </defs>
  <sodipodi:namedview
     id="namedview29"
     pagecolor="#505050"
     bordercolor="#eeeeee"
     borderopacity="1"
     inkscape:showpageshadow="0"
     inkscape:pageopacity="0"
     inkscape:pagecheckerboard="0"
     inkscape:deskcolor="#505050"
     showgrid="false"
     inkscape:zoom="6.2313785"
     inkscape:cx="21.584309"
     inkscape:cy="31.614193"
     inkscape:window-width="1308"
     inkscape:window-height="742"
     inkscape:window-x="58"
     inkscape:window-y="26"
     inkscape:window-maximized="1"
     inkscape:current-layer="svg27" />
  <linearGradient
     id="a"
     gradientTransform="matrix(-1.4054053 0 0 1.4054053 804.69502 154.09579)"
     gradientUnits="userSpaceOnUse"
     x2="0"
     y1="43.999989"
     y2="6.999989">
    <stop
       offset="0"
       stop-color="#42a603"
       id="stop2" />
    <stop
       offset="1"
       stop-color="#78da06"
       id="stop4" />
  </linearGradient>
  <linearGradient
     id="b"
     gradientUnits="userSpaceOnUse"
     x1="753.85721"
     x2="781.85727"
     y1="171.93361"
     y2="199.93361">
    <stop
       offset="0"
       stop-color="#292c2f"
       id="stop7" />
    <stop
       offset="1"
       stop-opacity="0"
       id="stop9" />
  </linearGradient>
  <linearGradient
     id="c"
     gradientTransform="translate(0 -5)"
     gradientUnits="userSpaceOnUse"
     x2="0"
     y1="199.93361"
     y2="175.93361">
    <stop
       offset="0"
       stop-color="#bcfd93"
       id="stop12" />
    <stop
       offset="1"
       stop-color="#fafff5"
       id="stop14" />
  </linearGradient>
  <g
     id="g576"
     transform="matrix(0.20684378,0,0,0.20684378,-116.3772,-17.473276)">
    <circle
       style="opacity:0.1;mix-blend-mode:normal;fill:#000000;fill-opacity:0.98859;stroke-width:0.264583;filter:url(#filter12342)"
       id="path12224"
       cx="33.866665"
       cy="34.395832"
       r="29.633333"
       transform="matrix(3.7795275,0,0,3.7795275,589.33945,109.18184)" />
    <circle
       style="fill:url(#linearGradient4173);fill-opacity:1;stroke-width:0.999999"
       id="path3815"
       cx="717.33942"
       cy="237.18182"
       r="112" />
    <path
       d="m 605.36192,246.87773 c 5.28651,57.91135 53.82537,102.25708 111.97752,102.3041 58.16939,-0.0238 106.73438,-44.3756 112.02247,-102.3041 z"
       style="display:inline;opacity:0.1;fill:#ffffff;fill-opacity:1;stroke:none;stroke-width:10.6667;stroke-linecap:round;stroke-linejoin:round;stroke-miterlimit:4;stroke-dasharray:none;stroke-opacity:1;enable-background:new"
       id="path7401" />
    <path
       id="path4737"
       style="opacity:0.2;fill:#000000;fill-opacity:1;stroke-width:1.00002"
       d="m 829.31992,235.69551 c -0.28274,61.64758 -50.33224,111.47623 -111.98047,111.48633 -61.453,-0.0179 -111.41421,-49.54945 -111.96289,-111 -0.0139,0.33328 -0.0262,0.66661 -0.0371,1 0,61.85589 50.14411,112 112,112 61.85589,0 112,-50.14411 112,-112 -0.003,-0.49548 -0.01,-0.99094 -0.0195,-1.48633 z"
       sodipodi:nodetypes="ccccscc" />
    <path
       d="m 829.31991,238.66817 c -0.28274,-61.64758 -50.33224,-111.47622 -111.98047,-111.48633 -61.45299,0.0179 -111.4142,49.54945 -111.96288,111 -0.014,-0.33328 -0.0261,-0.66661 -0.037,-1 0,-61.85589 50.1441,-112 111.99999,-112 61.85589,0 112,50.14411 112,112 -0.003,0.49548 -0.01,0.99094 -0.0197,1.48633 z"
       style="opacity:0.3;fill:#ffffff;fill-opacity:1;stroke-width:1.00002"
       id="path4908" />
  </g>
  <path
     d="m 40.908195,19.987441 4.499078,4.049198 -15.116943,19.97592 -11.697602,-10.077936 3.869207,-5.128973 6.838603,5.938798 z"
     fill="#ffffff"
     id="path719"
     style="stroke-width:3.12836" />
</svg>
