<?xml version="1.0" encoding="UTF-8" standalone="no"?>
<!-- Created with Inkscape (http://www.inkscape.org/) -->

<svg
   width="64"
   version="1.1"
   height="64"
   id="svg21"
   sodipodi:docname="dialog-information.svg"
   inkscape:version="1.2 (dc2aedaf03, 2022-05-15)"
   xmlns:inkscape="http://www.inkscape.org/namespaces/inkscape"
   xmlns:sodipodi="http://sodipodi.sourceforge.net/DTD/sodipodi-0.dtd"
   xmlns:xlink="http://www.w3.org/1999/xlink"
   xmlns="http://www.w3.org/2000/svg"
   xmlns:svg="http://www.w3.org/2000/svg">
  <sodipodi:namedview
     id="namedview23"
     pagecolor="#505050"
     bordercolor="#eeeeee"
     borderopacity="1"
     inkscape:showpageshadow="0"
     inkscape:pageopacity="0"
     inkscape:pagecheckerboard="0"
     inkscape:deskcolor="#505050"
     showgrid="false"
     inkscape:zoom="4.40625"
     inkscape:cx="28.48227"
     inkscape:cy="33.361702"
     inkscape:window-width="1308"
     inkscape:window-height="742"
     inkscape:window-x="58"
     inkscape:window-y="26"
     inkscape:window-maximized="1"
     inkscape:current-layer="layer1" />
  <defs
     id="defs3811">
    <filter
       id="filter993"
       color-interpolation-filters="sRGB"
       height="1.0156367"
       width="1.0515967"
       x="-0.025798336"
       y="-0.0078183345">
      <feGaussianBlur
         stdDeviation=".026875526"
         id="feGaussianBlur263" />
    </filter>
    <filter
       id="filter1011"
       color-interpolation-filters="sRGB"
       height="1.0625467"
       width="1.2063867"
       x="-0.10319334"
       y="-0.031273338">
      <feGaussianBlur
         stdDeviation=".1075021"
         id="feGaussianBlur266" />
    </filter>
    <filter
       id="filter11210"
       color-interpolation-filters="sRGB"
       height="1.096"
       width="1.096"
       x="-0.048"
       y="-0.048">
      <feGaussianBlur
         stdDeviation="4.48"
         id="feGaussianBlur260" />
    </filter>
    <filter
       id="filter11191"
       color-interpolation-filters="sRGB"
       height="1.024"
       width="1.024"
       x="-0.012"
       y="-0.012">
      <feGaussianBlur
         stdDeviation="1.12"
         id="feGaussianBlur257" />
    </filter>
    <linearGradient
       id="linearGradient11065"
       gradientUnits="userSpaceOnUse"
       x1="-176.752"
       x2="-80.751999"
       y1="-279.24799"
       y2="-55.24799">
      <stop
         offset="0"
         stop-color="#5884f4"
         id="stop252" />
      <stop
         offset="1"
         stop-color="#80a3fa"
         id="stop254" />
    </linearGradient>
    <linearGradient
       inkscape:collect="always"
       xlink:href="#linearGradient4169"
       id="linearGradient4173"
       x1="23.283331"
       y1="4.2333317"
       x2="48.154163"
       y2="63.5"
       gradientUnits="userSpaceOnUse"
       gradientTransform="matrix(3.7795275,0,0,3.7795275,589.33945,109.18184)" />
    <linearGradient
       inkscape:collect="always"
       id="linearGradient4169">
      <stop
         style="stop-color:#1a7fd4;stop-opacity:1;"
         offset="0"
         id="stop4165" />
      <stop
         style="stop-color:#37a6e6;stop-opacity:1;"
         offset="1"
         id="stop4167" />
    </linearGradient>
    <filter
       inkscape:collect="always"
       style="color-interpolation-filters:sRGB"
       id="filter12342"
       x="-0.012"
       y="-0.012"
       width="1.024"
       height="1.024">
      <feGaussianBlur
         inkscape:collect="always"
         stdDeviation="0.29633333"
         id="feGaussianBlur12344" />
    </filter>
  </defs>
  <metadata
     id="metadata3814" />
  <g
     inkscape:label="Layer 1"
     inkscape:groupmode="layer"
     id="layer1"
     transform="matrix(1 0 0 1 -736.85718 -157.93361)">
    <g
       id="g576"
       transform="matrix(0.20684378,0,0,0.20684378,620.47998,140.46033)">
      <circle
         style="opacity:0.1;mix-blend-mode:normal;fill:#000000;fill-opacity:0.98859;stroke-width:0.264583;filter:url(#filter12342)"
         id="path12224"
         cx="33.866665"
         cy="34.395832"
         r="29.633333"
         transform="matrix(3.7795275,0,0,3.7795275,589.33945,109.18184)" />
      <circle
         style="fill:url(#linearGradient4173);fill-opacity:1;stroke-width:0.999999"
         id="path3815"
         cx="717.33942"
         cy="237.18182"
         r="112" />
      <path
         d="m 605.36192,246.87773 c 5.28651,57.91135 53.82537,102.25708 111.97752,102.3041 58.16939,-0.0238 106.73438,-44.3756 112.02247,-102.3041 z"
         style="display:inline;opacity:0.1;fill:#ffffff;fill-opacity:1;stroke:none;stroke-width:10.6667;stroke-linecap:round;stroke-linejoin:round;stroke-miterlimit:4;stroke-dasharray:none;stroke-opacity:1;enable-background:new"
         id="path7401" />
      <path
         d="M 726.51758,308.97784 H 708.3477 V 207.38285 h 18.16988 z M 717.33495,189.0176 c -3.25625,0 -6.05662,-1.042 -8.40112,-3.126 -2.21425,-2.21425 -3.32138,-5.14488 -3.32138,-8.79189 0,-3.64699 1.10713,-6.5125 3.32138,-8.59649 2.3445,-2.21425 5.14487,-3.32138 8.40112,-3.32138 3.25625,0 5.9915,1.10713 8.20575,3.32138 2.3445,2.08399 3.51675,4.9495 3.51675,8.59649 0,3.64701 -1.17225,6.57764 -3.51675,8.79189 -2.21425,2.084 -4.9495,3.126 -8.20575,3.126 z"
         style="font-family:Ubuntu;-inkscape-font-specification:Ubuntu;fill:#ffffff;stroke-width:0.204734"
         id="path5772" />
      <path
         id="path4737"
         style="opacity:0.2;fill:#000000;fill-opacity:1;stroke-width:1.00002"
         d="m 829.31992,235.69551 c -0.28274,61.64758 -50.33224,111.47623 -111.98047,111.48633 -61.453,-0.0179 -111.41421,-49.54945 -111.96289,-111 -0.0139,0.33328 -0.0262,0.66661 -0.0371,1 0,61.85589 50.14411,112 112,112 61.85589,0 112,-50.14411 112,-112 -0.003,-0.49548 -0.01,-0.99094 -0.0195,-1.48633 z"
         sodipodi:nodetypes="ccccscc" />
      <path
         d="m 829.31991,238.66817 c -0.28274,-61.64758 -50.33224,-111.47622 -111.98047,-111.48633 -61.45299,0.0179 -111.4142,49.54945 -111.96288,111 -0.014,-0.33328 -0.0261,-0.66661 -0.037,-1 0,-61.85589 50.1441,-112 111.99999,-112 61.85589,0 112,50.14411 112,112 -0.003,0.49548 -0.01,0.99094 -0.0197,1.48633 z"
         style="opacity:0.3;fill:#ffffff;fill-opacity:1;stroke-width:1.00002"
         id="path4908" />
    </g>
  </g>
</svg>
