<?xml version="1.0" encoding="UTF-8" standalone="no"?>
<svg
   version="1.1"
   viewBox="0 0 64 64"
   id="svg38"
   sodipodi:docname="image-missing.svg"
   inkscape:version="1.2 (dc2aedaf03, 2022-05-15)"
   xmlns:inkscape="http://www.inkscape.org/namespaces/inkscape"
   xmlns:sodipodi="http://sodipodi.sourceforge.net/DTD/sodipodi-0.dtd"
   xmlns="http://www.w3.org/2000/svg"
   xmlns:svg="http://www.w3.org/2000/svg">
  <sodipodi:namedview
     id="namedview40"
     pagecolor="#505050"
     bordercolor="#eeeeee"
     borderopacity="1"
     inkscape:showpageshadow="0"
     inkscape:pageopacity="0"
     inkscape:pagecheckerboard="0"
     inkscape:deskcolor="#505050"
     showgrid="false"
     inkscape:zoom="3.1156893"
     inkscape:cx="34.181843"
     inkscape:cy="46.217703"
     inkscape:window-width="1308"
     inkscape:window-height="742"
     inkscape:window-x="58"
     inkscape:window-y="26"
     inkscape:window-maximized="1"
     inkscape:current-layer="svg38" />
  <defs
     id="defs18">
    <linearGradient
       id="a"
       x2="0"
       y1="392.36"
       y2="336.36"
       gradientTransform="translate(-47.987-332.35)"
       gradientUnits="userSpaceOnUse">
      <stop
         stop-color="#fff"
         stop-opacity="0"
         offset="0"
         id="stop2" />
      <stop
         stop-color="#fff"
         stop-opacity=".2"
         offset="1"
         id="stop4" />
    </linearGradient>
    <linearGradient
       id="b"
       x1="40"
       x2="54"
       y1="17"
       y2="31"
       gradientTransform="translate(.013.016)"
       gradientUnits="userSpaceOnUse">
      <stop
         stop-color="#060606"
         offset="0"
         id="stop7" />
      <stop
         stop-opacity="0"
         offset="1"
         id="stop9" />
    </linearGradient>
    <path
       id="c"
       d="m10.01 61.02v-58h30l14 14v44h-14z" />
    <radialGradient
       id="radialGradient11997"
       cx="16.5"
       cy="26.5"
       r="11.5"
       gradientTransform="matrix(.9167 .91383 -.9167 .91383 41.189 -4.0389)"
       gradientUnits="userSpaceOnUse">
      <stop
         stop-color="#da4453"
         offset="0"
         id="stop13" />
      <stop
         stop-color="#da4453"
         offset="1"
         id="stop15" />
    </radialGradient>
    <filter
       id="filter4346"
       color-interpolation-filters="sRGB"
       height="1.0227143"
       width="1.0264993"
       x="-0.013249627"
       y="-0.011357142">
      <feGaussianBlur
         stdDeviation="2.12"
         id="feGaussianBlur276" />
    </filter>
    <linearGradient
       id="linearGradient4358"
       gradientUnits="userSpaceOnUse"
       x1="88"
       x2="488"
       y1="88"
       y2="488">
      <stop
         offset="0"
         stop-opacity=".588235"
         id="stop269" />
      <stop
         offset=".88"
         stop-opacity="0"
         id="stop271" />
      <stop
         offset="1"
         id="stop273" />
    </linearGradient>
  </defs>
  <g
     id="g650"
     transform="matrix(0.22697584,0,0,0.22697584,35.090735,19.431011)">
    <g
       transform="matrix(3.7797136,0,0,3.7797136,-141.44854,-941.0139)"
       id="g299">
      <path
         d="M 189.84323,74 C 119.24979,74 111.65402,81.250835 112,151.98706 V 444.01294 C 111.65402,514.74917 119.24979,522 189.84323,522 H 418.15677 C 488.75021,522 494.0629,514.72348 496,444.01294 V 151.98706 C 496,81.249993 488.75021,74 418.15677,74 Z"
         filter="url(#filter4346)"
         opacity="0.1"
         transform="matrix(0,-0.13229167,0.13229167,0,-5.602492,303.83111)"
         id="path279" />
      <path
         d="M 189.84323,74 C 119.24979,74 111.65402,81.250835 112,151.98706 V 444.01294 C 111.65402,514.74917 119.24979,522 189.84323,522 H 418.15677 C 488.75021,522 496,514.75001 496,444.01294 V 151.98706 C 496,81.249993 488.75021,74 418.15677,74 Z"
         fill="url(#linearGradient4358)"
         opacity="0.3"
         transform="matrix(0,0.13229167,0.13229167,0,-5.602492,223.39921)"
         visibility="hidden"
         id="path281"
         style="fill:url(#linearGradient4358)" />
      <path
         d="m 63.453759,248.2493 c 0,-9.33892 -0.959226,-10.34378 -10.317038,-10.29801 H 14.504129 C 5.1463143,237.90549 4.187091,238.91038 4.187091,248.2493 v 30.20398 c 0,9.33892 0.9591147,10.29801 10.317038,10.29801 h 38.632592 c 9.357923,0 10.317038,-0.95909 10.317038,-10.29801 z"
         fill="#ed3146"
         id="path283" />
      <path
         d="m 4.1872891,277.92436 v 0.52917 c 0,9.33892 0.9587583,10.29756 10.3166829,10.29756 h 38.632786 c 9.357923,0 10.317199,-0.95864 10.317199,-10.29756 v -0.52917 c 0,9.33893 -0.959276,10.29756 -10.317199,10.29756 H 14.503972 c -9.3579245,0 -10.3166829,-0.95863 -10.3166829,-10.29756 z"
         opacity="0.2"
         id="path285" />
      <g
         fill="#ffffff"
         id="g297">
        <path
           d="m 14.503972,237.95109 c -9.3578154,-0.0458 -10.316683,0.95916 -10.316683,10.29808 v 0.52917 c 0,-9.33893 0.9588675,-10.34385 10.316683,-10.29808 h 38.632786 c 9.357812,-0.0458 10.317199,0.95915 10.317199,10.29808 v -0.52917 c 0,-9.33892 -0.959387,-10.34385 -10.317199,-10.29808 H 33.820624 Z"
           opacity="0.2"
           id="path287" />
        <path
           d="m 33.820426,246.56131 c -9.387738,0 -17.020801,7.63306 -17.020801,17.0208 0,9.38773 7.633063,17.0208 17.020801,17.0208 9.387736,0 17.020799,-7.63307 17.020799,-17.0208 0,-9.38774 -7.633063,-17.0208 -17.020799,-17.0208 z m 0,2.1276 c 8.237894,0 14.893197,6.6553 14.893197,14.8932 0,3.73547 -1.376278,7.13703 -3.640193,9.74873 L 24.071695,252.3291 c 2.611697,-2.26391 6.013261,-3.64019 9.748731,-3.64019 z m -11.253006,5.14447 21.001735,21.00173 c -2.611695,2.26392 -6.01326,3.6402 -9.748729,3.6402 -8.237896,0 -14.893199,-6.65531 -14.893199,-14.8932 0,-3.73547 1.376278,-7.13703 3.640193,-9.74873 z"
           opacity="0.6"
           id="path289" />
        <path
           d="M 4.1870911,263.35129 H 63.453759 v 15.10192 c 0,9.33892 -0.962171,10.05512 -10.316943,10.29808 H 14.504033 c -9.3579247,0 -10.3169419,-0.95916 -10.3169419,-10.29808 z"
           opacity="0.1"
           id="path291" />
        <path
           d="m 33.820426,237.95129 h 19.31639 c 9.357815,-0.0458 10.316943,0.95916 10.316943,10.29808 v 30.20384 c 0,9.33892 -0.962171,10.05512 -10.316943,10.29808 h -19.31639 z"
           opacity="0.1"
           id="path293" />
        <path
           d="m 47.578759,288.37935 15.875,-15.875 v 5.94886 c -0.01384,8.99472 -1.006126,9.92614 -10.100231,9.92614 z"
           opacity="0.1"
           id="path295" />
      </g>
    </g>
  </g>
</svg>
