<?xml version="1.0" encoding="UTF-8" standalone="no"?>
<svg
   id="svg4306"
   width="22"
   height="22"
   version="1.1"
   style="enable-background:new"
   sodipodi:docname="keepabove.svg"
   inkscape:version="1.1.1 (3bf5ae0d25, 2021-09-20, custom)"
   xmlns:inkscape="http://www.inkscape.org/namespaces/inkscape"
   xmlns:sodipodi="http://sodipodi.sourceforge.net/DTD/sodipodi-0.dtd"
   xmlns="http://www.w3.org/2000/svg"
   xmlns:svg="http://www.w3.org/2000/svg"
   xmlns:rdf="http://www.w3.org/1999/02/22-rdf-syntax-ns#"
   xmlns:cc="http://creativecommons.org/ns#"
   xmlns:dc="http://purl.org/dc/elements/1.1/">
  <metadata
     id="metadata24">
    <rdf:RDF>
      <cc:Work
         rdf:about="">
        <dc:format>image/svg+xml</dc:format>
        <dc:type
           rdf:resource="http://purl.org/dc/dcmitype/StillImage" />
      </cc:Work>
    </rdf:RDF>
  </metadata>
  <defs
     id="defs22" />
  <sodipodi:namedview
     inkscape:bbox-nodes="true"
     inkscape:snap-bbox="true"
     inkscape:document-rotation="0"
     pagecolor="#7e7e7e"
     bordercolor="#666666"
     borderopacity="1"
     objecttolerance="10"
     gridtolerance="10"
     guidetolerance="10"
     inkscape:pageopacity="0"
     inkscape:pageshadow="2"
     inkscape:window-width="1306"
     inkscape:window-height="740"
     id="namedview20"
     showgrid="true"
     inkscape:zoom="4.8295457"
     inkscape:cx="72.367055"
     inkscape:cy="4.7623527"
     inkscape:window-x="60"
     inkscape:window-y="28"
     inkscape:window-maximized="1"
     inkscape:current-layer="svg4306"
     inkscape:pagecheckerboard="1"
     inkscape:snap-global="true">
    <inkscape:grid
       type="xygrid"
       id="grid849" />
  </sodipodi:namedview>
  <style
     type="text/css"
     id="current-color-scheme">
        .ColorScheme-Text {
            color:#232629;
        }
        .ColorScheme-ButtonFocus{
            color:#3daee9;
        }
            .ColorScheme-NegativeText {
            color:#da4453;
        }
    </style>
  <g
     id="hover-center"
     transform="translate(-0.600048,38.300083)">
    <rect
       id="rect4266-3"
       width="22"
       height="22"
       x="-44.600048"
       y="-38.300083"
       style="opacity:0.00100002;fill:#000000;fill-opacity:1;fill-rule:nonzero;stroke:none;stroke-width:2;stroke-linecap:round;stroke-linejoin:round;stroke-miterlimit:4;stroke-dasharray:none;stroke-opacity:1"
       transform="scale(-1,1)" />
    <circle
       cx="33.600052"
       cy="27.300077"
       r="9"
       id="circle5255"
       style="fill:#505050;stroke-width:2.24925"
       transform="scale(1,-1)" />
    <path
       d="m 39.599766,-23.925077 c -0.6555,-0.517501 -1.31775,-1.04775 -1.992,-1.505999 -0.75,-0.510002 -1.479,-0.966001 -2.184,-1.369501 -0.651,-0.371999 -1.3305,-0.652501 -1.824,-0.8745 -0.4935,0.22275 -1.173,0.502501 -1.824,0.8745 a 33.6285,33.6285 0 0 0 -2.184,1.369501 c -0.675,0.4575 -1.3365,0.987749 -1.992,1.505999 h 1.1175 c 0.39375,-0.3 0.79725,-0.627001 1.21875,-0.914999 0.5325,-0.365252 1.07775,-0.708751 1.635,-1.029001 a 29.4825,29.4825 0 0 1 1.8765,-0.96375 l 0.15225,-0.07201 0.15225,0.07201 c 0.5325,0.25125 1.311,0.639001 1.8765,0.96375 0.55725,0.32025 1.1025,0.663749 1.635,1.028249 0.4215,0.28875 0.825,0.615002 1.21875,0.915751 z m -5.25,-6.000001 a 0.74999999,0.74999999 0 0 0 -0.75,-0.749999 0.74999999,0.74999999 0 0 0 -0.75,0.749999 0.74999999,0.74999999 0 0 0 0.75,0.750001 0.74999999,0.74999999 0 0 0 0.75,-0.750001 z"
       fill="#dfdfdf"
       id="path844"
       style="fill:#ffffff;fill-opacity:1;stroke:#ffffff;stroke-width:0.35;stroke-miterlimit:4;stroke-dasharray:none;stroke-opacity:1" />
  </g>
  <g
     id="active-center"
     style="enable-background:new"
     transform="translate(-22.600048,38.300083)">
    <rect
       id="rect4266-3-7"
       width="22"
       height="22"
       x="-44.600048"
       y="-38.300083"
       style="opacity:0.00100002;fill:#000000;fill-opacity:1;fill-rule:nonzero;stroke:none;stroke-width:2;stroke-linecap:round;stroke-linejoin:round;stroke-miterlimit:4;stroke-dasharray:none;stroke-opacity:1"
       transform="scale(-1,1)" />
    <circle
       cx="33.600052"
       cy="27.300077"
       r="9"
       id="circle5255-5"
       style="fill:#505050;fill-opacity:0;stroke-width:2.24925"
       transform="scale(1,-1)" />
    <path
       d="m 39.599766,-23.925077 c -0.6555,-0.517501 -1.31775,-1.04775 -1.992,-1.505999 -0.75,-0.510002 -1.479,-0.966001 -2.184,-1.369501 -0.651,-0.371999 -1.3305,-0.652501 -1.824,-0.8745 -0.4935,0.22275 -1.173,0.502501 -1.824,0.8745 a 33.6285,33.6285 0 0 0 -2.184,1.369501 c -0.675,0.4575 -1.3365,0.987749 -1.992,1.505999 h 1.1175 c 0.39375,-0.3 0.79725,-0.627001 1.21875,-0.914999 0.5325,-0.365252 1.07775,-0.708751 1.635,-1.029001 a 29.4825,29.4825 0 0 1 1.8765,-0.96375 l 0.15225,-0.07201 0.15225,0.07201 c 0.5325,0.25125 1.311,0.639001 1.8765,0.96375 0.55725,0.32025 1.1025,0.663749 1.635,1.028249 0.4215,0.28875 0.825,0.615002 1.21875,0.915751 z m -5.25,-6.000001 a 0.74999999,0.74999999 0 0 0 -0.75,-0.749999 0.74999999,0.74999999 0 0 0 -0.75,0.749999 0.74999999,0.74999999 0 0 0 0.75,0.750001 0.74999999,0.74999999 0 0 0 0.75,-0.750001 z"
       fill="#dfdfdf"
       id="path844-3"
       style="fill:#ffffff;fill-opacity:1;stroke:#ffffff;stroke-width:0.35;stroke-miterlimit:4;stroke-dasharray:none;stroke-opacity:1" />
  </g>
  <g
     id="pressed-center"
     style="enable-background:new"
     transform="translate(21.399952,38.300083)">
    <rect
       id="rect4266-3-6"
       width="22"
       height="22"
       x="-44.600048"
       y="-38.300083"
       style="opacity:0.00100002;fill:#000000;fill-opacity:1;fill-rule:nonzero;stroke:none;stroke-width:2;stroke-linecap:round;stroke-linejoin:round;stroke-miterlimit:4;stroke-dasharray:none;stroke-opacity:1"
       transform="scale(-1,1)" />
    <circle
       cx="33.600052"
       cy="27.300077"
       r="9"
       id="circle5255-2"
       style="fill:#5c5c5c;fill-opacity:1;stroke-width:2.24925"
       transform="scale(1,-1)" />
    <path
       d="m 39.599766,-23.925077 c -0.6555,-0.517501 -1.31775,-1.04775 -1.992,-1.505999 -0.75,-0.510002 -1.479,-0.966001 -2.184,-1.369501 -0.651,-0.371999 -1.3305,-0.652501 -1.824,-0.8745 -0.4935,0.22275 -1.173,0.502501 -1.824,0.8745 a 33.6285,33.6285 0 0 0 -2.184,1.369501 c -0.675,0.4575 -1.3365,0.987749 -1.992,1.505999 h 1.1175 c 0.39375,-0.3 0.79725,-0.627001 1.21875,-0.914999 0.5325,-0.365252 1.07775,-0.708751 1.635,-1.029001 a 29.4825,29.4825 0 0 1 1.8765,-0.96375 l 0.15225,-0.07201 0.15225,0.07201 c 0.5325,0.25125 1.311,0.639001 1.8765,0.96375 0.55725,0.32025 1.1025,0.663749 1.635,1.028249 0.4215,0.28875 0.825,0.615002 1.21875,0.915751 z m -5.25,-6.000001 a 0.74999999,0.74999999 0 0 0 -0.75,-0.749999 0.74999999,0.74999999 0 0 0 -0.75,0.749999 0.74999999,0.74999999 0 0 0 0.75,0.750001 0.74999999,0.74999999 0 0 0 0.75,-0.750001 z"
       fill="#dfdfdf"
       id="path844-9"
       style="fill:#ffffff;fill-opacity:1;stroke:#ffffff;stroke-width:0.35;stroke-miterlimit:4;stroke-dasharray:none;stroke-opacity:1" />
  </g>
  <g
     id="inactive-center"
     style="enable-background:new"
     transform="translate(43.399952,38.300083)">
    <rect
       id="rect4266-3-2"
       width="22"
       height="22"
       x="-44.600048"
       y="-38.300083"
       style="opacity:0.00100002;fill:#000000;fill-opacity:1;fill-rule:nonzero;stroke:none;stroke-width:2;stroke-linecap:round;stroke-linejoin:round;stroke-miterlimit:4;stroke-dasharray:none;stroke-opacity:1"
       transform="scale(-1,1)" />
    <circle
       cx="33.600052"
       cy="27.300077"
       r="9"
       id="circle5255-7"
       style="fill:#505050;fill-opacity:0;stroke-width:2.24925"
       transform="scale(1,-1)" />
    <path
       d="m 39.599766,-23.925077 c -0.6555,-0.517501 -1.31775,-1.04775 -1.992,-1.505999 -0.75,-0.510002 -1.479,-0.966001 -2.184,-1.369501 -0.651,-0.371999 -1.3305,-0.652501 -1.824,-0.8745 -0.4935,0.22275 -1.173,0.502501 -1.824,0.8745 a 33.6285,33.6285 0 0 0 -2.184,1.369501 c -0.675,0.4575 -1.3365,0.987749 -1.992,1.505999 h 1.1175 c 0.39375,-0.3 0.79725,-0.627001 1.21875,-0.914999 0.5325,-0.365252 1.07775,-0.708751 1.635,-1.029001 a 29.4825,29.4825 0 0 1 1.8765,-0.96375 l 0.15225,-0.07201 0.15225,0.07201 c 0.5325,0.25125 1.311,0.639001 1.8765,0.96375 0.55725,0.32025 1.1025,0.663749 1.635,1.028249 0.4215,0.28875 0.825,0.615002 1.21875,0.915751 z m -5.25,-6.000001 a 0.74999999,0.74999999 0 0 0 -0.75,-0.749999 0.74999999,0.74999999 0 0 0 -0.75,0.749999 0.74999999,0.74999999 0 0 0 0.75,0.750001 0.74999999,0.74999999 0 0 0 0.75,-0.750001 z"
       fill="#dfdfdf"
       id="path844-0"
       style="fill:#ffffff;fill-opacity:1;stroke:#ffffff;stroke-width:0.35;stroke-miterlimit:4;stroke-dasharray:none;stroke-opacity:1" />
  </g>
  <g
     id="deactivated-center"
     style="enable-background:new"
     transform="translate(65.399952,38.300083)">
    <rect
       id="rect4266-3-3"
       width="22"
       height="22"
       x="-44.600048"
       y="-38.300083"
       style="opacity:0.00100002;fill:#000000;fill-opacity:1;fill-rule:nonzero;stroke:none;stroke-width:2;stroke-linecap:round;stroke-linejoin:round;stroke-miterlimit:4;stroke-dasharray:none;stroke-opacity:1"
       transform="scale(-1,1)" />
    <circle
       cx="33.600052"
       cy="27.300077"
       r="9"
       id="circle5255-6"
       style="fill:#505050;fill-opacity:0;stroke-width:2.24925"
       transform="scale(1,-1)" />
    <path
       d="m 39.599766,-23.925077 c -0.6555,-0.517501 -1.31775,-1.04775 -1.992,-1.505999 -0.75,-0.510002 -1.479,-0.966001 -2.184,-1.369501 -0.651,-0.371999 -1.3305,-0.652501 -1.824,-0.8745 -0.4935,0.22275 -1.173,0.502501 -1.824,0.8745 a 33.6285,33.6285 0 0 0 -2.184,1.369501 c -0.675,0.4575 -1.3365,0.987749 -1.992,1.505999 h 1.1175 c 0.39375,-0.3 0.79725,-0.627001 1.21875,-0.914999 0.5325,-0.365252 1.07775,-0.708751 1.635,-1.029001 a 29.4825,29.4825 0 0 1 1.8765,-0.96375 l 0.15225,-0.07201 0.15225,0.07201 c 0.5325,0.25125 1.311,0.639001 1.8765,0.96375 0.55725,0.32025 1.1025,0.663749 1.635,1.028249 0.4215,0.28875 0.825,0.615002 1.21875,0.915751 z m -5.25,-6.000001 a 0.74999999,0.74999999 0 0 0 -0.75,-0.749999 0.74999999,0.74999999 0 0 0 -0.75,0.749999 0.74999999,0.74999999 0 0 0 0.75,0.750001 0.74999999,0.74999999 0 0 0 0.75,-0.750001 z"
       fill="#dfdfdf"
       id="path844-06"
       style="fill:#ffffff;fill-opacity:1;stroke:#ffffff;stroke-width:0.35;stroke-miterlimit:4;stroke-dasharray:none;stroke-opacity:1" />
  </g>
</svg>
