<?xml version="1.0" encoding="UTF-8" standalone="no"?>
<svg
   height="16"
   width="16"
   version="1.1"
   id="svg7"
   sodipodi:docname="gnome-software.svg"
   inkscape:version="1.2 (dc2aedaf03, 2022-05-15)"
   xmlns:inkscape="http://www.inkscape.org/namespaces/inkscape"
   xmlns:sodipodi="http://sodipodi.sourceforge.net/DTD/sodipodi-0.dtd"
   xmlns="http://www.w3.org/2000/svg"
   xmlns:svg="http://www.w3.org/2000/svg">
  <sodipodi:namedview
     id="namedview9"
     pagecolor="#505050"
     bordercolor="#eeeeee"
     borderopacity="1"
     inkscape:showpageshadow="0"
     inkscape:pageopacity="0"
     inkscape:pagecheckerboard="0"
     inkscape:deskcolor="#505050"
     showgrid="false"
     inkscape:zoom="12.462757"
     inkscape:cx="14.483152"
     inkscape:cy="17.893312"
     inkscape:window-width="1308"
     inkscape:window-height="742"
     inkscape:window-x="58"
     inkscape:window-y="26"
     inkscape:window-maximized="1"
     inkscape:current-layer="svg7" />
  <defs
     id="defs3">
    <style
       id="current-color-scheme"
       type="text/css">.ColorScheme-Text { color:#727272; } .ColorScheme-Highlight { color:#5294e2; }</style>
  </defs>
  <path
     d="M 7.066895,2.75006 C 6.7032575,3.507635 6.3543275,4.27502 6.0209975,5.0527925 5.68766,5.82047 5.34929,6.6286175 5.0058575,7.4771075 4.8485075,7.877645 4.6812575,8.32706 4.519535,8.75006 H 3.875 c -0.62325,0 -1.125,0.50175 -1.125,1.125 0,0.555892 0.4002075,1.01172 0.92871,1.104495 -0.2708175,0.726705 -0.5411175,1.450357 -0.839355,2.270505 h 1.99365 l 0.80127,-2.25 H 10.25 c 0.27087,0.759037 0.646267,1.562452 0.89991,2.25 h 1.960927 C 12.803082,12.43937 12.529145,11.71298 12.255372,10.986875 12.815892,10.92185 13.25,10.453587 13.25,9.87506 c 0,-0.62325 -0.50175,-1.125 -1.125,-1.125 H 11.396975 C 11.235305,8.336015 11.07302,7.91177 10.913577,7.52252 10.58024,6.6740375 9.913085,5.0835575 9.913085,5.0835575 c 0,0 -0.686805,-1.5557175 -1.060545,-2.3334975 H 7.9545875 Z M 8,4.62506 9.5,8.75006 H 6.435545 l 1.5644925,-4.125 z m -4.125,4.875 H 6.8251925 9.125 12.174807 C 12.35501,9.50006 12.5,9.64505 12.5,9.8252525 v 0.099615 C 12.5,10.10507 12.35501,10.25006 12.174807,10.25006 H 9.125 6.8251925 3.875 c -0.20775,0 -0.375,-0.16725 -0.375,-0.375 0,-0.20775 0.16725,-0.375 0.375,-0.375 z"
     style="fill:currentColor;stroke-width:0.75"
     class="ColorScheme-Text"
     id="path5" />
</svg>
