<svg xmlns="http://www.w3.org/2000/svg" width="16" height="16"><defs>
  <style id="current-color-scheme" type="text/css">.ColorScheme-Text { color:#727272; } .ColorScheme-Highlight { color:#5294e2; }</style>
 </defs>
 <g fill="#f2f2f7">
  <path d="M8 5a3 3 0 0 0-3 3 3 3 0 0 0 3 3 3 3 0 0 0 3-3 3 3 0 0 0-3-3zm0 1.5A1.5 1.5 0 0 1 9.5 8 1.5 1.5 0 0 1 8 9.5 1.5 1.5 0 0 1 6.5 8 1.5 1.5 0 0 1 8 6.5z" style="fill:currentColor" class="ColorScheme-Text"/>
  <path d="M8 0a8 8 0 0 0-8 8 8 8 0 0 0 8 8 8 8 0 0 0 8-8 8 8 0 0 0-8-8zm0 1a7 7 0 0 1 7 7 7 7 0 0 1-7 7 7 7 0 0 1-7-7 7 7 0 0 1 7-7z" style="fill:currentColor" class="ColorScheme-Text"/>
 </g>
</svg>
