<svg height="16.000032" width="16.000061" xmlns="http://www.w3.org/2000/svg"> <defs>
  <style id="current-color-scheme" type="text/css">.ColorScheme-Text { color:#727272; } .ColorScheme-Highlight { color:#5294e2; }</style>
 </defs>
  <g fill="#f2f2f7" transform="translate(-472.00004 -239.99997)">
    <path d="m480.00004 239.99997a8 8 0 0 0 -8 8 8 8 0 0 0 8 8 8 8 0 0 0 8-8 8 8 0 0 0 -8-8zm0 1a7 7 0 0 1 7 7 7 7 0 0 1 -7 7 7 7 0 0 1 -7-7 7 7 0 0 1 7-7z" style="fill:currentColor" class="ColorScheme-Text"/>
    <path d="m480.00004 248v8l5.5-2.5z" style="fill:currentColor" class="ColorScheme-Text" opacity=".5"/>
    <path d="m480.00004 248 5.5 5.5 2-5.5z" style="fill:currentColor" class="ColorScheme-Text"/>
  </g>
</svg>
