<svg height="16" width="16" xmlns="http://www.w3.org/2000/svg"><defs>
  <style id="current-color-scheme" type="text/css">.ColorScheme-Text { color:#727272; } .ColorScheme-Highlight { color:#5294e2; }</style>
 </defs>
  <path d="m497.50004 301c-.277 0-.5.223-.5.5v3.5h-3.5c-.277 0-.5.223-.5.5s.223.5.5.5h3.5v4h-3.5c-.277 0-.5.223-.5.5s.223.5.5.5h3.5v3.5c0 .277.223.5.5.5s.5-.223.5-.5v-3.5h4v3.5c0 .277.223.5.5.5s.5-.223.5-.5v-3.5h3.5c.277 0 .5-.223.5-.5s-.223-.5-.5-.5h-3.5v-4h3.5c.277 0 .5-.223.5-.5s-.223-.5-.5-.5h-3.5v-3.5c0-.277-.223-.5-.5-.5s-.5.223-.5.5v3.5h-4v-3.5c0-.277-.223-.5-.5-.5zm.5 5h4v4h-4z" style="fill:currentColor" class="ColorScheme-Text" transform="translate(-492.00004 -300)"/>
</svg>
