<?xml version="1.0" encoding="UTF-8" standalone="no"?>
<svg
   height="256"
   viewBox="0 0 67.73 67.73"
   width="256"
   version="1.1"
   id="svg39"
   sodipodi:docname="application-x-desktop.svg"
   inkscape:version="1.2 (dc2aedaf03, 2022-05-15)"
   xmlns:inkscape="http://www.inkscape.org/namespaces/inkscape"
   xmlns:sodipodi="http://sodipodi.sourceforge.net/DTD/sodipodi-0.dtd"
   xmlns="http://www.w3.org/2000/svg"
   xmlns:svg="http://www.w3.org/2000/svg">
  <defs
     id="defs43" />
  <sodipodi:namedview
     id="namedview41"
     pagecolor="#505050"
     bordercolor="#eeeeee"
     borderopacity="1"
     inkscape:showpageshadow="0"
     inkscape:pageopacity="0"
     inkscape:pagecheckerboard="0"
     inkscape:deskcolor="#505050"
     showgrid="false"
     inkscape:zoom="1.1054688"
     inkscape:cx="104.48057"
     inkscape:cy="129.35689"
     inkscape:window-width="1308"
     inkscape:window-height="742"
     inkscape:window-x="0"
     inkscape:window-y="0"
     inkscape:window-maximized="1"
     inkscape:current-layer="svg39" />
  <linearGradient
     id="a"
     gradientTransform="matrix(0,-0.11988932,0.11988589,0,0.36278,63.28165)"
     gradientUnits="userSpaceOnUse"
     x1="529.655"
     x2="-35.31"
     y1="401.584"
     y2="119.093">
    <stop
       offset="0"
       stop-color="#f2f2f2"
       id="stop2" />
    <stop
       offset="1"
       stop-color="#f9f9f9"
       id="stop4" />
  </linearGradient>
  <linearGradient
     id="b"
     gradientUnits="userSpaceOnUse"
     x1="88"
     x2="488"
     y1="88"
     y2="488"
     gradientTransform="matrix(0.13229167,0,0,0.13229167,-4.409668,-5.51001)">
    <stop
       offset="0"
       stop-opacity=".588235"
       id="stop7" />
    <stop
       offset=".88"
       stop-opacity="0"
       id="stop9" />
    <stop
       offset="1"
       id="stop11" />
  </linearGradient>
  <filter
     id="c"
     color-interpolation-filters="sRGB"
     height="1.0227143"
     width="1.0289082"
     x="-0.014454102"
     y="-0.011357142">
    <feGaussianBlur
       stdDeviation="2.12"
       id="feGaussianBlur14" />
  </filter>
  <path
     d="m 20.705011,4.01499 c -9.338925,0 -10.343783,0.95922 -10.298012,10.31704 v 38.63259 c -0.04577,9.35781 0.959087,10.31704 10.298012,10.31704 h 25.970643 c 9.338924,0 10.298012,-0.95912 10.298012,-10.31704 V 14.33203 c 0,-9.35793 -0.959088,-10.31704 -10.298012,-10.31704 z"
     fill="none"
     opacity="0.2"
     stroke="#000000"
     stroke-width="1.05833"
     id="path17" />
  <path
     d="M 189.84323,74 C 119.24979,74 111.65402,81.250835 112,151.98706 V 444.01294 C 111.65402,514.74917 119.24979,522 189.84323,522 H 386.15677 C 456.75021,522 462.16345,514.72616 464,444.01294 V 151.98706 C 464,81.249993 456.75021,74 386.15677,74 Z"
     filter="url(#c)"
     opacity="0.1"
     transform="matrix(0.13229167,0,0,0.13229167,-4.409668,-5.51001)"
     id="path19" />
  <path
     d="m 20.70501,4.2795736 c -9.338924,0 -10.343781,0.9592251 -10.298011,10.3170384 v 38.632591 c -0.04577,9.357814 0.959087,10.317039 10.298011,10.317039 h 25.970646 c 9.338924,0 10.298011,-0.959114 10.298011,-10.317039 V 14.596612 c 0,-9.3579247 -0.959087,-10.3170384 -10.298011,-10.3170384 z"
     fill="url(#b)"
     opacity="0.3"
     visibility="hidden"
     id="path21"
     style="fill:url(#b);stroke-width:0.132292" />
  <path
     d="m 20.705011,4.01499 c -9.338924,0 -10.343782,0.95922 -10.298012,10.31704 v 38.63259 c -0.04577,9.35781 0.959088,10.31704 10.298012,10.31704 h 25.970643 c 9.338924,0 10.298012,-0.95912 10.298012,-10.31704 V 14.33203 c 0,-9.35793 -0.959088,-10.31704 -10.298012,-10.31704 z"
     fill="url(#a)"
     id="path23"
     style="fill:url(#a)" />
  <path
     d="m 41.098666,63.28166 15.875,-15.875 v 5.94886 c -0.01384,8.99472 -1.006126,9.92614 -10.100231,9.92614 z"
     fill="#ffffff"
     opacity="0.4"
     id="path25" />
  <path
     d="m 20.705079,4.01499 c -9.338926,0 -10.343851,0.95939 -10.29808,10.3172 v 0.52916 c -0.04577,-9.35781 0.959154,-10.3172 10.29808,-10.3172 h 25.970506 c 9.338927,0 10.298081,0.95928 10.298081,10.3172 v -0.52916 c 0,-9.35793 -0.959154,-10.3172 -10.298081,-10.3172 z"
     fill="#ffffff"
     opacity="0.6"
     id="path27" />
  <g
     enable-background="new"
     opacity="0.75"
     transform="matrix(1.9825597,0,0,1.9825597,-632.27208,-259.55409)"
     id="g1588">
    <path
       d="m 140.04,-343.99 h 16 v 16 h -16 z"
       fill="none"
       transform="rotate(90)"
       id="path1578" />
    <path
       d="m 337.31472,139.96026 -2.63222,0.39327 v 1.35335 a 6.4893367,6.4774947 43.145679 0 1 2.63222,0.005 v -1.75146 z m -5.38585,1.19061 -2.00544,1.70491 0.98801,1.17757 a 6.4893367,6.4774947 43.145679 0 1 2.01736,-1.69076 z m 8.12867,0.0127 -0.99285,1.18353 a 6.4893367,6.4774947 43.145679 0 1 0.17056,0.0905 6.4893367,6.4774947 43.145679 0 1 1.84457,1.60287 l 1.00514,-1.19769 z m -11.60999,4.21684 -0.44056,2.59535 1.51535,0.26739 a 6.4893367,6.4774947 43.145679 0 1 0.45509,-2.59274 z m 15.08573,0.003 -1.5228,0.26851 a 6.4893367,6.4774947 43.145679 0 1 0.46365,2.59088 l 1.53286,-0.27 z m -13.68247,4.69464 -1.35149,0.78058 h -3.4e-4 l 1.33101,2.27098 1.33808,-0.77238 a 6.4893367,6.4774947 43.145679 0 1 -1.31723,-2.27918 z m 12.30081,0.003 a 6.4893367,6.4774947 43.145679 0 1 -0.53478,1.21481 6.4893367,6.4774947 43.145679 0 1 -0.77388,1.0692 l 1.33883,0.77313 1.30158,-2.28811 z m -9.55687,3.47164 -0.53479,1.4688 2.47953,0.88448 0.52585,-1.44534 a 6.4893367,6.4774947 43.145679 0 1 -2.30338,-0.79995 6.4893367,6.4774947 43.145679 0 1 -0.16721,-0.10799 z m 6.8133,0.0153 a 6.4893367,6.4774947 43.145679 0 1 -2.47468,0.89752 l 0.53031,1.45651 2.46761,-0.91651 z"
       fill="#808080"
       id="path1580" />
    <g
       fill="none"
       stroke="#808080"
       stroke-linecap="square"
       stroke-linejoin="round"
       stroke-width="0.533822"
       id="g1586">
      <circle
         cx="336"
         cy="148"
         r="6.4400001"
         id="circle1582" />
      <circle
         cx="336"
         cy="148"
         r="4.4400001"
         id="circle1584" />
    </g>
  </g>
  <g
     fill="#ffffff"
     id="g35"
     transform="translate(0,-229.26665)">
    <path
       d="m 33.690332,233.28164 v 59.26667 h 12.985253 c 9.338924,0 10.055122,-0.96217 10.298081,-10.31695 v -38.63278 c 0,-9.35792 -0.959157,-10.31694 -10.298081,-10.31694 z"
       opacity="0.1"
       id="path31" />
    <path
       d="m 10.406999,262.91497 v 19.31639 c -0.04577,9.35782 0.959155,10.31695 10.29808,10.31695 h 25.970506 c 9.338924,0 10.055122,-0.96217 10.298081,-10.31695 v -19.31639 z"
       opacity="0.2"
       id="path33" />
  </g>
</svg>
