<svg width="32" height="32" version="1" xmlns="http://www.w3.org/2000/svg" xmlns:xlink="http://www.w3.org/1999/xlink">
 <defs>
  <linearGradient id="linearGradient924" x1="459.03" x2="35.31" y1="419.23" y2="207.37" gradientTransform="matrix(.072088 0 0 .072086 -1.8186 -6.1291)" gradientUnits="userSpaceOnUse">
   <stop stop-color="#fb7c38" offset="0"/>
   <stop stop-color="#9b33ae" offset="1"/>
  </linearGradient>
  <linearGradient id="linearGradient339" x1="34.107" x2="34.117" y1="248.32" y2="277.59" gradientTransform="matrix(7.7241 0 0 7.7241 -734.3 -1778.6)" gradientUnits="userSpaceOnUse">
   <stop stop-color="#e6eaef" offset="0"/>
   <stop stop-color="#e6eaef" offset="1"/>
  </linearGradient>
  <linearGradient id="linearGradient969" x1="336" x2="336" y1="136" y2="160" gradientTransform="rotate(90 336 148)" gradientUnits="userSpaceOnUse">
   <stop stop-color="#fff" offset="0"/>
   <stop stop-color="#fff" stop-opacity=".098039" offset=".125"/>
   <stop stop-color="#fff" stop-opacity=".098039" offset=".925"/>
   <stop stop-color="#fff" stop-opacity=".49804" offset="1"/>
  </linearGradient>
  <clipPath id="clipPath959">
   <path d="m330.19 134c-5.6154 0-6.2196 0.57678-6.1921 6.2035v7.7965 7.7965c-0.0276 5.6267 0.57668 6.2035 6.1921 6.2035h11.615c5.6154 0 6.1921-0.5767 6.1921-6.2035v-7.7965-7.7965c0-5.6268-0.5767-6.2035-6.1921-6.2035z" color="#000000" fill="#46a926"/>
  </clipPath>
 </defs>
 <path d="m0.99951 23.806c0 1.421 0.0308 2.5488 0.19141 3.5059 0.16064 0.95703 0.4726 1.7915 1.0918 2.4121s1.4561 0.93647 2.4141 1.0957c0.95795 0.15924 2.087 0.18666 3.5117 0.17969h7.791 7.7969c1.4213 7e-3 2.5495-0.0207 3.5058-0.17969 0.95796-0.15923 1.7949-0.47505 2.4141-1.0957s0.93115-1.4551 1.0918-2.4121c0.16065-0.95703 0.19141-2.0849 0.19141-3.5059v-11.615c0-1.421-0.0307-2.5467-0.19141-3.502-0.16075-0.95527-0.47425-1.7878-1.0938-2.4062-0.6195-0.61845-1.4536-0.93134-2.4102-1.0918-0.95653-0.16046-2.084-0.19141-3.5078-0.19141h-7.7969-7.7969c-1.4238 0-2.5513 0.031-3.5078 0.19141-0.95653 0.16045-1.7906 0.47334-2.4102 1.0918-0.61951 0.61846-0.933 1.451-1.0938 2.4062-0.16076 0.95527-0.19141 2.081-0.19141 3.502z" color="#000000" color-rendering="auto" dominant-baseline="auto" image-rendering="auto" opacity=".1" shape-rendering="auto" solid-color="#000000" style="font-feature-settings:normal;font-variant-alternates:normal;font-variant-caps:normal;font-variant-ligatures:normal;font-variant-numeric:normal;font-variant-position:normal;isolation:auto;mix-blend-mode:normal;shape-padding:0;text-decoration-color:#000000;text-decoration-line:none;text-decoration-style:solid;text-indent:0;text-orientation:mixed;text-transform:none;white-space:normal"/>
 <path d="m8.2031 4.5c-1.4145-7e-3 -2.5227 0.024-3.4238 0.17383-0.90165 0.14987-1.6192 0.43041-2.1406 0.95312-0.52148 0.52272-0.8018 1.2411-0.95312 2.1426-0.0612 0.3645-0.0927 0.79158-0.1211 1.2305-0.0418 0.64654-0.0645 1.352-0.0645 2.1934v11.615c0 1.4124 0.0342 2.5185 0.18555 3.418 0.15137 0.8995 0.43149 1.616 0.95312 2.1367s1.2377 0.80004 2.1387 0.95117c0.90094 0.15113 2.0106 0.18555 3.4258 0.18555h7.7969 7.7969c1.4152 0 2.5248-0.0344 3.4258-0.18555 0.90093-0.15113 1.617-0.43042 2.1387-0.95117 0.52163-0.52075 0.80175-1.2372 0.95312-2.1367s0.18555-2.0056 0.18555-3.418v-11.615c0-0.84132-0.0246-1.5468-0.0664-2.1934-0.0284-0.43888-0.0579-0.86598-0.11914-1.2305-0.15132-0.90145-0.43164-1.6199-0.95312-2.1426-0.52148-0.5227-1.239-0.80325-2.1406-0.95312-0.90164-0.14988-2.0101-0.18075-3.4258-0.17383h-7.7949z" color="#000000" fill="url(#linearGradient924)"/>
 <g transform="matrix(.45204 0 0 .45204 .69084 -101.72)" enable-background="new" stroke-width="7.7241">
  <rect x="12.7" y="247.42" width="42.333" height="30.427" rx="1.027" ry="1.071" fill="#00132b" opacity=".3"/>
  <rect x="12.7" y="247.42" width="42.333" height="30.427" rx="1.027" ry="1.071" fill="url(#linearGradient339)" opacity=".7"/>
  <rect x="19.32" y="262.91" width="29.087" height="5.801" rx="1.058" ry="1.058" fill="#fff" opacity=".7"/>
  <path d="m24.119 256.07h0.40005l0.31609-1.4224c0.01482-0.0741 0.04445-0.19756 0.0642-0.29634 0.01482 0.0988 0.04445 0.22719 0.05927 0.30128l0.32597 1.4175h0.39511l0.64206-2.5238h-0.46426l-0.33584 1.4619c-0.01975 0.084-0.03457 0.15804-0.04939 0.24694-0.01482-0.0889-0.0247-0.16792-0.04445-0.24694l-0.33584-1.4619h-0.38523l-0.33091 1.4619c-0.01975 0.079-0.02963 0.14816-0.04445 0.23212-0.0099-0.084-0.02469-0.1531-0.04445-0.22719l-0.34572-1.4668h-0.46426z" opacity=".8"/>
  <path d="m29.064 254.69c0-0.82974-0.48401-1.2051-1.0717-1.2051-0.71614 0-1.1804 0.48895-1.1804 1.3187 0 0.77047 0.43956 1.3236 1.1804 1.3236 0.36054 0 0.66181-0.14816 0.86924-0.3556l-0.2914-0.31609c-0.17286 0.16299-0.36054 0.22719-0.57291 0.22719-0.38029 0-0.61736-0.2667-0.6865-0.68156h1.7385c0.01482-0.12348 0.01482-0.23707 0.01482-0.31115zm-1.7632-0.11854c0.04939-0.40005 0.27164-0.65193 0.69144-0.65193 0.2667 0 0.56303 0.16298 0.58279 0.65193z" opacity=".8"/>
  <path d="m31.223 255.63v-3.1263h-1.3187l0.22719 0.43462h0.5976v2.6917h-0.72602v0.43956h1.941v-0.43956z" opacity=".8"/>
  <path d="m34.069 256.13c0.52352 0 0.87418-0.24694 1.0125-0.69144l-0.46426-0.14817c-0.07902 0.23707-0.26176 0.37536-0.54328 0.37536-0.40005 0-0.61242-0.32103-0.61242-0.85443 0-0.52352 0.20743-0.85937 0.62724-0.85937 0.27164 0 0.42968 0.13829 0.50871 0.33091l0.46426-0.16298c-0.15311-0.42475-0.49389-0.63218-0.97296-0.63218-0.69638 0-1.1359 0.49883-1.1359 1.3236 0 0.83467 0.43462 1.3187 1.1162 1.3187z" opacity=".8"/>
  <path d="m37.053 256.13c0.73096 0 1.1952-0.50376 1.1952-1.3236 0-0.81492-0.46426-1.3187-1.1952-1.3187-0.73096 0-1.1952 0.5087-1.1952 1.3236 0 0.81986 0.46426 1.3187 1.1952 1.3187zm0-0.46425c-0.44944 0-0.69144-0.33585-0.69144-0.85443 0-0.53834 0.242-0.85937 0.69144-0.85937 0.45438 0 0.69638 0.33585 0.69638 0.85443 0 0.52352-0.25188 0.85937-0.69638 0.85937z" opacity=".8"/>
  <path d="m40.764 253.48c-0.26176 0-0.44944 0.1778-0.55809 0.37535-0.05927-0.18274-0.22225-0.37535-0.47413-0.37535-0.23707 0-0.40005 0.13829-0.49389 0.39017v-0.33091h-0.43462v2.5238h0.46426v-1.5261c0-0.35066 0.12347-0.58773 0.34078-0.58773 0.20743 0 0.26176 0.22225 0.26176 0.53834v1.5755h0.46426v-1.5261c0-0.35066 0.10372-0.58773 0.32103-0.58773 0.21237 0 0.26176 0.18274 0.26176 0.57291v1.5409h0.46426v-1.6694c0-0.66181-0.2025-0.91369-0.61736-0.91369z" opacity=".8"/>
  <path d="m44.257 254.69c0-0.82974-0.48401-1.2051-1.0717-1.2051-0.71614 0-1.1804 0.48895-1.1804 1.3187 0 0.77047 0.43956 1.3236 1.1804 1.3236 0.36054 0 0.66181-0.14816 0.86924-0.3556l-0.29139-0.31609c-0.17286 0.16299-0.36054 0.22719-0.57291 0.22719-0.38029 0-0.61736-0.2667-0.6865-0.68156h1.7385c0.01482-0.12348 0.01482-0.23707 0.01482-0.31115zm-1.7632-0.11854c0.04939-0.40005 0.27164-0.65193 0.69144-0.65193 0.2667 0 0.56303 0.16298 0.58279 0.65193z" opacity=".8"/>
  <path d="m21.035 263.93v3.9688h0.26367v-3.9688z" opacity=".8"/>
 </g>
 <path d="m1.4995 22.806c0 1.4124 0.0342 2.5224 0.18555 3.4238 0.15132 0.90145 0.43164 1.6199 0.95312 2.1426 0.52148 0.5227 1.239 0.80325 2.1406 0.95312 0.90164 0.14988 2.0101 0.18075 3.4258 0.17383h7.7949 7.7969c1.4145 7e-3 2.5227-0.024 3.4238-0.17383 0.90165-0.14987 1.6192-0.43041 2.1406-0.95312 0.52148-0.52272 0.8018-1.2411 0.95312-2.1426s0.18555-2.0114 0.18555-3.4238v-11.615c0-1.4124-0.0342-2.5185-0.18555-3.418-0.15137-0.8995-0.43149-1.616-0.95312-2.1367s-1.2377-0.80004-2.1387-0.95117c-0.90094-0.15113-2.0106-0.18555-3.4258-0.18555h-7.7969-7.7969c-1.4152 0-2.5248 0.0344-3.4258 0.18555-0.90093 0.15113-1.617 0.43042-2.1387 0.95117-0.52163 0.52075-0.80175 1.2372-0.95312 2.1367s-0.18555 2.0056-0.18555 3.418z" color="#000000" fill="none" opacity=".4" stroke="#000"/>
 <path transform="rotate(-90 110.5 242.5)" d="m330.19 134c-5.6154 0-6.2196 0.57678-6.1921 6.2035v7.7965 7.7965c-0.0276 5.6267 0.57668 6.2035 6.1921 6.2035h11.615c5.6154 0 6.1921-0.5767 6.1921-6.2035v-7.7965-7.7965c0-5.6268-0.5767-6.2035-6.1921-6.2035z" clip-path="url(#clipPath959)" color="#000000" fill="none" opacity=".3" stroke="url(#linearGradient969)" stroke-width="2"/>
</svg>
