<?xml version="1.0" encoding="UTF-8" standalone="no"?>
<svg
   viewBox="0 0 245 253.48669"
   version="1.1"
   id="svg106"
   sodipodi:docname="firefox.svg"
   inkscape:version="1.1.2 (0a00cf5339, 2022-02-04, custom)"
   inkscape:export-filename="/home/antoniosalvatore/Pictures/firefox.png"
   inkscape:export-xdpi="90"
   inkscape:export-ydpi="90"
   width="245"
   height="253.48669"
   xmlns:inkscape="http://www.inkscape.org/namespaces/inkscape"
   xmlns:sodipodi="http://sodipodi.sourceforge.net/DTD/sodipodi-0.dtd"
   xmlns:xlink="http://www.w3.org/1999/xlink"
   xmlns="http://www.w3.org/2000/svg"
   xmlns:svg="http://www.w3.org/2000/svg"
   xmlns:rdf="http://www.w3.org/1999/02/22-rdf-syntax-ns#"
   xmlns:cc="http://creativecommons.org/ns#"
   xmlns:dc="http://purl.org/dc/elements/1.1/">
  <metadata
     id="metadata110">
    <rdf:RDF>
      <cc:Work
         rdf:about="">
        <dc:format>image/svg+xml</dc:format>
        <dc:type
           rdf:resource="http://purl.org/dc/dcmitype/StillImage" />
      </cc:Work>
    </rdf:RDF>
  </metadata>
  <sodipodi:namedview
     pagecolor="#474745"
     bordercolor="#666666"
     borderopacity="1"
     objecttolerance="10"
     gridtolerance="10"
     guidetolerance="10"
     inkscape:pageopacity="0"
     inkscape:pageshadow="2"
     inkscape:window-width="1306"
     inkscape:window-height="740"
     id="namedview108"
     showgrid="false"
     inkscape:snap-global="true"
     inkscape:zoom="1.2359608"
     inkscape:cx="132.69029"
     inkscape:cy="205.50814"
     inkscape:window-x="60"
     inkscape:window-y="28"
     inkscape:window-maximized="1"
     inkscape:current-layer="g4779"
     inkscape:document-rotation="0"
     showguides="false"
     inkscape:pagecheckerboard="1" />
  <defs
     id="defs92">
    <linearGradient
       id="linearGradient1077"
       x1="406.61136"
       y1="68.311989"
       x2="121.68798"
       y2="354.3028"
       gradientTransform="matrix(0.98373973,0,0,1.016529,0.00621935,0.37181657)"
       gradientUnits="userSpaceOnUse">
      <stop
         offset="0.09210309"
         stop-color="#fff44f"
         stop-opacity=".8"
         id="stop1073"
         style="stop-color:#ffea00;stop-opacity:1" />
      <stop
         offset="0.54570425"
         stop-color="#fff44f"
         stop-opacity="0"
         id="stop1075"
         style="stop-color:#fff44f;stop-opacity:0" />
    </linearGradient>
    <radialGradient
       id="radialGradient960"
       cx="390.97281"
       cy="-40.280148"
       r="742.3869"
       gradientTransform="scale(1.0914501,0.91621229)"
       fx="390.97281"
       fy="-40.280148"
       gradientUnits="userSpaceOnUse">
      <stop
         offset="0.0741064"
         stop-color="#fff44f"
         id="stop952" />
      <stop
         offset="0.29318112"
         stop-color="#ff980e"
         id="stop954" />
      <stop
         offset="0.65646929"
         stop-color="#ff3647"
         id="stop956" />
      <stop
         offset="0.79250216"
         stop-color="#e31587"
         id="stop958" />
    </radialGradient>
    <radialGradient
       id="radialGradient981"
       cx="0.83999997"
       cy="-0.41"
       r="1.8">
      <stop
         offset=".11"
         stop-color="#fff44f"
         id="stop973" />
      <stop
         offset="0.07312331"
         stop-color="#ff980e"
         id="stop975" />
      <stop
         offset="0.93783718"
         stop-color="#ff3647"
         id="stop977" />
      <stop
         offset="0.97388798"
         stop-color="#e31587"
         id="stop979" />
    </radialGradient>
    <radialGradient
       id="radialGradient963"
       cx="0.83999997"
       cy="-0.41"
       r="1.8">
      <stop
         offset="0.02472927"
         stop-color="#fff44f"
         id="stop955" />
      <stop
         offset="0.08219684"
         stop-color="#ff980e"
         id="stop957"
         style="stop-opacity:0;stop-color:#ff980e" />
      <stop
         offset="0.90829772"
         stop-color="#ff3647"
         id="stop959" />
      <stop
         offset="0.95825535"
         stop-color="#e31587"
         id="stop961" />
    </radialGradient>
    <linearGradient
       id="a"
       x1="0.8725"
       y1="0.155"
       x2="0.093999997"
       y2="0.93099999">
      <stop
         offset=".05"
         stop-color="#fff44f"
         id="stop2" />
      <stop
         offset=".37"
         stop-color="#ff980e"
         id="stop4" />
      <stop
         offset=".53"
         stop-color="#ff3647"
         id="stop6" />
      <stop
         offset=".7"
         stop-color="#e31587"
         id="stop8" />
    </linearGradient>
    <radialGradient
       id="b"
       cx="392.66125"
       cy="61.544483"
       r="553.94061"
       gradientTransform="matrix(0.56494716,0,0,0.45922849,-8.0782039,0.08750414)"
       fx="392.66125"
       fy="61.544483"
       gradientUnits="userSpaceOnUse">
      <stop
         offset=".13"
         stop-color="#ffbd4f"
         id="stop11" />
      <stop
         offset=".28"
         stop-color="#ff980e"
         id="stop13" />
      <stop
         offset=".47"
         stop-color="#ff3750"
         id="stop15" />
      <stop
         offset=".78"
         stop-color="#eb0878"
         id="stop17" />
      <stop
         offset=".86"
         stop-color="#e50080"
         id="stop19" />
    </radialGradient>
    <radialGradient
       id="c"
       cx="226.50838"
       cy="290.37302"
       r="554.01227"
       gradientTransform="matrix(0.56487412,0,0,0.45928788,-8.0782039,0.08750414)"
       fx="226.50838"
       fy="290.37302"
       gradientUnits="userSpaceOnUse">
      <stop
         offset=".3"
         stop-color="#960e18"
         id="stop22" />
      <stop
         offset=".35"
         stop-color="#b11927"
         stop-opacity=".74"
         id="stop24" />
      <stop
         offset=".43"
         stop-color="#db293d"
         stop-opacity=".34"
         id="stop26" />
      <stop
         offset=".5"
         stop-color="#f5334b"
         stop-opacity=".09"
         id="stop28" />
      <stop
         offset=".53"
         stop-color="#ff3750"
         stop-opacity="0"
         id="stop30" />
    </radialGradient>
    <radialGradient
       id="d"
       cx="395.30664"
       cy="-17.863146"
       r="210.13705"
       gradientTransform="matrix(0.39104963,0,0,0.66344476,-8.0782039,0.08750414)"
       fx="395.30664"
       fy="-17.863146"
       gradientUnits="userSpaceOnUse">
      <stop
         offset=".13"
         stop-color="#fff44f"
         id="stop33" />
      <stop
         offset=".53"
         stop-color="#ff980e"
         id="stop35" />
    </radialGradient>
    <radialGradient
       id="e"
       cx="206.27052"
       cy="373.24011"
       r="223.4966"
       gradientTransform="matrix(1.2658774,0,0,1.3874166,-82.831992,-81.339792)"
       fx="206.27052"
       fy="373.24011"
       gradientUnits="userSpaceOnUse">
      <stop
         offset=".35"
         stop-color="#3a8ee6"
         id="stop38" />
      <stop
         offset=".67"
         stop-color="#9059ff"
         id="stop40" />
      <stop
         offset="1"
         stop-color="#c139e6"
         id="stop42" />
    </radialGradient>
    <radialGradient
       id="f"
       cx="343.15851"
       cy="176.95523"
       r="131.86298"
       gradientTransform="matrix(1.8339421,0,-2.6488303e-8,1.6386792,-499.13946,-141.9214)"
       fx="343.15851"
       fy="176.95523"
       gradientUnits="userSpaceOnUse">
      <stop
         offset="0.34331691"
         stop-color="#9059ff"
         stop-opacity="0"
         id="stop45"
         style="stop-color:#2c30b1;stop-opacity:0" />
      <stop
         offset="0.82970583"
         stop-color="#6e008b"
         stop-opacity=".6"
         id="stop47" />
    </radialGradient>
    <radialGradient
       id="g"
       cx="221.85553"
       cy="33.712856"
       r="243.6987"
       gradientTransform="matrix(0.50660575,0,0,0.51211387,-8.0782039,0.08750414)"
       fx="221.85553"
       fy="33.712856"
       gradientUnits="userSpaceOnUse"
       xlink:href="#i">
      <stop
         offset=".1"
         stop-color="#ffe226"
         id="stop50" />
      <stop
         offset=".79"
         stop-color="#ff7139"
         id="stop52"
         style="stop-color:#ff1a39;stop-opacity:1" />
    </radialGradient>
    <radialGradient
       id="h"
       cx="390.97281"
       cy="-40.280148"
       r="742.3869"
       gradientTransform="scale(1.0914501,0.91621229)"
       fx="390.97281"
       fy="-40.280148"
       gradientUnits="userSpaceOnUse">
      <stop
         offset="0.09793065"
         stop-color="#fff44f"
         id="stop55" />
      <stop
         offset="0.50196499"
         stop-color="#ff980e"
         id="stop57" />
      <stop
         offset="0.86819392"
         stop-color="#ff3647"
         id="stop59" />
      <stop
         offset="0.94946235"
         stop-color="#e31587"
         id="stop61" />
    </radialGradient>
    <radialGradient
       id="i"
       cx="421.49271"
       cy="-44.513309"
       r="832.37915"
       gradientTransform="matrix(0.37391173,0,0,0.69385314,-8.0782039,0.08750414)"
       fx="421.49271"
       fy="-44.513309"
       gradientUnits="userSpaceOnUse">
      <stop
         offset="0"
         stop-color="#fff44f"
         id="stop64" />
      <stop
         offset=".3"
         stop-color="#ff980e"
         id="stop66" />
      <stop
         offset=".57"
         stop-color="#ff3647"
         id="stop68" />
      <stop
         offset=".74"
         stop-color="#e31587"
         id="stop70" />
    </radialGradient>
    <radialGradient
       id="j"
       cx="256.8093"
       cy="116.32227"
       r="461.1138"
       gradientTransform="matrix(0.51388612,0,0,0.50485861,-8.0782039,0.08750414)"
       fx="256.8093"
       fy="116.32227"
       gradientUnits="userSpaceOnUse">
      <stop
         offset=".14"
         stop-color="#fff44f"
         id="stop73" />
      <stop
         offset=".48"
         stop-color="#ff980e"
         id="stop75" />
      <stop
         offset=".66"
         stop-color="#ff3647"
         id="stop77" />
      <stop
         offset=".9"
         stop-color="#e31587"
         id="stop79" />
    </radialGradient>
    <radialGradient
       id="k"
       cx="346.45795"
       cy="140.64198"
       r="519.07025"
       gradientTransform="matrix(0.41639376,0,0,0.49088456,30.767081,0.08750414)"
       fx="346.45795"
       fy="140.64198"
       gradientUnits="userSpaceOnUse">
      <stop
         offset="0.34625351"
         stop-color="#fff44f"
         id="stop82"
         style="stop-color:#ffbe26;stop-opacity:1" />
      <stop
         offset="0.74500859"
         stop-color="#ff980e"
         id="stop84"
         style="stop-color:#ff6b00;stop-opacity:1" />
    </radialGradient>
    <linearGradient
       id="l"
       x1="406.61136"
       y1="68.311989"
       x2="121.68798"
       y2="354.3028"
       gradientTransform="matrix(0.50107016,0,0,0.51777146,-8.0750361,0.09462649)"
       gradientUnits="userSpaceOnUse">
      <stop
         offset="0.10639257"
         stop-color="#fff44f"
         stop-opacity=".8"
         id="stop87"
         style="stop-color:#ffea00;stop-opacity:1" />
      <stop
         offset="0.50923812"
         stop-color="#fff44f"
         stop-opacity="0"
         id="stop89" />
    </linearGradient>
    <radialGradient
       inkscape:collect="always"
       xlink:href="#h"
       id="radialGradient1055"
       cx="300.48737"
       cy="208.31996"
       fx="300.48737"
       fy="208.31996"
       r="91.805603"
       gradientTransform="matrix(4.3511039,0,0,2.6937304,-984.74742,-535.70127)"
       gradientUnits="userSpaceOnUse" />
    <radialGradient
       id="h-6"
       cx="390.97281"
       cy="-40.280148"
       r="742.3869"
       gradientTransform="scale(1.0914501,0.91621229)"
       fx="390.97281"
       fy="-40.280148"
       gradientUnits="userSpaceOnUse">
      <stop
         offset=".11"
         stop-color="#fff44f"
         id="stop55-7" />
      <stop
         offset=".46"
         stop-color="#ff980e"
         id="stop57-5" />
      <stop
         offset=".72"
         stop-color="#ff3647"
         id="stop59-3" />
      <stop
         offset=".9"
         stop-color="#e31587"
         id="stop61-5" />
    </radialGradient>
    <filter
       inkscape:collect="always"
       style="color-interpolation-filters:sRGB"
       id="filter1309"
       x="-0.032457835"
       width="1.0649157"
       y="-0.061200817"
       height="1.1224016">
      <feGaussianBlur
         inkscape:collect="always"
         stdDeviation="2.4831725"
         id="feGaussianBlur1311" />
    </filter>
    <radialGradient
       inkscape:collect="always"
       xlink:href="#radialGradient960"
       id="radialGradient950"
       gradientUnits="userSpaceOnUse"
       gradientTransform="matrix(0.5559327,0,0,0.46667489,-8.0782039,0.08704094)"
       cx="390.97281"
       cy="-40.280148"
       fx="390.97281"
       fy="-40.280148"
       r="742.3869" />
    <radialGradient
       id="radial-gradient-7"
       cx="691.33899"
       cy="3.289"
       r="923.61499"
       gradientUnits="userSpaceOnUse"
       gradientTransform="matrix(0,0.1945401,-0.13203931,0,139.59548,-109.24855)"
       fx="691.33899"
       fy="3.289">
      <stop
         offset="0.10779555"
         stop-color="#ffea00"
         id="stop93" />
      <stop
         offset="0.5360595"
         stop-color="#fd0"
         id="stop95" />
      <stop
         offset="0.7206021"
         stop-color="#ffba00"
         id="stop97" />
      <stop
         offset="0.82060462"
         stop-color="#ff9100"
         id="stop99" />
      <stop
         offset="0.92182261"
         stop-color="#ff6711"
         id="stop101" />
      <stop
         offset="0.994"
         stop-color="#ff4a1d"
         id="stop103" />
    </radialGradient>
    <linearGradient
       id="linear-gradient-6"
       x1="655.53101"
       y1="38.119999"
       x2="961.18701"
       y2="721.61499"
       gradientUnits="userSpaceOnUse"
       gradientTransform="matrix(0.41821204,0,0,0.40617664,5.9011898,33.366775)">
      <stop
         offset="0"
         stop-color="#fff14f"
         id="stop150" />
      <stop
         offset="0.268"
         stop-color="#ffee4c"
         id="stop152" />
      <stop
         offset="0.452"
         stop-color="#ffe643"
         id="stop154" />
      <stop
         offset="0.612"
         stop-color="#ffd834"
         id="stop156" />
      <stop
         offset="0.757"
         stop-color="#ffc41e"
         id="stop158" />
      <stop
         offset="0.892"
         stop-color="#ffab02"
         id="stop160" />
      <stop
         offset="0.902"
         stop-color="#ffa900"
         id="stop162" />
      <stop
         offset="0.949"
         stop-color="#ffa000"
         id="stop164" />
      <stop
         offset="1"
         stop-color="#ff9100"
         id="stop166" />
    </linearGradient>
    <radialGradient
       id="i-3"
       cx="421.49271"
       cy="-44.513309"
       r="832.37915"
       gradientTransform="matrix(0.73409245,0,0,1.3622262,610.47921,-42.111183)"
       fx="421.49271"
       fy="-44.513309"
       gradientUnits="userSpaceOnUse">
      <stop
         offset="0"
         stop-color="#fff44f"
         id="stop64-6" />
      <stop
         offset=".3"
         stop-color="#ff980e"
         id="stop66-7" />
      <stop
         offset=".57"
         stop-color="#ff3647"
         id="stop68-5" />
      <stop
         offset=".74"
         stop-color="#e31587"
         id="stop70-3" />
    </radialGradient>
    <radialGradient
       id="radial-gradient-7-5"
       cx="691.33899"
       cy="3.289"
       r="923.61499"
       gradientUnits="userSpaceOnUse"
       gradientTransform="matrix(0.5176523,0,0,0.35134376,541.67779,6.123611)"
       fx="691.33899"
       fy="3.289">
      <stop
         offset="0.39146438"
         stop-color="#ffea00"
         id="stop93-6" />
      <stop
         offset="0.46644366"
         stop-color="#fd0"
         id="stop95-2" />
      <stop
         offset="0.64755088"
         stop-color="#ffba00"
         id="stop97-9" />
      <stop
         offset="0.89733046"
         stop-color="#ff9100"
         id="stop99-1"
         style="stop-color:#ff9100;stop-opacity:0" />
      <stop
         offset="0.92182261"
         stop-color="#ff6711"
         id="stop101-2"
         style="stop-color:#ff6711;stop-opacity:0.02547159" />
      <stop
         offset="0.994"
         stop-color="#ff4a1d"
         id="stop103-7"
         style="stop-color:#ff4a1d;stop-opacity:0.0062206" />
    </radialGradient>
    <radialGradient
       id="radialGradient960-9"
       cx="390.97281"
       cy="-40.280148"
       r="742.3869"
       gradientTransform="scale(1.0914501,0.91621229)"
       fx="390.97281"
       fy="-40.280148"
       gradientUnits="userSpaceOnUse">
      <stop
         offset="0.0741064"
         stop-color="#fff44f"
         id="stop952-3" />
      <stop
         offset="0.29318112"
         stop-color="#ff980e"
         id="stop954-6" />
      <stop
         offset="0.65646929"
         stop-color="#ff3647"
         id="stop956-0" />
      <stop
         offset="0.79250216"
         stop-color="#e31587"
         id="stop958-6" />
    </radialGradient>
    <linearGradient
       inkscape:collect="always"
       xlink:href="#linearGradient1077"
       id="linearGradient1064"
       gradientUnits="userSpaceOnUse"
       gradientTransform="matrix(0.50107016,0,0,0.51777146,-7.6386326,0.09462649)"
       x1="406.61136"
       y1="68.311989"
       x2="-73.18885"
       y2="220.00545" />
    <radialGradient
       id="c-2"
       cx="155.05165"
       cy="228.29813"
       r="554.14581"
       gradientTransform="matrix(0.56473797,0,0,0.4593986,-7.6930734,-0.09236871)"
       fx="155.05165"
       fy="228.29813"
       gradientUnits="userSpaceOnUse">
      <stop
         offset=".3"
         stop-color="#960e18"
         id="stop22-0"
         style="stop-opacity:0" />
      <stop
         offset=".35"
         stop-color="#b11927"
         stop-opacity=".74"
         id="stop24-2" />
      <stop
         offset=".43"
         stop-color="#db293d"
         stop-opacity=".34"
         id="stop26-3" />
      <stop
         offset=".5"
         stop-color="#f5334b"
         stop-opacity=".09"
         id="stop28-7" />
      <stop
         offset=".53"
         stop-color="#ff3750"
         stop-opacity="0"
         id="stop30-5" />
    </radialGradient>
    <radialGradient
       id="radialGradient960-2"
       cx="390.97281"
       cy="-40.280148"
       r="742.3869"
       gradientTransform="scale(1.0914501,0.91621229)"
       fx="390.97281"
       fy="-40.280148"
       gradientUnits="userSpaceOnUse">
      <stop
         offset="0.0741064"
         stop-color="#fff44f"
         id="stop952-8"
         style="stop-color:#fff44f;stop-opacity:0" />
      <stop
         offset="0.29318112"
         stop-color="#ff980e"
         id="stop954-9"
         style="stop-color:#fff700;stop-opacity:1" />
      <stop
         offset="0.65646929"
         stop-color="#ff3647"
         id="stop956-7"
         style="stop-color:#ff3647;stop-opacity:0.00061814" />
      <stop
         offset="0.79250216"
         stop-color="#e31587"
         id="stop958-3"
         style="stop-color:#e31587;stop-opacity:0" />
    </radialGradient>
    <radialGradient
       id="radial-gradient-2"
       cx="-7462.9014"
       cy="-8041.5142"
       r="791.229"
       gradientTransform="matrix(0.52156649,0,0,0.52156649,4090.5152,4190.3348)"
       gradientUnits="userSpaceOnUse"
       fx="-7462.9014"
       fy="-8041.5142">
      <stop
         offset="0"
         stop-color="#00ccda"
         id="stop19-3" />
      <stop
         offset="0.22"
         stop-color="#0083ff"
         id="stop21" />
      <stop
         offset="0.261"
         stop-color="#007af9"
         id="stop23" />
      <stop
         offset="0.33"
         stop-color="#0060e8"
         id="stop25" />
      <stop
         offset="0.333"
         stop-color="#005fe7"
         id="stop27" />
      <stop
         offset="0.438"
         stop-color="#2639ad"
         id="stop29" />
      <stop
         offset="0.522"
         stop-color="#401e84"
         id="stop31" />
      <stop
         offset="0.566"
         stop-color="#4a1475"
         id="stop33-6" />
    </radialGradient>
    <linearGradient
       inkscape:collect="always"
       xlink:href="#linearGradient1077"
       id="linearGradient995"
       gradientUnits="userSpaceOnUse"
       gradientTransform="matrix(0.50107016,0,0,0.51777146,-7.6386326,0.18215025)"
       x1="406.61136"
       y1="68.311989"
       x2="-73.18885"
       y2="220.00545" />
    <radialGradient
       inkscape:collect="always"
       xlink:href="#i"
       id="radialGradient12586"
       gradientUnits="userSpaceOnUse"
       gradientTransform="matrix(0.37391173,0,0,0.69385314,-8.0782039,0.08750414)"
       cx="421.49271"
       cy="-44.513309"
       fx="421.49271"
       fy="-44.513309"
       r="832.37915" />
  </defs>
  <g
     id="g4779">
    <g
       id="g12580"
       transform="matrix(0.89795919,0,0,0.89795919,12.499999,12.932996)">
      <path
         id="body-outer-ring"
         d="M 235.75438,84.819799 C 230.43419,72.02283 220.18405,58.35443 211.72269,53.987753 c 6.88644,13.500384 10.34692,26.895771 11.86988,37.00285 0,-0.02954 0.006,0.02445 0.0183,0.115114 0.006,0.04329 0.0138,0.08863 0.0204,0.131922 11.54957,31.309891 5.25754,63.148491 -3.80944,82.604221 -14.02706,30.10272 -47.98864,60.9542 -101.14516,59.44957 C 61.244654,231.66507 10.648645,189.05112 1.2037243,133.23731 c -1.72110162,-8.80161 0,-13.27067 0.8658991,-20.41688 -1.0548688,5.50915 -1.45674781,7.10037 -1.98647428,16.88859 0,0.20884 -0.0127338,0.41563 -0.0127338,0.62498 0.0010187,67.59513 54.80733368,122.39228 122.41061468,122.39228 60.54417,0 110.8147,-43.951 120.65641,-101.68201 0.20731,-1.56677 0.37336,-3.14169 0.55621,-4.72221 2.43318,-20.99041 -0.26995,-43.05301 -7.93927,-61.502261 z"
         fill="url(#b)"
         sodipodi:nodetypes="cccscccccccsccc"
         style="fill:url(#b);stroke-width:0.509352" />
      <path
         id="body-outer-ring-shadow"
         d="M 235.75438,84.819799 C 230.43419,72.02283 220.0903,58.303016 211.62894,53.936339 c 6.88644,13.500384 10.44067,26.947185 11.96363,37.054264 0,-0.02954 0.006,0.02445 0.0183,0.115114 0.006,0.04329 0.0138,0.08863 0.0204,0.131922 11.54957,31.309891 5.25754,63.148491 -3.80944,82.604221 -14.02706,30.10272 -47.98864,60.9542 -101.14516,59.44957 C 61.244654,231.66507 10.648645,189.05112 1.2037243,133.23731 c -1.72110162,-8.80161 0,-13.27067 0.8658991,-20.41688 -1.0548688,5.50915 -1.45674781,7.10037 -1.98647428,16.88859 0,0.20884 -0.0127338,0.41563 -0.0127338,0.62498 0.0010187,67.59513 54.80733368,122.39228 122.41061468,122.39228 60.54417,0 110.8147,-43.951 120.65641,-101.68201 0.20731,-1.56677 0.37336,-3.14169 0.55621,-4.72221 2.43318,-20.99041 -0.26995,-43.05301 -7.93927,-61.502261 z"
         fill="url(#c)"
         sodipodi:nodetypes="cccscccccccsccc"
         style="fill:url(#c);stroke-width:0.509352" />
      <path
         id="tail-tip"
         d="m 176.26762,99.207475 c 0.26691,0.187442 0.50936,0.373865 0.76047,0.560288 -3.07212,-5.452291 -6.89765,-10.444184 -11.36365,-14.828266 -38.05117,-38.046585 -9.97771,-82.4957288 -5.24328,-84.7531785 0.0138,-0.0183367 -2.30754,1.0935905 -2.29888,1.0839128 -30.74961,18.0086617 -38.83132,50.1696697 -39.78992,66.8372067 1.42618,-0.09881 2.8483,-0.218512 4.29995,-0.218512 22.94683,0 42.9328,12.616658 53.63531,31.318549 z"
         fill="url(#d)"
         sodipodi:nodetypes="ccccccsc"
         style="fill:url(#d);stroke-width:0.509352" />
      <path
         id="_Path_"
         d="m 122.26105,233.20952 c 56.48208,0 102.23782,-46.00332 102.23782,-102.72792 0,-56.724603 -45.75574,-102.727699 -102.183,-102.727699 -56.427257,0 -102.182534,46.003325 -102.182534,102.727699 -0.109401,56.77941 45.700236,102.72792 102.127714,102.72792 z"
         style="fill:url(#radial-gradient-2);stroke-width:0.230317" />
      <g
         id="path1005-6"
         style="opacity:0.638134;filter:url(#filter1309)"
         transform="matrix(0.50935237,0,0,0.50935237,-8.0782039,0.08750414)">
        <path
           style="color:#000000;fill:#000000;stroke-width:0.413379px;-inkscape-stroke:none"
           d="m 130.60331,250.14874 c 0,0 26.7519,4.80928 35.22798,19.72479 8.53479,15.01882 39.3011,31.70876 57.09541,26.88118 50.75076,-13.76859 62.30231,-2.2578 62.30231,-2.2578 0,0 31.69193,18.94181 18.52974,27.27315 -13.28243,8.40746 -6.8146,-10.50445 -41.86515,12.47468 -25.84515,16.94407 -93.1212,23.5577 -125.43937,-21.47851 -24.61449,-34.30092 -5.85092,-62.61749 -5.85092,-62.61749 z"
           id="path4590" />
        <path
           style="color:#000000;fill:#000000;fill-opacity:0.0321554;-inkscape-stroke:none"
           d="m 130.50586,249.92187 -0.0742,0.11329 c 0,0 -4.71765,7.12114 -6.33789,18.53125 -1.62024,11.4101 -0.14408,27.12777 12.19336,44.32031 16.20147,22.57717 41.16585,32.20689 65.29883,34.06836 24.13297,1.86147 47.44085,-4.02676 60.42187,-12.53711 8.7542,-5.73925 14.90849,-8.85827 19.41406,-10.43945 4.50558,-1.58119 7.35327,-1.62851 9.53125,-1.23243 2.17799,0.39608 3.70419,1.25621 5.5625,1.49414 1.85832,0.23794 4.00973,-0.17838 7.35352,-2.29492 1.67606,-1.0609 2.66115,-2.31063 3.07031,-3.67969 0.40916,-1.36905 0.24113,-2.84278 -0.33008,-4.3457 -1.1424,-3.00584 -3.88903,-6.16378 -7.03906,-9.0625 -6.30005,-5.79743 -14.23437,-10.53711 -14.23437,-10.53711 l 0.0391,0.0293 c 0,0 -0.76097,-0.74924 -2.6582,-1.62305 -1.89724,-0.87381 -4.94783,-1.88814 -9.58203,-2.46875 -9.26841,-1.16122 -24.8685,-0.59226 -50.26172,6.29688 -8.81001,2.39014 -20.91986,-0.54971 -31.875,-5.98242 -10.95515,-5.43272 -20.7554,-13.35554 -24.98633,-20.80079 -4.27947,-7.53066 -13.12835,-12.46998 -20.89649,-15.54492 -7.76813,-3.07493 -14.47461,-4.28125 -14.47461,-4.28125 z m 0.20703,0.4629 c 0.2216,0.0403 6.65472,1.21809 14.25,4.2246 7.72682,3.05858 16.49285,7.98236 20.68945,15.36719 4.30385,7.57356 14.15185,15.5048 25.16211,20.96485 11.01027,5.46005 23.18173,8.4511 32.16602,6.01367 25.35748,-6.87944 40.90848,-7.43914 50.10351,-6.28711 4.59752,0.57601 7.6063,1.5794 9.46094,2.43359 1.85464,0.8542 2.53906,1.54102 2.53906,1.54102 l 0.0176,0.0195 0.0215,0.0117 c 0,0 7.91066,4.73198 14.16601,10.48828 3.12768,2.87815 5.83563,6.01536 6.9336,8.9043 0.54898,1.44446 0.69732,2.81858 0.32031,4.08007 -0.37701,1.2615 -1.28005,2.4273 -2.89453,3.44922 -3.29742,2.08719 -5.32011,2.45973 -7.08008,2.23438 -1.75998,-0.22535 -3.29629,-1.08166 -5.54297,-1.49024 -2.24668,-0.40857 -5.18549,-0.35039 -9.74023,1.24805 -4.55475,1.59844 -10.73285,4.73407 -19.50391,10.48438 -12.8641,8.4337 -36.11823,14.32545 -60.16406,12.4707 -24.04584,-1.85475 -48.87748,-11.43749 -64.99414,-33.89649 -12.27702,-17.10834 -13.72707,-32.70005 -12.11914,-44.02343 1.58816,-11.18427 6.09692,-18.0679 6.20898,-18.23828 z"
           id="path4592" />
      </g>
      <path
         style="fill:url(#radialGradient950);stroke-width:0.509352"
         d="m 0.6615982,134.76563 c 1.184529,55.48998 42.5776678,115.72255 118.0150818,117.85879 53.15652,1.50462 91.34932,-41.4797 105.37637,-71.58039 9.06647,-19.45726 11.1278,-58.49441 -0.42177,-89.806856 l -0.004,-0.01324 -0.0163,-0.118679 c -0.0127,-0.09067 -0.0204,-0.144657 -0.0183,-0.115114 0,0.01987 0.008,0.06927 0.0239,0.203741 4.34172,28.351068 -10.08008,55.816868 -32.62453,74.387858 l -0.0677,0.15943 c -43.9291,35.76825 -85.96544,21.58024 -94.476716,15.7726 -0.598234,-0.28786 -1.192531,-0.58382 -1.782733,-0.8878 -25.611256,-12.23923 -37.483313,-35.66692 -35.214657,-55.67734 -5.446291,-8.36043 -9.301717,-9.35726 -9.301717,-9.35726 0,0 9.747629,-5.72236 28.436939,-9.74447 23.700164,11.15125 40.919944,14.96909 44.058824,1.04646 -0.0744,-2.25903 -21.2865,-9.558217 -29.591999,-17.741472 -4.437987,-4.372281 -6.545178,-6.48049 -8.411445,-8.062029 -1.01247,-0.855198 -2.070955,-1.654377 -3.170718,-2.393956 C 80.630264,78.126698 79.78452,77.56638 78.932933,77.015037 70.005005,71.212495 52.248981,71.531859 51.660679,71.547139 h -0.05654 C 46.751541,65.400785 43.59322,60.348677 41.373503,57.043214 41.315437,56.780898 33.622547,46.550247 33.622547,46.550247 30.99742,44.552096 25.053261,54.3 22.278293,57.809525 c -7.271053,10.574899 -5.446775,8.86649 -8.227072,13.40814 -3.251728,6.003038 -9.1289895,19.945902 -11.7259104,31.698355 -0.058575,0.26538 -3.8080859,21.99007 -1.6637124,31.84961 z"
         id="path8868" />
      <path
         id="tail-flame"
         d="m 150.75291,61.447824 c 10.7624,4.441634 24.56544,21.17879 27.63755,26.631081 0.67388,0.506297 4.21836,16.233295 4.75267,16.725845 20.91369,30.00327 8.93326,58.19962 7.84885,60.77694 22.54445,-18.57099 36.96625,-46.03679 32.62453,-74.387855 -13.84165,-34.499455 -37.3121,-48.410887 -56.4775,-78.701054 -0.96777,-1.531622 -1.93808,-3.0673199 -2.88344,-4.6860417 -0.48135,-0.8266901 -0.93093,-1.6714729 -1.34775,-2.5325 -0.79626,-1.537303 -1.36986,-3.1694604 -1.78952,-4.84910858 -0.0693,-0.17119722 -0.20409,-0.42124068 -0.30504,-0.42046332 -0.1364,-0.01614484 -0.19259,0.01013489 -0.27512,0.07046058 -0.0173,0.0061122 -0.0501,0.03603049 -0.0684,0.04316142 -0.027,0.0106964 -0.0616,0.0395089 -0.0901,0.0552988 -4.73245,2.2554124 -47.6779,23.2281628 -9.62673,61.2742358 z"
         fill="url(#i)"
         sodipodi:nodetypes="cccccccccccccc"
         style="fill:url(#radialGradient12586);stroke-width:0.509352" />
      <path
         id="tail-small"
         d="m 178.86583,101.27086 c -0.53431,-0.49254 -1.16387,-0.99731 -1.83774,-1.503606 -0.24908,-0.187442 -0.49356,-0.373865 -0.76047,-0.560288 -6.53601,-4.591302 -18.2399,-9.126066 -29.51544,-7.16506 44.02893,22.011154 32.2089,97.808894 -28.80133,94.947354 a 54.3698,54.3698 0 0 1 -15.92795,-3.0719 68.512987,68.512987 0 0 1 -3.595523,-1.46999 c -0.690682,-0.31478 -1.380855,-0.63313 -2.062877,-0.9856 0.02445,0.0168 0.05807,0.0357 0.08302,0.0509 8.51128,5.80661 50.54762,19.99564 94.47672,-15.77261 l 0.0677,-0.15943 c 1.08441,-2.57426 15.62439,-38.73981 -12.12615,-64.30981 z"
         fill="url(#j)"
         style="fill:url(#j);stroke-width:0.509352" />
      <path
         id="cheek-tufts"
         d="m 67.529553,141.40375 c 0,0 6.957452,-20.74193 39.115597,-23.69612 7.77731,-0.71446 8.59745,-2.22404 11.80426,-4.12533 5.92124,-3.51064 -20.401374,2.00034 -39.616585,-7.70008 -7.686438,-2.94424 -28.97373,9.89018 -28.97373,9.89018 0,0 3.878958,3.58944 9.212972,9.47206 -2.268146,20.01042 12.976587,41.70836 35.593233,55.38197 0.542975,0.32828 1.110388,0.57252 1.698181,0.83483 C 76.572197,170.09113 69.071362,159.13431 67.529553,141.40375 Z"
         fill="url(#k)"
         sodipodi:nodetypes="csscccscc"
         style="fill:url(#k);stroke-width:0.509352" />
      <path
         id="overlay-yellow"
         d="m 235.75755,84.826926 c -5.32019,-12.79697 -15.64208,-26.6979 -24.10344,-31.06458 6.88644,13.50039 10.41867,27.1283 11.94163,37.23538 0,0.0199 0.008,0.0693 0.0239,0.20374 -13.84165,-34.49996 -37.3121,-48.41139 -56.4775,-78.70156 -0.96777,-1.53162 -1.93809,-3.0673195 -2.88344,-4.6860395 -0.48135,-0.8267 -0.93093,-1.67148 -1.34775,-2.5325 -0.79626,-1.53731 -1.37303,-3.1635 -1.79268,-4.84315001 -0.0555,-0.16661 -0.18226,-0.39699 -0.31994,-0.43143 -0.0751,-0.0215 -0.14919,0.012 -0.21212,0.0458 -0.0173,0.006 -0.0594,0.0463 -0.0778,0.0535 -0.027,0.0107 -0.0539,0.0343 -0.0824,0.0501 0.0137,-0.0183 -0.17242,0.0873 -0.16376,0.0776 C 131.40714,15.617456 124.13175,41.308946 120.16407,55.192756 c 1.42618,-0.0988 22.98768,1.54112 36.06168,9.60709 13.05373,8.05346 22.76204,19.28317 26.40946,39.514384 -6.53601,-4.591304 -24.60687,-14.225104 -35.88241,-12.264094 44.02893,22.011154 32.2089,97.808904 -28.80133,94.947364 -5.43305,-0.22173 -10.80212,-1.25721 -15.92795,-3.07191 -1.21216,-0.45592 -2.41115,-0.94611 -3.595522,-1.46999 -0.690682,-0.31478 -1.380854,-0.63313 -2.062877,-0.9856 0.02445,0.0168 0.05807,0.0357 0.08302,0.0509 -0.598234,-0.28786 -1.192531,-0.58382 -1.782733,-0.8878 0.572512,0.27352 1.110388,0.57252 1.698181,0.83483 -14.949492,-7.72586 -27.293137,-22.32645 -28.834947,-40.057 0,0 11.472255,-25.17405 46.280888,-25.17405 3.7631,0 8.69912,-6.38032 8.89828,-9.42524 -0.0453,-0.99426 -21.35053,-9.468864 -29.65603,-17.652104 -4.437987,-4.37227 -6.545178,-6.48048 -8.411445,-8.06203 -1.01247,-0.8552 7.865389,7.19392 6.765625,6.45434 -13.71415,-19.39506 -9.342715,-36.93917 -10.999414,-39.63632 -5.255554,0.89621 -21.635705,15.64908 -28.746264,23.64082 h -0.05654 c -4.852598,-6.14636 -15.438824,-21.45094 -17.768269,-24.75587 -0.05807,-0.26232 -5.773051,5.26743 -6.239618,5.58577 -3.517809,3.52083 -3.881666,5.56662 -7.559103,9.32885 -3.523582,4.99889 -1.466785,2.78128 -4.888215,7.66086 0,0.006 -0.0036,0.0132 -0.0056,0.0193 0,-0.007 0.0036,-0.0132 0.0056,-0.0193 -7.871351,11.15452 -8.7089637,21.40919 -11.6801205,34.734124 -0.058575,0.26537 -0.1079827,0.54043 -0.1650301,0.80783 -0.2302273,1.07779 -1.26625,6.5467 -1.4109061,7.71974 -0.011206,0.0902 0.010696,-0.0896 0,0 -0.94477174,5.65136 -1.54758263,11.35459 -1.80514481,17.07859 0,0.20883 -0.01273381,0.41563 -0.01273381,0.62497 0,67.59514 54.80631532,122.3923 122.40959832,122.3923 60.54417,0 110.8147,-43.95101 120.65642,-101.68203 0.20731,-1.56677 0.37336,-3.14169 0.55622,-4.72221 2.43317,-20.99041 -0.26996,-43.05301 -7.93929,-61.502264 z m -12.14347,6.28592 c 0.006,0.0433 0.0137,0.0886 0.0204,0.13192 l -0.004,-0.0132 z"
         fill="url(#l)"
         style="opacity:0.820822;fill:url(#l);stroke-width:0.509352"
         sodipodi:nodetypes="ccccccccccccccsccccccccccsccccccccccccccccccsscccccccc" />
      <path
         style="color:#000000;fill:url(#radialGradient1055);fill-opacity:1;fill-rule:evenodd;stroke-width:0.210363;stroke-miterlimit:4;stroke-dasharray:none"
         d="m 59.069429,125.24214 c 0,0 13.626143,2.44962 17.943455,10.04687 4.347215,7.64987 20.018108,16.15093 29.081686,13.69199 25.85002,-7.01306 31.73383,-1.15001 31.73383,-1.15001 0,0 16.14236,9.64805 9.43816,13.89164 -6.76543,4.28236 -3.47103,-5.35047 -21.32411,6.35401 -13.16429,8.6305 -47.431505,11.99917 -63.892841,-10.94013 -12.537449,-17.47126 -2.98018,-31.89437 -2.98018,-31.89437 z"
         id="path8521" />
      <path
         style="color:#000000;fill:#000000;fill-opacity:0.0321554;stroke-width:0.509352;-inkscape-stroke:none"
         d="m 59.020016,125.12655 -0.03881,0.0577 c 0,0 -2.401953,3.62717 -3.227226,9.43893 -0.825268,5.81177 -0.07439,13.8176 6.209723,22.57466 8.252257,11.49973 20.967924,16.40465 33.260114,17.3528 12.292183,0.94814 24.164103,-2.05104 30.776023,-6.38581 4.45897,-2.9233 7.59467,-4.51198 9.88959,-5.31736 2.29493,-0.80538 3.74441,-0.82948 4.85377,-0.62773 1.10936,0.20174 1.88773,0.63985 2.83427,0.76104 0.94654,0.1212 2.04237,-0.0909 3.74553,-1.16892 0.8537,-0.54038 1.35547,-1.17693 1.56387,-1.87426 0.2084,-0.69733 0.12282,-1.44798 -0.16812,-2.2135 -0.58189,-1.53103 -1.98189,-3.13953 -3.58636,-4.616 -3.20895,-2.95294 -7.25031,-5.3671 -7.25031,-5.3671 l 0.0209,0.0149 c 0,0 -0.3876,-0.38162 -1.35396,-0.8267 -0.96636,-0.44507 -2.52019,-0.96173 -4.88063,-1.25746 -4.72089,-0.59147 -12.66682,-0.30167 -25.60093,3.20733 -4.48739,1.21742 -10.655575,-0.28 -16.235602,-3.04716 -5.580031,-2.76717 -10.572805,-6.80268 -12.727839,-10.59493 -2.179758,-3.83576 -6.685963,-6.35162 -10.642679,-7.91784 -3.95672,-1.56623 -7.373675,-2.18067 -7.373675,-2.18067 z m 0.105452,0.23577 c 0.112872,0.0205 3.389597,0.62044 7.258271,2.15182 3.935674,1.55789 8.399679,4.06583 10.537227,7.82731 2.192176,3.85761 7.209272,7.8974 12.817379,10.67849 5.608102,2.78109 11.807665,4.30459 16.383835,3.06308 12.91589,-3.50406 20.83683,-3.78914 25.52034,-3.20235 2.34176,0.29339 3.87429,0.80447 4.81895,1.23956 0.94467,0.43508 1.29228,0.78491 1.29228,0.78491 l 0.01,0.01 0.011,0.006 c 0,0 4.02931,2.41025 7.21549,5.34223 1.59309,1.466 2.97239,3.06395 3.53164,4.53543 0.27963,0.73575 0.35519,1.43565 0.16316,2.0782 -0.19204,0.64254 -0.652,1.23635 -1.47434,1.75687 -1.67955,1.06311 -2.70981,1.25286 -3.60626,1.13808 -0.89644,-0.11478 -1.67897,-0.55095 -2.82332,-0.75905 -1.14435,-0.20811 -2.64124,-0.17848 -4.96121,0.63569 -2.31997,0.81417 -5.4678,2.41131 -9.93536,5.34024 -6.55236,4.29573 -18.39591,7.29671 -30.643709,6.35198 -12.247801,-0.94472 -24.896854,-5.82571 -33.105913,-17.26525 -6.253334,-8.71417 -6.991915,-16.65585 -6.172912,-22.42344 0.808933,-5.69674 3.106473,-9.20293 3.163551,-9.28971 z"
         id="path8518" />
      <path
         d="m 178.47349,175.02539 c 5.57479,-2.38615 18.15025,-13.76142 24.63114,-21.16931 4.28318,-14.87393 -0.93218,-36.93856 -10.11833,-61.048826 -7.26016,-19.055962 -17.22828,-29.475779 -29.88474,-39.654539 -20.55487,-16.529613 -24.90454,-30.768877 -24.90454,-35.1571 0,0 -26.841,29.661225 -14.83118,54.172971 11.55226,23.577876 31.37283,23.268811 45.31929,48.475014 16.41114,29.66136 -9.16558,57.75178 -33.71738,66.81134 30.67215,-11.5455 37.10153,-8.82089 43.50574,-12.42955 z"
         style="fill:url(#radial-gradient-7);stroke-width:0.191274"
         id="path211"
         sodipodi:nodetypes="cccccsccc" />
      <path
         style="fill:url(#linearGradient995);fill-rule:evenodd;stroke-width:0.509352"
         d="m 224.05048,91.200369 c 0.006,0.0433 0.0138,0.08863 0.0204,0.131923 l -0.004,-0.01324 z"
         id="path15687" />
      <path
         id="path2317"
         style="fill:url(#linearGradient1064);fill-rule:evenodd;stroke-width:0.509352"
         d="m 236.19395,84.826926 c -5.32019,-12.79697 -16.09554,-26.61264 -24.5569,-30.97932 6.88645,13.50038 10.87213,27.04304 12.39509,37.15012 0,0.0199 0.008,0.0693 0.0239,0.20374 -13.84165,-34.49996 -37.3121,-48.41139 -56.4775,-78.70156 -0.96777,-1.53162 -1.93808,-3.0673195 -2.88344,-4.6860395 -0.48134,-0.8267 -0.93092,-1.67148 -1.34775,-2.5325 -0.79626,-1.53732 -1.37302,-3.16351 -1.79268,-4.84315001 -0.0555,-0.16661 -0.18226,-0.397 -0.31993,-0.43143 -0.0751,-0.0215 -0.14919,0.012 -0.21212,0.0458 -0.0173,0.006 -0.0594,0.0464 -0.0778,0.0535 -0.027,0.0107 -0.0538,0.0343 -0.0824,0.0501 0.0138,-0.0183 -0.17241,0.0873 -0.16375,0.0776 C 131.84354,15.617446 124.56816,41.308946 120.60047,55.192756 c 1.42619,-0.0988 -1.094,0.53407 -0.20403,3.63149 -0.24888,19.95977 17.31803,31.2448 26.79277,38.17979 43.832,20.845534 29.97137,92.750044 -28.80133,89.993454 -5.43306,-0.22172 -10.80212,-1.25721 -15.92796,-3.0719 -1.21216,-0.45592 -2.41115,-0.94612 -3.595519,-1.47 -0.690682,-0.31478 -1.380854,-0.63312 -2.062877,-0.98559 0.02445,0.0168 0.05807,0.0357 0.08302,0.0509 -0.598234,-0.28786 -1.192531,-0.58382 -1.782733,-0.88779 0.572512,0.27351 1.110388,0.57251 1.698181,0.83483 C 81.850504,173.74212 69.506858,159.14153 67.965049,141.41097 75.022732,93.239336 59.365938,74.810146 3.90482,104.11008 c -0.058576,0.26537 -0.1079827,0.54043 -0.1650302,0.80784 -0.2302273,1.07779 -1.26625,6.5467 -1.4109061,7.71974 -0.011206,0.0902 0.010696,-0.0896 0,0 -0.9447722,5.65136 -1.54758566,11.35459 -1.80514478,17.07858 0,0.20884 -0.0127338,0.41563 -0.0127338,0.62498 0,67.59512 54.80631488,122.39226 122.40959488,122.39226 60.54417,0 110.81471,-43.95099 120.65643,-101.682 0.2073,-1.56676 0.37335,-3.14168 0.55621,-4.7222 2.43318,-20.99041 -0.26996,-43.05301 -7.93929,-61.502274 z" />
      <path
         style="fill:url(#c-2);stroke-width:0.509352"
         d="m 236.1395,84.639921 c -5.32018,-12.796964 -16.09553,-26.612637 -24.55689,-30.979315 6.88644,13.500384 10.87212,27.043045 12.39509,37.150119 0,-0.02954 0.006,0.02445 0.0183,0.115114 0.006,0.0433 0.0138,0.08863 0.0204,0.131922 11.54956,31.309889 5.25753,63.148489 -3.80945,82.604219 -14.02705,30.10273 -47.98865,60.9542 -101.14517,59.44957 -57.432005,-1.62636 27.79918,43.75982 18.35426,-12.05399 -12.10602,40.19483 -102.009567,31.81704 -14.54991,31.48884 60.54417,0 110.81472,-43.951 120.65643,-101.68201 0.2073,-1.56677 0.37335,-3.14169 0.55621,-4.72221 2.43318,-20.99041 -0.26996,-43.05301 -7.93928,-61.502259 z"
         id="path5207" />
      <path
         id="path2970"
         style="fill:url(#g);fill-opacity:1;stroke-width:0.509352"
         d="m 80.056641,47.800781 c -4.696947,1.396111 -21.283973,15.758261 -28.394532,23.75 0.588302,-0.01681 18.343047,-0.335746 27.271485,5.466797 0.852524,0.549912 14.461979,13.247742 15.300781,13.81836 C 75.790369,70.354996 83.100459,48.53787 80.056641,47.800781 Z" />
    </g>
  </g>
</svg>
