<?xml version="1.0" encoding="UTF-8" standalone="no"?>
<!-- Created with Inkscape (http://www.inkscape.org/) -->

<svg
   width="32"
   height="32"
   viewBox="0 0 8.4666665 8.4666669"
   version="1.1"
   id="svg2719"
   inkscape:version="1.2 (1:1.2+202206011326+fc4e4096c5)"
   sodipodi:docname="kwalletmanager.svg"
   xmlns:inkscape="http://www.inkscape.org/namespaces/inkscape"
   xmlns:sodipodi="http://sodipodi.sourceforge.net/DTD/sodipodi-0.dtd"
   xmlns:xlink="http://www.w3.org/1999/xlink"
   xmlns="http://www.w3.org/2000/svg"
   xmlns:svg="http://www.w3.org/2000/svg">
  <sodipodi:namedview
     id="namedview2721"
     pagecolor="#ffffff"
     bordercolor="#666666"
     borderopacity="1.0"
     inkscape:pageshadow="2"
     inkscape:pageopacity="0.0"
     inkscape:pagecheckerboard="0"
     inkscape:document-units="px"
     showgrid="false"
     units="px"
     inkscape:zoom="6.1328125"
     inkscape:cx="21.605096"
     inkscape:cy="27.067516"
     inkscape:window-width="1308"
     inkscape:window-height="742"
     inkscape:window-x="0"
     inkscape:window-y="0"
     inkscape:window-maximized="1"
     inkscape:current-layer="svg2719"
     inkscape:showpageshadow="2"
     inkscape:deskcolor="#d1d1d1" />
  <defs
     id="defs2716">
    <linearGradient
       inkscape:collect="always"
       id="linearGradient1374">
      <stop
         style="stop-color:#e8e8e8;stop-opacity:1;"
         offset="0"
         id="stop1370" />
      <stop
         style="stop-color:#f5f5f5;stop-opacity:1;"
         offset="1"
         id="stop1372" />
    </linearGradient>
    <linearGradient
       inkscape:collect="always"
       xlink:href="#linearGradient2637"
       id="linearGradient1376"
       x1="1.794584"
       y1="1.1908275"
       x2="1.794584"
       y2="6.4823108"
       gradientUnits="userSpaceOnUse"
       gradientTransform="translate(0,-0.2645833)" />
    <linearGradient
       inkscape:collect="always"
       xlink:href="#linearGradient1374"
       id="linearGradient956"
       gradientUnits="userSpaceOnUse"
       x1="2.7493842"
       y1="1.7199943"
       x2="3.7041843"
       y2="7.0114775"
       gradientTransform="translate(1.0583335,0.7937224)" />
    <linearGradient
       inkscape:collect="always"
       id="linearGradient2637">
      <stop
         style="stop-color:#325fd1;stop-opacity:1;"
         offset="0"
         id="stop2633" />
      <stop
         style="stop-color:#6e98ff;stop-opacity:1;"
         offset="1"
         id="stop2635" />
    </linearGradient>
  </defs>
  <g
     id="g364"
     transform="matrix(0.85,0,0,0.85,0.635,0.52243956)">
    <path
       d="M 1.6558243,0.79395691 C 1.3401272,0.79620003 1.0840811,0.81281888 0.87137619,0.85561736 0.62815002,0.904567 0.43634672,0.99175117 0.29983492,1.1362937 0.02681402,1.4253783 1.1181853e-4,1.8738613 1.1181853e-4,2.5806187 v 1.982987 c 0,0.7065822 0.0266330015,1.1532655 0.29972310147,1.4413648 0.1365462,0.1440496 0.3285086,0.2313694 0.57154127,0.2806766 0.24303311,0.04931 0.54261921,0.064618 0.92345781,0.064618 h 1.9093324 1.9093391 c 0.3808389,0 0.6804247,-0.015296 0.9234577,-0.064617 C 6.7799963,6.2363437 6.9719586,6.1490198 7.1085045,6.0049703 7.3815945,5.7168709 7.408228,5.2701877 7.408228,4.5636054 V 2.5806182 c 0,-0.7067574 -0.026701,-1.1552424 -0.2997235,-1.444325 C 6.9719935,0.99175067 6.7801892,0.9045627 6.5369632,0.85561686 6.2938712,0.80669602 5.9941565,0.79211459 5.6135055,0.79395691 H 3.7041664 1.7953507 1.7948216 c -0.047581,-2.2681e-4 -0.09391,-3.2081e-4 -0.1390097,0 z"
       style="color:#000000;display:inline;overflow:visible;visibility:visible;opacity:0.1;fill:#000000;fill-opacity:1;fill-rule:nonzero;stroke:none;stroke-width:0.258501;marker:none;enable-background:accumulate"
       id="path1438"
       sodipodi:nodetypes="cccssscscscssssccccccc" />
    <path
       d="M 2.1135661,0.79375 C 1.4493314,0.8014231 0.95620281,0.7805168 0.56223961,0.9978719 0.36090847,1.1089542 0.2062743,1.2912559 0.11833903,1.5254883 0.03143875,1.7569883 0,2.0336278 0,2.38125 V 4.7625 c 0,0.3476223 0.0314411,0.6242531 0.11833903,0.8557617 0.0879299,0.234243 0.2425651,0.4165338 0.44390058,0.5276165 C 0.95618421,6.3632395 1.4493327,6.3423218 2.1135661,6.35 h 5.159e-4 0.00207 3.1760335 0.00206 5.292e-4 C 5.9590094,6.3423271 6.452138,6.3632318 6.8461012,6.1458782 7.0474322,6.0347958 7.2020666,5.8524942 7.2900017,5.6182617 7.376771,5.3868092 7.4083334,5.1101344 7.4083334,4.7625 V 2.38125 c 0,-0.3476222 -0.031441,-0.6242533 -0.1183391,-0.8557617 C 7.2020642,1.2912301 7.0474248,1.1089521 6.8460938,0.9978719 6.4521493,0.7805105 5.9590007,0.8014283 5.2947674,0.79375 h -5.292e-4 -0.00206 -3.1760336 -0.00155 z m 0.00155,0.2645833 h 0.00155 3.1755168 c 0.6684578,0.00772 1.1252581,0.00525 1.4257528,0.171049 0.1459608,0.080531 0.2554245,0.2063988 0.3240111,0.3891236 0.06962,0.1854744 0.1018033,0.4316578 0.1018033,0.7627441 V 4.7625 c 0,0.3310739 -0.032253,0.5772401 -0.1018027,0.762744 C 6.9733555,5.7079523 6.863881,5.8338442 6.7179363,5.9143678 6.4174072,6.0801739 5.96064,6.0776996 5.2921835,6.0854167 H 2.1166667 2.1151164 C 1.4473208,6.0777109 0.99070961,6.080067 0.69039711,5.9143678 0.54444091,5.8338392 0.43497273,5.7079576 0.3663859,5.525244 0.29676707,5.3397698 0.26458333,5.0935863 0.26458333,4.7625 V 2.38125 c 0,-0.3310863 0.0321861,-0.5772877 0.10180257,-0.7627441 C 0.43497799,1.4357977 0.54445241,1.3099058 0.69039711,1.2293823 0.99074391,1.0636768 1.4473221,1.0660336 2.1151161,1.0583333 Z"
       style="color:#000000;opacity:0.3;fill:#000000;stroke-width:0.264583;-inkscape-stroke:none"
       id="path1149"
       sodipodi:nodetypes="cccssccccccccccssscccccccccccssscccccccssccc" />
    <path
       d="m 7.2759332,2.6657392 c 0,-1.471547 -0.154541,-1.747229 -1.662184,-1.739495 H 3.7041843 1.794584 c -1.50764334,-0.0078 -1.66218384,0.267948 -1.66218384,1.739495 v 1.8124933 c 0,1.471181 0.1545246,1.739495 1.66218384,1.739495 h 1.9096003 1.9095649 c 1.507659,0 1.662184,-0.268314 1.662184,-1.739495 z"
       style="color:#000000;display:inline;overflow:visible;visibility:visible;fill:url(#linearGradient1376);fill-opacity:1;fill-rule:nonzero;stroke:none;stroke-width:0.264583;marker:none;enable-background:accumulate"
       id="path908"
       sodipodi:nodetypes="scccssscsss" />
    <path
       d="M 2.7141579,2.3814565 C 2.3984608,2.3836966 2.1424147,2.4003187 1.9297098,2.443117 1.6864836,2.4920665 1.4946802,2.5792511 1.3581684,2.7237933 1.0851475,3.0128777 1.0584453,3.4613604 1.0584453,4.1681173 v 1.982986 c 0,0.7065826 0.026633,1.153264 0.2997231,1.4413641 0.1365462,0.1440495 0.3285087,0.23137 0.5715414,0.2806764 0.2430331,0.04931 0.5426192,0.064621 0.9234578,0.064621 h 1.9093323 1.909339 c 0.3808389,0 0.6804247,-0.0153 0.9234577,-0.064621 C 7.8383297,7.8238404 8.030292,7.7365169 8.1668379,7.5924674 8.4399279,7.3043673 8.4665614,6.8576849 8.4665614,6.1511023 V 4.1681168 c 0,-0.7067569 -0.026701,-1.1552416 -0.2997235,-1.444324 C 8.0303269,2.5792506 7.8385226,2.492062 7.5952966,2.4431165 7.3522046,2.3941962 7.0524899,2.3796145 6.6718389,2.3814565 H 4.7624999 2.8536843 2.8531552 c -0.047581,-2.265e-4 -0.09391,-3.21e-4 -0.1390097,0 z"
       style="color:#000000;display:inline;overflow:visible;visibility:visible;opacity:0.1;fill:#000000;fill-opacity:1;fill-rule:nonzero;stroke:none;stroke-width:0.258501;marker:none;enable-background:accumulate"
       id="path967"
       sodipodi:nodetypes="cccssscscscssssccccccc" />
    <path
       d="M 3.1718996,2.3812501 C 2.5076649,2.3889231 2.0145363,2.3680169 1.6205731,2.585372 1.4192419,2.6964543 1.2646078,2.878756 1.1766725,3.1129884 c -0.0869,0.2315 -0.118339,0.5081395 -0.118339,0.8557617 v 2.3812497 c 0,0.3476227 0.031441,0.6242537 0.118339,0.8557624 0.08793,0.234243 0.2425651,0.4165337 0.4439006,0.5276157 0.3939446,0.217362 0.8870931,0.196444 1.5513265,0.204122 h 5.159e-4 0.00207 3.1760333 0.00206 5.292e-4 c 0.6642347,-0.0077 1.1573633,0.01323 1.5513265,-0.204122 C 8.1057655,7.6222959 8.2603999,7.4399942 8.348335,7.2057622 8.435104,6.9743095 8.4666667,6.6976345 8.4666667,6.3499998 V 3.9687501 c 0,-0.3476222 -0.031441,-0.6242533 -0.1183391,-0.8557617 C 8.2603975,2.8787302 8.1057581,2.6964522 7.9044271,2.585372 7.5104826,2.3680106 7.017334,2.3889284 6.3531007,2.3812501 h -5.292e-4 -0.00206 -3.1760334 -0.00155 z m 0.00155,0.2645833 h 0.00155 3.1755166 c 0.6684578,0.00772 1.1252581,0.00525 1.4257528,0.171049 0.1459608,0.080531 0.2554245,0.2063988 0.3240111,0.3891235 0.06962,0.1854745 0.1018033,0.4316579 0.1018033,0.7627442 v 2.3812497 c 0,0.3310737 -0.032253,0.5772407 -0.1018027,0.7627444 -0.068592,0.182708 -0.1780664,0.3086 -0.3240111,0.389124 C 7.4757405,7.6676739 7.0189733,7.6651999 6.3505168,7.6729169 H 3.1750002 3.1734499 C 2.5056543,7.6652109 2.0490431,7.6675669 1.7487306,7.5018682 1.6027744,7.4213392 1.4933062,7.2954582 1.4247193,7.1127442 1.3551005,6.9272695 1.3229168,6.6810865 1.3229168,6.3499998 V 3.9687501 c 0,-0.3310863 0.032186,-0.5772878 0.1018025,-0.7627442 0.068592,-0.1827081 0.1780666,-0.3086 0.3240113,-0.3891235 0.3003468,-0.1657055 0.756925,-0.1633487 1.424719,-0.171049 z"
       style="color:#000000;opacity:0.3;fill:#000000;stroke-width:0.264583;-inkscape-stroke:none"
       id="path1059"
       sodipodi:nodetypes="cccssccccccccccssscccccccccccssscccccccssccc" />
    <path
       d="m 8.3342666,4.2532118 c 0,-1.4715471 -0.154541,-1.7472291 -1.662184,-1.7394951 H 4.7625178 2.8529176 c -1.5076434,-0.0078 -1.6621839,0.267948 -1.6621839,1.7394951 v 1.812493 c 0,1.4711814 0.1545246,1.7394951 1.6621839,1.7394951 h 1.9096002 1.9095648 c 1.507659,0 1.662184,-0.2683137 1.662184,-1.7394951 z"
       style="color:#000000;display:inline;overflow:visible;visibility:visible;fill:url(#linearGradient956);fill-opacity:1;fill-rule:nonzero;stroke:none;stroke-width:0.264583;marker:none;enable-background:accumulate"
       id="path937"
       sodipodi:nodetypes="scccssscsss" />
    <path
       d="m 3.1749997,3.7041667 v 5.159e-4 c -0.1121966,0 -0.2191198,0.019265 -0.3172934,0.058394 -0.097589,0.037256 -0.1838132,0.091941 -0.2557983,0.1627808 l -5.159e-4,0.00103 c -0.070134,0.071167 -0.1247081,0.1571582 -0.1627816,0.254247 -0.038783,0.097166 -0.056844,0.2034511 -0.056844,0.3172934 0,0.1154059 0.017982,0.2225104 0.056844,0.319877 0.038164,0.095615 0.09282,0.1801492 0.1627807,0.2511475 l 5.16e-4,5.292e-4 C 2.6737282,5.1406575 2.759525,5.196402 2.856672,5.2353461 l 0.00156,5.291e-4 c 0.097962,0.037264 0.2047441,0.055811 0.3167765,0.055811 0.1120061,0 0.2182344,-0.018494 0.3162597,-0.055811 V 5.235351 c 0.097069,-0.038912 0.1820651,-0.09443 0.2521823,-0.1653646 0.072046,-0.071006 0.1275776,-0.1561796 0.1658813,-0.252181 0.039005,-0.097353 0.057878,-0.2044605 0.057878,-0.3198771 h 0.00154 c 0,-0.113725 -0.018631,-0.220246 -0.057361,-0.3173057 C 3.8732329,4.083121 3.8177041,3.9975924 3.7455071,3.9263745 3.6752233,3.8552148 3.5892881,3.7998268 3.491776,3.7625602 3.3936103,3.7233569 3.2872699,3.7041659 3.1749997,3.7041667 Z m 0.00568,1.8526001 c -0.5445389,0 -0.8369605,0.056867 -1.0541993,0.2413289 C 2.017868,5.8903297 1.9463102,6.0160922 1.9058263,6.1624145 1.8653503,6.3087291 1.8520833,6.6151002 1.8520833,6.6151002 h 2.6458329 c 0,0 -0.01238,-0.3063341 -0.05271,-0.4526857 C 4.4048969,6.0160576 4.3331223,5.8908673 4.224548,5.7986124 4.0074044,5.6141052 3.7252229,5.5567668 3.180684,5.5567668 Z"
       style="font-variant-ligatures:normal;font-variant-position:normal;font-variant-caps:normal;font-variant-numeric:normal;font-variant-alternates:normal;font-feature-settings:normal;text-indent:0;text-decoration-line:none;text-decoration-style:solid;text-decoration-color:#000000;text-transform:none;text-orientation:mixed;white-space:normal;shape-padding:0;isolation:auto;mix-blend-mode:normal;fill:#6b6552;fill-opacity:1;stroke-width:0.264583"
       id="path897"
       sodipodi:nodetypes="ccccccscccccsccccccccccsccccccss" />
    <path
       d="M 5.0270834,3.96875 V 4.2333333 H 6.6145833 V 3.96875 Z m 0,0.5291667 V 4.7625 H 7.6729165 V 4.4979167 Z m 0,0.5291666 V 5.2916667 H 6.35 V 5.0270833 Z"
       style="fill:#c8c4b7;fill-opacity:1;stroke-width:0.264583"
       id="path6143"
       sodipodi:nodetypes="ccccccccccccccc" />
  </g>
</svg>
