<?xml version="1.0" encoding="UTF-8" standalone="no"?>
<svg
   height="256"
   width="256"
   version="1.1"
   id="svg43"
   sodipodi:docname="netbeanss.svg"
   inkscape:version="1.1.2 (0a00cf5339, 2022-02-04, custom)"
   xmlns:inkscape="http://www.inkscape.org/namespaces/inkscape"
   xmlns:sodipodi="http://sodipodi.sourceforge.net/DTD/sodipodi-0.dtd"
   xmlns:xlink="http://www.w3.org/1999/xlink"
   xmlns="http://www.w3.org/2000/svg"
   xmlns:svg="http://www.w3.org/2000/svg">
  <sodipodi:namedview
     id="namedview36"
     pagecolor="#505050"
     bordercolor="#ffffff"
     borderopacity="1"
     inkscape:pageshadow="0"
     inkscape:pageopacity="0"
     inkscape:pagecheckerboard="1"
     showgrid="false"
     inkscape:zoom="1.5357475"
     inkscape:cx="125.99727"
     inkscape:cy="177.76359"
     inkscape:window-width="1306"
     inkscape:window-height="740"
     inkscape:window-x="60"
     inkscape:window-y="28"
     inkscape:window-maximized="1"
     inkscape:current-layer="svg43" />
  <defs
     id="defs47">
    <filter
       id="filter999"
       x="-0.034159459"
       y="-0.033133093"
       width="1.0683189"
       height="1.0662583"
       style="color-interpolation-filters:sRGB">
      <feGaussianBlur
         stdDeviation=".486"
         id="feGaussianBlur20" />
    </filter>
    <linearGradient
       id="linearGradient1280"
       gradientTransform="rotate(-90,125.52644,153.64532)"
       gradientUnits="userSpaceOnUse"
       x1="41.950745"
       x2="262.81201"
       y1="206.78929"
       y2="120.06951"
       spreadMethod="pad">
      <stop
         offset="0"
         stop-color="#f76363"
         id="stop10-3"
         style="stop-color:#4d4d4d;stop-opacity:1" />
      <stop
         offset="1"
         stop-color="#f22c42"
         id="stop12-6"
         style="stop-color:#434343;stop-opacity:1" />
    </linearGradient>
    <linearGradient
       id="linearGradient1284"
       gradientUnits="userSpaceOnUse"
       x1="88"
       x2="488"
       y1="88"
       y2="488">
      <stop
         offset="0"
         stop-opacity=".588235"
         id="stop2-7" />
      <stop
         offset="1"
         stop-opacity=".205556"
         id="stop4-5" />
    </linearGradient>
    <linearGradient
       inkscape:collect="always"
       xlink:href="#c"
       id="linearGradient1288"
       gradientUnits="userSpaceOnUse"
       gradientTransform="rotate(-90,125.99881,153.99849)"
       x1="41.299595"
       y1="185.30139"
       x2="262.81201"
       y2="120.06951" />
  </defs>
  <linearGradient
     id="a"
     gradientUnits="userSpaceOnUse"
     x1="88"
     x2="488"
     y1="88"
     y2="488">
    <stop
       offset="0"
       stop-opacity=".588235"
       id="stop2" />
    <stop
       offset="1"
       stop-opacity=".205556"
       id="stop4" />
  </linearGradient>
  <filter
     id="b"
     color-interpolation-filters="sRGB"
     height="1.0479755"
     width="1.0480245"
     x="-0.024012256"
     y="-0.023987755">
    <feGaussianBlur
       stdDeviation="1.5307812"
       id="feGaussianBlur7" />
  </filter>
  <linearGradient
     id="c"
     gradientTransform="rotate(-90,125.52644,153.64532)"
     gradientUnits="userSpaceOnUse"
     x1="41.950745"
     x2="262.81201"
     y1="206.78929"
     y2="120.06951"
     spreadMethod="pad">
    <stop
       offset="0"
       id="stop10"
       style="stop-color:#4d4d4d;stop-opacity:1" />
    <stop
       offset="1"
       id="stop12"
       style="stop-color:#434343;stop-opacity:1" />
  </linearGradient>
  <filter
     id="d"
     color-interpolation-filters="sRGB"
     height="1.0908583"
     width="1.0908101"
     x="-0.045405058"
     y="-0.045429151">
    <feGaussianBlur
       stdDeviation="8.4801079"
       id="feGaussianBlur15" />
  </filter>
  <filter
     id="e"
     color-interpolation-filters="sRGB"
     height="1.0227146"
     width="1.0227025"
     x="-0.011351265"
     y="-0.011357288">
    <feGaussianBlur
       stdDeviation="2.120027"
       id="feGaussianBlur18" />
  </filter>
  <path
     d="m53.695112 13.174463c-36.098811 0-39.983003 3.69016-39.806081 39.68984v74.310167 74.31016c-.176922 35.99969 3.70727 39.68984 39.806081 39.68984h148.387318c36.09881 0 40.77464-3.70276 39.80608-39.68984v-74.31016-74.310167c0-36.00011-3.70727-39.68984-39.80608-39.68984z"
     opacity=".1"
     id="path25" />
  <path
     d="m141.84323 74c-70.59344 0-78.18921 7.250835-77.84323 77.98706v146.01294 146.01294c-.34598 70.73623 7.24979 77.98706 77.84323 77.98706h292.31354c70.59344 0 79.78033-7.27652 77.84323-77.98706v-146.01294-146.01294c0-70.737067-7.24979-77.98706-77.84323-77.98706z"
     filter="url(#e)"
     opacity=".1"
     transform="matrix(.5 0 0 .5 -16.116488 -20.825537)"
     id="path21" />
  <path
     d="m141.84323 74c-70.59344 0-78.18921 7.250835-77.84323 77.98706v146.01294 146.01294c-.34598 70.73623 7.24979 77.98706 77.84323 77.98706h292.31354c70.59344 0 79.78033-7.27652 77.84323-77.98706v-146.01294-146.01294c0-70.737067-7.24979-77.98706-77.84323-77.98706z"
     fill="url(#a)"
     filter="url(#d)"
     opacity=".3"
     transform="matrix(.5 0 0 .5 -16.116488 -20.825235)"
     id="path23" />
  <path
     style="fill:url(#linearGradient1288);fill-opacity:1;fill-rule:evenodd"
     d="m 54.924323,240 c -35.29673,0 -39.09461,-3.62542 -38.92162,-38.99353 V 128.00001 54.99353 C 15.829713,19.62541 19.627593,16 54.924323,16 H 201.08108 c 35.29671,0 38.92161,3.625 38.92161,38.99353 v 73.00648 73.00646 C 240.00269,236.375 236.37779,240 201.08108,240 Z"
     id="path1081-3" />
  <path
     d="m54.805392 15.174463c-35.296728 0-39.09487 3.62603-38.92188 38.99414v2c-.17299-35.36811 3.625152-38.99414 38.92188-38.99414h146.156238c35.29673 0 38.92188 3.62561 38.92188 38.99414v-2c0-35.36853-3.62515-38.99414-38.92188-38.99414z"
     fill="#fff"
     opacity=".3"
     id="path39" />
  <path
     d="m54.810792 239.17447c-35.296731 0-39.094875-3.62603-38.921885-38.99414v-2c-.17299 35.36811 3.625154 38.99414 38.921885 38.99414h146.156238c35.29673 0 38.92188-3.62561 38.92188-38.99414v2c0 35.36853-3.62515 38.99414-38.92188 38.99414z"
     opacity=".2"
     id="path41" />
  <g
     transform="matrix(2.9897623,0,0,2.9897623,23.796339,-655.14271)"
     style="opacity:0.4;stroke:#000000;filter:url(#filter999)"
     id="g41">
    <path
       transform="matrix(0.46842342,0,0,0.4685674,1.9943237,227.13394)"
       d="m 20.117188,41.689453 c -0.181993,0.143378 -0.349654,0.212434 -0.541016,0.550781 -0.305014,0.539294 -0.490234,1.277553 -0.490234,1.759766 0,17.973052 0.25,37.657705 0.25,56.40625 0,1.46009 0.69398,3.17335 1.28125,3.53125 11.650726,7.10022 30.62348,14.81151 46.550781,22.30078 0.141454,0.0665 0.251008,0.12043 0.396484,0.19336 C 67.554357,101.02307 67.428928,66.037357 67.417969,63.294922 66.212085,62.765648 57.994911,59.163623 47.621094,54.509766 36.933726,49.715245 25.549678,44.501931 20.117188,41.689453 Z"
       style="opacity:0.7;fill:none;stroke:#000000;stroke-width:1.99696px;stroke-linecap:round;stroke-linejoin:round"
       id="path35-6" />
    <path
       transform="matrix(0.46842342,0,0,0.4685674,1.9943237,227.13394)"
       d="m 120.37305,41.857422 c -16.37587,8.750046 -46.379832,20.542174 -48.681644,21.443359 -0.012,3.085698 -0.16869,43.095559 -0.177734,63.628909 0.490324,-0.2425 0.970203,-0.47211 1.421875,-0.68555 14.64707,-6.92156 33.350703,-14.52072 46.826173,-22.30078 0.50024,-0.28882 1.16797,-1.48378 1.16797,-2.19336 0,-20.270756 0.28125,-37.950664 0.28125,-58 0,-0.553202 -0.38673,-1.275718 -0.83789,-1.892578 z"
       style="opacity:0.7;fill:none;stroke:#000000;stroke-width:1.99696px;stroke-linecap:round;stroke-linejoin:round"
       id="path37" />
    <path
       transform="matrix(0.46842342,0,0,0.4685674,1.9943237,227.13394)"
       d="m 70.023438,21.646484 c -1.322847,0.03662 -2.714018,0.254412 -3.748047,0.650391 -15.140979,5.798208 -25.32333,9.692532 -42.291016,16.699219 11.718311,5.86805 44.353981,20.259058 45.675781,20.839844 C 70.906196,59.347322 99.880319,47.909251 116.49023,39.337891 100.24291,32.415451 87.724357,26.366793 73.263672,21.966797 72.600941,21.765146 71.345231,21.609898 70.023438,21.646484 Z"
       style="opacity:0.7;fill:none;stroke:#000000;stroke-width:1.99696px;stroke-linecap:round;stroke-linejoin:round"
       id="path39-7" />
  </g>
  <g
     transform="matrix(2.9897623,0,0,2.9897623,23.796333,-655.14272)"
     style="stroke:#ececec"
     id="g49">
    <path
       transform="matrix(0.46842342,0,0,0.4685674,1.9943237,227.13394)"
       d="m 20.117188,41.689453 c -0.181993,0.143378 -0.349654,0.212434 -0.541016,0.550781 -0.305014,0.539294 -0.490234,1.277553 -0.490234,1.759766 0,17.973052 0.25,37.657705 0.25,56.40625 0,1.46009 0.69398,3.17335 1.28125,3.53125 11.650726,7.10022 30.62348,14.81151 46.550781,22.30078 0.141454,0.0665 0.251008,0.12043 0.396484,0.19336 C 67.554357,101.02307 67.428928,66.037357 67.417969,63.294922 66.212085,62.765648 57.994911,59.163623 47.621094,54.509766 36.933726,49.715245 25.549678,44.501931 20.117188,41.689453 Z"
       style="opacity:0.7;fill:none;stroke:#ececec;stroke-width:1.99696px;stroke-linecap:round;stroke-linejoin:round"
       id="path43" />
    <path
       transform="matrix(0.46842342,0,0,0.4685674,1.9943237,227.13394)"
       d="m 120.37305,41.857422 c -16.37587,8.750046 -46.379832,20.542174 -48.681644,21.443359 -0.012,3.085698 -0.16869,43.095559 -0.177734,63.628909 0.490324,-0.2425 0.970203,-0.47211 1.421875,-0.68555 14.64707,-6.92156 33.350703,-14.52072 46.826173,-22.30078 0.50024,-0.28882 1.16797,-1.48378 1.16797,-2.19336 0,-20.270756 0.28125,-37.950664 0.28125,-58 0,-0.553202 -0.38673,-1.275718 -0.83789,-1.892578 z"
       style="opacity:0.7;fill:none;stroke:#ececec;stroke-width:1.99696px;stroke-linecap:round;stroke-linejoin:round"
       id="path45" />
    <path
       transform="matrix(0.46842342,0,0,0.4685674,1.9943237,227.13394)"
       d="m 70.023438,21.646484 c -1.322847,0.03662 -2.714018,0.254412 -3.748047,0.650391 -15.140979,5.798208 -25.32333,9.692532 -42.291016,16.699219 11.718311,5.86805 44.353981,20.259058 45.675781,20.839844 C 70.906196,59.347322 99.880319,47.909251 116.49023,39.337891 100.24291,32.415451 87.724357,26.366793 73.263672,21.966797 72.600941,21.765146 71.345231,21.609898 70.023438,21.646484 Z"
       style="opacity:0.7;fill:none;stroke:#ececec;stroke-width:1.99696px;stroke-linecap:round;stroke-linejoin:round"
       id="path47" />
  </g>
  <g
     transform="matrix(2.9897623,0,0,2.9897623,23.796333,-655.14272)"
     style="stroke:#ececec"
     id="g57">
    <path
       transform="matrix(0.46842342,0,0,0.4685674,1.9943237,227.13394)"
       d="m 20.117188,41.689453 c -0.181993,0.143378 -0.349654,0.212434 -0.541016,0.550781 -0.305014,0.539294 -0.490234,1.277553 -0.490234,1.759766 0,17.973052 0.25,37.657705 0.25,56.40625 0,1.46009 0.69398,3.17335 1.28125,3.53125 11.650726,7.10022 30.62348,14.81151 46.550781,22.30078 0.141454,0.0665 0.251008,0.12043 0.396484,0.19336 C 67.554357,101.02307 67.428928,66.037357 67.417969,63.294922 66.212085,62.765648 57.994911,59.163623 47.621094,54.509766 36.933726,49.715245 25.549678,44.501931 20.117188,41.689453 Z"
       style="opacity:0.2;fill:#ececec;stroke:#ececec;stroke-width:1.99696px;stroke-linecap:round;stroke-linejoin:round"
       id="path51" />
    <path
       transform="matrix(0.46842342,0,0,0.4685674,1.9943237,227.13394)"
       d="m 120.37305,41.857422 c -16.37587,8.750046 -46.379832,20.542174 -48.681644,21.443359 -0.012,3.085698 -0.16869,43.095559 -0.177734,63.628909 0.490324,-0.2425 0.970203,-0.47211 1.421875,-0.68555 14.64707,-6.92156 33.350703,-14.52072 46.826173,-22.30078 0.50024,-0.28882 1.16797,-1.48378 1.16797,-2.19336 0,-20.270756 0.28125,-37.950664 0.28125,-58 0,-0.553202 -0.38673,-1.275718 -0.83789,-1.892578 z"
       style="opacity:0.1;fill:#ffffff;stroke:#ececec;stroke-width:1.99696px;stroke-linecap:round;stroke-linejoin:round"
       id="path53" />
    <path
       transform="matrix(0.46842342,0,0,0.4685674,1.9943237,227.13394)"
       d="m 70.023438,21.646484 c -1.322847,0.03662 -2.714018,0.254412 -3.748047,0.650391 -15.140979,5.798208 -25.32333,9.692532 -42.291016,16.699219 11.718311,5.86805 44.353981,20.259058 45.675781,20.839844 C 70.906196,59.347322 99.880319,47.909251 116.49023,39.337891 100.24291,32.415451 87.724357,26.366793 73.263672,21.966797 72.600941,21.765146 71.345231,21.609898 70.023438,21.646484 Z"
       style="opacity:0.05;fill:#ececec;stroke:#ececec;stroke-width:1.99696px;stroke-linecap:round;stroke-linejoin:round"
       id="path55" />
  </g>
</svg>
