<?xml version="1.0" encoding="UTF-8" standalone="no"?>
<svg
   height="256"
   width="256"
   version="1.1"
   id="svg68"
   sodipodi:docname="messaggero.svg"
   inkscape:version="1.1.2 (0a00cf5339, 2022-02-04, custom)"
   xmlns:inkscape="http://www.inkscape.org/namespaces/inkscape"
   xmlns:sodipodi="http://sodipodi.sourceforge.net/DTD/sodipodi-0.dtd"
   xmlns:xlink="http://www.w3.org/1999/xlink"
   xmlns="http://www.w3.org/2000/svg"
   xmlns:svg="http://www.w3.org/2000/svg">
  <defs
     id="defs49">
    <linearGradient
       id="a-3"
       gradientUnits="userSpaceOnUse"
       x1="198.099"
       y1="1683.0726"
       x2="942.23438"
       y2="394.26071"
       gradientTransform="matrix(1,0,0,-1,-2820.3962,1001.2261)">
      <stop
         offset="0"
         stop-color="#5a62c3"
         id="stop26" />
      <stop
         offset=".5"
         stop-color="#4d55bd"
         id="stop28" />
      <stop
         offset="1"
         stop-color="#3940ab"
         id="stop30" />
    </linearGradient>
  </defs>
  <sodipodi:namedview
     id="namedview47"
     pagecolor="#ffffff"
     bordercolor="#666666"
     borderopacity="1.0"
     inkscape:pageshadow="2"
     inkscape:pageopacity="0.0"
     inkscape:pagecheckerboard="0"
     showgrid="false"
     inkscape:zoom="1.09375"
     inkscape:cx="128"
     inkscape:cy="170.05714"
     inkscape:window-width="1308"
     inkscape:window-height="742"
     inkscape:window-x="0"
     inkscape:window-y="0"
     inkscape:window-maximized="1"
     inkscape:current-layer="svg68" />
  <linearGradient
     id="a"
     gradientUnits="userSpaceOnUse"
     x1="60.871356"
     x2="54.163356"
     xlink:href="#b"
     y1="155.451263"
     y2="164.193763" />
  <linearGradient
     id="b">
      <stop
         offset="0"
         stop-color="#5a62c3"
         id="stop26" />
      <stop
         offset=".5"
         stop-color="#4d55bd"
         id="stop28" />
      <stop
         offset="1"
         stop-color="#3940ab"
         id="stop30" />
  </linearGradient>
  <linearGradient
     id="c"
     gradientUnits="userSpaceOnUse"
     x1="176.901856"
     x2="185.054356"
     xlink:href="#b"
     y1="136.672763"
     y2="147.297263" />
  <linearGradient
     id="d"
     gradientUnits="userSpaceOnUse"
     x1="105.5862504276"
     x2="105.5862504276"
     y1="72.3740369898"
     y2="187.0133216082"
     gradientTransform="matrix(1,0,0,0.99999652,0,2.4843878e-4)">
    <stop
       offset="0"
       stop-color="#fdfdfb"
       id="stop9" />
    <stop
       offset="1"
       stop-color="#f0e9df"
       id="stop11" />
  </linearGradient>
  <linearGradient
     id="e"
     gradientUnits="userSpaceOnUse"
     x1="148.876856"
     x2="149.581856"
     y1="171.208266"
     y2="69.874766">
    <stop
       offset="0"
       stop-color="#f3e6d2"
       stop-opacity=".996078"
       id="stop14" />
    <stop
       offset="1"
       stop-color="#f7f4ee"
       id="stop16" />
  </linearGradient>
  <filter
     id="f"
     color-interpolation-filters="sRGB"
     height="1.0271138"
     width="1.02019"
     x="-0.010095"
     y="-0.013556908">
    <feGaussianBlur
       stdDeviation="1.346"
       id="feGaussianBlur19" />
  </filter>
  <linearGradient
     id="g"
     gradientTransform="matrix(0 1 -1 0 283.88051 -24.82283)"
     gradientUnits="userSpaceOnUse"
     x1="39.998"
     x2="263.998"
     y1="267.997"
     y2="43.997">
    <stop
       offset="0"
       id="stop22"
       style="stop-color:#e8e8e8;stop-opacity:1" />
    <stop
       offset="1"
       id="stop24"
       style="stop-color:#f5f5f5;stop-opacity:1" />
  </linearGradient>
  <linearGradient
     id="h"
     gradientUnits="userSpaceOnUse"
     x1="88"
     x2="488"
     y1="88"
     y2="488">
    <stop
       offset="0"
       stop-opacity=".588235"
       id="stop27" />
    <stop
       offset="1"
       stop-opacity=".205556"
       id="stop29" />
  </linearGradient>
  <filter
     id="i"
     color-interpolation-filters="sRGB"
     height="1.0908571"
     width="1.090809"
     x="-0.045404476"
     y="-0.045428569">
    <feGaussianBlur
       stdDeviation="8.48"
       id="feGaussianBlur32" />
  </filter>
  <filter
     id="j"
     color-interpolation-filters="sRGB"
     height="1.0227143"
     width="1.0227022"
     x="-0.011351119"
     y="-0.011357142">
    <feGaussianBlur
       stdDeviation="2.12"
       id="feGaussianBlur35" />
  </filter>
  <path
     d="m141.84323 74c-70.59344 0-78.18921 7.250835-77.84323 77.98706v146.01294 146.01294c-.34598 70.73623 7.24979 77.98706 77.84323 77.98706h292.31354c70.59344 0 79.78033-7.27652 77.84323-77.98706v-146.01294-146.01294c0-70.737067-7.24979-77.98706-77.84323-77.98706z"
     filter="url(#j)"
     opacity=".1"
     transform="matrix(.5 0 0 .5 -16.116488 -20.825537)"
     id="path38" />
  <path
     d="m141.84323 74c-70.59344 0-78.18921 7.250835-77.84323 77.98706v146.01294 146.01294c-.34598 70.73623 7.24979 77.98706 77.84323 77.98706h292.31354c70.59344 0 79.78033-7.27652 77.84323-77.98706v-146.01294-146.01294c0-70.737067-7.24979-77.98706-77.84323-77.98706z"
     fill="url(#h)"
     filter="url(#i)"
     opacity=".3"
     transform="matrix(.5 0 0 .5 -16.116488 -20.825235)"
     id="path40" />
  <path
     d="m53.695109 13.174466c-36.098811 0-39.983002 3.69016-39.80608 39.68984v74.310164 74.31016c-.176922 35.99969 3.707269 39.68984 39.80608 39.68984h148.387321c36.09881 0 40.77464-3.70276 39.80608-39.68984v-74.31016-74.310164c0-36.00011-3.70727-39.68984-39.80608-39.68984z"
     opacity=".1"
     id="path42" />
  <path
     d="m200.95648 15.174456c35.29673 0 39.09461 3.62542 38.92162 38.99353v73.006474 73.00648c.17299 35.36812-3.62489 38.99353-38.92162 38.99353h-146.156753c-35.29671 0-38.92161-3.625-38.92161-38.99353v-73.00648-73.006474c0-35.36853 3.6249-38.99353 38.92161-38.99353z"
     fill="url(#g)"
     id="path44" />
  <path
     d="m54.805389 15.174466c-35.296728 0-39.09487 3.62603-38.92188 38.99414v2c-.17299-35.36811 3.625152-38.99414 38.92188-38.99414h146.156241c35.29673 0 38.92188 3.62561 38.92188 38.99414v-2c0-35.36853-3.62515-38.99414-38.92188-38.99414z"
     fill="#fff"
     opacity=".3"
     id="path64" />
  <path
     d="m54.810789 239.17447c-35.296731 0-39.094875-3.62603-38.921885-38.99414v-2c-.17299 35.36811 3.625154 38.99414 38.921885 38.99414h146.156241c35.29673 0 38.92188-3.62561 38.92188-38.99414v2c0 35.36853-3.62515 38.99414-38.92188 38.99414z"
     opacity=".2"
     id="path66" />
  <g
     id="g1000"
     transform="matrix(0.07537577,0,0,0.07537577,256.58953,130.82209)">
    <path
       fill="#5059c9"
       d="m -1265.7592,-296.60724 h 575.71297 c 54.391,0 98.483,44.092 98.483,98.483 0,0 0,0 0,0 v 524.398 c 0,199.901 -162.051,361.952 -361.952,361.952 v 0 h -1.711 c -199.90097,0.028 -361.97497,-162 -362.00397,-361.901 0,-0.017 0,-0.034 0,-0.052 v -571.409 c 10e-4,-28.427 23.045,-51.471 51.471,-51.471 z"
       id="path2" />
    <circle
       fill="#5059c9"
       cx="-876.64624"
       cy="-633.52423"
       r="233.25"
       id="circle4" />
    <circle
       fill="#7b83eb"
       cx="-1602.3132"
       cy="-737.19025"
       r="336.91699"
       id="circle6" />
    <path
       fill="#7b83eb"
       d="m -1153.0732,-296.60724 h -950.313 c -53.743,1.33 -96.257,45.931 -95.01,99.676 v 598.105 c -7.505,322.519 247.657,590.16 570.167,598.053 322.51,-7.893 577.671,-275.534 570.167,-598.053 v -598.105 c 1.245,-53.745 -41.268,-98.346 -95.011,-99.676 z"
       id="path8" />
    <path
       opacity="0.1"
       d="m -1576.3962,-296.60724 v 838.145 c -0.258,38.435 -23.549,72.964 -59.09,87.598 -11.316,4.787 -23.478,7.254 -35.765,7.257 h -481.532 c -6.738,-17.105 -12.958,-34.21 -18.142,-51.833 -18.144,-59.477 -27.402,-121.307 -27.472,-183.49 v -598.157 c -1.246,-53.659 41.198,-98.19 94.855,-99.52 z"
       id="path10" />
    <path
       opacity="0.2"
       d="m -1628.2292,-296.60724 v 889.978 c 0,12.287 -2.47,24.449 -7.257,35.765 -14.634,35.541 -49.163,58.833 -87.598,59.09 h -405.337 c -8.812,-17.105 -17.105,-34.21 -24.362,-51.833 -7.257,-17.623 -12.958,-34.21 -18.142,-51.833 -18.144,-59.476 -27.402,-121.307 -27.472,-183.49 v -598.157 c -1.246,-53.659 41.198,-98.19 94.855,-99.52 z"
       id="path12" />
    <path
       opacity="0.2"
       d="m -1628.2292,-296.60724 v 786.312 c -0.395,52.223 -42.632,94.46 -94.855,94.855 h -447.84 c -18.144,-59.476 -27.402,-121.307 -27.472,-183.49 v -598.157 c -1.246,-53.659 41.198,-98.19 94.855,-99.52 z"
       id="path14" />
    <path
       opacity="0.2"
       d="m -1680.0632,-296.60724 v 786.312 c -0.395,52.223 -42.632,94.46 -94.855,94.855 h -396.006 c -18.144,-59.476 -27.402,-121.307 -27.472,-183.49 v -598.157 c -1.246,-53.659 41.198,-98.19 94.855,-99.52 z"
       id="path16" />
    <path
       opacity="0.1"
       d="m -1576.3962,-564.58524 v 163.275 c -8.812,0.518 -17.105,1.037 -25.917,1.037 -8.812,0 -17.105,-0.518 -25.917,-1.037 -17.496,-1.161 -34.848,-3.937 -51.833,-8.293 -104.963,-24.857 -191.679,-98.469 -233.25,-198.003 -7.153,-16.715 -12.706,-34.071 -16.587,-51.833 h 258.648 c 52.305,0.198 94.657,42.549 94.856,94.854 z"
       id="path18" />
    <path
       opacity="0.2"
       d="m -1628.2292,-512.75224 v 111.442 c -17.496,-1.161 -34.848,-3.937 -51.833,-8.293 -104.963,-24.857 -191.679,-98.469 -233.25,-198.003 h 190.228 c 52.304,0.198 94.656,42.55 94.855,94.854 z"
       id="path20" />
    <path
       opacity="0.2"
       d="m -1628.2292,-512.75224 v 111.442 c -17.496,-1.161 -34.848,-3.937 -51.833,-8.293 -104.963,-24.857 -191.679,-98.469 -233.25,-198.003 h 190.228 c 52.304,0.198 94.656,42.55 94.855,94.854 z"
       id="path22" />
    <path
       opacity="0.2"
       d="m -1680.0632,-512.75224 v 103.148 c -104.963,-24.857 -191.679,-98.469 -233.25,-198.003 h 138.395 c 52.305,0.199 94.656,42.551 94.855,94.855 z"
       id="path24-3" />
    <path
       fill="url(#a)"
       d="m -2725.3862,-607.60724 h 950.312 c 52.473,0 95.01,42.538 95.01,95.01 v 950.312 c 0,52.473 -42.538,95.01 -95.01,95.01 h -950.312 c -52.473,0 -95.01,-42.538 -95.01,-95.01 v -950.312 c 0,-52.472 42.538,-95.01 95.01,-95.01 z"
       id="path33"
       style="fill:url(#a-3)" />
    <path
       fill="#ffffff"
       d="m -2000.1852,-245.91424 h -189.97 v 517.297 h -121.03 v -517.297 h -189.088 v -100.349 h 500.088 z"
       id="path35" />
  </g>
</svg>
