<?xml version="1.0" encoding="UTF-8" standalone="no"?>
<svg
   height="16"
   width="16"
   version="1.1"
   id="svg4"
   sodipodi:docname="video-display.svg"
   inkscape:version="1.1.1 (3bf5ae0d25, 2021-09-20, custom)"
   xmlns:inkscape="http://www.inkscape.org/namespaces/inkscape"
   xmlns:sodipodi="http://sodipodi.sourceforge.net/DTD/sodipodi-0.dtd"
   xmlns="http://www.w3.org/2000/svg"
   xmlns:svg="http://www.w3.org/2000/svg">
<defs>
  <style id="current-color-scheme" type="text/css">.ColorScheme-Text { color:#727272; } .ColorScheme-Highlight { color:#5294e2; }</style>
 </defs>
  <path
     d="m 8,4.249875 a 3.75,3.75 0 1 0 0,7.5 3.75,3.75 0 0 0 0,-7.5 z m 0,0.75 v 6 a 3,3 0 0 1 0,-6 z m 0.375,-3 h -0.75 v 1.5 h 0.75 z m 3.60225,1.4925 -1.05975,1.0605 0.53025,0.53025 1.0605,-1.0605 z m -7.9545,0 -0.53025,0.53025 1.0605,1.05975 0.53025,-0.53025 z M 14,7.624875 h -1.5 v 0.75 H 14 Z m -10.5,0 H 2 v 0.75 h 1.5 z m 7.947,3.29175 -0.53025,0.53025 1.0605,1.0605 0.53025,-0.53025 z m -6.894,0 -1.0605,1.0605 0.53025,0.53025 1.0605,-1.0605 z m 3.822,1.5825 h -0.75 v 1.5 h 0.75 z"
     style="fill:currentColor" class="ColorScheme-Text"
     id="path2"/>
</svg>
