<?xml version="1.0" encoding="UTF-8" standalone="no"?>
<svg
   id="svg"
   width="100%"
   height="100%"
   version="1.1"
   viewBox="0 0 22 22"
   sodipodi:docname="user.svg"
   inkscape:version="1.1.1 (3bf5ae0d25, 2021-09-20, custom)"
   xmlns:inkscape="http://www.inkscape.org/namespaces/inkscape"
   xmlns:sodipodi="http://sodipodi.sourceforge.net/DTD/sodipodi-0.dtd"
   xmlns="http://www.w3.org/2000/svg"
   xmlns:svg="http://www.w3.org/2000/svg">
  <sodipodi:namedview
     id="namedview27"
     pagecolor="#505050"
     bordercolor="#ffffff"
     borderopacity="1"
     inkscape:pageshadow="0"
     inkscape:pageopacity="0"
     inkscape:pagecheckerboard="1"
     showgrid="false"
     inkscape:zoom="2.3349005"
     inkscape:cx="98.291125"
     inkscape:cy="31.050573"
     inkscape:window-width="1306"
     inkscape:window-height="709"
     inkscape:window-x="60"
     inkscape:window-y="28"
     inkscape:window-maximized="1"
     inkscape:current-layer="svg" />
  <defs
     id="defs81">
    <style
       id="current-color-scheme"
       type="text/css">
   .ColorScheme-Text { color:#dedede; } .ColorScheme-Highlight { color:#5294e2; } .ColorScheme-ButtonBackground { color:#dedede; }
  </style>
    <style
       id="current-color-scheme-3"
       type="text/css">
   .ColorScheme-Text { color: #f2f2f7; } .ColorScheme-Highlight { color: #1AD6AB; }
  </style>
    <linearGradient
       id="arrongin"
       x1="0%"
       x2="0%"
       y1="0%"
       y2="100%">
      <stop
         offset="0%"
         style="stop-color: #dd9b44; stop-opacity: 1"
         id="stop845" />
      <stop
         offset="100%"
         style="stop-color: #ad6c16; stop-opacity: 1"
         id="stop847" />
    </linearGradient>
    <linearGradient
       id="aurora"
       x1="0%"
       x2="0%"
       y1="0%"
       y2="100%">
      <stop
         offset="0%"
         style="stop-color: #09D4DF; stop-opacity: 1"
         id="stop850" />
      <stop
         offset="100%"
         style="stop-color: #9269F4; stop-opacity: 1"
         id="stop852" />
    </linearGradient>
    <linearGradient
       id="cyberneon"
       x1="0%"
       x2="0%"
       y1="0%"
       y2="100%">
      <stop
         offset="0"
         style="stop-color: #0abdc6; stop-opacity: 1"
         id="stop855" />
      <stop
         offset="1"
         style="stop-color: #ea00d9; stop-opacity: 1"
         id="stop857" />
    </linearGradient>
    <linearGradient
       id="fitdance"
       x1="0%"
       x2="0%"
       y1="0%"
       y2="100%">
      <stop
         offset="0%"
         style="stop-color: #1AD6AB; stop-opacity: 1"
         id="stop860" />
      <stop
         offset="100%"
         style="stop-color: #329DB6; stop-opacity: 1"
         id="stop862" />
    </linearGradient>
    <linearGradient
       id="oomox"
       x1="0%"
       x2="0%"
       y1="0%"
       y2="100%">
      <stop
         offset="0%"
         style="stop-color: #efefe7; stop-opacity: 1"
         id="stop865" />
      <stop
         offset="100%"
         style="stop-color: #8f8f8b; stop-opacity: 1"
         id="stop867" />
    </linearGradient>
    <linearGradient
       id="rainblue"
       x1="0%"
       x2="0%"
       y1="0%"
       y2="100%">
      <stop
         offset="0%"
         style="stop-color: #00F260; stop-opacity: 1"
         id="stop870" />
      <stop
         offset="100%"
         style="stop-color: #0575E6; stop-opacity: 1"
         id="stop872" />
    </linearGradient>
    <linearGradient
       id="sunrise"
       x1="0%"
       x2="0%"
       y1="0%"
       y2="100%">
      <stop
         offset="0%"
         style="stop-color: #FF8501; stop-opacity: 1"
         id="stop875" />
      <stop
         offset="100%"
         style="stop-color: #FFCB01; stop-opacity: 1"
         id="stop877" />
    </linearGradient>
    <linearGradient
       id="telinkrin"
       x1="0%"
       x2="0%"
       y1="0%"
       y2="100%">
      <stop
         offset="0%"
         style="stop-color: #b2ced6; stop-opacity: 1"
         id="stop880" />
      <stop
         offset="100%"
         style="stop-color: #6da5b7; stop-opacity: 1"
         id="stop882" />
    </linearGradient>
    <linearGradient
       id="60spsycho"
       x1="0%"
       x2="0%"
       y1="0%"
       y2="100%">
      <stop
         offset="0%"
         style="stop-color: #df5940; stop-opacity: 1"
         id="stop885" />
      <stop
         offset="25%"
         style="stop-color: #d8d15f; stop-opacity: 1"
         id="stop887" />
      <stop
         offset="50%"
         style="stop-color: #e9882a; stop-opacity: 1"
         id="stop889" />
      <stop
         offset="100%"
         style="stop-color: #279362; stop-opacity: 1"
         id="stop891" />
    </linearGradient>
    <linearGradient
       id="90ssummer"
       x1="0%"
       x2="0%"
       y1="0%"
       y2="100%">
      <stop
         offset="0%"
         style="stop-color: #f618c7; stop-opacity: 1"
         id="stop894" />
      <stop
         offset="20%"
         style="stop-color: #94ffab; stop-opacity: 1"
         id="stop896" />
      <stop
         offset="50%"
         style="stop-color: #fbfd54; stop-opacity: 1"
         id="stop898" />
      <stop
         offset="100%"
         style="stop-color: #0f83ae; stop-opacity: 1"
         id="stop900" />
    </linearGradient>
  </defs>
  <g
     id="user-online">
    <rect
       id="rect3956"
       class="ColorScheme-Text"
       width="22"
       height="22"
       x="0"
       y="0"
       style="fill:currentColor;fill-opacity:0;stroke:none" />
    <path
       fill="currentColor"
       class="ColorScheme-Text"
       d="m 11,3.5000578 c -0.529,0 -1.032,0.098 -1.494,0.295 -0.46,0.188 -0.868,0.463 -1.207,0.82 l -0.002,0.004 -0.002,0.002 c -0.33,0.359 -0.586,0.79 -0.766,1.28 -0.185,0.513 -0.277,1.055 -0.27,1.6 0,0.58 0.087,1.122 0.27,1.612 0.18,0.482 0.436,0.9080002 0.766,1.2660002 l 0.002,0.002 0.002,0.002 c 0.338,0.356 0.743,0.636 1.201,0.832 l 0.004,0.002 0.004,0.002 c 0.462,0.188 0.964,0.281 1.492,0.281 0.528,0 1.028,-0.093 1.49,-0.281 v -0.002 c 0.451,-0.191 0.857,-0.475 1.19,-0.834 0.34,-0.358 0.6,-0.7860002 0.78,-1.2700002 0.185,-0.49 0.272,-1.031 0.272,-1.613 h 0.008 c 0,-0.573 -0.087,-1.109 -0.27,-1.598 -0.169,-0.476 -0.435,-0.913 -0.78,-1.283 -0.333,-0.359 -0.742,-0.641 -1.196,-0.824 -0.473,-0.199 -0.981,-0.299 -1.494,-0.295 z m 0,1 c 0.406,0 0.77,0.073 1.102,0.215 l 0.01,0.004 0.01,0.002 c 0.33,0.135 0.607,0.326 0.837,0.576 v 0.01 c 0.24,0.253 0.431,0.564 0.569,0.94 v 0.005 c 0.13,0.351 0.194,0.753 0.199,1.202 v 0.046 c 0,0.482 -0.072,0.9 -0.207,1.262 v 0.002 c -0.125,0.346 -0.319,0.663 -0.57,0.931 l -0.01,0.004 v 0.004 c -0.234,0.253 -0.514,0.4500002 -0.848,0.5940002 -0.347,0.138 -0.718,0.207 -1.092,0.203 -0.41,0 -0.777,-0.072 -1.11,-0.207 H 9.887 c -0.325,-0.14 -0.6,-0.3370002 -0.838,-0.5820002 l -0.051,-0.07 -0.008,-0.006 c -0.226,-0.256 -0.404,-0.551 -0.524,-0.871 -0.144,-0.405 -0.214,-0.834 -0.207,-1.264 0,-0.471 0.071,-0.886 0.207,-1.25 l 0.002,-0.002 v -0.004 c 0.138,-0.376 0.325,-0.684 0.555,-0.936 l 0.012,-0.01 c 0.24,-0.25 0.52,-0.443 0.85,-0.578 l 0.006,-0.004 0.008,-0.002 c 0.33,-0.14 0.695,-0.214 1.101,-0.214 z m 7,14.0000002 h -1 c 0,-0.865 -0.07,-1.3 -0.235,-1.833 -0.165,-0.533 -0.41,-0.904 -0.814,-1.21 -0.81,-0.61 -2.11,-0.933 -4.922,-0.933 -2.813,0 -4.165,0.322 -4.975,0.933 -0.405,0.305 -0.65,0.676 -0.816,1.21 -0.166,0.534 -0.236,0.968 -0.238,1.833 l -1,-0.002 c 0.002,-0.914 0.069,-1.44 0.283,-2.128 0.214,-0.688 0.594,-1.277 1.169,-1.711 1.15,-0.867 2.695,-1.134 5.577,-1.134 2.881,0 4.376,0.267 5.525,1.135 0.574,0.434 0.953,1.024 1.166,1.712 0.214,0.688 0.28,1.213 0.28,2.128 z"
       id="path905" />
  </g>
  <g
     id="user-away"
     transform="translate(120)">
    <rect
       id="rect3956-70"
       class="ColorScheme-Text"
       width="22"
       height="22"
       x="0"
       y="0"
       style="fill:currentColor;fill-opacity:0;stroke:none" />
    <path
       fill="currentColor"
       class="ColorScheme-Text"
       d="m 11,3.5000578 c -0.529,0 -1.032,0.098 -1.494,0.295 -0.46,0.188 -0.868,0.463 -1.207,0.82 l -0.002,0.004 -0.002,0.002 c -0.33,0.359 -0.586,0.79 -0.766,1.28 -0.185,0.513 -0.277,1.055 -0.27,1.6 0,0.58 0.087,1.122 0.27,1.612 0.18,0.482 0.436,0.9080002 0.766,1.2660002 l 0.002,0.002 0.002,0.002 c 0.338,0.356 0.743,0.636 1.201,0.832 l 0.004,0.002 0.004,0.002 c 0.462,0.188 0.964,0.281 1.492,0.281 0.528,0 1.028,-0.093 1.49,-0.281 v -0.002 c 0.451,-0.191 0.857,-0.475 1.19,-0.834 0.34,-0.358 0.6,-0.7860002 0.78,-1.2700002 0.185,-0.49 0.272,-1.031 0.272,-1.613 h 0.008 c 0,-0.573 -0.087,-1.109 -0.27,-1.598 -0.169,-0.476 -0.435,-0.913 -0.78,-1.283 -0.333,-0.359 -0.742,-0.641 -1.196,-0.824 -0.473,-0.199 -0.981,-0.299 -1.494,-0.295 z m 0,1 c 0.406,0 0.77,0.073 1.102,0.215 l 0.01,0.004 0.01,0.002 c 0.33,0.135 0.607,0.326 0.837,0.576 v 0.01 c 0.24,0.253 0.431,0.564 0.569,0.94 v 0.005 c 0.13,0.351 0.194,0.753 0.199,1.202 v 0.046 c 0,0.482 -0.072,0.9 -0.207,1.262 v 0.002 c -0.125,0.346 -0.319,0.663 -0.57,0.931 l -0.01,0.004 v 0.004 c -0.234,0.253 -0.514,0.4500002 -0.848,0.5940002 -0.347,0.138 -0.718,0.207 -1.092,0.203 -0.41,0 -0.777,-0.072 -1.11,-0.207 H 9.887 c -0.325,-0.14 -0.6,-0.3370002 -0.838,-0.5820002 l -0.051,-0.07 -0.008,-0.006 c -0.226,-0.256 -0.404,-0.551 -0.524,-0.871 -0.144,-0.405 -0.214,-0.834 -0.207,-1.264 0,-0.471 0.071,-0.886 0.207,-1.25 l 0.002,-0.002 v -0.004 c 0.138,-0.376 0.325,-0.684 0.555,-0.936 l 0.012,-0.01 c 0.24,-0.25 0.52,-0.443 0.85,-0.578 l 0.006,-0.004 0.008,-0.002 c 0.33,-0.14 0.695,-0.214 1.101,-0.214 z m 7,14.0000002 h -1 c 0,-0.865 -0.07,-1.3 -0.235,-1.833 -0.165,-0.533 -0.41,-0.904 -0.814,-1.21 -0.81,-0.61 -2.11,-0.933 -4.922,-0.933 -2.813,0 -4.165,0.322 -4.975,0.933 -0.405,0.305 -0.65,0.676 -0.816,1.21 -0.166,0.534 -0.236,0.968 -0.238,1.833 l -1,-0.002 c 0.002,-0.914 0.069,-1.44 0.283,-2.128 0.214,-0.688 0.594,-1.277 1.169,-1.711 1.15,-0.867 2.695,-1.134 5.577,-1.134 2.881,0 4.376,0.267 5.525,1.135 0.574,0.434 0.953,1.024 1.166,1.712 0.214,0.688 0.28,1.213 0.28,2.128 z"
       id="path905-9"
       style="fill:#ebb557;fill-opacity:1" />
  </g>
  <g
     id="user-away-extended"
     transform="translate(160)">
    <rect
       id="rect3956-70-2"
       class="ColorScheme-Text"
       width="22"
       height="22"
       x="0"
       y="0"
       style="fill:currentColor;fill-opacity:0;stroke:none" />
    <path
       fill="currentColor"
       class="ColorScheme-Text"
       d="m 11,3.5000578 c -0.529,0 -1.032,0.098 -1.494,0.295 -0.46,0.188 -0.868,0.463 -1.207,0.82 l -0.002,0.004 -0.002,0.002 c -0.33,0.359 -0.586,0.79 -0.766,1.28 -0.185,0.513 -0.277,1.055 -0.27,1.6 0,0.58 0.087,1.122 0.27,1.612 0.18,0.482 0.436,0.9080002 0.766,1.2660002 l 0.002,0.002 0.002,0.002 c 0.338,0.356 0.743,0.636 1.201,0.832 l 0.004,0.002 0.004,0.002 c 0.462,0.188 0.964,0.281 1.492,0.281 0.528,0 1.028,-0.093 1.49,-0.281 v -0.002 c 0.451,-0.191 0.857,-0.475 1.19,-0.834 0.34,-0.358 0.6,-0.7860002 0.78,-1.2700002 0.185,-0.49 0.272,-1.031 0.272,-1.613 h 0.008 c 0,-0.573 -0.087,-1.109 -0.27,-1.598 -0.169,-0.476 -0.435,-0.913 -0.78,-1.283 -0.333,-0.359 -0.742,-0.641 -1.196,-0.824 -0.473,-0.199 -0.981,-0.299 -1.494,-0.295 z m 0,1 c 0.406,0 0.77,0.073 1.102,0.215 l 0.01,0.004 0.01,0.002 c 0.33,0.135 0.607,0.326 0.837,0.576 v 0.01 c 0.24,0.253 0.431,0.564 0.569,0.94 v 0.005 c 0.13,0.351 0.194,0.753 0.199,1.202 v 0.046 c 0,0.482 -0.072,0.9 -0.207,1.262 v 0.002 c -0.125,0.346 -0.319,0.663 -0.57,0.931 l -0.01,0.004 v 0.004 c -0.234,0.253 -0.514,0.4500002 -0.848,0.5940002 -0.347,0.138 -0.718,0.207 -1.092,0.203 -0.41,0 -0.777,-0.072 -1.11,-0.207 H 9.887 c -0.325,-0.14 -0.6,-0.3370002 -0.838,-0.5820002 l -0.051,-0.07 -0.008,-0.006 c -0.226,-0.256 -0.404,-0.551 -0.524,-0.871 -0.144,-0.405 -0.214,-0.834 -0.207,-1.264 0,-0.471 0.071,-0.886 0.207,-1.25 l 0.002,-0.002 v -0.004 c 0.138,-0.376 0.325,-0.684 0.555,-0.936 l 0.012,-0.01 c 0.24,-0.25 0.52,-0.443 0.85,-0.578 l 0.006,-0.004 0.008,-0.002 c 0.33,-0.14 0.695,-0.214 1.101,-0.214 z m 7,14.0000002 h -1 c 0,-0.865 -0.07,-1.3 -0.235,-1.833 -0.165,-0.533 -0.41,-0.904 -0.814,-1.21 -0.81,-0.61 -2.11,-0.933 -4.922,-0.933 -2.813,0 -4.165,0.322 -4.975,0.933 -0.405,0.305 -0.65,0.676 -0.816,1.21 -0.166,0.534 -0.236,0.968 -0.238,1.833 l -1,-0.002 c 0.002,-0.914 0.069,-1.44 0.283,-2.128 0.214,-0.688 0.594,-1.277 1.169,-1.711 1.15,-0.867 2.695,-1.134 5.577,-1.134 2.881,0 4.376,0.267 5.525,1.135 0.574,0.434 0.953,1.024 1.166,1.712 0.214,0.688 0.28,1.213 0.28,2.128 z"
       id="path905-9-6"
       style="fill:#ebb557;fill-opacity:1" />
  </g>
  <g
     id="user-busy"
     transform="translate(200)">
    <rect
       id="rect3956-70-6"
       class="ColorScheme-Text"
       width="22"
       height="22"
       x="0"
       y="0"
       style="fill:currentColor;fill-opacity:0;stroke:none" />
    <path
       fill="currentColor"
       class="ColorScheme-Text"
       d="m 11,3.5000578 c -0.529,0 -1.032,0.098 -1.494,0.295 -0.46,0.188 -0.868,0.463 -1.207,0.82 l -0.002,0.004 -0.002,0.002 c -0.33,0.359 -0.586,0.79 -0.766,1.28 -0.185,0.513 -0.277,1.055 -0.27,1.6 0,0.58 0.087,1.122 0.27,1.612 0.18,0.482 0.436,0.9080002 0.766,1.2660002 l 0.002,0.002 0.002,0.002 c 0.338,0.356 0.743,0.636 1.201,0.832 l 0.004,0.002 0.004,0.002 c 0.462,0.188 0.964,0.281 1.492,0.281 0.528,0 1.028,-0.093 1.49,-0.281 v -0.002 c 0.451,-0.191 0.857,-0.475 1.19,-0.834 0.34,-0.358 0.6,-0.7860002 0.78,-1.2700002 0.185,-0.49 0.272,-1.031 0.272,-1.613 h 0.008 c 0,-0.573 -0.087,-1.109 -0.27,-1.598 -0.169,-0.476 -0.435,-0.913 -0.78,-1.283 -0.333,-0.359 -0.742,-0.641 -1.196,-0.824 -0.473,-0.199 -0.981,-0.299 -1.494,-0.295 z m 0,1 c 0.406,0 0.77,0.073 1.102,0.215 l 0.01,0.004 0.01,0.002 c 0.33,0.135 0.607,0.326 0.837,0.576 v 0.01 c 0.24,0.253 0.431,0.564 0.569,0.94 v 0.005 c 0.13,0.351 0.194,0.753 0.199,1.202 v 0.046 c 0,0.482 -0.072,0.9 -0.207,1.262 v 0.002 c -0.125,0.346 -0.319,0.663 -0.57,0.931 l -0.01,0.004 v 0.004 c -0.234,0.253 -0.514,0.4500002 -0.848,0.5940002 -0.347,0.138 -0.718,0.207 -1.092,0.203 -0.41,0 -0.777,-0.072 -1.11,-0.207 H 9.887 c -0.325,-0.14 -0.6,-0.3370002 -0.838,-0.5820002 l -0.051,-0.07 -0.008,-0.006 c -0.226,-0.256 -0.404,-0.551 -0.524,-0.871 -0.144,-0.405 -0.214,-0.834 -0.207,-1.264 0,-0.471 0.071,-0.886 0.207,-1.25 l 0.002,-0.002 v -0.004 c 0.138,-0.376 0.325,-0.684 0.555,-0.936 l 0.012,-0.01 c 0.24,-0.25 0.52,-0.443 0.85,-0.578 l 0.006,-0.004 0.008,-0.002 c 0.33,-0.14 0.695,-0.214 1.101,-0.214 z m 7,14.0000002 h -1 c 0,-0.865 -0.07,-1.3 -0.235,-1.833 -0.165,-0.533 -0.41,-0.904 -0.814,-1.21 -0.81,-0.61 -2.11,-0.933 -4.922,-0.933 -2.813,0 -4.165,0.322 -4.975,0.933 -0.405,0.305 -0.65,0.676 -0.816,1.21 -0.166,0.534 -0.236,0.968 -0.238,1.833 l -1,-0.002 c 0.002,-0.914 0.069,-1.44 0.283,-2.128 0.214,-0.688 0.594,-1.277 1.169,-1.711 1.15,-0.867 2.695,-1.134 5.577,-1.134 2.881,0 4.376,0.267 5.525,1.135 0.574,0.434 0.953,1.024 1.166,1.712 0.214,0.688 0.28,1.213 0.28,2.128 z"
       id="path905-9-0"
       style="fill:#f2f2f7;fill-opacity:1" />
  </g>
  <g
     id="user-identity"
     transform="translate(235)">
    <rect
       id="rect3956-9"
       class="ColorScheme-Text"
       width="22"
       height="22"
       x="0"
       y="0"
       style="fill:currentColor;fill-opacity:0;stroke:none" />
    <path
       fill="currentColor"
       class="ColorScheme-Text"
       d="m 11,3.5000578 c -0.529,0 -1.032,0.098 -1.494,0.295 -0.46,0.188 -0.868,0.463 -1.207,0.82 l -0.002,0.004 -0.002,0.002 c -0.33,0.359 -0.586,0.79 -0.766,1.28 -0.185,0.513 -0.277,1.055 -0.27,1.6 0,0.58 0.087,1.122 0.27,1.612 0.18,0.482 0.436,0.9080002 0.766,1.2660002 l 0.002,0.002 0.002,0.002 c 0.338,0.356 0.743,0.636 1.201,0.832 l 0.004,0.002 0.004,0.002 c 0.462,0.188 0.964,0.281 1.492,0.281 0.528,0 1.028,-0.093 1.49,-0.281 v -0.002 c 0.451,-0.191 0.857,-0.475 1.19,-0.834 0.34,-0.358 0.6,-0.7860002 0.78,-1.2700002 0.185,-0.49 0.272,-1.031 0.272,-1.613 h 0.008 c 0,-0.573 -0.087,-1.109 -0.27,-1.598 -0.169,-0.476 -0.435,-0.913 -0.78,-1.283 -0.333,-0.359 -0.742,-0.641 -1.196,-0.824 -0.473,-0.199 -0.981,-0.299 -1.494,-0.295 z m 0,1 c 0.406,0 0.77,0.073 1.102,0.215 l 0.01,0.004 0.01,0.002 c 0.33,0.135 0.607,0.326 0.837,0.576 v 0.01 c 0.24,0.253 0.431,0.564 0.569,0.94 v 0.005 c 0.13,0.351 0.194,0.753 0.199,1.202 v 0.046 c 0,0.482 -0.072,0.9 -0.207,1.262 v 0.002 c -0.125,0.346 -0.319,0.663 -0.57,0.931 l -0.01,0.004 v 0.004 c -0.234,0.253 -0.514,0.4500002 -0.848,0.5940002 -0.347,0.138 -0.718,0.207 -1.092,0.203 -0.41,0 -0.777,-0.072 -1.11,-0.207 H 9.887 c -0.325,-0.14 -0.6,-0.3370002 -0.838,-0.5820002 l -0.051,-0.07 -0.008,-0.006 c -0.226,-0.256 -0.404,-0.551 -0.524,-0.871 -0.144,-0.405 -0.214,-0.834 -0.207,-1.264 0,-0.471 0.071,-0.886 0.207,-1.25 l 0.002,-0.002 v -0.004 c 0.138,-0.376 0.325,-0.684 0.555,-0.936 l 0.012,-0.01 c 0.24,-0.25 0.52,-0.443 0.85,-0.578 l 0.006,-0.004 0.008,-0.002 c 0.33,-0.14 0.695,-0.214 1.101,-0.214 z m 7,14.0000002 h -1 c 0,-0.865 -0.07,-1.3 -0.235,-1.833 -0.165,-0.533 -0.41,-0.904 -0.814,-1.21 -0.81,-0.61 -2.11,-0.933 -4.922,-0.933 -2.813,0 -4.165,0.322 -4.975,0.933 -0.405,0.305 -0.65,0.676 -0.816,1.21 -0.166,0.534 -0.236,0.968 -0.238,1.833 l -1,-0.002 c 0.002,-0.914 0.069,-1.44 0.283,-2.128 0.214,-0.688 0.594,-1.277 1.169,-1.711 1.15,-0.867 2.695,-1.134 5.577,-1.134 2.881,0 4.376,0.267 5.525,1.135 0.574,0.434 0.953,1.024 1.166,1.712 0.214,0.688 0.28,1.213 0.28,2.128 z"
       id="path905-1" />
  </g>
  <g
     id="user-offline"
     transform="translate(80)">
    <rect
       id="rect3956-5"
       class="ColorScheme-Text"
       width="22"
       height="22"
       x="0"
       y="0"
       style="fill:currentColor;fill-opacity:0;stroke:none" />
    <path
       fill="currentColor"
       class="ColorScheme-Text"
       d="m 11,3.5000578 c -0.529,0 -1.032,0.098 -1.494,0.295 -0.46,0.188 -0.868,0.463 -1.207,0.82 l -0.002,0.004 -0.002,0.002 c -0.33,0.359 -0.586,0.79 -0.766,1.28 -0.185,0.513 -0.277,1.055 -0.27,1.6 0,0.58 0.087,1.122 0.27,1.612 0.18,0.482 0.436,0.9080002 0.766,1.2660002 l 0.002,0.002 0.002,0.002 c 0.338,0.356 0.743,0.636 1.201,0.832 l 0.004,0.002 0.004,0.002 c 0.462,0.188 0.964,0.281 1.492,0.281 0.528,0 1.028,-0.093 1.49,-0.281 v -0.002 c 0.451,-0.191 0.857,-0.475 1.19,-0.834 0.34,-0.358 0.6,-0.7860002 0.78,-1.2700002 0.185,-0.49 0.272,-1.031 0.272,-1.613 h 0.008 c 0,-0.573 -0.087,-1.109 -0.27,-1.598 -0.169,-0.476 -0.435,-0.913 -0.78,-1.283 -0.333,-0.359 -0.742,-0.641 -1.196,-0.824 -0.473,-0.199 -0.981,-0.299 -1.494,-0.295 z m 0,1 c 0.406,0 0.77,0.073 1.102,0.215 l 0.01,0.004 0.01,0.002 c 0.33,0.135 0.607,0.326 0.837,0.576 v 0.01 c 0.24,0.253 0.431,0.564 0.569,0.94 v 0.005 c 0.13,0.351 0.194,0.753 0.199,1.202 v 0.046 c 0,0.482 -0.072,0.9 -0.207,1.262 v 0.002 c -0.125,0.346 -0.319,0.663 -0.57,0.931 l -0.01,0.004 v 0.004 c -0.234,0.253 -0.514,0.4500002 -0.848,0.5940002 -0.347,0.138 -0.718,0.207 -1.092,0.203 -0.41,0 -0.777,-0.072 -1.11,-0.207 H 9.887 c -0.325,-0.14 -0.6,-0.3370002 -0.838,-0.5820002 l -0.051,-0.07 -0.008,-0.006 c -0.226,-0.256 -0.404,-0.551 -0.524,-0.871 -0.144,-0.405 -0.214,-0.834 -0.207,-1.264 0,-0.471 0.071,-0.886 0.207,-1.25 l 0.002,-0.002 v -0.004 c 0.138,-0.376 0.325,-0.684 0.555,-0.936 l 0.012,-0.01 c 0.24,-0.25 0.52,-0.443 0.85,-0.578 l 0.006,-0.004 0.008,-0.002 c 0.33,-0.14 0.695,-0.214 1.101,-0.214 z m 7,14.0000002 h -1 c 0,-0.865 -0.07,-1.3 -0.235,-1.833 -0.165,-0.533 -0.41,-0.904 -0.814,-1.21 -0.81,-0.61 -2.11,-0.933 -4.922,-0.933 -2.813,0 -4.165,0.322 -4.975,0.933 -0.405,0.305 -0.65,0.676 -0.816,1.21 -0.166,0.534 -0.236,0.968 -0.238,1.833 l -1,-0.002 c 0.002,-0.914 0.069,-1.44 0.283,-2.128 0.214,-0.688 0.594,-1.277 1.169,-1.711 1.15,-0.867 2.695,-1.134 5.577,-1.134 2.881,0 4.376,0.267 5.525,1.135 0.574,0.434 0.953,1.024 1.166,1.712 0.214,0.688 0.28,1.213 0.28,2.128 z"
       id="path905-6"
       style="fill:#1ad6ab;fill-opacity:1" />
  </g>
  <g
     id="user-invisible"
     transform="translate(40)">
    <rect
       id="rect3956-7"
       class="ColorScheme-Text"
       width="22"
       height="22"
       x="0"
       y="0"
       style="fill:currentColor;fill-opacity:0;stroke:none" />
    <path
       fill="currentColor"
       class="ColorScheme-Text"
       d="m 11,3.5000578 c -0.529,0 -1.032,0.098 -1.494,0.295 -0.46,0.188 -0.868,0.463 -1.207,0.82 l -0.002,0.004 -0.002,0.002 c -0.33,0.359 -0.586,0.79 -0.766,1.28 -0.185,0.513 -0.277,1.055 -0.27,1.6 0,0.58 0.087,1.122 0.27,1.612 0.18,0.482 0.436,0.9080002 0.766,1.2660002 l 0.002,0.002 0.002,0.002 c 0.338,0.356 0.743,0.636 1.201,0.832 l 0.004,0.002 0.004,0.002 c 0.462,0.188 0.964,0.281 1.492,0.281 0.528,0 1.028,-0.093 1.49,-0.281 v -0.002 c 0.451,-0.191 0.857,-0.475 1.19,-0.834 0.34,-0.358 0.6,-0.7860002 0.78,-1.2700002 0.185,-0.49 0.272,-1.031 0.272,-1.613 h 0.008 c 0,-0.573 -0.087,-1.109 -0.27,-1.598 -0.169,-0.476 -0.435,-0.913 -0.78,-1.283 -0.333,-0.359 -0.742,-0.641 -1.196,-0.824 -0.473,-0.199 -0.981,-0.299 -1.494,-0.295 z m 0,1 c 0.406,0 0.77,0.073 1.102,0.215 l 0.01,0.004 0.01,0.002 c 0.33,0.135 0.607,0.326 0.837,0.576 v 0.01 c 0.24,0.253 0.431,0.564 0.569,0.94 v 0.005 c 0.13,0.351 0.194,0.753 0.199,1.202 v 0.046 c 0,0.482 -0.072,0.9 -0.207,1.262 v 0.002 c -0.125,0.346 -0.319,0.663 -0.57,0.931 l -0.01,0.004 v 0.004 c -0.234,0.253 -0.514,0.4500002 -0.848,0.5940002 -0.347,0.138 -0.718,0.207 -1.092,0.203 -0.41,0 -0.777,-0.072 -1.11,-0.207 H 9.887 c -0.325,-0.14 -0.6,-0.3370002 -0.838,-0.5820002 l -0.051,-0.07 -0.008,-0.006 c -0.226,-0.256 -0.404,-0.551 -0.524,-0.871 -0.144,-0.405 -0.214,-0.834 -0.207,-1.264 0,-0.471 0.071,-0.886 0.207,-1.25 l 0.002,-0.002 v -0.004 c 0.138,-0.376 0.325,-0.684 0.555,-0.936 l 0.012,-0.01 c 0.24,-0.25 0.52,-0.443 0.85,-0.578 l 0.006,-0.004 0.008,-0.002 c 0.33,-0.14 0.695,-0.214 1.101,-0.214 z m 7,14.0000002 h -1 c 0,-0.865 -0.07,-1.3 -0.235,-1.833 -0.165,-0.533 -0.41,-0.904 -0.814,-1.21 -0.81,-0.61 -2.11,-0.933 -4.922,-0.933 -2.813,0 -4.165,0.322 -4.975,0.933 -0.405,0.305 -0.65,0.676 -0.816,1.21 -0.166,0.534 -0.236,0.968 -0.238,1.833 l -1,-0.002 c 0.002,-0.914 0.069,-1.44 0.283,-2.128 0.214,-0.688 0.594,-1.277 1.169,-1.711 1.15,-0.867 2.695,-1.134 5.577,-1.134 2.881,0 4.376,0.267 5.525,1.135 0.574,0.434 0.953,1.024 1.166,1.712 0.214,0.688 0.28,1.213 0.28,2.128 z"
       id="path905-5"
       style="fill:#f2f2f7;fill-opacity:0.30000001" />
  </g>
</svg>
