<svg width="32" height="32" version="1" xmlns="http://www.w3.org/2000/svg" xmlns:xlink="http://www.w3.org/1999/xlink">
 <defs>
  <linearGradient id="linearGradient8590-3" x1="96" x2="96" y1="4" y2="188" gradientTransform="matrix(.15217 0 0 .15217 1.3913 1.3913)" gradientUnits="userSpaceOnUse">
   <stop stop-color="#fff" offset="0"/>
   <stop stop-color="#fff" stop-opacity=".098039" offset=".125"/>
   <stop stop-color="#fff" stop-opacity=".098039" offset=".925"/>
   <stop stop-color="#fff" stop-opacity=".49804" offset="1"/>
  </linearGradient>
 </defs>
 <circle transform="scale(-1)" cx="-16" cy="-17" r="15" enable-background="new" opacity=".1"/>
 <circle cx="16" cy="16" r="14.5" enable-background="new" fill="#c8c4b7"/>
 <path d="m16 1.5a14.5 14.5 0 0 0-14.5 14.5 14.5 14.5 0 0 0 14.5 14.5z" enable-background="new" fill="#fff" opacity=".25"/>
 <circle transform="matrix(0,-1,-1,0,0,0)" cx="-17" cy="-16" r="11" color="#000000" opacity=".1"/>
 <circle transform="matrix(0,-1,-1,0,0,0)" cx="-16" cy="-16" r="11" color="#000000" fill="#f7f7f7"/>
 <circle transform="matrix(0,-1,-1,0,0,0)" cx="-16" cy="-16" r="9" color="#000000" fill="#aea795"/>
 <circle transform="matrix(0,-1,-1,0,0,0)" cx="-16" cy="-16" r="8" color="#000000" fill="#f7f7f7"/>
 <circle transform="matrix(0,-1,-1,0,0,0)" cx="-16" cy="-15.862" r="7" color="#000000" opacity=".1"/>
 <path d="m15 11h2v5.5l-1 1 1 1v2.5h-2v-5.5l1-1-1-1z" enable-background="new" fill="#3b3b3b"/>
 <circle transform="matrix(0,-1,-1,0,0,0)" cx="-16" cy="-15.862" r="4" color="#000000" opacity=".1"/>
 <circle cx="16" cy="16" r="14.5" enable-background="new" fill="none" opacity=".4" stroke="#000" stroke-dashoffset="6.6" stroke-linejoin="round"/>
 <path d="m16 2c-7.732 0-14 6.268-14 14s6.268 14 14 14c7.732 0 14-6.268 14-14s-6.268-14-14-14zm0 1a13 13 0 0 1 13 13 13 13 0 0 1-13 13 13 13 0 0 1-13-13 13 13 0 0 1 13-13z" enable-background="new" fill="url(#linearGradient8590-3)"/>
</svg>
