<svg width="32" height="32" version="1" xmlns="http://www.w3.org/2000/svg" xmlns:xlink="http://www.w3.org/1999/xlink">
 <defs>
  <linearGradient id="linearGradient2806-9-4" x1="83" x2="119" y1="162" y2="162" gradientTransform="matrix(.083333 0 0 .083333 9.0832 -6.5)" gradientUnits="userSpaceOnUse">
   <stop offset="0"/>
   <stop stop-opacity="0" offset="1"/>
  </linearGradient>
  <linearGradient id="linearGradient1688-4" x1="322" x2="350" y1="148" y2="148" gradientTransform="rotate(90 242 -78)" gradientUnits="userSpaceOnUse">
   <stop stop-color="#fff" offset="0"/>
   <stop stop-color="#fff" stop-opacity=".098039" offset=".125"/>
   <stop stop-color="#fff" stop-opacity=".098039" offset=".925"/>
   <stop stop-color="#fff" stop-opacity=".49804" offset="1"/>
  </linearGradient>
 </defs>
 <path d="m9.3008 2c-1.6395 0-2.9408 0.0308-4.045 0.19141-1.1042 0.16064-2.067 0.4726-2.7831 1.0918s-1.0805 1.4561-1.2642 2.4141c-0.18374 0.95795-0.21537 2.087-0.20733 3.5117v7.791 7.7969c-9e-3 1.4213 0.0239 2.5495 0.20733 3.5058 0.18371 0.95796 0.5481 1.7949 1.2642 2.4141s1.6789 0.93115 2.7831 1.0918c1.1042 0.16065 2.4056 0.19141 4.045 0.19141h13.402c1.6395 0 2.9384-0.0307 4.0405-0.19141 1.1022-0.16075 2.0627-0.47425 2.7763-1.0938 0.71357-0.6195 1.0746-1.4536 1.2597-2.4102 0.18515-0.95653 0.22086-2.084 0.22086-3.5078v-7.7969-7.7969c0-1.4238-0.0358-2.5513-0.22086-3.5078-0.18512-0.95653-0.54612-1.7906-1.2597-2.4102-0.71359-0.61951-1.6741-0.933-2.7763-1.0938-1.1022-0.16076-2.401-0.19141-4.0405-0.19141z" color="#000000" color-rendering="auto" dominant-baseline="auto" image-rendering="auto" opacity=".1" shape-rendering="auto" solid-color="#000000" style="font-feature-settings:normal;font-variant-alternates:normal;font-variant-caps:normal;font-variant-ligatures:normal;font-variant-numeric:normal;font-variant-position:normal;isolation:auto;mix-blend-mode:normal;shape-padding:0;text-decoration-color:#000000;text-decoration-line:none;text-decoration-style:solid;text-indent:0;text-orientation:mixed;text-transform:none;white-space:normal"/>
 <path d="m16 1.5v29h6.873c6.4516 0 7.661-0.58502 7.627-6.2832v-8.2168-8.2168c0.0339-5.6982-1.1753-6.2832-7.627-6.2832z" color="#000000" fill="#3584e4" fill-opacity=".99216" opacity=".98848"/>
 <path d="m16 1.5v29h-6.873c-6.45 0-7.627-0.58496-7.627-6.2832v-16.434c0-5.6982 1.1769-6.2832 7.627-6.2832z" enable-background="new" fill="#f6f5f4" fill-opacity=".99216"/>
 <rect x="16" y="2" width="3" height="29" enable-background="new" fill="url(#linearGradient2806-9-4)" opacity=".05" stroke-linecap="round" stroke-linejoin="round" stroke-width=".083333"/>
 <path d="m16 16v14.5h6.873c6.4516 0 7.661-0.58502 7.627-6.2832v-8.2168z" enable-background="new" fill="#fff" fill-opacity=".99216" opacity=".1"/>
 <path d="m8.4999 18c-0.39501 0-0.79001 0.12178-1.0336 0.36541-0.48726 0.48726-0.30817 1.4509 0 2.0673l0.86204 1.7221-0.17361 0.17361-1.7221-0.86203c-0.61634-0.30817-1.58-0.48727-2.0673 0-0.48725 0.48726-0.48725 1.58 0 2.0673 0.48726 0.48726 1.4509 0.30817 2.0673 0l1.7221-0.86204 0.17361 0.17361-0.86204 1.7221c-0.30817 0.61634-0.48726 1.58 0 2.0673 0.48726 0.48725 1.58 0.48725 2.0673 0 0.48726-0.48727 0.30817-1.4509 0-2.0673l-0.86204-1.7221 0.17361-0.17361 1.7221 0.86204c0.61635 0.30817 1.58 0.48726 2.0673 0 0.48725-0.48727 0.48725-1.58 0-2.0673-0.48727-0.48727-1.4509-0.30817-2.0673 0l-1.7221 0.86203-0.17361-0.17361 0.86204-1.7221c0.30817-0.61635 0.48726-1.58 0-2.0673-0.24363-0.24363-0.63863-0.36541-1.0336-0.36541z" enable-background="new" fill="#4d4d4d"/>
 <circle cx="8.4999" cy="9.5" r="4.5" enable-background="new" fill="#fdc92b"/>
 <path d="m27.3 13.5s0.65407 2.1209 0 2.775c-0.66007 0.66007-2.8004 0-2.8004 0v-2.275 2.275s-0.82195 0.23802-1.2451 0.25c-0.59049 0.0167-1.7544-0.25-1.7544-0.25v-2.275 3.5s-0.0637 0.56366-0.25 0.75c-1.0885 0.43807-1.5964 0.81199-2.25 0.25-0.82496-0.82495 0-3.5 0-3.5" enable-background="new" fill="none" stroke="#faf8f6"/>
 <path d="m6.9679 10.586-0.4463 0.37452a2.75 2.75 0 0 0 1.9783 0.83984 2.75 2.75 0 0 0 1.9783-0.83984l-0.44629-0.37452c-0.38 0.45282-0.94085 0.71435-1.532 0.71436-0.59114-1e-5 -1.152-0.26154-1.532-0.71436z" enable-background="new" fill="#f46270" stroke="#f46270" stroke-linecap="round" stroke-linejoin="round" stroke-width=".25"/>
 <circle cx="7.4999" cy="8.5" r=".5" enable-background="new" fill="#4d4d4d" stroke-linecap="round" stroke-linejoin="round"/>
 <circle cx="9.4999" cy="8.5" r=".5" enable-background="new" fill="#4d4d4d" stroke-linecap="round" stroke-linejoin="round"/>
 <rect x="23" y="12" width="1" height="1" rx=".2" ry=".2" enable-background="new" fill="#faf8f6"/>
 <rect x="25" y="12" width="1" height="1" rx=".2" ry=".2" enable-background="new" fill="#faf8f6"/>
 <rect x="24" y="11" width="1" height="1" rx=".2" ry=".2" enable-background="new" fill="#faf8f6"/>
 <path d="m9.127 1.5c-6.4516 0-7.6603 0.58409-7.6264 6.2823v8.2176 8.2178c-0.034 5.6982 1.1748 6.2823 7.6264 6.2823h13.747c6.45 0 7.6264-0.58403 7.6264-6.2823v-8.2178-8.2176c0-5.6982-1.1764-6.2823-7.6264-6.2823z" color="#000000" fill="none" opacity=".4" stroke="#000"/>
 <path d="m9.1268 2c-3.2107 0-5.0326 0.19514-5.9375 0.89844-0.45247 0.35165-0.74178 0.83286-0.93359 1.6172-0.19176 0.78433-0.26386 1.8569-0.25586 3.2637v2e-3 8.2188 8.2188 2e-3c-8e-3 1.4068 0.0641 2.4794 0.25586 3.2637 0.1918 0.78431 0.48112 1.2655 0.93359 1.6172 0.90496 0.7033 2.7268 0.89844 5.9375 0.89844h13.746c3.2099 0 5.0246-0.19551 5.9258-0.89844 0.45058-0.35146 0.73805-0.83201 0.93164-1.6172 0.19363-0.7853 0.26953-1.8603 0.26953-3.2677v-8.2168-8.2168c0-1.4074-0.0759-2.4824-0.26953-3.2676-0.19359-0.78517-0.48106-1.2657-0.93164-1.6172-0.90117-0.70293-2.7159-0.89844-5.9258-0.89844zm6.498 1.0469c3.4565 0.0171 6.9142-0.0268 10.361 0.0918 0.8211 0.13276 1.8066 0.14835 2.3906 0.82617 0.67884 1.1647 0.51296 2.5878 0.56446 3.873 0.0431 6.0289 0.0678 12.067-0.0332 18.088-0.0775 0.77792-0.12055 1.6726-0.67968 2.2754-0.70249 0.51038-1.6183 0.59683-2.459 0.67383-4.0474 0.0864-8.1622 0.0456-12.24 0.0606-2.4519-0.0199-4.914 0.0317-7.3535-0.0606-0.87784-0.12055-1.915-0.14021-2.5606-0.83398-0.64775-1.0259-0.50264-2.3052-0.56054-3.4648-0.035-5.6558-0.0351-11.355 0-17.01 0.0632-1.2215-0.10864-2.5772 0.59179-3.6524 0.6025-0.62665 1.5562-0.63986 2.3594-0.77344 2.7374-0.10739 5.4808-0.0704 8.2266-0.0918 0.46403-2.9e-4 0.92855-2e-3 1.3926-2e-3z" color="#000000" fill="url(#linearGradient1688-4)"/>
</svg>
