<svg width="32" height="32" version="1" xmlns="http://www.w3.org/2000/svg" xmlns:xlink="http://www.w3.org/1999/xlink">
 <defs>
  <linearGradient id="linearGradient3257" x1="330.08" x2="341.93" y1="133.5" y2="162.5" gradientTransform="translate(-320 -132)" gradientUnits="userSpaceOnUse">
   <stop stop-color="#bc1938" offset="0"/>
   <stop stop-color="#da1636" offset="1"/>
  </linearGradient>
  <linearGradient id="linearGradient1004-8" x1="344" x2="344" y1="62" y2="106" gradientUnits="userSpaceOnUse">
   <stop stop-color="#fff" offset="0"/>
   <stop stop-color="#fff" stop-opacity=".098039" offset=".125"/>
   <stop stop-color="#fff" stop-opacity=".098039" offset=".925"/>
   <stop stop-color="#fff" stop-opacity=".49804" offset="1"/>
  </linearGradient>
  <clipPath id="clipPath994-1">
   <path d="m335.73 62c-8.8242 0-9.7736 0.90635-9.7304 9.7484v12.252 12.252c-0.0433 8.842 0.90622 9.7484 9.7304 9.7484h16.539c8.8242 0 9.7304-0.90625 9.7304-9.7484v-12.252-12.252c0-8.8421-0.90622-9.7484-9.7304-9.7484z" color="#000000" fill="#cdcdcd"/>
  </clipPath>
 </defs>
 <path d="m10.194 2c-1.421 0-2.5488 0.0308-3.5059 0.19141-0.95703 0.16064-1.7915 0.4726-2.4121 1.0918s-0.93647 1.4561-1.0957 2.4141c-0.15924 0.95795-0.18666 2.087-0.17969 3.5117v7.791 7.7969c-7e-3 1.4213 0.0207 2.5495 0.17969 3.5058 0.15923 0.95796 0.47505 1.7949 1.0957 2.4141s1.4551 0.93115 2.4121 1.0918c0.95703 0.16065 2.0849 0.19141 3.5059 0.19141h11.615c1.421 0 2.5467-0.0307 3.502-0.19141 0.95527-0.16075 1.7878-0.47425 2.4062-1.0938 0.61845-0.6195 0.93134-1.4536 1.0918-2.4102 0.16046-0.95653 0.19141-2.084 0.19141-3.5078v-7.7969-7.7969c0-1.4238-0.031-2.5513-0.19141-3.5078-0.16045-0.95653-0.47334-1.7906-1.0918-2.4102-0.61846-0.61951-1.451-0.933-2.4062-1.0938-0.95527-0.16076-2.081-0.19141-3.502-0.19141z" color="#000000" color-rendering="auto" dominant-baseline="auto" image-rendering="auto" opacity=".1" shape-rendering="auto" solid-color="#000000" style="font-feature-settings:normal;font-variant-alternates:normal;font-variant-caps:normal;font-variant-ligatures:normal;font-variant-numeric:normal;font-variant-position:normal;isolation:auto;mix-blend-mode:normal;shape-padding:0;text-decoration-color:#000000;text-decoration-line:none;text-decoration-style:solid;text-indent:0;text-orientation:mixed;text-transform:none;white-space:normal"/>
 <path d="m10.076 1.5c-5.5618 0-6.6037 0.58409-6.5745 6.2823v8.2176 8.2178c-0.0293 5.6982 1.0127 6.2823 6.5745 6.2823h11.85c5.5604 0 6.5745-0.58403 6.5745-6.2823v-8.2178-8.2176c0-5.6982-1.0141-6.2823-6.5745-6.2823z" color="#000000" fill="url(#linearGradient3257)"/>
 <path d="m10.076 1.5c-5.5618 0-6.6037 0.58409-6.5745 6.2823v8.2176 8.2178c-0.0293 5.6982 1.0127 6.2823 6.5745 6.2823h11.85c5.5604 0 6.5745-0.58403 6.5745-6.2823v-8.2178-8.2176c0-5.6982-1.0141-6.2823-6.5745-6.2823z" color="#000000" fill="none" opacity=".4" stroke="#000"/>
 <path transform="matrix(.66664 0 0 .63636 -213.32 -37.455)" d="m335.73 62c-8.8242 0-9.7736 0.90635-9.7304 9.7484v12.252 12.252c-0.0433 8.842 0.90622 9.7484 9.7304 9.7484h16.539c8.8242 0 9.7304-0.90625 9.7304-9.7484v-12.252-12.252c0-8.8421-0.90622-9.7484-9.7304-9.7484z" clip-path="url(#clipPath994-1)" color="#000000" fill="none" opacity=".4" stroke="url(#linearGradient1004-8)" stroke-width="3.0707"/>
 <path d="m8.001 1.5566c-3.7381 0.21941-4.5251 1.3336-4.5 6.2266v16.434c-0.0252 4.893 0.76185 6.0072 4.5 6.2266z" enable-background="new" opacity=".15"/>
 <path d="m3.5008 16v8.2168c-0.0244 4.7361 0.73411 5.924 4.1699 6.1953 0.94583 0.0607 2.0044 0.0879 3.209 0.0879h10.242c1.2002 0 2.256-0.0257 3.1992-0.0859 3.4368-0.2699 4.1797-1.4571 4.1797-6.1973v-8.2168z" enable-background="new" fill="#fff" opacity=".03"/>
 <path d="m22.273 18c-0.51792 0-0.96326 0.0361-1.3362 0.10861-0.36255 0.0725-0.63188 0.15017-0.80798 0.23304l0.13978 0.88565c0.13465-0.0517 0.34699-0.119 0.63702-0.20186 0.29003-0.0828 0.7304-0.12445 1.3208-0.12445 0.41433 0 0.74567 0.0675 0.99426 0.20213 0.25895 0.1243 0.45586 0.29532 0.59052 0.51283 0.14501 0.20717 0.23812 0.4454 0.27955 0.71471 0.0414 0.25897 0.0621 0.52806 0.0621 0.80773v0.49726c-0.0415-0.0207-0.1191-0.0414-0.23304-0.0621-0.10359-0.0311-0.23303-0.057-0.3884-0.0776-0.14501-0.0311-0.30035-0.0517-0.46609-0.0621-0.15537-0.0207-0.30548-0.0312-0.4505-0.0312-0.48683 0-0.9374 0.0465-1.3517 0.13978-0.41433 0.0932-0.77179 0.24357-1.0722 0.45073-0.3004 0.19681-0.5334 0.45049-0.69913 0.76123-0.16574 0.31076-0.24863 0.68366-0.24863 1.1187 0 0.45576 0.0725 0.84435 0.21746 1.1655 0.15537 0.31074 0.36249 0.56963 0.62144 0.7768 0.26932 0.1968 0.58023 0.34169 0.93242 0.4349 0.36254 0.0932 0.7561 0.14003 1.1808 0.14003 0.33145 0 0.65258-0.0157 0.96334-0.0467 0.32111-0.0207 0.61111-0.0518 0.87007-0.0933 0.25895-0.0414 0.48673-0.0774 0.68354-0.1086 0.1968-0.0414 0.34716-0.0777 0.45073-0.10884v-5.0651c0-0.4247-0.0518-0.8185-0.15535-1.181-0.10358-0.36254-0.26938-0.67321-0.49726-0.93216-0.22788-0.26931-0.52834-0.47643-0.90124-0.62145-0.36254-0.15537-0.80788-0.23305-1.3362-0.23305zm0.31072 4.2727c0.43505 0 0.77684 0.0312 1.0254 0.0933 0.24859 0.0517 0.42981 0.10356 0.54375 0.15535v2.8279c-0.20716 0.0414-0.46083 0.0774-0.76121 0.10861-0.29003 0.0207-0.63183 0.0312-1.0254 0.0312-0.32111 0-0.61112-0.0258-0.87008-0.0776-0.24859-0.0622-0.46616-0.15549-0.65262-0.27979-0.17608-0.1243-0.31598-0.28984-0.41957-0.49701-0.0932-0.20717-0.13977-0.46108-0.13977-0.76147 0-0.34182 0.0725-0.6164 0.21745-0.82355 0.14502-0.20717 0.33148-0.36749 0.55936-0.48143 0.22788-0.1243 0.47656-0.20222 0.74588-0.23328 0.26932-0.0415 0.5282-0.0621 0.7768-0.0621z" enable-background="new" fill="#fa9381"/>
</svg>
