<svg id="SVGRoot" width="32" height="32" version="1.1" viewBox="0 0 32 32" xmlns="http://www.w3.org/2000/svg" xmlns:xlink="http://www.w3.org/1999/xlink">
 <defs>
  <linearGradient id="linearGradient3257-3" x1="330.08" x2="341.93" y1="133.5" y2="162.5" gradientTransform="translate(-320 -132)" gradientUnits="userSpaceOnUse">
   <stop stop-color="#e8e8e8" offset="0"/>
   <stop stop-color="#f5f5f5" offset="1"/>
  </linearGradient>
  <linearGradient id="linearGradient1004-8-5" x1="344" x2="344" y1="62" y2="106" gradientUnits="userSpaceOnUse">
   <stop stop-color="#fff" offset="0"/>
   <stop stop-color="#fff" stop-opacity=".098039" offset=".125"/>
   <stop stop-color="#fff" stop-opacity=".098039" offset=".925"/>
   <stop stop-color="#fff" stop-opacity=".49804" offset="1"/>
  </linearGradient>
  <clipPath id="clipPath994-1">
   <path d="m335.73 62c-8.8242 0-9.7736 0.90635-9.7304 9.7484v12.252 12.252c-0.0433 8.842 0.90622 9.7484 9.7304 9.7484h16.539c8.8242 0 9.7304-0.90625 9.7304-9.7484v-12.252-12.252c0-8.8421-0.90622-9.7484-9.7304-9.7484z" color="#000000" fill="#cdcdcd"/>
  </clipPath>
  <linearGradient id="linearGradient4398-9" x1="624" x2="688" y1="369.24" y2="369.24" gradientTransform="matrix(.062185 .062185 -.067444 .067444 -6.7813 -41.804)" gradientUnits="userSpaceOnUse">
   <stop stop-color="#5884f4" offset="0"/>
   <stop stop-color="#5884f4" offset=".278"/>
   <stop stop-color="#2f5fdd" offset=".278"/>
   <stop stop-color="#2f5fdd" offset=".70735"/>
   <stop stop-color="#234db8" offset=".70936"/>
   <stop stop-color="#234db8" offset="1"/>
  </linearGradient>
 </defs>
 <path d="m10.194 2c-1.421 0-2.5488 0.0308-3.5059 0.19141-0.95703 0.16064-1.7915 0.4726-2.4121 1.0918s-0.93647 1.4561-1.0957 2.4141c-0.15924 0.95795-0.18666 2.087-0.17969 3.5117v7.791 7.7969c-7e-3 1.4213 0.0207 2.5495 0.17969 3.5058 0.15923 0.95796 0.47505 1.7949 1.0957 2.4141s1.4551 0.93115 2.4121 1.0918c0.95703 0.16065 2.0849 0.19141 3.5059 0.19141h11.615c1.421 0 2.5467-0.0307 3.502-0.19141 0.95527-0.16075 1.7878-0.47425 2.4062-1.0938 0.61845-0.6195 0.93134-1.4536 1.0918-2.4102 0.16046-0.95653 0.19141-2.084 0.19141-3.5078v-7.7969-7.7969c0-1.4238-0.031-2.5513-0.19141-3.5078-0.16045-0.95653-0.47334-1.7906-1.0918-2.4102-0.61846-0.61951-1.451-0.933-2.4062-1.0938-0.95527-0.16076-2.081-0.19141-3.502-0.19141z" color="#000000" color-rendering="auto" dominant-baseline="auto" image-rendering="auto" opacity=".1" shape-rendering="auto" solid-color="#000000" style="font-feature-settings:normal;font-variant-alternates:normal;font-variant-caps:normal;font-variant-ligatures:normal;font-variant-numeric:normal;font-variant-position:normal;isolation:auto;mix-blend-mode:normal;shape-padding:0;text-decoration-color:#000000;text-decoration-line:none;text-decoration-style:solid;text-indent:0;text-orientation:mixed;text-transform:none;white-space:normal"/>
 <path d="m10.076 1.5c-5.5618 0-6.6037 0.58409-6.5745 6.2823v8.2176 8.2178c-0.0293 5.6982 1.0127 6.2823 6.5745 6.2823h11.85c5.5604 0 6.5745-0.58403 6.5745-6.2823v-8.2178-8.2176c0-5.6982-1.0141-6.2823-6.5745-6.2823z" color="#000000" fill="url(#linearGradient3257-3)"/>
 <path d="m10.076 1.5c-5.5618 0-6.6037 0.58409-6.5745 6.2823v8.2176 8.2178c-0.0293 5.6982 1.0127 6.2823 6.5745 6.2823h11.85c5.5604 0 6.5745-0.58403 6.5745-6.2823v-8.2178-8.2176c0-5.6982-1.0141-6.2823-6.5745-6.2823z" color="#000000" fill="none" opacity=".4" stroke="#000"/>
 <path transform="matrix(.66664 0 0 .63636 -213.32 -37.455)" d="m335.73 62c-8.8242 0-9.7736 0.90635-9.7304 9.7484v12.252 12.252c-0.0433 8.842 0.90622 9.7484 9.7304 9.7484h16.539c8.8242 0 9.7304-0.90625 9.7304-9.7484v-12.252-12.252c0-8.8421-0.90622-9.7484-9.7304-9.7484z" clip-path="url(#clipPath994-1)" color="#000000" fill="none" opacity=".7" stroke="url(#linearGradient1004-8-5)" stroke-width="3.0707"/>
 <path d="m6.001 7v1h12v-1z" color="#000000" fill="#c8c4b7" fill-opacity=".99608"/>
 <path d="m6.001 12v-1h9v1z" color="#000000" fill="#c8c4b7"/>
 <path d="m6.001 14v-1h9v1z" color="#000000" fill="#c8c4b7"/>
 <path d="m6.001 16.991v-0.99086h9v0.99086z" color="#000000" fill="#c8c4b7" fill-opacity=".99608"/>
 <path d="m6.001 19v-1h6v1z" color="#000000" fill="#c8c4b7" fill-opacity=".99608"/>
 <path d="m6.001 21v-1h20v1z" color="#000000" fill="#c8c4b7" fill-opacity=".99608"/>
 <path d="m6.001 23v-1h13v1z" color="#000000" fill="#c8c4b7" fill-opacity=".99608"/>
 <path d="m6.001 9v1h20v-1z" color="#000000" fill="#c8c4b7" fill-opacity=".99608"/>
 <path d="m14.463 22.518-7.4622 3.4823 3.4823-7.4622 0.74621-0.74622 3.9798 3.9798z" fill="#fec589"/>
 <path d="m8.1086 23.625-1.1077 2.3747 2.3747-1.1077s0.23484-0.13827 0.11159-0.26152c-0.12324-0.12325-0.49416 3e-3 -0.49416 3e-3s0.24655-0.37531-8.6e-4 -0.62271c-0.2474-0.2474-0.6227-8.5e-4 -0.6227-8.5e-4s0.12389-0.37359-4.8e-4 -0.49796-0.2604 0.11271-0.2604 0.11271z" color="#000000" fill="#5d5d5d"/>
 <path d="m10.483 18.538c0.49748-0.49747 1.3681 0.87059 0.62185 1.6168 1.2437-1.2437 2.9849 0.49747 1.7412 1.7412 0.74621-0.74622 2.1143 0.12437 1.6168 0.62184l12.538-12.538-3.9798-3.9798z" fill="url(#linearGradient4398-9)"/>
</svg>
