<svg width="32" height="32" version="1" xmlns="http://www.w3.org/2000/svg" xmlns:xlink="http://www.w3.org/1999/xlink">
 <defs>
  <linearGradient id="linearGradient1688" x1="320" x2="352" y1="164" y2="164" gradientTransform="rotate(90 242 -78)" gradientUnits="userSpaceOnUse">
   <stop stop-color="#fff" offset="0"/>
   <stop stop-color="#fff" offset="1"/>
  </linearGradient>
  <linearGradient id="linearGradient1688-4-3" x1="322" x2="350" y1="148" y2="148" gradientTransform="rotate(90 242 -78)" gradientUnits="userSpaceOnUse">
   <stop stop-color="#fff" offset="0"/>
   <stop stop-color="#fff" stop-opacity=".098039" offset=".125"/>
   <stop stop-color="#fff" stop-opacity=".098039" offset=".925"/>
   <stop stop-color="#fff" stop-opacity=".49804" offset="1"/>
  </linearGradient>
 </defs>
 <path d="m9.301 2c-1.6395 0-2.9408 0.0308-4.045 0.19141-1.1042 0.16064-2.067 0.4726-2.7831 1.0918s-1.0805 1.4561-1.2642 2.4141c-0.18374 0.95795-0.21537 2.087-0.20733 3.5117v7.791 7.7969c-9e-3 1.4213 0.0239 2.5495 0.20733 3.5058 0.18371 0.95796 0.5481 1.7949 1.2642 2.4141s1.6789 0.93115 2.7831 1.0918c1.1042 0.16065 2.4056 0.19141 4.045 0.19141h13.402c1.6395 0 2.9384-0.0307 4.0405-0.19141 1.1022-0.16075 2.0627-0.47425 2.7763-1.0938 0.71357-0.6195 1.0746-1.4536 1.2597-2.4102 0.18515-0.95653 0.22086-2.084 0.22086-3.5078v-7.7969-7.7969c0-1.4238-0.0358-2.5513-0.22086-3.5078-0.18512-0.95653-0.54612-1.7906-1.2597-2.4102-0.71359-0.61951-1.6741-0.933-2.7763-1.0938-1.1022-0.16076-2.401-0.19141-4.0405-0.19141z" color="#000000" color-rendering="auto" dominant-baseline="auto" image-rendering="auto" opacity=".1" shape-rendering="auto" solid-color="#000000" style="font-feature-settings:normal;font-variant-alternates:normal;font-variant-caps:normal;font-variant-ligatures:normal;font-variant-numeric:normal;font-variant-position:normal;isolation:auto;mix-blend-mode:normal;shape-padding:0;text-decoration-color:#000000;text-decoration-line:none;text-decoration-style:solid;text-indent:0;text-orientation:mixed;text-transform:none;white-space:normal"/>
 <path d="m9.1272 1.5c-6.4516 0-7.6603 0.58409-7.6264 6.2823v8.2176 8.2178c-0.034 5.6982 1.1748 6.2823 7.6264 6.2823h13.747c6.45 0 7.6264-0.58403 7.6264-6.2823v-8.2178-8.2176c0-5.6982-1.1764-6.2823-7.6264-6.2823z" color="#000000" fill="url(#linearGradient1688)"/>
 <path d="m21.212 13.556c0 0.74878 0.0269 1.493-9e-3 2.2418-0.0359 0.85189 0.2242 1.5827 0.7622 2.2283 0.0628 0.0762 0.12108 0.15244 0.17484 0.23316 0.19284 0.29145 0.15694 0.49318-0.10758 0.71738-0.56498 0.47528-1.1254 0.955-1.6903 1.4303-0.33627 0.28245-0.547 0.27799-0.88774 0-0.45733-0.37214-0.81603-0.82946-1.1343-1.3182-0.0762-0.11655-0.11658-0.11208-0.21073-0.0224-0.56498 0.55148-1.1613 1.0626-1.919 1.3182-1.1702 0.39903-2.3584 0.46182-3.5331 0.0448-1.1299-0.40353-1.8069-1.2375-2.058-2.3987-0.27798-1.2958-0.13451-2.5288 0.66355-3.6273 0.6053-0.82946 1.4437-1.3182 2.4077-1.6186 0.99536-0.30488 2.0221-0.42147 3.0533-0.52458 0.29145-0.0314 0.5784-0.0583 0.86982-0.0852 0.0717-5e-3 0.13451-0.0135 0.13001-0.10761-9e-3 -0.47525 0.0404-0.95951-0.0717-1.4258-0.14348-0.5963-0.53358-0.94604-1.1299-1.0761-0.42592-0.0941-0.84739-0.0673-1.2599 0.0718-0.6277 0.21519-1.0178 0.65012-1.1747 1.2957-0.0852 0.35421-0.2511 0.47975-0.59634 0.44386-0.73531-0.0762-1.4706-0.15244-2.2014-0.22866-0.30042-0.0314-0.45732-0.26006-0.39457-0.55151 0.3811-1.8607 1.6007-2.9054 3.3582-3.3851 1.3496-0.36764 2.7171-0.39007 4.0711-9e-3 1.0895 0.30488 2.0042 0.84292 2.5153 1.91 0.29145 0.6053 0.35871 1.2599 0.36767 1.9145 9e-3 0.8385 0 1.6859 5e-3 2.5288-5e-3 0 0 0 0 0zm-3.4883 1.3989c0-0.22419-9e-3 -0.44835 5e-3 -0.67255 9e-3 -0.13901-0.0404-0.18834-0.17934-0.17487-0.34078 0.0314-0.68598 0.0359-1.0268 0.0807-0.5963 0.0762-1.1792 0.2242-1.6634 0.6008-0.70395 0.55151-0.85189 1.3048-0.73534 2.1521 0.13901 0.99533 1.0268 1.5468 1.9773 1.2151 0.64562-0.22419 1.0402-0.69941 1.3137-1.2958 0.28695-0.60522 0.30938-1.2553 0.30938-1.9055z" enable-background="new" fill="#050606" stroke-width=".26222"/>
 <path d="m16.064 25.074c-3.421-0.0224-6.4923-0.90118-9.2676-2.7529-0.56494-0.37664-1.103-0.78914-1.6141-1.242-0.0448-0.0404-0.0897-0.0807-0.12555-0.13004-0.0493-0.0673-0.0852-0.14794-0.0269-0.22866 0.0583-0.0897 0.15694-0.0987 0.24212-0.0583 0.19727 0.0941 0.38561 0.19727 0.57837 0.29592 1.7666 0.93257 3.6272 1.6051 5.5776 2.031 1.7665 0.38561 3.551 0.56498 5.3624 0.51562 2.5871-0.0717 5.0799-0.59184 7.4787-1.5558 0.11658-0.0493 0.23766-0.0986 0.35871-0.12555 0.17041-0.0314 0.34078-9e-3 0.417 0.17487 0.0717 0.17037-0.0224 0.30488-0.14798 0.4125-0.0897 0.0762-0.1928 0.13898-0.29592 0.20623-1.5468 1.0043-3.2416 1.65-5.0351 2.049-1.1837 0.2691-2.3853 0.39907-3.5018 0.40807z" enable-background="new" fill="#f6a61f" stroke-width=".26222"/>
 <path d="m24.695 21.079c-0.51561-5e-3 -1.0267 0.0628-1.5379 0.11655-0.0987 9e-3 -0.21073 0.0359-0.25555-0.0717-0.0538-0.12108 0.0493-0.1928 0.13451-0.25109 0.63669-0.42143 1.3496-0.58734 2.0983-0.6277 0.51562-0.0314 1.0267-9e-3 1.5289 0.14348 0.22866 0.0673 0.34074 0.20177 0.33628 0.43493-0.0269 1.2464-0.4439 2.3315-1.3451 3.2148-0.0314 0.0314-0.0673 0.0583-0.10312 0.0852-0.0807 0.0583-0.17933 0.11208-0.26456 0.0404-0.0807-0.0673-0.0359-0.16591 0-0.24659 0.26456-0.65909 0.53358-1.3137 0.66356-2.0176 0.018-0.0897 0.0224-0.17933 0.0269-0.26455 4e-3 -0.29146-0.0987-0.41696-0.3856-0.48868-0.30042-0.0808-0.60084-0.0673-0.89676-0.0673z" enable-background="new" fill="#f6a61f" stroke-width=".26222"/>
 <path d="m9.1272 1.5c-6.4516 0-7.6603 0.58409-7.6264 6.2823v8.2176 8.2178c-0.034 5.6982 1.1748 6.2823 7.6264 6.2823h13.747c6.45 0 7.6264-0.58403 7.6264-6.2823v-8.2178-8.2176c0-5.6982-1.1764-6.2823-7.6264-6.2823z" color="#000000" fill="none" opacity=".4" stroke="#000"/>
 <path d="m9.127 2c-3.2107 0-5.0326 0.19514-5.9375 0.89844-0.45247 0.35165-0.74178 0.83286-0.93359 1.6172-0.19176 0.78433-0.26386 1.8569-0.25586 3.2637v2e-3 8.2188 8.2188 2e-3c-8e-3 1.4068 0.0641 2.4794 0.25586 3.2637 0.1918 0.78431 0.48112 1.2655 0.93359 1.6172 0.90496 0.7033 2.7268 0.89844 5.9375 0.89844h13.746c3.2099 0 5.0246-0.19551 5.9258-0.89844 0.45058-0.35146 0.73805-0.83201 0.93164-1.6172 0.19363-0.7853 0.26953-1.8603 0.26953-3.2677v-8.2168-8.2168c0-1.4074-0.0759-2.4824-0.26953-3.2676-0.19359-0.78517-0.48106-1.2657-0.93164-1.6172-0.90117-0.70293-2.7159-0.89844-5.9258-0.89844zm6.498 1.0469c3.4565 0.0171 6.9142-0.0268 10.361 0.0918 0.8211 0.13276 1.8066 0.14835 2.3906 0.82617 0.67884 1.1647 0.51296 2.5878 0.56446 3.873 0.0431 6.0289 0.0678 12.067-0.0332 18.088-0.0775 0.77792-0.12055 1.6726-0.67968 2.2754-0.70249 0.51038-1.6183 0.59683-2.459 0.67383-4.0474 0.0864-8.1622 0.0456-12.24 0.0606-2.4519-0.0199-4.914 0.0317-7.3535-0.0606-0.87784-0.12055-1.915-0.14021-2.5606-0.83398-0.64775-1.0259-0.50264-2.3052-0.56054-3.4648-0.035-5.6558-0.0351-11.355 0-17.01 0.0632-1.2215-0.10864-2.5772 0.59179-3.6524 0.6025-0.62665 1.5562-0.63986 2.3594-0.77344 2.7374-0.10739 5.4808-0.0704 8.2266-0.0918 0.46403-2.9e-4 0.92855-2e-3 1.3926-2e-3z" color="#000000" fill="url(#linearGradient1688-4-3)"/>
</svg>
