<svg width="32" height="32" version="1" xmlns="http://www.w3.org/2000/svg" xmlns:xlink="http://www.w3.org/1999/xlink">
 <defs>
  <linearGradient id="linearGradient924" x1="459.03" x2="35.31" y1="419.23" y2="207.37" gradientTransform="matrix(0 -.072088 -.072086 0 39.129 33.818)" gradientUnits="userSpaceOnUse">
   <stop stop-color="#76c22b" offset="0"/>
   <stop stop-color="#a6d74f" offset="1"/>
  </linearGradient>
  <linearGradient id="linearGradient969" x1="336" x2="336" y1="134" y2="162" gradientUnits="userSpaceOnUse">
   <stop stop-color="#fff" offset="0"/>
   <stop stop-color="#fff" stop-opacity=".098039" offset=".125"/>
   <stop stop-color="#fff" stop-opacity=".098039" offset=".925"/>
   <stop stop-color="#fff" stop-opacity=".49804" offset="1"/>
  </linearGradient>
  <clipPath id="clipPath959">
   <path d="m330.19 134c-5.6154 0-6.2196 0.57678-6.1921 6.2035v7.7965 7.7965c-0.0276 5.6267 0.57668 6.2035 6.1921 6.2035h11.615c5.6154 0 6.1921-0.5767 6.1921-6.2035v-7.7965-7.7965c0-5.6268-0.5767-6.2035-6.1921-6.2035z" color="#000000" fill="#46a926"/>
  </clipPath>
 </defs>
 <path d="m10.193 2c-1.421 0-2.5488 0.0308-3.5059 0.19141-0.95703 0.16064-1.7915 0.4726-2.4121 1.0918s-0.93647 1.4561-1.0957 2.4141c-0.15924 0.95795-0.18666 2.087-0.17969 3.5117v7.791 7.7969c-7e-3 1.4213 0.0207 2.5495 0.17969 3.5058 0.15923 0.95796 0.47505 1.7949 1.0957 2.4141s1.4551 0.93115 2.4121 1.0918c0.95703 0.16065 2.0849 0.19141 3.5059 0.19141h11.615c1.421 0 2.5467-0.0307 3.502-0.19141 0.95527-0.16075 1.7878-0.47425 2.4062-1.0938 0.61845-0.6195 0.93134-1.4536 1.0918-2.4102 0.16046-0.95653 0.19141-2.084 0.19141-3.5078v-7.7969-7.7969c0-1.4238-0.031-2.5513-0.19141-3.5078-0.16045-0.95653-0.47334-1.7906-1.0918-2.4102-0.61846-0.61951-1.451-0.933-2.4062-1.0938-0.95527-0.16076-2.081-0.19141-3.502-0.19141z" color="#000000" color-rendering="auto" dominant-baseline="auto" image-rendering="auto" opacity=".1" shape-rendering="auto" solid-color="#000000" style="font-feature-settings:normal;font-variant-alternates:normal;font-variant-caps:normal;font-variant-ligatures:normal;font-variant-numeric:normal;font-variant-position:normal;isolation:auto;mix-blend-mode:normal;shape-padding:0;text-decoration-color:#000000;text-decoration-line:none;text-decoration-style:solid;text-indent:0;text-orientation:mixed;text-transform:none;white-space:normal"/>
 <path d="m21.806 1.5c1.4124 0 2.5224 0.0342 3.4238 0.18555 0.90145 0.15132 1.6199 0.43164 2.1426 0.95312 0.5227 0.52148 0.80325 1.239 0.95312 2.1406 0.14988 0.90164 0.18075 2.0101 0.17383 3.4258v7.7949 7.7969c7e-3 1.4145-0.024 2.5227-0.17383 3.4238-0.14987 0.90165-0.43041 1.6192-0.95312 2.1406-0.52272 0.52148-1.2411 0.8018-2.1426 0.95312s-2.0114 0.18555-3.4238 0.18555h-11.615c-1.4124 0-2.5185-0.0342-3.418-0.18555-0.8995-0.15137-1.616-0.43149-2.1367-0.95312s-0.80004-1.2377-0.95117-2.1387c-0.15113-0.90094-0.18555-2.0106-0.18555-3.4258v-7.7969-7.7969c0-1.4152 0.0344-2.5248 0.18555-3.4258 0.15113-0.90093 0.43042-1.617 0.95117-2.1387 0.52075-0.52163 1.2372-0.80175 2.1367-0.95312s2.0056-0.18555 3.418-0.18555z" color="#000000" fill="url(#linearGradient924)"/>
 <g transform="translate(-320,-132)" enable-background="new">
  <path d="m335.03 151.16c-0.0558-0.55975-0.39132-0.79473-1.6729-1.1716-0.8515-0.25035-1.0052-0.30587-1.4378-0.51933-0.35777-0.17654-0.43282-0.22888-0.67925-0.47371-0.22293-0.2215-0.30316-0.32865-0.41084-0.54875-0.19723-0.40313-0.22903-0.62493-0.22993-1.6036l-7.8e-4 -0.82573-0.13087-0.0965c-0.60087-0.44321-0.66274-1.3799-0.12655-1.9161 0.57958-0.57959 1.5434-0.47466 1.9853 0.21614 0.32933 0.51483 0.23435 1.2263-0.21802 1.633-0.0901 0.081-0.17818 0.14732-0.19568 0.14732-0.0205 0-0.0274 0.30086-0.0194 0.84464 0.0119 0.80637 0.0158 0.85162 0.0875 0.99837 0.14743 0.30178 0.4877 0.50103 1.2738 0.74589 0.99873 0.31108 1.4848 0.47401 1.633 0.54735l0.15284 0.0757v-7.4593h-0.62745c-0.36078 0-0.62745-0.0126-0.62745-0.0296 0-0.0542 1.8657-3.1398 1.8984-3.1398 0.0328 0 1.8984 3.0856 1.8984 3.1398 0 0.0171-0.26668 0.0296-0.62745 0.0296h-0.62746v5.6321l0.15285-0.0773c0.24818-0.12555 0.77928-0.29447 1.572-0.50001 1.372-0.35571 1.7929-0.55182 1.9614-0.91387 0.0749-0.16078 0.0778-0.19373 0.0781-0.88295l2.5e-4 -0.71594h-0.61137v-2.5742h2.542v2.5742h-0.60366l-0.0161 0.81247c-0.0122 0.61433-0.029 0.85858-0.0689 1.0015-0.17206 0.61706-0.62848 1.1159-1.3114 1.4333-0.38287 0.17793-0.74307 0.29423-1.6007 0.51678-1.3742 0.35659-1.7802 0.53882-1.9879 0.89219l-0.0906 0.1542-0.01 1.1101-0.01 1.1101-3e-3 0.47674c-0.87105 1.066-1.19 0.37306-1.2913-0.64324z" opacity=".1" stroke-width="3.7797"/>
  <path d="m335.03 150.16c-0.0558-0.55975-0.39132-0.79473-1.6729-1.1716-0.8515-0.25035-1.0052-0.30587-1.4378-0.51933-0.35777-0.17654-0.43282-0.22888-0.67925-0.47371-0.22293-0.2215-0.30316-0.32865-0.41084-0.54875-0.19723-0.40313-0.22903-0.62493-0.22993-1.6036l-7.8e-4 -0.82573-0.13087-0.0965c-0.60087-0.44321-0.66274-1.3799-0.12655-1.9161 0.57958-0.57959 1.5434-0.47466 1.9853 0.21614 0.32933 0.51483 0.23435 1.2263-0.21802 1.633-0.0901 0.081-0.17818 0.14732-0.19568 0.14732-0.0205 0-0.0274 0.30086-0.0194 0.84464 0.0119 0.80637 0.0158 0.85162 0.0875 0.99837 0.14743 0.30178 0.4877 0.50103 1.2738 0.74589 0.99873 0.31108 1.4848 0.47401 1.633 0.54735l0.15284 0.0757v-7.4593h-0.62745c-0.36078 0-0.62745-0.0126-0.62745-0.0296 0-0.0542 1.8657-3.1398 1.8984-3.1398 0.0328 0 1.8984 3.0856 1.8984 3.1398 0 0.0171-0.26668 0.0296-0.62745 0.0296h-0.62746v5.6321l0.15285-0.0773c0.24818-0.12555 0.77928-0.29447 1.572-0.50001 1.372-0.35571 1.7929-0.55182 1.9614-0.91387 0.0749-0.16078 0.0778-0.19373 0.0781-0.88295l2.5e-4 -0.71594h-0.61137v-2.5742h2.542v2.5742h-0.60366l-0.0161 0.81247c-0.0122 0.61433-0.029 0.85858-0.0689 1.0015-0.17206 0.61706-0.62848 1.1159-1.3114 1.4333-0.38287 0.17793-0.74307 0.29423-1.6007 0.51678-1.3742 0.35659-1.7802 0.53882-1.9879 0.89219l-0.0906 0.1542-0.01 1.1101-0.01 1.1101-3e-3 0.47674c-0.87105 1.066-1.19 0.37306-1.2913-0.64324z" fill="#f9f9f9" stroke-width="3.7797"/>
  <g transform="matrix(.14278 0 0 .14278 330.85 116.8)" opacity=".1" stroke-width="9.7234">
   <path d="m15.221 259.2c-1.6268 0-2.9365 1.1218-2.9365 2.5175v12.585c0 1.3938 1.3097 2.5156 2.9365 2.5156 1.6268 0 2.9365-1.1217 2.9365-2.5175v-12.584c0-1.3958-1.3097-2.5175-2.9365-2.5175z"/>
   <path transform="matrix(.26458 0 0 .26458 0 229.27)" d="m97.934 27.83c-0.3271 0.01923-0.65837 0.07121-0.98828 0.16211-2.6396 0.70752-4.1936 3.4014-3.4863 6.041l6.2324 23.256c-31.035 14.902-31.061 53.385-31.061 53.385v62.805c0 11.661 8.799 21.051 19.732 21.051h9.8633v19.732c0 5.4605 5.6314 9.8633 11.092 9.8633 5.4678 0 11.1-4.4028 11.1-9.8633v-19.73h14.797v19.73c-8e-3 5.4605 5.6318 9.8633 11.1 9.8633 5.4604 0 11.098-4.4028 11.098-9.8633v-19.732h9.8672c10.936 0 19.732-9.3902 19.732-21.051v-62.805s-0.0275-38.479-31.07-53.381l6.2305-23.26c0.71027-2.64-0.84289-5.3336-3.4844-6.041-2.6414-0.70749-5.3346 0.84839-6.0449 3.4883l-5.9863 22.369c-5.5048-1.5004-11.735-2.3691-18.838-2.3691-7.1034 0-13.333 0.87077-18.834 2.3711l-5.9863-22.373c-0.53271-1.9792-2.1829-3.3486-4.0918-3.6113h-0.0039c-0.3174-0.04195-0.64165-0.05634-0.96875-0.03711zm0.28711 48.312a7.3989 7.3989 0 0 1 7.3984 7.3984 7.3989 7.3989 0 0 1-7.3984 7.3984 7.3989 7.3989 0 0 1-7.3984-7.3984 7.3989 7.3989 0 0 1 7.3984-7.3984zm59.191 0a7.3989 7.3989 0 0 1 7.3984 7.3984 7.3989 7.3989 0 0 1-7.3984 7.3984 7.3989 7.3989 0 0 1-7.3984-7.3984 7.3989 7.3989 0 0 1 7.3984-7.3984zm-71.77 29.596h84.348c1.2297 0 2.2207 1.6497 2.2207 3.6992s-0.991 3.6992-2.2207 3.6992h-84.348c-1.2282 0-2.2207-1.6497-2.2207-3.6992s0.99248-3.6992 2.2207-3.6992z"/>
   <path d="m52.416 259.2c-1.6268 0-2.9365 1.1218-2.9365 2.5175v12.585c0 1.3938 1.3097 2.5156 2.9365 2.5156 1.6268 0 2.9365-1.1217 2.9365-2.5175v-12.585c0-1.3938-1.3097-2.5156-2.9365-2.5156z"/>
  </g>
  <g transform="matrix(.14278 0 0 .14278 330.85 115.8)" fill="#f9f9f9" stroke-width="9.7234">
   <path d="m15.221 259.2c-1.6268 0-2.9365 1.1218-2.9365 2.5175v12.585c0 1.3938 1.3097 2.5156 2.9365 2.5156 1.6268 0 2.9365-1.1217 2.9365-2.5175v-12.584c0-1.3958-1.3097-2.5175-2.9365-2.5175z"/>
   <path transform="matrix(.26458 0 0 .26458 0 229.27)" d="m97.934 27.83c-0.3271 0.01923-0.65837 0.07121-0.98828 0.16211-2.6396 0.70752-4.1936 3.4014-3.4863 6.041l6.2324 23.256c-31.035 14.902-31.061 53.385-31.061 53.385v62.805c0 11.661 8.799 21.051 19.732 21.051h9.8633v19.732c0 5.4605 5.6314 9.8633 11.092 9.8633 5.4678 0 11.1-4.4028 11.1-9.8633v-19.73h14.797v19.73c-8e-3 5.4605 5.6318 9.8633 11.1 9.8633 5.4604 0 11.098-4.4028 11.098-9.8633v-19.732h9.8672c10.936 0 19.732-9.3902 19.732-21.051v-62.805s-0.0275-38.479-31.07-53.381l6.2305-23.26c0.71027-2.64-0.84289-5.3336-3.4844-6.041-2.6414-0.70749-5.3346 0.84839-6.0449 3.4883l-5.9863 22.369c-5.5048-1.5004-11.735-2.3691-18.838-2.3691-7.1034 0-13.333 0.87077-18.834 2.3711l-5.9863-22.373c-0.53271-1.9792-2.1829-3.3486-4.0918-3.6113h-0.0039c-0.3174-0.04195-0.64165-0.05634-0.96875-0.03711zm0.28711 48.312a7.3989 7.3989 0 0 1 7.3984 7.3984 7.3989 7.3989 0 0 1-7.3984 7.3984 7.3989 7.3989 0 0 1-7.3984-7.3984 7.3989 7.3989 0 0 1 7.3984-7.3984zm59.191 0a7.3989 7.3989 0 0 1 7.3984 7.3984 7.3989 7.3989 0 0 1-7.3984 7.3984 7.3989 7.3989 0 0 1-7.3984-7.3984 7.3989 7.3989 0 0 1 7.3984-7.3984zm-71.77 29.596h84.348c1.2297 0 2.2207 1.6497 2.2207 3.6992s-0.991 3.6992-2.2207 3.6992h-84.348c-1.2282 0-2.2207-1.6497-2.2207-3.6992s0.99248-3.6992 2.2207-3.6992z"/>
   <path d="m52.416 259.2c-1.6268 0-2.9365 1.1218-2.9365 2.5175v12.585c0 1.3938 1.3097 2.5156 2.9365 2.5156 1.6268 0 2.9365-1.1217 2.9365-2.5175v-12.585c0-1.3938-1.3097-2.5156-2.9365-2.5156z"/>
  </g>
 </g>
 <path d="m4 16v7.7969c-0.0276 5.6267 0.57798 6.2031 6.1934 6.2031h11.615c5.6154 0 6.1914-0.57631 6.1914-6.2031v-7.7969z" color="#000000" fill="#fff" opacity=".08"/>
 <path d="m16 2v28h5.8086c5.6154 0 6.1914-0.57631 6.1914-6.2031v-7.7969-7.7969c0-5.6268-0.57603-6.2031-6.1914-6.2031z" color="#000000" fill="#fff" opacity=".08"/>
 <path d="m10.193 1.5c-1.4124 0-2.5224 0.0342-3.4238 0.18555-0.90145 0.15132-1.6199 0.43164-2.1426 0.95312-0.5227 0.52148-0.80325 1.239-0.95312 2.1406-0.14988 0.90164-0.18075 2.0101-0.17383 3.4258v7.7949 7.7969c-7e-3 1.4145 0.024 2.5227 0.17383 3.4238 0.14987 0.90165 0.43041 1.6192 0.95312 2.1406 0.52272 0.52148 1.2411 0.8018 2.1426 0.95312s2.0114 0.18555 3.4238 0.18555h11.615c1.4124 0 2.5185-0.0342 3.418-0.18555 0.8995-0.15137 1.616-0.43149 2.1367-0.95312s0.80004-1.2377 0.95117-2.1387c0.15113-0.90094 0.18555-2.0106 0.18555-3.4258v-7.7969-7.7969c0-1.4152-0.0344-2.5248-0.18555-3.4258-0.15113-0.90093-0.43042-1.617-0.95117-2.1387-0.52075-0.52163-1.2372-0.80175-2.1367-0.95312s-2.0056-0.18555-3.418-0.18555z" color="#000000" fill="none" opacity=".4" stroke="#000"/>
 <path transform="translate(-320,-132)" d="m330.19 134c-5.6154 0-6.2196 0.57678-6.1921 6.2035v7.7965 7.7965c-0.0276 5.6267 0.57668 6.2035 6.1921 6.2035h11.615c5.6154 0 6.1921-0.5767 6.1921-6.2035v-7.7965-7.7965c0-5.6268-0.5767-6.2035-6.1921-6.2035z" clip-path="url(#clipPath959)" color="#000000" fill="none" opacity=".4" stroke="url(#linearGradient969)" stroke-width="2"/>
</svg>
