<svg width="32" height="32" version="1" xmlns="http://www.w3.org/2000/svg">
 <defs>
  <clipPath id="clipPath983-7">
   <path d="m115.03 44c-72.649 0-83.031 10.357-83.031 82.938v58.125c0 72.581 10.383 82.938 83.031 82.938h36.969v-224z" fill="#4d4d4d"/>
  </clipPath>
  <filter id="filter973" x="-.1376" y="-.073714" width="1.2752" height="1.1474" color-interpolation-filters="sRGB">
   <feGaussianBlur stdDeviation="6.88"/>
  </filter>
  <filter id="filter967" x="-.0172" y="-.0092143" width="1.0344" height="1.0184" color-interpolation-filters="sRGB">
   <feGaussianBlur stdDeviation="0.86"/>
  </filter>
  <linearGradient id="linearGradient1004-8" x1="344" x2="344" y1="65.144" y2="102.86" gradientTransform="matrix(0 -1.0476 .95458 0 263.82 444.37)" gradientUnits="userSpaceOnUse">
   <stop stop-color="#fff" offset="0"/>
   <stop stop-color="#fff" stop-opacity=".098039" offset=".125"/>
   <stop stop-color="#fff" stop-opacity=".098039" offset=".925"/>
   <stop stop-color="#fff" stop-opacity=".49804" offset="1"/>
  </linearGradient>
  <clipPath id="clipPath994-1">
   <path d="m335.73 62c-8.8242 0-9.7736 0.90635-9.7304 9.7484v24.504c-0.0433 8.842 0.90622 9.7484 9.7304 9.7484h16.539c8.8242 0 9.7304-0.90625 9.7304-9.7484v-24.504c0-8.8421-0.90622-9.7484-9.7304-9.7484z" color="#000000" fill="#cdcdcd"/>
  </clipPath>
  <linearGradient id="linearGradient1276" x1="344" x2="366" y1="94" y2="94" gradientTransform="matrix(.71429 0 0 .71429 -244.57 -76.143)" gradientUnits="userSpaceOnUse">
   <stop stop-color="#fff" offset="0"/>
   <stop stop-color="#fff" stop-opacity="0" offset="1"/>
  </linearGradient>
 </defs>
 <path d="m31 11.194c0-1.421-0.0308-2.5488-0.19141-3.5059-0.16064-0.95703-0.4726-1.7915-1.0918-2.4121s-1.4561-0.93647-2.4141-1.0957c-0.95795-0.15924-2.087-0.18666-3.5117-0.17969h-15.588c-1.4213-7e-3 -2.5495 0.0207-3.5058 0.17969-0.95796 0.15923-1.7949 0.47505-2.4141 1.0957s-0.93115 1.4551-1.0918 2.4121c-0.16065 0.95703-0.19141 2.0849-0.19141 3.5059v11.615c0 1.421 0.0307 2.5467 0.19141 3.502 0.16075 0.95527 0.47425 1.7878 1.0938 2.4062 0.6195 0.61845 1.4536 0.93134 2.4102 1.0918 0.95653 0.16046 2.084 0.19141 3.5078 0.19141h15.594c1.4238 0 2.5513-0.031 3.5078-0.19141 0.95653-0.16045 1.7906-0.47334 2.4102-1.0918 0.61951-0.61846 0.933-1.451 1.0938-2.4062 0.16076-0.95527 0.19141-2.081 0.19141-3.502z" color="#000000" color-rendering="auto" dominant-baseline="auto" image-rendering="auto" opacity=".1" shape-rendering="auto" solid-color="#000000" style="font-feature-settings:normal;font-variant-alternates:normal;font-variant-caps:normal;font-variant-ligatures:normal;font-variant-numeric:normal;font-variant-position:normal;isolation:auto;mix-blend-mode:normal;shape-padding:0;text-decoration-color:#000000;text-decoration-line:none;text-decoration-style:solid;text-indent:0;text-orientation:mixed;text-transform:none;white-space:normal"/>
 <path d="m30.5 10.075c0-5.5618-0.58409-6.6037-6.2823-6.5745h-16.435c-5.6982-0.0293-6.2823 1.0127-6.2823 6.5745v11.85c0 5.5604 0.58403 6.5745 6.2823 6.5745h16.435c5.6982 0 6.2823-1.0141 6.2823-6.5745z" color="#000000" fill="#f6f5f4"/>
 <path d="m16 3.5v25h8.2168c5.6982 0 6.2832-1.0138 6.2832-6.5742v-11.852c0-5.5618-0.58502-6.6034-6.2832-6.5742z" enable-background="new" fill="#3584e4"/>
 <path d="m16 16v12.5h8.2168c5.6982 0 6.2832-1.0138 6.2832-6.5742v-5.9258z" enable-background="new" fill="#fff" opacity=".1"/>
 <g transform="matrix(-.125 0 0 .11161 35.04 -1.4107)" clip-path="url(#clipPath983-7)" enable-background="new" stroke-width="8.4664">
  <path d="m152 44v224h36.969c72.649 0 83.031-10.357 83.031-82.938v-58.125c0-72.581-10.383-82.938-83.031-82.938z" filter="url(#filter973)" opacity=".4"/>
  <path d="m152 44v224h36.969c72.649 0 83.031-10.357 83.031-82.938v-58.125c0-72.581-10.383-82.938-83.031-82.938z" filter="url(#filter967)" opacity=".1"/>
 </g>
 <path d="m12.075 21q-0.22077-0.58441-0.41558-1.1429-0.1948-0.57142-0.4026-1.1558h-4.0779l-0.81818 2.2987h-1.3117q0.51948-1.4286 0.97402-2.6364 0.45456-1.2208 0.88313-2.3117 0.44155-1.0909 0.87013-2.0779 0.42857-1 0.8961-1.974h1.1558q0.46754 0.97402 0.89612 1.974 0.42856 0.98702 0.85713 2.0779 0.44157 1.0909 0.8961 2.3117 0.45455 1.2078 0.97403 2.6364zm-1.1818-3.3377q-0.41559-1.1299-0.83117-2.1818-0.4026-1.065-0.84415-2.039-0.45455 0.97402-0.87014 2.039-0.40259 1.0519-0.8052 2.1818z" enable-background="new" fill="#77767b"/>
 <path d="m22.986 11.206v1.5822h-4.2193v1.0548h1.7452c0.62775 1.6204 1.3987 2.9946 2.3071 4.116-1.0568 1.0946-2.28 1.8302-3.6718 2.2338l0.29383 1.0131c1.5467-0.44845 2.9067-1.2754 4.0724-2.4658 1.1657 1.1905 2.5257 2.0174 4.0724 2.4658l0.29383-1.0131c-1.3918-0.40355-2.615-1.1392-3.6718-2.2338 0.90832-1.1215 1.6793-2.4956 2.3071-4.116h1.7452v-1.0548h-4.2193v-1.5822zm-1.339 2.6371h3.7328c-0.5355 1.3037-1.1576 2.4049-1.8664 3.315-0.70888-0.91008-1.3309-2.0113-1.8664-3.315z" enable-background="new" fill="#fff"/>
 <path d="m30.5 10.075c0-5.5618-0.58409-6.6037-6.2823-6.5745h-16.435c-5.6982-0.0293-6.2823 1.0127-6.2823 6.5745v11.85c0 5.5604 0.58403 6.5745 6.2823 6.5745h16.435c5.6982 0 6.2823-1.0141 6.2823-6.5745z" color="#000000" fill="none" opacity=".4" stroke="#000"/>
 <path transform="matrix(0 .66664 -.63636 0 69.455 -213.32)" d="m335.73 62c-8.8242 0-9.7736 0.90635-9.7304 9.7484v24.504c-0.0433 8.842 0.90622 9.7484 9.7304 9.7484h16.539c8.8242 0 9.7304-0.90625 9.7304-9.7484v-24.504c0-8.8421-0.90622-9.7484-9.7304-9.7484z" clip-path="url(#clipPath994-1)" color="#000000" fill="none" opacity=".7" stroke="url(#linearGradient1004-8)" stroke-width="3.0707"/>
 <circle cx="18.5" cy="18.5" r="1.5" enable-background="new" fill="#fff"/>
 <circle cx="23" cy="23" r="8.5" fill="#e95420" stroke="#000" stroke-dashoffset="1" stroke-linecap="round" stroke-linejoin="round" stroke-opacity=".4"/>
 <circle transform="rotate(90)" cx="23" cy="-23" r="7.5" fill="none" opacity=".3" stroke="url(#linearGradient1276)" stroke-dashoffset="1" stroke-linecap="round" stroke-linejoin="round" stroke-opacity=".4"/>
 <path d="m23.981 17-1.9742 1.4e-4v1.313c0.65114-0.13405 1.323-0.13277 1.9742 4e-3v-1.3167zm-4.0394 0.89513-1.5041 1.2818 0.74101 0.88533c0.41204-0.5232 0.92701-0.95585 1.513-1.2712zm6.0965 0.0096-0.74464 0.88981c0.04298 0.02205 0.08562 0.04471 0.12792 0.06804 0.53296 0.31039 1.0024 0.71934 1.3834 1.2051l0.75385-0.90045zm-8.7075 3.1703-0.33042 1.9512 1.1365 0.20103c-0.02048-0.66657 0.09566-1.33 0.34132-1.9493zm11.314 2e-3 -1.1421 0.20188c0.2475 0.61888 0.36585 1.2818 0.34774 1.9479l1.1496-0.20277zm-10.262 3.5295-1.0136 0.58686h-3.37e-4l0.99826 1.7074 1.0036-0.5807c-0.44254-0.49775-0.77878-1.0809-0.98794-1.7136zm9.2256 2e-3c-0.10212 0.31746-0.23652 0.6235-0.40108 0.91332-0.16562 0.2871-0.3601 0.55646-0.58041 0.80385l1.0041 0.58126 0.97618-1.7203zm-7.1677 2.6101-0.40109 1.1043 1.8596 0.66497 0.39439-1.0866c-0.60839-0.0893-1.1946-0.29338-1.7275-0.60143-0.04222-0.0264-0.08402-0.05346-0.12541-0.08119zm5.11 0.0115c-0.56586 0.34992-1.1976 0.57959-1.856 0.67478l0.39772 1.0951 1.8507-0.68906z" color="#000000" fill="#fff"/>
 <path d="m22.981 18.298a4.7059 4.7173 0 0 0-4.7057 4.7172 4.7059 4.7173 0 0 0 4.7057 4.7172 4.7059 4.7173 0 0 0 4.7057-4.7172 4.7059 4.7173 0 0 0-4.7057-4.7172zm0 0.62881a4.0784 4.0884 0 0 1 4.0785 4.0884 4.0784 4.0884 0 0 1-4.0785 4.0884 4.0784 4.0884 0 0 1-4.0784-4.0884 4.0784 4.0884 0 0 1 4.0784-4.0884z" enable-background="new" fill="#fff" stroke="#fff" stroke-linecap="round" stroke-linejoin="round" stroke-width=".68627"/>
</svg>
