<svg width="32" height="32" version="1" xmlns="http://www.w3.org/2000/svg" xmlns:xlink="http://www.w3.org/1999/xlink">
 <defs>
  <linearGradient id="linearGradient4882" x1="319.22" x2="355.71" y1="170.98" y2="121.71" gradientTransform="rotate(90 242 -78)" gradientUnits="userSpaceOnUse">
   <stop stop-color="#1a7fd4" offset="0"/>
   <stop stop-color="#6dc7f1" offset="1"/>
  </linearGradient>
  <linearGradient id="linearGradient923" x1="256" x2="256" y1="375" y2="135.28" gradientTransform="matrix(.058333 0 0 .058333 1.4684 1.0667)" gradientUnits="userSpaceOnUse">
   <stop stop-color="#f5f5f5" offset="0"/>
   <stop stop-color="#f1d7e9" offset="1"/>
  </linearGradient>
  <linearGradient id="linearGradient1004-8" x1="344" x2="344" y1="65.144" y2="102.86" gradientTransform="matrix(0 -1.0476 .95458 0 263.82 444.37)" gradientUnits="userSpaceOnUse">
   <stop stop-color="#fff" offset="0"/>
   <stop stop-color="#fff" stop-opacity=".098039" offset=".125"/>
   <stop stop-color="#fff" stop-opacity=".098039" offset=".925"/>
   <stop stop-color="#fff" stop-opacity=".49804" offset="1"/>
  </linearGradient>
  <clipPath id="clipPath994-1">
   <path d="m335.73 62c-8.8242 0-9.7736 0.90635-9.7304 9.7484v12.252 12.252c-0.0433 8.842 0.90622 9.7484 9.7304 9.7484h16.539c8.8242 0 9.7304-0.90625 9.7304-9.7484v-12.252-12.252c0-8.8421-0.90622-9.7484-9.7304-9.7484z" color="#000000" fill="#cdcdcd"/>
  </clipPath>
 </defs>
 <path d="m31 11.194c0-1.421-0.0308-2.5488-0.19141-3.5059-0.16064-0.95703-0.4726-1.7915-1.0918-2.4121s-1.4561-0.93647-2.4141-1.0957c-0.95795-0.15924-2.087-0.18666-3.5117-0.17969h-7.791-7.7969c-1.4213-7e-3 -2.5495 0.0207-3.5058 0.17969-0.95796 0.15923-1.7949 0.47505-2.4141 1.0957s-0.93115 1.4551-1.0918 2.4121c-0.16065 0.95703-0.19141 2.0849-0.19141 3.5059v11.615c0 1.421 0.0307 2.5467 0.19141 3.502 0.16075 0.95527 0.47425 1.7878 1.0938 2.4062 0.6195 0.61845 1.4536 0.93134 2.4102 1.0918 0.95653 0.16046 2.084 0.19141 3.5078 0.19141h7.7969 7.7969c1.4238 0 2.5513-0.031 3.5078-0.19141 0.95653-0.16045 1.7906-0.47334 2.4102-1.0918 0.61951-0.61846 0.933-1.451 1.0938-2.4062 0.16076-0.95527 0.19141-2.081 0.19141-3.502z" color="#000000" color-rendering="auto" dominant-baseline="auto" image-rendering="auto" opacity=".1" shape-rendering="auto" solid-color="#000000" style="font-feature-settings:normal;font-variant-alternates:normal;font-variant-caps:normal;font-variant-ligatures:normal;font-variant-numeric:normal;font-variant-position:normal;isolation:auto;mix-blend-mode:normal;shape-padding:0;text-decoration-color:#000000;text-decoration-line:none;text-decoration-style:solid;text-indent:0;text-orientation:mixed;text-transform:none;white-space:normal"/>
 <path d="m30.5 10.075c0-5.5618-0.58409-6.6037-6.2823-6.5745h-8.2176-8.2178c-5.6982-0.0293-6.2823 1.0127-6.2823 6.5745v11.85c0 5.5604 0.58403 6.5745 6.2823 6.5745h8.2178 8.2176c5.6982 0 6.2823-1.0141 6.2823-6.5745z" color="#000000" fill="url(#linearGradient4882)"/>
 <path d="m1.5059 16v6.2168c-0.034 5.6982 1.1753 6.2832 7.627 6.2832h13.746c6.45 0 7.627-0.58496 7.627-6.2832v-6.2168z" color="#000000" fill="#fff" opacity=".1"/>
 <path d="m11 10v14s6.6347-2.8699 12.437-7.0044c0-9.5e-4 -1e-3 -2e-3 -1e-3 -4e-3 -4.7e-4 -2e-3 -2e-3 -3e-3 -4e-3 -5e-3 -1e-3 -1e-3 -2e-3 -3e-3 -3e-3 -5e-3s-1e-3 -4e-3 -1e-3 -5e-3c-6.1191-4.2663-12.427-6.9781-12.427-6.9781z" color="#000000" opacity=".1"/>
 <path d="m11 9v14s6.6347-2.8699 12.437-7.0044c0-9.5e-4 -1e-3 -2e-3 -1e-3 -4e-3 -4.7e-4 -2e-3 -2e-3 -3e-3 -4e-3 -5e-3 -1e-3 -1e-3 -2e-3 -3e-3 -3e-3 -5e-3s-1e-3 -4e-3 -1e-3 -5e-3c-6.1191-4.2663-12.427-6.9781-12.427-6.9781z" color="#000000" fill="url(#linearGradient923)"/>
 <path d="m30.5 10.075c0-5.5618-0.58409-6.6037-6.2823-6.5745h-8.2176-8.2178c-5.6982-0.0293-6.2823 1.0127-6.2823 6.5745v11.85c0 5.5604 0.58403 6.5745 6.2823 6.5745h8.2178 8.2176c5.6982 0 6.2823-1.0141 6.2823-6.5745z" color="#000000" fill="none" opacity=".4" stroke="#000"/>
 <path transform="matrix(0 .66664 -.63636 0 69.455 -213.32)" d="m335.73 62c-8.8242 0-9.7736 0.90635-9.7304 9.7484v12.252 12.252c-0.0433 8.842 0.90622 9.7484 9.7304 9.7484h16.539c8.8242 0 9.7304-0.90625 9.7304-9.7484v-12.252-12.252c0-8.8421-0.90622-9.7484-9.7304-9.7484z" clip-path="url(#clipPath994-1)" color="#000000" fill="none" opacity=".7" stroke="url(#linearGradient1004-8)" stroke-width="3.0707"/>
 <path d="m27.301 13c-0.22856-3e-3 -0.53242 0.0331-0.93672 0.0939l-6.7394 1.061c-1.6243 0.34586-1.6187 0.45345-1.6242 1.8257v11.134c-0.0678-0.0474-0.13456-0.0952-0.20461-0.14211v5e-4c-0.51604-0.34582-1.066-0.59193-1.8048-0.59193-0.92532 0-1.4771 0.35431-1.8112 0.821-0.33404 0.46669-0.44483 1.0549-0.44483 1.5096 0 0.54833 0.18723 1.1336 0.59335 1.5795 0.40614 0.44597 1.0306 0.75826 1.9283 0.75827 1.0138 0 1.727-0.2831 2.1301-0.83598 0.31743-0.43529 0.49294-1.0168 0.55557-1.7342v-0.0017c8e-3 -0.087 0.0151-0.17642 0.0207-0.26852 8e-3 -0.14179 7e-3 -0.40705 7e-3 -0.40705v-8.5254c0-1.2179-6e-5 -1.2906 1.6247-1.5683l4.7961-0.7827c1.6276-0.21296 1.628-0.0636 1.628 0.84979v7.8239c-0.0659-0.0462-0.13102-0.0927-0.19914-0.13829v4.7e-4c-0.51604-0.34582-1.0658-0.59192-1.8045-0.59192-0.92534 0-1.4774 0.35431-1.8114 0.821-0.33405 0.46668-0.44485 1.0549-0.44485 1.5096 0 0.54832 0.18746 1.1335 0.59359 1.5795 0.40615 0.44596 1.0306 0.75849 1.9284 0.7585 1.0138 0 1.727-0.28333 2.1301-0.83621 0.31741-0.4353 0.49269-1.0166 0.55533-1.734v-0.0017c8e-3 -0.087 0.0151-0.17618 0.0206-0.26828 8e-3 -0.14179 7e-3 -0.40729 7e-3 -0.40729v-11.861c0-1.0682-7e-3 -1.4219-0.69268-1.4296z" enable-background="new" opacity=".05" stroke="#000" stroke-width="2"/>
 <path d="m27.301 14c-0.22856-3e-3 -0.53242 0.0331-0.93672 0.0939l-6.7394 1.061c-1.6243 0.34586-1.6187 0.45345-1.6242 1.8257v11.134c-0.0678-0.0474-0.13456-0.0952-0.20461-0.14211v5e-4c-0.51604-0.34582-1.066-0.59193-1.8048-0.59193-0.92532 0-1.4771 0.35431-1.8112 0.821-0.33404 0.46669-0.44483 1.0549-0.44483 1.5096 0 0.54833 0.18723 1.1336 0.59335 1.5795 0.40614 0.44597 1.0306 0.75826 1.9283 0.75827 1.0138 0 1.727-0.2831 2.1301-0.83598 0.31743-0.43529 0.49294-1.0168 0.55557-1.7342v-0.0017c8e-3 -0.087 0.0151-0.17642 0.0207-0.26852 8e-3 -0.14179 7e-3 -0.40705 7e-3 -0.40705v-8.5254c0-1.2179-6e-5 -1.2906 1.6247-1.5683l4.7961-0.7827c1.6276-0.21296 1.628-0.0636 1.628 0.84979v7.8239c-0.0659-0.0462-0.13102-0.0927-0.19914-0.13829v4.7e-4c-0.51604-0.34582-1.0658-0.59192-1.8045-0.59192-0.92534 0-1.4774 0.35431-1.8114 0.821-0.33405 0.46668-0.44485 1.0549-0.44485 1.5096 0 0.54832 0.18746 1.1335 0.59359 1.5795 0.40615 0.44596 1.0306 0.75849 1.9284 0.7585 1.0138 0 1.727-0.28333 2.1301-0.83621 0.31741-0.4353 0.49269-1.0166 0.55533-1.734v-0.0017c8e-3 -0.087 0.0151-0.17618 0.0206-0.26828 8e-3 -0.14179 7e-3 -0.40729 7e-3 -0.40729v-11.861c0-1.0682-7e-3 -1.4219-0.69268-1.4296z" enable-background="new" opacity=".1"/>
 <path d="m27.301 13c-0.22856-3e-3 -0.53242 0.0331-0.93672 0.0939l-6.7394 1.061c-1.6243 0.34586-1.6187 0.45345-1.6242 1.8257v11.134c-0.0678-0.0474-0.13456-0.0952-0.20461-0.14211v5e-4c-0.51604-0.34582-1.066-0.59193-1.8048-0.59193-0.92532 0-1.4771 0.35431-1.8112 0.821-0.33404 0.46669-0.44483 1.0549-0.44483 1.5096 0 0.54833 0.18723 1.1336 0.59335 1.5795 0.40614 0.44597 1.0306 0.75826 1.9283 0.75827 1.0138 0 1.727-0.2831 2.1301-0.83598 0.31743-0.43529 0.49294-1.0168 0.55557-1.7342v-0.0017c8e-3 -0.087 0.0151-0.17642 0.0207-0.26852 8e-3 -0.14179 7e-3 -0.40705 7e-3 -0.40705v-8.5254c0-1.2179-6e-5 -1.2906 1.6247-1.5683l4.7961-0.7827c1.6276-0.21296 1.628-0.0636 1.628 0.84979v7.8239c-0.0659-0.0462-0.13102-0.0927-0.19914-0.13829v4.7e-4c-0.51604-0.34582-1.0658-0.59192-1.8045-0.59192-0.92534 0-1.4774 0.35431-1.8114 0.821-0.33405 0.46668-0.44485 1.0549-0.44485 1.5096 0 0.54832 0.18746 1.1335 0.59359 1.5795 0.40615 0.44596 1.0306 0.75849 1.9284 0.7585 1.0138 0 1.727-0.28333 2.1301-0.83621 0.31741-0.4353 0.49269-1.0166 0.55533-1.734v-0.0017c8e-3 -0.087 0.0151-0.17618 0.0206-0.26828 8e-3 -0.14179 7e-3 -0.40729 7e-3 -0.40729v-11.861c0-1.0682-7e-3 -1.4219-0.69268-1.4296z" enable-background="new" fill="#e95420"/>
</svg>
