<svg width="32" height="32" version="1" xmlns="http://www.w3.org/2000/svg" xmlns:xlink="http://www.w3.org/1999/xlink">
 <defs>
  <linearGradient id="linearGradient1688" x1="320" x2="352" y1="164" y2="164" gradientTransform="rotate(90 242 -78)" gradientUnits="userSpaceOnUse">
   <stop stop-color="#f7f7f7" offset="0"/>
   <stop stop-color="#f7f7f7" offset="1"/>
  </linearGradient>
  <linearGradient id="linearGradient1688-4" x1="322" x2="350" y1="148" y2="148" gradientTransform="rotate(90 242 -78)" gradientUnits="userSpaceOnUse">
   <stop stop-color="#fff" offset="0"/>
   <stop stop-color="#fff" stop-opacity=".098039" offset=".125"/>
   <stop stop-color="#fff" stop-opacity=".098039" offset=".925"/>
   <stop stop-color="#fff" stop-opacity=".49804" offset="1"/>
  </linearGradient>
 </defs>
 <path d="m9.3009 2c-1.6395 0-2.9408 0.0308-4.045 0.19141-1.1042 0.16064-2.067 0.4726-2.7831 1.0918s-1.0805 1.4561-1.2642 2.4141c-0.18374 0.95795-0.21537 2.087-0.20733 3.5117v7.791 7.7969c-9e-3 1.4213 0.0239 2.5495 0.20733 3.5058 0.18371 0.95796 0.5481 1.7949 1.2642 2.4141s1.6789 0.93115 2.7831 1.0918c1.1042 0.16065 2.4056 0.19141 4.045 0.19141h13.402c1.6395 0 2.9384-0.0307 4.0405-0.19141 1.1022-0.16075 2.0627-0.47425 2.7763-1.0938 0.71357-0.6195 1.0746-1.4536 1.2597-2.4102 0.18515-0.95653 0.22086-2.084 0.22086-3.5078v-7.7969-7.7969c0-1.4238-0.0358-2.5513-0.22086-3.5078-0.18512-0.95653-0.54612-1.7906-1.2597-2.4102-0.71359-0.61951-1.6741-0.933-2.7763-1.0938-1.1022-0.16076-2.401-0.19141-4.0405-0.19141z" color="#000000" color-rendering="auto" dominant-baseline="auto" image-rendering="auto" opacity=".1" shape-rendering="auto" solid-color="#000000" style="font-feature-settings:normal;font-variant-alternates:normal;font-variant-caps:normal;font-variant-ligatures:normal;font-variant-numeric:normal;font-variant-position:normal;isolation:auto;mix-blend-mode:normal;shape-padding:0;text-decoration-color:#000000;text-decoration-line:none;text-decoration-style:solid;text-indent:0;text-orientation:mixed;text-transform:none;white-space:normal"/>
 <path d="m9.1271 1.5c-6.4516 0-7.6603 0.58409-7.6264 6.2823v8.2177 8.2178c-0.034 5.6982 1.1748 6.2823 7.6264 6.2823h13.747c6.45 0 7.6264-0.58403 7.6264-6.2823v-8.2178-8.2177c0-5.6982-1.1764-6.2823-7.6264-6.2823z" color="#000000" fill="url(#linearGradient1688)"/>
 <path d="m16 5.9043c-1.2473 0-2.3544 1.2793-3.1348 3.3555-0.40925-0.18565-0.79976-0.33059-1.1777-0.44922a0.36978 0.36978 0 0 0-0.6875-0.17969c-1.1734-0.24825-2.1311-0.11889-2.7227 0.47266-0.88193 0.88177-0.76183 2.5697 0.1543 4.5898-2.0762 0.78039-3.3535 1.8875-3.3535 3.1348 0 0.87841 0.64387 1.6832 1.7442 2.3574a0.29302 0.29302 0 0 0 0.3789 0.21875c0.37163 0.19911 0.77814 0.38854 1.2305 0.55859-0.76231 1.6806-0.96403 3.1226-0.50586 4.0703a0.3462 0.3462 0 0 0-0.0703 0.20899 0.3462 0.3462 0 0 0 0.44922 0.33008c0.88855 0.85512 2.5595 0.72996 4.5605-0.17774 0.78038 2.0762 1.8875 3.3555 3.1348 3.3555 1.2473 0 2.3544-1.2792 3.1348-3.3555 2.02 0.91642 3.706 1.0382 4.5879 0.15625 0.56487-0.56487 0.7152-1.4632 0.51172-2.5644a0.46432 0.46432 0 0 0 0.24218-0.40821 0.46432 0.46432 0 0 0-0.46875-0.46289c-0.11748-0.37027-0.25797-0.75226-0.43945-1.1523 2.0763-0.78054 3.3535-1.8875 3.3535-3.1348s-1.2774-2.3544-3.3535-3.1348c0.91613-2.0201 1.0362-3.7081 0.1543-4.5898-0.88193-0.88193-2.5679-0.76003-4.5879 0.15625-0.78054-2.0762-1.8875-3.3555-3.1348-3.3555zm0 0.32031c1.1124 0 2.119 1.2164 2.8438 3.1719-0.18489 0.0894-0.38072 0.21241-0.57031 0.31446a0.42635 0.42635 0 0 0-0.72266 0.30468 0.42635 0.42635 0 0 0 0.01 0.0879c-0.51066 0.30836-1.0318 0.64987-1.5606 1.0391-0.98182-0.72268-1.9424-1.3104-2.8438-1.7461 0.72479-1.9555 1.7313-3.1719 2.8438-3.1719zm-5.7871 2.5996c0.2361 0.0153 0.49259 0.0592 0.75586 0.11719 1.5e-4 3e-5 -1.5e-4 2e-3 0 2e-3a0.36978 0.36978 0 0 0 0.58789 0.15625c0.38172 0.11936 0.78104 0.26888 1.1992 0.46094-0.32903 0.94535-0.59204 2.0407-0.77539 3.2461-1.2052 0.18335-2.3006 0.44816-3.2461 0.77734-0.87019-1.8951-1.019-3.4673-0.23243-4.2539 0.39329-0.39329 0.98283-0.55313 1.7109-0.50586zm11.574 0c0.72811-0.0473 1.3176 0.11257 1.7109 0.50586 0.78656 0.78656 0.63775 2.3588-0.23243 4.2539-0.94551-0.32918-2.0409-0.59399-3.2461-0.77734-0.18335-1.2054-0.44636-2.3006-0.77539-3.2461 0.94754-0.43517 1.8149-0.68906 2.543-0.73633zm-8.7402 0.875c0.84894 0.41566 1.7572 0.9696 2.6836 1.6445a25.862 25.862 0 0 0-1.4941 1.2246c-0.66454 0.041-1.308 0.10478-1.9238 0.18945 0.17777-1.1322 0.42795-2.1643 0.73438-3.0586zm5.9062 0c0.30643 0.89413 0.55661 1.9264 0.73438 3.0586a25.79 25.79 0 0 0-1.9238-0.18945 25.862 25.862 0 0 0-1.4941-1.2246c0.49829-0.36304 0.98954-0.68409 1.4707-0.97461a0.42635 0.42635 0 0 0 0.66407-0.35352 0.42635 0.42635 0 0 0 0-0.0137c0.1822-0.0988 0.37137-0.21588 0.54882-0.30273zm-2.9531 1.8438a25.136 25.136 0 0 1 1.2441 1 29.072 29.072 0 0 0-1.2441-0.02735c-0.42184 0-0.83602 0.01-1.2441 0.0273 0.41566-0.35554 0.83104-0.68981 1.2441-1zm0 1.291c0.54499 0 1.0905 0.017 1.6348 0.0488a27.961 27.961 0 0 1 1.0058 0.94727 0.37287 0.37287 0 0 0-0.0234 0.1289 0.37287 0.37287 0 0 0 0.49609 0.35157 27.961 27.961 0 0 1 0.83203 0.88281c0.0312 0.53302 0.0469 1.0792 0.0469 1.6348 0 0.55576-0.0157 1.1001-0.0469 1.6328a27.969 27.969 0 0 1-2.3105 2.3125c-1.0885 0.0637-2.1811 0.0637-3.2695 0a27.969 27.969 0 0 1-2.3105-2.3125 27.981 27.981 0 0 1 0-3.2676 27.961 27.961 0 0 1 1.1211-1.1894 27.969 27.969 0 0 1 1.1894-1.1211c0.54424-0.0319 1.0898-0.0488 1.6348-0.0488zm-2.1504 0.084a28.91 28.91 0 0 0-0.89844 0.85937 29.077 29.077 0 0 0-0.86133 0.90039c0.0425-0.54536 0.10107-1.0745 0.17383-1.5859 0.51147-0.0728 1.0406-0.13134 1.5859-0.17383zm4.3008 0c0.54537 0.0425 1.0745 0.10106 1.5859 0.17383 0.0728 0.51147 0.13135 1.0406 0.17383 1.5859a28.91 28.91 0 0 0-0.56836-0.5957 0.37287 0.37287 0 0 0 0.0215-0.12305 0.37287 0.37287 0 0 0-0.49219-0.35351 29.077 29.077 0 0 0-0.7207-0.6875zm-6.2188 0.22265a25.878 25.878 0 0 0-0.18945 1.9238 25.811 25.811 0 0 0-1.2266 1.4922c-0.2427-0.33313-0.45136-0.65799-0.6621-0.98437a0.31969 0.31969 0 0 0 0.0527-0.17579 0.31969 0.31969 0 0 0-0.36914-0.31445c-0.24806-0.41118-0.47491-0.81672-0.66602-1.207 0.89429-0.30643 1.9284-0.5566 3.0605-0.73438zm8.1367 0c1.1322 0.17793 2.1663 0.42795 3.0606 0.73438-0.14167 0.28933-0.32091 0.59318-0.49414 0.89453a0.31969 0.31969 0 0 0-0.23438 0.30859 0.31969 0.31969 0 0 0 0.0137 0.0918c-0.27782 0.45452-0.58777 0.91732-0.92968 1.3867a25.862 25.862 0 0 0-1.2266-1.4922c-0.041-0.66438-0.10493-1.3078-0.18945-1.9238zm-11.5 0.8418c0.20426 0.42244 0.44944 0.86003 0.71875 1.3047a0.31969 0.31969 0 0 0-0.0215 0.10937 0.31969 0.31969 0 0 0 0.29883 0.32032c0.236 0.36723 0.47363 0.73581 0.75 1.1113-0.72269 0.98196-1.3101 1.9425-1.7461 2.8438-0.42896-0.15898-0.81526-0.33329-1.168-0.51758a0.29302 0.29302 0 0 0 2e-3 -0.0274 0.29302 0.29302 0 0 0-0.46289-0.23828c-0.97152-0.6027-1.543-1.3053-1.543-2.0606 0-1.1124 1.2164-2.1209 3.1719-2.8457zm14.863 0c1.9555 0.7248 3.1719 1.7333 3.1719 2.8457 0 1.1124-1.2165 2.1191-3.1719 2.8438-0.43599-0.90122-1.0234-1.8618-1.7461-2.8438 0.35755-0.48582 0.6812-0.96661 0.9707-1.4375a0.31969 0.31969 0 0 0 0.38281-0.3125 0.31969 0.31969 0 0 0-0.0879-0.2207c0.16637-0.29366 0.34358-0.5919 0.48047-0.875zm-7.4785 0.66797c-1.2358 0-2.2383 1.0023-2.2383 2.2383 0 1.2358 1.0025 2.2383 2.2383 2.2383 1.236 0 2.2383-1.0025 2.2383-2.2383 0-1.236-1.0023-2.2383-2.2383-2.2383zm-4.2383 0.93164a29.072 29.072 0 0 0-0.0273 1.2461c0 0.42183 0.01 0.83603 0.0273 1.2442a25.049 25.049 0 0 1-0.99804-1.2442 25.136 25.136 0 0 1 0.99804-1.2461zm8.5703 0a25.049 25.049 0 0 1 0.99804 1.2461 25.049 25.049 0 0 1-0.99804 1.2442c0.0176-0.40812 0.0273-0.82231 0.0273-1.2442 0-0.42182-0.01-0.83796-0.0273-1.2461zm-9.7695 1.5156c0.38975 0.51298 0.79946 1.0117 1.2266 1.4941 0.041 0.66438 0.10493 1.3058 0.18945 1.9219-1.1322-0.17793-2.1663-0.42599-3.0605-0.73242 0.41566-0.84894 0.96976-1.7572 1.6445-2.6836zm10.969 0c0.67477 0.92637 1.2289 1.8346 1.6445 2.6836-0.89428 0.30643-1.9284 0.55449-3.0606 0.73242 0.0845-0.61603 0.14847-1.2575 0.18945-1.9219a25.862 25.862 0 0 0 1.2266-1.4941zm-9.3945 1.8809a29.077 29.077 0 0 0 0.86133 0.89843c0.29829 0.29829 0.59743 0.58518 0.89844 0.86133-0.54537-0.0425-1.0745-0.10106-1.5859-0.17383a25.116 25.116 0 0 1-0.17383-1.5859zm7.8203 0c-0.0423 0.54537-0.10107 1.0745-0.17383 1.5859-0.51147 0.0728-1.0406 0.13134-1.5859 0.17383a29.077 29.077 0 0 0 0.89844-0.86133c0.29829-0.2983 0.58518-0.59742 0.86133-0.89843zm-11.176 1.0938c0.94549 0.32903 2.0409 0.5922 3.2461 0.77539 0.18335 1.2055 0.44636 2.3006 0.77539 3.2461-1.8746 0.86085-3.4297 1.0099-4.2246 0.25195a0.3462 0.3462 0 0 0 0.0156-0.10351 0.3462 0.3462 0 0 0-0.33594-0.34571c-0.42307-0.86103-0.21133-2.224 0.52344-3.8242zm14.531 0c0.18448 0.40167 0.32978 0.78412 0.44727 1.1523a0.46432 0.46432 0 0 0-0.16601 0.35351 0.46432 0.46432 0 0 0 0.38085 0.45704c0.18854 0.99573 0.0632 1.7962-0.42968 2.2891-0.78657 0.78657-2.3587 0.63986-4.2539-0.23047 0.32903-0.94551 0.59204-2.0407 0.77539-3.2461 1.2052-0.18319 2.3007-0.44636 3.2461-0.77539zm-10.953 0.82421c0.61587 0.0847 1.2593 0.14848 1.9238 0.18946a25.813 25.813 0 0 0 1.4941 1.2266c-0.0964 0.0702-0.18919 0.12379-0.28516 0.19141a0.37302 0.37302 0 0 0-0.58398 0.31445 0.37302 0.37302 0 0 0 8e-3 0.0703c-0.62467 0.40991-1.2399 0.78334-1.8223 1.0684-0.30643-0.89413-0.55661-1.9284-0.73438-3.0606zm7.375 0c-0.17777 1.1322-0.42794 2.1664-0.73438 3.0606-0.84894-0.4155-1.7572-0.9696-2.6836-1.6445 0.51298-0.38974 1.0118-0.79946 1.4941-1.2266 0.66454-0.041 1.308-0.10479 1.9238-0.18946zm-4.9316 0.2168c0.40812 0.0175 0.8223 0.0273 1.2441 0.0273 0.42183 0 0.83602-0.01 1.2441-0.0273a25.136 25.136 0 0 1-1.2441 0.99804 25.136 25.136 0 0 1-1.2441-0.99805zm1.2441 1.4004c0.98196 0.72269 1.9424 1.3102 2.8438 1.7461-0.7248 1.9555-1.7313 3.1699-2.8438 3.1699s-2.119-1.2144-2.8438-3.1699c0.61196-0.29591 1.2553-0.68648 1.9102-1.1172a0.37302 0.37302 0 0 0 0.54101-0.33985 0.37302 0.37302 0 0 0-2e-3 -0.0215c0.13264-0.0932 0.26103-0.16931 0.39453-0.26758z" enable-background="new" opacity=".1" stroke="#000" stroke-width=".5" style="isolation:isolate"/>
 <g transform="translate(-320 -132.17)" enable-background="new">
  <path d="m343.43 150.84c-0.43599-0.90122-1.024-1.8622-1.7467-2.8442 0.72269-0.98196 1.3107-1.943 1.7465-2.8444 1.9555 0.7248 3.1708 1.7319 3.1708 2.8444s-1.2153 2.1196-3.1707 2.8442zm0.0652 4.6531c-0.78657 0.78657-2.358 0.63938-4.2533-0.23095 0.32903-0.94551 0.59282-2.0409 0.77617-3.2463 1.2052-0.18319 2.3008-0.44699 3.2462-0.77602 0.87032 1.8951 1.0175 3.4667 0.23095 4.2533m-7.4973 3.1054c-1.1124 0-2.1196-1.2153-2.8444-3.1708 0.90136-0.43585 1.8625-1.0238 2.8444-1.7465 0.98196 0.72269 1.943 1.3107 2.8444 1.7465-0.7248 1.9555-1.7319 3.1708-2.8444 3.1708zm-7.4973-3.1054c-0.78656-0.78656-0.63937-2.3582 0.23081-4.2533 0.9455 0.32903 2.0411 0.59283 3.2463 0.77602 0.18335 1.2055 0.44714 2.3008 0.77617 3.2463-1.8952 0.87033-3.4667 1.0175-4.2533 0.23095zm-3.1054-7.4973c0-1.1124 1.2153-2.1196 3.1708-2.8444 0.43584 0.90136 1.0238 1.8624 1.7465 2.8444-0.72269 0.98196-1.3107 1.943-1.7467 2.8442-1.9553-0.72465-3.1707-1.7318-3.1707-2.8442zm3.1054-7.4973c0.78657-0.78657 2.3582-0.63938 4.2533 0.23095-0.32903 0.94535-0.59282 2.0408-0.77617 3.2461-1.2052 0.18335-2.3008 0.44699-3.2463 0.77617-0.87018-1.8951-1.0174-3.4667-0.23081-4.2533zm7.4973-3.1054c1.1124 0 2.1196 1.2153 2.8444 3.1708-0.90137 0.43569-1.8625 1.0238-2.8444 1.7465-0.98182-0.72268-1.943-1.3108-2.8444-1.7465 0.72479-1.9555 1.7319-3.1708 2.8444-3.1708zm4.2584 8.8389c-0.041-0.66438-0.10501-1.3068-0.18953-1.9228 1.1322 0.17792 2.1661 0.42726 3.0604 0.73369-0.41565 0.84893-0.97051 1.7563-1.6453 2.6827a25.862 25.862 0 0 0-1.2256-1.4936zm0.0268 3.0086c0.0176-0.40812 0.0274-0.82287 0.0274-1.2447s-0.01-0.83658-0.0274-1.2447a25.049 25.049 0 0 1 0.99854 1.2447 25.049 25.049 0 0 1-0.99854 1.2447zm-0.0268 0.51916a25.862 25.862 0 0 0 1.2256-1.4936c0.67478 0.92637 1.2296 1.8338 1.6453 2.6827-0.89428 0.30643-1.9282 0.55576-3.0604 0.73369 0.0845-0.61603 0.14855-1.2584 0.18953-1.9228zm-2.1084 2.1464a29.077 29.077 0 0 0 0.89941-0.86069c0.29829-0.2983 0.58468-0.59855 0.86083-0.89956-0.0423 0.54537-0.10124 1.0748-0.174 1.5862-0.51147 0.0728-1.0409 0.13152-1.5862 0.17401zm-0.38613 0.34816c0.66454-0.041 1.3069-0.10486 1.9228-0.18953-0.17777 1.1322-0.42725 2.1661-0.73368 3.0602-0.84894-0.4155-1.7563-0.97021-2.6827-1.6451 0.51298-0.38974 1.0112-0.79847 1.4936-1.2256m-3.0086 0.0268c0.40812 0.0175 0.82287 0.0273 1.2447 0.0273 0.42183 0 0.83658-0.01 1.2447-0.0273a25.136 25.136 0 0 1-1.2447 0.99854 25.136 25.136 0 0 1-1.2447-0.99854zm-0.51915-0.0268a25.813 25.813 0 0 0 1.4937 1.2256c-0.92652 0.67493-1.8339 1.2296-2.6828 1.6451-0.30643-0.89413-0.55591-1.9281-0.73368-3.0602 0.61587 0.0847 1.2583 0.14855 1.9228 0.18953zm-2.1464-2.1084a29.077 29.077 0 0 0 0.86069 0.89941c0.29829 0.29829 0.59854 0.58469 0.89955 0.86084-0.54537-0.0425-1.0748-0.10124-1.5862-0.17401a25.116 25.116 0 0 1-0.174-1.5862zm-0.34816-0.38612c0.041 0.66438 0.105 1.3068 0.18952 1.9228-1.1322-0.17793-2.1661-0.42726-3.0604-0.73369 0.41566-0.84894 0.97052-1.7563 1.6453-2.6827 0.38974 0.51298 0.79846 1.0112 1.2256 1.4936zm-0.0268-3.0086a29.072 29.072 0 0 0-0.02744 1.2447c0 0.42183 0.01 0.83658 0.0274 1.2447a25.049 25.049 0 0 1-0.99851-1.2447 25.136 25.136 0 0 1 0.99853-1.2447m0.0268-0.51915a25.811 25.811 0 0 0-1.2256 1.4936c-0.67493-0.92638-1.2296-1.8338-1.6453-2.6827 0.89429-0.30643 1.9282-0.55592 3.0604-0.73369a25.878 25.878 0 0 0-0.18952 1.9228zm2.1084-2.1464a28.91 28.91 0 0 0-0.89955 0.86084 29.077 29.077 0 0 0-0.86069 0.8994c0.0425-0.54536 0.10124-1.0748 0.174-1.5862 0.51147-0.0728 1.0409-0.13152 1.5862-0.17401zm0.38613-0.34816c-0.66454 0.041-1.3069 0.10485-1.9228 0.18952 0.17777-1.1322 0.42725-2.1661 0.73368-3.0604 0.84894 0.41566 1.7563 0.97037 2.6827 1.6453a25.862 25.862 0 0 0-1.4936 1.2256m3.0086-0.0268a29.072 29.072 0 0 0-1.2447-0.0274c-0.42184 0-0.83659 0.01-1.2447 0.0274 0.41566-0.35554 0.83161-0.68834 1.2447-0.99853a25.136 25.136 0 0 1 1.2447 0.99853zm0.51915 0.0268a25.862 25.862 0 0 0-1.4936-1.2256c0.92637-0.67493 1.8338-1.2296 2.6827-1.6451 0.30643 0.89413 0.55591 1.9281 0.73368 3.0602a25.79 25.79 0 0 0-1.9228-0.18952m1.2855 1.2088a29.077 29.077 0 0 0-0.89941-0.86069c0.54537 0.0425 1.0748 0.10124 1.5862 0.17401 0.0728 0.51147 0.13152 1.0409 0.174 1.5862a28.91 28.91 0 0 0-0.86083-0.89955zm0.94356 3.0495c0 0.55576-0.0164 1.1014-0.0476 1.6341a27.969 27.969 0 0 1-2.3112 2.3112c-1.0885 0.0637-2.1798 0.0637-3.2683 0a27.969 27.969 0 0 1-2.3112-2.3112 27.981 27.981 0 0 1 0-3.2684 27.961 27.961 0 0 1 1.1219-1.1891 27.969 27.969 0 0 1 1.1893-1.1219c1.0885-0.0637 2.18-0.0637 3.2684 0a27.961 27.961 0 0 1 1.1891 1.1219 27.961 27.961 0 0 1 1.1219 1.1891c0.0312 0.53302 0.0476 1.0787 0.0476 1.6343zm3.5044-7.4973c0.78656 0.78656 0.63937 2.3582-0.2308 4.2533-0.94551-0.32918-2.0411-0.59282-3.2463-0.77617-0.18335-1.2054-0.44714-2.3006-0.77617-3.2461 1.8951-0.87033 3.4667-1.0175 4.2533-0.23095zm3.4251 7.4973c0-1.2473-1.2784-2.3543-3.3546-3.1347 0.91613-2.0201 1.0374-3.7068 0.15548-4.5886-0.88193-0.88193-2.5686-0.76081-4.5886 0.15547-0.78054-2.0762-1.8874-3.3546-3.1347-3.3546-1.2473 0-2.3543 1.2784-3.1347 3.3546-2.02-0.91628-3.7067-1.0374-4.5886-0.15547-0.88193 0.88177-0.76065 2.5685 0.15548 4.5886-2.0762 0.78039-3.3546 1.8874-3.3546 3.1347 0 1.2473 1.2784 2.3541 3.3546 3.1347-0.91628 2.02-1.0374 3.7067-0.15548 4.5886s2.5687 0.7608 4.5886-0.15547c0.78038 2.0762 1.8874 3.3546 3.1347 3.3546 1.2473 0 2.3543-1.2784 3.1347-3.3548 2.02 0.91642 3.7067 1.0376 4.5886 0.15562s0.7608-2.5686-0.15548-4.5886c2.0763-0.78054 3.3546-1.8874 3.3546-3.1347z" fill="#f34f17" stroke="#f34f17" stroke-width=".5" style="isolation:isolate"/>
  <path d="m338.19 148.06c0 1.2358-1.0018 2.2377-2.2378 2.2377-1.2358 0-2.2377-1.0018-2.2377-2.2377 0-1.236 1.0018-2.2378 2.2377-2.2378 1.236 0 2.2378 1.0018 2.2378 2.2378z" fill="#46a926" style="isolation:isolate"/>
  <path d="m338.4 141.19a0.42635 0.42635 0 1 1-0.8527-1.5e-4 0.42635 0.42635 0 0 1 0.8527 1.5e-4zm-6.7166-1.2a0.36978 0.36978 0 1 1-0.73956 0 0.36978 0.36978 0 0 1 0.73956 0zm-1.7816 6.5812a0.31969 0.31969 0 1 1-0.63938 0 0.31969 0.31969 0 0 1 0.63938 0zm14.57 6.1806a0.46432 0.46432 0 1 1-0.92863-3e-4 0.46432 0.46432 0 0 1 0.92863 3e-4zm-15.929 2.664a0.3462 0.3462 0 1 1-0.69241 0 0.3462 0.3462 0 0 1 0.69241 0zm7.0596-1.4386a0.37302 0.37302 0 1 1-0.74589 0.0151 0.37302 0.37302 0 0 1 0.74589-0.0151zm7.4327-7.7257a0.31969 0.31969 0 1 1-0.63938 0 0.31969 0.31969 0 0 1 0.63938 0zm-15.638 4.0493a0.29302 0.29302 0 1 1-0.58604 0 0.29302 0.29302 0 0 1 0.58604 0zm11.961-5.1682a0.37287 0.37287 0 1 1-0.74574 3e-4 0.37287 0.37287 0 0 1 0.74574-3e-4z" fill="#111" stroke="#111" stroke-width=".5" style="isolation:isolate"/>
 </g>
 <path d="m9.1271 1.5c-6.4516 0-7.6603 0.58409-7.6264 6.2823v8.2177 8.2178c-0.034 5.6982 1.1748 6.2823 7.6264 6.2823h13.747c6.45 0 7.6264-0.58403 7.6264-6.2823v-8.2178-8.2177c0-5.6982-1.1764-6.2823-7.6264-6.2823z" color="#000000" fill="none" opacity=".4" stroke="#000"/>
 <path d="m9.127 2c-3.2107 0-5.0326 0.19514-5.9375 0.89844-0.45247 0.35165-0.74178 0.83286-0.93359 1.6172-0.19176 0.78433-0.26386 1.8569-0.25586 3.2637v2e-3 8.2188 8.2188 2e-3c-8e-3 1.4068 0.0641 2.4794 0.25586 3.2637 0.1918 0.78431 0.48112 1.2655 0.93359 1.6172 0.90496 0.7033 2.7268 0.89844 5.9375 0.89844h13.746c3.2099 0 5.0246-0.19551 5.9258-0.89844 0.45058-0.35146 0.73805-0.83201 0.93164-1.6172 0.19363-0.7853 0.26953-1.8603 0.26953-3.2677v-8.2168-8.2168c0-1.4074-0.0759-2.4824-0.26953-3.2676-0.19359-0.78517-0.48106-1.2657-0.93164-1.6172-0.90117-0.70293-2.7159-0.89844-5.9258-0.89844zm6.498 1.0469c3.4565 0.0171 6.9142-0.0268 10.361 0.0918 0.8211 0.13276 1.8066 0.14835 2.3906 0.82617 0.67884 1.1647 0.51296 2.5878 0.56446 3.873 0.0431 6.0289 0.0678 12.067-0.0332 18.088-0.0775 0.77792-0.12055 1.6726-0.67968 2.2754-0.70249 0.51038-1.6183 0.59683-2.459 0.67383-4.0474 0.0864-8.1622 0.0456-12.24 0.0606-2.4519-0.0199-4.914 0.0317-7.3535-0.0606-0.87784-0.12055-1.915-0.14021-2.5606-0.83398-0.64775-1.0259-0.50264-2.3052-0.56054-3.4648-0.035-5.6558-0.0351-11.355 0-17.01 0.0632-1.2215-0.10864-2.5772 0.59179-3.6524 0.6025-0.62665 1.5562-0.63986 2.3594-0.77344 2.7374-0.10739 5.4808-0.0704 8.2266-0.0918 0.46403-2.9e-4 0.92855-2e-3 1.3926-2e-3z" color="#000000" fill="url(#linearGradient1688-4)"/>
</svg>
