<svg width="32" height="32" version="1" xmlns="http://www.w3.org/2000/svg">
 <defs>
  <linearGradient id="linearGradient1688" x1="320" x2="352" y1="164" y2="132" gradientTransform="rotate(90 242 -78)" gradientUnits="userSpaceOnUse">
   <stop stop-color="#948b74" offset="0"/>
   <stop stop-color="#aea795" offset="1"/>
  </linearGradient>
  <linearGradient id="linearGradient1688-4" x1="322" x2="350" y1="148" y2="148" gradientTransform="rotate(90 242 -78)" gradientUnits="userSpaceOnUse">
   <stop stop-color="#fff" offset="0"/>
   <stop stop-color="#fff" stop-opacity=".098039" offset=".125"/>
   <stop stop-color="#fff" stop-opacity=".098039" offset=".925"/>
   <stop stop-color="#fff" stop-opacity=".49804" offset="1"/>
  </linearGradient>
  <linearGradient id="linearGradient1276" x1="344" x2="366" y1="94" y2="94" gradientTransform="matrix(.71429 0 0 .71429 -244.57 -76.143)" gradientUnits="userSpaceOnUse">
   <stop stop-color="#fff" offset="0"/>
   <stop stop-color="#fff" stop-opacity="0" offset="1"/>
  </linearGradient>
 </defs>
 <path d="m9.3009 2c-1.6395 0-2.9408 0.0308-4.045 0.19141-1.1042 0.16064-2.067 0.4726-2.7831 1.0918s-1.0805 1.4561-1.2642 2.4141c-0.18374 0.95795-0.21537 2.087-0.20733 3.5117v15.588c-9e-3 1.4213 0.0239 2.5495 0.20733 3.5058 0.18371 0.95796 0.5481 1.7949 1.2642 2.4141s1.6789 0.93115 2.7831 1.0918 2.4056 0.19141 4.045 0.19141h13.402c1.6395 0 2.9384-0.0307 4.0405-0.19141 1.1022-0.16075 2.0627-0.47425 2.7763-1.0938 0.71357-0.6195 1.0746-1.4536 1.2597-2.4102 0.18515-0.95653 0.22086-2.084 0.22086-3.5078v-15.594c0-1.4238-0.0358-2.5513-0.22086-3.5078-0.18512-0.95653-0.54612-1.7906-1.2597-2.4102-0.71359-0.61951-1.6741-0.933-2.7763-1.0938-1.1022-0.16076-2.401-0.19141-4.0405-0.19141z" color="#000000" color-rendering="auto" dominant-baseline="auto" image-rendering="auto" opacity=".1" shape-rendering="auto" solid-color="#000000" style="font-feature-settings:normal;font-variant-alternates:normal;font-variant-caps:normal;font-variant-ligatures:normal;font-variant-numeric:normal;font-variant-position:normal;isolation:auto;mix-blend-mode:normal;shape-padding:0;text-decoration-color:#000000;text-decoration-line:none;text-decoration-style:solid;text-indent:0;text-orientation:mixed;text-transform:none;white-space:normal"/>
 <path d="m9.1271 1.5c-6.4516 0-7.6603 0.58409-7.6264 6.2823v16.435c-0.034 5.6982 1.1748 6.2823 7.6264 6.2823h13.747c6.45 0 7.6264-0.58403 7.6264-6.2823v-16.435c0-5.6982-1.1764-6.2823-7.6264-6.2823z" color="#000000" fill="url(#linearGradient1688)"/>
 <path d="m23.491 1.5098-21.99 21.99v0.7168c0 5.6982 1.175 6.2832 7.625 6.2832h13.748c6.4516 0 7.6589-0.58502 7.625-6.2832v-16.436c0.0328-5.4967-1.1372-6.2262-7.0078-6.2715z" enable-background="new" fill="#fff" opacity=".05"/>
 <path d="m12.012 7.002c-1.887 0.022-3.2654-0.045-4.3945 0.57813-0.56454 0.31148-1.0109 0.83822-1.2578 1.4961-0.24697 0.65786-0.3321 1.4376-0.33594 2.4238l-0.0117 3.5h0.0117c-7e-3 0.17131-0.0274 0.31668-0.0274 0.50195v5c0 0.98625 0.089 1.766 0.33594 2.4238 0.24695 0.65783 0.69325 1.1846 1.2578 1.4961 0.80741 0.4455 1.7464 0.5377 2.9043 0.5625l9.5098 0.01562c1.887-0.0218 3.2674 0.0448 4.3965-0.57812 0.56454-0.31146 1.0109-0.83827 1.2578-1.4961 0.24694-0.65786 0.33994-1.4375 0.33594-2.4238l-0.02148-5.502h0.0234v-1.5c0-0.98627-0.089-1.766-0.33593-2.4238-0.24692-0.65785-0.69326-1.1846-1.2578-1.4961-0.85241-0.47045-1.8519-0.54744-3.1016-0.56641-0.40394-7e-3 -0.83613-7e-3 -1.2969-0.0117h-4.0195l-2-2h-1.9648z" color="#000000" color-rendering="auto" image-rendering="auto" opacity=".1" shape-rendering="auto" solid-color="#000000" stroke="#000" stroke-linejoin="round" stroke-width="2" style="isolation:auto;mix-blend-mode:normal;shape-padding:0;text-decoration-color:#000000;text-decoration-line:none;text-decoration-style:solid;text-indent:0;text-transform:none;white-space:normal"/>
 <path d="m12.012 8.002c-1.887 0.022-3.2654-0.045-4.3945 0.57813-0.56454 0.31148-1.0109 0.83822-1.2578 1.4961-0.24697 0.65786-0.3321 1.4376-0.33594 2.4238l-0.0117 3.5h0.0117c-7e-3 0.17131-0.0274 0.31668-0.0274 0.50195v5c0 0.98625 0.089 1.766 0.33594 2.4238 0.24695 0.65783 0.69325 1.1846 1.2578 1.4961 0.80741 0.4455 1.7464 0.5377 2.9043 0.5625l9.5098 0.01562c1.887-0.0218 3.2674 0.0448 4.3965-0.57812 0.56454-0.31146 1.0109-0.83827 1.2578-1.4961 0.24694-0.65786 0.33994-1.4375 0.33594-2.4238l-0.02148-5.502h0.0234v-1.5c0-0.98627-0.089-1.766-0.33593-2.4238-0.24692-0.65785-0.69326-1.1846-1.2578-1.4961-0.85241-0.47045-1.8519-0.54744-3.1016-0.56641-0.40394-7e-3 -0.83613-7e-3 -1.2969-0.0117h-4.0195l-2-2h-1.9648z" color="#000000" color-rendering="auto" image-rendering="auto" opacity=".1" shape-rendering="auto" solid-color="#000000" style="isolation:auto;mix-blend-mode:normal;shape-padding:0;text-decoration-color:#000000;text-decoration-line:none;text-decoration-style:solid;text-indent:0;text-transform:none;white-space:normal"/>
 <path d="m12.013 7.0013c-1.887 0.022-3.2652-0.045-4.3942 0.57808-0.56454 0.31148-1.0108 0.83812-1.2577 1.496-0.24696 0.65786-0.33205 1.4393-0.33589 2.4256l-0.012 3.4998h19.983v-1.4999c0-0.98627-0.089-1.7678-0.33592-2.4256-0.24692-0.65785-0.69315-1.1845-1.2577-1.496-1.1288-0.62298-2.5108-0.55624-4.3978-0.57808h-4.0193l-1.9999-1.9999h-1.9647z" color="#000000" color-rendering="auto" fill="#e3dfd5" image-rendering="auto" shape-rendering="auto" solid-color="#000000" style="isolation:auto;mix-blend-mode:normal;shape-padding:0;text-decoration-color:#000000;text-decoration-line:none;text-decoration-style:solid;text-indent:0;text-transform:none;white-space:normal"/>
 <path d="m19.977 9.001c1.887 0.022 3.2678-0.0438 4.3969 0.57928 0.56453 0.31148 1.0112 0.83754 1.2581 1.4954 0.24697 0.65785 0.3323 1.4385 0.33614 2.4248l0.0272 7.0008c4e-3 0.98629-0.0892 1.7662-0.33614 2.424-0.24694 0.65783-0.69359 1.1854-1.2581 1.4968-1.1291 0.62297-2.5099 0.556-4.3969 0.57782h2e-4l-9.5091-0.016c-1.1579-0.0248-2.0977-0.11619-2.9051-0.5617-0.56456-0.31148-1.0112-0.83904-1.2581-1.4969-0.24694-0.65784-0.33615-1.4377-0.33615-2.424v-4.9999c0-0.98627 0.0892-1.7669 0.33615-2.4247 0.24695-0.65786 0.69357-1.1847 1.2581-1.4961 1.1291-0.62297 2.5098-0.55672 4.3969-0.57855l2.0178-1e-3 1.9999-1.9999h3.9739z" color="#000000" color-rendering="auto" fill="#faf8f6" image-rendering="auto" shape-rendering="auto" solid-color="#000000" style="isolation:auto;mix-blend-mode:normal;shape-padding:0;text-decoration-color:#000000;text-decoration-line:none;text-decoration-style:solid;text-indent:0;text-transform:none;white-space:normal"/>
 <path d="m12.012 7.002c-1.887 0.022-3.2654-0.045-4.3945 0.57813-0.56454 0.31148-1.0109 0.83822-1.2578 1.4961-0.24697 0.65786-0.3321 1.4376-0.33594 2.4238l-0.0117 3.5h4e-3l8e-3 -2.5c4e-3 -0.98627 0.089-1.766 0.33594-2.4238 0.24695-0.65787 0.69327-1.1846 1.2578-1.4961 1.1291-0.62308 2.5075-0.55613 4.3945-0.57813h1.9728l2 2h4.0195c1.887 0.0218 3.2696-0.0448 4.3984 0.57813 0.56456 0.31146 1.0109 0.83824 1.2578 1.4961 0.24692 0.65783 0.33593 1.4376 0.33593 2.4238v-1c0-0.98627-0.089-1.766-0.33593-2.4238-0.24692-0.65785-0.69326-1.1846-1.2578-1.4961-1.1288-0.62298-2.5114-0.55629-4.3984-0.57813h-4.0195l-2-2h-1.9648z" color="#000000" color-rendering="auto" fill="#fff" image-rendering="auto" opacity=".4" shape-rendering="auto" solid-color="#000000" style="isolation:auto;mix-blend-mode:normal;shape-padding:0;text-decoration-color:#000000;text-decoration-line:none;text-decoration-style:solid;text-indent:0;text-transform:none;white-space:normal"/>
 <path d="m9.1271 1.5c-6.4516 0-7.6603 0.58409-7.6264 6.2823v16.435c-0.034 5.6982 1.1748 6.2823 7.6264 6.2823h13.747c6.45 0 7.6264-0.58403 7.6264-6.2823v-16.435c0-5.6982-1.1764-6.2823-7.6264-6.2823z" color="#000000" fill="none" opacity=".4" stroke="#000"/>
 <path d="m9.127 2c-3.2107 0-5.0326 0.19514-5.9375 0.89844-0.45247 0.35165-0.74178 0.83286-0.93359 1.6172-0.19176 0.78433-0.26386 1.8569-0.25586 3.2637v16.442c-8e-3 1.4068 0.0641 2.4794 0.25586 3.2637 0.1918 0.78431 0.48112 1.2655 0.93359 1.6172 0.90496 0.7033 2.7268 0.89844 5.9375 0.89844h13.746c3.2099 0 5.0246-0.19551 5.9258-0.89844 0.45058-0.35146 0.73805-0.83201 0.93164-1.6172 0.19363-0.7853 0.26953-1.8603 0.26953-3.2677v-16.434c0-1.4074-0.0759-2.4824-0.26953-3.2676-0.19359-0.78517-0.48106-1.2657-0.93164-1.6172-0.90117-0.70293-2.7159-0.89844-5.9258-0.89844zm6.498 1.0469c3.4565 0.0171 6.9142-0.0268 10.361 0.0918 0.8211 0.13276 1.8066 0.14835 2.3906 0.82617 0.67884 1.1647 0.51296 2.5878 0.56446 3.873 0.0431 6.0289 0.0678 12.067-0.0332 18.088-0.0775 0.77792-0.12055 1.6726-0.67968 2.2754-0.70249 0.51038-1.6183 0.59683-2.459 0.67383-4.0474 0.0864-8.1622 0.0456-12.24 0.0606-2.4519-0.0199-4.914 0.0317-7.3535-0.0606-0.87784-0.12055-1.915-0.14021-2.5606-0.83398-0.64775-1.0259-0.50264-2.3052-0.56054-3.4648-0.035-5.6558-0.0351-11.355 0-17.01 0.0632-1.2215-0.10864-2.5772 0.59179-3.6524 0.6025-0.62665 1.5562-0.63986 2.3594-0.77344 2.7374-0.10739 5.4808-0.0704 8.2266-0.0918 0.46403-2.9e-4 0.92855-2e-3 1.3926-2e-3z" color="#000000" fill="url(#linearGradient1688-4)"/>
 <circle cx="18.5" cy="18.5" r="1.5" enable-background="new" fill="#fff"/>
 <circle cx="23" cy="23" r="8.5" fill="#e95420" stroke="#000" stroke-dashoffset="1" stroke-linecap="round" stroke-linejoin="round" stroke-opacity=".4"/>
 <circle transform="rotate(90)" cx="23" cy="-23" r="7.5" fill="none" opacity=".3" stroke="url(#linearGradient1276)" stroke-dashoffset="1" stroke-linecap="round" stroke-linejoin="round" stroke-opacity=".4"/>
 <path d="m23.981 17-1.9742 1.4e-4v1.313c0.65114-0.13405 1.323-0.13277 1.9742 4e-3v-1.3167zm-4.0394 0.89513-1.5041 1.2818 0.74101 0.88533c0.41204-0.5232 0.92701-0.95585 1.513-1.2712zm6.0965 0.0096-0.74464 0.88981c0.04298 0.02205 0.08562 0.04471 0.12792 0.06804 0.53296 0.31039 1.0024 0.71934 1.3834 1.2051l0.75385-0.90045zm-8.7075 3.1703-0.33042 1.9512 1.1365 0.20103c-0.02048-0.66657 0.09566-1.33 0.34132-1.9493zm11.314 2e-3 -1.1421 0.20188c0.2475 0.61888 0.36585 1.2818 0.34774 1.9479l1.1496-0.20277zm-10.262 3.5295-1.0136 0.58686h-3.37e-4l0.99826 1.7074 1.0036-0.5807c-0.44254-0.49775-0.77878-1.0809-0.98794-1.7136zm9.2256 2e-3c-0.10212 0.31746-0.23652 0.6235-0.40108 0.91332-0.16562 0.2871-0.3601 0.55646-0.58041 0.80385l1.0041 0.58126 0.97618-1.7203zm-7.1677 2.6101-0.40109 1.1043 1.8596 0.66497 0.39439-1.0866c-0.60839-0.0893-1.1946-0.29338-1.7275-0.60143-0.04222-0.0264-0.08402-0.05346-0.12541-0.08119zm5.11 0.0115c-0.56586 0.34992-1.1976 0.57959-1.856 0.67478l0.39772 1.0951 1.8507-0.68906z" color="#000000" fill="#fff"/>
 <path d="m22.981 18.298a4.7059 4.7173 0 0 0-4.7057 4.7172 4.7059 4.7173 0 0 0 4.7057 4.7172 4.7059 4.7173 0 0 0 4.7057-4.7172 4.7059 4.7173 0 0 0-4.7057-4.7172zm0 0.62881a4.0784 4.0884 0 0 1 4.0785 4.0884 4.0784 4.0884 0 0 1-4.0785 4.0884 4.0784 4.0884 0 0 1-4.0784-4.0884 4.0784 4.0884 0 0 1 4.0784-4.0884z" enable-background="new" fill="#fff" stroke="#fff" stroke-linecap="round" stroke-linejoin="round" stroke-width=".68627"/>
</svg>
