<svg width="32" height="32" version="1" xmlns="http://www.w3.org/2000/svg" xmlns:xlink="http://www.w3.org/1999/xlink">
 <defs>
  <linearGradient id="linearGradient924" x1="459.03" x2="35.31" y1="419.23" y2="207.37" gradientTransform="matrix(.072088 0 0 .072086 -1.8186 -6.1291)" gradientUnits="userSpaceOnUse">
   <stop stop-color="#fb7c38" offset="0"/>
   <stop stop-color="#9b33ae" offset="1"/>
  </linearGradient>
  <linearGradient id="linearGradient969" x1="336" x2="336" y1="136" y2="160" gradientTransform="rotate(90 336 148)" gradientUnits="userSpaceOnUse">
   <stop stop-color="#fff" offset="0"/>
   <stop stop-color="#fff" stop-opacity=".098039" offset=".125"/>
   <stop stop-color="#fff" stop-opacity=".098039" offset=".925"/>
   <stop stop-color="#fff" stop-opacity=".49804" offset="1"/>
  </linearGradient>
  <clipPath id="clipPath959">
   <path d="m330.19 134c-5.6154 0-6.2196 0.57678-6.1921 6.2035v7.7965 7.7965c-0.0276 5.6267 0.57668 6.2035 6.1921 6.2035h11.615c5.6154 0 6.1921-0.5767 6.1921-6.2035v-7.7965-7.7965c0-5.6268-0.5767-6.2035-6.1921-6.2035z" color="#000000" fill="#46a926"/>
  </clipPath>
 </defs>
 <path d="m0.99951 23.806c0 1.421 0.0308 2.5488 0.19141 3.5059 0.16064 0.95703 0.4726 1.7915 1.0918 2.4121s1.4561 0.93647 2.4141 1.0957c0.95795 0.15924 2.087 0.18666 3.5117 0.17969h7.791 7.7969c1.4213 7e-3 2.5495-0.0207 3.5058-0.17969 0.95796-0.15923 1.7949-0.47505 2.4141-1.0957s0.93115-1.4551 1.0918-2.4121c0.16065-0.95703 0.19141-2.0849 0.19141-3.5059v-11.615c0-1.421-0.0307-2.5467-0.19141-3.502-0.16075-0.95527-0.47425-1.7878-1.0938-2.4062-0.6195-0.61845-1.4536-0.93134-2.4102-1.0918-0.95653-0.16046-2.084-0.19141-3.5078-0.19141h-7.7969-7.7969c-1.4238 0-2.5513 0.031-3.5078 0.19141-0.95653 0.16045-1.7906 0.47334-2.4102 1.0918-0.61951 0.61846-0.933 1.451-1.0938 2.4062-0.16076 0.95527-0.19141 2.081-0.19141 3.502z" color="#000000" color-rendering="auto" dominant-baseline="auto" image-rendering="auto" opacity=".1" shape-rendering="auto" solid-color="#000000" style="font-feature-settings:normal;font-variant-alternates:normal;font-variant-caps:normal;font-variant-ligatures:normal;font-variant-numeric:normal;font-variant-position:normal;isolation:auto;mix-blend-mode:normal;shape-padding:0;text-decoration-color:#000000;text-decoration-line:none;text-decoration-style:solid;text-indent:0;text-orientation:mixed;text-transform:none;white-space:normal"/>
 <path d="m8.2031 4.5c-1.4145-7e-3 -2.5227 0.024-3.4238 0.17383-0.90165 0.14987-1.6192 0.43041-2.1406 0.95312-0.52148 0.52272-0.8018 1.2411-0.95312 2.1426-0.0612 0.3645-0.0927 0.79158-0.1211 1.2305-0.0418 0.64654-0.0645 1.352-0.0645 2.1934v11.615c0 1.4124 0.0342 2.5185 0.18555 3.418 0.15137 0.8995 0.43149 1.616 0.95312 2.1367s1.2377 0.80004 2.1387 0.95117c0.90094 0.15113 2.0106 0.18555 3.4258 0.18555h7.7969 7.7969c1.4152 0 2.5248-0.0344 3.4258-0.18555 0.90093-0.15113 1.617-0.43042 2.1387-0.95117 0.52163-0.52075 0.80175-1.2372 0.95312-2.1367s0.18555-2.0056 0.18555-3.418v-11.615c0-0.84132-0.0246-1.5468-0.0664-2.1934-0.0284-0.43888-0.0579-0.86598-0.11914-1.2305-0.15132-0.90145-0.43164-1.6199-0.95312-2.1426-0.52148-0.5227-1.239-0.80325-2.1406-0.95312-0.90164-0.14988-2.0101-0.18075-3.4258-0.17383h-7.7949z" color="#000000" fill="url(#linearGradient924)"/>
 <path d="m7.3684 4.5c-1.1972 1e-3 -2.1505 0.0325-2.9299 0.18067-0.79432 0.151-1.4419 0.43373-1.9174 0.97169-0.47566 0.53815-0.72611 1.2729-0.85958 2.1717-0.0475 0.31993-0.078 0.6755-0.10232 1.0498-0.0438 0.67605-0.0593 1.4374-0.0593 2.3316v11.587c0 1.3893 0.0283 2.4842 0.16156 3.3838 0.13344 0.9007 0.38327 1.6355 0.85851 2.1753 0.47535 0.53995 1.1244 0.82436 1.9195 0.97414 0.79371 0.14951 1.7608 0.18013 2.9892 0.17334l0.57125 6.2e-4v-25z" enable-background="new" opacity=".3"/>
 <path d="m1.4995 22.806c0 1.4124 0.0342 2.5224 0.18555 3.4238 0.15132 0.90145 0.43164 1.6199 0.95312 2.1426 0.52148 0.5227 1.239 0.80325 2.1406 0.95312 0.90164 0.14988 2.0101 0.18075 3.4258 0.17383h7.7949 7.7969c1.4145 7e-3 2.5227-0.024 3.4238-0.17383 0.90165-0.14987 1.6192-0.43041 2.1406-0.95312 0.52148-0.52272 0.8018-1.2411 0.95312-2.1426s0.18555-2.0114 0.18555-3.4238v-11.615c0-1.4124-0.0342-2.5185-0.18555-3.418-0.15137-0.8995-0.43149-1.616-0.95312-2.1367s-1.2377-0.80004-2.1387-0.95117c-0.90094-0.15113-2.0106-0.18555-3.4258-0.18555h-7.7969-7.7969c-1.4152 0-2.5248 0.0344-3.4258 0.18555-0.90093 0.15113-1.617 0.43042-2.1387 0.95117-0.52163 0.52075-0.80175 1.2372-0.95312 2.1367s-0.18555 2.0056-0.18555 3.418z" color="#000000" fill="none" opacity=".4" stroke="#000"/>
 <path transform="rotate(-90 110.5 242.5)" d="m330.19 134c-5.6154 0-6.2196 0.57678-6.1921 6.2035v7.7965 7.7965c-0.0276 5.6267 0.57668 6.2035 6.1921 6.2035h11.615c5.6154 0 6.1921-0.5767 6.1921-6.2035v-7.7965-7.7965c0-5.6268-0.5767-6.2035-6.1921-6.2035z" clip-path="url(#clipPath959)" color="#000000" fill="none" opacity=".3" stroke="url(#linearGradient969)" stroke-width="2"/>
</svg>
