<svg width="32" height="32" version="1" xmlns="http://www.w3.org/2000/svg" xmlns:xlink="http://www.w3.org/1999/xlink">
 <defs>
  <linearGradient id="linearGradient1688" x1="321.5" x2="350.5" y1="148" y2="148" gradientTransform="rotate(90 242 -78)" gradientUnits="userSpaceOnUse">
   <stop stop-color="#2f5fdd" offset="0"/>
   <stop stop-color="#5884f4" offset="1"/>
  </linearGradient>
  <linearGradient id="linearGradient1004-8" x1="344" x2="344" y1="62" y2="106" gradientUnits="userSpaceOnUse">
   <stop stop-color="#fff" offset="0"/>
   <stop stop-color="#fff" stop-opacity=".098039" offset=".125"/>
   <stop stop-color="#fff" stop-opacity=".098039" offset=".925"/>
   <stop stop-color="#fff" stop-opacity=".49804" offset="1"/>
  </linearGradient>
  <clipPath id="clipPath994-1">
   <path d="m335.73 62c-8.8242 0-9.7736 0.90635-9.7304 9.7484v12.252 12.252c-0.0433 8.842 0.90622 9.7484 9.7304 9.7484h16.539c8.8242 0 9.7304-0.90625 9.7304-9.7484v-12.252-12.252c0-8.8421-0.90622-9.7484-9.7304-9.7484z" color="#000000" fill="#cdcdcd"/>
  </clipPath>
 </defs>
 <path d="m9.0775 2c-1.6942 0-3.0389 0.0308-4.1799 0.19141-1.141 0.16064-2.1359 0.4726-2.8759 1.0918s-1.1165 1.4561-1.3064 2.4141c-0.18986 0.95795-0.22255 2.087-0.21424 3.5117v7.791 7.7969c-9e-3 1.4213 0.0247 2.5495 0.21424 3.5058 0.18984 0.95796 0.56638 1.7949 1.3064 2.4141s1.7348 0.93115 2.8759 1.0918c1.141 0.16065 2.4858 0.19141 4.1799 0.19141h13.848c1.6942 0 3.0363-0.0307 4.1752-0.19141 1.1389-0.16075 2.1315-0.47425 2.8689-1.0938 0.73736-0.6195 1.1104-1.4536 1.3017-2.4102 0.19132-0.95653 0.22822-2.084 0.22822-3.5078v-7.7969-7.7969c0-1.4238-0.037-2.5513-0.22822-3.5078-0.19129-0.95653-0.56433-1.7906-1.3017-2.4102-0.73737-0.61951-1.73-0.933-2.8689-1.0938-1.1389-0.16076-2.4811-0.19141-4.1752-0.19141z" color="#000000" color-rendering="auto" dominant-baseline="auto" image-rendering="auto" opacity=".1" shape-rendering="auto" solid-color="#000000" style="font-feature-settings:normal;font-variant-alternates:normal;font-variant-caps:normal;font-variant-ligatures:normal;font-variant-numeric:normal;font-variant-position:normal;isolation:auto;mix-blend-mode:normal;shape-padding:0;text-decoration-color:#000000;text-decoration-line:none;text-decoration-style:solid;text-indent:0;text-orientation:mixed;text-transform:none;white-space:normal"/>
 <path d="m9.1271 1.5c-6.4516 0-7.6603 0.58409-7.6264 6.2823v8.2177 8.2178c-0.034 5.6982 1.1748 6.2823 7.6264 6.2823h13.747c6.45 0 7.6264-0.58403 7.6264-6.2823v-8.2178-8.2177c0-5.6982-1.1764-6.2823-7.6264-6.2823z" color="#000000" fill="url(#linearGradient1688)"/>
 <g transform="matrix(.64444 0 0 .64444 .53338 2.2218)" enable-background="new" opacity=".1" stroke-width="1.5517">
  <path d="m26.028 7.0004-5.028 0.4969v21.282l5-0.779v-9l7 10 5.943-2-7.943-9 8-9-6-2-7 10v-10z"/>
  <path d="m14.701 13.002c-0.0615 0.0075-0.12733 0.02186-0.17383 0.06836l-2.1328 2.1191c-0.08948 0.08925-0.09898 0.22403-0.0332 0.33203l2.2676 3.7207c-0.53334 0.86612-0.9446 1.8131-1.2227 2.8164l-4.1855 0.86328c-0.1271 0.026-0.2205 0.148-0.2205 0.278v2.9922c0 0.12675 0.097403 0.23442 0.2207 0.26367l4.0586 0.97852c0.25531 1.1288 0.68686 2.1887 1.2598 3.1562l-2.3652 3.5762c-0.0717 0.10875-0.05731 0.25345 0.03516 0.3457l2.1309 2.1172c0.09 0.08925 0.22989 0.10041 0.33789 0.03516l3.6934-2.2266c0.9117 0.54494 1.9071 0.96098 2.9648 1.2246l0.86133 4.1191c0.027 0.127 0.135 0.219 0.266 0.219h3.0137c0.126 0 0.23563-0.08478 0.26563-0.20703l1.0234-4.1445c1.0661-0.27618 2.0598-0.72303 2.9746-1.2852l3.709 2.4141c0.1095 0.0705 0.2527 0.05755 0.3457-0.0332l2.1211-2.1172c0.09-0.08925 0.11092-0.22673 0.04492-0.33398l-1.4473-2.3711-0.47461 0.15039c-0.069 0.021-0.14505-0.01106-0.18555-0.07031 0 0-0.4496-0.60826-0.80664-1.0918-0.16655-0.25344-0.97368-1.4388-1.8066-2.5254-1.314 2.814-4.137 4.613-7.241 4.616-4.4183 0-8-3.5817-8-8 0.0029-3.0337 1.4205-5.7296 4-7.0803v-3.2342c-0.55787 0.20737-0.92465 0.46281-1.4355 0.75391l-3.6914-2.4004c-0.05475-0.036-0.11113-0.04311-0.17188-0.03711z"/>
 </g>
 <g transform="matrix(.64444 0 0 .64444 .53338 1.2218)" enable-background="new" fill="#faf8f6" stroke-width="1.5517">
  <path d="m26.028 7.0004-5.028 0.4969v21.282l5-0.779v-9l7 10 5.943-2-7.943-9 8-9-6-2-7 10v-10z"/>
  <path d="m14.701 13.002c-0.0615 0.0075-0.12733 0.02186-0.17383 0.06836l-2.1328 2.1191c-0.08948 0.08925-0.09898 0.22403-0.0332 0.33203l2.2676 3.7207c-0.53334 0.86612-0.9446 1.8131-1.2227 2.8164l-4.1855 0.86328c-0.1271 0.026-0.2205 0.148-0.2205 0.278v2.9922c0 0.12675 0.097403 0.23442 0.2207 0.26367l4.0586 0.97852c0.25531 1.1288 0.68686 2.1887 1.2598 3.1562l-2.3652 3.5762c-0.0717 0.10875-0.05731 0.25345 0.03516 0.3457l2.1309 2.1172c0.09 0.08925 0.22989 0.10041 0.33789 0.03516l3.6934-2.2266c0.9117 0.54494 1.9071 0.96098 2.9648 1.2246l0.86133 4.1191c0.027 0.127 0.135 0.219 0.266 0.219h3.0137c0.126 0 0.23563-0.08478 0.26563-0.20703l1.0234-4.1445c1.0661-0.27618 2.0598-0.72303 2.9746-1.2852l3.709 2.4141c0.1095 0.0705 0.2527 0.05755 0.3457-0.0332l2.1211-2.1172c0.09-0.08925 0.11092-0.22673 0.04492-0.33398l-1.4473-2.3711-0.47461 0.15039c-0.069 0.021-0.14505-0.01106-0.18555-0.07031 0 0-0.4496-0.60826-0.80664-1.0918-0.16655-0.25344-0.97368-1.4388-1.8066-2.5254-1.314 2.814-4.137 4.613-7.241 4.616-4.4183 0-8-3.5817-8-8 0.0029-3.0337 1.4205-5.7296 4-7.0803v-3.2342c-0.55787 0.20737-0.92465 0.46281-1.4355 0.75391l-3.6914-2.4004c-0.05475-0.036-0.11113-0.04311-0.17188-0.03711z"/>
 </g>
 <path d="m9.1271 1.5c-6.4516 0-7.6603 0.58409-7.6264 6.2823v8.2177 8.2178c-0.034 5.6982 1.1748 6.2823 7.6264 6.2823h13.747c6.45 0 7.6264-0.58403 7.6264-6.2823v-8.2178-8.2177c0-5.6982-1.1764-6.2823-7.6264-6.2823z" color="#000000" fill="none" opacity=".4" stroke="#000"/>
 <path transform="matrix(.7733 0 0 .63636 -250.02 -37.455)" d="m335.73 62c-8.8242 0-9.7736 0.90635-9.7304 9.7484v12.252 12.252c-0.0433 8.842 0.90622 9.7484 9.7304 9.7484h16.539c8.8242 0 9.7304-0.90625 9.7304-9.7484v-12.252-12.252c0-8.8421-0.90622-9.7484-9.7304-9.7484z" clip-path="url(#clipPath994-1)" color="#000000" fill="none" opacity=".7" stroke="url(#linearGradient1004-8)" stroke-width="2.851"/>
</svg>
