<svg width="32" height="32" version="1" xmlns="http://www.w3.org/2000/svg" xmlns:xlink="http://www.w3.org/1999/xlink">
 <defs>
  <linearGradient id="linearGradient1688" x1="321.5" x2="350.5" y1="148" y2="148" gradientTransform="rotate(90 242 -78)" gradientUnits="userSpaceOnUse">
   <stop stop-color="#76c22b" offset="0"/>
   <stop stop-color="#a6d74f" offset="1"/>
  </linearGradient>
  <linearGradient id="linearGradient1004-8" x1="344" x2="344" y1="62" y2="106" gradientUnits="userSpaceOnUse">
   <stop stop-color="#fff" offset="0"/>
   <stop stop-color="#fff" stop-opacity=".098039" offset=".125"/>
   <stop stop-color="#fff" stop-opacity=".098039" offset=".925"/>
   <stop stop-color="#fff" stop-opacity=".49804" offset="1"/>
  </linearGradient>
  <clipPath id="clipPath994-1">
   <path d="m335.73 62c-8.8242 0-9.7736 0.90635-9.7304 9.7484v12.252 12.252c-0.0433 8.842 0.90622 9.7484 9.7304 9.7484h16.539c8.8242 0 9.7304-0.90625 9.7304-9.7484v-12.252-12.252c0-8.8421-0.90622-9.7484-9.7304-9.7484z" color="#000000" fill="#cdcdcd"/>
  </clipPath>
 </defs>
 <path d="m9.0775 2c-1.6942 0-3.0389 0.0308-4.1799 0.19141-1.141 0.16064-2.1359 0.4726-2.8759 1.0918s-1.1165 1.4561-1.3064 2.4141c-0.18986 0.95795-0.22255 2.087-0.21424 3.5117v7.791 7.7969c-9e-3 1.4213 0.0247 2.5495 0.21424 3.5058 0.18984 0.95796 0.56638 1.7949 1.3064 2.4141s1.7348 0.93115 2.8759 1.0918c1.141 0.16065 2.4858 0.19141 4.1799 0.19141h13.848c1.6942 0 3.0363-0.0307 4.1752-0.19141 1.1389-0.16075 2.1315-0.47425 2.8689-1.0938 0.73736-0.6195 1.1104-1.4536 1.3017-2.4102 0.19132-0.95653 0.22822-2.084 0.22822-3.5078v-7.7969-7.7969c0-1.4238-0.037-2.5513-0.22822-3.5078-0.19129-0.95653-0.56433-1.7906-1.3017-2.4102-0.73737-0.61951-1.73-0.933-2.8689-1.0938-1.1389-0.16076-2.4811-0.19141-4.1752-0.19141z" color="#000000" color-rendering="auto" dominant-baseline="auto" image-rendering="auto" opacity=".1" shape-rendering="auto" solid-color="#000000" style="font-feature-settings:normal;font-variant-alternates:normal;font-variant-caps:normal;font-variant-ligatures:normal;font-variant-numeric:normal;font-variant-position:normal;isolation:auto;mix-blend-mode:normal;shape-padding:0;text-decoration-color:#000000;text-decoration-line:none;text-decoration-style:solid;text-indent:0;text-orientation:mixed;text-transform:none;white-space:normal"/>
 <path d="m9.1271 1.5c-6.4516 0-7.6603 0.58409-7.6264 6.2823v8.2176 8.2178c-0.034 5.6982 1.1748 6.2823 7.6264 6.2823h13.747c6.45 0 7.6264-0.58403 7.6264-6.2823v-8.2178-8.2176c0-5.6982-1.1764-6.2823-7.6264-6.2823z" color="#000000" fill="url(#linearGradient1688)"/>
 <path class="ColorScheme-Text" d="m22.298 6.7857c-4.0461 0-4.8051 6.1466-2.5286 6.1466 2.2755 0 6.5751-6.1466 2.5286-6.1466zm-6.2305 0.94497c-0.0638-3e-4 -0.13345-3.4e-4 -0.20517 0.0148-2.2928 0.28956-1.4865 4.1699-0.26587 4.2423 1.1819 0.071 2.4738-4.247 0.46816-4.2538zm-3.9764 1.4334c-0.14027-0.0148-0.29528 0.0186-0.46816 0.0897-1.843 0.75667-0.28035 3.88 0.75137 3.6701 0.93645-0.19028 1.0711-3.6716-0.28321-3.7597zm-3.0083 2.5546c-0.16018 0-0.33243 0.0499-0.51728 0.18784-1.4752 1.101 0.49599 3.7617 1.364 3.3493 0.75925-0.36117 0.27487-3.4966-0.84672-3.5372zm8.7128 2.5373c-3.1964-0.0547-7.4126 1.5675-8.132 4.826-0.77839 3.5254 3.2061 8.4181 7.3633 8.4181 2.0451 0 4.4046-1.8696 4.8462-4.2365 0.33701-1.8048-3.969-1.0812-3.8146 0.11274 0.18563 1.4315-1.0357 2.1393-2.2338 1.2166-3.8139-2.9377 6.3149-4.4047 5.6467-8.4181-0.20794-1.2494-1.758-1.886-3.6759-1.9189z" clip-rule="evenodd" enable-background="new" fill-rule="evenodd" image-rendering="optimizeQuality" opacity=".11" shape-rendering="geometricPrecision"/>
 <path class="ColorScheme-Text" d="m22.298 5.7857c-4.0461 0-4.8051 6.1466-2.5286 6.1466 2.2755 0 6.5751-6.1466 2.5286-6.1466zm-6.2305 0.94497c-0.0638-3e-4 -0.13345-3.4e-4 -0.20517 0.0148-2.2928 0.28956-1.4865 4.1699-0.26587 4.2423 1.1819 0.071 2.4738-4.247 0.46816-4.2538zm-3.9764 1.4334c-0.14027-0.0148-0.29528 0.0186-0.46816 0.0897-1.843 0.75667-0.28035 3.88 0.75137 3.6701 0.93645-0.19028 1.0711-3.6716-0.28321-3.7597zm-3.0083 2.5546c-0.16018 0-0.33243 0.0499-0.51728 0.18784-1.4752 1.101 0.49599 3.7617 1.364 3.3493 0.75925-0.36117 0.27487-3.4966-0.84672-3.5372zm8.7128 2.5373c-3.1964-0.0547-7.4126 1.5675-8.132 4.826-0.77839 3.5254 3.2061 8.4181 7.3633 8.4181 2.0451 0 4.4046-1.8696 4.8462-4.2365 0.33701-1.8048-3.969-1.0812-3.8146 0.11274 0.18563 1.4315-1.0357 2.1393-2.2338 1.2166-3.8139-2.9377 6.3149-4.4047 5.6467-8.4181-0.20794-1.2494-1.758-1.886-3.6759-1.9189z" clip-rule="evenodd" enable-background="new" fill="#faf8f6" fill-rule="evenodd" image-rendering="optimizeQuality" shape-rendering="geometricPrecision"/>
 <path d="m9.1271 1.5c-6.4516 0-7.6603 0.58409-7.6264 6.2823v8.2176 8.2178c-0.034 5.6982 1.1748 6.2823 7.6264 6.2823h13.747c6.45 0 7.6264-0.58403 7.6264-6.2823v-8.2178-8.2176c0-5.6982-1.1764-6.2823-7.6264-6.2823z" color="#000000" fill="none" opacity=".4" stroke="#000"/>
 <path transform="matrix(.7733 0 0 .63636 -250.02 -37.455)" d="m335.73 62c-8.8242 0-9.7736 0.90635-9.7304 9.7484v12.252 12.252c-0.0433 8.842 0.90622 9.7484 9.7304 9.7484h16.539c8.8242 0 9.7304-0.90625 9.7304-9.7484v-12.252-12.252c0-8.8421-0.90622-9.7484-9.7304-9.7484z" clip-path="url(#clipPath994-1)" color="#000000" fill="none" opacity=".7" stroke="url(#linearGradient1004-8)" stroke-width="2.851"/>
</svg>
