<svg width="32" height="32" version="1" xmlns="http://www.w3.org/2000/svg" xmlns:xlink="http://www.w3.org/1999/xlink">
 <defs>
  <linearGradient id="linearGradient8588-0" x1="13.735" x2="38.1" y1="249.69" y2="292.77" gradientTransform="matrix(.60892 0 0 .60892 .85556 -149.71)" gradientUnits="userSpaceOnUse">
   <stop stop-color="#cdcdcd" offset="0"/>
   <stop stop-color="#d9d9d9" offset="1"/>
  </linearGradient>
  <linearGradient id="linearGradient8590-3" x1="96" x2="96" y1="4" y2="188" gradientTransform="matrix(.15217 0 0 .15217 1.3913 1.3913)" gradientUnits="userSpaceOnUse">
   <stop stop-color="#fff" offset="0"/>
   <stop stop-color="#fff" stop-opacity=".098039" offset=".125"/>
   <stop stop-color="#fff" stop-opacity=".098039" offset=".925"/>
   <stop stop-color="#fff" stop-opacity=".49804" offset="1"/>
  </linearGradient>
 </defs>
 <circle transform="scale(-1)" cx="-16" cy="-17" r="15" enable-background="new" opacity=".1"/>
 <circle cx="16" cy="16" r="14.5" enable-background="new" fill="url(#linearGradient8588-0)"/>
 <path d="m16 1.5a14.5 14.5 0 0 0-14.5 14.5h14.5zm0 14.5v14.5a14.5 14.5 0 0 0 14.5-14.5z" enable-background="new" fill="#fff" opacity=".2"/>
 <path d="m26.253 5.7469a14.5 14.5 0 0 0-20.506 0l10.253 10.253zm-10.253 10.253-10.253 10.253a14.5 14.5 0 0 0 20.506 0z" enable-background="new" opacity=".02"/>
 <path d="m12.045 2.0501a14.5 14.5 0 0 0-0.26329 0.0891 14.5 14.5 0 0 1 0.70119-0.18998 14.5 14.5 0 0 0-0.4379 0.10085zm1.1418-0.26302a14.5 14.5 0 0 1 0.71429-0.11862 14.5 14.5 0 0 0-0.71429 0.11862zm-2.0894 0.58367a14.5 14.5 0 0 0-0.67801 0.2589 14.5 14.5 0 0 1 0.67801-0.2589zm3.524-0.79372a14.5 14.5 0 0 1 0.71967-0.0468 14.5 14.5 0 0 0-0.71967 0.0468zm-4.859 1.3509a14.5 14.5 0 0 0-0.65173 0.32672 14.5 14.5 0 0 1 0.65173-0.32672zm6.3057-1.4168a14.5 14.5 0 0 1 0.72316 0.0259 14.5 14.5 0 0 0-0.72316-0.0259zm-7.5783 2.1044a14.5 14.5 0 0 0-0.61661 0.39035 14.5 14.5 0 0 1 0.61661-0.39035zm9.0222-2.0256a14.5 14.5 0 0 1 0.71892 0.0979 14.5 14.5 0 0 0-0.71892-0.0979zm-10.221 2.8374a14.5 14.5 0 0 0-0.57463 0.4503 14.5 14.5 0 0 1 0.57463-0.4503zm11.655-2.6142a14.5 14.5 0 0 1 0.70052 0.16805 14.5 14.5 0 0 0-0.70052-0.16805zm-12.976 3.7276a14.5 14.5 0 0 0-0.16444 0.15322 14.5 14.5 0 0 1 0.16444-0.15322zm-0.21696 0.21023a14.5 14.5 0 0 0-2.3085 2.9989l12.557 7.25zm10.249 10.249 10.249 10.249a14.5 14.5 0 0 0 2.3085-2.9989zm4.3448-13.822a14.5 14.5 0 0 1 0.6817 0.2375 14.5 14.5 0 0 0-0.6817-0.2375zm1.3574 0.50251a14.5 14.5 0 0 1 0.65795 0.30617 14.5 14.5 0 0 0-0.65795-0.30617zm1.3013 0.63588a14.5 14.5 0 0 1 0.23784 0.14125l9e-3 -0.0149a14.5 14.5 0 0 0-0.24642-0.12638zm-14.245 25.226-9e-3 0.0149a14.5 14.5 0 0 0 0.24643 0.12638 14.5 14.5 0 0 1-0.23785-0.14124zm0.88117 0.47096a14.5 14.5 0 0 0 0.65795 0.30616 14.5 14.5 0 0 1-0.65795-0.30616zm1.3337 0.57117a14.5 14.5 0 0 0 0.6817 0.2375 14.5 14.5 0 0 1-0.6817-0.2375zm15.223-3.2787a14.5 14.5 0 0 1-0.16444 0.15323 14.5 14.5 0 0 0 0.16444-0.15323zm-13.84 3.7127a14.5 14.5 0 0 0 0.70053 0.16806 14.5 14.5 0 0 1-0.70053-0.16806zm12.93-2.8965a14.5 14.5 0 0 1-0.57463 0.45031 14.5 14.5 0 0 0 0.57463-0.45031zm-11.515 3.1898a14.5 14.5 0 0 0 0.71891 0.0979 14.5 14.5 0 0 1-0.71891-0.0979zm10.358-2.318a14.5 14.5 0 0 1-0.61661 0.39035 14.5 14.5 0 0 0 0.61661-0.39035zm-8.918 2.4689a14.5 14.5 0 0 0 0.72316 0.0259 14.5 14.5 0 0 1-0.72316-0.0259zm7.6806-1.7177a14.5 14.5 0 0 1-0.65172 0.32672 14.5 14.5 0 0 0 0.65172-0.32672zm-6.2304 1.7244a14.5 14.5 0 0 0 0.71967-0.0468 14.5 14.5 0 0 1-0.71967 0.0468zm4.9216-1.0994a14.5 14.5 0 0 1-0.67802 0.2589 14.5 14.5 0 0 0 0.67802-0.2589zm-3.4817 0.9612a14.5 14.5 0 0 0 0.71429-0.11862 14.5 14.5 0 0 1-0.71429 0.11862zm2.1194-0.47077a14.5 14.5 0 0 1-0.70119 0.18997 14.5 14.5 0 0 0 0.70119-0.18997z" enable-background="new" fill="#faf8f6"/>
 <circle transform="scale(1,-1)" cx="16" cy="-16" r="5" enable-background="new" fill="#aea795"/>
 <circle cx="16" cy="16" r="4" enable-background="new" fill="#faf8f6"/>
 <circle cx="16" cy="16" r="2" enable-background="new" fill="#4d4d4d"/>
 <g transform="matrix(.44858 0 0 .44858 .86346 -101.02)" enable-background="new" fill="#4d4d4d" stroke-width="8.426">
  <path d="m34.383 240.13c-0.56577 0.38831-1.0914 0.79614-1.5822 1.2195-2.78e-4 3.5e-4 -7.5e-4 6.5e-4 -1e-3 1e-3v3.5e-4l-0.0027 3e-3s-1.3473 1.2432-1.9037 1.9662c-0.80343 1.0439-1.4887 2.1882-2.0408 3.3842-0.54747 1.1861-0.95904 2.4418-1.2411 3.7174-0.29554 1.3366-0.45352 2.7116-0.46303 4.0805-0.01394 2.0058 0.15208 4.0889 0.59529 5.9879l0.0024 0.0254h0.0038c0.4241 1.8076 0.50465 2.6612 1.3126 4.1041 9.1637-1.6063 15.237 5.4764 13.188 13.123-1.0808 4.0336-4.4089 5.9763-7.6002 6.7049-4.4976 0.78204-8.2898-1.6457-9.2028-5.0529-0.17824-1.1236 0.09916-2.6338 0.74162-3.0149-0.37102 0.12926-0.82268 0.27779-1.3637 0.78797-0.91113 0.85899-0.93351 1.1625-2.1246 1.496 0.5829-1.6427-2.6168-2.9782-2.0389-6.5019 0.01318-0.0816-0.14458 0.67468-0.13211 0.59088-1.4097 7.7862 6.5656 16.551 15.414 14.18 5.9954-1.4965 9.5693-5.8987 10.751-10.868 0.68239-2.8694 0.47145-5.8283-0.14838-8.3117-0.5049-2.0227-1.536-4.1568-3.0874-6.1164-0.49705-0.62784-1.0152-1.2026-1.5437-1.7371l-0.01217-0.0152-0.04512-0.0406c-1.1897-1.1951-2.4232-2.1827-3.605-3.117 0 0-2.3909-1.9556-3.5006-3.0273-0.06831-0.066-0.13271-0.13611-0.19375-0.20886-0.38663-0.46079-0.75716-0.93712-1.0897-1.4384-0.09123-0.13752-0.17861-0.27883-0.24733-0.42887-0.35151-0.76743-0.65632-1.5658-0.83471-2.3908-0.23267-1.076-0.32722-2.1889-0.29681-3.2894 0.02589-0.9372 0.15417-1.8802 0.40707-2.7831 0.45781-1.0719 1.2025-2.0619 1.885-3.0298z"/>
  <path d="m37.034 244.1c-0.30107 0.48158-0.52836 1.0243-0.79247 1.5365-0.23443 0.45466-0.50801 0.89119-0.70315 1.364-0.4269 1.0344-0.67573 2.1337-1.014 3.2004-0.04062 0.12809-0.1381 0.25084-0.12197 0.38425 0.12206 1.0092 0.96935 1.7972 1.589 2.603 0.23825 0.30982 0.81032 0.84744 0.81032 0.84744 0.09672 0.10696 0.19598 0.21241 0.30157 0.31582 0 0-0.1971-1.2226-0.28373-1.8356-0.0076-0.054-0.01701-0.10784-0.02078-0.16222-0.1508-2.1752-0.25347-4.3681-0.07214-6.541 0.04823-0.578 0.30731-1.7127 0.30731-1.7127z"/>
  <path d="m21.398 261.42s0.36431 2.4006 0.10716 3.5594c-0.12169 0.54839-0.61971 0.96055-0.75846 1.5049-0.21881 0.85845-0.29064 1.7944-0.08587 2.6563 0.11679 0.49157 0.49078 0.88344 0.72513 1.331 0.05474 0.10455 0.10524 0.21393 0.15902 0.31633 0.29002-1.2994 1.239-2.3543 1.6141-3.6216 0.14506-0.49003 0.2643-1.004 0.23871-1.5145-0.0456-0.90964-0.2788-1.8319-0.69319-2.6429-0.312-0.61065-1.3066-1.589-1.3066-1.589z"/>
  <path d="m31.954 266.02c-5.0927 0-9.2211 4.1284-9.2211 9.2211 0.0019 0.47449 0.04055 0.94847 0.11528 1.4172 0.10417 0.16171 0.2118 0.32139 0.29863 0.49223 0.07741 0.15208 0.11644 0.3295 0.16764 0.50287 0.02788-0.0203 0.10068-0.0355 0.12836-0.0578 0.19821-0.16526 0.45081-0.45725 0.93259-0.91166 0.6256-0.58976 1.2098-0.86153 1.5927-0.94041 0.84951-0.17489 1.0763-0.0203 1.8133 0.0938-0.60043 0.24891-0.78515 0.52275-1.2475 1.114-0.01622 0.0203-0.26994 0.32495-0.37721 0.80162-0.10519 0.46739-0.11812 1.0477-0.04968 1.5063 0.83391 3.014 4.2423 5.2519 8.4274 4.5242 0.88502-0.20429 1.7644-0.51677 2.6013-0.92738 2.5232-1.714 4.0354-4.565 4.0395-7.6153 0-5.0927-4.1284-9.2211-9.2211-9.2211z"/>
  <path d="m37.515 234.41s0.03784 1.2402-0.16348 1.8123c-0.09528 0.2708-0.37309 0.44951-0.47677 0.71721-0.16351 0.42217-0.25728 0.89262-0.20612 1.3424 0.02918 0.25652 0.19093 0.47975 0.28647 0.71959 0.07691 0.19307 0.15477 0.40453 0.23086 0.57917l0.15284 0.38425 0.33868-1.1934c0.05211-0.17794 0.10326-0.35587 0.15319-0.541 0 0 0.40243-1.0148 0.44002-1.5509 0.03255-0.46429-0.02937-0.94646-0.18995-1.3833-0.12094-0.329-0.56574-0.88642-0.56574-0.88642z"/>
 </g>
 <circle cx="16" cy="16" r="14.5" enable-background="new" fill="none" opacity=".4" stroke="#000" stroke-dashoffset="6.6" stroke-linejoin="round"/>
 <path d="m16 2c-7.732 0-14 6.268-14 14s6.268 14 14 14 14-6.268 14-14-6.268-14-14-14zm0 1a13 13 0 0 1 13 13 13 13 0 0 1-13 13 13 13 0 0 1-13-13 13 13 0 0 1 13-13z" enable-background="new" fill="url(#linearGradient8590-3)"/>
</svg>
