<svg width="32" height="32" version="1" xmlns="http://www.w3.org/2000/svg" xmlns:xlink="http://www.w3.org/1999/xlink">
 <defs>
  <linearGradient id="linearGradient8588-0" x1="13.735" x2="38.1" y1="249.69" y2="292.77" gradientTransform="matrix(.60892 0 0 .60892 .85556 -149.71)" gradientUnits="userSpaceOnUse">
   <stop stop-color="#76c22b" offset="0"/>
   <stop stop-color="#a6d74f" offset="1"/>
  </linearGradient>
  <linearGradient id="linearGradient8590-3" x1="96" x2="96" y1="4" y2="188" gradientTransform="matrix(.15217 0 0 .15217 1.3913 1.3913)" gradientUnits="userSpaceOnUse">
   <stop stop-color="#fff" offset="0"/>
   <stop stop-color="#fff" stop-opacity=".098039" offset=".125"/>
   <stop stop-color="#fff" stop-opacity=".098039" offset=".925"/>
   <stop stop-color="#fff" stop-opacity=".49804" offset="1"/>
  </linearGradient>
 </defs>
 <circle transform="scale(-1)" cx="-16" cy="-17" r="15" enable-background="new" opacity=".1"/>
 <circle cx="16" cy="16" r="14.5" enable-background="new" fill="url(#linearGradient8588-0)"/>
 <path d="m3.5605 8.5859a14.5 14.5 0 0 0-2.0606 7.4141 14.5 14.5 0 0 0 14.5 14.5 14.5 14.5 0 0 0 12.584-7.3184z" enable-background="new" fill="#fff" opacity=".05"/>
 <path d="m16 1.5c-7.9938 0-14.5 6.5062-14.5 14.5 0 7.9938 6.5062 14.5 14.5 14.5 7.9938 0 14.5-6.5062 14.5-14.5 0-7.9938-6.5062-14.5-14.5-14.5zm0 2.4166c6.6878 0 12.083 5.3956 12.083 12.083 0 6.6878-5.3957 12.083-12.083 12.083-6.6878 0-12.083-5.3957-12.083-12.083 0-6.6878 5.3956-12.083 12.083-12.083z" color="#000000" color-rendering="auto" dominant-baseline="auto" fill="#fff" image-rendering="auto" shape-rendering="auto" solid-color="#000000" style="font-feature-settings:normal;font-variant-alternates:normal;font-variant-caps:normal;font-variant-ligatures:normal;font-variant-numeric:normal;font-variant-position:normal;isolation:auto;mix-blend-mode:normal;shape-padding:0;text-decoration-color:#000000;text-decoration-line:none;text-decoration-style:solid;text-indent:0;text-orientation:mixed;text-transform:none;white-space:normal"/>
 <g transform="matrix(.069712 0 0 .069712 2.6154 2.5)" enable-background="new" opacity=".1">
  <path d="m80 104v144c0 35.157 28.843 64 64 64h96c35.157 0 64-28.843 64-64v-80c0-26.32-21.68-48-48-48-12.296 0-23.467 4.8602-32 12.586-8.5332-7.7257-19.704-12.586-32-12.586-26.32 0-48 21.68-48 48v80h32v-80c0-9.0261 6.9739-16 16-16s16 6.9739 16 16v80h32v-80c0-9.0261 6.9739-16 16-16s16 6.9739 16 16v80c0 17.863-14.137 32-32 32h-96c-17.863 0-32-14.137-32-32v-144z" color="#000000" color-rendering="auto" dominant-baseline="auto" enable-background="accumulate" image-rendering="auto" opacity="1" shape-rendering="auto" solid-color="#000000" style="font-feature-settings:normal;font-variant-alternates:normal;font-variant-caps:normal;font-variant-ligatures:normal;font-variant-numeric:normal;font-variant-position:normal;isolation:auto;mix-blend-mode:normal;shape-padding:0;text-decoration-color:#000000;text-decoration-line:none;text-decoration-style:solid;text-indent:0;text-orientation:mixed;text-transform:none;white-space:normal"/>
 </g>
 <g transform="matrix(.069712 0 0 .069712 2.6154 1.4999)" enable-background="new" fill="#92b372">
  <path d="m80 104v144c0 35.157 28.843 64 64 64h96c35.157 0 64-28.843 64-64v-80c0-26.32-21.68-48-48-48-12.296 0-23.467 4.8602-32 12.586-8.5332-7.7257-19.704-12.586-32-12.586-26.32 0-48 21.68-48 48v80h32v-80c0-9.0261 6.9739-16 16-16s16 6.9739 16 16v80h32v-80c0-9.0261 6.9739-16 16-16s16 6.9739 16 16v80c0 17.863-14.137 32-32 32h-96c-17.863 0-32-14.137-32-32v-144z" color="#000000" color-rendering="auto" dominant-baseline="auto" enable-background="accumulate" fill="#fff" image-rendering="auto" shape-rendering="auto" solid-color="#000000" style="font-feature-settings:normal;font-variant-alternates:normal;font-variant-caps:normal;font-variant-ligatures:normal;font-variant-numeric:normal;font-variant-position:normal;isolation:auto;mix-blend-mode:normal;shape-padding:0;text-decoration-color:#000000;text-decoration-line:none;text-decoration-style:solid;text-indent:0;text-orientation:mixed;text-transform:none;white-space:normal"/>
 </g>
 <circle cx="16" cy="16" r="14.5" enable-background="new" fill="none" opacity=".4" stroke="#000" stroke-dashoffset="6.6" stroke-linejoin="round"/>
 <path d="m16 2c-7.732 0-14 6.268-14 14 0 7.732 6.268 14 14 14 7.732 0 14-6.268 14-14 0-7.732-6.268-14-14-14zm0 1a13 13 0 0 1 13 13 13 13 0 0 1-13 13 13 13 0 0 1-13-13 13 13 0 0 1 13-13z" enable-background="new" fill="url(#linearGradient8590-3)"/>
</svg>
