<?xml version="1.0" encoding="UTF-8" standalone="no"?>
<svg
   xmlns:dc="http://purl.org/dc/elements/1.1/"
   xmlns:cc="http://creativecommons.org/ns#"
   xmlns:rdf="http://www.w3.org/1999/02/22-rdf-syntax-ns#"
   xmlns:svg="http://www.w3.org/2000/svg"
   xmlns="http://www.w3.org/2000/svg"
   xmlns:xlink="http://www.w3.org/1999/xlink"
   xmlns:sodipodi="http://sodipodi.sourceforge.net/DTD/sodipodi-0.dtd"
   xmlns:inkscape="http://www.inkscape.org/namespaces/inkscape"
   viewBox="0 0 512 512"
   version="1.1"
   id="svg106"
   sodipodi:docname="firefox.svg"
   inkscape:version="1.0.2 (e86c870879, 2021-01-15)">
  <metadata
     id="metadata110">
    <rdf:RDF>
      <cc:Work
         rdf:about="">
        <dc:format>image/svg+xml</dc:format>
        <dc:type
           rdf:resource="http://purl.org/dc/dcmitype/StillImage" />
        <dc:title />
      </cc:Work>
    </rdf:RDF>
  </metadata>
  <sodipodi:namedview
     pagecolor="#474745"
     bordercolor="#666666"
     borderopacity="1"
     objecttolerance="10"
     gridtolerance="10"
     guidetolerance="10"
     inkscape:pageopacity="0"
     inkscape:pageshadow="2"
     inkscape:window-width="1297"
     inkscape:window-height="704"
     id="namedview108"
     showgrid="false"
     inkscape:snap-global="false"
     inkscape:zoom="0.61798042"
     inkscape:cx="120.5711"
     inkscape:cy="313.33981"
     inkscape:window-x="69"
     inkscape:window-y="27"
     inkscape:window-maximized="1"
     inkscape:current-layer="svg106"
     inkscape:document-rotation="0"
     showguides="false" />
  <defs
     id="defs92">
    <linearGradient
       id="linearGradient1077"
       x1="406.61137"
       y1="68.31199"
       x2="121.68798"
       y2="354.3028"
       gradientTransform="matrix(0.98373973,0,0,1.016529,0.00621935,0.37181657)"
       gradientUnits="userSpaceOnUse">
      <stop
         offset="0.09210309"
         stop-color="#fff44f"
         stop-opacity=".8"
         id="stop1073"
         style="stop-color:#ffea00;stop-opacity:1" />
      <stop
         offset="0.54570425"
         stop-color="#fff44f"
         stop-opacity="0"
         id="stop1075"
         style="stop-color:#fff44f;stop-opacity:0" />
    </linearGradient>
    <radialGradient
       id="radialGradient960"
       cx="390.97281"
       cy="-40.280148"
       r="742.38693"
       gradientTransform="scale(1.0914501,0.91621229)"
       fx="390.97281"
       fy="-40.280148"
       gradientUnits="userSpaceOnUse">
      <stop
         offset="0.0741064"
         stop-color="#fff44f"
         id="stop952" />
      <stop
         offset="0.29318112"
         stop-color="#ff980e"
         id="stop954" />
      <stop
         offset="0.65646929"
         stop-color="#ff3647"
         id="stop956" />
      <stop
         offset="0.79250216"
         stop-color="#e31587"
         id="stop958" />
    </radialGradient>
    <radialGradient
       id="radialGradient981"
       cx="84%"
       cy="-41%"
       r="180%">
      <stop
         offset=".11"
         stop-color="#fff44f"
         id="stop973" />
      <stop
         offset="0.07312331"
         stop-color="#ff980e"
         id="stop975" />
      <stop
         offset="0.93783718"
         stop-color="#ff3647"
         id="stop977" />
      <stop
         offset="0.97388798"
         stop-color="#e31587"
         id="stop979" />
    </radialGradient>
    <radialGradient
       id="radialGradient963"
       cx="84%"
       cy="-41%"
       r="180%">
      <stop
         offset="0.02472927"
         stop-color="#fff44f"
         id="stop955" />
      <stop
         offset="0.08219684"
         stop-color="#ff980e"
         id="stop957"
         style="stop-opacity:0;stop-color:#ff980e" />
      <stop
         offset="0.90829772"
         stop-color="#ff3647"
         id="stop959" />
      <stop
         offset="0.95825535"
         stop-color="#e31587"
         id="stop961" />
    </radialGradient>
    <linearGradient
       id="a"
       x1="87.25%"
       y1="15.5%"
       x2="9.4%"
       y2="93.1%">
      <stop
         offset=".05"
         stop-color="#fff44f"
         id="stop2" />
      <stop
         offset=".37"
         stop-color="#ff980e"
         id="stop4" />
      <stop
         offset=".53"
         stop-color="#ff3647"
         id="stop6" />
      <stop
         offset=".7"
         stop-color="#e31587"
         id="stop8" />
    </linearGradient>
    <radialGradient
       id="b"
       cx="87.4%"
       cy="-12.9%"
       r="128%"
       gradientTransform="translate(0.874,0),scale(0.8,1),translate(-0.87,0.129)">
      <stop
         offset=".13"
         stop-color="#ffbd4f"
         id="stop11" />
      <stop
         offset=".28"
         stop-color="#ff980e"
         id="stop13" />
      <stop
         offset=".47"
         stop-color="#ff3750"
         id="stop15" />
      <stop
         offset=".78"
         stop-color="#eb0878"
         id="stop17" />
      <stop
         offset=".86"
         stop-color="#e50080"
         id="stop19" />
    </radialGradient>
    <radialGradient
       id="c"
       cx="49%"
       cy="40%"
       r="128%"
       gradientTransform="translate(0.49,0.4),scale(0.82,1),translate(-0.49,-0.4)">
      <stop
         offset=".3"
         stop-color="#960e18"
         id="stop22" />
      <stop
         offset=".35"
         stop-color="#b11927"
         stop-opacity=".74"
         id="stop24" />
      <stop
         offset=".43"
         stop-color="#db293d"
         stop-opacity=".34"
         id="stop26" />
      <stop
         offset=".5"
         stop-color="#f5334b"
         stop-opacity=".09"
         id="stop28" />
      <stop
         offset=".53"
         stop-color="#ff3750"
         stop-opacity="0"
         id="stop30" />
    </radialGradient>
    <radialGradient
       id="d"
       cx="48%"
       cy="-12%"
       r="140%">
      <stop
         offset=".13"
         stop-color="#fff44f"
         id="stop33" />
      <stop
         offset=".53"
         stop-color="#ff980e"
         id="stop35" />
    </radialGradient>
    <radialGradient
       id="e"
       cx="206.27053"
       cy="373.24011"
       r="223.49659"
       gradientTransform="matrix(1.2658774,0,0,1.3874166,-82.831992,-81.339792)"
       fx="206.27053"
       fy="373.24011"
       gradientUnits="userSpaceOnUse">
      <stop
         offset=".35"
         stop-color="#3a8ee6"
         id="stop38" />
      <stop
         offset=".67"
         stop-color="#9059ff"
         id="stop40" />
      <stop
         offset="1"
         stop-color="#c139e6"
         id="stop42" />
    </radialGradient>
    <radialGradient
       id="f"
       cx="343.15851"
       cy="176.95523"
       r="131.86298"
       gradientTransform="matrix(1.8339421,0,-2.6488303e-8,1.6386792,-284.73137,-137.87596)"
       fx="343.15851"
       fy="176.95523"
       gradientUnits="userSpaceOnUse">
      <stop
         offset="0.34331691"
         stop-color="#9059ff"
         stop-opacity="0"
         id="stop45"
         style="stop-color:#2c30b1;stop-opacity:0" />
      <stop
         offset="0.82970583"
         stop-color="#6e008b"
         stop-opacity=".6"
         id="stop47" />
    </radialGradient>
    <radialGradient
       id="g"
       cx="210%"
       cy="-100%"
       r="290%">
      <stop
         offset=".1"
         stop-color="#ffe226"
         id="stop50" />
      <stop
         offset=".79"
         stop-color="#ff7139"
         id="stop52"
         style="stop-color:#ff1a39;stop-opacity:1" />
    </radialGradient>
    <radialGradient
       id="h"
       cx="390.97281"
       cy="-40.280148"
       r="742.38693"
       gradientTransform="scale(1.0914501,0.91621229)"
       fx="390.97281"
       fy="-40.280148"
       gradientUnits="userSpaceOnUse">
      <stop
         offset="0.09793065"
         stop-color="#fff44f"
         id="stop55" />
      <stop
         offset="0.50196499"
         stop-color="#ff980e"
         id="stop57" />
      <stop
         offset="0.86819392"
         stop-color="#ff3647"
         id="stop59" />
      <stop
         offset="0.94946235"
         stop-color="#e31587"
         id="stop61" />
    </radialGradient>
    <radialGradient
       id="i"
       cx="16.1%"
       cy="-18.6%"
       r="348.8%"
       gradientTransform="translate(0.16,-0.19),scale(1,0.47),rotate(84),translate(-0.16,0.19)">
      <stop
         offset="0"
         stop-color="#fff44f"
         id="stop64" />
      <stop
         offset=".3"
         stop-color="#ff980e"
         id="stop66" />
      <stop
         offset=".57"
         stop-color="#ff3647"
         id="stop68" />
      <stop
         offset=".74"
         stop-color="#e31587"
         id="stop70" />
    </radialGradient>
    <radialGradient
       id="j"
       cx="18.9%"
       cy="-42.5%"
       r="238.4%">
      <stop
         offset=".14"
         stop-color="#fff44f"
         id="stop73" />
      <stop
         offset=".48"
         stop-color="#ff980e"
         id="stop75" />
      <stop
         offset=".66"
         stop-color="#ff3647"
         id="stop77" />
      <stop
         offset=".9"
         stop-color="#e31587"
         id="stop79" />
    </radialGradient>
    <radialGradient
       id="k"
       cx="346.45795"
       cy="140.64198"
       r="519.07027"
       gradientTransform="matrix(0.81749646,0,0,0.96374257,76.264071,0)"
       fx="346.45795"
       fy="140.64198"
       gradientUnits="userSpaceOnUse">
      <stop
         offset="0.34625351"
         stop-color="#fff44f"
         id="stop82"
         style="stop-color:#ffbe26;stop-opacity:1" />
      <stop
         offset="0.74500859"
         stop-color="#ff980e"
         id="stop84"
         style="stop-color:#ff6b00;stop-opacity:1" />
    </radialGradient>
    <linearGradient
       id="l"
       x1="406.61137"
       y1="68.31199"
       x2="121.68798"
       y2="354.3028"
       gradientTransform="matrix(0.98373973,0,0,1.016529,0.00621935,0.37181657)"
       gradientUnits="userSpaceOnUse">
      <stop
         offset="0.28689951"
         stop-color="#fff44f"
         stop-opacity=".8"
         id="stop87"
         style="stop-color:#ffea00;stop-opacity:1" />
      <stop
         offset="0.54570425"
         stop-color="#fff44f"
         stop-opacity="0"
         id="stop89" />
    </linearGradient>
    <radialGradient
       inkscape:collect="always"
       xlink:href="#h"
       id="radialGradient1055"
       cx="274.48999"
       cy="190.82603"
       fx="274.48999"
       fy="190.82603"
       r="91.805603"
       gradientTransform="matrix(8.5424239,0,0,5.28854,-1917.4726,-1051.902)"
       gradientUnits="userSpaceOnUse" />
    <radialGradient
       id="h-6"
       cx="390.97281"
       cy="-40.280148"
       r="742.3869"
       gradientTransform="scale(1.0914501,0.91621229)"
       fx="390.97281"
       fy="-40.280148"
       gradientUnits="userSpaceOnUse">
      <stop
         offset=".11"
         stop-color="#fff44f"
         id="stop55-7" />
      <stop
         offset=".46"
         stop-color="#ff980e"
         id="stop57-5" />
      <stop
         offset=".72"
         stop-color="#ff3647"
         id="stop59-3" />
      <stop
         offset=".9"
         stop-color="#e31587"
         id="stop61-5" />
    </radialGradient>
    <filter
       inkscape:collect="always"
       style="color-interpolation-filters:sRGB"
       id="filter1309"
       x="-0.032530883"
       width="1.0650618"
       y="-0.061475403"
       height="1.1229508">
      <feGaussianBlur
         inkscape:collect="always"
         stdDeviation="2.4831725"
         id="feGaussianBlur1311" />
    </filter>
    <radialGradient
       inkscape:collect="always"
       xlink:href="#radialGradient960"
       id="radialGradient950"
       gradientUnits="userSpaceOnUse"
       gradientTransform="scale(1.0914501,0.91621229)"
       cx="390.97281"
       cy="-40.280148"
       fx="390.97281"
       fy="-40.280148"
       r="742.38693" />
    <radialGradient
       id="radial-gradient-7"
       cx="691.33899"
       cy="3.289"
       r="923.61499"
       gradientUnits="userSpaceOnUse"
       gradientTransform="matrix(0.5176523,0,0,0.35134376,-68.801421,48.234794)"
       fx="691.33899"
       fy="3.289">
      <stop
         offset="0.10779555"
         stop-color="#ffea00"
         id="stop93" />
      <stop
         offset="0.5360595"
         stop-color="#fd0"
         id="stop95" />
      <stop
         offset="0.7206021"
         stop-color="#ffba00"
         id="stop97" />
      <stop
         offset="0.82060462"
         stop-color="#ff9100"
         id="stop99" />
      <stop
         offset="0.92182261"
         stop-color="#ff6711"
         id="stop101" />
      <stop
         offset="0.994"
         stop-color="#ff4a1d"
         id="stop103" />
    </radialGradient>
    <linearGradient
       id="linear-gradient-6"
       x1="655.53101"
       y1="38.119999"
       x2="961.18701"
       y2="721.61499"
       gradientUnits="userSpaceOnUse"
       gradientTransform="matrix(0.41821204,0,0,0.40617664,5.9011898,33.366775)">
      <stop
         offset="0"
         stop-color="#fff14f"
         id="stop150" />
      <stop
         offset="0.268"
         stop-color="#ffee4c"
         id="stop152" />
      <stop
         offset="0.452"
         stop-color="#ffe643"
         id="stop154" />
      <stop
         offset="0.612"
         stop-color="#ffd834"
         id="stop156" />
      <stop
         offset="0.757"
         stop-color="#ffc41e"
         id="stop158" />
      <stop
         offset="0.892"
         stop-color="#ffab02"
         id="stop160" />
      <stop
         offset="0.902"
         stop-color="#ffa900"
         id="stop162" />
      <stop
         offset="0.949"
         stop-color="#ffa000"
         id="stop164" />
      <stop
         offset="1"
         stop-color="#ff9100"
         id="stop166" />
    </linearGradient>
    <radialGradient
       id="i-3"
       cx="421.4927"
       cy="-44.513308"
       r="832.37918"
       gradientTransform="matrix(0.73409245,0,0,1.3622262,610.47921,-42.111183)"
       fx="421.4927"
       fy="-44.513308"
       gradientUnits="userSpaceOnUse">
      <stop
         offset="0"
         stop-color="#fff44f"
         id="stop64-6" />
      <stop
         offset=".3"
         stop-color="#ff980e"
         id="stop66-7" />
      <stop
         offset=".57"
         stop-color="#ff3647"
         id="stop68-5" />
      <stop
         offset=".74"
         stop-color="#e31587"
         id="stop70-3" />
    </radialGradient>
    <radialGradient
       id="radial-gradient-7-5"
       cx="691.33899"
       cy="3.289"
       r="923.61499"
       gradientUnits="userSpaceOnUse"
       gradientTransform="matrix(0.5176523,0,0,0.35134376,541.67779,6.123611)"
       fx="691.33899"
       fy="3.289">
      <stop
         offset="0.39146438"
         stop-color="#ffea00"
         id="stop93-6" />
      <stop
         offset="0.46644366"
         stop-color="#fd0"
         id="stop95-2" />
      <stop
         offset="0.64755088"
         stop-color="#ffba00"
         id="stop97-9" />
      <stop
         offset="0.89733046"
         stop-color="#ff9100"
         id="stop99-1"
         style="stop-color:#ff9100;stop-opacity:0" />
      <stop
         offset="0.92182261"
         stop-color="#ff6711"
         id="stop101-2"
         style="stop-color:#ff6711;stop-opacity:0.02547159" />
      <stop
         offset="0.994"
         stop-color="#ff4a1d"
         id="stop103-7"
         style="stop-color:#ff4a1d;stop-opacity:0.0062206" />
    </radialGradient>
    <radialGradient
       id="radialGradient960-9"
       cx="390.97281"
       cy="-40.280148"
       r="742.3869"
       gradientTransform="scale(1.0914501,0.91621229)"
       fx="390.97281"
       fy="-40.280148"
       gradientUnits="userSpaceOnUse">
      <stop
         offset="0.0741064"
         stop-color="#fff44f"
         id="stop952-3" />
      <stop
         offset="0.29318112"
         stop-color="#ff980e"
         id="stop954-6" />
      <stop
         offset="0.65646929"
         stop-color="#ff3647"
         id="stop956-0" />
      <stop
         offset="0.79250216"
         stop-color="#e31587"
         id="stop958-6" />
    </radialGradient>
    <linearGradient
       inkscape:collect="always"
       xlink:href="#linearGradient1077"
       id="linearGradient1064"
       gradientUnits="userSpaceOnUse"
       gradientTransform="matrix(0.98373973,0,0,1.016529,0.86300045,0.18581657)"
       x1="406.61137"
       y1="68.31199"
       x2="-73.18885"
       y2="220.00545" />
    <radialGradient
       id="c-2"
       cx="155.05165"
       cy="228.29813"
       r="554.14583"
       gradientTransform="matrix(1.1087373,0,0,0.9019269,0.7561181,-0.3531403)"
       fx="155.05165"
       fy="228.29813"
       gradientUnits="userSpaceOnUse">
      <stop
         offset=".3"
         stop-color="#960e18"
         id="stop22-0" />
      <stop
         offset=".35"
         stop-color="#b11927"
         stop-opacity=".74"
         id="stop24-2" />
      <stop
         offset=".43"
         stop-color="#db293d"
         stop-opacity=".34"
         id="stop26-3" />
      <stop
         offset=".5"
         stop-color="#f5334b"
         stop-opacity=".09"
         id="stop28-7" />
      <stop
         offset=".53"
         stop-color="#ff3750"
         stop-opacity="0"
         id="stop30-5" />
    </radialGradient>
    <radialGradient
       id="radialGradient960-2"
       cx="390.97281"
       cy="-40.280148"
       r="742.3869"
       gradientTransform="scale(1.0914501,0.91621229)"
       fx="390.97281"
       fy="-40.280148"
       gradientUnits="userSpaceOnUse">
      <stop
         offset="0.0741064"
         stop-color="#fff44f"
         id="stop952-8"
         style="stop-color:#fff44f;stop-opacity:0" />
      <stop
         offset="0.29318112"
         stop-color="#ff980e"
         id="stop954-9"
         style="stop-color:#fff700;stop-opacity:1" />
      <stop
         offset="0.65646929"
         stop-color="#ff3647"
         id="stop956-7"
         style="stop-color:#ff3647;stop-opacity:0.00061814" />
      <stop
         offset="0.79250216"
         stop-color="#e31587"
         id="stop958-3"
         style="stop-color:#e31587;stop-opacity:0" />
    </radialGradient>
  </defs>
  <path
     id="shape-base"
     d="m 478.711,166.353 c -10.445,-25.124 -30.61799,-51.8846 -47.22999,-60.4576 13.52,26.505 20.36299,52.7296 23.35299,72.5726 0,0.039 0.015,0.136 0.047,0.4 C 427.706,111.135 381.627,83.823 344,24.355 c -1.9,-3.007 -3.805,-6.022 -5.661,-9.2 -0.94501,-1.623022 -1.82766,-3.281565 -2.646,-4.972 -1.56328,-3.0181522 -2.7691,-6.2083846 -3.593,-9.506 0.0119,-0.32356681 -0.22484,-0.60284159 -0.546,-0.644 -0.14736,-0.04226153 -0.30364,-0.04226153 -0.451,0 -0.034,0.012 -0.084,0.051 -0.12,0.065 -0.053,0.021 -0.12,0.069 -0.176,0.1 0.027,-0.036 0.0956,0.0232242 0.11265,0.004224 -60.37,35.356 -80.86265,100.620776 -82.74465,133.343776 -24.10747,1.6573 -47.15641,10.53928 -66.142,25.488 -1.98776,-1.67899 -4.06586,-3.248 -6.225,-4.7 -5.47767,-19.16409 -34.70653,18.04916 -38.55533,-5.77858 C 119.54897,167.92896 131.244,124.612 117.284,140.302 h -0.111 c -9.527,-12.067 -36.477135,-37.01021 -35.934135,-45.321203 -0.114,-0.515 -13.55911,12.160413 -14.47511,12.785413 -8.406849,6.00073 17.808074,-10.659548 10.588245,-3.27321 -8.215744,8.3316 -15.72242,17.33379 -22.442,26.913 0,0.012 -0.007,0.026 -0.011,0.038 0,-0.013 0.007,-0.026 0.011,-0.038 -15.453646,21.89942 -26.413795,46.64447 -32.247,72.805 -0.115,0.521 -0.212,1.061 -0.324,1.586 -0.452,2.116 -2.08,12.7 -2.365,15 -0.022,0.177 -0.032,0.347 -0.053,0.524 -2.104761,10.94276 -3.408222,22.02452 -3.9,33.157 0,0.41 -0.025,0.816 -0.025,1.227 C 16,388.418 123.6,496 256.324,496 c 118.865,0 217.56,-86.288 236.882,-199.63 0.407,-3.076 0.733,-6.168 1.092,-9.271 4.777,-41.21 -0.53,-84.525 -15.587,-120.746 z M 201.716,354.447 c 1.124,0.537 2.18,1.124 3.334,1.639 0.048,0.033 0.114,0.07 0.163,0.1 -1.17457,-0.56159 -2.34037,-1.14133 -3.497,-1.739 z m 253.184,-175.52 -0.032,-0.233 c 0.012,0.085 0.027,0.174 0.04,0.259 z"
     fill="url(#a)"
     sodipodi:nodetypes="cccccccccccccccccccccccccccccccsccccccccccc" />
  <path
     id="body-outer-ring"
     d="m 478.711,166.353 c -10.445,-25.124 -30.56888,-51.95886 -47.18088,-60.53186 13.52,26.505 20.31388,52.80386 23.30388,72.64686 0,-0.058 0.011,0.048 0.036,0.226 0.012,0.085 0.027,0.174 0.04,0.259 22.675,61.47 10.322,123.978 -7.479,162.175 -27.539,59.1 -94.215,119.67 -198.576,116.716 C 136.1,454.651 36.766,370.988 18.223,261.41 c -3.379,-17.28 0,-26.054 1.7,-40.084 -2.071,10.816 -2.86,13.94 -3.9,33.157 0,0.41 -0.025,0.816 -0.025,1.227 C 16,388.418 123.6,496 256.324,496 c 118.865,0 217.56,-86.288 236.882,-199.63 0.407,-3.076 0.733,-6.168 1.092,-9.271 4.777,-41.21 -0.53,-84.525 -15.587,-120.746 z"
     fill="url(#b)"
     sodipodi:nodetypes="cccscccccccsccc" />
  <path
     id="body-outer-ring-shadow"
     d="m 478.711,166.353 c -10.445,-25.124 -30.75293,-52.0598 -47.36493,-60.6328 13.52,26.505 20.49793,52.9048 23.48793,72.7478 0,-0.058 0.011,0.048 0.036,0.226 0.012,0.085 0.027,0.174 0.04,0.259 22.675,61.47 10.322,123.978 -7.479,162.175 -27.539,59.1 -94.215,119.67 -198.576,116.716 C 136.1,454.651 36.766,370.988 18.223,261.41 c -3.379,-17.28 0,-26.054 1.7,-40.084 -2.071,10.816 -2.86,13.94 -3.9,33.157 0,0.41 -0.025,0.816 -0.025,1.227 C 16,388.418 123.6,496 256.324,496 c 118.865,0 217.56,-86.288 236.882,-199.63 0.407,-3.076 0.733,-6.168 1.092,-9.271 4.777,-41.21 -0.53,-84.525 -15.587,-120.746 z"
     fill="url(#c)"
     sodipodi:nodetypes="cccscccccccsccc" />
  <path
     id="tail-tip"
     d="m 361.922,194.6 c 0.524,0.368 1,0.734 1.493,1.1 -6.03141,-10.70436 -13.542,-20.50483 -22.31,-29.112 C 266.4,91.892 321.516,4.626 330.811,0.194 330.838,0.158 326.28065,2.3410215 326.29765,2.3220215 265.92765,37.678021 250.061,100.819 248.179,133.542 c 2.8,-0.194 5.592,-0.429 8.442,-0.429 45.051,0 84.289,24.77 105.301,61.487 z"
     fill="url(#d)"
     sodipodi:nodetypes="ccccccsc" />
  <path
     id="globe-base"
     d="m 257.32569,206.23237 c -0.52083,7.92236 -40.67824,16.83329 -50.46658,16.83329 -90.56656,0 -92.97034,63.2758 -92.97034,63.2758 4.01156,46.13209 36.12777,84.12052 75.02399,104.22198 1.77451,0.91707 3.57023,1.74537 5.36728,2.56437 3.08106,1.3642 6.20065,2.63962 9.35497,3.82468 13.33662,4.72155 27.30607,7.41572 41.44203,7.99262 158.73898,7.44528 168.8148,-197.68102 74.93652,-247.03805 120.33627,98.62624 59.71839,8.54082 39.68356,-15.21481 -32.85127,-35.29724 -58.95065,-41.78016 -102.43833,-47.62478 -3.74335,-0.503092 -7.47578,0.311441 -11.18781,0.568542 -31.94852,2.196344 -62.49424,13.967228 -87.65498,33.778088 4.85573,4.10828 8.16463,12.12616 19.71289,23.50216 15.32873,27.26032 79.07886,50.7292 79.1968,53.31611 z"
     fill="url(#e)"
     sodipodi:nodetypes="cscscccccscccc"
     style="fill:url(#e);stroke-width:1.32526" />
  <path
     id="globe-shadow"
     d="m 256.81689,205.98555 c -0.52011,7.91154 -28.42581,25.59262 -38.20073,25.59262 -90.44258,0 -105.1235,54.7044 -105.1235,54.7044 4.00604,46.06895 36.07829,84.00537 74.92127,104.0793 1.77209,0.91583 3.56535,1.74298 5.35992,2.56088 3.07685,1.36234 6.19219,2.636 9.34218,3.81944 13.31836,4.71507 27.26868,7.40558 41.38529,7.98166 158.52169,7.4351 146.848,-143.41741 140.02456,-204.68722 -0.33211,-22.8372 -5.48362,-35.32528 11.49876,-23.39579 -27.80813,-48.58879 -79.73727,-81.370401 -139.35826,-81.370401 -3.7718,0 -7.46552,0.311006 -11.17247,0.567758 -31.90481,2.193339 -62.4087,13.948093 -87.53499,33.731843 4.8491,4.10266 10.32282,9.587 21.85529,20.94742 13.3393,30.22455 76.88487,52.88474 77.00268,55.46809 z"
     fill="url(#f)"
     style="fill:url(#f);stroke-width:1.32344"
     sodipodi:nodetypes="cscscccccscccc" />
  <path
     id="ear"
     d="m 170.829,151.036 c 1.67374,1.07963 28.39109,26.00794 30.03789,27.12822 C 164.65619,137.95445 179.00898,95.121697 173.03312,93.674587 163.81171,96.41554 131.246,124.614 117.286,140.304 c 1.155,-0.033 36.014,-0.66 53.543,10.732 z"
     fill="url(#g)"
     sodipodi:nodetypes="ccccc" />
  <path
     style="opacity:0.63813378;fill:#000000;fill-opacity:1;stroke:#000000;stroke-width:0.413379px;stroke-linecap:butt;stroke-linejoin:miter;stroke-opacity:0.0321554;filter:url(#filter1309)"
     d="m 130.60331,250.14874 c 0,0 26.7519,4.80928 35.22798,19.72479 8.53479,15.01882 39.3011,31.70876 57.09541,26.88118 50.75076,-13.76859 62.30231,-2.2578 62.30231,-2.2578 0,0 31.69193,18.94181 18.52974,27.27315 -13.28243,8.40746 -6.8146,-10.50445 -41.86515,12.47468 -25.84515,16.94407 -93.1212,23.5577 -125.43937,-21.47851 -24.61449,-34.30092 -5.85092,-62.61749 -5.85092,-62.61749 z"
     id="path1005-6"
     sodipodi:nodetypes="csscsssc" />
  <path
     id="body"
     d="m 17.158656,264.41142 c 2.325559,108.94222 83.591774,227.19547 231.696344,231.3895 104.361,2.954 179.34405,-81.43615 206.88305,-140.53215 17.8,-38.2 21.84695,-114.84077 -0.82805,-176.31577 l -0.008,-0.026 -0.032,-0.233 c -0.025,-0.178 -0.04,-0.284 -0.036,-0.226 0,0.039 0.015,0.136 0.047,0.4 8.524,55.661 -19.79,109.584 -64.051,146.044 l -0.133,0.313 c -86.245,70.223 -168.774,42.368 -185.484,30.966 -1.1745,-0.56515 -2.34127,-1.1462 -3.5,-1.743 -50.282,-24.029 -73.59014,-70.02407 -69.13614,-109.31007 -10.69258,-16.41385 -18.26185,-18.3709 -18.26185,-18.3709 0,0 19.1373,-11.23457 55.8296,-19.13109 46.53,21.893 80.3372,29.38847 86.4997,2.05448 -0.146,-4.43508 -41.79131,-18.76542 -58.09731,-34.83142 -8.713,-8.584 -12.85,-12.723 -16.514,-15.828 -1.98776,-1.67899 -4.06586,-3.248 -6.225,-4.7 -1.64867,-1.1175 -3.3091,-2.21756 -4.981,-3.3 -17.528,-11.392 -52.388,-10.765 -53.543,-10.735 h -0.111 c -9.527,-12.067 -15.72766,-21.98569 -20.085581,-28.47523 -0.114,-0.515 -15.217277,-20.600606 -15.217277,-20.600606 -5.153853,-3.922924 -16.823885,15.214916 -22.271918,22.105086 -14.275093,20.76146 -10.693529,17.40738 -16.152024,26.3239 -6.384044,11.78563 -17.922739,39.15934 -23.021215,62.23268 -0.115,0.521 -7.476329,43.17259 -3.266329,62.52959 z"
     fill="url(#h)"
     sodipodi:nodetypes="cccccccccccccccccccccccccccc"
     style="fill:url(#radialGradient950)" />
  <path
     id="tail-flame"
     d="m 311.82954,120.46733 c 21.12958,8.72016 48.22877,41.57984 54.26018,52.2842 1.323,0.994 8.2818,31.87047 9.3308,32.83747 41.05937,58.90474 17.53848,114.262 15.40948,119.322 44.261,-36.46 72.575,-90.383 64.051,-146.044 C 427.706,111.135 381.627,83.823 344,24.355 c -1.9,-3.007 -3.805,-6.022 -5.661,-9.2 -0.94501,-1.623022 -1.82766,-3.281565 -2.646,-4.972 -1.56328,-3.0181522 -2.68942,-6.22253 -3.51332,-9.52014537 -0.13604,-0.33610763 -0.40069,-0.82701231 -0.59888,-0.82548613 -0.2678,-0.0316968 -0.37811,0.0198976 -0.54015,0.13833367 -0.034,0.012 -0.0984,0.07073784 -0.13437,0.08473784 -0.053,0.021 -0.12092,0.07756698 -0.17692,0.10856698 C 321.43836,4.597007 237.12454,45.772334 311.82954,120.46733 Z"
     fill="url(#i)"
     sodipodi:nodetypes="cccccccccccccc" />
  <path
     id="tail-small"
     d="M367.023 198.651c-1.049-0.967-2.285-1.958-3.608-2.952-0.489-0.368-0.969-0.734-1.493-1.1-12.832-9.014-35.81-17.917-57.947-14.067 86.441 43.214 63.235 192.026-56.545 186.408a106.743 106.743 0 0 1-31.271-6.031 134.51 134.51 0 0 1-7.059-2.886c-1.356-0.618-2.711-1.243-4.05-1.935 0.048 0.033 0.114 0.07 0.163 0.1 16.71 11.4 99.239 39.257 185.484-30.966l0.133-0.313c2.129-5.054 30.675-76.057-23.807-126.258z"
     fill="url(#j)" />
  <path
     id="cheek-tufts"
     d="m 148.439,277.443 c 0,0 13.65941,-40.72217 76.79476,-46.52207 15.26902,-1.40268 16.87918,-4.36641 23.17504,-8.09916 11.62505,-6.89237 -40.05355,3.92722 -77.77834,-15.1174 -15.09061,-5.78035 -56.88347,19.41718 -56.88347,19.41718 0,0 7.61547,7.04705 18.08762,18.59628 -4.453,39.286 25.47664,81.88507 69.87939,108.73017 1.06601,0.64449 2.18,1.124 3.334,1.639 -38.85578,-22.32272 -53.582,-43.834 -56.609,-78.644 z"
     fill="url(#k)"
     sodipodi:nodetypes="csscccscc"
     style="fill:url(#k)" />
  <path
     id="overlay-yellow"
     d="m 478.71722,166.72482 c -10.445,-25.124 -30.70974,-52.41538 -47.32174,-60.98838 13.52,26.505 20.45474,53.26038 23.44474,73.10338 0,0.039 0.015,0.136 0.047,0.4 -27.175,-67.733 -73.254,-95.045003 -110.881,-154.513003 -1.9,-3.007 -3.805,-6.022 -5.661,-9.2 -0.94501,-1.62303 -1.82766,-3.28157 -2.646,-4.972 -1.56328,-3.0181604 -2.69563,-6.2108304 -3.51953,-9.5084404 -0.10892,-0.32710003 -0.35783,-0.77941003 -0.62812,-0.84701003 -0.14736,-0.0423 -0.2929,0.0235 -0.41645,0.0899 -0.034,0.012 -0.11666,0.091 -0.15266,0.10498 -0.053,0.021 -0.10571,0.0673 -0.16171,0.0983 0.027,-0.036 -0.3385,0.17132 -0.3215,0.15232 C 273.84842,30.847267 259.56482,81.286797 251.77515,108.54456 c 2.8,-0.194 45.13121,3.02566 70.7991,18.86139 25.62808,15.81117 44.68818,37.85822 51.84908,77.57769 -12.832,-9.014 -48.31011,-27.92781 -70.44711,-24.07781 86.441,43.214 63.235,192.026 -56.545,186.40801 -10.6666,-0.43531 -21.20756,-2.46826 -31.271,-6.03101 -2.3798,-0.89509 -4.73375,-1.85748 -7.059,-2.886 -1.356,-0.618 -2.711,-1.243 -4.05,-1.935 0.048,0.033 0.114,0.07 0.163,0.1 -1.1745,-0.56515 -2.34127,-1.1462 -3.5,-1.74299 1.124,0.53699 2.18,1.12401 3.334,1.639 -29.35,-15.168 -53.584,-43.83301 -56.611,-78.64301 0,0 22.52322,-49.42363 90.86222,-49.42363 7.388,0 17.07878,-12.52634 17.46978,-18.50437 -0.089,-1.952 -41.917,-18.59 -58.223,-34.65598 -8.713,-8.58398 -12.85,-12.72298 -16.514,-15.82799 -1.98776,-1.67899 15.44194,14.12365 13.2828,12.67165 -26.92469,-38.07795 -18.34235,-72.521913 -21.59491,-77.817173 -10.31811,1.75952 -42.47689,30.723503 -56.43689,46.413493 h -0.111 c -9.527,-12.067 -30.310698,-42.114133 -34.884045,-48.602633 -0.114,-0.515 -11.334101,10.341423 -12.250101,10.966423 -6.906435,6.91235 -7.620787,10.92881 -14.840616,18.31511 -6.917769,9.81421 -2.879707,5.46042 -9.596922,15.0404 0,0.012 -0.007,0.026 -0.011,0.038 0,-0.013 0.007,-0.026 0.011,-0.038 -15.453646,21.89942 -17.098112,42.03217 -22.931317,68.19271 -0.115,0.52099 -0.212,1.06101 -0.324,1.586 -0.452,2.116 -2.486,12.85299 -2.77,15.15599 -0.022,0.177 0.021,-0.176 0,0 -1.854849,11.09519 -3.038334,22.29221 -3.544,33.53 0,0.41 -0.025,0.816 -0.025,1.227 0,132.708 107.600001,240.29 240.324001,240.29 118.865,0 217.56,-86.288 236.88203,-199.63 0.407,-3.076 0.733,-6.168 1.092,-9.271 4.777,-41.21 -0.53,-84.525 -15.58703,-120.746 z m -23.841,12.341 c 0.012,0.085 0.027,0.174 0.04,0.259 l -0.008,-0.026 z"
     fill="url(#l)"
     style="opacity:0.820822;fill:url(#l)"
     sodipodi:nodetypes="ccccccccccccccsccccccccccsccccccccccccccccccsscccccccc" />
  <path
     style="fill:url(#radialGradient1055);fill-opacity:1;stroke:#000000;stroke-width:0.413379px;stroke-linecap:butt;stroke-linejoin:miter;stroke-opacity:0.0321554"
     d="m 131.82943,245.71327 c 0,0 26.7519,4.80928 35.22798,19.72479 8.53479,15.01882 39.3011,31.70876 57.09541,26.88118 50.75076,-13.76859 62.30231,-2.2578 62.30231,-2.2578 0,0 31.69193,18.94181 18.52974,27.27315 -13.28243,8.40746 -6.8146,-10.50445 -41.86515,12.47468 -25.84515,16.94407 -93.1212,23.5577 -125.43937,-21.47851 -24.61449,-34.30092 -5.85092,-62.61749 -5.85092,-62.61749 z"
     id="path1005"
     sodipodi:nodetypes="csscsssc" />
  <path
     d="m 366.25273,343.4516 c 10.94485,-4.68467 35.63398,-27.01749 48.35776,-41.56123 8.40907,-29.20165 -1.83013,-72.52064 -19.8651,-119.85578 -14.2537,-37.41214 -33.82389,-57.86913 -58.67203,-77.85286 -40.3549,-32.452217 -48.89451,-60.407841 -48.89451,-69.023141 0,0 -52.69633,58.233213 -29.11772,106.356571 22.68029,46.28991 61.59356,45.68313 88.97432,95.1699 32.21963,58.23347 -17.99456,113.38276 -66.19656,131.16919 60.21794,-22.66702 72.84059,-17.31786 85.41384,-24.40265 z"
     style="fill:url(#radial-gradient-7);stroke-width:0.375523"
     id="path211"
     sodipodi:nodetypes="cccccsccc" />
  <path
     id="overlay-yellow-9"
     d="m 479.574,166.53882 c -10.445,-25.124 -31.6,-52.248 -48.212,-60.821 13.52,26.505 21.345,53.093 24.335,72.936 0,0.039 0.015,0.136 0.047,0.4 -27.175,-67.733 -73.254,-95.045003 -110.881,-154.513003 -1.9,-3.007 -3.805,-6.022 -5.661,-9.2 -0.94501,-1.62303 -1.82766,-3.28157 -2.646,-4.972 -1.56328,-3.0181604 -2.69563,-6.2108304 -3.51953,-9.50844043 -0.10892,-0.3271 -0.35783,-0.77941 -0.62812,-0.84701 -0.14736,-0.0423 -0.2929,0.0235 -0.41645,0.0899 -0.034,0.012 -0.11666,0.091 -0.15266,0.10498 -0.053,0.021 -0.10571,0.0673 -0.16171,0.0983 0.027,-0.036 -0.3385,0.17132 -0.3215,0.15232 C 274.7052,30.661267 260.4216,81.100797 252.63193,108.35856 c 2.8,-0.194 45.13121,3.02566 70.7991,18.86139 25.62808,15.81117 44.68818,37.85822 51.84908,77.57769 -12.832,-9.014 -48.31011,-27.92781 -70.44711,-24.07781 86.441,43.214 63.235,192.026 -56.545,186.40801 -10.6666,-0.43531 -21.20756,-2.46826 -31.271,-6.03101 -2.3798,-0.89509 -4.73375,-1.85748 -7.059,-2.886 -1.356,-0.618 -2.711,-1.243 -4.05,-1.935 0.048,0.033 0.114,0.07 0.163,0.1 -1.1745,-0.56515 -2.34127,-1.1462 -3.5,-1.74299 1.124,0.53699 2.18,1.12401 3.334,1.639 -29.35,-15.168 -53.584,-43.83301 -56.611,-78.64301 13.85619,-94.57427 -16.88244,-130.75588 -125.768,-73.23199 -0.115,0.52099 -0.212,1.06101 -0.324,1.586 -0.452,2.116 -2.486,12.85299 -2.77,15.15599 -0.022,0.177 0.021,-0.176 0,0 -1.85485,11.09519 -3.03834,22.29221 -3.544,33.53 0,0.41 -0.025,0.816 -0.025,1.227 0,132.708 107.6,240.29 240.324,240.29 118.865,0 217.56,-86.288 236.88203,-199.63 0.407,-3.076 0.733,-6.168 1.092,-9.271 4.777,-41.21 -0.53,-84.525 -15.58703,-120.746 z m -23.841,12.341 c 0.012,0.085 0.027,0.174 0.04,0.259 l -0.008,-0.026 z"
     fill="url(#l)"
     style="opacity:1;fill:url(#linearGradient1064)"
     sodipodi:nodetypes="ccccccccccccccscccccccccccccccsscccccccc" />
  <path
     id="body-outer-ring-shadow-9"
     d="m 479.46711,165.99985 c -10.445,-25.12399 -31.6,-52.24799 -48.212,-60.82099 13.52,26.505 21.345,53.093 24.335,72.93599 0,-0.058 0.011,0.048 0.036,0.226 0.012,0.085 0.027,0.174 0.04,0.259 22.675,61.47 10.322,123.978 -7.479,162.175 -27.539,59.1 -94.21503,119.67 -198.57603,116.716 -112.75496,-3.193 54.5775,85.91266 36.0345,-23.66534 -23.76747,78.91361 -200.273077,62.46569 -28.5655,61.82134 118.865,0 217.56003,-86.288 236.88203,-199.63 0.407,-3.076 0.733,-6.168 1.092,-9.271 4.777,-41.21 -0.53,-84.525 -15.587,-120.746 z"
     fill="url(#c)"
     style="fill:url(#c-2)"
     sodipodi:nodetypes="cccscccccccc" />
</svg>
