<svg width="32" height="32" version="1" xmlns="http://www.w3.org/2000/svg" xmlns:xlink="http://www.w3.org/1999/xlink">
 <defs>
  <linearGradient id="linearGradient1688" x1="320" x2="352" y1="164" y2="132" gradientTransform="rotate(90 242 -78)" gradientUnits="userSpaceOnUse">
   <stop stop-color="#f4843f" offset="0"/>
   <stop stop-color="#f8ae34" offset="1"/>
  </linearGradient>
  <linearGradient id="linearGradient1024" x1="46.869" x2="254.15" y1="150.12" y2="150.12" gradientTransform="matrix(7.7241 0 0 7.7241 -2677.5 -937.03)" gradientUnits="userSpaceOnUse" xlink:href="#linearGradient4289"/>
  <linearGradient id="linearGradient4289">
   <stop stop-color="#fdfdfb" offset="0"/>
   <stop stop-color="#f0e9df" offset="1"/>
  </linearGradient>
  <linearGradient id="linearGradient1688-4" x1="322" x2="350" y1="148" y2="148" gradientTransform="rotate(90,242,-78)" gradientUnits="userSpaceOnUse">
   <stop stop-color="#fff" offset="0"/>
   <stop stop-color="#fff" stop-opacity=".098039" offset=".125"/>
   <stop stop-color="#fff" stop-opacity=".098039" offset=".925"/>
   <stop stop-color="#fff" stop-opacity=".49804" offset="1"/>
  </linearGradient>
 </defs>
 <path d="m9.3009 2c-1.6395 0-2.9408 0.0308-4.045 0.19141-1.1042 0.16064-2.067 0.4726-2.7831 1.0918s-1.0805 1.4561-1.2642 2.4141c-0.18374 0.95795-0.21537 2.087-0.20733 3.5117v7.791 7.7969c-9e-3 1.4213 0.0239 2.5495 0.20733 3.5058 0.18371 0.95796 0.5481 1.7949 1.2642 2.4141s1.6789 0.93115 2.7831 1.0918c1.1042 0.16065 2.4056 0.19141 4.045 0.19141h13.402c1.6395 0 2.9384-0.0307 4.0405-0.19141 1.1022-0.16075 2.0627-0.47425 2.7763-1.0938 0.71357-0.6195 1.0746-1.4536 1.2597-2.4102 0.18515-0.95653 0.22086-2.084 0.22086-3.5078v-7.7969-7.7969c0-1.4238-0.0358-2.5513-0.22086-3.5078-0.18512-0.95653-0.54612-1.7906-1.2597-2.4102-0.71359-0.61951-1.6741-0.933-2.7763-1.0938-1.1022-0.16076-2.401-0.19141-4.0405-0.19141z" color="#000000" color-rendering="auto" dominant-baseline="auto" image-rendering="auto" opacity=".1" shape-rendering="auto" solid-color="#000000" style="font-feature-settings:normal;font-variant-alternates:normal;font-variant-caps:normal;font-variant-ligatures:normal;font-variant-numeric:normal;font-variant-position:normal;isolation:auto;mix-blend-mode:normal;shape-padding:0;text-decoration-color:#000000;text-decoration-line:none;text-decoration-style:solid;text-indent:0;text-orientation:mixed;text-transform:none;white-space:normal"/>
 <path d="m9.1271 1.5c-6.4516 0-7.6603 0.58409-7.6264 6.2823v8.2176 8.2178c-0.034 5.6982 1.1748 6.2823 7.6264 6.2823h13.747c6.45 0 7.6264-0.58403 7.6264-6.2823v-8.2178-8.2176c0-5.6982-1.1764-6.2823-7.6264-6.2823z" color="#000000" fill="url(#linearGradient1688)"/>
 <g transform="matrix(.11048 0 0 .11048 -.62894 -.58558)" enable-background="new" fill="url(#linearGradient1024)" stroke-width="7.7241">
  <path d="m90.494 180.2h-43.625v-9.9295c7.8238-7.8223 30.474-25.409 28.15-35.53-3.0721-9.6888-16.516-3.1041-18.497 1.3179l-9.606-7.34c9.9051-15.277 40.548-13.517 41.418 6.1608 0.13417 15.553-15.328 25.09-24.344 33.668v0.59536h26.504z"/>
  <path d="m145.69 150.12c0.0631 17.934-5.1146 31.485-23.027 31.6-19.083-0.0356-23.56-13.743-23.495-31.488-0.0649-17.78 4.7813-31.58 23.495-31.614 18.066 0.0335 22.964 13.854 23.027 31.502zm-33.734 0.11236c0.11555 7.0266 0.67599 20.614 10.483 20.711 9.7053 0.11164 10.513-14.386 10.538-20.823-0.12683-6.991-0.48779-20.502-10.426-20.57-10.098-0.18412-10.528 13.963-10.595 20.682z"/>
  <path d="m231.71 118.61c8.5245 0.0453 20.45 3.7255 20.459 14.803-9e-3 8.758-3.6498 10.729-10.64 14.548 7.695 4.6453 12.534 8.1112 12.623 17.241-0.0892 11.956-11.652 16.271-22.443 16.351-11.363-0.0799-22.57-4.1346-22.744-16.523 0.17894-8.9376 5.4196-14.001 11.103-16.861-6.4909-3.9806-9.5333-6.0364-9.3731-14.84-0.1602-10.907 11.817-14.673 21.014-14.719zm-10.534 45.347c-0.0432 5.6839 4.6963 7.7436 10.41 7.6954 5.5049 0.0482 9.6719-2.2453 9.7399-7.1674 0.0479-8.2667-9.7344-11.879-9.7344-11.879s-10.459 3.6126-10.416 11.351zm10.441-34.982c-4.7979-0.0409-9.1512 1.0398-9.1739 5.677 0.0227 5.3995 9.0774 9.104 9.0774 9.104s8.3311-3.6544 8.4594-9.4847c-0.1918-4.2526-3.8086-5.3372-8.3629-5.2963z"/>
  <path d="m202.22 170.07h-7.77v10.088h-11.51v-10.08h-30.06v-11.137l29.332-38.853h12.238v39.776h7.77zm-19.28-33.723-18.038 23.517h18.038z"/>
 </g>
 <path d="m9.1271 1.5c-6.4516 0-7.6603 0.58409-7.6264 6.2823v8.2176 8.2178c-0.034 5.6982 1.1748 6.2823 7.6264 6.2823h13.747c6.45 0 7.6264-0.58403 7.6264-6.2823v-8.2178-8.2176c0-5.6982-1.1764-6.2823-7.6264-6.2823z" color="#000000" fill="none" opacity=".4" stroke="#000"/>
 <path d="m9.1269 2c-3.2107 0-5.0326 0.19514-5.9375 0.89844-0.45247 0.35165-0.74178 0.83286-0.93359 1.6172-0.19176 0.78433-0.26386 1.8569-0.25586 3.2637v2e-3 8.2188 8.2188 2e-3c-8e-3 1.4068 0.0641 2.4794 0.25586 3.2637 0.1918 0.78431 0.48112 1.2655 0.93359 1.6172 0.90496 0.7033 2.7268 0.89844 5.9375 0.89844h13.746c3.2099 0 5.0246-0.19551 5.9258-0.89844 0.45058-0.35146 0.73805-0.83201 0.93164-1.6172 0.19363-0.7853 0.26953-1.8603 0.26953-3.2677v-8.2168-8.2168c0-1.4074-0.0759-2.4824-0.26953-3.2676-0.19359-0.78517-0.48106-1.2657-0.93164-1.6172-0.90117-0.70293-2.7159-0.89844-5.9258-0.89844zm6.4981 1.0469c3.4565 0.0171 6.9142-0.0268 10.361 0.0918 0.8211 0.13276 1.8066 0.14835 2.3906 0.82617 0.67884 1.1647 0.51296 2.5878 0.56446 3.873 0.0431 6.0289 0.0678 12.067-0.0332 18.088-0.0775 0.77792-0.12055 1.6726-0.67968 2.2754-0.70249 0.51038-1.6183 0.59683-2.459 0.67383-4.0474 0.0864-8.1622 0.0456-12.24 0.0606-2.4519-0.0199-4.914 0.0317-7.3535-0.0606-0.87784-0.12055-1.915-0.14021-2.5606-0.83398-0.64775-1.0259-0.50264-2.3052-0.56054-3.4648-0.035-5.6558-0.0351-11.355 0-17.01 0.0632-1.2215-0.10864-2.5772 0.59179-3.6524 0.6025-0.62665 1.5562-0.63986 2.3594-0.77344 2.7374-0.10739 5.4808-0.0704 8.2266-0.0918 0.46403-2.9e-4 0.92855-2e-3 1.3926-2e-3z" color="#000000" fill="url(#linearGradient1688-4)"/>
</svg>
