<svg width="32" height="32" version="1" xmlns="http://www.w3.org/2000/svg" xmlns:xlink="http://www.w3.org/1999/xlink">
 <defs>
  <linearGradient id="linearGradient1688" x1="321" x2="351" y1="153" y2="143" gradientTransform="rotate(90 242 -78)" gradientUnits="userSpaceOnUse">
   <stop stop-color="#e7e7df" offset="0"/>
   <stop stop-color="#e7e7df" offset="1"/>
  </linearGradient>
  <linearGradient id="linearGradient1688-4" x1="322" x2="350" y1="148" y2="148" gradientTransform="rotate(90 242 -78)" gradientUnits="userSpaceOnUse">
   <stop stop-color="#fff" offset="0"/>
   <stop stop-color="#fff" stop-opacity=".098039" offset=".125"/>
   <stop stop-color="#fff" stop-opacity=".098039" offset=".925"/>
   <stop stop-color="#fff" stop-opacity=".49804" offset="1"/>
  </linearGradient>
 </defs>
 <path d="m9.3009 2c-1.6395 0-2.9408 0.0308-4.045 0.19141-1.1042 0.16064-2.067 0.4726-2.7831 1.0918s-1.0805 1.4561-1.2642 2.4141c-0.18374 0.95795-0.21537 2.087-0.20733 3.5117v7.791 7.7969c-9e-3 1.4213 0.0239 2.5495 0.20733 3.5058 0.18371 0.95796 0.5481 1.7949 1.2642 2.4141s1.6789 0.93115 2.7831 1.0918c1.1042 0.16065 2.4056 0.19141 4.045 0.19141h13.402c1.6395 0 2.9384-0.0307 4.0405-0.19141 1.1022-0.16075 2.0627-0.47425 2.7763-1.0938 0.71357-0.6195 1.0746-1.4536 1.2597-2.4102 0.18515-0.95653 0.22086-2.084 0.22086-3.5078v-7.7969-7.7969c0-1.4238-0.0358-2.5513-0.22086-3.5078-0.18512-0.95653-0.54612-1.7906-1.2597-2.4102-0.71359-0.61951-1.6741-0.933-2.7763-1.0938-1.1022-0.16076-2.401-0.19141-4.0405-0.19141z" color="#000000" color-rendering="auto" dominant-baseline="auto" image-rendering="auto" opacity=".1" shape-rendering="auto" solid-color="#000000" style="font-feature-settings:normal;font-variant-alternates:normal;font-variant-caps:normal;font-variant-ligatures:normal;font-variant-numeric:normal;font-variant-position:normal;isolation:auto;mix-blend-mode:normal;shape-padding:0;text-decoration-color:#000000;text-decoration-line:none;text-decoration-style:solid;text-indent:0;text-orientation:mixed;text-transform:none;white-space:normal"/>
 <path d="m9.1271 1.5c-6.4516 0-7.6603 0.58409-7.6264 6.2823v8.2176 8.2178c-0.034 5.6982 1.1748 6.2823 7.6264 6.2823h13.747c6.45 0 7.6264-0.58403 7.6264-6.2823v-8.2178-8.2176c0-5.6982-1.1764-6.2823-7.6264-6.2823z" color="#000000" fill="url(#linearGradient1688)"/>
 <path d="m9.2518 1.5625c-6.4516 0-7.6609 0.58502-7.627 6.2832v4.1543h29v-4.1543c0-5.6982-1.1769-6.2832-7.627-6.2832z" color="#000000" opacity=".05"/>
 <path d="m9.2518 30.5c-6.4516 0-7.6609-0.58502-7.627-6.2832v-4.1543h29v4.1543c0 5.6982-1.1769 6.2832-7.627 6.2832z" color="#000000" fill="#fff" opacity=".2"/>
 <rect x="11" y="4" width="1" height="24" enable-background="new" fill="#847d6c"/>
 <rect x="20" y="4" width="1" height="24" enable-background="new" fill="#847d6c"/>
 <rect transform="rotate(-90)" x="-21" y="3.9999" width="1" height="24" enable-background="new" fill="#847d6c"/>
 <rect transform="rotate(-90)" x="-12" y="3.9999" width="1" height="24" enable-background="new" fill="#847d6c"/>
 <g transform="matrix(.11958 0 0 .12621 -3.0881 -4.1357)" enable-background="new" fill="#847d6c" stroke="#847d6c" stroke-width="1.628" aria-label="7">
  <path d="m81.888 112q0.32-4.544 1.6-9.6 1.344-5.12 3.2-9.856 1.856-4.8 4.096-8.832 2.24-4.096 4.416-6.72h-19.2v-4.608h25.088v4.416q-1.92 2.24-4.16 6.016t-4.288 8.512q-1.984 4.672-3.456 10.048-1.472 5.312-1.856 10.624z" fill="#847d6c" stroke="#847d6c" stroke-width="1.628"/>
 </g>
 <g transform="matrix(.12913 0 0 .12621 -3.6778 -4.1357)" enable-background="new" fill="#847d6c" stroke="#847d6c" stroke-width="1.5666" aria-label="1">
  <path d="m140.77 80.576q3.264-1.28 6.336-3.2 3.072-1.984 5.696-4.992h3.712v35.136h7.488v4.48h-21.312v-4.48h8.576v-27.776q-0.704 0.64-1.728 1.344-0.96 0.64-2.176 1.28-1.152 0.64-2.432 1.216t-2.496 0.96z" fill="#847d6c" stroke="#847d6c" stroke-width="1.5666"/>
 </g>
 <rect x="3.9999" y="12" width="7" height="8" enable-background="new" fill="#f2f2f2"/>
 <g transform="matrix(.12081 0 0 .12342 -3.1354 -3.222)" enable-background="new" fill="#1a1a1a" stroke="#1a1a1a" stroke-width="1.6379" aria-label="2">
  <path d="m98.848 146.5q0 2.048-0.832 3.968-0.768 1.92-2.112 3.776-1.28 1.856-2.944 3.648t-3.392 3.52q-0.96 0.96-2.24 2.304t-2.432 2.752-1.92 2.752-0.768 2.304h18.24v4.48h-24q-0.064-0.32-0.064-0.64 0-0.384 0-0.704 0-2.688 0.896-4.992t2.304-4.352 3.136-3.84q1.792-1.856 3.52-3.584 1.408-1.408 2.688-2.752 1.344-1.344 2.304-2.688 1.024-1.344 1.6-2.752 0.64-1.472 0.64-3.008 0-1.728-0.576-2.944-0.512-1.216-1.472-1.984-0.896-0.832-2.112-1.216t-2.624-0.384q-1.664 0-3.072 0.448-1.344 0.448-2.432 1.088-1.024 0.64-1.792 1.28-0.768 0.576-1.152 0.96l-2.624-3.712q0.512-0.576 1.536-1.408t2.432-1.536q1.472-0.768 3.264-1.28t3.84-0.512q6.208 0 9.152 2.88 3.008 2.816 3.008 8.128z" fill="#1a1a1a" stroke="#1a1a1a" stroke-width="1.6379"/>
 </g>
 <g transform="matrix(.11867 0 0 .12303 -1.1406 -3.2559)" enable-background="new" fill="#847d6c" stroke="#847d6c" stroke-width="1.6552" aria-label="6">
  <path d="m203.42 160.13q0-5.76 1.536-10.176 1.6-4.48 4.48-7.488 2.944-3.008 7.104-4.608t9.408-1.664l0.448 4.48q-3.392 0.064-6.208 0.768-2.752 0.64-4.928 2.176-2.176 1.472-3.648 3.84t-2.24 5.824q1.536-0.704 3.328-1.152 1.856-0.448 3.904-0.448 3.328 0 5.632 1.024 2.368 1.024 3.776 2.752 1.408 1.664 2.048 3.904t0.64 4.608q0 2.176-0.704 4.48-0.704 2.24-2.176 4.16-1.472 1.856-3.776 3.072-2.304 1.152-5.504 1.152-6.592 0-9.856-4.416t-3.264-12.288zm12.608-4.096q-2.048 0-3.776 0.384-1.664 0.384-3.392 1.152-0.064 0.64-0.064 1.28 0 0.576 0 1.28 0 2.496 0.32 4.736 0.384 2.176 1.216 3.904 0.896 1.664 2.368 2.688 1.472 0.96 3.776 0.96 1.92 0 3.2-0.768 1.28-0.832 2.112-2.048t1.152-2.688q0.384-1.536 0.384-2.88 0-3.904-1.792-5.952-1.728-2.048-5.504-2.048z" fill="#847d6c" stroke="#847d6c" stroke-width="1.6552"/>
 </g>
 <g transform="matrix(.11837 0 0 .12303 -2.9054 -2.5433)" enable-background="new" fill="#847d6c" stroke="#847d6c" stroke-width="1.6573" aria-label="9">
  <path d="m100.58 216.26q0 11.84-5.76 17.856-5.76 5.952-17.344 6.016l-0.192-4.48q7.168 0 11.52-2.816 4.416-2.88 5.824-9.856-1.536 0.704-3.392 1.152-1.856 0.384-3.904 0.384-3.392 0-5.696-0.96-2.304-1.024-3.712-2.688-1.408-1.728-2.048-3.904t-0.64-4.608q0-2.176 0.704-4.416 0.704-2.304 2.176-4.16t3.776-3.072 5.504-1.216q6.528 0 9.856 4.48 3.328 4.48 3.328 12.288zm-12.672 3.904q2.048 0 3.776-0.384 1.792-0.384 3.456-1.088 0.064-0.64 0.064-1.216t0-1.216q0-2.496-0.384-4.736-0.32-2.24-1.216-3.904-0.832-1.664-2.368-2.624-1.472-1.024-3.776-1.024-1.92 0-3.2 0.832-1.28 0.768-2.112 1.984-0.832 1.152-1.216 2.624-0.32 1.472-0.32 2.816 0 3.904 1.728 5.952 1.792 1.984 5.568 1.984z" fill="#847d6c" stroke="#847d6c" stroke-width="1.6573"/>
 </g>
 <g transform="matrix(.10901 0 0 .12621 .94986 -3.2908)" enable-background="new" fill="#847d6c" stroke="#847d6c" stroke-width="1.7051" aria-label="4">
  <path d="m202.27 226.3q1.088-2.56 2.944-5.888 1.92-3.328 4.288-6.848 2.368-3.584 5.056-6.976 2.688-3.456 5.44-6.208h5.12v25.152h4.672v4.352h-4.672v10.112h-5.12v-10.112h-17.728zm17.728-19.648q-1.728 1.856-3.52 4.096-1.728 2.24-3.392 4.736-1.664 2.432-3.136 4.992-1.408 2.56-2.56 5.056h12.608z" fill="#847d6c" stroke="#847d6c" stroke-width="1.7051"/>
 </g>
 <path d="m9.1271 1.5c-6.4516 0-7.6603 0.58409-7.6264 6.2823v8.2176 8.2178c-0.034 5.6982 1.1748 6.2823 7.6264 6.2823h13.747c6.45 0 7.6264-0.58403 7.6264-6.2823v-8.2178-8.2176c0-5.6982-1.1764-6.2823-7.6264-6.2823z" color="#000000" fill="none" opacity=".4" stroke="#000"/>
 <path d="m9.127 2c-3.2107 0-5.0326 0.19514-5.9375 0.89844-0.45247 0.35165-0.74178 0.83286-0.93359 1.6172-0.19176 0.78433-0.26386 1.8569-0.25586 3.2637v2e-3 8.2188 8.2188 2e-3c-8e-3 1.4068 0.0641 2.4794 0.25586 3.2637 0.1918 0.78431 0.48112 1.2655 0.93359 1.6172 0.90496 0.7033 2.7268 0.89844 5.9375 0.89844h13.746c3.2099 0 5.0246-0.19551 5.9258-0.89844 0.45058-0.35146 0.73805-0.83201 0.93164-1.6172 0.19363-0.7853 0.26953-1.8603 0.26953-3.2677v-8.2168-8.2168c0-1.4074-0.0759-2.4824-0.26953-3.2676-0.19359-0.78517-0.48106-1.2657-0.93164-1.6172-0.90117-0.70293-2.7159-0.89844-5.9258-0.89844zm6.498 1.0469c3.4565 0.0171 6.9142-0.0268 10.361 0.0918 0.8211 0.13276 1.8066 0.14835 2.3906 0.82617 0.67884 1.1647 0.51296 2.5878 0.56446 3.873 0.0431 6.0289 0.0678 12.067-0.0332 18.088-0.0775 0.77792-0.12055 1.6726-0.67968 2.2754-0.70249 0.51038-1.6183 0.59683-2.459 0.67383-4.0474 0.0864-8.1622 0.0456-12.24 0.0606-2.4519-0.0199-4.914 0.0317-7.3535-0.0606-0.87784-0.12055-1.915-0.14021-2.5606-0.83398-0.64775-1.0259-0.50264-2.3052-0.56054-3.4648-0.035-5.6558-0.0351-11.355 0-17.01 0.0632-1.2215-0.10864-2.5772 0.59179-3.6524 0.6025-0.62665 1.5562-0.63986 2.3594-0.77344 2.7374-0.10739 5.4808-0.0704 8.2266-0.0918 0.46403-2.9e-4 0.92855-2e-3 1.3926-2e-3z" color="#000000" fill="url(#linearGradient1688-4)"/>
</svg>
