<svg width="32" height="32" version="1" xmlns="http://www.w3.org/2000/svg" xmlns:xlink="http://www.w3.org/1999/xlink">
 <defs>
  <linearGradient id="linearGradient3257" x1="330.08" x2="341.93" y1="133.5" y2="162.5" gradientTransform="translate(-320,-132)" gradientUnits="userSpaceOnUse">
   <stop stop-color="#b3b3b3" offset="0"/>
   <stop stop-color="#d9d9d9" offset="1"/>
  </linearGradient>
  <linearGradient id="linearGradient1004-8" x1="344" x2="344" y1="62" y2="106" gradientUnits="userSpaceOnUse">
   <stop stop-color="#fff" offset="0"/>
   <stop stop-color="#fff" stop-opacity=".098039" offset=".125"/>
   <stop stop-color="#fff" stop-opacity=".098039" offset=".925"/>
   <stop stop-color="#fff" stop-opacity=".49804" offset="1"/>
  </linearGradient>
  <clipPath id="clipPath994-1">
   <path d="m335.73 62c-8.8242 0-9.7736 0.90635-9.7304 9.7484v12.252 12.252c-0.0433 8.842 0.90622 9.7484 9.7304 9.7484h16.539c8.8242 0 9.7304-0.90625 9.7304-9.7484v-12.252-12.252c0-8.8421-0.90622-9.7484-9.7304-9.7484z" color="#000000" fill="#cdcdcd"/>
  </clipPath>
  <linearGradient id="linearGradient1744" x1="-128" x2="-192" y1="-64" y2="-224" gradientTransform="translate(-145.69 -12.382)" gradientUnits="userSpaceOnUse">
   <stop stop-color="#fb7c38" offset="0"/>
   <stop stop-color="#fda463" offset="1"/>
  </linearGradient>
  <linearGradient id="linearGradient1746" x1="-128" x2="-192" y1="-64" y2="-224" gradientTransform="translate(-145.69 -12.382)" gradientUnits="userSpaceOnUse">
   <stop stop-color="#f22c42" offset="0"/>
   <stop stop-color="#f76363" offset="1"/>
  </linearGradient>
  <linearGradient id="linearGradient1748" x1="-128" x2="-192" y1="-64" y2="-224" gradientTransform="translate(-145.69 -12.382)" gradientUnits="userSpaceOnUse">
   <stop stop-color="#76c22b" offset="0"/>
   <stop stop-color="#a6d74f" offset="1"/>
  </linearGradient>
  <linearGradient id="linearGradient1750" x1="324" x2="324" y1="67" y2="95" gradientTransform="translate(20)" gradientUnits="userSpaceOnUse">
   <stop stop-color="#e6e6e6" offset="0"/>
   <stop stop-color="#f2f2f2" offset="1"/>
  </linearGradient>
 </defs>
 <path d="m10.193 2c-1.421 0-2.5488 0.0308-3.5059 0.19141-0.95703 0.16064-1.7915 0.4726-2.4121 1.0918s-0.93647 1.4561-1.0957 2.4141c-0.15924 0.95795-0.18666 2.087-0.17969 3.5117v7.791 7.7969c-7e-3 1.4213 0.0207 2.5495 0.17969 3.5058 0.15923 0.95796 0.47505 1.7949 1.0957 2.4141s1.4551 0.93115 2.4121 1.0918c0.95703 0.16065 2.0849 0.19141 3.5059 0.19141h11.615c1.421 0 2.5467-0.0307 3.502-0.19141 0.95527-0.16075 1.7878-0.47425 2.4062-1.0938 0.61845-0.6195 0.93134-1.4536 1.0918-2.4102 0.16046-0.95653 0.19141-2.084 0.19141-3.5078v-7.7969-7.7969c0-1.4238-0.031-2.5513-0.19141-3.5078-0.16045-0.95653-0.47334-1.7906-1.0918-2.4102-0.61846-0.61951-1.451-0.933-2.4062-1.0938-0.95527-0.16076-2.081-0.19141-3.502-0.19141z" color="#000000" color-rendering="auto" dominant-baseline="auto" image-rendering="auto" opacity=".1" shape-rendering="auto" solid-color="#000000" style="font-feature-settings:normal;font-variant-alternates:normal;font-variant-caps:normal;font-variant-ligatures:normal;font-variant-numeric:normal;font-variant-position:normal;isolation:auto;mix-blend-mode:normal;shape-padding:0;text-decoration-color:#000000;text-decoration-line:none;text-decoration-style:solid;text-indent:0;text-orientation:mixed;text-transform:none;white-space:normal"/>
 <path d="m10.075 1.5c-5.5618 0-6.6037 0.58409-6.5745 6.2823v8.2176 8.2178c-0.0293 5.6982 1.0127 6.2823 6.5745 6.2823h11.85c5.5604 0 6.5745-0.58403 6.5745-6.2823v-8.2178-8.2176c0-5.6982-1.0141-6.2823-6.5745-6.2823z" color="#000000" fill="url(#linearGradient3257)"/>
 <path d="m10.075 1.5c-5.5618 0-6.6037 0.58409-6.5745 6.2823v8.2176 8.2178c-0.0293 5.6982 1.0127 6.2823 6.5745 6.2823h11.85c5.5604 0 6.5745-0.58403 6.5745-6.2823v-8.2178-8.2176c0-5.6982-1.0141-6.2823-6.5745-6.2823z" color="#000000" fill="none" opacity=".4" stroke="#000"/>
 <path transform="matrix(.66664 0 0 .63636 -213.32 -37.455)" d="m335.73 62c-8.8242 0-9.7736 0.90635-9.7304 9.7484v12.252 12.252c-0.0433 8.842 0.90622 9.7484 9.7304 9.7484h16.539c8.8242 0 9.7304-0.90625 9.7304-9.7484v-12.252-12.252c0-8.8421-0.90622-9.7484-9.7304-9.7484z" clip-path="url(#clipPath994-1)" color="#000000" fill="none" opacity=".7" stroke="url(#linearGradient1004-8)" stroke-width="3.0707"/>
 <circle cx="16" cy="15" r="11" color="#000000" fill="#4d4d4d"/>
 <g transform="matrix(.67857 0 0 .67857 -217.43 -39.964)" enable-background="new">
  <g transform="matrix(.19718 0 0 .19718 285.3 50.953)" stroke-width="7.4737">
   <path transform="scale(-1)" d="m-226.69-152.38a71 71 0 0 1-35.5 61.488 71 71 0 0 1-71-2e-6 71 71 0 0 1-35.5-61.488h71z" enable-background="new" fill="url(#linearGradient1744)"/>
   <path transform="scale(-1)" d="m-368.69-152.38a71 71 0 0 1 71-71v71z" enable-background="new" fill="url(#linearGradient1746)"/>
   <path transform="scale(-1)" d="m-247.49-102.18a71 71 0 0 1-100.41 0 71 71 0 0 1-1e-5 -100.41l50.205 50.205z" enable-background="new" fill="url(#linearGradient1748)"/>
  </g>
  <path d="m344 95a14 14 0 0 1-9.8995-4.1005 14 14 0 0 1-4.1005-9.8995h14z" fill="url(#linearGradient1750)" stroke-width="1.4737"/>
 </g>
 <g transform="matrix(.12412 -.043088 .043088 .12412 -33.205 13.959)" enable-background="new" opacity=".4" stroke-width="7.6112">
  <path d="m391.48 166.76s-119.46 39.891-125.92 41.382c-6.4576 1.4907-12.901-2.5359-14.392-8.9935-1.4906-6.4576 2.5359-12.901 8.9935-14.392 6.4576-1.4906 131.32-17.997 131.32-17.997z" enable-background="new" opacity="1"/>
  <circle cx="265.25" cy="191.08" r="4" enable-background="new" opacity="1"/>
 </g>
 <g transform="matrix(.13127 -.0055105 .0055105 .13127 -28.152 2.1537)" enable-background="new" stroke-width="7.6112">
  <path d="m381.92 128.91s-104.76 69.904-110.6 73.041c-5.8382 3.1365-13.114 0.94626-16.25-4.892s-0.94625-13.114 4.892-16.25c5.8383-3.1365 121.96-51.899 121.96-51.899z" enable-background="new" fill="#fff"/>
  <circle cx="265.25" cy="191.08" r="4" enable-background="new" fill="#808080"/>
 </g>
 <ellipse cx="16" cy="15" rx="4.0533" ry="4.0533" enable-background="new" opacity=".05"/>
 <ellipse cx="16" cy="15" rx="2.5333" ry="2.5333" enable-background="new" fill="#fff"/>
 <g transform="matrix(.12667 0 0 .12667 -3.2532 -4.76)" enable-background="new" opacity=".1" stroke-width="7.8947">
  <circle transform="rotate(-30)" cx="53.636" cy="185.1" r="2" opacity="1"/>
  <circle transform="rotate(-30)" cx="53.636" cy="237.1" r="2" opacity="1"/>
  <circle transform="rotate(-60)" cx="-59.1" cy="183.64" r="2" opacity="1"/>
  <circle transform="rotate(-60)" cx="-59.1" cy="235.64" r="2" opacity="1"/>
  <circle transform="rotate(-90)" cx="-156" cy="126" r="2" opacity="1"/>
  <circle transform="rotate(-90)" cx="-156" cy="178" r="2" opacity="1"/>
  <circle transform="rotate(240)" cx="-211.1" cy="27.636" r="2" opacity="1"/>
  <circle transform="rotate(240)" cx="-211.1" cy="79.636" r="2" opacity="1"/>
  <circle transform="rotate(210 152 156)" cx="152" cy="130" r="2" enable-background="new" opacity="1"/>
  <circle transform="rotate(210 152 156)" cx="152" cy="182" r="2" enable-background="new" opacity="1"/>
  <circle transform="scale(-1)" cx="-152" cy="-182" r="2" opacity="1"/>
  <circle transform="scale(-1)" cx="-152" cy="-130" r="2" opacity="1"/>
 </g>
 <ellipse cx="16" cy="15" rx="2.0267" ry="2.0267" enable-background="new" opacity=".1"/>
 <ellipse cx="16" cy="15" rx=".50667" ry=".50667" enable-background="new" fill="#888"/>
</svg>
