<svg width="32" height="32" version="1" xmlns="http://www.w3.org/2000/svg">
 <defs>
  <linearGradient id="linearGradient8588-0" x1="13.735" x2="38.1" y1="249.69" y2="292.77" gradientTransform="matrix(.60892 0 0 .60892 .85556 -149.71)" gradientUnits="userSpaceOnUse">
   <stop stop-color="#325fd1" offset="0"/>
   <stop stop-color="#6e98ff" offset="1"/>
  </linearGradient>
  <clipPath id="clipPath1205-3">
   <path d="m341.12 133.5c9.0811 0 10.379 1.2946 10.379 10.367v8.2656c0 9.0726-1.2978 10.367-10.379 10.367h-10.242c-9.0811 0-10.379-1.2946-10.379-10.367v-8.2656c0-9.0726 1.2978-10.367 10.379-10.367z" fill="#325fd1"/>
  </clipPath>
  <linearGradient id="linearGradient8590-3" x1="96" x2="96" y1="4" y2="188" gradientTransform="matrix(.15217 0 0 .15217 1.3913 1.3913)" gradientUnits="userSpaceOnUse">
   <stop stop-color="#fff" offset="0"/>
   <stop stop-color="#fff" stop-opacity=".098039" offset=".125"/>
   <stop stop-color="#fff" stop-opacity=".098039" offset=".925"/>
   <stop stop-color="#fff" stop-opacity=".49804" offset="1"/>
  </linearGradient>
 </defs>
 <circle transform="scale(-1)" cx="-16" cy="-17" r="15" enable-background="new" opacity=".1"/>
 <circle cx="16" cy="16" r="14.5" enable-background="new" fill="url(#linearGradient8588-0)"/>
 <path transform="matrix(.96894 0 0 .96894 -309.53 -127.3)" d="m328.91 135.38a14.5 14.5 0 0 0-2.5098 1.7871l0.55664 0.55664h2.3438v-2.3438zm3.6719 0-1.6406 1.875 1.4062 1.4062v1.4707l1.6406 1.8106h0.9375v-0.9375l1.4062-1.4062v-0.9375l0.9375-0.9375v-1.4062l-0.9375-0.9375zm-6.3281 3.2812v1.4062h-1.1719l-0.70117-0.70117a14.5 14.5 0 0 0-2.8652 8.3848l1.6914 1.6914h1.4063l2.3437 2.3438v-2.8125l1.4063-1.4062h0.9375l1.4062-1.4062h1.4063l-0.70313-0.70313 1.4062-1.6406-1.4062-1.4062h-2.1094v1.875h-0.9375l-0.9375-0.9375v-0.9375l1.4062-1.4062h1.1719v-0.9375l-1.4062-1.4062zm21.258 0.53906-1.3359 1.3359-0.9375-0.9375h-2.8125l-1.4063 1.4062v1.1719h1.4063v-0.70313h0.9375v0.9375l-0.46876 0.46875-1.875 0.0312-0.70312 0.67187h-0.9375v0.9375l-0.70312 0.70313v1.4062h1.4062l0.9375-0.9375h0.9375v0.46875l0.9375 0.9375h0.46876v-0.4687l-0.9375-0.9375h0.9375l0.9375 0.9375h1.1719l-0.70313-0.70312 0.70313-0.70313h0.70313l0.70312 0.70313h-0.70312l-0.70313 0.70312 0.69141 0.69141 0.0117 0.71484h-0.9375l2.8125 2.8125h0.46874l1.4063-1.4062-0.9375-0.9375h1.4902a14.5 14.5 0 0 0 0.0254-0.5 14.5 14.5 0 0 0-2.9922-8.8047zm-2.2734 8.8359h-2.8125l-0.46876-0.46875h-2.8125l-1.6406 1.6406v2.3438l1.1719 1.1719h1.6406l0.70312 0.70313v0.70312l0.46876 0.46875v2.8125l1.7793 1.8809 2.9394-2.9394-0.0312-2.6914 2.3437-2.3438h-0.9375l-2.3437-2.3438zm-9.1406-6.5625v0.70313h1.4062l-0.70312-0.70313zm4.2188 0.23437-0.70312 0.70313v0.70313h0.70312zm-7.2656 2.5781-0.70313 0.70313h0.70313l0.23437 0.23437h0.23437l0.23438-0.23437zm-3.9844 4.9219-0.70312 0.70313h1.4062v-0.70313zm-0.70312 2.1094-0.9375 0.9375v2.3438l1.8808 1.6484-6e-3 2.1016-0.70313 0.70313v1.3984a14.5 14.5 0 0 0 1.2578 0.66797l2.4922-2.3008v-0.9375l1.4062-1.4062v-0.70313l0.70312-0.70312v-1.875l-0.9375-0.9375h-1.875l-0.9375-0.9375zm19.453 3.2812-0.9375 0.875v1.4688h0.52148a14.5 14.5 0 0 0 0.41602-0.54688z" clip-path="url(#clipPath1205-3)" color="#000000" fill="#fff" opacity=".24"/>
 <circle cx="16" cy="16" r="14.5" enable-background="new" fill="none" opacity=".4" stroke="#000" stroke-dashoffset="6.6" stroke-linejoin="round"/>
 <path d="m16 2c-7.732 0-14 6.268-14 14s6.268 14 14 14 14-6.268 14-14-6.268-14-14-14zm0 1a13 13 0 0 1 13 13 13 13 0 0 1-13 13 13 13 0 0 1-13-13 13 13 0 0 1 13-13z" enable-background="new" fill="url(#linearGradient8590-3)"/>
</svg>
