<svg width="32" height="32" version="1" xmlns="http://www.w3.org/2000/svg" xmlns:xlink="http://www.w3.org/1999/xlink">
 <defs>
  <linearGradient id="linearGradient1688" x1="321" x2="351" y1="153" y2="143" gradientTransform="rotate(90 242 -78)" gradientUnits="userSpaceOnUse">
   <stop stop-color="#4d4d4d" offset="0"/>
   <stop stop-color="#4d4d4d" offset="1"/>
  </linearGradient>
  <filter id="filter194" x="-.020441" y="-.020359" width="1.0409" height="1.0407" color-interpolation-filters="sRGB">
   <feFlood flood-color="rgb(0,0,0)" flood-opacity=".49804" result="flood"/>
   <feComposite in="flood" in2="SourceGraphic" operator="in" result="composite1"/>
   <feGaussianBlur in="composite1" result="blur" stdDeviation="1.0220649"/>
   <feOffset dx="0" dy="2" result="offset"/>
   <feComposite in="SourceGraphic" in2="offset" result="composite2"/>
  </filter>
  <linearGradient id="linearGradient1240" x1="61.291" x2="77.655" y1="17.635" y2="17.635" gradientTransform="matrix(4.6039 0 0 13.68 -155.73 -1583.9)" gradientUnits="userSpaceOnUse">
   <stop stop-color="#fff" offset="0"/>
   <stop stop-color="#EDEDED" offset="1"/>
  </linearGradient>
  <linearGradient id="linearGradient1242" x1="48.484" x2="77.873" y1="17.635" y2="17.635" gradientTransform="matrix(4.6039 0 0 13.68 -155.73 -1583.9)" gradientUnits="userSpaceOnUse">
   <stop stop-color="#828282" offset="0"/>
   <stop stop-color="#353535" offset="1"/>
  </linearGradient>
  <linearGradient id="linearGradient1688-4" x1="322" x2="350" y1="148" y2="148" gradientTransform="rotate(90,242,-78)" gradientUnits="userSpaceOnUse">
   <stop stop-color="#fff" offset="0"/>
   <stop stop-color="#fff" stop-opacity=".098039" offset=".125"/>
   <stop stop-color="#fff" stop-opacity=".098039" offset=".925"/>
   <stop stop-color="#fff" stop-opacity=".49804" offset="1"/>
  </linearGradient>
 </defs>
 <path d="m9.3009 2c-1.6395 0-2.9408 0.0308-4.045 0.19141-1.1042 0.16064-2.067 0.4726-2.7831 1.0918s-1.0805 1.4561-1.2642 2.4141c-0.18374 0.95795-0.21537 2.087-0.20733 3.5117v7.791 7.7969c-9e-3 1.4213 0.0239 2.5495 0.20733 3.5058 0.18371 0.95796 0.5481 1.7949 1.2642 2.4141s1.6789 0.93115 2.7831 1.0918c1.1042 0.16065 2.4056 0.19141 4.045 0.19141h13.402c1.6395 0 2.9384-0.0307 4.0405-0.19141 1.1022-0.16075 2.0627-0.47425 2.7763-1.0938 0.71357-0.6195 1.0746-1.4536 1.2597-2.4102 0.18515-0.95653 0.22086-2.084 0.22086-3.5078v-7.7969-7.7969c0-1.4238-0.0358-2.5513-0.22086-3.5078-0.18512-0.95653-0.54612-1.7906-1.2597-2.4102-0.71359-0.61951-1.6741-0.933-2.7763-1.0938-1.1022-0.16076-2.401-0.19141-4.0405-0.19141z" color="#000000" color-rendering="auto" dominant-baseline="auto" image-rendering="auto" opacity=".1" shape-rendering="auto" solid-color="#000000" style="font-feature-settings:normal;font-variant-alternates:normal;font-variant-caps:normal;font-variant-ligatures:normal;font-variant-numeric:normal;font-variant-position:normal;isolation:auto;mix-blend-mode:normal;shape-padding:0;text-decoration-color:#000000;text-decoration-line:none;text-decoration-style:solid;text-indent:0;text-orientation:mixed;text-transform:none;white-space:normal"/>
 <path d="m9.1271 1.5c-6.4516 0-7.6603 0.58409-7.6264 6.2823v8.2176 8.2178c-0.034 5.6982 1.1748 6.2823 7.6264 6.2823h13.747c6.45 0 7.6264-0.58403 7.6264-6.2823v-8.2178-8.2176c0-5.6982-1.1764-6.2823-7.6264-6.2823z" color="#000000" fill="url(#linearGradient1688)"/>
 <path d="m11.101 27.347c-0.71685 1.1298-2.3322 1.4913-3.4624 0.77423-1.1301-0.71705-1.4911-2.3326-0.77423-3.4624 0.71686-1.1298 2.3323-1.4913 3.4624-0.77425 1.1301 0.71706 1.4911 2.3326 0.77424 3.4624z" enable-background="new" opacity=".1" stroke-width="3.7797"/>
 <path d="m8.106 18.019c-0.71686 1.1298-2.3326 1.4911-3.4624 0.77424-1.1298-0.71685-1.4911-2.3326-0.77425-3.4624 0.71684-1.1298 2.3326-1.4911 3.4624-0.77424 1.1298 0.71684 1.491 2.3326 0.77422 3.4624z" enable-background="new" opacity=".1" stroke-width="3.7797"/>
 <path d="m12.81 10.605c-0.71686 1.1298-2.3326 1.4911-3.4624 0.77425-1.1298-0.71685-1.4911-2.3326-0.77424-3.4624 0.71683-1.1298 2.3326-1.4911 3.4624-0.77423 1.1298 0.71684 1.4911 2.3326 0.77423 3.4624z" enable-background="new" opacity=".1" stroke-width="3.7797"/>
 <path d="m22.525 9.3414c-0.71685 1.1298-2.3326 1.4911-3.4624 0.77424-1.1298-0.71684-1.4911-2.3326-0.77423-3.4624 0.71684-1.1298 2.3326-1.4911 3.4624-0.77424 1.1298 0.71683 1.4911 2.3326 0.77424 3.4624z" enable-background="new" opacity=".1" stroke-width="3.7797"/>
 <path d="m19.347 18.758c-1.0847-0.091-2.7136 0.65059-3.5106 2.0819-1.4119 2.5355-0.30213 6.3772-3.3524 5.7071 4.0319 3.0855 9.5534-1.5202 9.5939-4.4585 9e-3 -0.63564-0.1264-1.1666-0.34868-1.6053z" enable-background="new" fill-rule="evenodd" opacity=".1" stroke-width="3.7797"/>
 <path d="m13.043 26.921c3.9639 2.2948 8.9957-2.0286 9.0343-4.8331 9e-3 -0.63564-0.1264-1.1666-0.34868-1.6053l-2.3058-1.6699c-0.6125 0.35218-1.1841 0.84022-1.6229 1.4642-2.0572 2.9258-1.1918 7.7773-4.844 6.563 0.0289 0.0274 0.058 0.0543 0.0871 0.081z" enable-background="new" fill-rule="evenodd" opacity=".1" stroke-width="3.7797"/>
 <path d="m14.754 27.518c3.5639 0.51692 7.29-3.0183 7.3232-5.4301 9e-3 -0.63564-0.1264-1.1666-0.34868-1.6053l-2.2883-1.6572c-0.49291 0.42815-0.92607 0.9666-1.2239 1.6021-1.467 3.1301 0.17089 7.6026-3.5092 7.0598 0.0156 0.0103 0.0312 0.0205 0.0468 0.0306z" enable-background="new" fill-rule="evenodd" opacity=".1" stroke-width="3.7797"/>
 <path d="m19.12 26.359c1.7123-1.1461 2.938-2.8919 2.9571-4.2706 9e-3 -0.63564-0.1264-1.1666-0.34868-1.6053l-2.272-1.6454c-0.24944 0.42868-0.43804 0.91011-0.53037 1.4279-0.40307 2.2602 0.81834 4.7598 0.19399 6.0934z" enable-background="new" fill-rule="evenodd" opacity=".1" stroke-width="3.7797"/>
 <path d="m21.729 23.457c0.21919-0.4725 0.34269-0.93862 0.34863-1.369 9e-3 -0.63564-0.1264-1.1666-0.34868-1.6053l-2.1575-1.5624c0.0158 0.11739 0.0379 0.23495 0.0669 0.3521 0.41679 1.6856 1.9792 3.051 2.0907 4.1846z" enable-background="new" fill-rule="evenodd" opacity=".1" stroke-width="3.7797"/>
 <g transform="matrix(1.3116 .98519 -.98519 1.3116 240.28 -301.84)" enable-background="new" opacity=".1" stroke-width="7.9361">
  <path d="m10.2 231.51h1.0829v3.8806h-1.0829zm-0.21415 4.2265 1.3657-4e-3c0.15807-4.7e-4 0.29716 0.10426 0.34038 0.2563l0.24753 0.87061c0.05328 0.18741-0.05545 0.38253-0.24285 0.43581-0.03138 9e-3 -0.06385 0.0135-0.09648 0.0135h-1.8395c-0.19483 0-0.35278-0.15795-0.35278-0.35278 0-0.0301 0.00385-0.06 0.011448-0.0891l0.2263-0.86671c0.040458-0.15491 0.18017-0.26316 0.34028-0.26363zm0.21415-4.5793v-1.0583c0-0.19483 0.15794-0.35278 0.35278-0.35278h0.37739c0.19483 0 0.35278 0.15795 0.35278 0.35278v1.0583z"/>
  <path d="m10.2 231.51h1.0829v3.8806h-1.0829zm-0.21415 4.2265 1.3657-4e-3c0.15807-4.7e-4 0.29716 0.10426 0.34038 0.2563l0.24753 0.87061c0.05328 0.18741-0.05545 0.38253-0.24285 0.43581-0.03138 9e-3 -0.06385 0.0135-0.09648 0.0135h-1.8395c-0.19483 0-0.35278-0.15795-0.35278-0.35278 0-0.0301 0.00385-0.06 0.011448-0.0891l0.2263-0.86671c0.040458-0.15491 0.18017-0.26316 0.34028-0.26363zm0.21415-4.5793v-1.0583c0-0.19483 0.15794-0.35278 0.35278-0.35278h0.37739c0.19483 0 0.35278 0.15795 0.35278 0.35278v1.0583z"/>
 </g>
 <g transform="matrix(.12601 0 0 .12601 -3.153 -3.657)" enable-background="new" stroke-width="7.9361">
  <rect transform="rotate(90 .00013615 -.00016912)" x="96.353" y="-211.89" width="119.89" height="119.89" color="#000000" enable-background="accumulate" fill="none" filter="url(#filter194)"/>
  <path d="m113.12 238.11c-5.689 8.9661-18.509 11.835-27.478 6.1443-8.9685-5.6906-11.833-18.511-6.1443-27.477 5.689-8.9661 18.509-11.835 27.477-6.1444 8.9687 5.6906 11.833 18.511 6.1445 27.478z" fill="#f1a443" stroke-width="29.996"/>
  <path d="m89.353 164.09c-5.689 8.9661-18.512 11.833-27.477 6.1444-8.966-5.689-11.833-18.512-6.1445-27.478 5.6888-8.9659 18.512-11.833 27.478-6.1444 8.9659 5.6889 11.833 18.512 6.1443 27.478z" fill="#3f90dc" stroke-width="29.996"/>
  <path d="m126.69 105.25c-5.689 8.9661-18.512 11.833-27.477 6.1444-8.966-5.689-11.833-18.512-6.1445-27.478 5.6889-8.9659 18.512-11.833 27.478-6.1444 8.9658 5.6889 11.833 18.512 6.1443 27.478z" fill="#56a913" stroke-width="29.996"/>
  <path d="m203.79 95.219c-5.689 8.9661-18.512 11.833-27.478 6.1444-8.9658-5.6888-11.833-18.512-6.1443-27.477 5.6889-8.9659 18.512-11.833 27.477-6.1444 8.9658 5.6888 11.833 18.512 6.1444 27.478z" fill="#f35b5b" stroke-width="29.996"/>
  <path d="m178.56 169.95c-8.6081-0.72188-21.535 5.1631-27.86 16.522-11.205 20.122-2.3977 50.61-26.605 45.292 31.997 24.486 75.816-12.064 76.137-35.383 0.0695-5.0445-1.0031-9.258-2.7672-12.74z" fill="#1b90ff" fill-rule="evenodd" stroke-width="29.996"/>
  <path d="m128.53 234.73c31.458 18.211 71.39-16.099 71.697-38.356 0.0695-5.0445-1.0031-9.258-2.7672-12.74l-18.299-13.252c-4.8609 2.7949-9.3972 6.668-12.879 11.62-16.326 23.219-9.4584 61.721-38.443 52.085 0.22952 0.21699 0.46003 0.43109 0.69126 0.64282z" fill="#a197ff" fill-rule="evenodd" stroke-width="29.996"/>
  <path d="m142.11 239.47c28.283 4.1023 57.854-23.953 58.117-43.094 0.0695-5.0445-1.0031-9.258-2.7672-12.74l-18.16-13.151c-3.9118 3.3978-7.3493 7.671-9.7132 12.715-11.642 24.841 1.3562 60.335-27.849 56.027 0.12389 0.0815 0.24766 0.16261 0.37158 0.24297z" fill="#dd61fa" fill-rule="evenodd" stroke-width="29.996"/>
  <path d="m176.76 230.27c13.589-9.0956 23.317-22.95 23.467-33.892 0.0695-5.0445-1.0031-9.258-2.7672-12.74l-18.031-13.058c-1.9796 3.402-3.4762 7.2227-4.209 11.332-3.1988 17.937 6.4943 37.774 1.5394 48.358z" fill="#fa6196" fill-rule="evenodd" stroke-width="29.996"/>
  <path d="m197.46 207.24c1.7395-3.7497 2.7197-7.4489 2.7668-10.864 0.0695-5.0445-1.0031-9.258-2.7672-12.74l-17.122-12.4c0.12524 0.93163 0.30063 1.8646 0.53052 2.7943 3.3077 13.377 15.707 24.213 16.592 33.209z" fill="#f1a443" fill-rule="evenodd" stroke-width="29.996"/>
  <g transform="matrix(10.409 7.8185 -7.8185 10.409 1931.9 -2374.3)" stroke-width="7.9361">
   <path d="m10.2 231.51h1.0829v3.8806h-1.0829zm-0.21415 4.2265 1.3657-4e-3c0.15807-4.7e-4 0.29716 0.10426 0.34038 0.2563l0.24753 0.87061c0.05328 0.18741-0.05545 0.38253-0.24285 0.43581-0.03138 9e-3 -0.06385 0.0135-0.09648 0.0135h-1.8395c-0.19483 0-0.35278-0.15795-0.35278-0.35278 0-0.0301 0.00385-0.06 0.011448-0.0891l0.2263-0.86671c0.040458-0.15491 0.18017-0.26316 0.34028-0.26363zm0.21415-4.5793v-1.0583c0-0.19483 0.15794-0.35278 0.35278-0.35278h0.37739c0.19483 0 0.35278 0.15795 0.35278 0.35278v1.0583z" fill="url(#linearGradient1240)"/>
   <path d="m10.2 231.51h1.0829v3.8806h-1.0829zm-0.21415 4.2265 1.3657-4e-3c0.15807-4.7e-4 0.29716 0.10426 0.34038 0.2563l0.24753 0.87061c0.05328 0.18741-0.05545 0.38253-0.24285 0.43581-0.03138 9e-3 -0.06385 0.0135-0.09648 0.0135h-1.8395c-0.19483 0-0.35278-0.15795-0.35278-0.35278 0-0.0301 0.00385-0.06 0.011448-0.0891l0.2263-0.86671c0.040458-0.15491 0.18017-0.26316 0.34028-0.26363zm0.21415-4.5793v-1.0583c0-0.19483 0.15794-0.35278 0.35278-0.35278h0.37739c0.19483 0 0.35278 0.15795 0.35278 0.35278v1.0583z" fill="url(#linearGradient1242)"/>
  </g>
 </g>
 <path d="m9.1271 1.5c-6.4516 0-7.6603 0.58409-7.6264 6.2823v8.2176 8.2178c-0.034 5.6982 1.1748 6.2823 7.6264 6.2823h13.747c6.45 0 7.6264-0.58403 7.6264-6.2823v-8.2178-8.2176c0-5.6982-1.1764-6.2823-7.6264-6.2823z" color="#000000" fill="none" opacity=".4" stroke="#000"/>
 <path d="m9.127 2c-3.2107 0-5.0326 0.19514-5.9375 0.89844-0.45247 0.35165-0.74178 0.83286-0.93359 1.6172-0.19176 0.78433-0.26386 1.8569-0.25586 3.2637v2e-3 8.2188 8.2188 2e-3c-8e-3 1.4068 0.0641 2.4794 0.25586 3.2637 0.1918 0.78431 0.48112 1.2655 0.93359 1.6172 0.90496 0.7033 2.7268 0.89844 5.9375 0.89844h13.746c3.2099 0 5.0246-0.19551 5.9258-0.89844 0.45058-0.35146 0.73805-0.83201 0.93164-1.6172 0.19363-0.7853 0.26953-1.8603 0.26953-3.2677v-8.2168-8.2168c0-1.4074-0.0759-2.4824-0.26953-3.2676-0.19359-0.78517-0.48106-1.2657-0.93164-1.6172-0.90117-0.70293-2.7159-0.89844-5.9258-0.89844zm6.498 1.0469c3.4565 0.0171 6.9142-0.0268 10.361 0.0918 0.8211 0.13276 1.8066 0.14835 2.3906 0.82617 0.67884 1.1647 0.51296 2.5878 0.56446 3.873 0.0431 6.0289 0.0678 12.067-0.0332 18.088-0.0775 0.77792-0.12055 1.6726-0.67968 2.2754-0.70249 0.51038-1.6183 0.59683-2.459 0.67383-4.0474 0.0864-8.1622 0.0456-12.24 0.0606-2.4519-0.0199-4.914 0.0317-7.3535-0.0606-0.87784-0.12055-1.915-0.14021-2.5606-0.83398-0.64775-1.0259-0.50264-2.3052-0.56054-3.4648-0.035-5.6558-0.0351-11.355 0-17.01 0.0632-1.2215-0.10864-2.5772 0.59179-3.6524 0.6025-0.62665 1.5562-0.63986 2.3594-0.77344 2.7374-0.10739 5.4808-0.0704 8.2266-0.0918 0.46403-2.9e-4 0.92855-2e-3 1.3926-2e-3z" color="#000000" fill="url(#linearGradient1688-4)"/>
</svg>
