<svg width="32" height="32" version="1" xmlns="http://www.w3.org/2000/svg" xmlns:xlink="http://www.w3.org/1999/xlink">
 <defs>
  <linearGradient id="linearGradient1688" x1="320" x2="352" y1="164" y2="164" gradientTransform="rotate(90 242 -78)" gradientUnits="userSpaceOnUse">
   <stop stop-color="#2b898f" offset="0"/>
   <stop stop-color="#5bdbc1" offset="1"/>
  </linearGradient>
  <linearGradient id="linearGradient1688-4" x1="322" x2="350" y1="148" y2="148" gradientTransform="rotate(90,242,-78)" gradientUnits="userSpaceOnUse">
   <stop stop-color="#fff" offset="0"/>
   <stop stop-color="#fff" stop-opacity=".098039" offset=".125"/>
   <stop stop-color="#fff" stop-opacity=".098039" offset=".925"/>
   <stop stop-color="#fff" stop-opacity=".49804" offset="1"/>
  </linearGradient>
 </defs>
 <path d="m9.3009 2c-1.6395 0-2.9408 0.0308-4.045 0.19141-1.1042 0.16064-2.067 0.4726-2.7831 1.0918s-1.0805 1.4561-1.2642 2.4141c-0.18374 0.95795-0.21537 2.087-0.20733 3.5117v7.791 7.7969c-9e-3 1.4213 0.0239 2.5495 0.20733 3.5058 0.18371 0.95796 0.5481 1.7949 1.2642 2.4141s1.6789 0.93115 2.7831 1.0918c1.1042 0.16065 2.4056 0.19141 4.045 0.19141h13.402c1.6395 0 2.9384-0.0307 4.0405-0.19141 1.1022-0.16075 2.0627-0.47425 2.7763-1.0938 0.71357-0.6195 1.0746-1.4536 1.2597-2.4102 0.18515-0.95653 0.22086-2.084 0.22086-3.5078v-7.7969-7.7969c0-1.4238-0.0358-2.5513-0.22086-3.5078-0.18512-0.95653-0.54612-1.7906-1.2597-2.4102-0.71359-0.61951-1.6741-0.933-2.7763-1.0938-1.1022-0.16076-2.401-0.19141-4.0405-0.19141z" color="#000000" color-rendering="auto" dominant-baseline="auto" image-rendering="auto" opacity=".1" shape-rendering="auto" solid-color="#000000" style="font-feature-settings:normal;font-variant-alternates:normal;font-variant-caps:normal;font-variant-ligatures:normal;font-variant-numeric:normal;font-variant-position:normal;isolation:auto;mix-blend-mode:normal;shape-padding:0;text-decoration-color:#000000;text-decoration-line:none;text-decoration-style:solid;text-indent:0;text-orientation:mixed;text-transform:none;white-space:normal"/>
 <path d="m9.1271 1.5c-6.4516 0-7.6603 0.58409-7.6264 6.2823v8.2176 8.2178c-0.034 5.6982 1.1748 6.2823 7.6264 6.2823h13.747c6.45 0 7.6264-0.58403 7.6264-6.2823v-8.2178-8.2176c0-5.6982-1.1764-6.2823-7.6264-6.2823z" color="#000000" fill="url(#linearGradient1688)"/>
 <path d="m1.5004 12.623 1e-3 12.829c-0.0224 4.5787 0.46931 5.0481 5.0388 5.0481h18.921c4.5695 0 5.0392-0.46937 5.0388-5.0481l-1e-3 -12.829s-4.8086 1.0357-7.2497 1.0357c-4.8822 0-9.6173-2.0713-14.5-2.0713-2.4411 0-7.2498 1.0357-7.2498 1.0357z" color="#000000" fill="#81e9c0" opacity=".2"/>
 <rect x="15" y="26" width="2" height="1" rx=".5" ry=".5" enable-background="new" fill="#313131"/>
 <rect x="15" y="27" width="2" height="1" rx=".5" ry=".5" enable-background="new" fill="#313131"/>
 <rect x="15" y="28" width="2" height="1" rx=".5" ry=".5" enable-background="new" fill="#313131"/>
 <rect x="15" y="29" width="2" height="1" rx=".5" ry=".5" enable-background="new" fill="#313131"/>
 <path d="m15.82 8.0323c-0.6449-7e-3 -0.87023 0.0171-0.96094 0.79688l-0.0351 0.27539c-0.0796 0.50574-0.0938 0.73545-0.57227 0.85937-0.0321 7e-3 -0.0658 0.0139-0.0977 0.0215-8e-3 2e-3 -0.0137 2e-3 -0.0215 4e-3l2e-3 2e-3c-0.0703 0.0169-0.13949 0.0376-0.20898 0.0566v6e-3a7.2373 7.2053 0 0 0-3.0684 1.7188l0.01-2e-3c-0.0944 0.0895-0.18589 0.18097-0.2754 0.2754l2e-3 -0.0117c-0.39903 0.45686-0.5969 0.35429-1.1113 0.15625l-0.25781-0.10938c-0.22521-0.0973-0.39138-0.1462-0.52539-0.15039-0.2948-9e-3 -0.42711 0.19951-0.64453 0.58594-0.32867 0.55492-0.42098 0.76202 0.20898 1.2305l0.22266 0.16797c0.3997 0.32303 0.58995 0.45081 0.45507 0.93164-6e-3 0.0179-0.0101 0.0348-0.0156 0.0527-6e-3 0.0181-0.0112 0.0376-0.0176 0.0566-0.035 0.11779-0.0667 0.23724-0.0957 0.35742h-2e-3c-2e-3 8e-3 -2e-3 0.0139-4e-3 0.0215-8e-3 0.0319-0.0143 0.0636-0.0215 0.0957-4e-3 0.0159-0.0112 0.0222-0.0156 0.0371a7.2373 7.2053 0 0 0-0.18164 1.5371 7.2373 7.2053 0 0 0 0.15234 1.4531c0.0145 0.0387 0.0327 0.0641 0.0449 0.11133 7e-3 0.0321 0.0139 0.0638 0.0215 0.0957 2e-3 8e-3 2e-3 0.0137 4e-3 0.0215h2e-3c0.0291 0.1208 0.0605 0.23903 0.0957 0.35742 7e-3 0.0198 0.0117 0.0379 0.0176 0.0566 5e-3 0.0179 0.01 0.0349 0.0156 0.0527 0.13488 0.48083-0.0554 0.60861-0.45507 0.93164l-0.22266 0.16797c-0.62995 0.46845-0.53765 0.67556-0.20898 1.2305 0.31623 0.56209 0.4512 0.74492 1.1719 0.43359l0.25586-0.10742c0.51443-0.19804 0.71229-0.30061 1.1113 0.15625l-2e-3 -0.0117c0.0895 0.0944 0.18097 0.18588 0.2754 0.27539l-0.0117-4e-3 4e-3 4e-3a7.2373 7.2053 0 0 0 3.0664 1.7207v2e-3c0.0689 0.0189 0.13731 0.0398 0.20703 0.0566h2e-3c7e-3 2e-3 0.0145 4e-3 0.0215 6e-3 0.0319 8e-3 0.0636 0.0143 0.0957 0.0215 0.47849 0.12392 0.49267 0.35363 0.57227 0.85937l0.0351 0.2754c0.0907 0.77978 0.31604 0.80404 0.96094 0.79687 0.6449 7e-3 0.87023-0.0171 0.96094-0.79687l0.0351-0.2754c0.0796-0.50574 0.0957-0.73545 0.57422-0.85937 0.0321-7e-3 0.0638-0.0139 0.0957-0.0215 8e-3 -2e-3 0.0137-4e-3 0.0215-6e-3 0.10363-0.025 0.20481-0.0525 0.30664-0.082a7.2373 7.2053 0 0 0 2.9082-1.6308c0.0252-0.0245 0.0346-0.0442 0.0645-0.0703l-0.0137 4e-3c0.0944-0.0895 0.18785-0.18292 0.27735-0.27735l-4e-3 0.0137c0.39904-0.45687 0.59885-0.3543 1.1133-0.15625l0.25586 0.10742c0.72067 0.31133 0.85368 0.1285 1.1699-0.43359 0.32867-0.55492 0.42098-0.76202-0.20898-1.2305l-0.2207-0.16797c-0.39969-0.32302-0.59192-0.45081-0.45703-0.93164 6e-3 -0.0179 0.0122-0.0348 0.0176-0.0527 6e-3 -0.0187 0.0109-0.0368 0.0176-0.0566h-2e-3c0.0352-0.11838 0.0685-0.23661 0.0977-0.35742 2e-3 -8e-3 2e-3 -0.0139 4e-3 -0.0215 8e-3 -0.0319 0.0162-0.0636 0.0234-0.0957 9e-3 -0.0331 0.0216-0.0493 0.0312-0.0781a7.2373 7.2053 0 0 0 0.17383-1.4863 7.2373 7.2053 0 0 0-0.15235-1.4473c-0.0171-0.0432-0.0386-0.0725-0.0527-0.12695-7e-3 -0.0321-0.0158-0.0638-0.0234-0.0957-2e-3 -8e-3 -2e-3 -0.0137-4e-3 -0.0215-0.0291-0.1208-0.0625-0.24099-0.0977-0.35937l2e-3 2e-3c-7e-3 -0.0198-0.0117-0.0379-0.0176-0.0566-5e-3 -0.0179-0.0119-0.0369-0.0176-0.0547-0.13488-0.48083 0.0554-0.60665 0.45507-0.92968l0.22266-0.16797c0.62995-0.46845 0.53764-0.67555 0.20898-1.2305-0.2174-0.38643-0.34972-0.59516-0.64453-0.58594-0.134 4e-3 -0.30018 0.055-0.52539 0.15234l-0.25586 0.10743c-0.51443 0.19805-0.71424 0.30062-1.1133-0.15625l2e-3 0.0117c-0.0895-0.0944-0.18097-0.1859-0.2754-0.2754l8e-3 2e-3a7.2373 7.2053 0 0 0-3.0566-1.7109v-0.0117c-0.072-0.0199-0.14386-0.0409-0.2168-0.0586h-2e-3c-7e-3 -2e-3 -0.0126-4e-3 -0.0195-6e-3 -0.0319-8e-3 -0.0656-0.0143-0.0977-0.0215-0.4785-0.12393-0.49267-0.35362-0.57227-0.85937l-0.0351-0.27539c-0.0912-0.7801-0.31652-0.80437-0.96142-0.7972z" color="#000000" opacity=".3"/>
 <path d="m8.7504 11.519c-2.4411 0-7.25 1.0371-7.25 1.0371v1s4.8089-1.0371 7.25-1.0371c4.8822 0 9.6178 2.0723 14.5 2.0723 2.4411 0 7.248-1.0352 7.248-1.0352v-1s-4.8069 1.0352-7.248 1.0352c-4.8822 0-9.6178-2.0723-14.5-2.0723z" color="#000000" fill="#fff" opacity=".3"/>
 <path d="m15.82 7.0331c-0.6449-7e-3 -0.87023 0.0171-0.96094 0.79688l-0.0351 0.27539c-0.0796 0.50574-0.0938 0.73545-0.57227 0.85937-0.0321 7e-3 -0.0658 0.0139-0.0977 0.0215-8e-3 2e-3 -0.0137 2e-3 -0.0215 4e-3l2e-3 2e-3c-0.0703 0.0169-0.13949 0.0376-0.20898 0.0566v6e-3a7.2373 7.2053 0 0 0-3.0684 1.7188l0.01-2e-3c-0.0944 0.0895-0.18589 0.18097-0.2754 0.2754l2e-3 -0.0117c-0.39903 0.45686-0.5969 0.35429-1.1113 0.15625l-0.25781-0.10938c-0.22521-0.0973-0.39138-0.1462-0.52539-0.15039-0.2948-9e-3 -0.42711 0.19951-0.64453 0.58594-0.32867 0.55492-0.42098 0.76202 0.20898 1.2305l0.22266 0.16797c0.3997 0.32303 0.58995 0.45081 0.45507 0.93164-6e-3 0.0179-0.0101 0.0348-0.0156 0.0527-6e-3 0.0181-0.0112 0.0376-0.0176 0.0566-0.035 0.11779-0.0667 0.23724-0.0957 0.35742h-2e-3c-2e-3 8e-3 -2e-3 0.0139-4e-3 0.0215-8e-3 0.0319-0.0143 0.0636-0.0215 0.0957-4e-3 0.0159-0.0112 0.0222-0.0156 0.0371a7.2373 7.2053 0 0 0-0.18164 1.5371 7.2373 7.2053 0 0 0 0.15234 1.4531c0.0145 0.0387 0.0327 0.0641 0.0449 0.11133 7e-3 0.0321 0.0139 0.0638 0.0215 0.0957 2e-3 8e-3 2e-3 0.0137 4e-3 0.0215h2e-3c0.0291 0.1208 0.0605 0.23903 0.0957 0.35742 7e-3 0.0198 0.0117 0.0379 0.0176 0.0566 5e-3 0.0179 0.01 0.0349 0.0156 0.0527 0.13488 0.48083-0.0554 0.60861-0.45507 0.93164l-0.22266 0.16797c-0.62995 0.46845-0.53765 0.67556-0.20898 1.2305 0.31623 0.56209 0.4512 0.74492 1.1719 0.43359l0.25586-0.10742c0.51443-0.19804 0.71229-0.30061 1.1113 0.15625l-2e-3 -0.0117c0.0895 0.0944 0.18097 0.18588 0.2754 0.27539l-0.0117-4e-3 4e-3 4e-3a7.2373 7.2053 0 0 0 3.0664 1.7207v2e-3c0.0689 0.0189 0.13731 0.0398 0.20703 0.0566h2e-3c7e-3 2e-3 0.0145 4e-3 0.0215 6e-3 0.0319 8e-3 0.0636 0.0143 0.0957 0.0215 0.47849 0.12392 0.49267 0.35363 0.57227 0.85937l0.0351 0.2754c0.0907 0.77978 0.31604 0.80404 0.96094 0.79687 0.6449 7e-3 0.87023-0.0171 0.96094-0.79687l0.0351-0.2754c0.0796-0.50574 0.0957-0.73545 0.57422-0.85937 0.0321-7e-3 0.0638-0.0139 0.0957-0.0215 8e-3 -2e-3 0.0137-4e-3 0.0215-6e-3 0.10363-0.025 0.20481-0.0525 0.30664-0.082a7.2373 7.2053 0 0 0 2.9082-1.6308c0.0252-0.0245 0.0346-0.0442 0.0645-0.0703l-0.0137 4e-3c0.0944-0.0895 0.18785-0.18292 0.27735-0.27735l-4e-3 0.0137c0.39904-0.45687 0.59885-0.3543 1.1133-0.15625l0.25586 0.10742c0.72067 0.31133 0.85368 0.1285 1.1699-0.43359 0.32867-0.55492 0.42098-0.76202-0.20898-1.2305l-0.2207-0.16797c-0.39969-0.32302-0.59192-0.45081-0.45703-0.93164 6e-3 -0.0179 0.0122-0.0348 0.0176-0.0527 6e-3 -0.0187 0.0109-0.0368 0.0176-0.0566h-2e-3c0.0352-0.11838 0.0685-0.23661 0.0977-0.35742 2e-3 -8e-3 2e-3 -0.0139 4e-3 -0.0215 8e-3 -0.0319 0.0162-0.0636 0.0234-0.0957 9e-3 -0.0331 0.0216-0.0493 0.0312-0.0781a7.2373 7.2053 0 0 0 0.17383-1.4863 7.2373 7.2053 0 0 0-0.15235-1.4473c-0.0171-0.0432-0.0386-0.0725-0.0527-0.12695-7e-3 -0.0321-0.0158-0.0638-0.0234-0.0957-2e-3 -8e-3 -2e-3 -0.0137-4e-3 -0.0215-0.0291-0.1208-0.0625-0.24099-0.0977-0.35937l2e-3 2e-3c-7e-3 -0.0198-0.0117-0.0379-0.0176-0.0566-5e-3 -0.0179-0.0119-0.0369-0.0176-0.0547-0.13488-0.48083 0.0554-0.60665 0.45507-0.92968l0.22266-0.16797c0.62995-0.46845 0.53764-0.67555 0.20898-1.2305-0.2174-0.38643-0.34972-0.59516-0.64453-0.58594-0.134 4e-3 -0.30018 0.055-0.52539 0.15234l-0.25586 0.10743c-0.51443 0.19805-0.71424 0.30062-1.1133-0.15625l2e-3 0.0117c-0.0895-0.0944-0.18097-0.1859-0.2754-0.2754l8e-3 2e-3a7.2373 7.2053 0 0 0-3.0566-1.7109v-0.0117c-0.072-0.0199-0.14386-0.0409-0.2168-0.0586h-2e-3c-7e-3 -2e-3 -0.0126-4e-3 -0.0195-6e-3 -0.0319-8e-3 -0.0656-0.0143-0.0977-0.0215-0.4785-0.12393-0.49267-0.35362-0.57227-0.85937l-0.0351-0.27539c-0.0912-0.7801-0.31652-0.80437-0.96142-0.7972z" color="#000000" fill="#313131"/>
 <path d="m1.2511 15.564 1e-3 9.8519c-0.0224 4.5787 0.46931 5.0481 5.0388 5.0481h18.921c4.5695 0 5.0393-0.46937 5.0388-5.0481l-1e-3 -9.8519s-4.8086 1.0357-7.2497 1.0357c-4.8822 0-9.6173-2.0713-14.5-2.0713-2.4411 0-7.2498 1.0357-7.2498 1.0357z" color="#000000" fill="#81e9c0" opacity=".2"/>
 <path d="m15.82 7.0312c-0.6449-7e-3 -0.87023 0.0171-0.96094 0.79687l-0.0351 0.2754c-0.0796 0.50574-0.0938 0.73545-0.57227 0.85937-0.0321 7e-3 -0.0658 0.0139-0.0977 0.0215-8e-3 2e-3 -0.0137 2e-3 -0.0215 4e-3l2e-3 4e-3c-0.0703 0.0169-0.13949 0.0357-0.20898 0.0547v8e-3a7.2373 7.2053 0 0 0-3.0684 1.7188l0.01-2e-3c-0.0944 0.0895-0.18589 0.18097-0.2754 0.2754l2e-3 -0.0117c-0.39903 0.45686-0.5969 0.35429-1.1113 0.15625l-0.25781-0.10938c-0.22521-0.0973-0.39138-0.1462-0.52539-0.15039-0.2948-9e-3 -0.42712 0.19951-0.64453 0.58594-0.27511 0.46448-0.35668 0.69299-0.0156 1.0273 6e-3 -0.0104 9e-3 -0.0167 0.0156-0.0273 0.21741-0.38643 0.34973-0.59494 0.64453-0.58594 0.13401 4e-3 0.30018 0.0531 0.52539 0.15039l0.25781 0.10938c0.51443 0.19804 0.7123 0.30061 1.1113-0.15625l-2e-3 0.0117c0.0895-0.0944 0.18099-0.1859 0.2754-0.2754l-0.01 2e-3a7.2373 7.2053 0 0 1 3.0684-1.7188v-6e-3c0.0695-0.019 0.13868-0.0397 0.20898-0.0566l-2e-3 -2e-3c8e-3 -2e-3 0.0135-2e-3 0.0215-4e-3 0.0319-8e-3 0.0656-0.0145 0.0977-0.0215 0.47847-0.12392 0.49267-0.35363 0.57227-0.85937l0.0351-0.27539c0.0907-0.77978 0.31604-0.80388 0.96094-0.79688 0.64491-7e-3 0.86974 0.0168 0.96094 0.79688l0.0351 0.27539c0.0796 0.50575 0.0938 0.73544 0.57227 0.85937 0.0321 7e-3 0.0658 0.0135 0.0977 0.0215 7e-3 2e-3 0.0125 4e-3 0.0195 6e-3h2e-3c0.0729 0.0177 0.1448 0.0387 0.2168 0.0586v0.0117a7.2373 7.2053 0 0 1 3.0566 1.7109l-8e-3 -2e-3c0.0944 0.0895 0.1859 0.18099 0.2754 0.2754l-2e-3 -0.0117c0.39903 0.45687 0.59885 0.3543 1.1133 0.15625l0.25586-0.10743c0.22521-0.0973 0.39139-0.14834 0.52539-0.15234 0.29481-9e-3 0.42714 0.19951 0.64453 0.58594 6e-3 0.0107 9e-3 0.0169 0.0156 0.0273 0.34105-0.33435 0.25947-0.56286-0.0156-1.0273-0.21739-0.38643-0.34972-0.59516-0.64453-0.58594-0.134 4e-3 -0.30018 0.055-0.52539 0.15234l-0.25586 0.10743c-0.51443 0.19805-0.71424 0.30062-1.1133-0.15625l2e-3 0.0117c-0.0895-0.0944-0.18097-0.1859-0.2754-0.2754l8e-3 2e-3a7.2373 7.2053 0 0 0-3.0566-1.7109v-0.0117c-0.072-0.0199-0.14386-0.0409-0.2168-0.0586h-2e-3c-7e-3 -2e-3 -0.0126-4e-3 -0.0195-6e-3 -0.0319-8e-3 -0.0656-0.0143-0.0977-0.0215-0.4785-0.12393-0.49267-0.35362-0.57227-0.85937l-0.0351-0.27539c-0.0912-0.7801-0.31604-0.806-0.96094-0.79883zm6.9863 7.1992c-0.13786 0.15639-0.19082 0.31793-0.10742 0.61523 6e-3 0.0178 0.0126 0.0368 0.0176 0.0547 6e-3 0.0187 0.0106 0.0368 0.0176 0.0566l-2e-3 -2e-3c0.0352 0.11838 0.0686 0.23857 0.0977 0.35937 2e-3 8e-3 2e-3 0.0135 4e-3 0.0215 8e-3 0.0319 0.0164 0.0636 0.0234 0.0957 0.0141 0.0545 0.0356 0.0838 0.0527 0.12695a7.2373 7.2053 0 0 1 0.12305 0.91407 7.2373 7.2053 0 0 0 0.0293-0.4668 7.2373 7.2053 0 0 0-0.15235-1.4473c-0.0171-0.0432-0.0386-0.0725-0.0527-0.12695-7e-3 -0.0321-0.0158-0.0638-0.0234-0.0957-2e-3 -8e-3 -2e-3 -0.0137-4e-3 -0.0215-7e-3 -0.0283-0.0162-0.0558-0.0234-0.084zm-13.973 2e-3c-7e-3 0.0275-0.0148 0.0545-0.0215 0.082h-2e-3c-2e-3 8e-3 -2e-3 0.0139-4e-3 0.0215-8e-3 0.0319-0.0143 0.0636-0.0215 0.0957-4e-3 0.0159-0.0112 0.0222-0.0156 0.0371a7.2373 7.2053 0 0 0-0.18164 1.5371 7.2373 7.2053 0 0 0 0.0273 0.54492 7.2373 7.2053 0 0 1 0.1543-1.082c4e-3 -0.0149 0.0116-0.0212 0.0156-0.0371 7e-3 -0.0321 0.0135-0.0638 0.0215-0.0957 2e-3 -8e-3 2e-3 -0.0135 4e-3 -0.0215h2e-3c0.029-0.12018 0.0607-0.23963 0.0957-0.35742 6e-3 -0.019 0.0116-0.0385 0.0176-0.0566 5e-3 -0.0179 0.01-0.0348 0.0156-0.0527 0.0832-0.29662 0.0297-0.45861-0.10742-0.61524zm0 4.5371c-0.0851 0.0969-0.1951 0.19116-0.34765 0.31445l-0.22266 0.16797c-0.61819 0.4597-0.53636 0.67112-0.22266 1.2031 0.0662-0.0647 0.12065-0.12531 0.22266-0.20117l0.22266-0.16797c0.39967-0.32303 0.58995-0.45081 0.45507-0.93164-6e-3 -0.0178-0.0106-0.0348-0.0156-0.0527-6e-3 -0.0187-0.0106-0.0368-0.0176-0.0566-0.0271-0.0913-0.0509-0.18307-0.0742-0.27539zm13.973 0c-0.0238 0.0922-0.0471 0.18427-0.0742 0.27539h2e-3c-7e-3 0.0198-0.0116 0.0379-0.0176 0.0566-5e-3 0.0179-0.0116 0.0348-0.0176 0.0527-0.13489 0.48083 0.0573 0.60862 0.45703 0.93164l0.2207 0.16797c0.10295 0.0765 0.15812 0.13786 0.22461 0.20312 0.31331-0.53143 0.39328-0.74365-0.22461-1.2031l-0.2207-0.16797c-0.15256-0.1233-0.26416-0.21951-0.34961-0.31641z" color="#000000" fill="#fff" opacity=".6"/>
 <path d="m1.5004 18.578 1e-3 6.8739c-0.0224 4.5787 0.46931 5.0481 5.0388 5.0481h18.921c4.5695 0 5.0397-0.46937 5.0388-5.0481l-1e-3 -6.8739s-4.8086 1.0357-7.2497 1.0357c-4.8822 0-9.6173-2.0713-14.5-2.0713-2.4411 0-7.2498 1.0357-7.2498 1.0357z" color="#000000" fill="#81e9c0" opacity=".2"/>
 <path d="m1.5004 21.556 1e-3 3.8959c-0.0224 4.5787 0.46931 5.0481 5.0388 5.0481h18.921c4.5695 0 5.04-0.46937 5.0388-5.0481l-1e-3 -3.8959s-4.8086 1.0357-7.2497 1.0357c-4.8822 0-9.6173-2.0713-14.5-2.0713-2.4411 0-7.2498 1.0357-7.2498 1.0357z" color="#000000" fill="#81e9c0" opacity=".2"/>
 <path d="m8.7504 20.519c-2.4411 0-7.25 1.0371-7.25 1.0371v1s4.8089-1.0371 7.25-1.0371c4.8822 0 9.6178 2.0723 14.5 2.0723 2.4411 0 7.248-1.0352 7.248-1.0352v-1s-4.8069 1.0352-7.248 1.0352c-4.8822 0-9.6178-2.0723-14.5-2.0723z" color="#000000" fill="#fff" opacity=".3"/>
 <path d="m8.7504 17.519c-2.4411 0-7.25 1.0371-7.25 1.0371v1s4.8089-1.0371 7.25-1.0371c4.8822 0 9.6178 2.0723 14.5 2.0723 2.4411 0 7.248-1.0352 7.248-1.0352v-1s-4.8069 1.0352-7.248 1.0352c-4.8822 0-9.6178-2.0723-14.5-2.0723z" color="#000000" fill="#fff" opacity=".3"/>
 <path d="m8.7504 14.519c-2.4411 0-7.25 1.0371-7.25 1.0371v1s4.8089-1.0371 7.25-1.0371c4.8822 0 9.6178 2.0723 14.5 2.0723 2.4411 0 7.248-1.0352 7.248-1.0352v-1s-4.8069 1.0352-7.248 1.0352c-4.8822 0-9.6178-2.0723-14.5-2.0723z" color="#000000" fill="#fff" opacity=".3"/>
 <path d="m9.1271 1.5c-6.4516 0-7.6603 0.58409-7.6264 6.2823v8.2176 8.2178c-0.034 5.6982 1.1748 6.2823 7.6264 6.2823h13.747c6.45 0 7.6264-0.58403 7.6264-6.2823v-8.2178-8.2176c0-5.6982-1.1764-6.2823-7.6264-6.2823z" color="#000000" fill="none" opacity=".4" stroke="#000"/>
 <path d="m9.127 2c-3.2107 0-5.0326 0.19514-5.9375 0.89844-0.45247 0.35165-0.74178 0.83286-0.93359 1.6172-0.19176 0.78433-0.26386 1.8569-0.25586 3.2637v2e-3 8.2188 8.2188 2e-3c-8e-3 1.4068 0.0641 2.4794 0.25586 3.2637 0.1918 0.78431 0.48112 1.2655 0.93359 1.6172 0.90496 0.7033 2.7268 0.89844 5.9375 0.89844h13.746c3.2099 0 5.0246-0.19551 5.9258-0.89844 0.45058-0.35146 0.73805-0.83201 0.93164-1.6172 0.19363-0.7853 0.26953-1.8603 0.26953-3.2677v-8.2168-8.2168c0-1.4074-0.0759-2.4824-0.26953-3.2676-0.19359-0.78517-0.48106-1.2657-0.93164-1.6172-0.90117-0.70293-2.7159-0.89844-5.9258-0.89844zm6.498 1.0469c3.4565 0.0171 6.9142-0.0268 10.361 0.0918 0.8211 0.13276 1.8066 0.14835 2.3906 0.82617 0.67884 1.1647 0.51296 2.5878 0.56446 3.873 0.0431 6.0289 0.0678 12.067-0.0332 18.088-0.0775 0.77792-0.12055 1.6726-0.67968 2.2754-0.70249 0.51038-1.6183 0.59683-2.459 0.67383-4.0474 0.0864-8.1622 0.0456-12.24 0.0606-2.4519-0.0199-4.914 0.0317-7.3535-0.0606-0.87784-0.12055-1.915-0.14021-2.5606-0.83398-0.64775-1.0259-0.50264-2.3052-0.56054-3.4648-0.035-5.6558-0.0351-11.355 0-17.01 0.0632-1.2215-0.10864-2.5772 0.59179-3.6524 0.6025-0.62665 1.5562-0.63986 2.3594-0.77344 2.7374-0.10739 5.4808-0.0704 8.2266-0.0918 0.46403-2.9e-4 0.92855-2e-3 1.3926-2e-3z" color="#000000" fill="url(#linearGradient1688-4)"/>
</svg>
