<svg width="32" height="32" version="1" xmlns="http://www.w3.org/2000/svg" xmlns:xlink="http://www.w3.org/1999/xlink">
 <defs>
  <linearGradient id="linearGradient3257" x1="330.08" x2="341.93" y1="133.5" y2="162.5" gradientTransform="translate(-320,-132)" gradientUnits="userSpaceOnUse">
   <stop stop-color="#e8e8e8" offset="0"/>
   <stop stop-color="#f5f5f5" offset="1"/>
  </linearGradient>
  <linearGradient id="linearGradient1004-8" x1="344" x2="344" y1="62" y2="106" gradientUnits="userSpaceOnUse">
   <stop stop-color="#fff" offset="0"/>
   <stop stop-color="#fff" stop-opacity=".098039" offset=".125"/>
   <stop stop-color="#fff" stop-opacity=".098039" offset=".925"/>
   <stop stop-color="#fff" stop-opacity=".49804" offset="1"/>
  </linearGradient>
  <clipPath id="clipPath994-1">
   <path d="m335.73 62c-8.8242 0-9.7736 0.90635-9.7304 9.7484v12.252 12.252c-0.0433 8.842 0.90622 9.7484 9.7304 9.7484h16.539c8.8242 0 9.7304-0.90625 9.7304-9.7484v-12.252-12.252c0-8.8421-0.90622-9.7484-9.7304-9.7484z" color="#000000" fill="#cdcdcd"/>
  </clipPath>
 </defs>
 <path d="m10.193 2c-1.421 0-2.5488 0.0308-3.5059 0.19141-0.95703 0.16064-1.7915 0.4726-2.4121 1.0918s-0.93647 1.4561-1.0957 2.4141c-0.15924 0.95795-0.18666 2.087-0.17969 3.5117v7.791 7.7969c-7e-3 1.4213 0.0207 2.5495 0.17969 3.5058 0.15923 0.95796 0.47505 1.7949 1.0957 2.4141s1.4551 0.93115 2.4121 1.0918c0.95703 0.16065 2.0849 0.19141 3.5059 0.19141h11.615c1.421 0 2.5467-0.0307 3.502-0.19141 0.95527-0.16075 1.7878-0.47425 2.4062-1.0938 0.61845-0.6195 0.93134-1.4536 1.0918-2.4102 0.16046-0.95653 0.19141-2.084 0.19141-3.5078v-7.7969-7.7969c0-1.4238-0.031-2.5513-0.19141-3.5078-0.16045-0.95653-0.47334-1.7906-1.0918-2.4102-0.61846-0.61951-1.451-0.933-2.4062-1.0938-0.95527-0.16076-2.081-0.19141-3.502-0.19141z" color="#000000" color-rendering="auto" dominant-baseline="auto" image-rendering="auto" opacity=".1" shape-rendering="auto" solid-color="#000000" style="font-feature-settings:normal;font-variant-alternates:normal;font-variant-caps:normal;font-variant-ligatures:normal;font-variant-numeric:normal;font-variant-position:normal;isolation:auto;mix-blend-mode:normal;shape-padding:0;text-decoration-color:#000000;text-decoration-line:none;text-decoration-style:solid;text-indent:0;text-orientation:mixed;text-transform:none;white-space:normal"/>
 <path d="m10.075 1.5c-5.5618 0-6.6037 0.58409-6.5745 6.2823v8.2176 8.2178c-0.0293 5.6982 1.0127 6.2823 6.5745 6.2823h11.85c5.5604 0 6.5745-0.58403 6.5745-6.2823v-8.2178-8.2176c0-5.6982-1.0141-6.2823-6.5745-6.2823z" color="#000000" fill="url(#linearGradient3257)"/>
 <path d="m10.075 1.5c-5.5618 0-6.6037 0.58409-6.5745 6.2823v8.2176 8.2178c-0.0293 5.6982 1.0127 6.2823 6.5745 6.2823h11.85c5.5604 0 6.5745-0.58403 6.5745-6.2823v-8.2178-8.2176c0-5.6982-1.0141-6.2823-6.5745-6.2823z" color="#000000" fill="none" opacity=".4" stroke="#000"/>
 <path transform="matrix(.66664 0 0 .63636 -213.32 -37.455)" d="m335.73 62c-8.8242 0-9.7736 0.90635-9.7304 9.7484v12.252 12.252c-0.0433 8.842 0.90622 9.7484 9.7304 9.7484h16.539c8.8242 0 9.7304-0.90625 9.7304-9.7484v-12.252-12.252c0-8.8421-0.90622-9.7484-9.7304-9.7484z" clip-path="url(#clipPath994-1)" color="#000000" fill="none" opacity=".7" stroke="url(#linearGradient1004-8)" stroke-width="3.0707"/>
 <path d="m3.4999 16v8.2168c-0.0244 4.7361 0.73411 5.924 4.1699 6.1953 0.94583 0.0607 2.0044 0.0879 3.209 0.0879h10.242c1.2002 0 2.256-0.0257 3.1992-0.0859 3.4368-0.2699 4.1797-1.4571 4.1797-6.1973v-8.2168z" enable-background="new" fill="#fff" opacity=".2"/>
 <g transform="translate(-318 -132)" enable-background="new" fill="#da1636">
  <path d="m327.23 149c-1.1219 0.0777-2.0927 0.9782-2.2135 2.1656-0.0662 0.80132 0.10211 1.6053 0.53753 2.2919 1.3362 1.956 2.9552 3.7453 4.4474 5.5413h0.047c1.4157-1.8761 3.092-3.615 4.4474-5.5413 0.45403-0.84054 0.65367-1.7932 0.38629-2.7238-0.40568-0.96363-0.996-1.765-2.0622-1.7337-1.2228 4e-3 -2.506 1.0852-2.794 2.2287-0.34505-0.92679-1.4743-2.1368-2.5344-2.2287z" enable-background="new"/>
  <path d="m329 137-3.2285 9h-0.77149l2e-5 0.99997h3v-1h-0.9l0.8-2h3.6l0.71846 2h-1.2185v1h4v-0.99997h-0.99998l-3-9zm1 2 1.204 4h-2.904z" enable-background="new"/>
 </g>
</svg>
