<svg width="32" height="32" version="1" xmlns="http://www.w3.org/2000/svg">
 <defs>
  <linearGradient id="linearGradient8588-0" x1="13.735" x2="38.1" y1="249.69" y2="292.77" gradientTransform="matrix(.60892 0 0 .60892 .85556 -149.71)" gradientUnits="userSpaceOnUse">
   <stop stop-color="#da1636" offset="0"/>
   <stop stop-color="#f22c42" offset="1"/>
  </linearGradient>
  <linearGradient id="linearGradient8590-3" x1="96" x2="96" y1="4" y2="188" gradientTransform="matrix(.15217 0 0 .15217 1.3913 1.3913)" gradientUnits="userSpaceOnUse">
   <stop stop-color="#fff" offset="0"/>
   <stop stop-color="#fff" stop-opacity=".098039" offset=".125"/>
   <stop stop-color="#fff" stop-opacity=".098039" offset=".925"/>
   <stop stop-color="#fff" stop-opacity=".49804" offset="1"/>
  </linearGradient>
 </defs>
 <circle transform="scale(-1)" cx="-16" cy="-17" r="15" enable-background="new" opacity=".1"/>
 <circle cx="16" cy="16" r="14.5" enable-background="new" fill="url(#linearGradient8588-0)"/>
 <path d="m12.054 20.953c-0.32012-0.044-0.88957-0.232-1.2694-0.4177-2.4748-1.2044-3.4869-4.2378-2.2679-6.7929 1.3925-2.9215 5.1921-3.6662 7.4786-1.4657 0.66118 0.6353 0.95483 1.1774 1.9503 3.5812 1.0392 2.5138 1.2312 2.909 1.568 3.2441 0.36075 0.3565 0.69504 0.4765 1.3347 0.4765 1.0509 0 1.8013-0.6597 1.8013-1.5802 0-0.7791-0.26964-1.0286-1.6449-1.5245-2.0943-0.7673-2.7728-1.4607-2.7752-2.8533 0-0.7429 0.1853-1.2382 0.65625-1.7515 0.67595-0.7329 1.8419-0.9749 2.8737-0.611 0.44017 0.1589 1.3611 0.9868 1.3611 1.2238 0 0.115-0.53374 0.4665-0.82986 0.5496-0.15637 0.041-0.29119-0.012-0.47156-0.1882-0.36568-0.3564-0.61316-0.4665-1.0509-0.4665-0.75537 0-1.2239 0.4615-1.2239 1.2069 0 0.7429 0.29796 0.9942 1.7865 1.5045 2.0512 0.7035 2.657 1.3388 2.6693 2.8089 0.01231 1.2701-0.55098 2.1862-1.6714 2.7283-0.50973 0.2445-0.68272 0.2758-1.515 0.2758-1.1881 0-1.7219-0.2245-2.388-0.9868-0.44756-0.5127-0.90188-1.4751-2.3566-4.9882-0.60331-1.4557-1.3778-2.1692-2.6693-2.45-0.6544-0.1419-1.5655-0.01-2.1596 0.3077-0.5793 0.3077-1.2263 1.0018-1.5317 1.6365-0.2524 0.5152-0.27641 0.6597-0.27641 1.5558 0 0.8548 0.03386 1.0574 0.24502 1.5264 0.32012 0.716 0.9499 1.3775 1.6425 1.734 0.5005 0.2564 0.65625 0.2883 1.4547 0.2883 0.76706 0 0.96406-0.037 1.4215-0.2589 0.52205-0.2589 1.2239-0.8942 1.5101-1.3701l0.14898-0.247 0.29365 0.6816c0.16376 0.3764 0.2955 0.7304 0.2955 0.7941 0 0.1883-0.66364 0.8036-1.2719 1.1869-0.92343 0.5791-1.9841 0.796-3.1169 0.6397" fill="#fff"/>
 <path d="m1.4055 17.333a14.667 14.667 0 0 0 14.594 13.333 14.667 14.667 0 0 0 14.6-13.333z" enable-background="new" fill="#fff" opacity=".05"/>
 <circle cx="16" cy="16" r="14.5" enable-background="new" fill="none" opacity=".4" stroke="#000" stroke-dashoffset="6.6" stroke-linejoin="round"/>
 <path d="m16 2c-7.732 0-14 6.268-14 14s6.268 14 14 14 14-6.268 14-14-6.268-14-14-14zm0 1a13 13 0 0 1 13 13 13 13 0 0 1-13 13 13 13 0 0 1-13-13 13 13 0 0 1 13-13z" enable-background="new" fill="url(#linearGradient8590-3)"/>
</svg>
