<svg width="32" height="32" version="1" xmlns="http://www.w3.org/2000/svg" xmlns:xlink="http://www.w3.org/1999/xlink">
 <defs>
  <linearGradient id="linearGradient18935-0-8" x1="336.65" x2="348.54" y1="59.041" y2="108.83" gradientTransform="matrix(.67266 0 0 .64266 -215.45 -37.943)" gradientUnits="userSpaceOnUse">
   <stop stop-color="#f2f2f2" offset="0"/>
   <stop stop-color="#fff" offset="1"/>
  </linearGradient>
  <linearGradient id="linearGradient18935-0" x1="352.9" x2="334.86" y1="106.51" y2="61.5" gradientTransform="matrix(.67266 0 0 .64266 -215.45 -37.943)" gradientUnits="userSpaceOnUse">
   <stop stop-color="#626262" offset="0"/>
   <stop stop-color="#4c4c4c" offset="1"/>
  </linearGradient>
  <linearGradient id="linearGradient54821" x1="3618.4" x2="3618.4" y1="-758.64" y2="-772.64" gradientTransform="translate(-.0012098)" gradientUnits="userSpaceOnUse">
   <stop stop-color="#fff" stop-opacity=".58824" offset="0"/>
   <stop stop-color="#fff" stop-opacity=".86274" offset="1"/>
  </linearGradient>
  <linearGradient id="linearGradient8365" x1="3716.2" x2="3716.2" y1="683.98" y2="705.13" gradientUnits="userSpaceOnUse" xlink:href="#linearGradient10292"/>
  <linearGradient id="linearGradient10292">
   <stop stop-color="#666" offset="0"/>
   <stop stop-color="#333" offset="1"/>
  </linearGradient>
  <linearGradient id="linearGradient8363" x1="3716.2" x2="3716.2" y1="685.14" y2="706.42" gradientUnits="userSpaceOnUse" xlink:href="#linearGradient10292"/>
  <linearGradient id="linearGradient54812" x1="195.75" x2="195.75" y1="1006.4" y2="1038.4" gradientTransform="translate(3427.5 -1791)" gradientUnits="userSpaceOnUse" xlink:href="#linearGradient10292"/>
  <linearGradient id="linearGradient54809" x1="195.75" x2="195.75" y1="1006.8" y2="1038.9" gradientTransform="matrix(-1 0 0 1 3822.5 -1791.5)" gradientUnits="userSpaceOnUse" xlink:href="#linearGradient10292"/>
  <linearGradient id="linearGradient4316" x1="372" x2="372" y1="134" y2="162" gradientTransform="translate(-357 -132)" gradientUnits="userSpaceOnUse">
   <stop stop-color="#fff" offset="0"/>
   <stop stop-color="#fff" stop-opacity=".098039" offset=".125"/>
   <stop stop-color="#fff" stop-opacity=".098039" offset=".925"/>
   <stop stop-color="#fff" stop-opacity=".49804" offset="1"/>
  </linearGradient>
 </defs>
 <path d="m22.288 1.9959c-0.0832 0-0.1556 7e-3 -0.2168 0.0156l-0.0371 6e-3 -0.0371 0.0117c-1.0205 0.30458-1.3544 1.6682-0.54687 2.3691v2e-3l5.0898 4.7656 6e-3 4e-3c0.44144 0.39204 1.0358 0.39851 1.5078 0.21874 0.47199-0.17975 0.9171-0.5946 0.94141-1.1894v-0.01-1.3535-2e-3c6e-3 -1.0363 0.0251-1.8221-0.0176-2.4551-0.0427-0.63344-0.14348-1.1482-0.47266-1.5527-0.32917-0.40448-0.82834-0.59266-1.4297-0.68554-0.60135-0.0929-1.3523-0.1114-2.3613-0.13281h-6e-3 -2.2695c-0.0478-5e-3 -0.0951-0.0117-0.15039-0.0117zm-7.2578 2e-3 -4.9551 2e-3c-2.7994 0-4.5752 0.10197-5.7187 1.1328-0.24259 0.21892-0.43083 0.4754-0.5879 0.74414-0.0117 0.02-0.0564 0.0782-0.11132 0.1875-0.0907 0.18027-0.17065 0.37241-0.23828 0.57617-0.0671 0.20198-0.12496 0.41859-0.17383 0.65039-0.0486 0.23023-0.0869 0.47111-0.11914 0.72851v2e-3c-0.0646 0.51578-0.10015 1.0903-0.11524 1.7363-7e-3 0.32198-0.0116 0.66266-0.01 1.0234v8.2188 8.2207c-2e-3 0.3594 2e-3 0.69873 0.01 1.0215 0.0151 0.64603 0.0505 1.2224 0.11524 1.7383 0.0323 0.25754 0.0707 0.4986 0.11914 0.72852 0.0971 0.4603 0.23097 0.86702 0.41211 1.2266 0.18147 0.36018 0.41279 0.67544 0.69922 0.93359 0.14342 0.12929 0.30075 0.24284 0.46679 0.34375 0.33271 0.20222 0.70911 0.35057 1.1289 0.46094v2e-3c1.0494 0.27537 2.3742 0.32422 4.123 0.32422h11.855c0.69562 0 1.3224-0.0101 1.8906-0.0371h2e-3c0.23885-0.0115 0.45772-0.0289 0.66992-0.0469h2e-3 2e-3c6e-3 -5.4e-4 0.052-4e-3 0.0898-6e-3h0.0137c0.0155-1e-3 0.0141-1.1e-4 0.0332-2e-3h2e-3c0.51385-0.0486 0.97388-0.12251 1.3887-0.23047 0.20576-0.0536 0.4054-0.11525 0.59571-0.19141 0.18901-0.0755 0.36479-0.163 0.52929-0.26172 0.1657-0.0995 0.3216-0.21271 0.46485-0.33984 0.12928-0.11465 0.24087-0.23957 0.34179-0.36524 0 2e-5 5e-3 -5e-3 6e-3 -6e-3l0.0215-0.0215 0.0156-0.0195 6e-3 -8e-3 2e-3 -4e-3 8e-3 -8e-3 8e-3 -0.0137c4e-5 -7e-5 8e-3 -0.016 0.0117-0.0234 3e-3 -4e-3 9e-3 -8e-3 0.0117-0.0117-5.4e-4 7e-4 -7e-3 3e-3 -8e-3 4e-3 0.01-0.0181 0.0172-0.0306 0.0254-0.0469-6e-3 0.0128-0.01 0.0233-0.0117 0.0273 0.095-0.13149 0.18742-0.26844 0.26562-0.41992 0.0922-0.17881 0.17175-0.3686 0.24024-0.56836 0.069-0.20111 0.12594-0.41283 0.17578-0.63867 0.0501-0.22709 0.0911-0.46643 0.125-0.71875 0.0307-0.22912 0.0546-0.4717 0.0742-0.71875l2e-3 -2e-3v-4e-3c-1e-3 0.0185 5e-3 -9e-3 0.01-0.082v-2e-3c2e-3 -0.0307 4e-3 -0.0623 0-6e-3v-2e-3 -2e-3c0.0411-0.56466 0.0568-1.1896 0.0586-1.8906v-4e-3 -11.188c-7e-3 -1.5618-1.321-2.6905-2.2676-3.5039l-0.01-8e-3 -2e-3 -2e-3 -6.7109-6.4746-8e-3 -6e-3c-1.5433-1.391-2.7944-2.1504-4.9746-2.1504z" color="#000000" color-rendering="auto" dominant-baseline="auto" image-rendering="auto" opacity=".1" shape-rendering="auto" solid-color="#000000" style="font-feature-settings:normal;font-variant-alternates:normal;font-variant-caps:normal;font-variant-ligatures:normal;font-variant-numeric:normal;font-variant-position:normal;isolation:auto;mix-blend-mode:normal;shape-padding:0;text-decoration-color:#000000;text-decoration-line:none;text-decoration-style:solid;text-indent:0;text-orientation:mixed;text-transform:none;white-space:normal"/>
 <path d="m15.088 2.6309c-0.17031 6e-3 -0.34104 0.0223-0.51367 0.0488-1.3414 4.6e-4 -2.684-5e-5 -4.0254 2e-3 -1.7221 0.12816-3.4893-0.23506-5.0996 0.50391-1.0892 1.0133-0.6417 2.6855-0.81445 3.9746-0.0758 6.7556 0.0246 13.512 0.0332 20.268 0.3529 1.2322 1.5035 2.0631 2.7891 1.8672 5.9641 0.10826 11.93 0.0258 17.895 0.0234 1.2817-0.35155 2.12-1.6387 1.8984-2.9512-0.0487-4.5784 0.24454-9.1778-0.0684-13.744-2.7419-3.1136-5.8602-5.9686-8.9141-8.7324-0.86559-0.85919-1.9875-1.3044-3.1797-1.2598z" color="#000000" fill="url(#linearGradient18935-0-8)"/>
 <path d="m22.435 1.5c-0.0499 0-0.0992 5e-3 -0.14846 0.0114-0.63275 0.19268-0.84778 1.1082-0.35998 1.5389l5.1545 4.8287c0.52901 0.47937 1.3825 0.0699 1.4104-0.62634v-1.3606c0.0226-4.2142 0.33006-4.2941-3.664-4.3806h-2.2426c-0.0493-7e-3 -0.0999-0.0114-0.14977-0.0114zm-12.636 0.0804c-5.537-3.3e-4 -6.3279 0.58227-6.2988 6.2647v8.1952 8.1951c-0.0291 5.6824 1.0083 6.2647 6.5453 6.2647h11.798c5.4973 0 6.5286-0.57993 6.5427-6.153v-11.149c-6e-3 -1.2566-1.1555-2.3179-2.0863-3.1192l-8e-3 -6e-3 -6.7017-6.4749c-1.5098-1.3634-2.5534-2.017-4.6191-2.0171zm7.2285 2.4196 8.972 8.9998v13s-0.11213 1.1782-0.44846 1.4995c-0.33633 0.32134-1.5695 0.42847-1.5695 0.42847h-15.964s-1.2332-0.10713-1.5695-0.42847c-0.33632-0.32132-0.44845-1.4995-0.44845-1.4995l-0.018-20.072s0.11213-1.1782 0.44845-1.4995c0.33637-0.32133 1.5696-0.42846 1.5696-0.42846z" color="#000000" fill="url(#linearGradient18935-0)"/>
 <path d="m3.4995 16v8.2363c-0.0291 5.6824 1.0079 6.2637 6.5449 6.2637h11.799c5.4973 0 6.5289-0.57932 6.543-6.1523v-8.3476z" enable-background="new" fill="#fff" opacity=".1"/>
 <g transform="translate(-3606 785.64)" enable-background="new">
  <rect x="3614" y="-772.64" width="16" height="14" fill="url(#linearGradient54821)"/>
  <rect x="3614" y="-760.64" width="16" height="1" fill="#f09e6f"/>
  <rect x="3614" y="-772.64" width="16" height="1" fill="#f09e6f"/>
  <rect transform="rotate(90)" x="-772.64" y="-3615" width="13" height=".99998" fill="#f09e6f"/>
  <rect transform="rotate(90)" x="-772.64" y="-3630" width="13" height=".99998" fill="#f09e6f"/>
  <g transform="matrix(1.5041 0 0 1.5041 -1968.9 -1815.2)" fill="url(#linearGradient8365)">
   <path d="m3721.1 694.45v1.3297h-0.6648v-0.59836h-3.6568l-1.3964 5.2525h-0.9308l-1.3296-3.3242-0.6649-1e-5v-0.66485l1.3297 2e-5 1.0637 2.6594 1.2635-4.6541" fill="url(#linearGradient8363)"/>
  </g>
  <path d="m3627-766.14-4 3.9997" fill="none" stroke="url(#linearGradient54812)" stroke-linecap="round" stroke-linejoin="round" stroke-width="1.3"/>
  <path d="m3623-766.14 4 3.9997" fill="none" stroke="url(#linearGradient54809)" stroke-linecap="round" stroke-linejoin="round" stroke-width="1.3"/>
 </g>
 <path d="m22.287 1.4922c-0.0504 0-0.10067 5e-3 -0.15039 0.0117-0.63831 0.19051-0.85538 1.0957-0.36328 1.5215l5.0996 4.7734c0.53367 0.47395 1.5969 0.0693 1.625-0.61914v-1.3457c0.0228-4.1667 0.23241-4.2445-3.7969-4.3301h-2.2637c-0.0498-7e-3 -0.10004-0.0117-0.15039-0.0117zm-12.213 4e-3c-2.7821 0-4.4342 0.14534-5.3867 1.0039-0.19416 0.175-0.35249 0.38793-0.49219 0.62695-0.0316 0.054-0.0686 0.10247-0.0976 0.16016-0.0785 0.156-0.14802 0.3261-0.20899 0.50977-0.0611 0.18405-0.11501 0.38162-0.16015 0.5957-0.0452 0.21409-0.0824 0.44315-0.11329 0.68945-0.0617 0.49261-0.0965 1.0527-0.11132 1.6875-7e-3 0.31739-0.01 0.65353-8e-3 1.0098v8.2206 8.2207c-2e-3 0.35623 3.5e-4 0.69239 8e-3 1.0098 0.0148 0.63477 0.0495 1.1949 0.11132 1.6875 0.0309 0.24631 0.0682 0.47537 0.11329 0.68945 0.0903 0.42816 0.21168 0.79292 0.36914 1.1055 0.15746 0.31252 0.35171 0.57249 0.58984 0.78711 0.11906 0.10732 0.24887 0.20291 0.39062 0.28906 0.28319 0.17212 0.61423 0.30534 0.99805 0.40625 0.96081 0.25213 2.26 0.3086 3.998 0.3086h11.855c0.69054 0 1.3101-0.0106 1.8672-0.0371 0.23047-0.0111 0.44308-0.0272 0.65234-0.0449 0.0436-4e-3 0.094-4e-3 0.13672-8e-3h2e-3c0.49424-0.0467 0.92903-0.11749 1.3106-0.21679 0.19111-0.0498 0.36981-0.10571 0.53515-0.17188 0.16536-0.0661 0.31771-0.14178 0.45899-0.22656 0.14129-0.0848 0.2717-0.17962 0.39062-0.28516 0.10532-0.0934 0.20005-0.19727 0.28907-0.30859 0.0115-0.0144 0.0259-0.0264 0.0371-0.041 6.7e-4 -1e-3 9.5e-4 -3e-3 2e-3 -4e-3 0.0971-0.12749 0.18514-0.26586 0.26367-0.41797 0.0792-0.15352 0.14897-0.32121 0.21094-0.50196 0.062-0.18077 0.11573-0.37576 0.16211-0.58593 0.0464-0.21016 0.0847-0.43601 0.11718-0.67774 0.0289-0.21541 0.0511-0.44929 0.0703-0.6914 2e-3 -0.0292 8e-3 -0.0543 0.01-0.084 2.9e-4 -4e-3 -2.9e-4 -8e-3 0-0.0117 0.0399-0.54795 0.0568-1.1636 0.0586-1.8574v-11.186c-6e-3 -1.2604-1.1603-2.3251-2.0957-3.1289l-8e-3 -6e-3 -6.7299-6.492c-1.5174-1.3677-2.5668-2.0234-4.6426-2.0234z" color="#000000" fill="none" opacity=".4" stroke="#000" stroke-width=".99158"/>
 <path d="m23.168 2.0749c-0.99147 0.035-1.0273 0.0465-1.0273 0.33594 0 0.10178 0.15173 0.31016 0.45898 0.64648h2.8789c0.15931 0 0.30929 0.0306 0.45312 0.0762 0.32342 0.02 0.64497 0.0487 0.96485 0.10352 0.0264 0.32124 0.0306 0.64828 0.0371 0.97461 0.0263 0.11154 0.0449 0.2259 0.0449 0.3457v2.6172c0.25501 0.21272 0.45277 0.36813 0.49023 0.36914 0.45172 0.0121 0.5059-0.28833 0.46289-2.5488-0.0534-2.8053 0.043-2.6775-2.1562-2.8398-0.86922-0.0642-2.0422-0.1-2.6074-0.0801zm-10.84 0.0371c-5.1668 2e-3 -5.8923 0.0632-6.9023 0.57617-0.60351 0.30649-1.0384 1.0652-1.2461 2.1719-0.24355 1.3004-0.239 21.425 6e-3 22.5 0.4115 1.8078 1.0604 2.3312 3.1856 2.5645 0.49142 0.054 4.6352 0.0862 9.207 0.0723 7.441-0.0226 8.3911-0.0477 9.0625-0.24023 1.2076-0.3464 1.676-0.80148 2.0254-1.9629 0.17841-0.59326 0.21211-1.6849 0.25391-8.2832 0.0479-7.5564 0.0468-6.6039-0.21875-7.1526-0.0736-0.15205-0.33859-0.46265-0.72266-0.875v4.0742c0 0.12416-0.0206 0.24218-0.0488 0.35742 0.0246 3.832-0.0428 6.676-0.12305 10.473 0.094 0.98908-0.26416 2.2098-1.373 2.4297-4.1785 0.21246-8.3977 0.16055-12.605 0.18945-2.0932-0.0712-4.2187 0.13385-6.291-0.20117-1.2079-0.09-1.3714-1.432-1.4668-2.377-0.1751-6.5788-0.13104-13.282-0.041-19.889 0.0853-1.0921-0.0376-2.658 1.1816-3.1641 2.366-0.42229 4.785-0.2218 7.1758-0.3125 0.61114 0.0344 0.29054 0.0147 0.94202 0.0117 0.059-7e-3 0.11677-0.0176 0.17773-0.0176h3.5918c-0.42688-0.30915-0.78914-0.52782-1.168-0.68359-0.60974-0.25114 0.12581-0.26372-4.6022-0.26172z" enable-background="new" fill="url(#linearGradient4316)" opacity=".3"/>
</svg>
