<svg width="32" height="32" version="1" xmlns="http://www.w3.org/2000/svg" xmlns:xlink="http://www.w3.org/1999/xlink">
 <defs>
  <linearGradient id="linearGradient18935-0-8" x1="336.65" x2="348.54" y1="59.041" y2="108.83" gradientTransform="matrix(.67266 0 0 .64266 -215.45 -37.943)" gradientUnits="userSpaceOnUse">
   <stop stop-color="#f2f2f2" offset="0"/>
   <stop stop-color="#fff" offset="1"/>
  </linearGradient>
  <linearGradient id="linearGradient18935-0" x1="352.77" x2="335.01" y1="106.5" y2="61.5" gradientTransform="matrix(.67266 0 0 .64266 -215.45 -37.943)" gradientUnits="userSpaceOnUse">
   <stop stop-color="#259dd2" offset="0"/>
   <stop stop-color="#065d8d" offset="1"/>
  </linearGradient>
  <linearGradient id="_Linear10" x2="1" gradientTransform="matrix(0 31.867 -31.867 0 751.33 424.89)" gradientUnits="userSpaceOnUse">
   <stop stop-color="#0369a3" offset="0"/>
   <stop stop-color="#047fc6" offset="1"/>
  </linearGradient>
  <linearGradient id="_Linear23" x2="1" gradientTransform="matrix(0 28 -28 0 757.29 428.6)" gradientUnits="userSpaceOnUse">
   <stop stop-color="#0369a3" offset="0"/>
   <stop stop-color="#047fc6" offset="1"/>
  </linearGradient>
  <linearGradient id="_Linear24" x2="1" gradientTransform="matrix(0 2.5 -2.5 0 764 438)" gradientUnits="userSpaceOnUse">
   <stop stop-color="#aadcf7" offset="0"/>
   <stop stop-color="#aadcf7" offset="1"/>
  </linearGradient>
 </defs>
 <path d="m22.288 1.9959c-0.0832 0-0.1556 7e-3 -0.2168 0.0156l-0.0371 6e-3 -0.0371 0.0117c-1.0205 0.30458-1.3544 1.6682-0.54687 2.3691v2e-3l5.0898 4.7656 6e-3 4e-3c0.44144 0.39204 1.0358 0.39851 1.5078 0.21874 0.47199-0.17975 0.9171-0.5946 0.94141-1.1894v-0.01-1.3535-2e-3c6e-3 -1.0363 0.0251-1.8221-0.0176-2.4551-0.0427-0.63344-0.14348-1.1482-0.47266-1.5527-0.32917-0.40448-0.82834-0.59266-1.4297-0.68554-0.60135-0.0929-1.3523-0.1114-2.3613-0.13281h-6e-3 -2.2695c-0.0478-5e-3 -0.0951-0.0117-0.15039-0.0117zm-7.2578 2e-3 -4.9551 2e-3c-2.7994 0-4.5752 0.10197-5.7188 1.1328-0.24259 0.21892-0.43083 0.4754-0.5879 0.74414-0.0117 0.02-0.0564 0.0782-0.11132 0.1875-0.0907 0.18027-0.17065 0.37241-0.23828 0.57617-0.0671 0.20198-0.12496 0.41859-0.17383 0.65039-0.0486 0.23023-0.0869 0.47111-0.11914 0.72851v2e-3c-0.0646 0.51578-0.10015 1.0903-0.11524 1.7363-7e-3 0.32198-0.0116 0.66266-0.01 1.0234v8.2187 8.2207c-2e-3 0.3594 2e-3 0.69873 0.01 1.0215 0.0151 0.64603 0.0505 1.2224 0.11524 1.7383 0.0323 0.25754 0.0707 0.4986 0.11914 0.72852 0.0971 0.4603 0.23097 0.86702 0.41211 1.2266 0.18147 0.36018 0.41279 0.67544 0.69922 0.93359 0.14342 0.12929 0.30075 0.24284 0.46679 0.34375 0.33271 0.20222 0.70911 0.35057 1.1289 0.46094v2e-3c1.0494 0.27537 2.3742 0.32422 4.123 0.32422h11.855c0.69562 0 1.3224-0.0101 1.8906-0.0371h2e-3c0.23885-0.0115 0.45772-0.0289 0.66992-0.0469h2e-3 2e-3c6e-3 -5.4e-4 0.052-4e-3 0.0898-6e-3h0.0137c0.0155-1e-3 0.0141-1.1e-4 0.0332-2e-3h2e-3c0.51385-0.0486 0.97388-0.12251 1.3887-0.23047 0.20576-0.0536 0.4054-0.11525 0.59571-0.19141 0.18901-0.0755 0.36479-0.163 0.52929-0.26172 0.1657-0.0995 0.3216-0.21271 0.46485-0.33984 0.12928-0.11465 0.24087-0.23957 0.34179-0.36524 0 2e-5 5e-3 -5e-3 6e-3 -6e-3l0.0215-0.0215 0.0156-0.0195 6e-3 -8e-3 2e-3 -4e-3 8e-3 -8e-3 8e-3 -0.0137c4e-5 -7e-5 8e-3 -0.016 0.0117-0.0234 3e-3 -4e-3 9e-3 -8e-3 0.0117-0.0117-5.4e-4 7e-4 -7e-3 3e-3 -8e-3 4e-3 0.01-0.0181 0.0172-0.0306 0.0254-0.0469-6e-3 0.0128-0.01 0.0233-0.0117 0.0273 0.095-0.13149 0.18742-0.26844 0.26562-0.41992 0.0922-0.17881 0.17175-0.3686 0.24024-0.56836 0.069-0.20111 0.12594-0.41283 0.17578-0.63867 0.0501-0.22709 0.0911-0.46643 0.125-0.71875 0.0307-0.22912 0.0546-0.4717 0.0742-0.71875l2e-3 -2e-3v-4e-3c-1e-3 0.0185 5e-3 -9e-3 0.01-0.082v-2e-3c2e-3 -0.0307 4e-3 -0.0623 0-6e-3v-2e-3 -2e-3c0.0411-0.56466 0.0568-1.1896 0.0586-1.8906v-4e-3 -11.188c-7e-3 -1.5618-1.321-2.6905-2.2676-3.5039l-0.01-8e-3 -2e-3 -2e-3 -6.7109-6.4746-8e-3 -6e-3c-1.5433-1.391-2.7944-2.1504-4.9746-2.1504z" color="#000000" color-rendering="auto" dominant-baseline="auto" image-rendering="auto" opacity=".1" shape-rendering="auto" solid-color="#000000" style="font-feature-settings:normal;font-variant-alternates:normal;font-variant-caps:normal;font-variant-ligatures:normal;font-variant-numeric:normal;font-variant-position:normal;isolation:auto;mix-blend-mode:normal;shape-padding:0;text-decoration-color:#000000;text-decoration-line:none;text-decoration-style:solid;text-indent:0;text-orientation:mixed;text-transform:none;white-space:normal"/>
 <path d="m12.812 2.5938c-2.2091 0.0869-4.4278-0.0911-6.6113 0.28516-1.3822 0.22431-1.6014 1.8238-1.6035 2.9688-0.0917 6.6215-0.0825 13.288-6e-3 19.928 0.0192 1.244 0.13084 3.0184 1.6113 3.3652 1.8538 0.43957 3.7673 0.18789 5.6543 0.2754 4.4588-0.0429 8.9279 0.078 13.369-0.14063 1.3211-0.092 1.9522-1.4157 2.0098-2.5918 0.19393-4.5614 0.0874-9.1289 0.11719-13.693-0.67163-1.3396-1.9613-2.2232-2.9434-3.3066-2.2074-2.0958-4.3324-4.2928-6.6621-6.252-1.428-1.0702-3.3018-0.76444-4.9356-0.83789z" color="#000000" fill="url(#linearGradient18935-0-8)"/>
 <path d="m22.435 1.5c-0.0499 0-0.0992 5e-3 -0.14846 0.0114-0.63275 0.19268-0.84778 1.1082-0.35998 1.5389l5.1545 4.8287c0.52901 0.47937 1.3825 0.0699 1.4104-0.62634v-1.3606c0.0226-4.2142 0.33006-4.2941-3.664-4.3806h-2.2426c-0.0493-7e-3 -0.0999-0.0114-0.14977-0.0114zm-12.636 0.0804c-5.537-3.3e-4 -6.3279 0.58227-6.2988 6.2647v8.1951 8.1951c-0.0291 5.6824 1.0083 6.2647 6.5453 6.2647h11.798c5.4973 0 6.5286-0.57993 6.5427-6.153v-11.149c-6e-3 -1.2566-1.1555-2.3179-2.0863-3.1192l-8e-3 -6e-3 -6.7017-6.4749c-1.5098-1.3634-2.5534-2.017-4.6191-2.0171zm7.2285 2.4196 8.972 8.9998v13s-0.11213 1.1782-0.44846 1.4995c-0.33633 0.32134-1.5695 0.42847-1.5695 0.42847h-15.964s-1.2332-0.10713-1.5695-0.42847c-0.33632-0.32132-0.44845-1.4995-0.44845-1.4995l-0.018-20.072s0.11213-1.1782 0.44845-1.4995c0.33637-0.32133 1.5696-0.42846 1.5696-0.42846z" color="#000000" fill="url(#linearGradient18935-0)"/>
 <path d="m3.4995 16v8.2363c-0.0291 5.6824 1.0079 6.2637 6.5449 6.2637h11.799c5.4973 0 6.5289-0.57932 6.543-6.1523v-8.3476z" enable-background="new" fill="#fff" opacity=".1"/>
 <g transform="translate(-741 -424)" clip-rule="evenodd" enable-background="new" fill-rule="evenodd">
  <path d="m749.5 437c-0.277 0-0.5 0.224-0.5 0.5s0.223 0.5 0.5 0.5h5c0.276 0 0.5-0.224 0.5-0.5s-0.224-0.5-0.5-0.5zm0 2c-0.277 0-0.5 0.224-0.5 0.5s0.223 0.5 0.5 0.5h5c0.276 0 0.5-0.224 0.5-0.5s-0.224-0.5-0.5-0.5zm0 2c-0.277 0-0.5 0.224-0.5 0.5s0.223 0.5 0.5 0.5h5c0.276 0 0.5-0.224 0.5-0.5s-0.224-0.5-0.5-0.5zm0 2c-0.277 0-0.5 0.224-0.5 0.5s0.223 0.5 0.5 0.5h5c0.276 0 0.5-0.224 0.5-0.5s-0.224-0.5-0.5-0.5zm0 2c-0.277 0-0.5 0.224-0.5 0.5s0.223 0.5 0.5 0.5h15c0.276 0 0.5-0.224 0.5-0.5s-0.224-0.5-0.5-0.5zm0 2c-0.277 0-0.5 0.224-0.5 0.5s0.223 0.5 0.5 0.5h15c0.276 0 0.5-0.224 0.5-0.5s-0.224-0.5-0.5-0.5zm0 2c-0.277 0-0.5 0.224-0.5 0.5s0.223 0.5 0.5 0.5h11c0.276 0 0.5-0.224 0.5-0.5s-0.224-0.5-0.5-0.5z" fill="url(#_Linear10)" fill-rule="nonzero"/>
  <path d="m757.54 437c-0.851 0-1.54 0.689-1.54 1.54v3.92c0 0.851 0.689 1.54 1.54 1.54h5.92c0.851 0 1.54-0.689 1.54-1.54v-3.92c0-0.851-0.689-1.54-1.54-1.54z" fill="url(#_Linear23)" fill-rule="nonzero"/>
  <path d="m763.3 438h-5.6c-0.387 0-0.7 0.313-0.7 0.7v3.6c0 0.387 0.313 0.7 0.7 0.7h5.6c0.387 0 0.7-0.313 0.7-0.7v-3.6c0-0.387-0.313-0.7-0.7-0.7z" fill="url(#_Linear24)" fill-rule="nonzero"/>
  <path d="m764.36 442.62v-0.018l-1.117-1.383c-0.387-0.48-1.117-0.487-1.513-0.014l-0.468 0.558c-0.059 0.071-0.168 0.066-0.221-8e-3l-1.265-1.771c-0.413-0.579-1.285-0.539-1.644 0.075l-1.486 2.543c0 0.386 0.313 0.7 0.7 0.7h6.314c0.381 0 0.69-0.304 0.7-0.682z" fill="#0474b4"/>
 </g>
</svg>
