<svg width="32" height="32" version="1" xmlns="http://www.w3.org/2000/svg" xmlns:xlink="http://www.w3.org/1999/xlink">
 <defs>
  <linearGradient id="linearGradient8588-0" x1="13.735" x2="38.1" y1="249.69" y2="292.77" gradientTransform="matrix(.60892 0 0 .60892 -31.144 -181.71)" gradientUnits="userSpaceOnUse">
   <stop stop-color="#f37e40" offset="0"/>
   <stop stop-color="#f34f17" offset="1"/>
  </linearGradient>
  <linearGradient id="linearGradient8590-3" x1="96" x2="96" y1="4" y2="188" gradientTransform="matrix(.15217 0 0 .15217 1.3913 1.3913)" gradientUnits="userSpaceOnUse">
   <stop stop-color="#fff" offset="0"/>
   <stop stop-color="#fff" stop-opacity=".098039" offset=".125"/>
   <stop stop-color="#fff" stop-opacity=".098039" offset=".925"/>
   <stop stop-color="#fff" stop-opacity=".49804" offset="1"/>
  </linearGradient>
 </defs>
 <circle transform="scale(-1)" cx="-16" cy="-17" r="15" enable-background="new" opacity=".1"/>
 <circle transform="scale(-1)" cx="-16" cy="-16" r="14.5" enable-background="new" fill="url(#linearGradient8588-0)"/>
 <path d="m15.5 9c-0.82843 0-1.5 0.67158-1.5 1.5s0.67157 1.5 1.5 1.5c0.0563-5.6e-4 0.11257-5e-3 0.16845-0.0113 0.0983 7e-3 0.20828 0.0113 0.33155 0.0113a5 5 0 0 1 5 5 5 5 0 0 1-5 5 5 5 0 0 1-4.8936-4h1.7183c0.51902-1.1e-4 0.84336-0.33676 0.584-0.6062l-3.0747-3.1916c-0.11482-0.1192-0.32284-0.19517-0.55224-0.20166-0.252-6e-3 -0.4896 0.0707-0.61572 0.20166l-3.0747 3.1916c-0.25936 0.26944 0.065 0.60609 0.584 0.6062h1.3892c0.49247 3.9459 3.8562 7 7.9356 7 4.4183 0 8-3.5817 8-8 0-4.4183-3.5817-8-8-8-0.11275 0-0.21006 6e-3 -0.29664 0.0156-0.0674-0.01-0.13531-0.015-0.20336-0.0156z" enable-background="new" opacity=".15" stroke-width=".1"/>
 <path d="m15.5 8c-0.82843 0-1.5 0.67158-1.5 1.5s0.67157 1.5 1.5 1.5c0.0563-5.6e-4 0.11257-5e-3 0.16845-0.0113 0.0983 7e-3 0.20828 0.0113 0.33155 0.0113a5 5 0 0 1 5 5 5 5 0 0 1-5 5 5 5 0 0 1-4.8936-4h1.7183c0.51901-1.1e-4 0.84335-0.33676 0.58399-0.6062l-3.0747-3.1916c-0.11482-0.1192-0.32285-0.19517-0.55223-0.20166-0.25201-6e-3 -0.4896 0.0707-0.61573 0.20166l-3.0747 3.1916c-0.25937 0.26944 0.065 0.60609 0.584 0.6062h1.3892c0.49247 3.9459 3.8562 7 7.9356 7 4.4183 0 8-3.5817 8-8 0-4.4183-3.5817-8-8-8-0.11275 0-0.21006 6e-3 -0.29664 0.0156-0.0674-0.01-0.13531-0.015-0.20336-0.0156z" enable-background="new" fill="#faf8f6" stroke-width=".1"/>
 <path d="m1.4055 17.333a14.667 14.667 0 0 0 14.594 13.333 14.667 14.667 0 0 0 14.6-13.333z" enable-background="new" fill="#fff" opacity=".1"/>
 <circle cx="16" cy="16" r="14.5" enable-background="new" fill="none" opacity=".4" stroke="#000" stroke-dashoffset="6.6" stroke-linejoin="round"/>
 <path d="m16 2c-7.732 0-14 6.268-14 14s6.268 14 14 14 14-6.268 14-14-6.268-14-14-14zm0 1a13 13 0 0 1 13 13 13 13 0 0 1-13 13 13 13 0 0 1-13-13 13 13 0 0 1 13-13z" enable-background="new" fill="url(#linearGradient8590-3)"/>
</svg>
