<svg width="32" height="32" version="1" xmlns="http://www.w3.org/2000/svg" xmlns:xlink="http://www.w3.org/1999/xlink">
 <defs>
  <linearGradient id="linearGradient1004-8" x1="344" x2="344" y1="65.144" y2="102.86" gradientTransform="matrix(0 -1.0476 .95458 0 263.82 444.37)" gradientUnits="userSpaceOnUse">
   <stop stop-color="#fff" offset="0"/>
   <stop stop-color="#fff" stop-opacity=".098039" offset=".125"/>
   <stop stop-color="#fff" stop-opacity=".098039" offset=".925"/>
   <stop stop-color="#fff" stop-opacity=".49804" offset="1"/>
  </linearGradient>
  <clipPath id="clipPath994-1">
   <path d="m335.73 62c-8.8242 0-9.7736 0.90635-9.7304 9.7484v12.252 12.252c-0.0433 8.842 0.90622 9.7484 9.7304 9.7484h16.539c8.8242 0 9.7304-0.90625 9.7304-9.7484v-12.252-12.252c0-8.8421-0.90622-9.7484-9.7304-9.7484z" color="#000000" fill="#cdcdcd"/>
  </clipPath>
 </defs>
 <path d="m31 11.194c0-1.421-0.0308-2.5488-0.19141-3.5059-0.16064-0.95703-0.4726-1.7915-1.0918-2.4121s-1.4561-0.93647-2.4141-1.0957c-0.95795-0.15924-2.087-0.18666-3.5117-0.17969h-7.791-7.7969c-1.4213-7e-3 -2.5495 0.0207-3.5058 0.17969-0.95796 0.15923-1.7949 0.47505-2.4141 1.0957s-0.93115 1.4551-1.0918 2.4121c-0.16065 0.95703-0.19141 2.0849-0.19141 3.5059v11.615c0 1.421 0.0307 2.5467 0.19141 3.502 0.16075 0.95527 0.47425 1.7878 1.0938 2.4062 0.6195 0.61845 1.4536 0.93134 2.4102 1.0918 0.95653 0.16046 2.084 0.19141 3.5078 0.19141h7.7969 7.7969c1.4238 0 2.5513-0.031 3.5078-0.19141 0.95653-0.16045 1.7906-0.47334 2.4102-1.0918 0.61951-0.61846 0.933-1.451 1.0938-2.4062 0.16076-0.95527 0.19141-2.081 0.19141-3.502z" color="#000000" color-rendering="auto" dominant-baseline="auto" image-rendering="auto" opacity=".1" shape-rendering="auto" solid-color="#000000" style="font-feature-settings:normal;font-variant-alternates:normal;font-variant-caps:normal;font-variant-ligatures:normal;font-variant-numeric:normal;font-variant-position:normal;isolation:auto;mix-blend-mode:normal;shape-padding:0;text-decoration-color:#000000;text-decoration-line:none;text-decoration-style:solid;text-indent:0;text-orientation:mixed;text-transform:none;white-space:normal"/>
 <path d="m7.7832 3.5c-5.6982-0.0293-6.2832 1.0125-6.2832 6.5742v11.852c0 5.5604 0.58496 6.5742 6.2832 6.5742h16.434c5.6982 0 6.2832-1.0138 6.2832-6.5742v-11.852c0-5.5618-0.58502-6.6035-6.2832-6.5742h-8.2168z" enable-background="new" fill="#6dc7f1"/>
 <path d="m17.215 3.5-4.9824 19.809 4.9316 5.1914h7.0527c5.6982 0 6.2832-1.0138 6.2832-6.5742v-11.852c0-5.5618-0.58502-6.6035-6.2832-6.5742z" color="#000000" fill="#e3dfd5"/>
 <path d="m7.7832 3.5c-5.6982-0.0293-6.2832 1.0125-6.2832 6.5742v2.1387l11.072 11.398 17.271-18.412c-0.7506-1.3671-2.3312-1.7161-5.627-1.6992h-8.2168z" color="#000000" fill="#a6d74f"/>
 <path d="m1.5 10.398v3.6289l14.15 14.473h0.34961 3.1973z" color="#000000" fill="#f9f9f9" fill-opacity=".99608"/>
 <path d="m29.283 4.4961-24.018 23.891c0.7039 0.0793 1.5301 0.11328 2.5176 0.11328h0.95703l21.609-21.494c-0.15333-1.1609-0.46046-1.9775-1.0664-2.5098z" color="#000000" fill="#fdc92b"/>
 <path d="m2 16v5.5137c0 5.8826 0.57631 6.4863 6.2031 6.4863h15.594c5.6268 0 6.2031-0.60376 6.2031-6.4863v-5.5137z" enable-background="new" fill="#fff" opacity=".1"/>
 <path d="m11 3.5v25h10v-25h-5z" enable-background="new" fill="#fff" opacity=".1"/>
 <path d="m20.933 5c-2.9444 0-5.3313 2.3869-5.3313 5.3312 0 0.58462 0.099 1.1456 0.2726 1.6719 0.018 0.0535 0.032 0.10837 0.051 0.16113 0.1357 0.44934 2.1261 6.9797 5.0133 12.836 6e-4 0 0-5.3e-4 0-1e-3 1e-3 -5.3e-4 0-2e-3 0-3e-3 1e-3 -1e-3 0-2e-3 0-3e-3 1e-3 -8e-4 0-2e-3 0-2e-3 3.0847-6.3958 5.0455-12.988 5.0455-12.988h-1e-3c0.1737-0.52605 0.269-1.0877 0.269-1.672 1e-4 -2.9444-2.3868-5.3313-5.3312-5.3313z" color="#000000" opacity=".05"/>
 <path d="m20.933 6c-2.9444 0-5.3313 2.3869-5.3313 5.3312 0 0.58462 0.099 1.1456 0.2726 1.6719 0.018 0.0535 0.032 0.10837 0.051 0.16113 0.1357 0.44934 2.1261 6.9797 5.0133 12.836 6e-4 0 0-5.3e-4 0-1e-3 1e-3 -5.3e-4 0-2e-3 0-3e-3 1e-3 -1e-3 0-2e-3 0-3e-3 1e-3 -8e-4 0-2e-3 0-2e-3 3.0847-6.3958 5.0455-12.988 5.0455-12.988h-1e-3c0.1737-0.52605 0.269-1.0877 0.269-1.672 1e-4 -2.9444-2.3868-5.3313-5.3312-5.3313z" color="#000000" fill="#f22c42"/>
 <circle cx="20.893" cy="11.393" r="2.6309" color="#000000" fill="#bc1938"/>
 <path d="m30.5 10.075c0-5.5618-0.58409-6.6037-6.2823-6.5745h-8.2176-8.2178c-5.6982-0.0293-6.2823 1.0127-6.2823 6.5745v11.85c0 5.5604 0.58403 6.5745 6.2823 6.5745h8.2178 8.2176c5.6982 0 6.2823-1.0141 6.2823-6.5745z" color="#000000" fill="none" opacity=".4" stroke="#000"/>
 <path transform="matrix(0 .66664 -.63636 0 69.455 -213.32)" d="m335.73 62c-8.8242 0-9.7736 0.90635-9.7304 9.7484v12.252 12.252c-0.0433 8.842 0.90622 9.7484 9.7304 9.7484h16.539c8.8242 0 9.7304-0.90625 9.7304-9.7484v-12.252-12.252c0-8.8421-0.90622-9.7484-9.7304-9.7484z" clip-path="url(#clipPath994-1)" color="#000000" fill="none" opacity=".7" stroke="url(#linearGradient1004-8)" stroke-width="3.0707"/>
</svg>
