<svg width="32" height="32" version="1" xmlns="http://www.w3.org/2000/svg" xmlns:xlink="http://www.w3.org/1999/xlink">
 <defs>
  <linearGradient id="linearGradient8588-0" x1="13.735" x2="38.1" y1="249.69" y2="292.77" gradientTransform="matrix(.60892 0 0 .60892 .85556 -149.71)" gradientUnits="userSpaceOnUse">
   <stop stop-color="#76c22b" offset="0"/>
   <stop stop-color="#a6d74f" offset="1"/>
  </linearGradient>
  <linearGradient id="linearGradient8590-3" x1="96" x2="96" y1="4" y2="188" gradientTransform="matrix(.15217 0 0 .15217 1.3913 1.3913)" gradientUnits="userSpaceOnUse">
   <stop stop-color="#fff" offset="0"/>
   <stop stop-color="#fff" stop-opacity=".098039" offset=".125"/>
   <stop stop-color="#fff" stop-opacity=".098039" offset=".925"/>
   <stop stop-color="#fff" stop-opacity=".49804" offset="1"/>
  </linearGradient>
 </defs>
 <circle transform="scale(-1)" cx="-16" cy="-17" r="15" enable-background="new" opacity=".1"/>
 <circle cx="16" cy="16" r="14.5" enable-background="new" fill="url(#linearGradient8588-0)"/>
 <path d="m13.009 7.2802 5.9824-3e-3v6.9821l2.2678 1e-3c-0.9273 1.8509-2.5986 5.0998-5.259 9.0614-2.6609-3.9623-4.3316-7.213-5.259-9.064l2.2678 1e-3zm-3.9883 17.947v1.4956h13.959v-1.4956z" color="#000000" opacity=".1"/>
 <path d="m3.5605 8.5859a14.5 14.5 0 0 0-2.0606 7.4141 14.5 14.5 0 0 0 14.5 14.5 14.5 14.5 0 0 0 12.584-7.3184z" enable-background="new" fill="#fff" opacity=".05"/>
 <path d="m13.009 6.2801 5.9824-3e-3v6.9821l2.2678 1e-3c-0.9273 1.8509-2.5986 5.0998-5.259 9.0614-2.6609-3.9623-4.3316-7.213-5.259-9.064l2.2678 1e-3zm-3.9883 17.947v1.4956h13.959v-1.4956z" color="#000000" fill="#fff"/>
 <circle cx="16" cy="16" r="14.5" enable-background="new" fill="none" opacity=".4" stroke="#000" stroke-dashoffset="6.6" stroke-linejoin="round"/>
 <path d="m16 2c-7.732 0-14 6.268-14 14 0 7.732 6.268 14 14 14 7.732 0 14-6.268 14-14 0-7.732-6.268-14-14-14zm0 1a13 13 0 0 1 13 13 13 13 0 0 1-13 13 13 13 0 0 1-13-13 13 13 0 0 1 13-13z" enable-background="new" fill="url(#linearGradient8590-3)"/>
</svg>
