<svg width="32" height="32" version="1" xmlns="http://www.w3.org/2000/svg" xmlns:xlink="http://www.w3.org/1999/xlink">
 <defs>
  <linearGradient id="linearGradient1688-3" x1="320" x2="352" y1="164" y2="164" gradientTransform="rotate(90 242 -78)" gradientUnits="userSpaceOnUse">
   <stop stop-color="#2b898f" offset="0"/>
   <stop stop-color="#5bdbc1" offset="1"/>
  </linearGradient>
  <linearGradient id="linearGradient998" x1="16" x2="16" y1="304" y2="208" gradientTransform="matrix(.046875 0 0 .052083 1.5001 2.6667)" gradientUnits="userSpaceOnUse" xlink:href="#linearGradient4245"/>
  <linearGradient id="linearGradient4245">
   <stop stop-color="#d9d9d9" offset="0"/>
   <stop stop-color="#ececec" offset="1"/>
  </linearGradient>
  <linearGradient id="linearGradient21969" x1="16" x2="16" y1="304" y2="208" gradientTransform="matrix(.046875 0 0 .052083 -.49993 2.6667)" gradientUnits="userSpaceOnUse" xlink:href="#linearGradient4245"/>
  <linearGradient id="linearGradient1688-4" x1="322" x2="350" y1="148" y2="148" gradientTransform="rotate(90 242 -78)" gradientUnits="userSpaceOnUse">
   <stop stop-color="#fff" offset="0"/>
   <stop stop-color="#fff" stop-opacity=".098039" offset=".125"/>
   <stop stop-color="#fff" stop-opacity=".098039" offset=".925"/>
   <stop stop-color="#fff" stop-opacity=".49804" offset="1"/>
  </linearGradient>
 </defs>
 <path d="m9.301 2c-1.6395 0-2.9408 0.0308-4.045 0.19141-1.1042 0.16064-2.067 0.4726-2.7831 1.0918s-1.0805 1.4561-1.2642 2.4141c-0.18374 0.95795-0.21537 2.087-0.20733 3.5117v7.791 7.7969c-9e-3 1.4213 0.0239 2.5495 0.20733 3.5058 0.18371 0.95796 0.5481 1.7949 1.2642 2.4141s1.6789 0.93115 2.7831 1.0918c1.1042 0.16065 2.4056 0.19141 4.045 0.19141h13.402c1.6395 0 2.9384-0.0307 4.0405-0.19141 1.1022-0.16075 2.0627-0.47425 2.7763-1.0938 0.71357-0.6195 1.0746-1.4536 1.2597-2.4102 0.18515-0.95653 0.22086-2.084 0.22086-3.5078v-7.7969-7.7969c0-1.4238-0.0358-2.5513-0.22086-3.5078-0.18512-0.95653-0.54612-1.7906-1.2597-2.4102-0.71359-0.61951-1.6741-0.933-2.7763-1.0938-1.1022-0.16076-2.401-0.19141-4.0405-0.19141z" color="#000000" color-rendering="auto" dominant-baseline="auto" image-rendering="auto" opacity=".1" shape-rendering="auto" solid-color="#000000" style="font-feature-settings:normal;font-variant-alternates:normal;font-variant-caps:normal;font-variant-ligatures:normal;font-variant-numeric:normal;font-variant-position:normal;isolation:auto;mix-blend-mode:normal;shape-padding:0;text-decoration-color:#000000;text-decoration-line:none;text-decoration-style:solid;text-indent:0;text-orientation:mixed;text-transform:none;white-space:normal"/>
 <path d="m9.1272 1.5c-6.4516 0-7.6603 0.58409-7.6264 6.2823v8.2176 8.2178c-0.034 5.6982 1.1748 6.2823 7.6264 6.2823h13.747c6.45 0 7.6264-0.58403 7.6264-6.2823v-8.2178-8.2176c0-5.6982-1.1764-6.2823-7.6264-6.2823z" color="#000000" fill="url(#linearGradient1688-3)"/>
 <path d="m10.414 9.5958c-0.42459 0-0.81964 0.053-1.1853 0.15915s-0.69601 0.23593-0.99087 0.38925c-0.29485 0.15333-0.54847 0.31829-0.76077 0.4952-0.21229 0.16512-0.37131 0.30678-0.47746 0.42473l0.81351 1.1675c0.0826-0.0708 0.20069-0.17107 0.35401-0.30081 0.15333-0.14153 0.34206-0.27107 0.56615-0.38902 0.22409-0.12973 0.4777-0.24169 0.76077-0.33604 0.28306-0.0944 0.59539-0.14165 0.93742-0.14165 0.28306 0 0.54856 0.0413 0.79624 0.12391 0.25947 0.0708 0.48362 0.18867 0.67232 0.35378 0.18871 0.16512 0.33608 0.37144 0.44223 0.61912 0.11794 0.24768 0.17689 0.54859 0.17689 0.90242 0 0.33024-0.0649 0.64281-0.19462 0.93766-0.11795 0.29486-0.28291 0.58366-0.4952 0.86672-0.20051 0.27127-0.43653 0.54841-0.7078 0.83148-0.0949 0.0992-0.1947 0.20005-0.29427 0.3008h2.0391c0.1648-0.1946 0.32053-0.38902 0.46649-0.58364 0.28307-0.38921 0.50721-0.77855 0.67233-1.1678 0.17691-0.401 0.26557-0.81387 0.26557-1.2385 0-1.0851-0.32445-1.9224-0.97313-2.5122-0.63689-0.6015-1.5981-0.90218-2.8837-0.90218zm10.57 0c-0.56612 0-1.0791 0.0944-1.539 0.28307-0.45997 0.17691-0.85502 0.41864-1.1853 0.72529-0.31844 0.30665-0.56612 0.66628-0.74303 1.0791-0.17691 0.40101-0.26534 0.82553-0.26534 1.2737 0 1.2856 0.57783 2.2587 1.7337 2.9192-0.0649 0.0395-0.12898 0.081-0.19253 0.12391h4.4213c-0.10795-0.0614-0.219-0.12101-0.33674-0.17689 0.23588-0.15332 0.46002-0.33017 0.67232-0.53067 0.22409-0.2005 0.41876-0.43059 0.58388-0.69006 0.17691-0.25947 0.3124-0.53662 0.40675-0.83148 0.10615-0.30665 0.15939-0.63109 0.15939-0.97313 0-0.35382-0.0708-0.7194-0.21236-1.0968-0.12974-0.37742-0.34794-0.71945-0.65459-1.0261-0.29486-0.31844-0.67825-0.578-1.15-0.7785s-1.038-0.30057-1.6984-0.30057zm0 1.3622c0.37742 0 0.69592 0.0649 0.9554 0.19462 0.25947 0.11794 0.47196 0.27126 0.63708 0.45996 0.16512 0.17692 0.28302 0.37159 0.35378 0.58388 0.0826 0.2123 0.12392 0.40697 0.12392 0.58388 0 0.63689-0.1476 1.1558-0.44246 1.5568-0.29486 0.38921-0.6899 0.73124-1.1853 1.0261-0.44818-0.10615-0.83728-0.24781-1.1675-0.42472-0.31845-0.17692-0.578-0.37729-0.77851-0.60138-0.2005-0.2241-0.34787-0.46606-0.44222-0.72553-0.0944-0.25948-0.14166-0.5188-0.14166-0.77828 0-0.21229 0.0354-0.42455 0.10619-0.63685 0.0826-0.22409 0.20639-0.4247 0.37151-0.60161 0.16512-0.18871 0.37738-0.34202 0.63685-0.45996 0.27127-0.11795 0.59549-0.17689 0.9729-0.17689z" enable-background="new" fill="#ececec"/>
 <path d="m10.829 16c-0.17262 0.17466-0.35153 0.35143-0.53837 0.53079-0.35383 0.35383-0.71357 0.7194-1.0792 1.0968-0.36562 0.37742-0.69578 0.77841-0.99064 1.203-0.29485 0.42459-0.5367 0.8787-0.72541 1.3623-0.17691 0.47177-0.26534 0.98482-0.26534 1.5392v0.19463c0 0.0708 6e-3 0.14148 0.0177 0.21224h7.4303v-1.3976h-5.6436c0-0.2005 0.0767-0.43641 0.22998-0.70768 0.16512-0.27126 0.36561-0.55424 0.6015-0.84909 0.23588-0.29486 0.48356-0.57795 0.74303-0.84922l0.70768-0.70768c0.35382-0.35382 0.70763-0.71357 1.0615-1.0792 0.17136-0.18279 0.334-0.36563 0.48878-0.54841zm7.9636 0c-0.20209 0.13635-0.39741 0.28946-0.58586 0.45996-0.23588 0.2123-0.44814 0.45415-0.63685 0.72542-0.17691 0.27127-0.3244 0.56612-0.44234 0.88457-0.10615 0.30665-0.15916 0.63098-0.15916 0.97301 0 0.35383 0.0648 0.73117 0.19451 1.1322 0.12974 0.38921 0.34794 0.74896 0.65459 1.0792 0.30665 0.33023 0.71358 0.60738 1.2207 0.83147 0.51895 0.2123 1.1618 0.31843 1.9284 0.31843 0.66048 0 1.2442-0.0884 1.7514-0.26534 0.50715-0.16511 0.92585-0.40102 1.2561-0.70767 0.34203-0.31845 0.59565-0.68402 0.76076-1.0968 0.17692-0.42459 0.26534-0.88453 0.26534-1.3799-0.0216-1.3059-0.61633-2.2906-1.7835-2.9545zm1.5017 0.40687c0.47177 0.10615 0.89047 0.23593 1.2561 0.38926 0.37742 0.14153 0.69592 0.31837 0.9554 0.53067 0.27126 0.21229 0.47758 0.46009 0.61911 0.74315s0.21236 0.61322 0.21236 0.99063c0 0.24768-0.0472 0.48953-0.14153 0.72541-0.0944 0.23589-0.2359 0.44815-0.42461 0.63686-0.18871 0.17691-0.43638 0.32428-0.74303 0.44222-0.29486 0.11794-0.64284 0.17701-1.0438 0.17701-0.44818 0-0.8197-0.0649-1.1146-0.19463-0.29486-0.12973-0.53659-0.28899-0.7253-0.47769-0.18871-0.20051-0.32431-0.41277-0.40687-0.63686-0.0708-0.23588-0.10618-0.46002-0.10618-0.67232 0-0.60151 0.14154-1.1204 0.42461-1.5568 0.29485-0.43638 0.7076-0.80207 1.2383-1.0969z" enable-background="new" fill="#f9f9f9"/>
 <path d="m2.0001 13v6h1v-6z" color="#000000" fill="url(#linearGradient998)"/>
 <path d="m29 13v6h1v-6z" color="#000000" fill="url(#linearGradient21969)"/>
 <path d="m1.5001 16v8.2168c0 5.6982 1.1769 6.2832 7.627 6.2832h13.746c6.4516 0 7.661-0.58502 7.627-6.2832v-8.2168z" enable-background="new" fill="#fff" opacity=".08"/>
 <path d="m9.1272 1.5c-6.4516 0-7.6603 0.58409-7.6264 6.2823v8.2176 8.2178c-0.034 5.6982 1.1748 6.2823 7.6264 6.2823h13.747c6.45 0 7.6264-0.58403 7.6264-6.2823v-8.2178-8.2176c0-5.6982-1.1764-6.2823-7.6264-6.2823z" color="#000000" fill="none" opacity=".4" stroke="#000"/>
 <path d="m9.127 2c-3.2107 0-5.0326 0.19514-5.9375 0.89844-0.45247 0.35165-0.74178 0.83286-0.93359 1.6172-0.19176 0.78433-0.26386 1.8569-0.25586 3.2637v2e-3 8.2188 8.2188 2e-3c-8e-3 1.4068 0.0641 2.4794 0.25586 3.2637 0.1918 0.78431 0.48112 1.2655 0.93359 1.6172 0.90496 0.7033 2.7268 0.89844 5.9375 0.89844h13.746c3.2099 0 5.0246-0.19551 5.9258-0.89844 0.45058-0.35146 0.73805-0.83201 0.93164-1.6172 0.19363-0.7853 0.26953-1.8603 0.26953-3.2677v-8.2168-8.2168c0-1.4074-0.0759-2.4824-0.26953-3.2676-0.19359-0.78517-0.48106-1.2657-0.93164-1.6172-0.90117-0.70293-2.7159-0.89844-5.9258-0.89844zm6.498 1.0469c3.4565 0.0171 6.9142-0.0268 10.361 0.0918 0.8211 0.13276 1.8066 0.14835 2.3906 0.82617 0.67884 1.1647 0.51296 2.5878 0.56446 3.873 0.0431 6.0289 0.0678 12.067-0.0332 18.088-0.0775 0.77792-0.12055 1.6726-0.67968 2.2754-0.70249 0.51038-1.6183 0.59683-2.459 0.67383-4.0474 0.0864-8.1622 0.0456-12.24 0.0606-2.4519-0.0199-4.914 0.0317-7.3535-0.0606-0.87784-0.12055-1.915-0.14021-2.5606-0.83398-0.64775-1.0259-0.50264-2.3052-0.56054-3.4648-0.035-5.6558-0.0351-11.355 0-17.01 0.0632-1.2215-0.10864-2.5772 0.59179-3.6524 0.6025-0.62665 1.5562-0.63986 2.3594-0.77344 2.7374-0.10739 5.4808-0.0704 8.2266-0.0918 0.46403-2.9e-4 0.92855-2e-3 1.3926-2e-3z" color="#000000" fill="url(#linearGradient1688-4)"/>
</svg>
