<svg width="32" height="32" version="1" xmlns="http://www.w3.org/2000/svg">
 <defs>
  <linearGradient id="linearGradient1688" x1="321" x2="351" y1="153" y2="143" gradientTransform="rotate(-90 110 242)" gradientUnits="userSpaceOnUse">
   <stop stop-color="#f7f7f7" offset="0"/>
   <stop stop-color="#e6e6e6" offset="1"/>
  </linearGradient>
  <linearGradient id="linearGradient1688-4" x1="322" x2="350" y1="148" y2="148" gradientTransform="rotate(90 242 -78)" gradientUnits="userSpaceOnUse">
   <stop stop-color="#fff" offset="0"/>
   <stop stop-color="#fff" stop-opacity=".098039" offset=".125"/>
   <stop stop-color="#fff" stop-opacity=".098039" offset=".925"/>
   <stop stop-color="#fff" stop-opacity=".49804" offset="1"/>
  </linearGradient>
 </defs>
 <path d="m9.3009 2c-1.6395 0-2.9408 0.0308-4.045 0.19141-1.1042 0.16064-2.067 0.4726-2.7831 1.0918s-1.0805 1.4561-1.2642 2.4141c-0.18374 0.95795-0.21537 2.087-0.20733 3.5117v15.588c-9e-3 1.4213 0.0239 2.5495 0.20733 3.5058 0.18371 0.95796 0.5481 1.7949 1.2642 2.4141s1.6789 0.93115 2.7831 1.0918 2.4056 0.19141 4.045 0.19141h13.402c1.6395 0 2.9384-0.0307 4.0405-0.19141 1.1022-0.16075 2.0627-0.47425 2.7763-1.0938 0.71357-0.6195 1.0746-1.4536 1.2597-2.4102 0.18515-0.95653 0.22086-2.084 0.22086-3.5078v-15.594c0-1.4238-0.0358-2.5513-0.22086-3.5078-0.18512-0.95653-0.54612-1.7906-1.2597-2.4102-0.71359-0.61951-1.6741-0.933-2.7763-1.0938-1.1022-0.16076-2.401-0.19141-4.0405-0.19141z" color="#000000" color-rendering="auto" dominant-baseline="auto" image-rendering="auto" opacity=".1" shape-rendering="auto" solid-color="#000000" style="font-feature-settings:normal;font-variant-alternates:normal;font-variant-caps:normal;font-variant-ligatures:normal;font-variant-numeric:normal;font-variant-position:normal;isolation:auto;mix-blend-mode:normal;shape-padding:0;text-decoration-color:#000000;text-decoration-line:none;text-decoration-style:solid;text-indent:0;text-orientation:mixed;text-transform:none;white-space:normal"/>
 <path d="m22.873 30.5c6.4516 0 7.6603-0.58409 7.6264-6.2823v-16.435c0.034-5.6982-1.1748-6.2823-7.6264-6.2823h-13.747c-6.45 0-7.6264 0.58403-7.6264 6.2823v16.435c0 5.6982 1.1764 6.2823 7.6264 6.2823z" color="#000000" fill="url(#linearGradient1688)"/>
 <path d="m9.1271 1.5c-6.4516 0-7.6603 0.58409-7.6264 6.2823v16.435c-0.034 5.6982 1.1748 6.2823 7.6264 6.2823h13.747c6.45 0 7.6264-0.58403 7.6264-6.2823v-16.435c0-5.6982-1.1764-6.2823-7.6264-6.2823z" color="#000000" fill="none" opacity=".4" stroke="#000"/>
 <path d="m9.127 2c-3.2107 0-5.0326 0.19514-5.9375 0.89844-0.45247 0.35165-0.74178 0.83286-0.93359 1.6172-0.19176 0.78433-0.26386 1.8569-0.25586 3.2637v16.442c-8e-3 1.4068 0.0641 2.4794 0.25586 3.2637 0.1918 0.78431 0.48112 1.2655 0.93359 1.6172 0.90496 0.7033 2.7268 0.89844 5.9375 0.89844h13.746c3.2099 0 5.0246-0.19551 5.9258-0.89844 0.45058-0.35146 0.73805-0.83201 0.93164-1.6172 0.19363-0.7853 0.26953-1.8603 0.26953-3.2677v-16.434c0-1.4074-0.0759-2.4824-0.26953-3.2676-0.19359-0.78517-0.48106-1.2657-0.93164-1.6172-0.90117-0.70293-2.7159-0.89844-5.9258-0.89844zm6.498 1.0469c3.4565 0.0171 6.9142-0.0268 10.361 0.0918 0.8211 0.13276 1.8066 0.14835 2.3906 0.82617 0.67884 1.1647 0.51296 2.5878 0.56446 3.873 0.0431 6.0289 0.0678 12.067-0.0332 18.088-0.0775 0.77792-0.12055 1.6726-0.67968 2.2754-0.70249 0.51038-1.6183 0.59683-2.459 0.67383-4.0474 0.0864-8.1622 0.0456-12.24 0.0606-2.4519-0.0199-4.914 0.0317-7.3535-0.0606-0.87784-0.12055-1.915-0.14021-2.5606-0.83398-0.64775-1.0259-0.50264-2.3052-0.56054-3.4648-0.035-5.6558-0.0351-11.355 0-17.01 0.0632-1.2215-0.10864-2.5772 0.59179-3.6524 0.6025-0.62665 1.5562-0.63986 2.3594-0.77344 2.7374-0.10739 5.4808-0.0704 8.2266-0.0918 0.46403-2.9e-4 0.92855-2e-3 1.3926-2e-3z" color="#000000" fill="url(#linearGradient1688-4)"/>
 <g transform="translate(-1 1.0001)">
  <path d="m7 8.9297 4.5906 4.0017c2.5248 2.2009 4.6557 4.0599 4.7353 4.1312 0.34227 0.30635 0.77332 0.37313 1.1552 0.17896 0.0728-0.037 2.0782-1.7665 4.6624-4.0208 2.494-2.1757 4.6071-4.0179 4.6956-4.0937l0.16095-0.13786v12.374l-0.08529 0.16846c-0.09573 0.18911-0.22859 0.31772-0.41714 0.40383l-0.12739 0.05818-9.3212 0.0051c-7.2548 4e-3 -9.3492-0.0024-9.4473-0.02854-0.26667-0.07119-0.49441-0.29214-0.57561-0.55847zm9.8391 6.3124c-0.137-0.04453-0.29599-0.13874-0.43911-0.26021-0.07986-0.06778-2.0797-1.5996-4.444-3.4042-3.1375-2.3946-4.3035-3.2993-4.3161-3.3488-0.011553-0.045534 0.00134-0.092154 0.038398-0.14149l0.055626-0.073574 18.569-0.01386 0.06876 0.067854c0.07583 0.074847 0.08719 0.14702 0.03378 0.21454-0.01922 0.024334-1.9622 1.5144-4.3177 3.3113-2.3555 1.7969-4.3443 3.32-4.4195 3.3846-0.21281 0.18292-0.38842 0.26575-0.58721 0.27693-0.09447 0.0053-0.20326-5.73e-4 -0.24174-0.01307z" fill="#43557d"/>
  <path d="m27.018 9.0546-2.0469 1.8086c1.0611-0.93737 1.8499-1.632 1.9004-1.6758l0.14648-0.12891zm0.01367 2.5918v2.5742l-0.39844 2e-3c-0.56227 0.0014-1.1329 0.11281-1.873 0.36914-1.013 0.35082-1.9332 0.84502-3.5645 1.9141-1.7858 1.1703-2.3758 1.5235-3.4141 2.0352-1.9868 0.97913-3.8515 1.5455-5.9492 1.8086-0.41226 0.0517-2.0695 0.07585-2.6582 0.03906-0.77334-0.04832-2.0616-0.1835-2.125-0.22266-0.021654-0.0134-0.02849-1.6126-0.023437-5.5977v-0.78715l-0.00781 4.793-0.076172-0.01367c-0.042292-8e-3 -0.16569-0.02347-0.27344-0.0332-0.36994-0.033425-1.2316-0.155-1.707-0.24024-0.39319-0.070492-0.67336-0.14284-0.96094-0.2168v0.29883c0.79697 0.35997 1.79 0.64835 2.9141 0.83008l0.10352 0.01758v0.47461c0 0.26102-0.00802 0.47464-0.019531 0.47461-0.051793-1.56e-4 -0.89481-0.14885-1.207-0.21289-0.58914-0.12084-1.1129-0.29615-1.4258-0.47852-0.21304-0.12418-0.12513-0.04478 0.1543 0.14062 0.63676 0.42253 1.4171 0.75688 2.3438 1.0039l0.14062 0.03711 0.011719 0.37109c0.00226-0.19429 0.016872-0.35742 0.042969-0.35742 0.021879 0 0.14325 0.02435 0.27148 0.05469 0.75635 0.179 1.6954 0.28006 2.8086 0.30078 3.1282 0.05825 5.8109-0.52345 9.0703-1.9668 1.161-0.5141 2.4458-1.1766 4.8555-2.5 1.7211-0.94525 2.1799-1.1445 2.7617-1.1973l0.20508-0.01758v0.01172l0.11914 0.01563c0.45563 0.0582 0.80597 0.40235 0.84961 0.83398 0.02082 0.20602-0.03829 0.48117-0.1582 0.73242-0.10287 0.21555-0.37534 0.58307-0.53711 0.72461l-0.11914 0.10352 0.11328-0.07813c0.38504-0.27129 0.9222-0.79684 1.1074-1.0801 0.13853-0.21185 0.19566-0.37207 0.21289-0.59961 0.03283-0.43353-0.14268-0.84161-0.52148-1.2168-0.27388-0.27126-0.52234-0.41934-0.84766-0.50196l-0.20312-0.05078zm-10.674 5.5801c0.02138 0.0194 0.04435 0.03719 0.06641 0.05469-0.02206-0.0175-0.04502-0.03529-0.06641-0.05469zm-9.2949 4.418c0.025918 0.08164 0.06754 0.15664 0.11719 0.22656-0.052913-0.074124-0.096005-0.13756-0.11719-0.22656zm0.11719 0.22656c0.00997 0.01396 0.010017 0.02793 0.021484 0.04297 0.027951 0.03663 0.066539 0.07299 0.11133 0.10938-0.051027-0.04472-0.09341-0.09685-0.13281-0.15234zm0.45312 0.32812c0.00508 0.0014 0.010686 0.0047 0.015625 0.0059 0.00938 0.0023 0.10707 4e-3 0.25391 0.0059-0.16528-0.0035-0.25188-7e-3 -0.26953-0.01172z" fill="#efb841"/>
 </g>
</svg>
