<svg width="32" height="32" version="1" xmlns="http://www.w3.org/2000/svg" xmlns:xlink="http://www.w3.org/1999/xlink">
 <defs>
  <linearGradient id="linearGradient4107" x1="77" x2="227" y1="156" y2="156" gradientTransform="matrix(0 -.19333 -.19333 0 46.16 45.387)" gradientUnits="userSpaceOnUse">
   <stop stop-color="#e6e6e6" offset="0"/>
   <stop stop-color="#f2f2f2" offset="1"/>
  </linearGradient>
  <linearGradient id="linearGradient8590-3" x1="96" x2="96" y1="4" y2="188" gradientTransform="matrix(.15217 0 0 .15217 1.3913 1.3913)" gradientUnits="userSpaceOnUse">
   <stop stop-color="#fff" offset="0"/>
   <stop stop-color="#fff" stop-opacity=".098039" offset=".125"/>
   <stop stop-color="#fff" stop-opacity=".098039" offset=".925"/>
   <stop stop-color="#fff" stop-opacity=".49804" offset="1"/>
  </linearGradient>
 </defs>
 <circle transform="scale(-1)" cx="-16" cy="-17" r="15" enable-background="new" opacity=".1"/>
 <g transform="matrix(.19333 0 0 .19333 -13.387 -14.16)" enable-background="new" stroke-width="5.1724">
  <g stroke-width="5.1724">
   <path d="m153.36 230.99a75 75 0 0 1-74.784-59.692 75 75 0 0 1 44.728-84.589 75 75 0 0 1 91.436 28.2l-62.74 41.093z" fill="#f76363"/>
   <path d="m209.45 107.79a75 75 0 0 1 5.5636 88.877l-63.017-40.668z" fill="#5884f4"/>
   <path d="m195.04 217.42a75 75 0 0 1-62.45 11.023l19.411-72.444z" fill="#76c22b"/>
   <path d="m219.97 187.7a75 75 0 0 1-30.473 33.256l-37.5-64.952z" fill="#fdc92b"/>
  </g>
 </g>
 <path d="m16 1.5c-8.0081 0-14.5 6.4919-14.5 14.5s6.4919 14.5 14.5 14.5c8.0081 0 14.5-6.4919 14.5-14.5s-6.4919-14.5-14.5-14.5z" enable-background="new" fill="url(#linearGradient4107)" opacity=".2"/>
 <circle cx="16" cy="16" r="14.5" enable-background="new" fill="none" opacity=".4" stroke="#000" stroke-dashoffset="6.6" stroke-linejoin="round"/>
 <path d="m16 2c-7.732 0-14 6.268-14 14s6.268 14 14 14 14-6.268 14-14-6.268-14-14-14zm0 1a13 13 0 0 1 13 13 13 13 0 0 1-13 13 13 13 0 0 1-13-13 13 13 0 0 1 13-13z" enable-background="new" fill="url(#linearGradient8590-3)"/>
</svg>
