<svg width="32" height="32" version="1" xmlns="http://www.w3.org/2000/svg" xmlns:xlink="http://www.w3.org/1999/xlink">
 <defs>
  <linearGradient id="linearGradient4882" x1="323" x2="349" y1="155" y2="139" gradientTransform="rotate(90,242,-78)" gradientUnits="userSpaceOnUse">
   <stop stop-color="#d280b9" offset="0"/>
   <stop stop-color="#b549b5" offset=".52913"/>
   <stop stop-color="#8940a8" offset="1"/>
  </linearGradient>
  <linearGradient id="linearGradient4882-7" x1="324" x2="348" y1="149" y2="149" gradientTransform="rotate(90 242 -78)" gradientUnits="userSpaceOnUse">
   <stop stop-color="#fff" offset="0"/>
   <stop stop-color="#fff" stop-opacity=".098039" offset=".125"/>
   <stop stop-color="#fff" stop-opacity=".098039" offset=".925"/>
   <stop stop-color="#fff" stop-opacity=".49804" offset="1"/>
  </linearGradient>
 </defs>
 <path d="m31 11.194c0-1.421-0.0308-2.5488-0.19141-3.5059-0.16064-0.95703-0.4726-1.7915-1.0918-2.4121s-1.4561-0.93647-2.4141-1.0957c-0.95795-0.15924-2.087-0.18666-3.5117-0.17969h-7.791-7.7969c-1.4213-7e-3 -2.5495 0.0207-3.5058 0.17969-0.95796 0.15923-1.7949 0.47505-2.4141 1.0957s-0.93115 1.4551-1.0918 2.4121c-0.16065 0.95703-0.19141 2.0849-0.19141 3.5059v11.615c0 1.421 0.0307 2.5467 0.19141 3.502 0.16075 0.95527 0.47425 1.7878 1.0938 2.4062 0.6195 0.61845 1.4536 0.93134 2.4102 1.0918 0.95653 0.16046 2.084 0.19141 3.5078 0.19141h7.7969 7.7969c1.4238 0 2.5513-0.031 3.5078-0.19141 0.95653-0.16045 1.7906-0.47334 2.4102-1.0918 0.61951-0.61846 0.933-1.451 1.0938-2.4062 0.16076-0.95527 0.19141-2.081 0.19141-3.502z" color="#000000" color-rendering="auto" dominant-baseline="auto" image-rendering="auto" opacity=".1" shape-rendering="auto" solid-color="#000000" style="font-feature-settings:normal;font-variant-alternates:normal;font-variant-caps:normal;font-variant-ligatures:normal;font-variant-numeric:normal;font-variant-position:normal;isolation:auto;mix-blend-mode:normal;shape-padding:0;text-decoration-color:#000000;text-decoration-line:none;text-decoration-style:solid;text-indent:0;text-orientation:mixed;text-transform:none;white-space:normal"/>
 <path d="m30.5 10.075c0-5.5618-0.58409-6.6037-6.2823-6.5745h-8.2176-8.2178c-5.6982-0.0293-6.2823 1.0127-6.2823 6.5745v11.85c0 5.5604 0.58403 6.5745 6.2823 6.5745h8.2178 8.2176c5.6982 0 6.2823-1.0141 6.2823-6.5745z" color="#000000" fill="url(#linearGradient4882)"/>
 <path d="m9 9v7h2v-7zm-3 2v5h2v-5zm6 0v5h2v-5zm15 2v3h2v-3zm-24 1v2h2v-2zm12 0v2h2v-2zm9-3v5h2v-5zm-6 4v1h2v-1zm3-2v3h2v-3z" enable-background="new" fill="#f3e8f0"/>
 <path d="m9 23v-7h2v7zm-3-2v-5h2v5zm6 0v-5h2v5zm15-2v-3h2v3zm-24-1v-2h2v2zm12 0v-2h2v2zm9 3v-5h2v5zm-6-4v-1h2v1zm3 2v-3h2v3z" enable-background="new" fill="#faf8f6" opacity=".7"/>
 <path d="m30.5 10.075c0-5.5618-0.58409-6.6037-6.2823-6.5745h-8.2176-8.2178c-5.6982-0.0293-6.2823 1.0127-6.2823 6.5745v11.85c0 5.5604 0.58403 6.5745 6.2823 6.5745h8.2178 8.2176c5.6982 0 6.2823-1.0141 6.2823-6.5745z" color="#000000" fill="none" opacity=".4" stroke="#000"/>
 <path d="m7.7793 4c-1.4093-7e-3 -2.4864 0.0555-3.2793 0.22266-0.79285 0.16714-1.2826 0.42298-1.625 0.80273-0.6847 0.7595-0.875 2.2855-0.875 5.0488v11.852c0 2.7627 0.19058 4.2807 0.875 5.0371 0.34221 0.37821 0.83141 0.63407 1.625 0.80273 0.79359 0.16868 1.8735 0.23438 3.2832 0.23438h8.2168 8.2168c1.4097 0 2.4896-0.0657 3.2832-0.23438 0.79359-0.16866 1.2828-0.42452 1.625-0.80273 0.68442-0.75642 0.875-2.2744 0.875-5.0371v-11.852c0-2.7634-0.1903-4.2893-0.875-5.0488-0.34235-0.37974-0.83215-0.63559-1.625-0.80273-0.79285-0.16716-1.87-0.22966-3.2793-0.22266h-2e-3 -8.2187-8.2188zm6.3574 1.043c2.7222-3e-3 5.4438-2e-3 8.166 0.0156 1.7082 0.0756 3.47-0.12508 5.1602 0.24805 0.89252 0.11633 1.3083 1.0352 1.3457 1.8398 0.1306 4.9924 0.0357 10.004 0.0645 15.008-0.065 1.3502 0.25513 2.826-0.50586 4.0352-0.63638 0.68531-1.7042 0.58192-2.5586 0.70508-5.3254 0.1332-10.659 0.0725-15.992 0.0644-1.8796-0.0864-3.8481 0.16741-5.6777-0.40625-0.91711-0.35573-0.90353-1.5332-0.98633-2.3555-0.13787-4.6651-0.0284-9.3606-0.0254-14.033 0.0729-1.2515-0.10561-2.5448 0.21485-3.7676 0.18398-0.91079 1.1882-1.1604 1.9785-1.2383 2.9379-0.15985 5.8717-0.0797 8.8164-0.11523z" color="#000000" fill="url(#linearGradient4882-7)"/>
</svg>
