<svg width="32" height="32" version="1" xmlns="http://www.w3.org/2000/svg" xmlns:xlink="http://www.w3.org/1999/xlink">
 <defs>
  <linearGradient id="linearGradient1688" x1="321" x2="351" y1="153" y2="143" gradientTransform="rotate(90 242 -78)" gradientUnits="userSpaceOnUse">
   <stop stop-color="#37a6e6" offset="0"/>
   <stop stop-color="#6dc7f1" offset="1"/>
  </linearGradient>
  <filter id="filter974" x="-.05" y="-.04" width="1.102" height="1.091" color-interpolation-filters="sRGB">
   <feGaussianBlur stdDeviation=".72"/>
  </filter>
  <linearGradient id="linearGradient1688-4" x1="322" x2="350" y1="148" y2="148" gradientTransform="rotate(90 242 -78)" gradientUnits="userSpaceOnUse">
   <stop stop-color="#fff" offset="0"/>
   <stop stop-color="#fff" stop-opacity=".098039" offset=".125"/>
   <stop stop-color="#fff" stop-opacity=".098039" offset=".925"/>
   <stop stop-color="#fff" stop-opacity=".49804" offset="1"/>
  </linearGradient>
 </defs>
 <path d="m9.3009 2c-1.6395 0-2.9408 0.0308-4.045 0.19141-1.1042 0.16064-2.067 0.4726-2.7831 1.0918s-1.0805 1.4561-1.2642 2.4141c-0.18374 0.95795-0.21537 2.087-0.20733 3.5117v7.791 7.7969c-9e-3 1.4213 0.0239 2.5495 0.20733 3.5058 0.18371 0.95796 0.5481 1.7949 1.2642 2.4141s1.6789 0.93115 2.7831 1.0918c1.1042 0.16065 2.4056 0.19141 4.045 0.19141h13.402c1.6395 0 2.9384-0.0307 4.0405-0.19141 1.1022-0.16075 2.0627-0.47425 2.7763-1.0938 0.71357-0.6195 1.0746-1.4536 1.2597-2.4102 0.18515-0.95653 0.22086-2.084 0.22086-3.5078v-7.7969-7.7969c0-1.4238-0.0358-2.5513-0.22086-3.5078-0.18512-0.95653-0.54612-1.7906-1.2597-2.4102-0.71359-0.61951-1.6741-0.933-2.7763-1.0938-1.1022-0.16076-2.401-0.19141-4.0405-0.19141z" color="#000000" color-rendering="auto" dominant-baseline="auto" image-rendering="auto" opacity=".1" shape-rendering="auto" solid-color="#000000" style="font-feature-settings:normal;font-variant-alternates:normal;font-variant-caps:normal;font-variant-ligatures:normal;font-variant-numeric:normal;font-variant-position:normal;isolation:auto;mix-blend-mode:normal;shape-padding:0;text-decoration-color:#000000;text-decoration-line:none;text-decoration-style:solid;text-indent:0;text-orientation:mixed;text-transform:none;white-space:normal"/>
 <path d="m9.1271 1.5c-6.4516 0-7.6603 0.58409-7.6264 6.2823v8.2176 8.2178c-0.034 5.6982 1.1748 6.2823 7.6264 6.2823h13.747c6.45 0 7.6264-0.58403 7.6264-6.2823v-8.2178-8.2176c0-5.6982-1.1764-6.2823-7.6264-6.2823z" color="#000000" fill="url(#linearGradient1688)"/>
 <g transform="matrix(.51792 0 0 .51792 .23039 -1.8609)" enable-background="new" stroke-width="7.7241">
  <path d="m30.413 15.277c-2.3504 0-4.2507 1.8881-4.25 4.2188-5.49e-4 1.8111 1.6342 3.307 3.25 3.9062 2e-3 0.29164-2e-3 0.58336 0 0.875h-7.5313c-0.26107 0-0.46875 0.20768-0.46875 0.46875v1.0625c0 0.26107 0.20768 0.46875 0.46875 0.46875h7.5313c0.0345 6.8119 0.0425 13.625 0 20.438 0.0107 0.16805-0.55059 0.33823-0.6875 0.4375-0.38758 0.28766-0.83623 0.39284-1.3125 0.40625-0.75734-0.0046-1.2441-0.20708-1.9688-0.40625-1.6364-0.47538-3.1878-1.142-4.6875-1.9375-0.6314-0.34777-1.2507-0.67378-1.8125-1.125-0.24214-0.20523-0.52574-0.50457-0.5-0.84375 0.03271-0.25676 0.15285-0.51553 0.4375-0.5625 0.25655-0.04037 0.49189 0.07118 0.71875 0.15625 0.19557 0.08379 0.34378-0.11976 0.3125-0.28125-0.03148-0.42544-0.18439-0.81924-0.40625-1.1875-0.46158-0.75428-1.169-1.3301-1.9062-1.8125-0.78716-0.4994-1.6263-1.045-2.125-1.8438-0.0992-0.14762-0.21524-0.39098-0.4375-0.3125-0.30897 0.09957-0.47367 0.39692-0.625 0.65625-0.42579 0.80499-0.65178 1.6794-0.84375 2.5625-0.15781 0.70262-0.18012 1.4403-0.125 2.1562 0.05707 0.71633 0.11423 1.4248 0.40625 2.0938 0.1839 0.4396 0.52134 0.81225 0.84375 1.1562 0.20573-0.2161 0.38328-0.44458 0.59375-0.65625 0.27274-0.27202 0.63207-0.45905 1.0312-0.40625 0.5433 0.06947 1.0418 0.40609 1.4688 0.71875 0.6014 0.4646 1.1685 0.95515 1.7812 1.4062 0.9696 0.73614 2.0264 1.2586 3.125 1.7812 0.91532 0.42228 1.8626 0.84407 2.8125 1.1875 0.1701 0.07381 0.35807 0.06351 0.53125 0.125 1.7095 0.70633 3.1604 1.5267 4.3438 3 2e-3 0.02022-2e-3 0.07448 0 0.09375 0.0136-0.01747 0.0176-0.01397 0.0312-0.03125 0.0136 0.01728 0.0177 0.01378 0.0312 0.03125 9e-3 -0.04069-9e-3 -0.08414 0-0.125 1.1796-1.4562 2.6446-2.2667 4.3438-2.9688 0.17318-0.06149 0.36114-0.05119 0.53125-0.125 0.94986-0.34343 1.8972-0.76522 2.8125-1.1875 1.0986-0.5227 2.1554-1.0451 3.125-1.7812 0.61275-0.4511 1.1798-0.94164 1.7812-1.4062 0.42695-0.31266 0.92545-0.64928 1.4688-0.71875 0.39917-0.0528 0.7585 0.13423 1.0312 0.40625 0.21047 0.21167 0.38802 0.44016 0.59375 0.65625 0.32241-0.344 0.65984-0.71665 0.84375-1.1562 0.29202-0.66895 0.34918-1.3774 0.40625-2.0938 0.0551-0.71592 0.0328-1.4536-0.125-2.1562-0.19197-0.88307-0.41796-1.7575-0.84375-2.5625-0.15134-0.25933-0.31603-0.55668-0.625-0.65625-0.22226-0.07848-0.3383 0.16488-0.4375 0.3125-0.4987 0.79874-1.3378 1.3443-2.125 1.8438-0.73727 0.48241-1.4447 1.0582-1.9062 1.8125-0.22186 0.36826-0.37478 0.76206-0.40625 1.1875-0.0313 0.16149 0.11693 0.36504 0.3125 0.28125 0.22686-0.08507 0.46219-0.19662 0.71875-0.15625 0.28465 0.04697 0.40479 0.30574 0.4375 0.5625 0.0257 0.33918-0.25786 0.63852-0.5 0.84375-0.5618 0.45123-1.1811 0.77723-1.8125 1.125-1.4997 0.79548-3.0511 1.4621-4.6875 1.9375-0.72461 0.19918-1.2114 0.4016-1.9688 0.40625-0.47627-0.0134-0.92492-0.11859-1.3125-0.40625-0.13692-0.09927-0.69818-0.26945-0.6875-0.4375v-20.438h7.5312c0.26106 0 0.46875-0.20768 0.46875-0.46875v-1.0625c0-0.26107-0.20768-0.46875-0.46875-0.46875h-7.5312v-0.875c1.6158-0.59925 3.2506-2.0952 3.25-3.9062 7e-4 -2.3306-1.8996-4.2188-4.25-4.2188zm-0.0937 2.0625c1.141 1e-6 2.0941 0.89988 2.0938 2.0312 3.4e-4 1.1314-0.95278 2.0625-2.0938 2.0625-1.141-1e-6 -2.0628-0.93112-2.0625-2.0625-3.5e-4 -1.1314 0.92152-2.0312 2.0625-2.0312z" fill="#181818" filter="url(#filter974)" opacity=".3"/>
  <path d="m30.413 15.277c-2.3504 0-4.2507 1.8881-4.25 4.2188-5.49e-4 1.8111 1.6342 3.307 3.25 3.9062 2e-3 0.29164-2e-3 0.58336 0 0.875h-7.5313c-0.26107 0-0.46875 0.20768-0.46875 0.46875v1.0625c0 0.26107 0.20768 0.46875 0.46875 0.46875h7.5313c0.0345 6.8119 0.0425 13.625 0 20.438 0.0107 0.16805-0.55059 0.33823-0.6875 0.4375-0.38758 0.28766-0.83623 0.39284-1.3125 0.40625-0.75734-0.0046-1.2441-0.20708-1.9688-0.40625-1.6364-0.47538-3.1878-1.142-4.6875-1.9375-0.6314-0.34777-1.2507-0.67378-1.8125-1.125-0.24214-0.20523-0.52574-0.50457-0.5-0.84375 0.03271-0.25676 0.15285-0.51553 0.4375-0.5625 0.25655-0.04037 0.49189 0.07118 0.71875 0.15625 0.19557 0.08379 0.34378-0.11976 0.3125-0.28125-0.03148-0.42544-0.18439-0.81924-0.40625-1.1875-0.46158-0.75428-1.169-1.3301-1.9062-1.8125-0.78716-0.4994-1.6263-1.045-2.125-1.8438-0.0992-0.14762-0.21524-0.39098-0.4375-0.3125-0.30897 0.09957-0.47367 0.39692-0.625 0.65625-0.42579 0.80499-0.65178 1.6794-0.84375 2.5625-0.15781 0.70262-0.18012 1.4403-0.125 2.1562 0.05707 0.71633 0.11423 1.4248 0.40625 2.0938 0.1839 0.4396 0.52134 0.81225 0.84375 1.1562 0.20573-0.2161 0.38328-0.44458 0.59375-0.65625 0.27274-0.27202 0.63207-0.45905 1.0312-0.40625 0.5433 0.06947 1.0418 0.40609 1.4688 0.71875 0.6014 0.4646 1.1685 0.95515 1.7812 1.4062 0.9696 0.73614 2.0264 1.2586 3.125 1.7812 0.91532 0.42228 1.8626 0.84407 2.8125 1.1875 0.1701 0.07381 0.35807 0.06351 0.53125 0.125 1.7095 0.70633 3.1604 1.5267 4.3438 3 2e-3 0.02022-2e-3 0.07448 0 0.09375 0.0136-0.01747 0.0176-0.01397 0.0312-0.03125 0.0136 0.01728 0.0177 0.01378 0.0312 0.03125 9e-3 -0.04069-9e-3 -0.08414 0-0.125 1.1796-1.4562 2.6446-2.2667 4.3438-2.9688 0.17318-0.06149 0.36114-0.05119 0.53125-0.125 0.94986-0.34343 1.8972-0.76522 2.8125-1.1875 1.0986-0.5227 2.1554-1.0451 3.125-1.7812 0.61275-0.4511 1.1798-0.94164 1.7812-1.4062 0.42695-0.31266 0.92545-0.64928 1.4688-0.71875 0.39917-0.0528 0.7585 0.13423 1.0312 0.40625 0.21047 0.21167 0.38802 0.44016 0.59375 0.65625 0.32241-0.344 0.65984-0.71665 0.84375-1.1562 0.29202-0.66895 0.34918-1.3774 0.40625-2.0938 0.0551-0.71592 0.0328-1.4536-0.125-2.1562-0.19197-0.88307-0.41796-1.7575-0.84375-2.5625-0.15134-0.25933-0.31603-0.55668-0.625-0.65625-0.22226-0.07848-0.3383 0.16488-0.4375 0.3125-0.4987 0.79874-1.3378 1.3443-2.125 1.8438-0.73727 0.48241-1.4447 1.0582-1.9062 1.8125-0.22186 0.36826-0.37478 0.76206-0.40625 1.1875-0.0313 0.16149 0.11693 0.36504 0.3125 0.28125 0.22686-0.08507 0.46219-0.19662 0.71875-0.15625 0.28465 0.04697 0.40479 0.30574 0.4375 0.5625 0.0257 0.33918-0.25786 0.63852-0.5 0.84375-0.5618 0.45123-1.1811 0.77723-1.8125 1.125-1.4997 0.79548-3.0511 1.4621-4.6875 1.9375-0.72461 0.19918-1.2114 0.4016-1.9688 0.40625-0.47627-0.0134-0.92492-0.11859-1.3125-0.40625-0.13692-0.09927-0.69818-0.26945-0.6875-0.4375v-20.438h7.5312c0.26106 0 0.46875-0.20768 0.46875-0.46875v-1.0625c0-0.26107-0.20768-0.46875-0.46875-0.46875h-7.5312v-0.875c1.6158-0.59925 3.2506-2.0952 3.25-3.9062 7e-4 -2.3306-1.8996-4.2188-4.25-4.2188zm-0.0937 2.0625c1.141 1e-6 2.0941 0.89988 2.0938 2.0312 3.4e-4 1.1314-0.95278 2.0625-2.0938 2.0625-1.141-1e-6 -2.0628-0.93112-2.0625-2.0625-3.5e-4 -1.1314 0.92152-2.0312 2.0625-2.0312z" fill="#2f739b"/>
 </g>
 <path d="m9.1271 1.5c-6.4516 0-7.6603 0.58409-7.6264 6.2823v8.2176 8.2178c-0.034 5.6982 1.1748 6.2823 7.6264 6.2823h13.747c6.45 0 7.6264-0.58403 7.6264-6.2823v-8.2178-8.2176c0-5.6982-1.1764-6.2823-7.6264-6.2823z" color="#000000" fill="none" opacity=".4" stroke="#000"/>
 <path d="m9.127 2c-3.2107 0-5.0326 0.19514-5.9375 0.89844-0.45247 0.35165-0.74178 0.83286-0.93359 1.6172-0.19176 0.78433-0.26386 1.8569-0.25586 3.2637v2e-3 8.2188 8.2188 2e-3c-8e-3 1.4068 0.0641 2.4794 0.25586 3.2637 0.1918 0.78431 0.48112 1.2655 0.93359 1.6172 0.90496 0.7033 2.7268 0.89844 5.9375 0.89844h13.746c3.2099 0 5.0246-0.19551 5.9258-0.89844 0.45058-0.35146 0.73805-0.83201 0.93164-1.6172 0.19363-0.7853 0.26953-1.8603 0.26953-3.2677v-8.2168-8.2168c0-1.4074-0.0759-2.4824-0.26953-3.2676-0.19359-0.78517-0.48106-1.2657-0.93164-1.6172-0.90117-0.70293-2.7159-0.89844-5.9258-0.89844zm6.498 1.0469c3.4565 0.0171 6.9142-0.0268 10.361 0.0918 0.8211 0.13276 1.8066 0.14835 2.3906 0.82617 0.67884 1.1647 0.51296 2.5878 0.56446 3.873 0.0431 6.0289 0.0678 12.067-0.0332 18.088-0.0775 0.77792-0.12055 1.6726-0.67968 2.2754-0.70249 0.51038-1.6183 0.59683-2.459 0.67383-4.0474 0.0864-8.1622 0.0456-12.24 0.0606-2.4519-0.0199-4.914 0.0317-7.3535-0.0606-0.87784-0.12055-1.915-0.14021-2.5606-0.83398-0.64775-1.0259-0.50264-2.3052-0.56054-3.4648-0.035-5.6558-0.0351-11.355 0-17.01 0.0632-1.2215-0.10864-2.5772 0.59179-3.6524 0.6025-0.62665 1.5562-0.63986 2.3594-0.77344 2.7374-0.10739 5.4808-0.0704 8.2266-0.0918 0.46403-2.9e-4 0.92855-2e-3 1.3926-2e-3z" color="#000000" fill="url(#linearGradient1688-4)"/>
</svg>
