<svg width="32" height="32" version="1" xmlns="http://www.w3.org/2000/svg" xmlns:xlink="http://www.w3.org/1999/xlink">
 <defs>
  <linearGradient id="linearGradient1688-4" x1="322" x2="350" y1="148" y2="148" gradientTransform="rotate(90 242 -78)" gradientUnits="userSpaceOnUse">
   <stop stop-color="#fff" offset="0"/>
   <stop stop-color="#fff" stop-opacity=".098039" offset=".125"/>
   <stop stop-color="#fff" stop-opacity=".098039" offset=".925"/>
   <stop stop-color="#fff" stop-opacity=".49804" offset="1"/>
  </linearGradient>
 </defs>
 <path d="m9.3009 2c-1.6395 0-2.9408 0.0308-4.045 0.19141-1.1042 0.16064-2.067 0.4726-2.7831 1.0918s-1.0805 1.4561-1.2642 2.4141c-0.18374 0.95795-0.21537 2.087-0.20733 3.5117v7.791 7.7969c-9e-3 1.4213 0.0239 2.5495 0.20733 3.5058 0.18371 0.95796 0.5481 1.7949 1.2642 2.4141s1.6789 0.93115 2.7831 1.0918c1.1042 0.16065 2.4056 0.19141 4.045 0.19141h13.402c1.6395 0 2.9384-0.0307 4.0405-0.19141 1.1022-0.16075 2.0627-0.47425 2.7763-1.0938 0.71357-0.6195 1.0746-1.4536 1.2597-2.4102 0.18515-0.95653 0.22086-2.084 0.22086-3.5078v-7.7969-7.7969c0-1.4238-0.0358-2.5513-0.22086-3.5078-0.18512-0.95653-0.54612-1.7906-1.2597-2.4102-0.71359-0.61951-1.6741-0.933-2.7763-1.0938-1.1022-0.16076-2.401-0.19141-4.0405-0.19141z" color="#000000" color-rendering="auto" dominant-baseline="auto" image-rendering="auto" opacity=".1" shape-rendering="auto" solid-color="#000000" style="font-feature-settings:normal;font-variant-alternates:normal;font-variant-caps:normal;font-variant-ligatures:normal;font-variant-numeric:normal;font-variant-position:normal;isolation:auto;mix-blend-mode:normal;shape-padding:0;text-decoration-color:#000000;text-decoration-line:none;text-decoration-style:solid;text-indent:0;text-orientation:mixed;text-transform:none;white-space:normal"/>
 <path d="m9.1271 1.5c-6.4516 0-7.6603 0.58409-7.6264 6.2823v8.2177 8.2178c-0.034 5.6982 1.1748 6.2823 7.6264 6.2823h13.747c6.45 0 7.6264-0.58403 7.6264-6.2823v-8.2178-8.2177c0-5.6982-1.1764-6.2823-7.6264-6.2823z" color="#000000" fill="#eab305"/>
 <path d="m13.871 7.9996c-0.416 4e-3 -0.82001 0.0454-1.178 0.1328-2.7152 0.66432-5.464 1.9182-6.8572 4.7974-2.135 4.6752-0.0386 10.204 4.6741 12.322 2.605 1.148 5.071 1.039 7.1191-0.77502 0.60301-0.54502 1.096-1.167 1.291-2.0631 0.38801-1.7821-0.558-4.2972-4.371-6.0122-3.589-1.6131-4.266-4.0032-3.756-5.5604 0.51401-1.5711 2.408-2.9904 5.35-2.3907 0.314 0.0657 0.625 0.15071 0.93101 0.25191-0.58901-0.39271-1.954-0.71422-3.203-0.70292zm5.129 0a2 2.0001 0 0 0-2 2.0001 2 2.0001 0 0 0 2 2.0001 2 2.0001 0 0 0 2-2.0001 2 2.0001 0 0 0-2-2.0001zm4 3.0001a2 2.0001 0 0 0-2 2.0001 2 2.0001 0 0 0 2 2.0001 2 2.0001 0 0 0 2-2.0001 2 2.0001 0 0 0-2-2.0001zm2 5.0002a2 2.0001 0 0 0-2 2.0001 2 2.0001 0 0 0 2 2.0001 2 2.0001 0 0 0 2-2.0001 2 2.0001 0 0 0-2-2.0001z" enable-background="new" opacity=".2"/>
 <g transform="matrix(-.062787 0 0 -.062292 23.766 25.083)" enable-background="new" fill="#fff">
  <path transform="matrix(-15.927,0,0,-16.054,378.52,402.66)" d="m13.871 7c-0.416 0.0038-0.82 0.0454-1.178 0.1328-2.7152 0.6643-5.464 1.9181-6.8571 4.7972-2.135 4.675-0.0386 10.204 4.6741 12.322 2.605 1.148 5.071 1.039 7.119-0.775 0.603-0.545 1.096-1.167 1.291-2.063 0.388-1.782-0.558-4.297-4.371-6.012-3.589-1.613-4.266-4.003-3.756-5.5602 0.514-1.571 2.408-2.9903 5.35-2.3906 0.314 0.0657 0.625 0.1507 0.931 0.2519-0.589-0.3928-1.954-0.7143-3.203-0.703zm5.129 0a2 2 0 0 0-2 2 2 2 0 0 0 2 2 2 2 0 0 0 2-2 2 2 0 0 0-2-2zm4 3a2 2 0 0 0-2 2 2 2 0 0 0 2 2 2 2 0 0 0 2-2 2 2 0 0 0-2-2zm2 5a2 2 0 0 0-2 2 2 2 0 0 0 2 2 2 2 0 0 0 2-2 2 2 0 0 0-2-2z"/>
 </g>
 <path d="m9.1271 1.5c-6.4516 0-7.6603 0.58409-7.6264 6.2823v8.2177 8.2178c-0.034 5.6982 1.1748 6.2823 7.6264 6.2823h13.747c6.45 0 7.6264-0.58403 7.6264-6.2823v-8.2178-8.2177c0-5.6982-1.1764-6.2823-7.6264-6.2823z" color="#000000" fill="none" opacity=".4" stroke="#000"/>
 <path d="m9.127 2c-3.2107 0-5.0326 0.19514-5.9375 0.89844-0.45247 0.35165-0.74178 0.83286-0.93359 1.6172-0.19176 0.78433-0.26386 1.8569-0.25586 3.2637v2e-3 8.2188 8.2188 2e-3c-8e-3 1.4068 0.0641 2.4794 0.25586 3.2637 0.1918 0.78431 0.48112 1.2655 0.93359 1.6172 0.90496 0.7033 2.7268 0.89844 5.9375 0.89844h13.746c3.2099 0 5.0246-0.19551 5.9258-0.89844 0.45058-0.35146 0.73805-0.83201 0.93164-1.6172 0.19363-0.7853 0.26953-1.8603 0.26953-3.2677v-8.2168-8.2168c0-1.4074-0.0759-2.4824-0.26953-3.2676-0.19359-0.78517-0.48106-1.2657-0.93164-1.6172-0.90117-0.70293-2.7159-0.89844-5.9258-0.89844zm6.498 1.0469c3.4565 0.0171 6.9142-0.0268 10.361 0.0918 0.8211 0.13276 1.8066 0.14835 2.3906 0.82617 0.67884 1.1647 0.51296 2.5878 0.56446 3.873 0.0431 6.0289 0.0678 12.067-0.0332 18.088-0.0775 0.77792-0.12055 1.6726-0.67968 2.2754-0.70249 0.51038-1.6183 0.59683-2.459 0.67383-4.0474 0.0864-8.1622 0.0456-12.24 0.0606-2.4519-0.0199-4.914 0.0317-7.3535-0.0606-0.87784-0.12055-1.915-0.14021-2.5606-0.83398-0.64775-1.0259-0.50264-2.3052-0.56054-3.4648-0.035-5.6558-0.0351-11.355 0-17.01 0.0632-1.2215-0.10864-2.5772 0.59179-3.6524 0.6025-0.62665 1.5562-0.63986 2.3594-0.77344 2.7374-0.10739 5.4808-0.0704 8.2266-0.0918 0.46403-2.9e-4 0.92855-2e-3 1.3926-2e-3z" color="#000000" fill="url(#linearGradient1688-4)"/>
</svg>
