<svg width="32" height="32" version="1" xmlns="http://www.w3.org/2000/svg" xmlns:xlink="http://www.w3.org/1999/xlink">
 <defs>
  <linearGradient id="linearGradient8588-0" x1="13.735" x2="38.1" y1="249.69" y2="292.77" gradientTransform="matrix(.60892 0 0 .60892 .85556 -149.71)" gradientUnits="userSpaceOnUse">
   <stop stop-color="#eab305" offset="0"/>
   <stop stop-color="#ffda64" offset="1"/>
  </linearGradient>
  <linearGradient id="linearGradient1091" x1="67.053" x2="87.053" y1="19.632" y2="19.632" gradientTransform="matrix(.87504 0 0 .87504 -50.674 -.4284)" gradientUnits="userSpaceOnUse" xlink:href="#linearGradient898"/>
  <linearGradient id="linearGradient898">
   <stop stop-color="#111" offset="0"/>
   <stop stop-color="#4d4d4d" offset="1"/>
  </linearGradient>
  <linearGradient id="linearGradient1093" x1="67.053" x2="87.053" y1="19.632" y2="19.632" gradientTransform="matrix(.87504 0 0 .87504 -52.175 -.4284)" gradientUnits="userSpaceOnUse" xlink:href="#linearGradient898"/>
  <linearGradient id="linearGradient1095" x1="67.053" x2="87.053" y1="19.632" y2="19.632" gradientTransform="matrix(.8 0 0 .8 -45.642 .29448)" gradientUnits="userSpaceOnUse" xlink:href="#linearGradient898"/>
  <linearGradient id="linearGradient8590-3" x1="96" x2="96" y1="4" y2="188" gradientTransform="matrix(.15217 0 0 .15217 1.3913 1.3913)" gradientUnits="userSpaceOnUse">
   <stop stop-color="#fff" offset="0"/>
   <stop stop-color="#fff" stop-opacity=".098039" offset=".125"/>
   <stop stop-color="#fff" stop-opacity=".098039" offset=".925"/>
   <stop stop-color="#fff" stop-opacity=".49804" offset="1"/>
  </linearGradient>
 </defs>
 <circle transform="scale(-1)" cx="-16" cy="-17" r="15" enable-background="new" opacity=".1"/>
 <circle cx="16" cy="16" r="14.5" enable-background="new" fill="url(#linearGradient8588-0)"/>
 <path d="m1.4055 17.333a14.667 14.667 0 0 0 14.594 13.333 14.667 14.667 0 0 0 14.6-13.333z" enable-background="new" fill="#fff" opacity=".1"/>
 <circle cx="16" cy="16" r="14.5" enable-background="new" fill="none" opacity=".4" stroke="#000" stroke-dashoffset="6.6" stroke-linejoin="round"/>
 <circle cx="10.5" cy="11.5" r="2.5" enable-background="new" fill="#fff" opacity=".2" stroke-width=".87504"/>
 <circle cx="21.5" cy="11.5" r="2.5" enable-background="new" fill="#fff" opacity=".2" stroke-width=".87504"/>
 <path d="m9.9128 20.779a7.0358 8.4432 0 0 0 6.0875 4.2214 7.0358 8.4432 0 0 0 6.0821-4.2214h-0.85472a7.0358 8.4432 0 0 1-5.2274 2.8143 7.0358 8.4432 0 0 1-5.2301-2.8143z" enable-background="new" fill="#fff" opacity=".2" stroke-width=".8"/>
 <circle cx="10.5" cy="10.5" r="2.5" enable-background="new" fill="url(#linearGradient1091)" stroke-width=".87504"/>
 <circle cx="21.5" cy="10.5" r="2.5" enable-background="new" fill="url(#linearGradient1093)" stroke-width=".87504"/>
 <path d="m9.9128 19.778a7.0358 8.4432 0 0 0 6.0875 4.2214 7.0358 8.4432 0 0 0 6.0821-4.2214h-0.85472a7.0358 8.4432 0 0 1-5.2274 2.8143 7.0358 8.4432 0 0 1-5.2301-2.8143z" enable-background="new" fill="url(#linearGradient1095)" stroke-width=".8"/>
 <path d="m16 2c-7.732 0-14 6.268-14 14s6.268 14 14 14c7.732 0 14-6.268 14-14s-6.268-14-14-14zm0 1a13 13 0 0 1 13 13 13 13 0 0 1-13 13 13 13 0 0 1-13-13 13 13 0 0 1 13-13z" enable-background="new" fill="url(#linearGradient8590-3)"/>
</svg>
