<svg width="32" height="32" version="1" xmlns="http://www.w3.org/2000/svg" xmlns:xlink="http://www.w3.org/1999/xlink">
 <defs>
  <linearGradient id="linearGradient3257" x1="330.08" x2="341.93" y1="133.5" y2="162.5" gradientTransform="translate(-320,-132)" gradientUnits="userSpaceOnUse">
   <stop stop-color="#5884f4" offset="0"/>
   <stop stop-color="#80a3fa" offset="1"/>
  </linearGradient>
  <linearGradient id="linearGradient1004-8" x1="344" x2="344" y1="62" y2="106" gradientUnits="userSpaceOnUse">
   <stop stop-color="#fff" offset="0"/>
   <stop stop-color="#fff" stop-opacity=".098039" offset=".125"/>
   <stop stop-color="#fff" stop-opacity=".098039" offset=".925"/>
   <stop stop-color="#fff" stop-opacity=".49804" offset="1"/>
  </linearGradient>
  <clipPath id="clipPath994-1">
   <path d="m335.73 62c-8.8242 0-9.7736 0.90635-9.7304 9.7484v12.252 12.252c-0.0433 8.842 0.90622 9.7484 9.7304 9.7484h16.539c8.8242 0 9.7304-0.90625 9.7304-9.7484v-12.252-12.252c0-8.8421-0.90622-9.7484-9.7304-9.7484z" color="#000000" fill="#cdcdcd"/>
  </clipPath>
 </defs>
 <path d="m10.193 2c-1.421 0-2.5488 0.0308-3.5059 0.19141-0.95703 0.16064-1.7915 0.4726-2.4121 1.0918s-0.93647 1.4561-1.0957 2.4141c-0.15924 0.95795-0.18666 2.087-0.17969 3.5117v7.791 7.7969c-7e-3 1.4213 0.0207 2.5495 0.17969 3.5058 0.15923 0.95796 0.47505 1.7949 1.0957 2.4141s1.4551 0.93115 2.4121 1.0918c0.95703 0.16065 2.0849 0.19141 3.5059 0.19141h11.615c1.421 0 2.5467-0.0307 3.502-0.19141 0.95527-0.16075 1.7878-0.47425 2.4062-1.0938 0.61845-0.6195 0.93134-1.4536 1.0918-2.4102 0.16046-0.95653 0.19141-2.084 0.19141-3.5078v-7.7969-7.7969c0-1.4238-0.031-2.5513-0.19141-3.5078-0.16045-0.95653-0.47334-1.7906-1.0918-2.4102-0.61846-0.61951-1.451-0.933-2.4062-1.0938-0.95527-0.16076-2.081-0.19141-3.502-0.19141z" color="#000000" color-rendering="auto" dominant-baseline="auto" image-rendering="auto" opacity=".1" shape-rendering="auto" solid-color="#000000" style="font-feature-settings:normal;font-variant-alternates:normal;font-variant-caps:normal;font-variant-ligatures:normal;font-variant-numeric:normal;font-variant-position:normal;isolation:auto;mix-blend-mode:normal;shape-padding:0;text-decoration-color:#000000;text-decoration-line:none;text-decoration-style:solid;text-indent:0;text-orientation:mixed;text-transform:none;white-space:normal"/>
 <path d="m10.075 1.5c-5.5618 0-6.6037 0.58409-6.5745 6.2823v8.2176 8.2178c-0.0293 5.6982 1.0127 6.2823 6.5745 6.2823h11.85c5.5604 0 6.5745-0.58403 6.5745-6.2823v-8.2178-8.2176c0-5.6982-1.0141-6.2823-6.5745-6.2823z" color="#000000" fill="url(#linearGradient3257)"/>
 <path d="m25 1.6504v7.8496h3.5v-1.7168c0-4.4162-0.63758-5.7514-3.5-6.1328z" color="#000000" fill="#f22c42"/>
 <path d="m25 9v7h3.5v-7z" color="#000000" fill="#76c22b"/>
 <path d="m25 21.5v8.8496c2.8624-0.38141 3.5-1.7166 3.5-6.1328v-2.7168z" color="#000000" fill="#f1f0e9"/>
 <path d="m25 16v7h3.5v-7z" color="#000000" fill="#fdc92b"/>
 <path d="m25.5 29v-26" enable-background="new" fill="none" opacity=".1" stroke="#000" stroke-width="1px"/>
 <g transform="matrix(.36158 0 0 .36158 -24.43 -26.783)" enable-background="new" fill="#5884f4" aria-label="@">
  <path d="m115.28 129.11q-1.28 0-2.12-0.36t-1.4-0.96q-0.88 0.48-2.12 0.84-1.24 0.32-2.48 0.32-1.92 0-3.52-0.6-1.56-0.6-2.72-1.76-1.16-1.2-1.8-2.92t-0.64-4q0-1.92 0.6-3.6 0.6-1.72 1.76-2.96 1.2-1.28 2.88-2 1.72-0.72 3.88-0.72 2.04 0 3.72 0.32 1.72 0.32 2.64 0.64v12.24q0 1.28 0.44 1.8t1.16 0.52q1.04 0 1.8-0.72 0.8-0.72 1.28-1.88 0.52-1.16 0.76-2.6 0.24-1.48 0.24-3 0-2.52-0.88-4.72-0.88-2.24-2.52-3.92t-4-2.64q-2.32-0.96-5.24-0.96t-5.36 1q-2.44 0.96-4.2 2.8-1.76 1.8-2.76 4.44-0.96 2.64-0.96 6 0 3.52 1.04 6.2 1.04 2.64 2.88 4.44 1.88 1.76 4.4 2.64 2.56 0.92 5.6 0.92 2.36 0 3.88-0.28 1.56-0.28 2-0.44l0.4 2.96q-0.68 0.24-2.48 0.52-1.76 0.28-3.8 0.28-3.56 0-6.72-1.04-3.16-1-5.52-3.12-2.36-2.08-3.76-5.32-1.36-3.28-1.36-7.76 0-4.32 1.36-7.56t3.64-5.36q2.32-2.16 5.32-3.24 3.04-1.08 6.4-1.08 3.28 0 6.2 1.08 2.92 1.04 5.12 3.08 2.2 2 3.48 4.88 1.28 2.84 1.28 6.44 0 2.72-0.64 4.8-0.6 2.08-1.64 3.52-1.04 1.4-2.48 2.12t-3.04 0.72zm-8-3.24q0.84 0 1.68-0.16 0.88-0.2 1.56-0.56-0.12-0.52-0.16-1.04t-0.04-1v-9.4q-0.24-0.08-0.92-0.16t-1.52-0.08q-2.84 0-4.24 1.76t-1.4 4.44q0 2.84 1.36 4.52t3.68 1.68z" fill="#5884f4"/>
 </g>
 <g transform="matrix(.36158 0 0 .36158 -24.43 -27.783)" enable-background="new" fill="#fff" aria-label="@">
  <path d="m115.28 129.11q-1.28 0-2.12-0.36t-1.4-0.96q-0.88 0.48-2.12 0.84-1.24 0.32-2.48 0.32-1.92 0-3.52-0.6-1.56-0.6-2.72-1.76-1.16-1.2-1.8-2.92t-0.64-4q0-1.92 0.6-3.6 0.6-1.72 1.76-2.96 1.2-1.28 2.88-2 1.72-0.72 3.88-0.72 2.04 0 3.72 0.32 1.72 0.32 2.64 0.64v12.24q0 1.28 0.44 1.8t1.16 0.52q1.04 0 1.8-0.72 0.8-0.72 1.28-1.88 0.52-1.16 0.76-2.6 0.24-1.48 0.24-3 0-2.52-0.88-4.72-0.88-2.24-2.52-3.92t-4-2.64q-2.32-0.96-5.24-0.96t-5.36 1q-2.44 0.96-4.2 2.8-1.76 1.8-2.76 4.44-0.96 2.64-0.96 6 0 3.52 1.04 6.2 1.04 2.64 2.88 4.44 1.88 1.76 4.4 2.64 2.56 0.92 5.6 0.92 2.36 0 3.88-0.28 1.56-0.28 2-0.44l0.4 2.96q-0.68 0.24-2.48 0.52-1.76 0.28-3.8 0.28-3.56 0-6.72-1.04-3.16-1-5.52-3.12-2.36-2.08-3.76-5.32-1.36-3.28-1.36-7.76 0-4.32 1.36-7.56t3.64-5.36q2.32-2.16 5.32-3.24 3.04-1.08 6.4-1.08 3.28 0 6.2 1.08 2.92 1.04 5.12 3.08 2.2 2 3.48 4.88 1.28 2.84 1.28 6.44 0 2.72-0.64 4.8-0.6 2.08-1.64 3.52-1.04 1.4-2.48 2.12t-3.04 0.72zm-8-3.24q0.84 0 1.68-0.16 0.88-0.2 1.56-0.56-0.12-0.52-0.16-1.04t-0.04-1v-9.4q-0.24-0.08-0.92-0.16t-1.52-0.08q-2.84 0-4.24 1.76t-1.4 4.44q0 2.84 1.36 4.52t3.68 1.68z" fill="#fff"/>
 </g>
 <path d="m10.075 1.5c-5.5618 0-6.6037 0.58409-6.5745 6.2823v8.2176 8.2178c-0.0293 5.6982 1.0127 6.2823 6.5745 6.2823h11.85c5.5604 0 6.5745-0.58403 6.5745-6.2823v-8.2178-8.2176c0-5.6982-1.0141-6.2823-6.5745-6.2823z" color="#000000" fill="none" opacity=".4" stroke="#000"/>
 <path transform="matrix(.66664 0 0 .63636 -213.32 -37.455)" d="m335.73 62c-8.8242 0-9.7736 0.90635-9.7304 9.7484v12.252 12.252c-0.0433 8.842 0.90622 9.7484 9.7304 9.7484h16.539c8.8242 0 9.7304-0.90625 9.7304-9.7484v-12.252-12.252c0-8.8421-0.90622-9.7484-9.7304-9.7484z" clip-path="url(#clipPath994-1)" color="#000000" fill="none" opacity=".7" stroke="url(#linearGradient1004-8)" stroke-width="3.0707"/>
</svg>
