<svg width="32" height="32" version="1" xmlns="http://www.w3.org/2000/svg">
 <rect transform="matrix(0,-1,-1,0,0,0)" x="-32" y="-31" width="30" height="30" rx="15" ry="15" enable-background="new" opacity=".2"/>
 <rect transform="matrix(0,-1,-1,0,0,0)" x="-31" y="-31" width="30" height="30" rx="15" ry="15" enable-background="new" fill="#5d5d5d"/>
 <rect transform="rotate(90)" x="4.5859" y="-27.461" width="22.942" height="22.942" color="#000000" fill="none"/>
 <path d="m16.08 4.7422-1.9688 0.29297v1.9414a9.305 9.288 43.146 0 1 1.9688-0.18359zm-5.918 1.4375-2.875 2.4434 1.416 1.6894a9.305 9.288 43.146 0 1 2.8945-2.4238zm-4.9902 6.0644-0.63282 3.7207 2.1738 0.38282a9.305 9.288 43.146 0 1 0.65234-3.7168zm2.0117 6.7344-1.9375 1.1191h-2e-3l1.9102 3.2578 1.918-1.1074a9.305 9.288 43.146 0 1-1.8887-3.2695zm3.9336 4.9824-0.76563 2.1074 3.5547 1.2676 0.75391-2.0723a9.305 9.288 43.146 0 1-3.3027-1.1484 9.305 9.288 43.146 0 1-0.24023-0.15429z" color="#000000" fill="#faf8f6"/>
 <path d="m16.01 5.8789a10.037 10.037 0 0 0-10.037 10.037 10.037 10.037 0 0 0 10.037 10.037 10.037 10.037 0 0 0 0.0703-2e-3v-20.068a10.037 10.037 0 0 0-0.0703-4e-3z" enable-background="new" fill="#faf8f6"/>
</svg>
