<svg width="32" height="32" version="1" xmlns="http://www.w3.org/2000/svg" xmlns:xlink="http://www.w3.org/1999/xlink">
 <defs>
  <linearGradient id="linearGradient1688" x1="321.5" x2="350.5" y1="148" y2="148" gradientTransform="rotate(90 242 -78)" gradientUnits="userSpaceOnUse">
   <stop stop-color="#2f5fdd" offset="0"/>
   <stop stop-color="#5884f4" offset="1"/>
  </linearGradient>
  <linearGradient id="linearGradient1004-8" x1="344" x2="344" y1="62" y2="106" gradientUnits="userSpaceOnUse">
   <stop stop-color="#fff" offset="0"/>
   <stop stop-color="#fff" stop-opacity=".098039" offset=".125"/>
   <stop stop-color="#fff" stop-opacity=".098039" offset=".925"/>
   <stop stop-color="#fff" stop-opacity=".49804" offset="1"/>
  </linearGradient>
  <clipPath id="clipPath994-1">
   <path d="m335.73 62c-8.8242 0-9.7736 0.90635-9.7304 9.7484v12.252 12.252c-0.0433 8.842 0.90622 9.7484 9.7304 9.7484h16.539c8.8242 0 9.7304-0.90625 9.7304-9.7484v-12.252-12.252c0-8.8421-0.90622-9.7484-9.7304-9.7484z" color="#000000" fill="#cdcdcd"/>
  </clipPath>
 </defs>
 <path d="m9.0775 2c-1.6942 0-3.0389 0.0308-4.1799 0.19141-1.141 0.16064-2.1359 0.4726-2.8759 1.0918s-1.1165 1.4561-1.3064 2.4141c-0.18986 0.95795-0.22255 2.087-0.21424 3.5117v7.791 7.7969c-9e-3 1.4213 0.0247 2.5495 0.21424 3.5058 0.18984 0.95796 0.56638 1.7949 1.3064 2.4141s1.7348 0.93115 2.8759 1.0918c1.141 0.16065 2.4858 0.19141 4.1799 0.19141h13.848c1.6942 0 3.0363-0.0307 4.1752-0.19141 1.1389-0.16075 2.1315-0.47425 2.8689-1.0938 0.73736-0.6195 1.1104-1.4536 1.3017-2.4102 0.19132-0.95653 0.22822-2.084 0.22822-3.5078v-7.7969-7.7969c0-1.4238-0.037-2.5513-0.22822-3.5078-0.19129-0.95653-0.56433-1.7906-1.3017-2.4102-0.73737-0.61951-1.73-0.933-2.8689-1.0938-1.1389-0.16076-2.4811-0.19141-4.1752-0.19141z" color="#000000" color-rendering="auto" dominant-baseline="auto" image-rendering="auto" opacity=".1" shape-rendering="auto" solid-color="#000000" style="font-feature-settings:normal;font-variant-alternates:normal;font-variant-caps:normal;font-variant-ligatures:normal;font-variant-numeric:normal;font-variant-position:normal;isolation:auto;mix-blend-mode:normal;shape-padding:0;text-decoration-color:#000000;text-decoration-line:none;text-decoration-style:solid;text-indent:0;text-orientation:mixed;text-transform:none;white-space:normal"/>
 <path d="m9.1271 1.5c-6.4516 0-7.6603 0.58409-7.6264 6.2823v8.2177 8.2178c-0.034 5.6982 1.1748 6.2823 7.6264 6.2823h13.747c6.45 0 7.6264-0.58403 7.6264-6.2823v-8.2178-8.2177c0-5.6982-1.1764-6.2823-7.6264-6.2823z" color="#000000" fill="url(#linearGradient1688)"/>
 <path d="m15.998 8.002c-1.1046 0-2 0.89543-2 2 0 1.1046 0.89543 2 2 2 1.1046 0 2-0.89543 2-2 0-1.1046-0.89542-2-2-2zm-6.998 4.9979v1l2.2378 4e-3c0.52118-1e-5 0.96402 0.0752 1.3286 0.23486 0.35813 0.14879 0.65187 0.3682 0.86767 0.65527 0.22113 0.27541 0.37468 0.60682 0.46094 0.98632 0.0868 0.38212 0.0994 0.78566 0.12597 1.2124l4.9e-4 6e-3 -9e-3 6.9033h0.98584v-4.0022c0-0.55229 0.44771-1 0.99999-1s1 0.44771 1 1v4.0022h0.99999l9e-3 -6.8974c1e-3 -0.44248 0.0421-0.85073 0.12695-1.2241 0.0864-0.38013 0.2402-0.7121 0.46192-0.98778 0.21581-0.28643 0.50945-0.50577 0.86718-0.6543 0.36441-0.15939 0.88033-0.23437 1.3276-0.23437l2.209-2e-3v-1.002z" enable-background="new" fill="#faf8f6"/>
 <path d="m9.1271 1.5c-6.4516 0-7.6603 0.58409-7.6264 6.2823v8.2177 8.2178c-0.034 5.6982 1.1748 6.2823 7.6264 6.2823h13.747c6.45 0 7.6264-0.58403 7.6264-6.2823v-8.2178-8.2177c0-5.6982-1.1764-6.2823-7.6264-6.2823z" color="#000000" fill="none" opacity=".4" stroke="#000"/>
 <path transform="matrix(.7733 0 0 .63636 -250.02 -37.455)" d="m335.73 62c-8.8242 0-9.7736 0.90635-9.7304 9.7484v12.252 12.252c-0.0433 8.842 0.90622 9.7484 9.7304 9.7484h16.539c8.8242 0 9.7304-0.90625 9.7304-9.7484v-12.252-12.252c0-8.8421-0.90622-9.7484-9.7304-9.7484z" clip-path="url(#clipPath994-1)" color="#000000" fill="none" opacity=".7" stroke="url(#linearGradient1004-8)" stroke-width="2.851"/>
</svg>
