<svg width="32" height="32" version="1" xmlns="http://www.w3.org/2000/svg" xmlns:xlink="http://www.w3.org/1999/xlink">
 <defs>
  <linearGradient id="linearGradient16511" x1="321.5" x2="350" y1="142.07" y2="153.51" gradientTransform="rotate(180 176 82)" gradientUnits="userSpaceOnUse">
   <stop stop-color="#fb7c38" offset="0"/>
   <stop stop-color="#9b33ae" offset="1"/>
  </linearGradient>
  <linearGradient id="linearGradient1004-8" x1="344" x2="344" y1="65.144" y2="102.86" gradientTransform="matrix(0 -1.0476 .95458 0 263.82 444.37)" gradientUnits="userSpaceOnUse">
   <stop stop-color="#fff" offset="0"/>
   <stop stop-color="#fff" stop-opacity=".098039" offset=".125"/>
   <stop stop-color="#fff" stop-opacity=".098039" offset=".925"/>
   <stop stop-color="#fff" stop-opacity=".49804" offset="1"/>
  </linearGradient>
  <clipPath id="clipPath994-1">
   <path d="m335.73 62c-8.8242 0-9.7736 0.90635-9.7304 9.7484v12.252 12.252c-0.0433 8.842 0.90622 9.7484 9.7304 9.7484h16.539c8.8242 0 9.7304-0.90625 9.7304-9.7484v-12.252-12.252c0-8.8421-0.90622-9.7484-9.7304-9.7484z" color="#000000" fill="#cdcdcd"/>
  </clipPath>
 </defs>
 <path d="m31 11.194c0-1.421-0.0308-2.5488-0.19141-3.5059-0.16064-0.95703-0.4726-1.7915-1.0918-2.4121s-1.4561-0.93647-2.4141-1.0957c-0.95795-0.15924-2.087-0.18666-3.5117-0.17969h-7.791-7.7969c-1.4213-7e-3 -2.5495 0.0207-3.5058 0.17969-0.95796 0.15923-1.7949 0.47505-2.4141 1.0957s-0.93115 1.4551-1.0918 2.4121c-0.16065 0.95703-0.19141 2.0849-0.19141 3.5059v11.615c0 1.421 0.0307 2.5467 0.19141 3.502 0.16075 0.95527 0.47425 1.7878 1.0938 2.4062 0.6195 0.61845 1.4536 0.93134 2.4102 1.0918 0.95653 0.16046 2.084 0.19141 3.5078 0.19141h7.7969 7.7969c1.4238 0 2.5513-0.031 3.5078-0.19141 0.95653-0.16045 1.7906-0.47334 2.4102-1.0918 0.61951-0.61846 0.933-1.451 1.0938-2.4062 0.16076-0.95527 0.19141-2.081 0.19141-3.502z" color="#000000" color-rendering="auto" dominant-baseline="auto" image-rendering="auto" opacity=".1" shape-rendering="auto" solid-color="#000000" style="font-feature-settings:normal;font-variant-alternates:normal;font-variant-caps:normal;font-variant-ligatures:normal;font-variant-numeric:normal;font-variant-position:normal;isolation:auto;mix-blend-mode:normal;shape-padding:0;text-decoration-color:#000000;text-decoration-line:none;text-decoration-style:solid;text-indent:0;text-orientation:mixed;text-transform:none;white-space:normal"/>
 <path d="m1.5004 21.925c0 5.5618 0.58409 6.6037 6.2823 6.5745h8.2177 8.2178c5.6982 0.0293 6.2823-1.0127 6.2823-6.5745v-11.85c0-5.5604-0.58403-6.5745-6.2823-6.5745h-8.2178-8.2177c-5.6982 0-6.2823 1.0141-6.2823 6.5745z" color="#000000" fill="url(#linearGradient16511)"/>
 <path d="m7.3684 3.5c-1.1972 1e-3 -2.1505 0.0325-2.9299 0.18067-0.79432 0.151-1.4419 0.43373-1.9174 0.97169-0.47566 0.53815-0.72611 1.2729-0.85958 2.1717-0.0475 0.31993-0.078 0.6755-0.10232 1.0498-0.0438 0.67605-0.0593 1.4374-0.0593 2.3316v11.587c0 1.3893 0.0283 2.4842 0.16156 3.3838 0.13344 0.9007 0.38327 1.6355 0.85851 2.1753 0.47535 0.53995 1.1244 0.82436 1.9195 0.97414 0.79371 0.14951 1.7608 0.18013 2.9892 0.17334l0.57125 6.2e-4v-25z" enable-background="new" opacity=".3"/>
 <path d="m17.875 4v4.8125 0.1875 0.0996c0 6.6183 0.30539 7.0578 6.9375 7.0254h5.1875v-10.553c-0.30477-0.74885-0.78017-1.2592-1.5527-1.5723z" color="#000000" opacity=".3"/>
 <path d="m18.5 3.5 12 12v-5.4258c0-4.4804-0.38324-6.0069-3.5117-6.4316-0.198 0.0611-0.36844 0.0959-0.48633 0.0762-1.0724-0.1799-2.2193-0.21875-4.0625-0.21875z" color="#000000" fill="#5d5d5d"/>
 <path d="m30.5 15.125-11.625-11.626v4.3125 0.18751 0.10071c0 6.6183 0.30495 7.0576 6.9371 7.0251z" color="#000000" fill="#faf8f6"/>
 <path d="m18.5 3.5 12 12v-5.4258c0-4.4804-0.38324-6.0069-3.5117-6.4316-0.198 0.0611-0.36844 0.0959-0.48633 0.0762-1.0724-0.1799-2.2193-0.21875-4.0625-0.21875z" color="#000000" fill="#5d5d5d"/>
 <path d="m30.5 10.075c0-5.5618-0.58409-6.6037-6.2823-6.5745h-8.2176-8.2178c-5.6982-0.0293-6.2823 1.0127-6.2823 6.5745v11.85c0 5.5604 0.58403 6.5745 6.2823 6.5745h8.2178 8.2176c5.6982 0 6.2823-1.0141 6.2823-6.5745z" color="#000000" fill="none" opacity=".4" stroke="#000"/>
 <path transform="matrix(0 .66664 -.63636 0 69.455 -213.33)" d="m335.73 62c-8.8242 0-9.7736 0.90635-9.7304 9.7484v12.252 12.252c-0.0433 8.842 0.90622 9.7484 9.7304 9.7484h16.539c8.8242 0 9.7304-0.90625 9.7304-9.7484v-12.252-12.252c0-8.8421-0.90622-9.7484-9.7304-9.7484z" clip-path="url(#clipPath994-1)" color="#000000" fill="none" opacity=".5" stroke="url(#linearGradient1004-8)" stroke-width="3.0707"/>
</svg>
