<svg width="32" height="32" version="1" xmlns="http://www.w3.org/2000/svg" xmlns:xlink="http://www.w3.org/1999/xlink">
 <defs>
  <linearGradient id="linearGradient1004-8" x1="344" x2="344" y1="62" y2="106" gradientUnits="userSpaceOnUse">
   <stop stop-color="#fff" offset="0"/>
   <stop stop-color="#fff" stop-opacity=".098039" offset=".125"/>
   <stop stop-color="#fff" stop-opacity=".098039" offset=".925"/>
   <stop stop-color="#fff" stop-opacity=".49804" offset="1"/>
  </linearGradient>
  <clipPath id="clipPath994-1">
   <path d="m335.73 62c-8.8242 0-9.7736 0.90635-9.7304 9.7484v12.252 12.252c-0.0433 8.842 0.90622 9.7484 9.7304 9.7484h16.539c8.8242 0 9.7304-0.90625 9.7304-9.7484v-12.252-12.252c0-8.8421-0.90622-9.7484-9.7304-9.7484z" color="#000000" fill="#cdcdcd"/>
  </clipPath>
 </defs>
 <path d="m9.0775 2c-1.6942 0-3.0389 0.0308-4.1799 0.19141-1.141 0.16064-2.1359 0.4726-2.8759 1.0918s-1.1165 1.4561-1.3064 2.4141c-0.18986 0.95795-0.22255 2.087-0.21424 3.5117v7.791 7.7969c-9e-3 1.4213 0.0247 2.5495 0.21424 3.5058 0.18984 0.95796 0.56638 1.7949 1.3064 2.4141s1.7348 0.93115 2.8759 1.0918c1.141 0.16065 2.4858 0.19141 4.1799 0.19141h13.848c1.6942 0 3.0363-0.0307 4.1752-0.19141 1.1389-0.16075 2.1315-0.47425 2.8689-1.0938 0.73736-0.6195 1.1104-1.4536 1.3017-2.4102 0.19132-0.95653 0.22822-2.084 0.22822-3.5078v-7.7969-7.7969c0-1.4238-0.037-2.5513-0.22822-3.5078-0.19129-0.95653-0.56433-1.7906-1.3017-2.4102-0.73737-0.61951-1.73-0.933-2.8689-1.0938-1.1389-0.16076-2.4811-0.19141-4.1752-0.19141z" color="#000000" color-rendering="auto" dominant-baseline="auto" image-rendering="auto" opacity=".1" shape-rendering="auto" solid-color="#000000" style="font-feature-settings:normal;font-variant-alternates:normal;font-variant-caps:normal;font-variant-ligatures:normal;font-variant-numeric:normal;font-variant-position:normal;isolation:auto;mix-blend-mode:normal;shape-padding:0;text-decoration-color:#000000;text-decoration-line:none;text-decoration-style:solid;text-indent:0;text-orientation:mixed;text-transform:none;white-space:normal"/>
 <path d="m9.1271 1.5c-6.4516 0-7.6603 0.58409-7.6264 6.2823v8.2176 8.2178c-0.034 5.6982 1.1748 6.2823 7.6264 6.2823h13.747c6.45 0 7.6264-0.58403 7.6264-6.2823v-8.2178-8.2176c0-5.6982-1.1764-6.2823-7.6264-6.2823z" color="#000000" fill="#f7f7f7"/>
 <path d="m12.272 6.9996c-0.51792 0-0.96326 0.0361-1.3362 0.10861-0.36255 0.0725-0.63188 0.15017-0.80798 0.23304l0.13978 0.88565c0.13465-0.0517 0.34699-0.119 0.63702-0.20186 0.29003-0.0828 0.7304-0.12445 1.3208-0.12445 0.41433 0 0.74567 0.0675 0.99426 0.20213 0.25895 0.1243 0.45586 0.29532 0.59052 0.51283 0.14501 0.20717 0.23812 0.4454 0.27955 0.71471 0.0414 0.25897 0.0621 0.52806 0.0621 0.80773v0.49726c-0.0415-0.0207-0.1191-0.0414-0.23304-0.0621-0.10359-0.0311-0.23303-0.057-0.3884-0.0776-0.14501-0.0311-0.30035-0.0517-0.46609-0.0621-0.15537-0.0207-0.30548-0.0312-0.4505-0.0312-0.48683 0-0.9374 0.0465-1.3517 0.13978-0.41433 0.0932-0.77179 0.24357-1.0722 0.45073-0.3004 0.19681-0.5334 0.45049-0.69913 0.76123-0.16574 0.31076-0.24863 0.68366-0.24863 1.1187 0 0.45576 0.0725 0.84435 0.21746 1.1655 0.15537 0.31074 0.36249 0.56963 0.62144 0.7768 0.26932 0.1968 0.58023 0.34169 0.93242 0.4349 0.36254 0.0932 0.7561 0.14003 1.1808 0.14003 0.33145 0 0.65258-0.0157 0.96334-0.0467 0.32111-0.0207 0.61111-0.0518 0.87007-0.0933 0.25895-0.0414 0.48673-0.0774 0.68354-0.1086 0.1968-0.0414 0.34716-0.0777 0.45073-0.10884v-5.0651c0-0.4247-0.0518-0.8185-0.15535-1.181-0.10358-0.36254-0.26938-0.67321-0.49726-0.93216-0.22788-0.26931-0.52834-0.47643-0.90124-0.62145-0.36254-0.15537-0.80788-0.23305-1.3362-0.23305zm5.7563 4.0503v10.993h1.1788l0.36762-0.4745c0.73494 0.4287 1.4698 0.62763 2.2201 0.62763 2.2048 0 3.506-1.6382 3.506-3.8736s-0.90329-3.8125-3.1693-3.8125c-0.87272 0-1.5923 0.21456-2.2201 0.53609v-3.9963zm-5.4456 0.2224c0.43505 0 0.77684 0.0312 1.0254 0.0933 0.24859 0.0517 0.42981 0.10356 0.54375 0.15535v2.8279c-0.20716 0.0414-0.46083 0.0774-0.76121 0.10861-0.29003 0.0207-0.63183 0.0312-1.0254 0.0312-0.32111 0-0.61112-0.0258-0.87008-0.0776-0.24859-0.0622-0.46616-0.15549-0.65262-0.27979-0.17608-0.1243-0.31598-0.28984-0.41957-0.49701-0.0932-0.20717-0.13977-0.46108-0.13977-0.76147 0-0.34182 0.0725-0.6164 0.21745-0.82355 0.14502-0.20717 0.33148-0.36749 0.55936-0.48143 0.22788-0.1243 0.47656-0.20222 0.74588-0.23328 0.26932-0.0415 0.5282-0.0621 0.7768-0.0621zm9.0894 4.769c1.3168 0 1.7456 0.94932 1.7456 2.3885 0 1.4392-0.67365 2.2814-1.9292 2.2814-0.61244 0-1.1331-0.15301-1.5771-0.50516v-3.7512c0.36747-0.1531 1.087-0.41363 1.7607-0.41363zm-9.0545 2.0919c-0.7824 0-1.5025 0.12258-2.1602 0.36761-0.65772 0.24504-1.2251 0.59761-1.7023 1.0576-0.47287 0.46-0.84276 1.0231-1.1093 1.6894-0.26653 0.66632-0.39978 1.4187-0.39978 2.2569 0 0.52446 0.0818 1.0015 0.24516 1.4314 0.16336 0.42988 0.40402 0.79739 0.72214 1.1026 0.31812 0.3052 0.71147 0.54184 1.18 0.7095s1.0104 0.25135 1.6251 0.25135c0.28803 0 0.57825-0.0171 0.87057-0.0514 0.29233-0.0301 0.5759-0.0712 0.85103-0.12271 0.27512-0.0558 0.53522-0.11824 0.78026-0.18702 0.24934-0.0687 0.47505-0.13968 0.67711-0.21276l0.39334-2.0311h-0.41908l-0.46434 1.2961c-0.13327 0.10318-0.29237 0.20205-0.47722 0.29663-0.18485 0.0903-0.38899 0.17183-0.61254 0.24492-0.21923 0.0731-0.45563 0.13117-0.70926 0.17415-0.25364 0.043-0.51374 0.0645-0.78027 0.0645-0.45999 0-0.85333-0.0709-1.18-0.21276-0.32672-0.14186-0.59535-0.33747-0.806-0.5868-0.21065-0.25364-0.36548-0.55477-0.46435-0.90298-0.0946-0.34821-0.142-0.72638-0.142-1.1348 0-0.7566 0.10125-1.4423 0.3033-2.057 0.20204-0.61475 0.48135-1.1392 0.83816-1.5734 0.36111-0.4342 0.78884-0.76731 1.2832-0.99946 0.49437-0.23644 1.034-0.35475 1.6187-0.35475 0.41269 0 0.80818 0.0517 1.1865 0.15485 0.37831 0.0989 0.70052 0.24066 0.96705 0.42552v1.1222h0.41933l0.29019-1.8896c-0.3826-0.086-0.8018-0.16113-1.2575-0.22562-0.45568-0.0687-0.97801-0.10315-1.567-0.10315z" enable-background="new" fill="#fff"/>
 <path d="m12.272 5.9996c-0.51792 0-0.96326 0.0361-1.3362 0.10861-0.36255 0.0725-0.63188 0.15017-0.80798 0.23304l0.13978 0.88565c0.13465-0.0517 0.34699-0.119 0.63702-0.20186 0.29003-0.0828 0.7304-0.12445 1.3208-0.12445 0.41433 0 0.74567 0.0675 0.99426 0.20213 0.25895 0.1243 0.45586 0.29532 0.59052 0.51283 0.14501 0.20717 0.23812 0.4454 0.27955 0.71471 0.0414 0.25897 0.0621 0.52806 0.0621 0.80773v0.49726c-0.0415-0.0207-0.1191-0.0414-0.23304-0.0621-0.10359-0.0311-0.23303-0.057-0.3884-0.0776-0.14501-0.0311-0.30035-0.0517-0.46609-0.0621-0.15537-0.0207-0.30548-0.0312-0.4505-0.0312-0.48683 0-0.9374 0.0465-1.3517 0.13978-0.41433 0.0932-0.77179 0.24357-1.0722 0.45073-0.3004 0.19681-0.5334 0.45049-0.69913 0.76123-0.16574 0.31076-0.24863 0.68366-0.24863 1.1187 0 0.45576 0.0725 0.84435 0.21746 1.1655 0.15537 0.31074 0.36249 0.56963 0.62144 0.7768 0.26932 0.1968 0.58023 0.34169 0.93242 0.4349 0.36254 0.0932 0.7561 0.14003 1.1808 0.14003 0.33145 0 0.65258-0.0157 0.96334-0.0467 0.32111-0.0207 0.61111-0.0518 0.87007-0.0933 0.25895-0.0414 0.48673-0.0774 0.68354-0.1086 0.1968-0.0414 0.34716-0.0777 0.45073-0.10884v-5.0651c0-0.4247-0.0518-0.8185-0.15535-1.181-0.10358-0.36254-0.26938-0.67321-0.49726-0.93216-0.22788-0.26931-0.52834-0.47643-0.90124-0.62145-0.36254-0.15537-0.80788-0.23305-1.3362-0.23305zm5.7563 4.0503v10.993h1.1788l0.36762-0.4745c0.73494 0.4287 1.4698 0.62763 2.2201 0.62763 2.2048 0 3.506-1.6382 3.506-3.8736s-0.90329-3.8125-3.1693-3.8125c-0.87272 0-1.5923 0.21456-2.2201 0.53609v-3.9963zm-5.4456 0.2224c0.43505 0 0.77684 0.0312 1.0254 0.0933 0.24859 0.0517 0.42981 0.10356 0.54375 0.15535v2.8279c-0.20716 0.0414-0.46083 0.0774-0.76121 0.10861-0.29003 0.0207-0.63183 0.0312-1.0254 0.0312-0.32111 0-0.61112-0.0258-0.87008-0.0776-0.24859-0.0622-0.46616-0.15549-0.65262-0.27979-0.17608-0.1243-0.31598-0.28984-0.41957-0.49701-0.0932-0.20717-0.13977-0.46108-0.13977-0.76147 0-0.34182 0.0725-0.6164 0.21745-0.82355 0.14502-0.20717 0.33148-0.36749 0.55936-0.48143 0.22788-0.1243 0.47656-0.20222 0.74588-0.23328 0.26932-0.0415 0.5282-0.0621 0.7768-0.0621zm9.0894 4.769c1.3168 0 1.7456 0.94932 1.7456 2.3885 0 1.4392-0.67365 2.2814-1.9292 2.2814-0.61244 0-1.1331-0.15301-1.5771-0.50516v-3.7512c0.36747-0.1531 1.087-0.41363 1.7607-0.41363zm-9.0545 2.0919c-0.7824 0-1.5025 0.12258-2.1602 0.36761-0.65772 0.24504-1.2251 0.59761-1.7023 1.0576-0.47287 0.46-0.84276 1.0231-1.1093 1.6894-0.26653 0.66632-0.39978 1.4187-0.39978 2.2569 0 0.52446 0.0818 1.0015 0.24516 1.4314 0.16336 0.42988 0.40402 0.79739 0.72214 1.1026 0.31812 0.3052 0.71147 0.54184 1.18 0.7095s1.0104 0.25135 1.6251 0.25135c0.28803 0 0.57825-0.0171 0.87057-0.0514 0.29233-0.0301 0.5759-0.0712 0.85103-0.12271 0.27512-0.0558 0.53522-0.11824 0.78026-0.18702 0.24934-0.0687 0.47505-0.13968 0.67711-0.21276l0.39334-2.0311h-0.41908l-0.46434 1.2961c-0.13327 0.10318-0.29237 0.20205-0.47722 0.29663-0.18485 0.0903-0.38899 0.17183-0.61254 0.24492-0.21923 0.0731-0.45563 0.13117-0.70926 0.17415-0.25364 0.043-0.51374 0.0645-0.78027 0.0645-0.45999 0-0.85333-0.0709-1.18-0.21276-0.32672-0.14186-0.59535-0.33747-0.806-0.5868-0.21065-0.25364-0.36548-0.55477-0.46435-0.90298-0.0946-0.34821-0.142-0.72638-0.142-1.1348 0-0.7566 0.10125-1.4423 0.3033-2.057 0.20204-0.61475 0.48135-1.1392 0.83816-1.5734 0.36111-0.4342 0.78884-0.76731 1.2832-0.99946 0.49437-0.23644 1.034-0.35475 1.6187-0.35475 0.41269 0 0.80818 0.0517 1.1865 0.15485 0.37831 0.0989 0.70052 0.24066 0.96705 0.42552v1.1222h0.41933l0.29019-1.8896c-0.3826-0.086-0.8018-0.16113-1.2575-0.22562-0.45568-0.0687-0.97801-0.10315-1.567-0.10315z" enable-background="new" fill="#5d5d5d"/>
 <path d="m9.1271 1.5c-6.4516 0-7.6603 0.58409-7.6264 6.2823v8.2176 8.2178c-0.034 5.6982 1.1748 6.2823 7.6264 6.2823h13.747c6.45 0 7.6264-0.58403 7.6264-6.2823v-8.2178-8.2176c0-5.6982-1.1764-6.2823-7.6264-6.2823z" color="#000000" fill="none" opacity=".4" stroke="#000"/>
 <path transform="matrix(.7733 0 0 .63636 -250.02 -37.455)" d="m335.73 62c-8.8242 0-9.7736 0.90635-9.7304 9.7484v12.252 12.252c-0.0433 8.842 0.90622 9.7484 9.7304 9.7484h16.539c8.8242 0 9.7304-0.90625 9.7304-9.7484v-12.252-12.252c0-8.8421-0.90622-9.7484-9.7304-9.7484z" clip-path="url(#clipPath994-1)" color="#000000" fill="none" opacity=".7" stroke="url(#linearGradient1004-8)" stroke-width="2.851"/>
</svg>
