<svg width="32" height="32" version="1" xmlns="http://www.w3.org/2000/svg" xmlns:xlink="http://www.w3.org/1999/xlink">
 <defs>
  <linearGradient id="linearGradient1028" x1="297.99" x2="299.4" y1="344.07" y2="141.4" gradientTransform="matrix(.0625 0 0 .0625 -.00053006 .83213)" gradientUnits="userSpaceOnUse" xlink:href="#linearGradient4155"/>
  <linearGradient id="linearGradient4155">
   <stop stop-color="#f3e6d2" stop-opacity=".99608" offset="0"/>
   <stop stop-color="#f7f4ee" offset="1"/>
  </linearGradient>
  <linearGradient id="linearGradient1030" x1="211.4" x2="211.4" y1="344.74" y2="375.68" gradientTransform="matrix(.46321 0 0 .46321 -84.712 -149.71)" gradientUnits="userSpaceOnUse">
   <stop stop-color="#fdfdfb" offset="0"/>
   <stop stop-color="#f0e9df" offset="1"/>
  </linearGradient>
  <linearGradient id="linearGradient1376" x1="72.419" x2="138.57" y1="112.48" y2="112.48" gradientTransform="matrix(.10582 0 0 .10582 -1.1454 .07915)" gradientUnits="userSpaceOnUse" xlink:href="#linearGradient4155"/>
  <linearGradient id="linearGradient1688-4" x1="322" x2="350" y1="148" y2="148" gradientTransform="rotate(90 242 -78)" gradientUnits="userSpaceOnUse">
   <stop stop-color="#fff" offset="0"/>
   <stop stop-color="#fff" stop-opacity=".098039" offset=".125"/>
   <stop stop-color="#fff" stop-opacity=".098039" offset=".925"/>
   <stop stop-color="#fff" stop-opacity=".49804" offset="1"/>
  </linearGradient>
  <linearGradient id="linearGradient1688-3" x1="320" x2="352" y1="164" y2="132" gradientTransform="rotate(90 242 -78)" gradientUnits="userSpaceOnUse">
   <stop stop-color="#948b74" offset="0"/>
   <stop stop-color="#aea795" offset="1"/>
  </linearGradient>
 </defs>
 <path d="m9.3009 2c-1.6395 0-2.9408 0.0308-4.045 0.19141-1.1042 0.16064-2.067 0.4726-2.7831 1.0918s-1.0805 1.4561-1.2642 2.4141c-0.18374 0.95795-0.21537 2.087-0.20733 3.5117v15.588c-9e-3 1.4213 0.0239 2.5495 0.20733 3.5058 0.18371 0.95796 0.5481 1.7949 1.2642 2.4141s1.6789 0.93115 2.7831 1.0918 2.4056 0.19141 4.045 0.19141h13.402c1.6395 0 2.9384-0.0307 4.0405-0.19141 1.1022-0.16075 2.0627-0.47425 2.7763-1.0938 0.71357-0.6195 1.0746-1.4536 1.2597-2.4102 0.18515-0.95653 0.22086-2.084 0.22086-3.5078v-15.594c0-1.4238-0.0358-2.5513-0.22086-3.5078-0.18512-0.95653-0.54612-1.7906-1.2597-2.4102-0.71359-0.61951-1.6741-0.933-2.7763-1.0938-1.1022-0.16076-2.401-0.19141-4.0405-0.19141z" color="#000000" color-rendering="auto" dominant-baseline="auto" image-rendering="auto" opacity=".1" shape-rendering="auto" solid-color="#000000" style="font-feature-settings:normal;font-variant-alternates:normal;font-variant-caps:normal;font-variant-ligatures:normal;font-variant-numeric:normal;font-variant-position:normal;isolation:auto;mix-blend-mode:normal;shape-padding:0;text-decoration-color:#000000;text-decoration-line:none;text-decoration-style:solid;text-indent:0;text-orientation:mixed;text-transform:none;white-space:normal"/>
 <path d="m9.1271 1.5c-6.4516 0-7.6603 0.58409-7.6264 6.2823v16.435c-0.034 5.6982 1.1748 6.2823 7.6264 6.2823h13.747c6.45 0 7.6264-0.58403 7.6264-6.2823v-16.435c0-5.6982-1.1764-6.2823-7.6264-6.2823z" color="#000000" fill="url(#linearGradient1688-3)"/>
 <path d="m8.2905 10.074c-0.89356-0.0114-1.4927 0.20054-1.8008 0.57031-0.32357 0.38518-0.49024 1.0163-0.49024 1.8945v8.6934l4.4141 2.7617 2.7988 1.9766 2.7988-1.9766 9.9883-7.1875v-4.2676c0-0.87821-0.16669-1.5094-0.49022-1.8945-0.30815-0.36977-0.90718-0.57031-1.8008-0.57031h-11.359z" enable-background="new" opacity=".1"/>
 <path d="m15.299 14.812c-1.0084 1.8955-3.002 3.1875-5.2988 3.1875-1.5391 0-2.9379-0.58435-4-1.5371v4.0762c0 0.87821 0.16472 1.5113 0.48828 1.8965 0.30814 0.36977 0.90912 0.55859 1.8027 0.55859h2.123l2.7988 1.9766 2.7988-1.9766h7.6953c0.89362 0 1.4946-0.18882 1.8027-0.55859 0.32354-0.38519 0.49023-1.0183 0.49023-1.8965v-5.7266z" enable-background="new" fill="url(#linearGradient1028)"/>
 <path d="m15.234 9.0742c0.23309 0.41607 0.41564 0.86228 0.54492 1.332 0.0122 0.0441 0.0239 0.0883 0.0352 0.13281 0.0454 0.18101 0.0809 0.36562 0.10938 0.55274 0.01 0.0651 0.0214 0.12951 0.0293 0.19531 0.0278 0.23429 0.0469 0.47112 0.0469 0.71289 0 1.6569-0.67203 3.1564-1.7578 4.2422-1.0859 1.0858-2.5854 1.7578-4.2423 1.7578-0.19913 0-0.39584-0.0102-0.58984-0.0293-0.0806-8e-3 -0.15866-0.0241-0.23828-0.0351-0.11049-0.0154-0.22164-0.0274-0.33008-0.0488-0.10435-0.0204-0.20626-0.0485-0.3086-0.0742-0.0789-0.02-0.15875-0.0374-0.23632-0.0606-0.13827-0.0409-0.27234-0.0902-0.40626-0.14062-0.0271-0.0103-0.0551-0.0187-0.082-0.0293-0.32695-0.12846-0.63758-0.28746-0.93359-0.46875-0.01-6e-3 -0.0195-0.0115-0.0293-0.0176-0.30106-0.18674-0.58325-0.39738-0.8457-0.63281v3.7676l4.4141 2.7637 2.7988 1.9766 2.7988-1.9766 9.9883-7.1875v-4.2676c0-0.87821-0.1667-1.5094-0.49023-1.8945-0.30815-0.36977-0.90912-0.57031-1.8027-0.57031h-1.4902z" enable-background="new" fill="url(#linearGradient1030)"/>
 <path d="m10 7c-2.7614 0-5 2.2386-5 5s2.2386 5 5 5 5-2.2386 5-5-2.2386-5-5-5z" enable-background="new" fill="#f64040" stroke-width="1.4286"/>
 <path d="m9.2553 8.3947h1.4808l-0.0898 1.9745a0.2865 0.2865 0 0 0 0 0.0898 0.2865 0.2865 0 0 0 0 0.0448 0.2865 0.2865 0 0 0 0.1795 0.1795 0.2865 0.2865 0 0 0 0.0448 0 0.2865 0.2865 0 0 0 0.0898 0 0.2865 0.2865 0 0 0 0.0898 0 0.2865 0.2865 0 0 0 0.0448-0.0448l1.6603-1.077 0.71799 1.3013-1.7501 0.89748a0.2865 0.2865 0 0 0-0.0448 0 0.2865 0.2865 0 0 0-0.0448 0.0448 0.2865 0.2865 0 0 0-0.0448 0.13455 0.2865 0.2865 0 0 0 0 0.0898 0.2865 0.2865 0 0 0 0 0.0448 0.2865 0.2865 0 0 0 0.0448 0.0898 0.2865 0.2865 0 0 0 0.0448 0.0448 0.2865 0.2865 0 0 0 0.0448 0.0448l1.7949 0.89747-0.76286 1.3013-1.6603-1.1215a0.2865 0.2865 0 0 0-0.0448 0 0.2865 0.2865 0 0 0-0.0898-0.0448 0.2865 0.2865 0 0 0-0.0898 0 0.2865 0.2865 0 0 0-0.1795 0.13457 0.2865 0.2865 0 0 0-0.0448 0.0448 0.2865 0.2865 0 0 0 0 0.0448 0.2865 0.2865 0 0 0 0 0.0898l0.0898 1.9746h-1.4808l0.13457-1.9744a0.2865 0.2865 0 0 0-0.0448-0.13455 0.2865 0.2865 0 0 0-0.0448-0.0898 0.2865 0.2865 0 0 0-0.0898-0.0448 0.2865 0.2865 0 0 0-0.0898-0.0448 0.2865 0.2865 0 0 0-0.0448 0 0.2865 0.2865 0 0 0-0.13455 0.0448l-1.7052 1.1218-0.71798-1.3013 1.795-0.89748a0.2865 0.2865 0 0 0 0.0448-0.0448 0.2865 0.2865 0 0 0 0.0448-0.0448 0.2865 0.2865 0 0 0 0.0448-0.0898 0.2865 0.2865 0 0 0 0-0.0448 0.2865 0.2865 0 0 0 0-0.0898 0.2865 0.2865 0 0 0 0-0.0448 0.2865 0.2865 0 0 0-0.0448-0.0898 0.2865 0.2865 0 0 0-0.0448-0.0448 0.2865 0.2865 0 0 0-0.0448 0l-1.795-0.89747 0.71798-1.3014 1.7052 1.077a0.2865 0.2865 0 0 0 0.0448 0.0448 0.2865 0.2865 0 0 0 0.0898 0 0.2865 0.2865 0 0 0 0.0898 0 0.2865 0.2865 0 0 0 0.0448 0 0.2865 0.2865 0 0 0 0.0448-0.0448 0.2865 0.2865 0 0 0 0.0448-0.0448 0.2865 0.2865 0 0 0 0.0448-0.0448 0.2865 0.2865 0 0 0 0-0.0448 0.2865 0.2865 0 0 0 0.0448-0.0898 0.2865 0.2865 0 0 0 0-0.0448l-0.12925-1.9816z" enable-background="new" fill="url(#linearGradient1376)" stroke-width="1.436"/>
 <path d="m9.1271 1.5c-6.4516 0-7.6603 0.58409-7.6264 6.2823v16.436c-0.034 5.6982 1.1748 6.2823 7.6264 6.2823h13.747c6.45 0 7.6264-0.58403 7.6264-6.2823v-16.436c0-5.6982-1.1764-6.2823-7.6264-6.2823z" color="#000000" fill="none" opacity=".4" stroke="#000"/>
 <path d="m9.1269 2c-3.2107 0-5.0326 0.19514-5.9375 0.89844-0.45247 0.35165-0.74178 0.83286-0.93359 1.6172-0.19176 0.78433-0.26386 1.8569-0.25586 3.2637v16.442c-8e-3 1.4068 0.0641 2.4794 0.25586 3.2637 0.1918 0.78431 0.48112 1.2655 0.93359 1.6172 0.90496 0.7033 2.7268 0.89844 5.9375 0.89844h13.746c3.2099 0 5.0246-0.19551 5.9258-0.89844 0.45058-0.35146 0.73805-0.83201 0.93164-1.6172 0.19363-0.7853 0.26953-1.8603 0.26953-3.2677v-16.434c0-1.4074-0.0759-2.4824-0.26953-3.2676-0.19359-0.78517-0.48106-1.2657-0.93164-1.6172-0.90117-0.70293-2.7159-0.89844-5.9258-0.89844zm6.4981 1.0469c3.4565 0.0171 6.9142-0.0268 10.361 0.0918 0.8211 0.13276 1.8066 0.14835 2.3906 0.82617 0.67884 1.1647 0.51296 2.5878 0.56446 3.873 0.0431 6.0289 0.0678 12.067-0.0332 18.088-0.0775 0.77792-0.12055 1.6726-0.67968 2.2754-0.70249 0.51038-1.6183 0.59683-2.459 0.67383-4.0474 0.0864-8.1622 0.0456-12.24 0.0606-2.4519-0.0199-4.914 0.0317-7.3535-0.0606-0.87784-0.12055-1.915-0.14021-2.5606-0.83398-0.64775-1.0259-0.50264-2.3052-0.56054-3.4648-0.035-5.6558-0.0351-11.355 0-17.01 0.0632-1.2215-0.10864-2.5772 0.59179-3.6524 0.6025-0.62665 1.5562-0.63986 2.3594-0.77344 2.7374-0.10739 5.4808-0.0704 8.2266-0.0918 0.46403-2.9e-4 0.92855-2e-3 1.3926-2e-3z" color="#000000" fill="url(#linearGradient1688-4)"/>
</svg>
