<svg width="32" height="32" version="1" xmlns="http://www.w3.org/2000/svg" xmlns:xlink="http://www.w3.org/1999/xlink">
 <defs>
  <linearGradient id="linearGradient8588-0" x1="13.735" x2="38.1" y1="249.69" y2="292.77" gradientTransform="matrix(.60892 0 0 .60892 .85556 -149.71)" gradientUnits="userSpaceOnUse">
   <stop stop-color="#e1e1e1" offset="0"/>
   <stop stop-color="#f7f7f7" offset="1"/>
  </linearGradient>
  <linearGradient id="linearGradient8590-3" x1="96" x2="96" y1="4" y2="188" gradientTransform="matrix(.15217 0 0 .15217 1.3913 1.3913)" gradientUnits="userSpaceOnUse">
   <stop stop-color="#fff" offset="0"/>
   <stop stop-color="#fff" stop-opacity=".098039" offset=".125"/>
   <stop stop-color="#fff" stop-opacity=".098039" offset=".925"/>
   <stop stop-color="#fff" stop-opacity=".49804" offset="1"/>
  </linearGradient>
 </defs>
 <circle transform="scale(-1)" cx="-16" cy="-17" r="15" enable-background="new" opacity=".1"/>
 <circle cx="16" cy="16" r="14.5" enable-background="new" fill="url(#linearGradient8588-0)"/>
 <g transform="matrix(.75 0 0 .75 -241.48 -47.194)" enable-background="new">
  <path d="m334.52 78.927 8.1383 4.6986 14.332-8.2747" color="#000000" enable-background="accumulate" fill="none" stroke="#3b3b3b" stroke-width="1.6"/>
  <circle cx="342.66" cy="83.626" r="2" color="#000000" enable-background="accumulate" fill="#f22c42"/>
  <path d="m342.66 79.626v18.05" color="#000000" enable-background="accumulate" fill="none" stroke="#f22c42" stroke-width="1.2"/>
 </g>
 <path d="m3.5605 8.5859a14.5 14.5 0 0 0-2.0606 7.4141 14.5 14.5 0 0 0 14.5 14.5 14.5 14.5 0 0 0 12.584-7.3184z" enable-background="new" fill="#fff" opacity=".05"/>
 <circle cx="16" cy="16" r="14.5" enable-background="new" fill="none" opacity=".4" stroke="#000" stroke-dashoffset="6.6" stroke-linejoin="round"/>
 <path d="m16 2c-7.732 0-14 6.268-14 14s6.268 14 14 14c7.732 0 14-6.268 14-14s-6.268-14-14-14zm0 1a13 13 0 0 1 13 13 13 13 0 0 1-13 13 13 13 0 0 1-13-13 13 13 0 0 1 13-13z" enable-background="new" fill="url(#linearGradient8590-3)"/>
</svg>
