<svg width="32" height="32" version="1" xmlns="http://www.w3.org/2000/svg" xmlns:xlink="http://www.w3.org/1999/xlink">
 <defs>
  <clipPath id="clipPath951-3-0">
   <path d="m188.97 44c72.649 0 83.031 10.357 83.031 82.938v58.125c0 72.581-10.383 82.938-83.031 82.938h-73.938c-72.649 0-83.031-10.357-83.031-82.938v-58.125c0-72.581 10.383-82.938 83.031-82.938z" fill="#8c59d9"/>
  </clipPath>
  <linearGradient id="linearGradient8590-3" x1="96" x2="96" y1="4" y2="188" gradientTransform="matrix(.15217 0 0 .15217 1.3913 1.3913)" gradientUnits="userSpaceOnUse">
   <stop stop-color="#fff" offset="0"/>
   <stop stop-color="#fff" stop-opacity=".098039" offset=".125"/>
   <stop stop-color="#fff" stop-opacity=".098039" offset=".925"/>
   <stop stop-color="#fff" stop-opacity=".49804" offset="1"/>
  </linearGradient>
 </defs>
 <circle transform="scale(-1)" cx="-16" cy="-17" r="15" enable-background="new" opacity=".1"/>
 <g transform="matrix(.12935 0 0 .12935 -33.667 4.2518)" enable-background="new">
  <g transform="matrix(1 0 0 1 232.32 -65.393)" clip-path="url(#clipPath951-3-0)" enable-background="new">
   <g transform="matrix(.5 0 0 .5 -80.051 141.95)" enable-background="new">
    <path d="m622.25-130.25c-1.5905 1.5905 65.752 158.25 65.752 158.25l-65.752 158.25s-158.25-83.649-158.25-158.25c0-74.599 158.25-158.25 158.25-158.25z" fill="#46a926"/>
    <path d="m305.75 186.25c1.5904-1.5905-65.752-158.25-65.752-158.25l65.752-158.25s158.25 83.649 158.25 158.25c0 74.599-158.25 158.25-158.25 158.25z" fill="#f22c42"/>
    <path d="m622.25-130.25c-1.5904 1.5905-158.25-65.752-158.25-65.752l-158.25 65.752 158.25 158.25z" fill="#ffda64"/>
    <path d="m305.75 186.25 158.25 65.548s156.66-67.139 158.25-65.548l-158.25-158.25z" fill="#2f5fdd"/>
    <path transform="matrix(2 0 0 2 160.1 -283.9)" d="m152 44a112 112 0 0 0-0.0508 2e-3c-0.0125 28.62 10.945 57.244 32.875 79.174l46.322-46.322a112 112 0 0 0-79.146-32.854z" fill="#a6d74f"/>
    <path transform="matrix(2 0 0 2 160.1 -283.9)" d="m231.15 76.854-46.322 46.322c21.93 21.93 50.554 32.887 79.174 32.875a112 112 0 0 0 0.00195-0.05078 112 112 0 0 0-32.854-79.146z" fill="#76c22b"/>
    <path transform="matrix(2 0 0 2 160.1 -283.9)" d="m184.72 188.83c-21.928 21.928-32.886 50.548-32.875 79.166a112 112 0 0 0 0.15234 0.00781 112 112 0 0 0 79.096-32.801z" fill="#1463a5"/>
    <path transform="matrix(2 0 0 2 160.1 -283.9)" d="m263.85 155.95c-28.603 0-57.208 10.96-79.125 32.877l46.373 46.373a112 112 0 0 0 32.904-79.199 112 112 0 0 0-2e-3 -0.0488c-0.0501-7e-5 -0.10026-2e-3 -0.15039-2e-3z" fill="#2b898f"/>
    <path transform="matrix(2 0 0 2 160.1 -283.9)" d="m40.008 155.85a112 112 0 0 0-0.007812 0.15234 112 112 0 0 0 32.803 79.098l46.373-46.373c-21.928-21.928-50.55-32.888-79.168-32.877z" fill="#9b33ae"/>
    <path transform="matrix(2 0 0 2 160.1 -283.9)" d="m119.18 188.72-46.373 46.373a112 112 0 0 0 79.197 32.902 112 112 0 0 0 0.0488-2e-3c0.0385-28.653-10.917-57.318-32.873-79.273z" fill="#7839b7"/>
    <path transform="matrix(2 0 0 2 160.1 -283.9)" d="m152 44a112 112 0 0 0-79.098 32.801l46.375 46.375c21.928-21.928 32.886-50.55 32.875-79.168a112 112 0 0 0-0.15234-0.007812z" fill="#fdc92b"/>
    <path transform="matrix(2 0 0 2 160.1 -283.9)" d="m72.902 76.801a112 112 0 0 0-32.902 79.199 112 112 0 0 0 2e-3 0.0488c28.653 0.0385 57.32-10.917 79.275-32.873z" fill="#f34f17"/>
   </g>
  </g>
  <g transform="matrix(1 0 0 1 232.32 -65.393)" enable-background="new">
   <path transform="translate(0,-4.6e-4)" d="m152 44a112 112 0 0 0-112 112h224a112 112 0 0 0-112-112z" enable-background="new" opacity=".05"/>
   <path transform="translate(0,-4.6e-4)" d="m152 44a112 112 0 0 0-112 112 112 112 0 0 0 112 112z" enable-background="new" opacity=".05"/>
  </g>
  <path d="m384.48-21.356c61.856 0 112 50.144 112 112s-50.144 112-112 112c-61.856 0-112-50.144-112-112s50.144-112 112-112z" enable-background="new" fill="#fff" opacity=".1"/>
  <path d="m383.98 13.516c42.698 0 77.312 34.614 77.312 77.312 0 42.698-34.614 77.312-77.312 77.312-42.698 0-77.312-34.614-77.312-77.312 0-42.698 34.614-77.312 77.312-77.312z" enable-background="new" fill="#fff" opacity=".1"/>
  <circle cx="383.98" cy="90.828" r="46.387" enable-background="new" fill="#fff" opacity=".1"/>
 </g>
 <circle cx="16" cy="16" r="14.5" enable-background="new" fill="none" opacity=".4" stroke="#000" stroke-dashoffset="6.6" stroke-linejoin="round"/>
 <path d="m16 2c-7.732 0-14 6.268-14 14s6.268 14 14 14c7.732 0 14-6.268 14-14s-6.268-14-14-14zm0 1a13 13 0 0 1 13 13 13 13 0 0 1-13 13 13 13 0 0 1-13-13 13 13 0 0 1 13-13z" enable-background="new" fill="url(#linearGradient8590-3)"/>
</svg>
