<svg width="32" height="32" version="1" xmlns="http://www.w3.org/2000/svg" xmlns:xlink="http://www.w3.org/1999/xlink">
 <defs>
  <linearGradient id="linearGradient959" x1="13.735" x2="38.1" y1="249.69" y2="292.77" gradientTransform="matrix(.60892 0 0 .60892 .85556 -149.71)" gradientUnits="userSpaceOnUse">
   <stop stop-color="#eab305" offset="0"/>
   <stop stop-color="#ffda64" offset="1"/>
  </linearGradient>
 </defs>
 <path d="m23.672 5.2168a14.5 14.5 0 0 1-9.6719 3.7207 14.5 14.5 0 0 1-1.9434-0.15039 14.5 14.5 0 0 1 1.9434 7.2129 14.5 14.5 0 0 1-7.25 12.535 14.5 14.5 0 0 0 7.25 1.9648 14.5 14.5 0 0 0 14.5-14.5 14.5 14.5 0 0 0-4.8281-10.783z" enable-background="new" fill="url(#linearGradient959)" stroke="#7b7b7b" stroke-linecap="round" stroke-linejoin="round"/>
 <path d="m13.932 17.334a14.5 14.5 0 0 1-6e-3 0.11329 14.5 14.5 0 0 1-0.21875 1.4336 14.5 14.5 0 0 1-0.36133 1.4023 14.5 14.5 0 0 1-0.49804 1.3613 14.5 14.5 0 0 1-0.63282 1.3047 14.5 14.5 0 0 1-0.75976 1.2344 14.5 14.5 0 0 1-0.87891 1.1524 14.5 14.5 0 0 1-0.99023 1.0586 14.5 14.5 0 0 1-1.0898 0.95508 14.5 14.5 0 0 1-1.1797 0.8418 14.5 14.5 0 0 1-0.54102 0.32812 14.667 14.667 0 0 0 0.40039 0.23633 14.5 14.5 0 0 0 0.86133 0.44336 14.5 14.5 0 0 0 1.3477 0.5332 14.5 14.5 0 0 0 1.3945 0.39649 14.5 14.5 0 0 0 1.4277 0.25586 14.5 14.5 0 0 0 1.4453 0.10937 14.5 14.5 0 0 0 0.34766 6e-3 14.5 14.5 0 0 0 1.4473-0.0723 14.5 14.5 0 0 0 1.4336-0.21679 14.5 14.5 0 0 0 1.4043-0.35938 14.5 14.5 0 0 0 1.3613-0.49609 14.5 14.5 0 0 0 1.3047-0.63086 14.5 14.5 0 0 0 1.2363-0.75781 14.5 14.5 0 0 0 1.1543-0.87696 14.5 14.5 0 0 0 1.0605-0.98828 14.5 14.5 0 0 0 0.95508-1.0879 14.5 14.5 0 0 0 0.84375-1.1797 14.5 14.5 0 0 0 0.72071-1.2578 14.5 14.5 0 0 0 0.59179-1.3223 14.5 14.5 0 0 0 0.45703-1.375 14.5 14.5 0 0 0 0.31836-1.4141 14.5 14.5 0 0 0 0.13672-1.1309z" enable-background="new" fill="#fff" opacity=".1"/>
</svg>
