<svg width="32" height="32" version="1" xmlns="http://www.w3.org/2000/svg" xmlns:xlink="http://www.w3.org/1999/xlink">
 <defs>
  <linearGradient id="linearGradient1009" x1="-163" x2="-133" y1="-336" y2="-336" gradientTransform="translate(132,320)" gradientUnits="userSpaceOnUse">
   <stop stop-color="#1a7fd4" offset="0"/>
   <stop stop-color="#37a6e6" offset="1"/>
  </linearGradient>
  <linearGradient id="linearGradient907" x1="134" x2="162" y1="-336" y2="-336" gradientTransform="translate(-132,320)" gradientUnits="userSpaceOnUse">
   <stop stop-color="#fff" offset="0"/>
   <stop stop-color="#fff" stop-opacity=".098039" offset=".125"/>
   <stop stop-color="#fff" stop-opacity=".098039" offset=".925"/>
   <stop stop-color="#fff" stop-opacity=".49804" offset="1"/>
  </linearGradient>
 </defs>
 <rect transform="matrix(0,-1,-1,0,0,0)" x="-32" y="-31" width="30" height="30" rx="15" ry="15" enable-background="new" opacity=".2"/>
 <rect transform="matrix(0,-1,-1,0,0,0)" x="-31" y="-31" width="30" height="30" rx="15" ry="15" enable-background="new" fill="url(#linearGradient1009)"/>
 <g transform="matrix(.13393 0 0 .13393 -4.3571 -4.8929)" enable-background="new" fill="#fff" stroke-width="7.4667">
  <circle cx="152" cy="102.5" r="9.5" opacity=".6" style="paint-order:stroke fill markers"/>
  <circle cx="152" cy="209.5" r="9.5" style="paint-order:stroke fill markers"/>
  <circle cx="205.5" cy="156" r="9.5" opacity=".4" style="paint-order:stroke fill markers"/>
  <circle cx="98.5" cy="156" r="9.5" opacity=".8" style="paint-order:stroke fill markers"/>
  <circle cx="189.95" cy="118.3" r="9.5" opacity=".5" style="paint-order:stroke fill markers"/>
  <circle cx="114.36" cy="118.11" r="9.5" opacity=".7" style="paint-order:stroke fill markers"/>
  <circle transform="rotate(-90)" cx="-193.99" cy="114.26" r="9.5" opacity=".9" style="paint-order:stroke fill markers"/>
  <circle cx="189.88" cy="193.62" r="9.5" opacity=".3" style="paint-order:stroke fill markers"/>
 </g>
 <rect transform="rotate(90)" x="2" y="-30" width="28" height="28" rx="14" ry="14" enable-background="new" fill="none" stroke="url(#linearGradient907)"/>
 <circle cx="16" cy="16" r="15" enable-background="new" fill="none" opacity=".4" stroke="#000" stroke-dashoffset="6.6" stroke-linejoin="round"/>
</svg>
