<svg width="32" height="32" version="1" xmlns="http://www.w3.org/2000/svg" xmlns:xlink="http://www.w3.org/1999/xlink">
 <defs>
  <linearGradient id="linearGradient4882" x1="319.22" x2="355.71" y1="170.98" y2="121.71" gradientTransform="rotate(-90 110 242)" gradientUnits="userSpaceOnUse">
   <stop stop-color="#0d5d6f" offset="0"/>
   <stop stop-color="#004f62" offset="1"/>
  </linearGradient>
  <linearGradient id="linearGradient1004-8" x1="344" x2="344" y1="65.144" y2="102.86" gradientTransform="matrix(0 -1.0476 .95458 0 263.82 444.37)" gradientUnits="userSpaceOnUse">
   <stop stop-color="#fff" offset="0"/>
   <stop stop-color="#fff" stop-opacity=".098039" offset=".125"/>
   <stop stop-color="#fff" stop-opacity=".098039" offset=".925"/>
   <stop stop-color="#fff" stop-opacity=".49804" offset="1"/>
  </linearGradient>
  <clipPath id="clipPath994-1">
   <path d="m335.73 62c-8.8242 0-9.7736 0.90635-9.7304 9.7484v12.252 12.252c-0.0433 8.842 0.90622 9.7484 9.7304 9.7484h16.539c8.8242 0 9.7304-0.90625 9.7304-9.7484v-12.252-12.252c0-8.8421-0.90622-9.7484-9.7304-9.7484z" color="#000000" fill="#cdcdcd"/>
  </clipPath>
 </defs>
 <path d="m31 11.194c0-1.421-0.0308-2.5488-0.19141-3.5059-0.16064-0.95703-0.4726-1.7915-1.0918-2.4121s-1.4561-0.93647-2.4141-1.0957c-0.95795-0.15924-2.087-0.18666-3.5117-0.17969h-7.791-7.7969c-1.4213-7e-3 -2.5495 0.0207-3.5058 0.17969-0.95796 0.15923-1.7949 0.47505-2.4141 1.0957s-0.93115 1.4551-1.0918 2.4121c-0.16065 0.95703-0.19141 2.0849-0.19141 3.5059v11.615c0 1.421 0.0307 2.5467 0.19141 3.502 0.16075 0.95527 0.47425 1.7878 1.0938 2.4062 0.6195 0.61845 1.4536 0.93134 2.4102 1.0918 0.95653 0.16046 2.084 0.19141 3.5078 0.19141h7.7969 7.7969c1.4238 0 2.5513-0.031 3.5078-0.19141 0.95653-0.16045 1.7906-0.47334 2.4102-1.0918 0.61951-0.61846 0.933-1.451 1.0938-2.4062 0.16076-0.95527 0.19141-2.081 0.19141-3.502z" color="#000000" color-rendering="auto" dominant-baseline="auto" image-rendering="auto" opacity=".1" shape-rendering="auto" solid-color="#000000" style="font-feature-settings:normal;font-variant-alternates:normal;font-variant-caps:normal;font-variant-ligatures:normal;font-variant-numeric:normal;font-variant-position:normal;isolation:auto;mix-blend-mode:normal;shape-padding:0;text-decoration-color:#000000;text-decoration-line:none;text-decoration-style:solid;text-indent:0;text-orientation:mixed;text-transform:none;white-space:normal"/>
 <path d="m1.5 21.925c0 5.5618 0.58409 6.6037 6.2823 6.5745h8.2176 8.2178c5.6982 0.0293 6.2823-1.0127 6.2823-6.5745v-11.85c0-5.5604-0.58403-6.5745-6.2823-6.5745h-8.2178-8.2176c-5.6982 0-6.2823 1.0141-6.2823 6.5745z" color="#000000" fill="url(#linearGradient4882)"/>
 <path d="m1.5059 16v6.2168c-0.034 5.6982 1.1753 6.2832 7.627 6.2832h13.746c6.45 0 7.627-0.58496 7.627-6.2832v-6.2168z" color="#000000" fill="#fff" opacity=".05"/>
 <g transform="matrix(.62222 0 0 .62222 5.8213 7.3555)" enable-background="new" fill-rule="evenodd" opacity=".3">
  <path transform="matrix(2.1429 0 0 2.1429 -695.07 -413.07)" d="m323.75 193.25 7.5 6-4.5 7.5 9.75-8.25z"/>
  <path transform="translate(-6,-1)" d="m25.573 8.4643 14.464 6.4286-4.8214-6.4286z"/>
 </g>
 <g transform="matrix(.62222 0 0 .62222 5.8213 6.3555)" enable-background="new">
  <path transform="translate(-6,-1)" d="m25.573 8.4643 14.464 6.4286-4.8214-6.4286z" fill="#fa6340" fill-rule="evenodd"/>
 </g>
 <path d="m5 7 6.0586 4.8477h2e-3l3.9394 3.1523 2.5 2v-4.8535zm13 5.3535v5.0312l4-3.3848z" enable-background="new" fill="#82bfa1" fill-rule="evenodd"/>
 <path d="m14.676 15.541-5.6758 9.459 8.5039-7.1953z" enable-background="new" fill="#82bfa1" fill-rule="evenodd"/>
 <path d="m18 11 9 4-3-4z" enable-background="new" fill="#fa6340" fill-rule="evenodd"/>
 <path d="m30.5 10.075c0-5.5618-0.58409-6.6037-6.2823-6.5745h-8.2176-8.2178c-5.6982-0.0293-6.2823 1.0127-6.2823 6.5745v11.85c0 5.5604 0.58403 6.5745 6.2823 6.5745h8.2178 8.2176c5.6982 0 6.2823-1.0141 6.2823-6.5745z" color="#000000" fill="none" opacity=".4" stroke="#000"/>
 <path transform="matrix(0 .66664 -.63636 0 69.455 -213.32)" d="m335.73 62c-8.8242 0-9.7736 0.90635-9.7304 9.7484v12.252 12.252c-0.0433 8.842 0.90622 9.7484 9.7304 9.7484h16.539c8.8242 0 9.7304-0.90625 9.7304-9.7484v-12.252-12.252c0-8.8421-0.90622-9.7484-9.7304-9.7484z" clip-path="url(#clipPath994-1)" color="#000000" fill="none" opacity=".3" stroke="url(#linearGradient1004-8)" stroke-width="3.0707"/>
 <path d="m11 6s0-5 5-5 5 5 5 5" enable-background="new" fill="none" stroke="#d3d4d5" stroke-linecap="round" stroke-width="1.5"/>
</svg>
