<svg width="32" height="32" version="1" xmlns="http://www.w3.org/2000/svg" xmlns:xlink="http://www.w3.org/1999/xlink">
 <defs>
  <linearGradient id="linearGradient8590-3" x1="96" x2="96" y1="4" y2="188" gradientTransform="matrix(.15217 0 0 .15217 1.3913 1.3913)" gradientUnits="userSpaceOnUse">
   <stop stop-color="#fff" offset="0"/>
   <stop stop-color="#fff" stop-opacity=".098039" offset=".125"/>
   <stop stop-color="#fff" stop-opacity=".098039" offset=".925"/>
   <stop stop-color="#fff" stop-opacity=".49804" offset="1"/>
  </linearGradient>
 </defs>
 <circle transform="scale(-1)" cx="-16" cy="-17" r="15" enable-background="new" opacity=".1"/>
 <path d="m16 1.5a14.5 14.5 0 0 0-1.248 0.0644 14.5 14.5 0 0 0-0.63476 0.0762 14.5 14.5 0 0 0-0.83789 0.12696 14.5 14.5 0 0 0-0.51758 0.11719 14.5 14.5 0 0 0-0.91992 0.23632 14.5 14.5 0 0 0-0.39453 0.13282 14.5 14.5 0 0 0-1.0059 0.36914 14.5 14.5 0 0 0-0.26953 0.11914 14.5 14.5 0 0 0-1.0664 0.51953 14.5 14.5 0 0 0-0.16602 0.0937 14.5 14.5 0 0 0-1.1035 0.67969 14.5 14.5 0 0 0-0.10352 0.0742 14.5 14.5 0 0 0-5.9004 8.8379 14.5 14.5 0 0 0-0.0176 0.0684 14.5 14.5 0 0 0-0.20312 1.2813 14.5 14.5 0 0 0-0.0234 0.1582 14.5 14.5 0 0 0-0.0566 0.91797 14.5 14.5 0 0 0-0.03131 0.62699 14.5 14.5 0 0 0 0.0312 0.62695 14.5 14.5 0 0 0 0.0566 0.91797 14.5 14.5 0 0 0 0.0234 0.1582 14.5 14.5 0 0 0 0.20312 1.2813 14.5 14.5 0 0 0 0.0176 0.0684 14.5 14.5 0 0 0 5.9004 8.8379 14.5 14.5 0 0 0 0.10352 0.0742 14.5 14.5 0 0 0 1.1035 0.67969 14.5 14.5 0 0 0 0.16602 0.0937 14.5 14.5 0 0 0 1.0664 0.51953 14.5 14.5 0 0 0 0.26953 0.11914 14.5 14.5 0 0 0 1.0059 0.36914 14.5 14.5 0 0 0 0.39453 0.13282 14.5 14.5 0 0 0 0.91992 0.23632 14.5 14.5 0 0 0 0.51758 0.11719 14.5 14.5 0 0 0 0.83789 0.12696 14.5 14.5 0 0 0 0.63476 0.0762 14.5 14.5 0 0 0 1.2482 0.06444 14.5 14.5 0 0 0 1.248-0.0644 14.5 14.5 0 0 0 0.63476-0.0762 14.5 14.5 0 0 0 0.83789-0.12696 14.5 14.5 0 0 0 0.51758-0.11719 14.5 14.5 0 0 0 0.91992-0.23632 14.5 14.5 0 0 0 0.39453-0.13282 14.5 14.5 0 0 0 1.0059-0.36914 14.5 14.5 0 0 0 0.26953-0.11914 14.5 14.5 0 0 0 1.0664-0.51953 14.5 14.5 0 0 0 0.16602-0.0937 14.5 14.5 0 0 0 1.1035-0.67969 14.5 14.5 0 0 0 0.10352-0.0742 14.5 14.5 0 0 0 5.9004-8.8379 14.5 14.5 0 0 0 0.0156-0.0625 14.5 14.5 0 0 0 2e-3 -6e-3 14.5 14.5 0 0 0 0.20312-1.2813 14.5 14.5 0 0 0 0.0234-0.1582 14.5 14.5 0 0 0 0.0566-0.91797 14.5 14.5 0 0 0 0.03131-0.62689 14.5 14.5 0 0 0-0.0312-0.62695 14.5 14.5 0 0 0-0.0566-0.91797 14.5 14.5 0 0 0-0.0234-0.1582 14.5 14.5 0 0 0-0.20312-1.2813 14.5 14.5 0 0 0-2e-3 -6e-3 14.5 14.5 0 0 0-0.0156-0.0625 14.5 14.5 0 0 0-5.9004-8.8379 14.5 14.5 0 0 0-0.10352-0.0742 14.5 14.5 0 0 0-1.1035-0.67969 14.5 14.5 0 0 0-0.16602-0.0937 14.5 14.5 0 0 0-1.0664-0.51953 14.5 14.5 0 0 0-0.26953-0.11914 14.5 14.5 0 0 0-1.0059-0.36914 14.5 14.5 0 0 0-0.39453-0.13282 14.5 14.5 0 0 0-0.91992-0.23632 14.5 14.5 0 0 0-0.51758-0.11719 14.5 14.5 0 0 0-0.83789-0.12696 14.5 14.5 0 0 0-0.63476-0.0762 14.5 14.5 0 0 0-1.2482-0.06434zm0 3.5a11 11 0 0 1 0.51562 0.0254 11 11 0 0 1 0.67774 0.043 11 11 0 0 1 0.13086 0.0215 11 11 0 0 1 0.97266 0.15821 11 11 0 0 1 1.0625 0.28515 11 11 0 0 1 2.9414 1.4668h0.0137a11 11 0 0 1 2.1875 2.0312 11 11 0 0 1 0.41797 0.55469 11 11 0 0 1 0.20508 0.28711 11 11 0 0 1 0.37695 0.61328 11 11 0 0 1 0.20313 0.35156 11 11 0 0 1 0.29101 0.60547 11 11 0 0 1 0.17579 0.39258 11 11 0 0 1 0.23632 0.64453 11 11 0 0 1 0.12696 0.38086 11 11 0 0 1 0.16601 0.64648 11 11 0 0 1 0.0996 0.44727 11 11 0 0 1 0.0918 0.61523 11 11 0 0 1 0.0586 0.47071 11 11 0 0 1 0.0488 0.95892 11 11 0 0 1-0.0488 0.95898 11 11 0 0 1-0.0586 0.47071 11 11 0 0 1-0.0918 0.61523 11 11 0 0 1-0.0996 0.44727 11 11 0 0 1-0.16601 0.64648 11 11 0 0 1-0.12696 0.38086 11 11 0 0 1-0.23632 0.64453 11 11 0 0 1-0.17579 0.39258 11 11 0 0 1-0.29101 0.60547 11 11 0 0 1-0.20313 0.35156 11 11 0 0 1-0.37695 0.61328 11 11 0 0 1-0.20508 0.28711 11 11 0 0 1-0.41797 0.55469 11 11 0 0 1-2.1875 2.0312h-0.0137a11 11 0 0 1-2.9414 1.4668 11 11 0 0 1-1.0625 0.28515 11 11 0 0 1-0.97266 0.15821 11 11 0 0 1-0.13086 0.0215 11 11 0 0 1-0.67774 0.043 11 11 0 0 1-0.51562 0.02534 11 11 0 0 1-0.51562-0.0254 11 11 0 0 1-0.67774-0.043 11 11 0 0 1-0.13086-0.0215 11 11 0 0 1-0.97266-0.15821 11 11 0 0 1-1.0625-0.28515 11 11 0 0 1-2.9414-1.4668h-0.0137a11 11 0 0 1-2.1875-2.0312 11 11 0 0 1-0.41797-0.55469 11 11 0 0 1-0.20508-0.28711 11 11 0 0 1-0.37695-0.61328 11 11 0 0 1-0.20313-0.35156 11 11 0 0 1-0.29101-0.60547 11 11 0 0 1-0.17579-0.39258 11 11 0 0 1-0.23632-0.64453 11 11 0 0 1-0.12696-0.38086 11 11 0 0 1-0.16601-0.64648 11 11 0 0 1-0.0996-0.44727 11 11 0 0 1-0.0918-0.61523 11 11 0 0 1-0.0586-0.47071 11 11 0 0 1-0.0488-0.95892 11 11 0 0 1 0.0488-0.95898 11 11 0 0 1 0.0586-0.47071 11 11 0 0 1 0.0918-0.61523 11 11 0 0 1 0.0996-0.44727 11 11 0 0 1 0.16601-0.64648 11 11 0 0 1 0.12696-0.38086 11 11 0 0 1 0.23632-0.64453 11 11 0 0 1 0.17579-0.39258 11 11 0 0 1 0.29101-0.60547 11 11 0 0 1 0.20313-0.35156 11 11 0 0 1 0.37695-0.61328 11 11 0 0 1 0.20508-0.28711 11 11 0 0 1 0.41797-0.55469 11 11 0 0 1 2.1875-2.0312h0.0137a11 11 0 0 1 2.9414-1.4668 11 11 0 0 1 1.0625-0.28515 11 11 0 0 1 0.97266-0.15821 11 11 0 0 1 0.13086-0.0215 11 11 0 0 1 0.67774-0.043 11 11 0 0 1 0.51562-0.02534z" enable-background="new" fill="#ebebeb"/>
 <circle transform="matrix(.25882 .96593 .96593 -.25882 0 0)" cx="19.596" cy="11.314" r="11" enable-background="new" fill="#641c5d"/>
 <path d="m1.4055 17.333c0.68899 7.5476 7.0151 13.327 14.594 13.333 7.5812-3e-3 13.911-5.7835 14.6-13.333z" enable-background="new" fill="#fff" opacity=".1"/>
 <circle cx="16" cy="16" r="11" color="#000000" fill-opacity="0"/>
 <path d="m14.477 7-1.7922 3.9481-1.7405 4.1559-1.8005 3.6233-1.348 3.2727h3.4174l1.2363-3.397 7.1502 0.397 1.3 3h3.4034l-1.4739-3.2207-1.7578-3.5974-1.7144-4.1818-1.818-4.0001h-1.5394zm2.753 6.5714 1.8876 4.9874-6.1407-0.23369 1.6448-4.3639 1.3778-3.2838v-0.0202l1.2304 2.9141z" enable-background="new" fill="#ececec"/>
 <path d="m17.539 7-1.505 3.7 2.1152 5.3 0.96844 1.5584 3.2853 0.0887-1.3316-2.4652-1.7144-4.1818-1.818-4.0001zm-0.51493 11.885 2.639 0.17953 1.2357 2.935h3.4008l-1.2723-2.9266-0.0277-0.0734z" enable-background="new" fill="#c43ac4" opacity=".2"/>
 <rect x="7" y="16" width="18" height="3" rx="1.4687" ry="1.4687" color="#000000" fill="#ececec"/>
 <path d="m8.5996 17c-0.3324 0-0.59961 0.223-0.59961 0.5s0.26721 0.5 0.59961 0.5h4 5.8008 5c0.3324 0 0.59961-0.223 0.59961-0.5s-0.26721-0.5-0.59961-0.5h-5-5.8008z" color="#000000" fill="#999"/>
 <path d="m8.5996 17c-0.3324 0-0.59961 0.223-0.59961 0.5s0.26721 0.5 0.59961 0.5h4 1.8008 5c0.3324 0 0.59961-0.223 0.59961-0.5s-0.26721-0.5-0.59961-0.5h-5-1.8008z" color="#000000" fill="#77216f"/>
 <circle cx="18.5" cy="17.5" r="2.5" enable-background="new" opacity=".4"/>
 <circle cx="18.5" cy="17.5" r="1.5" enable-background="new" fill="#ebebeb"/>
 <circle cx="16" cy="16" r="14.5" enable-background="new" fill="none" opacity=".4" stroke="#000" stroke-dashoffset="6.6" stroke-linejoin="round"/>
 <path d="m16 2c-7.732 0-14 6.268-14 14s6.268 14 14 14c7.732 0 14-6.268 14-14s-6.268-14-14-14zm0 1a13 13 0 0 1 13 13 13 13 0 0 1-13 13 13 13 0 0 1-13-13 13 13 0 0 1 13-13z" enable-background="new" fill="url(#linearGradient8590-3)"/>
</svg>
