<svg width="32" height="32" version="1" xmlns="http://www.w3.org/2000/svg" xmlns:xlink="http://www.w3.org/1999/xlink">
 <defs>
  <linearGradient id="linearGradient4882" x1="319.22" x2="355.71" y1="170.98" y2="121.71" gradientTransform="rotate(-90 110 242)" gradientUnits="userSpaceOnUse">
   <stop stop-color="#f37e40" offset="0"/>
   <stop stop-color="#f34f17" offset="1"/>
  </linearGradient>
  <linearGradient id="linearGradient1004-8" x1="344" x2="344" y1="65.144" y2="102.86" gradientTransform="matrix(0 -1.0476 .95458 0 263.82 444.37)" gradientUnits="userSpaceOnUse">
   <stop stop-color="#fff" offset="0"/>
   <stop stop-color="#fff" stop-opacity=".098039" offset=".125"/>
   <stop stop-color="#fff" stop-opacity=".098039" offset=".925"/>
   <stop stop-color="#fff" stop-opacity=".49804" offset="1"/>
  </linearGradient>
  <clipPath id="clipPath994-1">
   <path d="m335.73 62c-8.8242 0-9.7736 0.90635-9.7304 9.7484v12.252 12.252c-0.0433 8.842 0.90622 9.7484 9.7304 9.7484h16.539c8.8242 0 9.7304-0.90625 9.7304-9.7484v-12.252-12.252c0-8.8421-0.90622-9.7484-9.7304-9.7484z" color="#000000" fill="#cdcdcd"/>
  </clipPath>
 </defs>
 <path d="m31 11.194c0-1.421-0.0308-2.5488-0.19141-3.5059-0.16064-0.95703-0.4726-1.7915-1.0918-2.4121s-1.4561-0.93647-2.4141-1.0957c-0.95795-0.15924-2.087-0.18666-3.5117-0.17969h-7.791-7.7969c-1.4213-7e-3 -2.5495 0.0207-3.5058 0.17969-0.95796 0.15923-1.7949 0.47505-2.4141 1.0957s-0.93115 1.4551-1.0918 2.4121c-0.16065 0.95703-0.19141 2.0849-0.19141 3.5059v11.615c0 1.421 0.0307 2.5467 0.19141 3.502 0.16075 0.95527 0.47425 1.7878 1.0938 2.4062 0.6195 0.61845 1.4536 0.93134 2.4102 1.0918 0.95653 0.16046 2.084 0.19141 3.5078 0.19141h7.7969 7.7969c1.4238 0 2.5513-0.031 3.5078-0.19141 0.95653-0.16045 1.7906-0.47334 2.4102-1.0918 0.61951-0.61846 0.933-1.451 1.0938-2.4062 0.16076-0.95527 0.19141-2.081 0.19141-3.502z" color="#000000" color-rendering="auto" dominant-baseline="auto" image-rendering="auto" opacity=".1" shape-rendering="auto" solid-color="#000000" style="font-feature-settings:normal;font-variant-alternates:normal;font-variant-caps:normal;font-variant-ligatures:normal;font-variant-numeric:normal;font-variant-position:normal;isolation:auto;mix-blend-mode:normal;shape-padding:0;text-decoration-color:#000000;text-decoration-line:none;text-decoration-style:solid;text-indent:0;text-orientation:mixed;text-transform:none;white-space:normal"/>
 <path d="m1.5 21.925c0 5.5618 0.58409 6.6037 6.2823 6.5745h8.2176 8.2178c5.6982 0.0293 6.2823-1.0127 6.2823-6.5745v-11.85c0-5.5604-0.58403-6.5745-6.2823-6.5745h-8.2178-8.2176c-5.6982 0-6.2823 1.0141-6.2823 6.5745z" color="#000000" fill="url(#linearGradient4882)"/>
 <path d="m1.5059 16v6.2168c-0.034 5.6982 1.1753 6.2832 7.627 6.2832h13.746c6.45 0 7.627-0.58496 7.627-6.2832v-6.2168z" color="#000000" fill="#fff" opacity=".1"/>
 <path d="m14.443 8.0001c-0.62338 1.2987-1.2208 2.6148-1.7922 3.9481-0.57143 1.316-1.1518 2.7014-1.7405 4.1559-0.57143 1.4546-1.7661 4.6233-1.7661 4.6233l-1.348 3.2727h3.4174l1.2363-3.397 7.1502 0.397 1.3 3h3.4034l-1.4739-3.2207s-1.2034-3.1602-1.7922-4.5974c-0.57143-1.4546-1.143-2.8484-1.7144-4.1818-0.57143-1.3333-1.818-4.0001-1.818-4.0001h-1.5394zm2.753 6.5714c0.62337 1.5411 1.264 3.2035 1.922 4.987l-6.1407-0.23369c0.53679-1.5065 1.0737-2.9609 1.6105-4.3635 0.44244-1.1337 0.90227-2.2272 1.3778-3.2838v-0.0202s0.69696 1.5975 1.2304 2.9141z" enable-background="new" fill="#fff9f2"/>
 <path d="m17.505 8.0001-1.505 3.7s0.68415 1.6059 1.196 2.8714c0.62337 1.5411 1.264 3.2035 1.922 4.987l3.2853 0.0887c-0.46032-1.2104-0.91573-2.3662-1.3659-3.4652-0.57143-1.4546-1.143-2.8484-1.7144-4.1818-0.57143-1.3333-1.818-4.0001-1.818-4.0001zm-0.48056 12.885 2.639 0.17953 1.2357 2.935h3.4008l-1.2723-2.9266-0.0277-0.0734z" enable-background="new" fill="#f34f17" opacity=".1"/>
 <rect x="7" y="18" width="18" height="3" rx="1.4687" ry="1.4687" color="#000000" fill="#f8f8f8"/>
 <path d="m8.5996 19c-0.3324 0-0.59961 0.223-0.59961 0.5s0.26721 0.5 0.59961 0.5h4 5.8008 5c0.3324 0 0.59961-0.223 0.59961-0.5s-0.26721-0.5-0.59961-0.5h-5-5.8008z" color="#000000" fill="#f34f17" opacity=".2"/>
 <path d="m30.5 10.075c0-5.5618-0.58409-6.6037-6.2823-6.5745h-8.2176-8.2178c-5.6982-0.0293-6.2823 1.0127-6.2823 6.5745v11.85c0 5.5604 0.58403 6.5745 6.2823 6.5745h8.2178 8.2176c5.6982 0 6.2823-1.0141 6.2823-6.5745z" color="#000000" fill="none" opacity=".4" stroke="#000"/>
 <path transform="matrix(0 .66664 -.63636 0 69.455 -213.32)" d="m335.73 62c-8.8242 0-9.7736 0.90635-9.7304 9.7484v12.252 12.252c-0.0433 8.842 0.90622 9.7484 9.7304 9.7484h16.539c8.8242 0 9.7304-0.90625 9.7304-9.7484v-12.252-12.252c0-8.8421-0.90622-9.7484-9.7304-9.7484z" clip-path="url(#clipPath994-1)" color="#000000" fill="none" opacity=".7" stroke="url(#linearGradient1004-8)" stroke-width="3.0707"/>
 <path d="m11 6s0-5 5-5 5 5 5 5" enable-background="new" fill="none" stroke="#fee8bc" stroke-linecap="round" stroke-width="1.5"/>
</svg>
