<svg width="32" height="32" version="1" xmlns="http://www.w3.org/2000/svg" xmlns:xlink="http://www.w3.org/1999/xlink">
 <defs>
  <linearGradient id="linearGradient8590-3-36" x1="96" x2="96" y1="4" y2="188" gradientTransform="matrix(.15217 0 0 .15217 1.3913 1.3913)" gradientUnits="userSpaceOnUse">
   <stop stop-color="#fff" offset="0"/>
   <stop stop-color="#fff" stop-opacity=".098039" offset=".125"/>
   <stop stop-color="#fff" stop-opacity=".098039" offset=".925"/>
   <stop stop-color="#fff" stop-opacity=".49804" offset="1"/>
  </linearGradient>
 </defs>
 <circle transform="scale(-1)" cx="-16" cy="-17" r="15" enable-background="new" opacity=".1"/>
 <path d="m16 1.5a14.5 14.5 0 0 0-1.248 0.0644 14.5 14.5 0 0 1 1.248-0.0644zm1.2246 0.0606a14.5 14.5 0 0 1 0.74023 0.0898 14.5 14.5 0 0 0-0.74023-0.0898zm-3.1074 0.0801a14.5 14.5 0 0 0-0.83789 0.12696 14.5 14.5 0 0 1 0.83789-0.12696zm4.5527 0.11719a14.5 14.5 0 0 1 0.71485 0.16016 14.5 14.5 0 0 0-0.71485-0.16016zm-5.9082 0.12696a14.5 14.5 0 0 0-0.91992 0.23632 14.5 14.5 0 0 1 0.91992-0.23632zm7.3164 0.21093a14.5 14.5 0 0 1 0.70313 0.23438 14.5 14.5 0 0 0-0.70313-0.23438zm-8.6308 0.15821a14.5 14.5 0 0 0-1.0059 0.36914 14.5 14.5 0 0 1 1.0059-0.36914zm9.9883 0.31445a14.5 14.5 0 0 1 0.69726 0.31055 14.5 14.5 0 0 0-0.69726-0.31055zm-11.264 0.17383a14.5 14.5 0 0 0-1.0664 0.51953 14.5 14.5 0 0 1 1.0664-0.51953zm12.582 0.4375a14.5 14.5 0 0 1 0.63671 0.36523 14.5 14.5 0 0 0-0.63671-0.36523zm-13.814 0.17578a14.5 14.5 0 0 0-1.1035 0.67969 14.5 14.5 0 0 1 1.1035-0.67969zm15.068 0.56641a14.5 14.5 0 0 1 0.59571 0.42578 14.5 14.5 0 0 0-0.59571-0.42578zm-16.275 0.1875a14.5 14.5 0 0 0-5.9004 8.8379 14.5 14.5 0 0 1 3.168-6.3673v2.4199h2.5215a11 11 0 0 0-2.5215 7 11 11 0 0 0 11 11 11 11 0 0 0 6.3008-2h2.6992v2.3496a14.5 14.5 0 0 1-0.73242 0.54101 14.5 14.5 0 0 0 5.9004-8.8379 14.5 14.5 0 0 1-3.168 6.3672v-2.4199h-2.5215a11 11 0 0 0 2.5215-7 11 11 0 0 0-11-11 11 11 0 0 0-6.3008 2h-2.6992v-2.3496a14.5 14.5 0 0 1 0.73242-0.54101zm17.436 0.66992a14.5 14.5 0 0 1 0.55273 0.48437 14.5 14.5 0 0 0-0.55273-0.48437zm1.0781 0.97461a14.5 14.5 0 0 1 0.49024 0.52539 14.5 14.5 0 0 0-0.49024-0.52539zm0.97461 1.0781a14.5 14.5 0 0 1 0.43164 0.56445 14.5 14.5 0 0 0-0.43164-0.56445zm0.85742 1.1602a14.5 14.5 0 0 1 0.37696 0.61719 14.5 14.5 0 0 0-0.37696-0.61719zm0.74219 1.2539a14.5 14.5 0 0 1 0.30078 0.6211 14.5 14.5 0 0 0-0.30078-0.6211zm0.61133 1.3184a14.5 14.5 0 0 1 0.23828 0.6543 14.5 14.5 0 0 0-0.23828-0.6543zm0.47266 1.3574a14.5 14.5 0 0 1 0.17773 0.69335 14.5 14.5 0 0 0-0.17773-0.69335zm-28.09 1.0937a14.5 14.5 0 0 0-0.20312 1.2813 14.5 14.5 0 0 1 0.20312-1.2813zm28.428 0.31446a14.5 14.5 0 0 1 0.10742 0.70508 14.5 14.5 0 0 0-0.10742-0.70508zm-28.654 1.125a14.5 14.5 0 0 0-0.0566 0.91797 14.5 14.5 0 0 1 0.0566-0.91797zm28.852 0.32031a14.5 14.5 0 0 1 0.06055 1.2245 14.5 14.5 0 0 0-0.0605-1.2246zm-28.939 1.2245a14.5 14.5 0 0 0 0.0605 1.2246 14.5 14.5 0 0 1-0.0605-1.2246zm28.969 0.62695a14.5 14.5 0 0 1-0.0566 0.91797 14.5 14.5 0 0 0 0.0566-0.91797zm-0.0801 1.0762a14.5 14.5 0 0 1-0.20312 1.2813 14.5 14.5 0 0 0 0.20312-1.2813zm-28.738 0.26172a14.5 14.5 0 0 0 0.10742 0.70508 14.5 14.5 0 0 1-0.10742-0.70508zm0.26758 1.4199a14.5 14.5 0 0 0 0.17773 0.69335 14.5 14.5 0 0 1-0.17773-0.69335zm0.41211 1.3965a14.5 14.5 0 0 0 0.23828 0.6543 14.5 14.5 0 0 1-0.23828-0.6543zm0.54883 1.3516a14.5 14.5 0 0 0 0.30078 0.6211 14.5 14.5 0 0 1-0.30078-0.6211zm0.66601 1.2578a14.5 14.5 0 0 0 0.37696 0.61719 14.5 14.5 0 0 1-0.37696-0.61719zm0.80274 1.2129a14.5 14.5 0 0 0 0.43164 0.56445 14.5 14.5 0 0 1-0.43164-0.56445zm0.91601 1.1172a14.5 14.5 0 0 0 0.49024 0.52539 14.5 14.5 0 0 1-0.49024-0.52539zm1.0156 1.0156a14.5 14.5 0 0 0 0.55273 0.48437 14.5 14.5 0 0 1-0.55273-0.48437zm1.1172 0.91601a14.5 14.5 0 0 0 0.59571 0.42578 14.5 14.5 0 0 1-0.59571-0.42578zm16.768 0.3125a14.5 14.5 0 0 1-1.1035 0.67969 14.5 14.5 0 0 0 1.1035-0.67969zm-15.555 0.49024a14.5 14.5 0 0 0 0.63671 0.36523 14.5 14.5 0 0 1-0.63671-0.36523zm14.285 0.2832a14.5 14.5 0 0 1-1.0664 0.51953 14.5 14.5 0 0 0 1.0664-0.51953zm-13.027 0.38281a14.5 14.5 0 0 0 0.69726 0.31055 14.5 14.5 0 0 1-0.69726-0.31055zm11.691 0.25586a14.5 14.5 0 0 1-1.0059 0.36914 14.5 14.5 0 0 0 1.0059-0.36914zm-10.34 0.29297a14.5 14.5 0 0 0 0.70313 0.23438 14.5 14.5 0 0 1-0.70313-0.23438zm8.9394 0.20899a14.5 14.5 0 0 1-0.91992 0.23632 14.5 14.5 0 0 0 0.91992-0.23632zm-7.543 0.20312a14.5 14.5 0 0 0 0.71485 0.16016 14.5 14.5 0 0 1-0.71485-0.16016zm6.1055 0.15039a14.5 14.5 0 0 1-0.83789 0.12696 14.5 14.5 0 0 0 0.83789-0.12696zm-4.6855 0.11719a14.5 14.5 0 0 0 0.74023 0.0898 14.5 14.5 0 0 1-0.74023-0.0898zm3.2129 0.0859a14.5 14.5 0 0 1-1.248 0.06449 14.5 14.5 0 0 0 1.248-0.0644z" enable-background="new" fill="#4d4d4d"/>
 <path d="m16 1.5a14.5 14.5 0 0 0-9 3.1504v2.3496h2.6992a11 11 0 0 1 6.3008-2 11 11 0 0 1 11 11 11 11 0 0 1-2.5215 7h2.5215v2.4199a14.5 14.5 0 0 0 3.5-9.4199 14.5 14.5 0 0 0-14.5-14.5zm-11 5.0801a14.5 14.5 0 0 0-3.5 9.4199 14.5 14.5 0 0 0 14.5 14.5 14.5 14.5 0 0 0 9-3.1504v-2.3496h-2.6992a11 11 0 0 1-6.3008 2 11 11 0 0 1-11-11 11 11 0 0 1 2.5215-7h-2.5215v-2z" enable-background="new" fill="#ebebeb"/>
 <circle cx="16" cy="16" r="11" enable-background="new" fill="#babeb4" opacity=".1"/>
 <path d="m1.4055 17.333c0.68899 7.5476 7.0151 13.327 14.594 13.333 7.5812-3e-3 13.911-5.7835 14.6-13.333z" enable-background="new" fill="#fff" opacity=".1"/>
 <circle cx="16" cy="16" r="11" color="#000000" fill-opacity="0"/>
 <path d="m14.477 7-1.7922 3.9481-1.7405 4.1559-1.8005 3.6233-1.348 3.2727h3.4174l1.2363-3.397 7.1502 0.397 1.3 3h3.4034l-1.4739-3.2207-1.7578-3.5974-1.7144-4.1818-1.818-4.0001h-1.5394zm2.753 6.5714 1.8876 4.9874-6.1407-0.23369 1.6448-4.3639 1.3778-3.2838v-0.0202l1.2304 2.9141z" enable-background="new" fill="#ececec"/>
 <path d="m17.539 7-1.505 3.7 2.1152 5.3 0.96844 1.5584 3.2853 0.0887-1.3316-2.4652-1.7144-4.1818-1.818-4.0001zm-0.51493 11.885 2.639 0.17953 1.2357 2.935h3.4008l-1.2723-2.9266-0.0277-0.0734z" enable-background="new" fill="#4d4d4d" opacity=".1"/>
 <rect x="7" y="16" width="18" height="3" rx="1.4687" ry="1.4687" color="#000000" fill="#ececec"/>
 <path d="m8.5996 17c-0.3324 0-0.59961 0.223-0.59961 0.5s0.26721 0.5 0.59961 0.5h4 5.8008 5c0.3324 0 0.59961-0.223 0.59961-0.5s-0.26721-0.5-0.59961-0.5h-5-5.8008z" color="#000000" fill="#4d4d4d" opacity=".2"/>
 <rect x="8" y="17" width="11" height="1" rx=".6" ry=".5" color="#000000" fill="#77216f"/>
 <circle cx="16" cy="16" r="14.5" enable-background="new" fill="none" opacity=".4" stroke="#000" stroke-dashoffset="6.6" stroke-linejoin="round"/>
 <path d="m16 2c-3.4285 0-6.566 1.2372-9 3.2832v1.3418a13 13 0 0 1 9-3.625 13 13 0 0 1 13 13 13 13 0 0 1-2.0625 7h0.0625v1.6426c1.8732-2.381 3-5.378 3-8.6426 0-7.732-6.268-14-14-14zm-11 5.3574c-1.8732 2.381-3 5.378-3 8.6426 0 7.732 6.268 14 14 14 3.4285 0 6.566-1.2372 9-3.2832v-1.3418a13 13 0 0 1-9 3.625 13 13 0 0 1-13-13 13 13 0 0 1 2.0625-7h-0.0625z" enable-background="new" fill="url(#linearGradient8590-3-36)"/>
</svg>
