<svg width="32" height="32" version="1" xmlns="http://www.w3.org/2000/svg" xmlns:xlink="http://www.w3.org/1999/xlink">
 <defs>
  <linearGradient id="linearGradient8590-3" x1="96" x2="96" y1="4" y2="188" gradientTransform="matrix(.15217 0 0 .15217 1.3913 1.3913)" gradientUnits="userSpaceOnUse">
   <stop stop-color="#fff" offset="0"/>
   <stop stop-color="#fff" stop-opacity=".098039" offset=".125"/>
   <stop stop-color="#fff" stop-opacity=".098039" offset=".925"/>
   <stop stop-color="#fff" stop-opacity=".49804" offset="1"/>
  </linearGradient>
  <linearGradient id="linearGradient888" x1="13.735" x2="38.1" y1="249.69" y2="292.77" gradientTransform="matrix(.60892 0 0 .60892 .85556 -149.71)" gradientUnits="userSpaceOnUse">
   <stop stop-color="#948b74" offset="0"/>
   <stop stop-color="#aea795" offset="1"/>
  </linearGradient>
 </defs>
 <circle transform="scale(-1)" cx="-16" cy="-17" r="15" enable-background="new" opacity=".1"/>
 <circle cx="16" cy="16" r="14.5" enable-background="new" fill="url(#linearGradient888)"/>
 <path d="m9 15h14v10h-14z" enable-background="new" opacity=".1"/>
 <path d="m17 17.5v4.5h-2v-4z" color="#000000" color-rendering="auto" image-rendering="auto" opacity=".1" shape-rendering="auto" solid-color="#000000" style="font-feature-settings:normal;font-variant-alternates:normal;font-variant-caps:normal;font-variant-ligatures:none;font-variant-numeric:normal;font-variant-position:normal;isolation:auto;mix-blend-mode:normal;shape-padding:0;text-decoration-color:#000000;text-decoration-line:none;text-decoration-style:solid;text-indent:0;text-transform:none;white-space:normal"/>
 <path d="m16 7.5c2.493 0 4.5 2.007 4.5 4.5v5c0 2.493-2.007 4.5-4.5 4.5s-4.5-2.007-4.5-4.5v-5c0-2.493 2.007-4.5 4.5-4.5z" enable-background="new" fill="none" opacity=".1" stroke="#000" stroke-dashoffset="1" stroke-linejoin="round"/>
 <path d="m9 14v10h14v-10h-14zm8 2.5v4.5h-2v-4l2-0.5z" fill="#fff"/>
 <path d="m16 6c-2.7614 0-5 2.2386-5 5v5c0 2.4189 1.7177 4.4372 4 4.9004v-1.0391c-1.7307-0.44116-3-1.9847-3-3.8613v-5c0-2.2246 1.7754-4 4-4s4 1.7754 4 4v5c0 1.8767-1.2693 3.4202-3 3.8613v1.0391c2.2823-0.46323 4-2.4815 4-4.9004v-5c0-2.7614-2.2386-5-5-5z" color="#000000" color-rendering="auto" dominant-baseline="auto" enable-background="new" fill="#fff" image-rendering="auto" shape-rendering="auto" solid-color="#000000" stop-color="#000000" style="font-feature-settings:normal;font-variant-alternates:normal;font-variant-caps:normal;font-variant-east-asian:normal;font-variant-ligatures:normal;font-variant-numeric:normal;font-variant-position:normal;font-variation-settings:normal;inline-size:0;isolation:auto;mix-blend-mode:normal;shape-margin:0;shape-padding:0;text-decoration-color:#000000;text-decoration-line:none;text-decoration-style:solid;text-indent:0;text-orientation:mixed;text-transform:none;white-space:normal"/>
 <path d="M 3.5606,8.5859 A 14.5,14.5 0 0 0 1.5,16 14.5,14.5 0 0 0 16,30.5 14.5,14.5 0 0 0 28.584,23.1816 Z" enable-background="new" fill="#fff" opacity=".05"/>
 <circle cx="16" cy="16" r="14.5" enable-background="new" fill="none" opacity=".4" stroke="#000" stroke-dashoffset="6.6" stroke-linejoin="round"/>
 <path d="m16 2c-7.732 0-14 6.268-14 14s6.268 14 14 14 14-6.268 14-14-6.268-14-14-14zm0 1a13 13 0 0 1 13 13 13 13 0 0 1-13 13 13 13 0 0 1-13-13 13 13 0 0 1 13-13z" enable-background="new" fill="url(#linearGradient8590-3)"/>
</svg>
