<?xml version="1.0" encoding="UTF-8" standalone="no"?>
<svg
   width="32"
   height="32"
   version="1"
   id="svg407"
   sodipodi:docname="system-file-manager.svg"
   inkscape:version="1.2 (dc2aedaf03, 2022-05-15)"
   xmlns:inkscape="http://www.inkscape.org/namespaces/inkscape"
   xmlns:sodipodi="http://sodipodi.sourceforge.net/DTD/sodipodi-0.dtd"
   xmlns:xlink="http://www.w3.org/1999/xlink"
   xmlns="http://www.w3.org/2000/svg"
   xmlns:svg="http://www.w3.org/2000/svg">
  <sodipodi:namedview
     id="namedview409"
     pagecolor="#ffffff"
     bordercolor="#000000"
     borderopacity="0.25"
     inkscape:showpageshadow="2"
     inkscape:pageopacity="0.0"
     inkscape:pagecheckerboard="0"
     inkscape:deskcolor="#d1d1d1"
     showgrid="false"
     inkscape:zoom="8.75"
     inkscape:cx="9.8857143"
     inkscape:cy="18.057143"
     inkscape:window-width="1310"
     inkscape:window-height="738"
     inkscape:window-x="56"
     inkscape:window-y="30"
     inkscape:window-maximized="1"
     inkscape:current-layer="svg407" />
  <defs
     id="defs385">
    <linearGradient
       id="linearGradient1688"
       x1="320"
       x2="352"
       y1="164"
       y2="132"
       gradientTransform="rotate(90 242 -78)"
       gradientUnits="userSpaceOnUse">
      <stop
         stop-color="#948b74"
         offset="0"
         id="stop371" />
      <stop
         stop-color="#aea795"
         offset="1"
         id="stop373" />
    </linearGradient>
    <linearGradient
       id="linearGradient1688-4"
       x1="322"
       x2="350"
       y1="148"
       y2="148"
       gradientTransform="rotate(90 242 -78)"
       gradientUnits="userSpaceOnUse">
      <stop
         stop-color="#fff"
         offset="0"
         id="stop376" />
      <stop
         stop-color="#fff"
         stop-opacity=".098039"
         offset=".125"
         id="stop378" />
      <stop
         stop-color="#fff"
         stop-opacity=".098039"
         offset=".925"
         id="stop380" />
      <stop
         stop-color="#fff"
         stop-opacity=".49804"
         offset="1"
         id="stop382" />
    </linearGradient>
    <linearGradient
       inkscape:collect="always"
       xlink:href="#linearGradient36441"
       id="linearGradient13836"
       gradientUnits="userSpaceOnUse"
       gradientTransform="translate(-285.71497,-179.92851)"
       x1="320"
       y1="212"
       x2="344"
       y2="189" />
    <linearGradient
       inkscape:collect="always"
       id="linearGradient36441">
      <stop
         style="stop-color:#2c001e;stop-opacity:1"
         offset="0"
         id="stop36437" />
      <stop
         id="stop36445"
         offset="0.10864977"
         style="stop-color:#2c001e;stop-opacity:1" />
      <stop
         style="stop-color:#370626;stop-opacity:1"
         offset="0.18689813"
         id="stop36449" />
      <stop
         id="stop36451"
         offset="0.2980746"
         style="stop-color:#55163b;stop-opacity:1" />
      <stop
         style="stop-color:#772953;stop-opacity:1"
         offset="0.37246177"
         id="stop36453" />
      <stop
         style="stop-color:#7c2b51;stop-opacity:1"
         offset="0.44700962"
         id="stop36447" />
      <stop
         id="stop36455"
         offset="0.52428877"
         style="stop-color:#8b314b;stop-opacity:1" />
      <stop
         style="stop-color:#8b314b;stop-opacity:1"
         offset="0.59614229"
         id="stop36457" />
      <stop
         id="stop36459"
         offset="0.66876179"
         style="stop-color:#a33a41;stop-opacity:1" />
      <stop
         style="stop-color:#c44732;stop-opacity:1"
         offset="0.79755175"
         id="stop36461" />
      <stop
         id="stop36463"
         offset="0.91251218"
         style="stop-color:#e65524;stop-opacity:1" />
      <stop
         style="stop-color:#e65524;stop-opacity:1"
         offset="1"
         id="stop36439" />
    </linearGradient>
    <linearGradient
       inkscape:collect="always"
       xlink:href="#linearGradient1952"
       id="linearGradient13844"
       gradientUnits="userSpaceOnUse"
       gradientTransform="translate(-285.71497,-179.92851)"
       x1="320"
       y1="194"
       x2="344"
       y2="211" />
    <linearGradient
       inkscape:collect="always"
       id="linearGradient1952">
      <stop
         id="stop1948"
         offset="0"
         style="stop-color:#8c8c8c;stop-opacity:1" />
      <stop
         id="stop1950"
         offset="1"
         style="stop-color:#b8b8b8;stop-opacity:1" />
    </linearGradient>
  </defs>
  <g
     id="g1030"
     transform="matrix(1.2497773,0,0,1.2497773,-41.846836,-8.8336599)">
    <path
       style="color:#000000;font-style:normal;font-variant:normal;font-weight:normal;font-stretch:normal;font-size:medium;line-height:normal;font-family:sans-serif;font-variant-ligatures:normal;font-variant-position:normal;font-variant-caps:normal;font-variant-numeric:normal;font-variant-alternates:normal;font-feature-settings:normal;text-indent:0;text-align:start;text-decoration:none;text-decoration-line:none;text-decoration-style:solid;text-decoration-color:#000000;letter-spacing:normal;word-spacing:normal;text-transform:none;writing-mode:lr-tb;direction:ltr;text-orientation:mixed;dominant-baseline:auto;baseline-shift:baseline;text-anchor:start;white-space:normal;shape-padding:0;clip-rule:nonzero;display:inline;overflow:visible;visibility:visible;opacity:0.1;isolation:auto;mix-blend-mode:normal;color-interpolation:sRGB;color-interpolation-filters:linearRGB;solid-color:#000000;solid-opacity:1;fill:#491706;fill-opacity:1;fill-rule:nonzero;stroke:none;stroke-width:1;stroke-linecap:butt;stroke-linejoin:miter;stroke-miterlimit:4;stroke-dasharray:none;stroke-dashoffset:0;stroke-opacity:1;marker:none;color-rendering:auto;image-rendering:auto;shape-rendering:auto;text-rendering:auto;enable-background:accumulate"
       d="m 39.28503,10.07149 c -1.4879,0 -2.7468,-0.0902 -3.7617,0.71484 -0.5243,0.41584 -0.8514,1.02823 -1.0254,1.73438 -0.1722,0.69874 -0.2241,1.52024 -0.2129,2.5625 v 11.98828 c 0,1.04081 0.061,1.8596 0.2344,2.55469 0.1754,0.70174 0.495,1.31008 1.0156,1.72656 1.0084,0.80675 2.2618,0.71875 3.75,0.71875 h 14 c 1.0408,0 1.8596,-0.0606 2.5547,-0.23438 0.7017,-0.17542 1.3101,-0.49501 1.7266,-1.01562 0.8067,-1.00842 0.7187,-2.26181 0.7187,-3.75 v -10 c 0,-1.04081 -0.061,-1.8596 -0.2344,-2.55469 -0.1754,-0.70174 -0.495,-1.31008 -1.0156,-1.72656 -1.0084,-0.80675 -2.2618,-0.71875 -3.75,-0.71875 h -7.5586 l -2.0312,-2 z"
       id="path3451-81"
       inkscape:connector-curvature="0"
       sodipodi:nodetypes="scccsccssccssccsccs" />
    <path
       style="color:#000000;font-style:normal;font-variant:normal;font-weight:normal;font-stretch:normal;font-size:medium;line-height:normal;font-family:sans-serif;font-variant-ligatures:normal;font-variant-position:normal;font-variant-caps:normal;font-variant-numeric:normal;font-variant-alternates:normal;font-feature-settings:normal;text-indent:0;text-align:start;text-decoration:none;text-decoration-line:none;text-decoration-style:solid;text-decoration-color:#000000;letter-spacing:normal;word-spacing:normal;text-transform:none;writing-mode:lr-tb;direction:ltr;text-orientation:mixed;dominant-baseline:auto;baseline-shift:baseline;text-anchor:start;white-space:normal;shape-padding:0;clip-rule:nonzero;display:inline;overflow:visible;visibility:visible;isolation:auto;mix-blend-mode:normal;color-interpolation:sRGB;color-interpolation-filters:linearRGB;solid-color:#000000;solid-opacity:1;fill:url(#linearGradient13836);fill-opacity:1;fill-rule:nonzero;stroke:none;stroke-width:1;stroke-linecap:butt;stroke-linejoin:miter;stroke-miterlimit:4;stroke-dasharray:none;stroke-dashoffset:0;stroke-opacity:1;marker:none;color-rendering:auto;image-rendering:auto;shape-rendering:auto;text-rendering:auto;enable-background:accumulate"
       d="m 39.28503,9.57149 c -1.5,0 -2.6169,-0.0543 -3.4512,0.60742 -0.4171,0.33086 -0.6939,0.82918 -0.8496,1.46094 -0.1557,0.63176 -0.2102,1.41577 -0.1992,2.4375 v 11.99414 c 0,1.02083 0.061,1.80346 0.2188,2.43359 0.1575,0.63014 0.4296,1.12577 0.8437,1.45703 0.8282,0.66253 1.9375,0.60938 3.4375,0.60938 h 14 c 1.0208,0 1.8035,-0.0612 2.4336,-0.21875 0.6301,-0.15753 1.1258,-0.42967 1.457,-0.84375 0.6626,-0.82815 0.6094,-1.9375 0.6094,-3.4375 v -10 c 0,-1.02083 -0.061,-1.80346 -0.2187,-2.43359 -0.1576,-0.63014 -0.4297,-1.12577 -0.8438,-1.45703 -0.8281,-0.66253 -1.9375,-0.60938 -3.4375,-0.60938 h -7.7637 l -2.0312,-2 z"
       id="path3457-21"
       inkscape:connector-curvature="0"
       sodipodi:nodetypes="ssscsccssccssccsccs" />
    <path
       inkscape:connector-curvature="0"
       id="path3481-8"
       d="m 57.34953,24.00704 -6.0645,6.06445 h 1.1895 c 4.421,0 4.875,-0.45302 4.875,-4.86523 z"
       style="color:#000000;display:inline;overflow:visible;visibility:visible;opacity:0.2;fill:#ffffff;fill-opacity:1;fill-rule:nonzero;stroke:none;stroke-width:1;marker:none;enable-background:accumulate"
       sodipodi:nodetypes="ccssc" />
    <path
       id="path3483-9"
       d="m 46.31823,13.07149 h -2.0332 l -4.5603,0.0664 c -4.4204,0.0733 -4.875,0.45496 -4.875,4.86718 v 1 c 0,-4.41222 0.4546,-4.79388 4.875,-4.86718 l 4.5603,-0.0664 h 2.0332 6.6563 c 4.4211,0 4.875,0.45301 4.875,4.86523 v -1 c 0,-4.41222 -0.4539,-4.86523 -4.875,-4.86523 z"
       style="color:#000000;display:inline;overflow:visible;visibility:visible;opacity:0.25;fill:#000000;fill-opacity:1;fill-rule:nonzero;stroke:none;stroke-width:1;marker:none;enable-background:accumulate"
       inkscape:connector-curvature="0"
       sodipodi:nodetypes="cccsccccscssc" />
    <path
       inkscape:connector-curvature="0"
       id="path3489-73"
       d="m 46.28303,14.0708 h -2.0316 -5.4697 c -2.9644,0 -3.9729,0.0155 -3.9967,3.87305 -3e-4,2.53011 0.01,7.06071 0.068,9.58984 -0.022,1.09016 0.4293,2.30923 1.4964,2.76953 0.8311,0.4034 1.7843,0.18731 2.6723,0.25391 5.3659,0.0234 10.7337,0.0159 16.0985,-0.006 0.8643,-0.19868 1.8649,-0.47721 2.2797,-1.34961 0.5363,-1.02226 0.2883,-2.21696 0.3673,-3.32031 0,-1.68571 0.016,-3.3706 0.017,-5.05664 v -0.72852 c -8e-4,-1.12557 -0.023,-2.25166 -0.039,-3.37695 -0.2191,-2.64381 -1.3479,-2.64844 -3.9617,-2.64844 z"
       style="color:#000000;display:inline;overflow:visible;visibility:visible;fill:url(#linearGradient13844);fill-opacity:1;fill-rule:nonzero;stroke:none;stroke-width:1.00009;marker:none;enable-background:accumulate"
       sodipodi:nodetypes="ccscccccccccccc" />
    <path
       sodipodi:nodetypes="ccsscsccsccsc"
       inkscape:connector-curvature="0"
       style="color:#000000;display:inline;overflow:visible;visibility:visible;opacity:0.5;fill:#ffffff;fill-opacity:1;fill-rule:nonzero;stroke:none;stroke-width:1;marker:none;enable-background:accumulate"
       d="m 46.28313,14.07149 h -2.0313 -5.4685 c -3,0 -4,0 -4,4 v 1 c 0,-4 0.72968,-4 4,-4 h 5.4685 2.0313 7.5 c 3,0 4.043,0 4,4 v -1 c 0.043,-4 -1,-4 -4,-4 z"
       id="path3491-71" />
    <path
       sodipodi:nodetypes="ssscsccssccssccsccs"
       inkscape:connector-curvature="0"
       id="path3493-22"
       d="m 39.28503,9.57149 c -1.5,0 -2.6169,-0.0543 -3.4512,0.60742 -0.4171,0.33086 -0.6939,0.82918 -0.8496,1.46094 -0.1557,0.63176 -0.2102,1.41577 -0.1992,2.4375 v 11.99414 c 0,1.02083 0.061,1.80346 0.2188,2.43359 0.1575,0.63014 0.4296,1.12577 0.8437,1.45703 0.8282,0.66253 1.9375,0.60938 3.4375,0.60938 h 14 c 1.0208,0 1.8035,-0.0612 2.4336,-0.21875 0.6301,-0.15753 1.1258,-0.42967 1.457,-0.84375 0.6626,-0.82815 0.6094,-1.9375 0.6094,-3.4375 v -10 c 0,-1.02083 -0.061,-1.80346 -0.2187,-2.43359 -0.1576,-0.63014 -0.4297,-1.12577 -0.8438,-1.45703 -0.8281,-0.66253 -1.9375,-0.60938 -3.4375,-0.60938 h -7.7637 l -2.0312,-2 z"
       style="color:#000000;font-style:normal;font-variant:normal;font-weight:normal;font-stretch:normal;font-size:medium;line-height:normal;font-family:sans-serif;font-variant-ligatures:normal;font-variant-position:normal;font-variant-caps:normal;font-variant-numeric:normal;font-variant-alternates:normal;font-feature-settings:normal;text-indent:0;text-align:start;text-decoration:none;text-decoration-line:none;text-decoration-style:solid;text-decoration-color:#000000;letter-spacing:normal;word-spacing:normal;text-transform:none;writing-mode:lr-tb;direction:ltr;text-orientation:mixed;dominant-baseline:auto;baseline-shift:baseline;text-anchor:start;white-space:normal;shape-padding:0;clip-rule:nonzero;display:inline;overflow:visible;visibility:visible;opacity:0.4;isolation:auto;mix-blend-mode:normal;color-interpolation:sRGB;color-interpolation-filters:linearRGB;solid-color:#000000;solid-opacity:1;fill:none;fill-opacity:1;fill-rule:nonzero;stroke:#000000;stroke-width:1;stroke-linecap:butt;stroke-linejoin:miter;stroke-miterlimit:4;stroke-dasharray:none;stroke-dashoffset:0;stroke-opacity:1;marker:none;color-rendering:auto;image-rendering:auto;shape-rendering:auto;text-rendering:auto;enable-background:accumulate" />
    <path
       id="path3511-1"
       d="m 43.28433,10.07149 2.0313,2 h 7.9687 c 3,0 4,0 4,4 v 1 c 0,-4 -1,-4 -4,-4 h -7.9687 l -2.0313,-2 h -4 c -3,0 -4.0429,0 -4,4 v -1 c -0.043,-4 1,-4 4,-4 z"
       style="color:#000000;display:inline;overflow:visible;visibility:visible;opacity:0.3;fill:#fec589;fill-opacity:1;fill-rule:nonzero;stroke:none;stroke-width:1;marker:none;enable-background:accumulate"
       inkscape:connector-curvature="0"
       sodipodi:nodetypes="ccsscsccsccsc" />
    <path
       inkscape:connector-curvature="0"
       style="color:#000000;display:inline;overflow:visible;visibility:visible;opacity:0.05;fill:#ffffff;fill-opacity:1;fill-rule:nonzero;stroke:none;stroke-width:1;marker:none;enable-background:accumulate"
       d="m 57.28313,23.07344 -6.9981,6.99805 h 2.9981 c 3,0 4,0 4,-4 z"
       id="path3519-7" />
    <rect
       style="display:inline;opacity:0.3;fill:#000000;fill-opacity:1;stroke:none;stroke-width:4;stroke-linecap:round;stroke-linejoin:round;enable-background:new"
       id="rect3190-6"
       width="6"
       height="2"
       x="43.28503"
       y="18.071449"
       rx="1"
       ry="1" />
    <rect
       style="display:inline;fill:#efefef;fill-opacity:1;stroke:none;stroke-width:4;stroke-linecap:round;stroke-linejoin:round;enable-background:new"
       id="rect3190"
       width="6"
       height="2"
       x="43.28503"
       y="17.071449"
       rx="1"
       ry="1" />
  </g>
</svg>
