<svg width="32" height="32" version="1" xmlns="http://www.w3.org/2000/svg" xmlns:xlink="http://www.w3.org/1999/xlink">
 <defs>
  <linearGradient id="linearGradient8588-0" x1="13.735" x2="38.1" y1="249.69" y2="292.77" gradientTransform="matrix(.60892 0 0 .60892 .85556 -149.71)" gradientUnits="userSpaceOnUse">
   <stop stop-color="#da1636" offset="0"/>
   <stop stop-color="#f22c42" offset="1"/>
  </linearGradient>
  <linearGradient id="linearGradient8590-3" x1="96" x2="96" y1="4" y2="188" gradientTransform="matrix(.15217 0 0 .15217 1.3913 1.3913)" gradientUnits="userSpaceOnUse">
   <stop stop-color="#fff" offset="0"/>
   <stop stop-color="#fff" stop-opacity=".098039" offset=".125"/>
   <stop stop-color="#fff" stop-opacity=".098039" offset=".925"/>
   <stop stop-color="#fff" stop-opacity=".49804" offset="1"/>
  </linearGradient>
 </defs>
 <circle transform="scale(-1)" cx="-16" cy="-17" r="15" enable-background="new" opacity=".1"/>
 <circle cx="16" cy="16" r="14.5" enable-background="new" fill="url(#linearGradient8588-0)"/>
 <path d="m1.4055 17.333a14.667 14.667 0 0 0 14.594 13.333 14.667 14.667 0 0 0 14.6-13.333z" enable-background="new" fill="#fff" opacity=".05"/>
 <path d="m15.74 23.859c-2.8767-0.79797-3.9822-4.2224-2.4682-7.6458 0.23519-0.5318 0.42684-1.0155 0.42589-1.0749-9e-4 -0.0594-0.59199-0.12435-1.3134-0.14434-2.3227-0.0644-4.1764-0.89302-4.8348-2.1612-0.37481-0.72201-0.38267-2.2907-0.015-2.9988 0.46972-0.90466 1.3857-1.5734 2.4607-1.7966 1.1541-0.23959 1.2341-0.22708 5.6894 0.88875 3.1494 0.78876 3.589 0.85854 5.0062 0.79467 1.2706-0.0573 1.7308-0.15871 2.5262-0.55686 0.5357-0.26815 1.0979-0.43876 1.2516-0.3798 1.2473 0.47863-2.1209 2.221-4.7548 2.4596-1.5671 0.14201-3.0522-0.0766-6.5605-0.96588-3.3644-0.85278-3.9272-0.87194-4.5311-0.15424-0.33838 0.40214-0.44692 0.72306-0.44692 1.3214 0 0.69754 0.0811 0.86747 0.69086 1.4475 0.89983 0.85598 2.0367 1.1891 4.0446 1.1852l1.5655-3e-3 0.57204-0.87466c0.43606-0.66675 0.78098-0.96688 1.451-1.2626 0.4834-0.21334 1.0564-0.35395 1.2734-0.31247 0.39097 0.0747 0.38895 0.0838-0.22557 1.0093-0.34104 0.51364-0.58887 0.96012-0.55075 0.99217 0.0381 0.032 0.61311-0.0797 1.2777-0.24826 1.1023-0.27961 1.2271-0.28241 1.4212-0.0319 0.40525 0.52287-0.0889 0.76633-2.6296 1.2956l-1.0358 0.21576-0.61527 1.241c-1.8266 3.6842-1.162 6.9588 1.4122 6.9588 0.51 0 1.125-0.13682 1.5194-0.33804 2.2623-1.1542 3.604-5.186 1.7258-5.186-1.0183 0-2.258 1.0271-2.8892 2.3937-0.33523 0.72579-0.51324 0.88895-0.8351 0.76544-0.83372-0.31993 0.75232-2.946 2.2366-3.7032 1.8888-0.96358 3.6483-1e-3 3.6476 1.9944-1e-3 2.9548-3.6194 5.6721-6.4919 4.8753z" enable-background="new" opacity=".1" stroke-width="3.7797"/>
 <path d="m15.74 22.859c-2.8767-0.79797-3.9822-4.2224-2.4682-7.6458 0.23519-0.5318 0.42684-1.0155 0.42589-1.0749-9e-4 -0.0594-0.59199-0.12435-1.3134-0.14434-2.3227-0.0644-4.1764-0.89302-4.8348-2.1612-0.37481-0.72201-0.38267-2.2907-0.015-2.9988 0.46972-0.90466 1.3857-1.5734 2.4607-1.7966 1.1541-0.23959 1.2341-0.22708 5.6894 0.88875 3.1494 0.78876 3.589 0.85854 5.0062 0.79467 1.2706-0.0573 1.7308-0.15871 2.5262-0.55686 0.5357-0.26815 1.0979-0.43876 1.2516-0.3798 1.2473 0.47863-2.1209 2.221-4.7548 2.4596-1.5671 0.14201-3.0522-0.0766-6.5605-0.96588-3.3644-0.85278-3.9272-0.87194-4.5311-0.15424-0.33838 0.40214-0.44692 0.72306-0.44692 1.3214 0 0.69754 0.0811 0.86747 0.69086 1.4475 0.89983 0.85598 2.0367 1.1891 4.0446 1.1852l1.5655-3e-3 0.57204-0.87466c0.43606-0.66675 0.78098-0.96688 1.451-1.2626 0.4834-0.21334 1.0564-0.35395 1.2734-0.31247 0.39097 0.0747 0.38895 0.0838-0.22557 1.0093-0.34104 0.51364-0.58887 0.96012-0.55075 0.99217 0.0381 0.032 0.61311-0.0797 1.2777-0.24826 1.1023-0.27961 1.2271-0.28241 1.4212-0.0319 0.40525 0.52287-0.0889 0.76633-2.6296 1.2956l-1.0358 0.21576-0.61527 1.241c-1.8266 3.6842-1.162 6.9588 1.4122 6.9588 0.51 0 1.125-0.13682 1.5194-0.33804 2.2623-1.1542 3.604-5.186 1.7258-5.186-1.0183 0-2.258 1.0271-2.8892 2.3937-0.33523 0.72579-0.51324 0.88895-0.8351 0.76544-0.83372-0.31993 0.75232-2.946 2.2366-3.7032 1.8888-0.96358 3.6483-1e-3 3.6476 1.9944-1e-3 2.9548-3.6194 5.6721-6.4919 4.8753z" enable-background="new" fill="#fff" stroke-width="3.7797"/>
 <circle cx="16" cy="16" r="14.5" enable-background="new" fill="none" opacity=".4" stroke="#000" stroke-dashoffset="6.6" stroke-linejoin="round"/>
 <path d="m16 2c-7.732 0-14 6.268-14 14s6.268 14 14 14 14-6.268 14-14-6.268-14-14-14zm0 1a13 13 0 0 1 13 13 13 13 0 0 1-13 13 13 13 0 0 1-13-13 13 13 0 0 1 13-13z" enable-background="new" fill="url(#linearGradient8590-3)"/>
</svg>
