<svg width="32" height="32" version="1" xmlns="http://www.w3.org/2000/svg" xmlns:xlink="http://www.w3.org/1999/xlink">
 <defs>
  <linearGradient id="linearGradient1688" x1="321" x2="351" y1="148" y2="148" gradientTransform="matrix(0 1 1 0 -132 -320)" gradientUnits="userSpaceOnUse">
   <stop stop-color="#8c8c8c" offset="0"/>
   <stop stop-color="#b8b8b8" offset="1"/>
  </linearGradient>
  <linearGradient id="linearGradient4655-4-9" x1="72" x2="232" y1="156" y2="156" gradientTransform="matrix(0 -.12319 .125 0 -3.5 34.746)" gradientUnits="userSpaceOnUse">
   <stop stop-color="#fdfdfd" offset="0"/>
   <stop stop-color="#f1f0e9" offset="1"/>
  </linearGradient>
  <linearGradient id="linearGradient1688-4" x1="322" x2="350" y1="148" y2="148" gradientTransform="rotate(90,242,-78)" gradientUnits="userSpaceOnUse">
   <stop stop-color="#fff" offset="0"/>
   <stop stop-color="#fff" stop-opacity=".098039" offset=".125"/>
   <stop stop-color="#fff" stop-opacity=".098039" offset=".925"/>
   <stop stop-color="#fff" stop-opacity=".49804" offset="1"/>
  </linearGradient>
 </defs>
 <path d="m9.3009 2c-1.6395 0-2.9408 0.0308-4.045 0.19141-1.1042 0.16064-2.067 0.4726-2.7831 1.0918s-1.0805 1.4561-1.2642 2.4141c-0.18374 0.95795-0.21537 2.087-0.20733 3.5117v7.791 7.7969c-9e-3 1.4213 0.0239 2.5495 0.20733 3.5058 0.18371 0.95796 0.5481 1.7949 1.2642 2.4141s1.6789 0.93115 2.7831 1.0918c1.1042 0.16065 2.4056 0.19141 4.045 0.19141h13.402c1.6395 0 2.9384-0.0307 4.0405-0.19141 1.1022-0.16075 2.0627-0.47425 2.7763-1.0938 0.71357-0.6195 1.0746-1.4536 1.2597-2.4102 0.18515-0.95653 0.22086-2.084 0.22086-3.5078v-7.7969-7.7969c0-1.4238-0.0358-2.5513-0.22086-3.5078-0.18512-0.95653-0.54612-1.7906-1.2597-2.4102-0.71359-0.61951-1.6741-0.933-2.7763-1.0938-1.1022-0.16076-2.401-0.19141-4.0405-0.19141z" color="#000000" color-rendering="auto" dominant-baseline="auto" image-rendering="auto" opacity=".1" shape-rendering="auto" solid-color="#000000" style="font-feature-settings:normal;font-variant-alternates:normal;font-variant-caps:normal;font-variant-ligatures:normal;font-variant-numeric:normal;font-variant-position:normal;isolation:auto;mix-blend-mode:normal;shape-padding:0;text-decoration-color:#000000;text-decoration-line:none;text-decoration-style:solid;text-indent:0;text-orientation:mixed;text-transform:none;white-space:normal"/>
 <path d="m22.873 1.5c6.4516 0 7.6603 0.58409 7.6264 6.2823v8.2176 8.2178c0.034 5.6982-1.1748 6.2823-7.6264 6.2823h-13.747c-6.45 0-7.6264-0.58403-7.6264-6.2823v-8.2178-8.2176c0-5.6982 1.1764-6.2823 7.6264-6.2823z" color="#000000" fill="url(#linearGradient1688)"/>
 <path d="m16 1.5v29h6.873c6.4516 0 7.6609-0.58502 7.627-6.2832v-16.434c0.034-5.6982-1.1753-6.2832-7.627-6.2832z" enable-background="new" opacity=".04" stroke-width="4"/>
 <path d="m7 10c-0.554 0-1 0.43953-1 0.98552v15.029c0 0.546 0.446 0.98551 1 0.98551h18c0.554 0 1-0.43951 1-0.98551v-15.029c0-0.54599-0.446-0.98552-1-0.98552zm12 1v8h3l-6 6.7681-6-6.7681h3v-8z" enable-background="new" opacity=".15" stroke-width=".49636"/>
 <path d="m7 9c-0.554 0-1 0.43953-1 0.98552v15.029c0 0.546 0.446 0.98551 1 0.98551h18c0.554 0 1-0.43951 1-0.98551v-15.029c0-0.54599-0.446-0.98552-1-0.98552zm12 1v8h3l-6 6.7681-6-6.7681h3v-8z" enable-background="new" fill="url(#linearGradient4655-4-9)" stroke-width=".49636"/>
 <path d="m7 9c-0.554 0-1 0.43953-1 0.9855v8.0145l7-0.1232v-8h6v8l7 0.1232v-8.0145c0-0.54597-0.446-0.9855-1-0.9855z" enable-background="new" opacity=".06" stroke-width=".49636"/>
 <circle cx="8" cy="24" r="1" enable-background="new" fill="#c8c4b7" stroke-width=".5"/>
 <circle cx="24" cy="24" r="1" enable-background="new" fill="#c8c4b7" stroke-width=".5"/>
 <path d="m15.918 6c-1.6478 0-2.9727 0.446-2.9727 1h-2.0137c-2.6336 0-4.641 0.32378-4.8828 0.75h-0.04883c-0.554 0-1 0.94775-1 2.125s0.446 2.125 1 2.125v0.16602c0 0.46166 2.1241 0.83398 4.9316 0.83398h2.0137c0 0.554 1.3248 1 2.9727 1h0.10742c1.6478 0 2.9746-0.446 2.9746-1h2.0684c2.8076 0 4.9316-0.36585 4.9316-0.83398v-0.16602c0.554 0 1-0.94775 1-2.125s-0.446-2.125-1-2.125h-0.0488c-0.2418-0.42158-2.2492-0.75-4.8828-0.75h-2.0684c0-0.554-1.3268-1-2.9746-1z" enable-background="new" opacity=".25" stroke-width=".46771"/>
 <g transform="matrix(.125 0 0 .10938 -40 9.375)" enable-background="new">
  <g transform="translate(296 -108)" enable-background="new">
   <rect x="64" y="84" width="176" height="38.857" rx="8" ry="19.429" enable-background="new" fill="#fdfdfd" stroke-width="4"/>
   <path d="m111.46 77.143h81.085c22.461 0 39.457 3.3981 39.457 7.619v39.619c0 4.28-16.996 7.619-39.457 7.619h-81.085c-22.461 0-39.458-3.3981-39.458-7.619v-39.619c0-4.28 16.998-7.619 39.458-7.619z" enable-background="new" fill="#ff2a2a" stroke-width="3.93"/>
   <rect x="127.56" y="68" width="48.444" height="73.143" rx="23.795" ry="9.1429" enable-background="new" fill="#fdfdfd" stroke-width="4"/>
  </g>
 </g>
 <path d="m15.918 5c-1.6478 0-2.9727 0.446-2.9727 1h-2.0137c-2.6336 0-4.641 0.32378-4.8828 0.75h-0.04883c-0.554 0-1 0.94775-1 2.125 0 0.12983 0.0248 0.24195 0.0352 0.36523 0.12815-0.8592 0.49162-1.4902 0.93945-1.4902h0.0488c0.24179-0.42622 2.2492-0.75 4.8828-0.75h2.0137c0-0.554 1.3248-1 2.9727-1h0.10741c1.6478 0 2.9746 0.446 2.9746 1h2.0684c2.6336 0 4.641 0.32842 4.8828 0.75h0.0488c0.4929 0 0.88098 0.76515 0.96484 1.7598 0.0304-0.20371 0.0605-0.40915 0.0605-0.63477 0-1.1772-0.446-2.125-1-2.125h-0.0488c-0.24172-0.42158-2.2492-0.75-4.8828-0.75h-2.0684c0-0.554-1.3268-1-2.9746-1z" enable-background="new" fill="#fdfdfd" opacity=".6" stroke-width=".46771"/>
 <path d="m9.1271 1.5c-6.4516 0-7.6603 0.58409-7.6264 6.2823v8.2176 8.2178c-0.034 5.6982 1.1748 6.2823 7.6264 6.2823h13.747c6.45 0 7.6264-0.58403 7.6264-6.2823v-8.2178-8.2176c0-5.6982-1.1764-6.2823-7.6264-6.2823z" color="#000000" fill="none" opacity=".5" stroke="#000"/>
 <path d="m9.1269 2c-3.2107 0-5.0326 0.19514-5.9375 0.89844-0.45247 0.35165-0.74178 0.83286-0.93359 1.6172-0.19176 0.78433-0.26386 1.8569-0.25586 3.2637v2e-3 8.2188 8.2188 2e-3c-8e-3 1.4068 0.0641 2.4794 0.25586 3.2637 0.1918 0.78431 0.48112 1.2655 0.93359 1.6172 0.90496 0.7033 2.7268 0.89844 5.9375 0.89844h13.746c3.2099 0 5.0246-0.19551 5.9258-0.89844 0.45058-0.35146 0.73805-0.83201 0.93164-1.6172 0.19363-0.7853 0.26953-1.8603 0.26953-3.2677v-8.2168-8.2168c0-1.4074-0.0759-2.4824-0.26953-3.2676-0.19359-0.78517-0.48106-1.2657-0.93164-1.6172-0.90117-0.70293-2.7159-0.89844-5.9258-0.89844zm6.4981 1.0469c3.4565 0.0171 6.9142-0.0268 10.361 0.0918 0.8211 0.13276 1.8066 0.14835 2.3906 0.82617 0.67884 1.1647 0.51296 2.5878 0.56446 3.873 0.0431 6.0289 0.0678 12.067-0.0332 18.088-0.0775 0.77792-0.12055 1.6726-0.67968 2.2754-0.70249 0.51038-1.6183 0.59683-2.459 0.67383-4.0474 0.0864-8.1622 0.0456-12.24 0.0606-2.4519-0.0199-4.914 0.0317-7.3535-0.0606-0.87784-0.12055-1.915-0.14021-2.5606-0.83398-0.64775-1.0259-0.50264-2.3052-0.56054-3.4648-0.035-5.6558-0.0351-11.355 0-17.01 0.0632-1.2215-0.10864-2.5772 0.59179-3.6524 0.6025-0.62665 1.5562-0.63986 2.3594-0.77344 2.7374-0.10739 5.4808-0.0704 8.2266-0.0918 0.46403-2.9e-4 0.92855-2e-3 1.3926-2e-3z" color="#000000" fill="url(#linearGradient1688-4)" filter="url(#filter2970)"/>
</svg>
