<svg width="32" height="32" version="1" xmlns="http://www.w3.org/2000/svg" xmlns:xlink="http://www.w3.org/1999/xlink">
 <defs>
  <linearGradient id="linearGradient3814" x1="340" x2="340" y1="135" y2="161" gradientTransform="matrix(.90476 0 0 .90559 -288 -118.85)" gradientUnits="userSpaceOnUse">
   <stop stop-color="#fff" offset="0"/>
   <stop stop-color="#fff" stop-opacity="0" offset=".090625"/>
   <stop stop-color="#fff" stop-opacity="0" offset="1"/>
  </linearGradient>
  <linearGradient id="linearGradient3568" x1="336" x2="336" y1="136" y2="160" gradientTransform="matrix(.9 0 0 .88235 -286.4 -116.12)" gradientUnits="userSpaceOnUse">
   <stop stop-color="#0b508a" offset="0"/>
   <stop stop-color="#083d6a" offset="1"/>
  </linearGradient>
  <clipPath id="clipPath3864">
   <path d="m335.35 135c-4.5408 0-6.5995 0.56263-7.1945 1.1618-0.70163 0.70656-1.1551 2.2846-1.1551 6.3369 0 4.0524 0.45351 5.6304 1.1551 6.3369 0.59496 0.59917 2.6536 1.1643 7.1945 1.1643h1.3008c4.5409 0 6.5995-0.56518 7.1945-1.1643 0.70162-0.70656 1.1551-2.2846 1.1551-6.3369 0-4.0524-0.45352-5.6304-1.1551-6.3369-0.59496-0.59917-2.6536-1.1618-7.1945-1.1618z" color="#000000" color-rendering="auto" dominant-baseline="auto" enable-background="new" fill="#fff" image-rendering="auto" shape-rendering="auto" solid-color="#000000" style="font-feature-settings:normal;font-variant-alternates:normal;font-variant-caps:normal;font-variant-ligatures:normal;font-variant-numeric:normal;font-variant-position:normal;isolation:auto;mix-blend-mode:normal;shape-padding:0;text-decoration-color:#000000;text-decoration-line:none;text-decoration-style:solid;text-indent:0;text-orientation:mixed;text-transform:none;white-space:normal"/>
  </clipPath>
 </defs>
 <path d="m15.127 2.5165c-4.4535 0-6.8321 0.36616-8.0463 1.5795-1.2142 1.2133-1.5803 3.5908-1.5803 8.0394v8.7458c0 4.4486 0.36607 6.8261 1.5803 8.0394 1.2142 1.2133 3.5928 1.5795 8.0463 1.5795h1.7468c4.4535 0 6.8321-0.36617 8.0463-1.5795 1.2142-1.2133 1.5803-3.5908 1.5803-8.0394v-8.7458c0-4.4486-0.36607-6.8261-1.5803-8.0394-1.2142-1.2133-3.5928-1.5795-8.0463-1.5795z" enable-background="new" opacity=".1" stroke="#000" stroke-linecap="round" stroke-linejoin="round"/>
 <path d="m15.127 1.5165c-4.4535 0-6.8321 0.36616-8.0463 1.5795-1.2142 1.2133-1.5803 3.5908-1.5803 8.0394v8.7458c0 4.4486 0.36607 6.8261 1.5803 8.0394 1.2142 1.2133 3.5928 1.5795 8.0463 1.5795h1.7468c4.4535 0 6.8321-0.36617 8.0463-1.5795 1.2142-1.2133 1.5803-3.5908 1.5803-8.0394v-8.7458c0-4.4486-0.36607-6.8261-1.5803-8.0394-1.2142-1.2133-3.5928-1.5795-8.0463-1.5795z" enable-background="new" fill="#1a7fd4" stroke="#0b3457" stroke-linecap="round" stroke-linejoin="round" stroke-opacity=".68372"/>
 <path d="m15.134 2.555h1.7318c4.3635 0 6.484 0.45093 7.3335 1.3 0.84938 0.84891 1.3006 2.9684 1.3006 7.3279v6.6892c0 4.3595-0.45121 6.479-1.3006 7.3279-0.84956 0.8491-2.97 1.3-7.3335 1.3h-1.7318c-4.3635 0-6.4839-0.45092-7.3335-1.3-0.84939-0.84891-1.3006-2.9684-1.3006-7.3279v-6.6892c0-4.3595 0.45121-6.479 1.3006-7.3279 0.84958-0.8491 2.97-1.3 7.3335-1.3z" color="#000000" color-rendering="auto" dominant-baseline="auto" enable-background="new" fill="none" image-rendering="auto" opacity=".4" shape-rendering="auto" solid-color="#000000" stroke="url(#linearGradient3814)" stroke-linecap="round" stroke-linejoin="round" style="font-feature-settings:normal;font-variant-alternates:normal;font-variant-caps:normal;font-variant-ligatures:normal;font-variant-numeric:normal;font-variant-position:normal;isolation:auto;mix-blend-mode:normal;shape-padding:0;text-decoration-color:#000000;text-decoration-line:none;text-decoration-style:solid;text-indent:0;text-orientation:mixed;text-transform:none;white-space:normal"/>
 <path d="m14.849 20.059-0.56875 0.97709 1.6188 0.93334 1.0938-1.9104zm2.4208 0-0.81669 1.4146 0.525 0.88959-0.39372 0.23333 1.9104 0.52499 0.51041-1.925-0.40835 0.23334-0.80206-1.3708zm-2.4208 1.8375-1.9104 0.52499 0.40834 0.23334-0.7 1.1812 0.37916 0.65625h1.4146l0.52497-0.90416 0.39375 0.23332zm4.6812 1.1521-1.6188 0.93334 0.99165 1.7646 0.14578-0.24791 0.3354-0.59791 0.10206-0.175 0.51041-0.88959zm-2.7417 1.2104-1.4 1.4 1.4 1.4v-0.46665h1.6333l0.3646-0.6271-0.7146-1.2396h-1.2833zm-3.6312 0.46668 0.13118 0.23333 0.4375 0.77292 0.49581 0.86042h0.7v-1.8667z" enable-background="new" fill="#fff"/>
 <path d="m15.35 4c-4.5408 0-6.5995 0.56263-7.1945 1.1618-0.70163 0.70656-1.1551 2.2846-1.1551 6.3369 0 4.0524 0.45351 5.6304 1.1551 6.3369 0.59496 0.59917 2.6536 1.1643 7.1945 1.1643h1.3008c4.5409 0 6.5995-0.56518 7.1945-1.1643 0.70162-0.70656 1.1551-2.2846 1.1551-6.3369 0-4.0524-0.45352-5.6304-1.1551-6.3369-0.59496-0.59917-2.6536-1.1618-7.1945-1.1618z" color="#000000" color-rendering="auto" dominant-baseline="auto" enable-background="new" fill="#fff" image-rendering="auto" opacity=".2" shape-rendering="auto" solid-color="#000000" style="font-feature-settings:normal;font-variant-alternates:normal;font-variant-caps:normal;font-variant-ligatures:normal;font-variant-numeric:normal;font-variant-position:normal;isolation:auto;mix-blend-mode:normal;shape-padding:0;text-decoration-color:#000000;text-decoration-line:none;text-decoration-style:solid;text-indent:0;text-orientation:mixed;text-transform:none;white-space:normal"/>
 <path d="m15.35 3c-4.5408 0-6.5995 0.56263-7.1945 1.1618-0.70163 0.70656-1.1551 2.2846-1.1551 6.3369 0 4.0524 0.45351 5.6304 1.1551 6.3369 0.59496 0.59917 2.6536 1.1643 7.1945 1.1643h1.3008c4.5409 0 6.5995-0.56518 7.1945-1.1643 0.70162-0.70656 1.1551-2.2846 1.1551-6.3369 0-4.0524-0.45352-5.6304-1.1551-6.3369-0.59496-0.59917-2.6536-1.1618-7.1945-1.1618z" color="#000000" color-rendering="auto" dominant-baseline="auto" enable-background="new" fill="url(#linearGradient3568)" image-rendering="auto" shape-rendering="auto" solid-color="#000000" style="font-feature-settings:normal;font-variant-alternates:normal;font-variant-caps:normal;font-variant-ligatures:normal;font-variant-numeric:normal;font-variant-position:normal;isolation:auto;mix-blend-mode:normal;shape-padding:0;text-decoration-color:#000000;text-decoration-line:none;text-decoration-style:solid;text-indent:0;text-orientation:mixed;text-transform:none;white-space:normal"/>
 <path transform="translate(-320,-132)" d="m335.35 135c-4.5408 0-6.5995 0.56263-7.1945 1.1618-0.70163 0.70656-1.1551 2.2846-1.1551 6.3369 0 4.0524 0.45351 5.6304 1.1551 6.3369 0.59496 0.59917 2.6536 1.1643 7.1945 1.1643h1.3008c4.5409 0 6.5995-0.56518 7.1945-1.1643 0.70162-0.70656 1.1551-2.2846 1.1551-6.3369 0-4.0524-0.45352-5.6304-1.1551-6.3369-0.59496-0.59917-2.6536-1.1618-7.1945-1.1618z" clip-path="url(#clipPath3864)" color="#000000" color-rendering="auto" dominant-baseline="auto" enable-background="new" fill="none" image-rendering="auto" opacity=".1" shape-rendering="auto" solid-color="#000000" stroke="#000" stroke-linecap="round" stroke-linejoin="round" stroke-width="2" style="font-feature-settings:normal;font-variant-alternates:normal;font-variant-caps:normal;font-variant-ligatures:normal;font-variant-numeric:normal;font-variant-position:normal;isolation:auto;mix-blend-mode:normal;shape-padding:0;text-decoration-color:#000000;text-decoration-line:none;text-decoration-style:solid;text-indent:0;text-orientation:mixed;text-transform:none;white-space:normal"/>
</svg>
