<svg width="32" height="32" version="1" xmlns="http://www.w3.org/2000/svg" xmlns:xlink="http://www.w3.org/1999/xlink">
 <defs>
  <linearGradient id="linearGradient1688" x1="321" x2="351" y1="153" y2="143" gradientTransform="rotate(90 242 -78)" gradientUnits="userSpaceOnUse">
   <stop stop-color="#4d4d4d" offset="0"/>
   <stop stop-color="#4d4d4d" offset="1"/>
  </linearGradient>
  <linearGradient id="linearGradient1688-4" x1="322" x2="350" y1="148" y2="148" gradientTransform="rotate(90,242,-78)" gradientUnits="userSpaceOnUse">
   <stop stop-color="#fff" offset="0"/>
   <stop stop-color="#fff" stop-opacity=".098039" offset=".125"/>
   <stop stop-color="#fff" stop-opacity=".098039" offset=".925"/>
   <stop stop-color="#fff" stop-opacity=".49804" offset="1"/>
  </linearGradient>
 </defs>
 <path d="m9.3009 2c-1.6395 0-2.9408 0.0308-4.045 0.19141-1.1042 0.16064-2.067 0.4726-2.7831 1.0918s-1.0805 1.4561-1.2642 2.4141c-0.18374 0.95795-0.21537 2.087-0.20733 3.5117v7.791 7.7969c-9e-3 1.4213 0.0239 2.5495 0.20733 3.5058 0.18371 0.95796 0.5481 1.7949 1.2642 2.4141s1.6789 0.93115 2.7831 1.0918c1.1042 0.16065 2.4056 0.19141 4.045 0.19141h13.402c1.6395 0 2.9384-0.0307 4.0405-0.19141 1.1022-0.16075 2.0627-0.47425 2.7763-1.0938 0.71357-0.6195 1.0746-1.4536 1.2597-2.4102 0.18515-0.95653 0.22086-2.084 0.22086-3.5078v-7.7969-7.7969c0-1.4238-0.0358-2.5513-0.22086-3.5078-0.18512-0.95653-0.54612-1.7906-1.2597-2.4102-0.71359-0.61951-1.6741-0.933-2.7763-1.0938-1.1022-0.16076-2.401-0.19141-4.0405-0.19141z" color="#000000" color-rendering="auto" dominant-baseline="auto" image-rendering="auto" opacity=".1" shape-rendering="auto" solid-color="#000000" style="font-feature-settings:normal;font-variant-alternates:normal;font-variant-caps:normal;font-variant-ligatures:normal;font-variant-numeric:normal;font-variant-position:normal;isolation:auto;mix-blend-mode:normal;shape-padding:0;text-decoration-color:#000000;text-decoration-line:none;text-decoration-style:solid;text-indent:0;text-orientation:mixed;text-transform:none;white-space:normal"/>
 <path d="m9.1271 1.5c-6.4516 0-7.6603 0.58409-7.6264 6.2823v8.2176 8.2178c-0.034 5.6982 1.1748 6.2823 7.6264 6.2823h13.747c6.45 0 7.6264-0.58403 7.6264-6.2823v-8.2178-8.2176c0-5.6982-1.1764-6.2823-7.6264-6.2823z" color="#000000" fill="url(#linearGradient1688)"/>
 <path d="m20.513 6.8351a1.1915 1.1915 0 0 0-0.97586 0.59479 1.1915 1.1915 0 0 0 0.4359 1.6283 1.1915 1.1915 0 0 0 1.6283-0.4359 1.1915 1.1915 0 0 0-0.4359-1.6283 1.1915 1.1915 0 0 0-0.65245-0.15889zm-7.669 1.8631a0.75188 0.75188 0 0 0-0.75228 0.75228 0.75188 0.75188 0 0 0 0.75228 0.75088 0.75188 0.75188 0 0 0 0.75088-0.75088 0.75188 0.75188 0 0 0-0.75088-0.75228zm1.8926 0.19124a0.65629 0.65629 0 0 0-0.65666 0.65666 0.65629 0.65629 0 0 0 0.65666 0.65526 0.65629 0.65629 0 0 0 0.65526-0.65526 0.65629 0.65629 0 0 0-0.65526-0.65666zm-4.0918 0.0759a0.88569 0.88569 0 0 0-0.88586 0.88586 0.88569 0.88569 0 0 0 0.88586 0.88586 0.88569 0.88569 0 0 0 0.88587-0.88586 0.88569 0.88569 0 0 0-0.88587-0.88586zm5.6498 0.4598a0.57027 0.57027 0 0 0-0.57089 0.56949 0.57027 0.57027 0 0 0 0.57089 0.57089 0.57027 0.57027 0 0 0 0.56948-0.57089 0.57027 0.57027 0 0 0-0.56948-0.56949zm4.5474 0.6187a1.0195 1.0195 0 0 0-0.83524 0.50902 1.0195 1.0195 0 0 0 0.37404 1.3921 1.0195 1.0195 0 0 0 1.3921-0.37262 1.0195 1.0195 0 0 0-0.37262-1.3935 1.0195 1.0195 0 0 0-0.55824-0.13499zm-3.3621 0.10687a0.4938 0.4938 0 0 0-0.49496 0.49355 0.4938 0.4938 0 0 0 0.49496 0.49496 0.4938 0.4938 0 0 0 0.49355-0.49496 0.4938 0.4938 0 0 0-0.49355-0.49355zm5.9536 0.25873a1.0195 1.0195 0 0 0-0.83384 0.50902 1.0195 1.0195 0 0 0 0.37262 1.3921 1.0195 1.0195 0 0 0 1.3935-0.37263 1.0195 1.0195 0 0 0-0.37403-1.3921 1.0195 1.0195 0 0 0-0.55823-0.13639zm-10.246 0.46824a0.75188 0.75188 0 0 0-0.75088 0.75228 0.75188 0.75188 0 0 0 0.75088 0.75087 0.75188 0.75188 0 0 0 0.75228-0.75087 0.75188 0.75188 0 0 0-0.75228-0.75228zm5.1718 0.13358a0.41733 0.41733 0 0 0-0.41761 0.41762 0.41733 0.41733 0 0 0 0.41761 0.41762 0.41733 0.41733 0 0 0 0.41762-0.41762 0.41733 0.41733 0 0 0-0.41762-0.41762zm-3.2791 0.0577a0.65629 0.65629 0 0 0-0.65527 0.65667 0.65629 0.65629 0 0 0 0.65527 0.65525 0.65629 0.65629 0 0 0 0.65666-0.65525 0.65629 0.65629 0 0 0-0.65666-0.65667zm-4.0904 0.0759a0.88569 0.88569 0 0 0-0.88586 0.88587 0.88569 0.88569 0 0 0 0.88586 0.88586 0.88569 0.88569 0 0 0 0.88587-0.88586 0.88569 0.88569 0 0 0-0.88587-0.88587zm5.6484 0.45981a0.57027 0.57027 0 0 0-0.56948 0.56948 0.57027 0.57027 0 0 0 0.56948 0.57089 0.57027 0.57027 0 0 0 0.57089-0.57089 0.57027 0.57027 0 0 0-0.57089-0.56948zm-8.0571 0.42043a1.0195 1.0195 0 0 0-1.0194 1.0194 1.0195 1.0195 0 0 0 1.0194 1.0194 1.0195 1.0195 0 0 0 1.0194-1.0194 1.0195 1.0195 0 0 0-1.0194-1.0194zm9.2425 0.30513a0.4938 0.4938 0 0 0-0.49356 0.49355 0.4938 0.4938 0 0 0 0.49356 0.49356 0.4938 0.4938 0 0 0 0.49355-0.49356 0.4938 0.4938 0 0 0-0.49355-0.49355zm2.6984 0.44012a0.88569 0.88569 0 0 0-0.72557 0.44153 0.88569 0.88569 0 0 0 0.32482 1.2107 0.88569 0.88569 0 0 0 1.2093-0.32482 0.88569 0.88569 0 0 0-0.32341-1.2093 0.88569 0.88569 0 0 0-0.48511-0.11812zm2.5915 0.3656a0.88569 0.88569 0 0 0-0.72416 0.44152 0.88569 0.88569 0 0 0 0.32341 1.2107 0.88569 0.88569 0 0 0 1.2107-0.32481 0.88569 0.88569 0 0 0-0.32481-1.2093 0.88569 0.88569 0 0 0-0.48512-0.11811zm-8.9458 0.17014a0.75188 0.75188 0 0 0-0.75228 0.75087 0.75188 0.75188 0 0 0 0.75228 0.75228 0.75188 0.75188 0 0 0 0.75228-0.75228 0.75188 0.75188 0 0 0-0.75228-0.75087zm1.8926 0.18983a0.65629 0.65629 0 0 0-0.65666 0.65666 0.65629 0.65629 0 0 0 0.65666 0.65666 0.65629 0.65629 0 0 0 0.65527-0.65666 0.65629 0.65629 0 0 0-0.65527-0.65666zm-4.0918 0.0773a0.88569 0.88569 0 0 0-0.88586 0.88587 0.88569 0.88569 0 0 0 0.88586 0.88586 0.88569 0.88569 0 0 0 0.88587-0.88586 0.88569 0.88569 0 0 0-0.88587-0.88587zm13.205 0.35435a0.88569 0.88569 0 0 0-0.72557 0.44152 0.88569 0.88569 0 0 0 0.32482 1.2107 0.88569 0.88569 0 0 0 1.2093-0.32482 0.88569 0.88569 0 0 0-0.32341-1.2093 0.88569 0.88569 0 0 0-0.48512-0.11811zm-7.5552 0.10405a0.57027 0.57027 0 0 0-0.57089 0.57089 0.57027 0.57027 0 0 0 0.57089 0.56949 0.57027 0.57027 0 0 0 0.56949-0.56949 0.57027 0.57027 0 0 0-0.56949-0.57089zm-8.0585 0.42044a1.0195 1.0195 0 0 0-1.0194 1.0194 1.0195 1.0195 0 0 0 1.0194 1.0194 1.0195 1.0195 0 0 0 1.0194-1.0194 1.0195 1.0195 0 0 0-1.0194-1.0194zm10.217 0.55683a0.75188 0.75188 0 0 0-0.61588 0.37543 0.75188 0.75188 0 0 0 0.2756 1.0265 0.75188 0.75188 0 0 0 1.0265-0.2756 0.75188 0.75188 0 0 0-0.2742-1.0265 0.75188 0.75188 0 0 0-0.412-0.0998zm2.5915 0.36559a0.75188 0.75188 0 0 0-0.61448 0.37544 0.75188 0.75188 0 0 0 0.27419 1.0265 0.75188 0.75188 0 0 0 1.0279-0.2756 0.75188 0.75188 0 0 0-0.27561-1.0265 0.75188 0.75188 0 0 0-0.41199-0.0998zm-8.105 0.5962a0.57027 0.57027 0 0 0-0.27279 0.0773 0.57027 0.57027 0 0 0-0.20811 0.779 0.57027 0.57027 0 0 0 0.779 0.2081 0.57027 0.57027 0 0 0 0.20811-0.77899 0.57027 0.57027 0 0 0-0.50621-0.28545zm-7.1727 0.10546a1.1915 1.1915 0 0 0-1.191 1.1924 1.1915 1.1915 0 0 0 1.191 1.191 1.1915 1.1915 0 0 0 1.1924-1.191 1.1915 1.1915 0 0 0-1.1924-1.1924zm17.338 0.09a0.75188 0.75188 0 0 0-0.61589 0.37544 0.75188 0.75188 0 0 0 0.27561 1.0265 0.75188 0.75188 0 0 0 1.0265-0.2756 0.75188 0.75188 0 0 0-0.2742-1.0265 0.75188 0.75188 0 0 0-0.41199-0.0998zm-5.6766 0.52871a0.65629 0.65629 0 0 0-0.53714 0.32763 0.65629 0.65629 0 0 0 0.24045 0.89711 0.65629 0.65629 0 0 0 0.89711-0.24045 0.65629 0.65629 0 0 0-0.24044-0.89711 0.65629 0.65629 0 0 0-0.35998-0.0872zm-6.1293 0.0633a0.4938 0.4938 0 0 0-0.23623 0.0661 0.4938 0.4938 0 0 0-0.17998 0.67494 0.4938 0.4938 0 0 0 0.67494 0.17999 0.4938 0.4938 0 0 0 0.17998-0.67354 0.4938 0.4938 0 0 0-0.43871-0.24748zm8.7222 0.30373a0.65629 0.65629 0 0 0-0.53714 0.32622 0.65629 0.65629 0 0 0 0.23904 0.89711 0.65629 0.65629 0 0 0 0.89711-0.24045 0.65629 0.65629 0 0 0-0.24045-0.8957 0.65629 0.65629 0 0 0-0.35856-0.0872zm-10.197 7e-3a0.41733 0.41733 0 0 0-0.19826 0.0562 0.41733 0.41733 0 0 0-0.15327 0.56949 0.41733 0.41733 0 0 0 0.57089 0.15326 0.41733 0.41733 0 0 0 0.15186-0.57089 0.41733 0.41733 0 0 0-0.37122-0.2081zm3.5041 0.3909a0.65629 0.65629 0 0 0-0.31357 0.0872 0.65629 0.65629 0 0 0-0.24044 0.89711 0.65629 0.65629 0 0 0 0.89711 0.23904 0.65629 0.65629 0 0 0 0.24045-0.8957 0.65629 0.65629 0 0 0-0.58355-0.32763zm8.7518 0.39372a0.65629 0.65629 0 0 0-0.53714 0.32622 0.65629 0.65629 0 0 0 0.24045 0.89711 0.65629 0.65629 0 0 0 0.89711-0.24045 0.65629 0.65629 0 0 0-0.24045-0.8957 0.65629 0.65629 0 0 0-0.35997-0.0872zm-5.8158 0.052a0.57027 0.57027 0 0 0-0.46684 0.28545 0.57027 0.57027 0 0 0 0.20951 0.77899 0.57027 0.57027 0 0 0 0.779-0.20951 0.57027 0.57027 0 0 0-0.20951-0.779 0.57027 0.57027 0 0 0-0.31216-0.0759zm-4.9369 0.12796a0.57027 0.57027 0 0 0-0.2728 0.0759 0.57027 0.57027 0 0 0-0.2081 0.779 0.57027 0.57027 0 0 0 0.779 0.20811 0.57027 0.57027 0 0 0 0.20811-0.779 0.57027 0.57027 0 0 0-0.50621-0.28404zm-1.7436 0.11249a0.4938 0.4938 0 0 0-0.23483 0.0661 0.4938 0.4938 0 0 0-0.18139 0.67494 0.4938 0.4938 0 0 0 0.67495 0.17998 0.4938 0.4938 0 0 0 0.17998-0.67494 0.4938 0.4938 0 0 0-0.43871-0.24607zm9.2734 0.12515a0.57027 0.57027 0 0 0-0.46684 0.28544 0.57027 0.57027 0 0 0 0.20811 0.779 0.57027 0.57027 0 0 0 0.77899-0.20951 0.57027 0.57027 0 0 0-0.2081-0.779 0.57027 0.57027 0 0 0-0.31216-0.0759zm-4.6684 0.77899a0.75188 0.75188 0 0 0-0.35857 0.10125 0.75188 0.75188 0 0 0-0.27419 1.0265 0.75188 0.75188 0 0 0 1.0265 0.2756 0.75188 0.75188 0 0 0 0.2756-1.0279 0.75188 0.75188 0 0 0-0.66931-0.37544zm3.5167 0a0.4938 0.4938 0 0 0-0.40497 0.24608 0.4938 0.4938 0 0 0 0.1814 0.67494 0.4938 0.4938 0 0 0 0.67353-0.18139 0.4938 0.4938 0 0 0-0.17998-0.67494 0.4938 0.4938 0 0 0-0.26998-0.0647zm3.2116 0.0127a0.57027 0.57027 0 0 0-0.46824 0.28545 0.57027 0.57027 0 0 0 0.20951 0.77899 0.57027 0.57027 0 0 0 0.779-0.20951 0.57027 0.57027 0 0 0-0.20952-0.779 0.57027 0.57027 0 0 0-0.31075-0.0759zm-11.305 0.35856a0.57027 0.57027 0 0 0-0.27139 0.0759 0.57027 0.57027 0 0 0-0.20952 0.779 0.57027 0.57027 0 0 0 0.77901 0.20811 0.57027 0.57027 0 0 0 0.20951-0.779 0.57027 0.57027 0 0 0-0.50761-0.28404zm2.1022 0.0998a0.65629 0.65629 0 0 0-0.31216 0.0872 0.65629 0.65629 0 0 0-0.24045 0.89712 0.65629 0.65629 0 0 0 0.89712 0.24045 0.65629 0.65629 0 0 0 0.24045-0.89712 0.65629 0.65629 0 0 0-0.58496-0.32763zm8.0501 0.3206a0.4938 0.4938 0 0 0-0.40356 0.24608 0.4938 0.4938 0 0 0 0.17999 0.67494 0.4938 0.4938 0 0 0 0.67494-0.18139 0.4938 0.4938 0 0 0-0.17999-0.67495 0.4938 0.4938 0 0 0-0.27138-0.0647zm-1.1151 0.44575a0.41733 0.41733 0 0 0-0.34169 0.20811 0.41733 0.41733 0 0 0 0.15326 0.56948 0.41733 0.41733 0 0 0 0.5709-0.15186 0.41733 0.41733 0 0 0-0.15327-0.57089 0.41733 0.41733 0 0 0-0.2292-0.0548zm-3.0162 0.33185a0.88569 0.88569 0 0 0-0.42183 0.11952 0.88569 0.88569 0 0 0-0.32482 1.2093 0.88569 0.88569 0 0 0 1.2107 0.32482 0.88569 0.88569 0 0 0 0.32341-1.2107 0.88569 0.88569 0 0 0-0.78744-0.44293zm-5.633 0.28966a0.65629 0.65629 0 0 0-0.31357 0.0872 0.65629 0.65629 0 0 0-0.24045 0.89712 0.65629 0.65629 0 0 0 0.89711 0.24044 0.65629 0.65629 0 0 0 0.24045-0.89711 0.65629 0.65629 0 0 0-0.58354-0.32763zm2.576 0.20389a0.75188 0.75188 0 0 0-0.35857 0.0998 0.75188 0.75188 0 0 0-0.27419 1.0279 0.75188 0.75188 0 0 0 1.0265 0.2742 0.75188 0.75188 0 0 0 0.2756-1.0265 0.75188 0.75188 0 0 0-0.66932-0.37544zm5.1352 0.95195a1.0195 1.0195 0 0 0-0.48512 0.1364 1.0195 1.0195 0 0 0-0.37403 1.3935 1.0195 1.0195 0 0 0 1.3935 0.37262 1.0195 1.0195 0 0 0 0.37263-1.3921 1.0195 1.0195 0 0 0-0.90695-0.51043zm-6.8507 0.4345a0.75188 0.75188 0 0 0-0.35857 0.10124 0.75188 0.75188 0 0 0-0.27419 1.0265 0.75188 0.75188 0 0 0 1.0265 0.2756 0.75188 0.75188 0 0 0 0.2756-1.0265 0.75188 0.75188 0 0 0-0.66932-0.37684zm3.1596 0.18279a0.88569 0.88569 0 0 0-0.42184 0.11812 0.88569 0.88569 0 0 0-0.32482 1.2093 0.88569 0.88569 0 0 0 1.2107 0.32482 0.88569 0.88569 0 0 0 0.3234-1.2107 0.88569 0.88569 0 0 0-0.78743-0.44153zm6.4766 0.45137a1.1915 1.1915 0 0 0-0.56667 0.1603 1.1915 1.1915 0 0 0-0.4359 1.6269 1.1915 1.1915 0 0 0 1.6269 0.4359 1.1915 1.1915 0 0 0 0.43591-1.6269 1.1915 1.1915 0 0 0-1.0602-0.5962zm-8.1921 0.93649a0.88569 0.88569 0 0 0-0.42184 0.11811 0.88569 0.88569 0 0 0-0.32482 1.2093 0.88569 0.88569 0 0 0 1.2107 0.32481 0.88569 0.88569 0 0 0 0.32341-1.2107 0.88569 0.88569 0 0 0-0.78743-0.44152zm3.7937 0.0576a1.0195 1.0195 0 0 0-0.48511 0.13639 1.0195 1.0195 0 0 0-0.37404 1.3921 1.0195 1.0195 0 0 0 1.3935 0.37403 1.0195 1.0195 0 0 0 0.37263-1.3935 1.0195 1.0195 0 0 0-0.90696-0.50902z" enable-background="new" opacity=".1" stroke-width="0"/>
 <path d="m20.513 6.3348a1.1915 1.1915 0 0 0-0.97586 0.59479 1.1915 1.1915 0 0 0 0.4359 1.6283 1.1915 1.1915 0 0 0 1.6283-0.4359 1.1915 1.1915 0 0 0-0.4359-1.6283 1.1915 1.1915 0 0 0-0.65245-0.15889zm-7.669 1.8631a0.75188 0.75188 0 0 0-0.75228 0.75228 0.75188 0.75188 0 0 0 0.75228 0.75088 0.75188 0.75188 0 0 0 0.75088-0.75088 0.75188 0.75188 0 0 0-0.75088-0.75228zm1.8926 0.19124a0.65629 0.65629 0 0 0-0.65666 0.65666 0.65629 0.65629 0 0 0 0.65666 0.65526 0.65629 0.65629 0 0 0 0.65526-0.65526 0.65629 0.65629 0 0 0-0.65526-0.65666zm-4.0918 0.0759a0.88569 0.88569 0 0 0-0.88586 0.88586 0.88569 0.88569 0 0 0 0.88586 0.88586 0.88569 0.88569 0 0 0 0.88587-0.88586 0.88569 0.88569 0 0 0-0.88587-0.88586zm5.6498 0.4598a0.57027 0.57027 0 0 0-0.57089 0.56949 0.57027 0.57027 0 0 0 0.57089 0.57089 0.57027 0.57027 0 0 0 0.56948-0.57089 0.57027 0.57027 0 0 0-0.56948-0.56949zm4.5474 0.6187a1.0195 1.0195 0 0 0-0.83524 0.50902 1.0195 1.0195 0 0 0 0.37404 1.3921 1.0195 1.0195 0 0 0 1.3921-0.37262 1.0195 1.0195 0 0 0-0.37262-1.3935 1.0195 1.0195 0 0 0-0.55824-0.13499zm-3.3621 0.10687a0.4938 0.4938 0 0 0-0.49496 0.49355 0.4938 0.4938 0 0 0 0.49496 0.49496 0.4938 0.4938 0 0 0 0.49355-0.49496 0.4938 0.4938 0 0 0-0.49355-0.49355zm5.9536 0.25873a1.0195 1.0195 0 0 0-0.83384 0.50902 1.0195 1.0195 0 0 0 0.37262 1.3921 1.0195 1.0195 0 0 0 1.3935-0.37263 1.0195 1.0195 0 0 0-0.37403-1.3921 1.0195 1.0195 0 0 0-0.55823-0.13639zm-10.246 0.46824a0.75188 0.75188 0 0 0-0.75088 0.75228 0.75188 0.75188 0 0 0 0.75088 0.75087 0.75188 0.75188 0 0 0 0.75228-0.75087 0.75188 0.75188 0 0 0-0.75228-0.75228zm5.1718 0.13358a0.41733 0.41733 0 0 0-0.41761 0.41762 0.41733 0.41733 0 0 0 0.41761 0.41762 0.41733 0.41733 0 0 0 0.41762-0.41762 0.41733 0.41733 0 0 0-0.41762-0.41762zm-3.2791 0.0577a0.65629 0.65629 0 0 0-0.65527 0.65667 0.65629 0.65629 0 0 0 0.65527 0.65525 0.65629 0.65629 0 0 0 0.65666-0.65525 0.65629 0.65629 0 0 0-0.65666-0.65667zm-4.0904 0.0759a0.88569 0.88569 0 0 0-0.88586 0.88587 0.88569 0.88569 0 0 0 0.88586 0.88586 0.88569 0.88569 0 0 0 0.88587-0.88586 0.88569 0.88569 0 0 0-0.88587-0.88587zm5.6484 0.45981a0.57027 0.57027 0 0 0-0.56948 0.56948 0.57027 0.57027 0 0 0 0.56948 0.57089 0.57027 0.57027 0 0 0 0.57089-0.57089 0.57027 0.57027 0 0 0-0.57089-0.56948zm-8.0571 0.42043a1.0195 1.0195 0 0 0-1.0194 1.0194 1.0195 1.0195 0 0 0 1.0194 1.0194 1.0195 1.0195 0 0 0 1.0194-1.0194 1.0195 1.0195 0 0 0-1.0194-1.0194zm9.2425 0.30513a0.4938 0.4938 0 0 0-0.49356 0.49355 0.4938 0.4938 0 0 0 0.49356 0.49356 0.4938 0.4938 0 0 0 0.49355-0.49356 0.4938 0.4938 0 0 0-0.49355-0.49355zm2.6984 0.44012a0.88569 0.88569 0 0 0-0.72557 0.44153 0.88569 0.88569 0 0 0 0.32482 1.2107 0.88569 0.88569 0 0 0 1.2093-0.32482 0.88569 0.88569 0 0 0-0.32341-1.2093 0.88569 0.88569 0 0 0-0.48511-0.11812zm2.5915 0.3656a0.88569 0.88569 0 0 0-0.72416 0.44152 0.88569 0.88569 0 0 0 0.32341 1.2107 0.88569 0.88569 0 0 0 1.2107-0.32481 0.88569 0.88569 0 0 0-0.32481-1.2093 0.88569 0.88569 0 0 0-0.48512-0.11811zm-8.9458 0.17014a0.75188 0.75188 0 0 0-0.75228 0.75087 0.75188 0.75188 0 0 0 0.75228 0.75228 0.75188 0.75188 0 0 0 0.75228-0.75228 0.75188 0.75188 0 0 0-0.75228-0.75087zm1.8926 0.18983a0.65629 0.65629 0 0 0-0.65666 0.65666 0.65629 0.65629 0 0 0 0.65666 0.65666 0.65629 0.65629 0 0 0 0.65527-0.65666 0.65629 0.65629 0 0 0-0.65527-0.65666zm-4.0918 0.0773a0.88569 0.88569 0 0 0-0.88586 0.88587 0.88569 0.88569 0 0 0 0.88586 0.88586 0.88569 0.88569 0 0 0 0.88587-0.88586 0.88569 0.88569 0 0 0-0.88587-0.88587zm13.205 0.35435a0.88569 0.88569 0 0 0-0.72557 0.44152 0.88569 0.88569 0 0 0 0.32482 1.2107 0.88569 0.88569 0 0 0 1.2093-0.32482 0.88569 0.88569 0 0 0-0.32341-1.2093 0.88569 0.88569 0 0 0-0.48512-0.11811zm-7.5552 0.10405a0.57027 0.57027 0 0 0-0.57089 0.57089 0.57027 0.57027 0 0 0 0.57089 0.56949 0.57027 0.57027 0 0 0 0.56949-0.56949 0.57027 0.57027 0 0 0-0.56949-0.57089zm-8.0585 0.42044a1.0195 1.0195 0 0 0-1.0194 1.0194 1.0195 1.0195 0 0 0 1.0194 1.0194 1.0195 1.0195 0 0 0 1.0194-1.0194 1.0195 1.0195 0 0 0-1.0194-1.0194zm10.217 0.55683a0.75188 0.75188 0 0 0-0.61588 0.37543 0.75188 0.75188 0 0 0 0.2756 1.0265 0.75188 0.75188 0 0 0 1.0265-0.2756 0.75188 0.75188 0 0 0-0.2742-1.0265 0.75188 0.75188 0 0 0-0.412-0.0998zm2.5915 0.36559a0.75188 0.75188 0 0 0-0.61448 0.37544 0.75188 0.75188 0 0 0 0.27419 1.0265 0.75188 0.75188 0 0 0 1.0279-0.2756 0.75188 0.75188 0 0 0-0.27561-1.0265 0.75188 0.75188 0 0 0-0.41199-0.0998zm-8.105 0.5962a0.57027 0.57027 0 0 0-0.27279 0.0773 0.57027 0.57027 0 0 0-0.20811 0.779 0.57027 0.57027 0 0 0 0.779 0.2081 0.57027 0.57027 0 0 0 0.20811-0.77899 0.57027 0.57027 0 0 0-0.50621-0.28545zm-7.1727 0.10546a1.1915 1.1915 0 0 0-1.191 1.1924 1.1915 1.1915 0 0 0 1.191 1.191 1.1915 1.1915 0 0 0 1.1924-1.191 1.1915 1.1915 0 0 0-1.1924-1.1924zm17.338 0.09a0.75188 0.75188 0 0 0-0.61589 0.37544 0.75188 0.75188 0 0 0 0.27561 1.0265 0.75188 0.75188 0 0 0 1.0265-0.2756 0.75188 0.75188 0 0 0-0.2742-1.0265 0.75188 0.75188 0 0 0-0.41199-0.0998zm-5.6766 0.52871a0.65629 0.65629 0 0 0-0.53714 0.32763 0.65629 0.65629 0 0 0 0.24045 0.89711 0.65629 0.65629 0 0 0 0.89711-0.24045 0.65629 0.65629 0 0 0-0.24044-0.89711 0.65629 0.65629 0 0 0-0.35998-0.0872zm-6.1293 0.0633a0.4938 0.4938 0 0 0-0.23623 0.0661 0.4938 0.4938 0 0 0-0.17998 0.67494 0.4938 0.4938 0 0 0 0.67494 0.17999 0.4938 0.4938 0 0 0 0.17998-0.67354 0.4938 0.4938 0 0 0-0.43871-0.24748zm8.7222 0.30373a0.65629 0.65629 0 0 0-0.53714 0.32622 0.65629 0.65629 0 0 0 0.23904 0.89711 0.65629 0.65629 0 0 0 0.89711-0.24045 0.65629 0.65629 0 0 0-0.24045-0.8957 0.65629 0.65629 0 0 0-0.35856-0.0872zm-10.197 7e-3a0.41733 0.41733 0 0 0-0.19826 0.0562 0.41733 0.41733 0 0 0-0.15327 0.56949 0.41733 0.41733 0 0 0 0.57089 0.15326 0.41733 0.41733 0 0 0 0.15186-0.57089 0.41733 0.41733 0 0 0-0.37122-0.2081zm3.5041 0.3909a0.65629 0.65629 0 0 0-0.31357 0.0872 0.65629 0.65629 0 0 0-0.24044 0.89711 0.65629 0.65629 0 0 0 0.89711 0.23904 0.65629 0.65629 0 0 0 0.24045-0.8957 0.65629 0.65629 0 0 0-0.58355-0.32763zm8.7518 0.39372a0.65629 0.65629 0 0 0-0.53714 0.32622 0.65629 0.65629 0 0 0 0.24045 0.89711 0.65629 0.65629 0 0 0 0.89711-0.24045 0.65629 0.65629 0 0 0-0.24045-0.8957 0.65629 0.65629 0 0 0-0.35997-0.0872zm-5.8158 0.052a0.57027 0.57027 0 0 0-0.46684 0.28545 0.57027 0.57027 0 0 0 0.20951 0.77899 0.57027 0.57027 0 0 0 0.779-0.20951 0.57027 0.57027 0 0 0-0.20951-0.779 0.57027 0.57027 0 0 0-0.31216-0.0759zm-4.9369 0.12796a0.57027 0.57027 0 0 0-0.2728 0.0759 0.57027 0.57027 0 0 0-0.2081 0.779 0.57027 0.57027 0 0 0 0.779 0.20811 0.57027 0.57027 0 0 0 0.20811-0.779 0.57027 0.57027 0 0 0-0.50621-0.28404zm-1.7436 0.11249a0.4938 0.4938 0 0 0-0.23483 0.0661 0.4938 0.4938 0 0 0-0.18139 0.67494 0.4938 0.4938 0 0 0 0.67495 0.17998 0.4938 0.4938 0 0 0 0.17998-0.67494 0.4938 0.4938 0 0 0-0.43871-0.24607zm9.2734 0.12515a0.57027 0.57027 0 0 0-0.46684 0.28544 0.57027 0.57027 0 0 0 0.20811 0.779 0.57027 0.57027 0 0 0 0.77899-0.20951 0.57027 0.57027 0 0 0-0.2081-0.779 0.57027 0.57027 0 0 0-0.31216-0.0759zm-4.6684 0.77899a0.75188 0.75188 0 0 0-0.35857 0.10125 0.75188 0.75188 0 0 0-0.27419 1.0265 0.75188 0.75188 0 0 0 1.0265 0.2756 0.75188 0.75188 0 0 0 0.2756-1.0279 0.75188 0.75188 0 0 0-0.66931-0.37544zm3.5167 0a0.4938 0.4938 0 0 0-0.40497 0.24608 0.4938 0.4938 0 0 0 0.1814 0.67494 0.4938 0.4938 0 0 0 0.67353-0.18139 0.4938 0.4938 0 0 0-0.17998-0.67494 0.4938 0.4938 0 0 0-0.26998-0.0647zm3.2116 0.0127a0.57027 0.57027 0 0 0-0.46824 0.28545 0.57027 0.57027 0 0 0 0.20951 0.77899 0.57027 0.57027 0 0 0 0.779-0.20951 0.57027 0.57027 0 0 0-0.20952-0.779 0.57027 0.57027 0 0 0-0.31075-0.0759zm-11.305 0.35856a0.57027 0.57027 0 0 0-0.27139 0.0759 0.57027 0.57027 0 0 0-0.20952 0.779 0.57027 0.57027 0 0 0 0.77901 0.20811 0.57027 0.57027 0 0 0 0.20951-0.779 0.57027 0.57027 0 0 0-0.50761-0.28404zm2.1022 0.0998a0.65629 0.65629 0 0 0-0.31216 0.0872 0.65629 0.65629 0 0 0-0.24045 0.89712 0.65629 0.65629 0 0 0 0.89712 0.24045 0.65629 0.65629 0 0 0 0.24045-0.89712 0.65629 0.65629 0 0 0-0.58496-0.32763zm8.0501 0.3206a0.4938 0.4938 0 0 0-0.40356 0.24608 0.4938 0.4938 0 0 0 0.17999 0.67494 0.4938 0.4938 0 0 0 0.67494-0.18139 0.4938 0.4938 0 0 0-0.17999-0.67495 0.4938 0.4938 0 0 0-0.27138-0.0647zm-1.1151 0.44575a0.41733 0.41733 0 0 0-0.34169 0.20811 0.41733 0.41733 0 0 0 0.15326 0.56948 0.41733 0.41733 0 0 0 0.5709-0.15186 0.41733 0.41733 0 0 0-0.15327-0.57089 0.41733 0.41733 0 0 0-0.2292-0.0548zm-3.0162 0.33185a0.88569 0.88569 0 0 0-0.42183 0.11952 0.88569 0.88569 0 0 0-0.32482 1.2093 0.88569 0.88569 0 0 0 1.2107 0.32482 0.88569 0.88569 0 0 0 0.32341-1.2107 0.88569 0.88569 0 0 0-0.78744-0.44293zm-5.633 0.28966a0.65629 0.65629 0 0 0-0.31357 0.0872 0.65629 0.65629 0 0 0-0.24045 0.89712 0.65629 0.65629 0 0 0 0.89711 0.24044 0.65629 0.65629 0 0 0 0.24045-0.89711 0.65629 0.65629 0 0 0-0.58354-0.32763zm2.576 0.20389a0.75188 0.75188 0 0 0-0.35857 0.0998 0.75188 0.75188 0 0 0-0.27419 1.0279 0.75188 0.75188 0 0 0 1.0265 0.2742 0.75188 0.75188 0 0 0 0.2756-1.0265 0.75188 0.75188 0 0 0-0.66932-0.37544zm5.1352 0.95195a1.0195 1.0195 0 0 0-0.48512 0.1364 1.0195 1.0195 0 0 0-0.37403 1.3935 1.0195 1.0195 0 0 0 1.3935 0.37262 1.0195 1.0195 0 0 0 0.37263-1.3921 1.0195 1.0195 0 0 0-0.90695-0.51043zm-6.8507 0.4345a0.75188 0.75188 0 0 0-0.35857 0.10124 0.75188 0.75188 0 0 0-0.27419 1.0265 0.75188 0.75188 0 0 0 1.0265 0.2756 0.75188 0.75188 0 0 0 0.2756-1.0265 0.75188 0.75188 0 0 0-0.66932-0.37684zm3.1596 0.18279a0.88569 0.88569 0 0 0-0.42184 0.11812 0.88569 0.88569 0 0 0-0.32482 1.2093 0.88569 0.88569 0 0 0 1.2107 0.32482 0.88569 0.88569 0 0 0 0.3234-1.2107 0.88569 0.88569 0 0 0-0.78743-0.44153zm6.4766 0.45137a1.1915 1.1915 0 0 0-0.56667 0.1603 1.1915 1.1915 0 0 0-0.4359 1.6269 1.1915 1.1915 0 0 0 1.6269 0.4359 1.1915 1.1915 0 0 0 0.43591-1.6269 1.1915 1.1915 0 0 0-1.0602-0.5962zm-8.1921 0.93649a0.88569 0.88569 0 0 0-0.42184 0.11811 0.88569 0.88569 0 0 0-0.32482 1.2093 0.88569 0.88569 0 0 0 1.2107 0.32481 0.88569 0.88569 0 0 0 0.32341-1.2107 0.88569 0.88569 0 0 0-0.78743-0.44152zm3.7937 0.0576a1.0195 1.0195 0 0 0-0.48511 0.13639 1.0195 1.0195 0 0 0-0.37404 1.3921 1.0195 1.0195 0 0 0 1.3935 0.37403 1.0195 1.0195 0 0 0 0.37263-1.3935 1.0195 1.0195 0 0 0-0.90696-0.50902z" enable-background="new" fill="#e8e8e8" stroke-width="0"/>
 <path d="m9.1271 1.5c-6.4516 0-7.6603 0.58409-7.6264 6.2823v8.2176 8.2178c-0.034 5.6982 1.1748 6.2823 7.6264 6.2823h13.747c6.45 0 7.6264-0.58403 7.6264-6.2823v-8.2178-8.2176c0-5.6982-1.1764-6.2823-7.6264-6.2823z" color="#000000" fill="none" opacity=".4" stroke="#000"/>
 <path d="m9.127 2c-3.2107 0-5.0326 0.19514-5.9375 0.89844-0.45247 0.35165-0.74178 0.83286-0.93359 1.6172-0.19176 0.78433-0.26386 1.8569-0.25586 3.2637v2e-3 8.2187 8.2188 2e-3c-8e-3 1.4068 0.0641 2.4794 0.25586 3.2637 0.1918 0.78431 0.48112 1.2655 0.93359 1.6172 0.90496 0.7033 2.7268 0.89844 5.9375 0.89844h13.746c3.2099 0 5.0246-0.19551 5.9258-0.89844 0.45058-0.35146 0.73805-0.83201 0.93164-1.6172 0.19363-0.7853 0.26953-1.8603 0.26953-3.2677v-8.2168-8.2168c0-1.4074-0.0759-2.4824-0.26953-3.2676-0.19359-0.78517-0.48106-1.2657-0.93164-1.6172-0.90117-0.70293-2.7159-0.89844-5.9258-0.89844zm6.498 1.0469c3.4565 0.0171 6.9142-0.0268 10.361 0.0918 0.8211 0.13276 1.8066 0.14835 2.3906 0.82617 0.67884 1.1647 0.51296 2.5878 0.56446 3.873 0.0431 6.0289 0.0678 12.067-0.0332 18.088-0.0775 0.77792-0.12055 1.6726-0.67968 2.2754-0.70249 0.51038-1.6183 0.59683-2.459 0.67383-4.0474 0.0864-8.1622 0.0456-12.24 0.0606-2.4519-0.0199-4.914 0.0317-7.3535-0.0606-0.87784-0.12055-1.915-0.14021-2.5606-0.83398-0.64775-1.0259-0.50264-2.3052-0.56054-3.4648-0.035-5.6558-0.0351-11.355 0-17.01 0.0632-1.2215-0.10864-2.5772 0.59179-3.6524 0.6025-0.62665 1.5562-0.63986 2.3594-0.77344 2.7374-0.10739 5.4808-0.0704 8.2266-0.0918 0.46403-2.9e-4 0.92855-2e-3 1.3926-2e-3z" color="#000000" fill="url(#linearGradient1688-4)"/>
</svg>
