<svg width="32" height="32" version="1" xmlns="http://www.w3.org/2000/svg" xmlns:xlink="http://www.w3.org/1999/xlink">
 <defs>
  <linearGradient id="linearGradient1688" x1="321.5" x2="350.5" y1="148" y2="148" gradientTransform="rotate(90 242 -78)" gradientUnits="userSpaceOnUse">
   <stop stop-color="#c43ac4" offset="0"/>
   <stop stop-color="#9b33ae" offset="1"/>
  </linearGradient>
  <linearGradient id="linearGradient1004-8" x1="344" x2="344" y1="62" y2="106" gradientUnits="userSpaceOnUse">
   <stop stop-color="#fff" offset="0"/>
   <stop stop-color="#fff" stop-opacity=".098039" offset=".125"/>
   <stop stop-color="#fff" stop-opacity=".098039" offset=".925"/>
   <stop stop-color="#fff" stop-opacity=".49804" offset="1"/>
  </linearGradient>
  <clipPath id="clipPath994-1">
   <path d="m335.73 62c-8.8242 0-9.7736 0.90635-9.7304 9.7484v12.252 12.252c-0.0433 8.842 0.90622 9.7484 9.7304 9.7484h16.539c8.8242 0 9.7304-0.90625 9.7304-9.7484v-12.252-12.252c0-8.8421-0.90622-9.7484-9.7304-9.7484z" color="#000000" fill="#cdcdcd"/>
  </clipPath>
  <linearGradient id="linearGradient1276-3" x1="344" x2="366" y1="94" y2="94" gradientTransform="matrix(.71429 0 0 .71429 -244.57 -76.143)" gradientUnits="userSpaceOnUse">
   <stop stop-color="#fff" offset="0"/>
   <stop stop-color="#fff" stop-opacity="0" offset="1"/>
  </linearGradient>
 </defs>
 <path d="m9.0775 2c-1.6942 0-3.0389 0.0308-4.1799 0.19141-1.141 0.16064-2.1359 0.4726-2.8759 1.0918s-1.1165 1.4561-1.3064 2.4141c-0.18986 0.95795-0.22255 2.087-0.21424 3.5117v7.791 7.7969c-9e-3 1.4213 0.0247 2.5495 0.21424 3.5058 0.18984 0.95796 0.56638 1.7949 1.3064 2.4141s1.7348 0.93115 2.8759 1.0918c1.141 0.16065 2.4858 0.19141 4.1799 0.19141h13.848c1.6942 0 3.0363-0.0307 4.1752-0.19141 1.1389-0.16075 2.1315-0.47425 2.8689-1.0938 0.73736-0.6195 1.1104-1.4536 1.3017-2.4102 0.19132-0.95653 0.22822-2.084 0.22822-3.5078v-7.7969-7.7969c0-1.4238-0.037-2.5513-0.22822-3.5078-0.19129-0.95653-0.56433-1.7906-1.3017-2.4102-0.73737-0.61951-1.73-0.933-2.8689-1.0938-1.1389-0.16076-2.4811-0.19141-4.1752-0.19141z" color="#000000" color-rendering="auto" dominant-baseline="auto" image-rendering="auto" opacity=".1" shape-rendering="auto" solid-color="#000000" style="font-feature-settings:normal;font-variant-alternates:normal;font-variant-caps:normal;font-variant-ligatures:normal;font-variant-numeric:normal;font-variant-position:normal;isolation:auto;mix-blend-mode:normal;shape-padding:0;text-decoration-color:#000000;text-decoration-line:none;text-decoration-style:solid;text-indent:0;text-orientation:mixed;text-transform:none;white-space:normal"/>
 <path d="m9.1271 1.5c-6.4516 0-7.6603 0.58409-7.6264 6.2823v8.2176 8.2178c-0.034 5.6982 1.1748 6.2823 7.6264 6.2823h13.747c6.45 0 7.6264-0.58403 7.6264-6.2823v-8.2178-8.2176c0-5.6982-1.1764-6.2823-7.6264-6.2823z" color="#000000" fill="url(#linearGradient1688)"/>
 <path d="m9.1271 1.5c-6.4516 0-7.6603 0.58409-7.6264 6.2823v8.2176 8.2178c-0.034 5.6982 1.1748 6.2823 7.6264 6.2823h13.747c6.45 0 7.6264-0.58403 7.6264-6.2823v-8.2178-8.2176c0-5.6982-1.1764-6.2823-7.6264-6.2823z" color="#000000" fill="none" opacity=".4" stroke="#000"/>
 <path transform="matrix(.7733 0 0 .63636 -250.02 -37.455)" d="m335.73 62c-8.8242 0-9.7736 0.90635-9.7304 9.7484v12.252 12.252c-0.0433 8.842 0.90622 9.7484 9.7304 9.7484h16.539c8.8242 0 9.7304-0.90625 9.7304-9.7484v-12.252-12.252c0-8.8421-0.90622-9.7484-9.7304-9.7484z" clip-path="url(#clipPath994-1)" color="#000000" fill="none" opacity=".7" stroke="url(#linearGradient1004-8)" stroke-width="2.851"/>
 <path d="m10 9v8.4s0 5.6 4.5 5.6h7.5v-14h-3v10.5h-3.75c-2.25 0-2.25-2.8-2.25-2.8v-7.7z" enable-background="new" opacity=".1"/>
 <path d="m10 8v8.4s0 5.6 4.5 5.6h7.5v-14h-3v10.5h-3.75c-2.25 0-2.25-2.8-2.25-2.8v-7.7z" enable-background="new" fill="#faf8f6"/>
 <g transform="translate(1.145e-4)">
  <circle cx="18.5" cy="18.5" r="1.5" enable-background="new" fill="#fff"/>
  <circle cx="23" cy="23" r="8.5" fill="#e95420" stroke="#000" stroke-dashoffset="1" stroke-linecap="round" stroke-linejoin="round" stroke-opacity=".4"/>
  <circle transform="rotate(90)" cx="23" cy="-23" r="7.5" fill="none" opacity=".3" stroke="url(#linearGradient1276-3)" stroke-dashoffset="1" stroke-linecap="round" stroke-linejoin="round" stroke-opacity=".4"/>
  <path d="m23.981 17-1.9742 1.4e-4v1.313c0.65114-0.13405 1.323-0.13277 1.9742 4e-3v-1.3167zm-4.0394 0.89513-1.5041 1.2818 0.74101 0.88533c0.41204-0.5232 0.92701-0.95585 1.513-1.2712zm6.0965 0.0096-0.74464 0.88981c0.04298 0.02205 0.08562 0.04471 0.12792 0.06804 0.53296 0.31039 1.0024 0.71934 1.3834 1.2051l0.75385-0.90045zm-8.7075 3.1703-0.33042 1.9512 1.1365 0.20103c-0.02048-0.66657 0.09566-1.33 0.34132-1.9493zm11.314 2e-3 -1.1421 0.20188c0.2475 0.61888 0.36585 1.2818 0.34774 1.9479l1.1496-0.20277zm-10.262 3.5295-1.0136 0.58686h-3.37e-4l0.99826 1.7074 1.0036-0.5807c-0.44254-0.49775-0.77878-1.0809-0.98794-1.7136zm9.2256 2e-3c-0.10212 0.31746-0.23652 0.6235-0.40108 0.91332-0.16562 0.2871-0.3601 0.55646-0.58041 0.80385l1.0041 0.58126 0.97618-1.7203zm-7.1677 2.6101-0.40109 1.1043 1.8596 0.66497 0.39439-1.0866c-0.60839-0.0893-1.1946-0.29338-1.7275-0.60143-0.04222-0.0264-0.08402-0.05346-0.12541-0.08119zm5.11 0.0115c-0.56586 0.34992-1.1976 0.57959-1.856 0.67478l0.39772 1.0951 1.8507-0.68906z" color="#000000" fill="#fff"/>
  <path d="m22.981 18.298a4.7059 4.7173 0 0 0-4.7057 4.7172 4.7059 4.7173 0 0 0 4.7057 4.7172 4.7059 4.7173 0 0 0 4.7057-4.7172 4.7059 4.7173 0 0 0-4.7057-4.7172zm0 0.62881a4.0784 4.0884 0 0 1 4.0785 4.0884 4.0784 4.0884 0 0 1-4.0785 4.0884 4.0784 4.0884 0 0 1-4.0784-4.0884 4.0784 4.0884 0 0 1 4.0784-4.0884z" enable-background="new" fill="#fff" stroke="#fff" stroke-linecap="round" stroke-linejoin="round" stroke-width=".68627"/>
 </g>
</svg>
