<svg width="32" height="32" version="1" xmlns="http://www.w3.org/2000/svg" xmlns:xlink="http://www.w3.org/1999/xlink">
 <defs>
  <linearGradient id="linearGradient1688" x1="321.5" x2="350.5" y1="148" y2="148" gradientTransform="rotate(90 242 -78)" gradientUnits="userSpaceOnUse">
   <stop stop-color="#f4843f" offset="0"/>
   <stop stop-color="#f8ae34" offset="1"/>
  </linearGradient>
  <linearGradient id="linearGradient1004-8" x1="344" x2="344" y1="62" y2="106" gradientUnits="userSpaceOnUse">
   <stop stop-color="#fff" offset="0"/>
   <stop stop-color="#fff" stop-opacity=".098039" offset=".125"/>
   <stop stop-color="#fff" stop-opacity=".098039" offset=".925"/>
   <stop stop-color="#fff" stop-opacity=".49804" offset="1"/>
  </linearGradient>
  <clipPath id="clipPath994-1">
   <path d="m335.73 62c-8.8242 0-9.7736 0.90635-9.7304 9.7484v12.252 12.252c-0.0433 8.842 0.90622 9.7484 9.7304 9.7484h16.539c8.8242 0 9.7304-0.90625 9.7304-9.7484v-12.252-12.252c0-8.8421-0.90622-9.7484-9.7304-9.7484z" color="#000000" fill="#cdcdcd"/>
  </clipPath>
 </defs>
 <path d="m9.0775 2c-1.6942 0-3.0389 0.0308-4.1799 0.19141-1.141 0.16064-2.1359 0.4726-2.8759 1.0918s-1.1165 1.4561-1.3064 2.4141c-0.18986 0.95795-0.22255 2.087-0.21424 3.5117v7.791 7.7969c-9e-3 1.4213 0.0247 2.5495 0.21424 3.5058 0.18984 0.95796 0.56638 1.7949 1.3064 2.4141s1.7348 0.93115 2.8759 1.0918c1.141 0.16065 2.4858 0.19141 4.1799 0.19141h13.848c1.6942 0 3.0363-0.0307 4.1752-0.19141 1.1389-0.16075 2.1315-0.47425 2.8689-1.0938 0.73736-0.6195 1.1104-1.4536 1.3017-2.4102 0.19132-0.95653 0.22822-2.084 0.22822-3.5078v-7.7969-7.7969c0-1.4238-0.037-2.5513-0.22822-3.5078-0.19129-0.95653-0.56433-1.7906-1.3017-2.4102-0.73737-0.61951-1.73-0.933-2.8689-1.0938-1.1389-0.16076-2.4811-0.19141-4.1752-0.19141z" color="#000000" color-rendering="auto" dominant-baseline="auto" image-rendering="auto" opacity=".1" shape-rendering="auto" solid-color="#000000" style="font-feature-settings:normal;font-variant-alternates:normal;font-variant-caps:normal;font-variant-ligatures:normal;font-variant-numeric:normal;font-variant-position:normal;isolation:auto;mix-blend-mode:normal;shape-padding:0;text-decoration-color:#000000;text-decoration-line:none;text-decoration-style:solid;text-indent:0;text-orientation:mixed;text-transform:none;white-space:normal"/>
 <path d="m9.1271 1.5c-6.4516 0-7.6603 0.58409-7.6264 6.2823v8.2176 8.2178c-0.034 5.6982 1.1748 6.2823 7.6264 6.2823h13.747c6.45 0 7.6264-0.58403 7.6264-6.2823v-8.2178-8.2176c0-5.6982-1.1764-6.2823-7.6264-6.2823z" color="#000000" fill="url(#linearGradient1688)"/>
 <path d="m9.6398 5.7772-4.5846 4.5854 0.52364 0.52343 6.1136 6.1139-6.6373 6.6375 4.5846 4.5846 6.6373-6.6375 6.6375 6.6375 4.5854-4.5846-6.6375-6.6375 6.6375-6.6373-4.5854-4.5854-6.6375 6.6375zm0 1.0482 6.6375 6.6375 6.6375-6.6375 3.5371 3.5371-6.6375 6.6375 6.6375 6.6373-3.5371 3.5373-6.6375-6.6375-6.6375 6.6375-3.5371-3.5373 6.6375-6.6373-6.6375-6.6375z" enable-background="new" fill="#fff" opacity=".2"/>
 <path d="m6.9983 25.977h-2.4983v-3.9973h4.9966v0.99932h-3.4976v1.9986h3.4976v0.99932zm3.4976 0v-4.9966h1.499v0.99934h3.9973v3.9973h-1.499v-2.998h-2.4983v2.998zm8.2444 0h-1.7488v-3.9973h5.4962v1.499h0.49966v2.4983h-1.499v-2.998h-2.9979v1.9986h1.9986v0.99932zm6.4956 0h-1.2492v-2.998h-0.49965v-0.99932h0.99931v-0.99934h0.99931v0.99934h0.99932v0.99932h-0.99932v1.9986h0.99932v0.99932z" enable-background="new" opacity=".1" stroke-width="3.7797"/>
 <g transform="matrix(.8668 0 0 .8668 -329.42 -114.89)" enable-background="new">
  <path d="m391.17 138.05-5.2891 5.2901 0.60411 0.60386 7.0531 7.0534-7.6572 7.6575 5.2891 5.2891 7.6572-7.6575 7.6575 7.6575 5.2901-5.2891-7.6575-7.6575 7.6575-7.6572-5.2901-5.2901-7.6575 7.6575zm0 1.2092 7.6575 7.6575 7.6575-7.6575 4.0806 4.0806-7.6575 7.6575 7.6575 7.6572-4.0806 4.0808-7.6575-7.6575-7.6575 7.6575-4.0806-4.0808 7.6575-7.6572-7.6575-7.6575z" stroke-width="1.1537"/>
  <path d="m388.12 161.36h-2.8822v-4.6116h5.7644v1.1529h-4.0351v2.3058h4.0351v1.1529zm4.0351 0v-5.7644h1.7293v1.1529h4.6115v4.6116h-1.7293v-3.4587h-2.8822v3.4587zm9.5112 0h-2.0175v-4.6116h6.3408v1.7294h0.57644v2.8822h-1.7293v-3.4587h-3.4586v2.3058h2.3058v1.1529zm7.4937 0h-1.4411v-3.4587h-0.57644v-1.1529h1.1529v-1.1529h1.1529v1.1529h1.1529v1.1529h-1.1529v2.3058h1.1529v1.1529z" fill="#f2f2f2" stroke-width="4.3605"/>
 </g>
 <path d="m9.1271 1.5c-6.4516 0-7.6603 0.58409-7.6264 6.2823v8.2176 8.2178c-0.034 5.6982 1.1748 6.2823 7.6264 6.2823h13.747c6.45 0 7.6264-0.58403 7.6264-6.2823v-8.2178-8.2176c0-5.6982-1.1764-6.2823-7.6264-6.2823z" color="#000000" fill="none" opacity=".4" stroke="#000"/>
 <path transform="matrix(.7733 0 0 .63636 -250.02 -37.455)" d="m335.73 62c-8.8242 0-9.7736 0.90635-9.7304 9.7484v12.252 12.252c-0.0433 8.842 0.90622 9.7484 9.7304 9.7484h16.539c8.8242 0 9.7304-0.90625 9.7304-9.7484v-12.252-12.252c0-8.8421-0.90622-9.7484-9.7304-9.7484z" clip-path="url(#clipPath994-1)" color="#000000" fill="none" opacity=".7" stroke="url(#linearGradient1004-8)" stroke-width="2.851"/>
</svg>
