<?xml version="1.0" encoding="UTF-8" standalone="no"?>
<svg
   height="16"
   width="16"
   version="1.1"
   id="svg7"
   sodipodi:docname="yumex-dnf.svg"
   inkscape:version="1.2 (1:1.2+202206011326+fc4e4096c5)"
   xmlns:inkscape="http://www.inkscape.org/namespaces/inkscape"
   xmlns:sodipodi="http://sodipodi.sourceforge.net/DTD/sodipodi-0.dtd"
   xmlns="http://www.w3.org/2000/svg"
   xmlns:svg="http://www.w3.org/2000/svg">
  <sodipodi:namedview
     id="namedview9"
     pagecolor="#ffffff"
     bordercolor="#000000"
     borderopacity="0.25"
     inkscape:showpageshadow="2"
     inkscape:pageopacity="0.0"
     inkscape:pagecheckerboard="0"
     inkscape:deskcolor="#d1d1d1"
     showgrid="false"
     inkscape:zoom="12.506951"
     inkscape:cx="12.71293"
     inkscape:cy="8.2354203"
     inkscape:window-width="1308"
     inkscape:window-height="742"
     inkscape:window-x="0"
     inkscape:window-y="0"
     inkscape:window-maximized="1"
     inkscape:current-layer="svg7" />
  <defs
     id="defs3">
    <style
       id="current-color-scheme"
       type="text/css">.ColorScheme-Text { color:#727272; } .ColorScheme-Highlight { color:#5294e2; }</style>
  </defs>
  <path
     d="M 7.066895,2.75 C 6.7032575,3.507575 6.3543275,4.27496 6.0209975,5.0527325 5.68766,5.82041 5.34929,6.6285575 5.0058575,7.4770475 4.8485075,7.877585 4.6812575,8.327 4.519535,8.75 H 3.875 c -0.62325,0 -1.125,0.50175 -1.125,1.125 0,0.555892 0.4002075,1.01172 0.92871,1.104495 C 3.4078925,11.7062 3.1375925,12.429852 2.839355,13.25 h 1.99365 L 5.634275,11 H 10.25 c 0.27087,0.759037 0.646267,1.562452 0.89991,2.25 h 1.960927 C 12.803082,12.43931 12.529145,11.71292 12.255372,10.986815 12.815892,10.92179 13.25,10.453527 13.25,9.875 13.25,9.25175 12.74825,8.75 12.125,8.75 H 11.396975 C 11.235305,8.335955 11.07302,7.91171 10.913577,7.52246 10.58024,6.6739775 9.913085,5.0834975 9.913085,5.0834975 9.913085,5.0834975 9.22628,3.52778 8.85254,2.75 H 7.9545875 Z M 8,4.625 9.5,8.75 H 6.435545 L 8.0000375,4.625 Z M 3.875,9.5 H 6.8251925 9.125 12.174807 C 12.35501,9.5 12.5,9.64499 12.5,9.8251925 v 0.099615 C 12.5,10.10501 12.35501,10.25 12.174807,10.25 H 9.125 6.8251925 3.875 C 3.66725,10.25 3.5,10.08275 3.5,9.875 3.5,9.66725 3.66725,9.5 3.875,9.5 Z"
     style="fill:currentColor;stroke-width:0.75"
     class="ColorScheme-Text"
     id="path5" />
</svg>
