<?xml version="1.0" encoding="UTF-8" standalone="no"?>
<svg
   height="16.000061"
   width="15.999999"
   version="1.1"
   id="svg397"
   sodipodi:docname="archive-manager.svg"
   inkscape:version="1.2 (1:1.2+202206011326+fc4e4096c5)"
   xmlns:inkscape="http://www.inkscape.org/namespaces/inkscape"
   xmlns:sodipodi="http://sodipodi.sourceforge.net/DTD/sodipodi-0.dtd"
   xmlns="http://www.w3.org/2000/svg"
   xmlns:svg="http://www.w3.org/2000/svg">
  <sodipodi:namedview
     id="namedview399"
     pagecolor="#ffffff"
     bordercolor="#000000"
     borderopacity="0.25"
     inkscape:showpageshadow="2"
     inkscape:pageopacity="0.0"
     inkscape:pagecheckerboard="0"
     inkscape:deskcolor="#d1d1d1"
     showgrid="false"
     inkscape:zoom="12.506903"
     inkscape:cx="4.4775272"
     inkscape:cy="10.474215"
     inkscape:window-width="1308"
     inkscape:window-height="742"
     inkscape:window-x="0"
     inkscape:window-y="0"
     inkscape:window-maximized="1"
     inkscape:current-layer="svg397" />
  <defs
     id="defs387">
    <style
       id="current-color-scheme"
       type="text/css">.ColorScheme-Text { color:#727272; } .ColorScheme-Highlight { color:#5294e2; }</style>
  </defs>
  <g
     fill="#f2f2f7"
     transform="matrix(0.75,0,0,0.75,-441.625,-177.99997)"
     id="g395">
    <path
       d="m 596.99414,240 c -1.2582,0.0145 -2.17889,-0.0306 -2.93164,0.38477 -0.37637,0.20766 -0.67323,0.55938 -0.83789,0.99804 C 593.05994,241.82148 593,242.34239 593,243 v 10 c 0,0.65761 0.0599,1.17853 0.22461,1.61719 0.16467,0.43866 0.46152,0.79039 0.83789,0.99804 0.75275,0.41532 1.67345,0.3702 2.93164,0.38477 h 0.004 5.0039 0.004 c 1.25819,-0.0145 2.17889,0.0306 2.93164,-0.38477 0.37637,-0.20766 0.67322,-0.55938 0.83789,-0.99804 C 605.94006,254.17852 606,253.65761 606,253 v -10 c 0,-0.65761 -0.0599,-1.17852 -0.22461,-1.61719 -0.16466,-0.43866 -0.46152,-0.79038 -0.83789,-0.99804 -0.75275,-0.41534 -1.67344,-0.37025 -2.93164,-0.38477 h -0.004 -5.0039 z m 0.006,1 h 5 c 1.25852,0.0147 2.08717,0.0598 2.45312,0.26172 0.18341,0.1012 0.28916,0.21274 0.38672,0.47266 C 604.93741,241.99429 605,242.40761 605,243 v 10 c 0,0.59239 -0.0626,1.00572 -0.16016,1.26562 -0.0976,0.25991 -0.20331,0.37147 -0.38672,0.47266 C 604.08717,254.94019 603.25852,254.98529 602,255 H 597.00586 597 c -1.25853,-0.0147 -2.08717,-0.0598 -2.45312,-0.26172 -0.18341,-0.10119 -0.28916,-0.21275 -0.38672,-0.47266 C 594.06259,254.00572 594,253.59239 594,253 v -10 c 0,-0.59239 0.0626,-1.00572 0.16016,-1.26562 0.0976,-0.25991 0.20331,-0.37147 0.38672,-0.47266 C 594.91283,241.05981 595.74147,241.01471 597,241 Z"
       style="fill:currentColor"
       class="ColorScheme-Text"
       id="path389" />
    <path
       d="m 598.25004,246 c -0.1385,0 -0.25,0.1115 -0.25,0.25 v 5.50025 c 0,0.1385 0.1115,0.25 0.25,0.25 h 2.5005 c 0.1385,0 0.25,-0.1115 0.25,-0.25 V 246.25 c 0,-0.1385 -0.1115,-0.25 -0.25,-0.25 z m 0.875,3.99975 h 0.7505 c 0.0693,0 0.125,0.0557 0.125,0.125 v 0.7505 c 0,0.0693 -0.0557,0.125 -0.125,0.125 h -0.7505 c -0.0693,0 -0.125,-0.0557 -0.125,-0.125 v -0.7505 c 0,-0.0693 0.0557,-0.125 0.125,-0.125 z"
       style="fill:currentColor"
       class="ColorScheme-Text"
       id="path391" />
    <path
       d="m 599.00004,242 v 1 h 1 v -1 z m 0,2 v 1 h 1 v -1 z"
       style="fill:currentColor"
       class="ColorScheme-Text"
       id="path393" />
  </g>
</svg>
