<?xml version="1.0" encoding="UTF-8" standalone="no"?>
<svg
   height="16"
   width="16"
   version="1.1"
   id="svg7"
   sodipodi:docname="nautilus.svg"
   inkscape:version="1.2 (dc2aedaf03, 2022-05-15)"
   xmlns:inkscape="http://www.inkscape.org/namespaces/inkscape"
   xmlns:sodipodi="http://sodipodi.sourceforge.net/DTD/sodipodi-0.dtd"
   xmlns="http://www.w3.org/2000/svg"
   xmlns:svg="http://www.w3.org/2000/svg">
  <sodipodi:namedview
     id="namedview9"
     pagecolor="#505050"
     bordercolor="#eeeeee"
     borderopacity="1"
     inkscape:showpageshadow="0"
     inkscape:pageopacity="0"
     inkscape:pagecheckerboard="0"
     inkscape:deskcolor="#505050"
     showgrid="false"
     inkscape:zoom="35.25"
     inkscape:cx="6.8652482"
     inkscape:cy="8"
     inkscape:window-width="1308"
     inkscape:window-height="742"
     inkscape:window-x="58"
     inkscape:window-y="26"
     inkscape:window-maximized="1"
     inkscape:current-layer="svg7" />
  <defs
     id="defs3">
    <style
       id="current-color-scheme"
       type="text/css">.ColorScheme-Text { color:#727272; } .ColorScheme-Highlight { color:#5294e2; }</style>
  </defs>
  <path
     d="M 4.995605,2.75 C 4.0519625,2.760875 3.3614825,2.72855 2.796875,3.04004 2.5145675,3.1958 2.29049,3.4581425 2.166995,3.7871075 2.0435075,4.1160725 2,4.5068075 2,5 v 6 c 0,0.493192 0.0435,0.883927 0.166995,1.212893 0.123495,0.328964 0.3475725,0.592769 0.62988,0.748529 0.5646075,0.311513 1.2550875,0.277673 2.19873,0.288578 h 0.0045 6 0.0045 c 0.943642,-0.01088 1.634122,0.02295 2.19873,-0.288578 0.282307,-0.15576 0.506385,-0.419565 0.62988,-0.748529 C 13.9565,11.883927 14,11.493192 14,11 V 8.75 6.5 C 14,6.0068075 13.9565,5.6160725 13.833005,5.2871075 13.81763,5.2461575 13.79708,5.209115 13.777355,5.17139 13.769855,5.157515 13.764005,5.14289 13.75688,5.12894 13.627355,4.87487 13.437777,4.6680425 13.20317,4.5386075 12.638517,4.227095 11.948037,4.260935 11.004395,4.25003 h -0.0045 -2.2749 l -1.5161175,-1.5 H 4.9969625 Z M 5.00438,3.5 H 6.901355 L 8.22557,4.8095675 7.2749,5.75 H 5 4.9955 C 4.0518575,5.760875 3.3613775,5.72705 2.79677,6.0385775 2.78012,6.0477275 2.766095,6.0608525 2.749895,6.0708275 V 5 c 0,-0.4443075 0.04695,-0.754275 0.12012,-0.9492225 C 2.943215,3.8558075 3.02252,3.772175 3.160055,3.69629 3.4351175,3.5445275 4.056635,3.5109425 5.00429,3.5 Z M 9.098615,5 h 1.895512 c 0.947655,0.01095 1.569165,0.04455 1.844235,0.19629 0.137535,0.075885 0.216863,0.1595175 0.29004,0.3544875 C 13.201677,5.7457325 13.25,6.0556925 13.25,6.5 V 8.75 11 c 0,0.444307 -0.04702,0.754267 -0.12012,0.949215 -0.0732,0.194962 -0.15249,0.27861 -0.29004,0.354495 C 12.565257,12.455225 11.944925,12.488975 11,12.5 H 10.9955 5 C 4.055075,12.488975 3.43475,12.455225 3.16016,12.30371 3.0226025,12.227825 2.9432975,12.144177 2.87012,11.949215 2.79692,11.754267 2.75,11.444307 2.75,11 V 8 C 2.75,7.5556925 2.7983,7.2457325 2.8715825,7.0507775 2.9447825,6.8558075 3.0240875,6.772175 3.1616225,6.69629 3.4366925,6.54455 4.0582025,6.51095 5.0058575,6.5 H 7.58252 Z"
     style="fill:currentColor;stroke-width:0.75"
     class="ColorScheme-Text"
     id="path5" />
</svg>
