<svg height="16" width="15.999999" xmlns="http://www.w3.org/2000/svg"> <defs>
  <style id="current-color-scheme" type="text/css">.ColorScheme-Text { color:#727272; } .ColorScheme-Highlight { color:#5294e2; }</style>
 </defs>
  <g fill="#f2f2f7">
    <path d="m11.00002 12h5v1h-5z" style="fill:currentColor" class="ColorScheme-Text"/>
    <path d="m13.00002 10h1v5h-1z" style="fill:currentColor" class="ColorScheme-Text"/>
    <path d="m13.00002 8h1v1h-1z" style="fill:currentColor" class="ColorScheme-Text"/>
    <path d="m1.00002 8h1v1h-1z" style="fill:currentColor" class="ColorScheme-Text"/>
    <path d="m13.00002 4h1v1h-1z" style="fill:currentColor" class="ColorScheme-Text"/>
    <path d="m1.00002 4h1v1h-1z" style="fill:currentColor" class="ColorScheme-Text"/>
    <path d="m13.00002 2h1v1h-1z" style="fill:currentColor" class="ColorScheme-Text"/>
    <path d="m1.00002 2h1v1h-1z" style="fill:currentColor" class="ColorScheme-Text"/>
    <path d="m1.00002 10h1v1h-1z" style="fill:currentColor" class="ColorScheme-Text"/>
    <path d="m1.00002 12h1v1h-1z" style="fill:currentColor" class="ColorScheme-Text"/>
    <path d="m3.00002 12h1v1h-1z" style="fill:currentColor" class="ColorScheme-Text"/>
    <path d="m5.00002 12h1v1h-1z" style="fill:currentColor" class="ColorScheme-Text"/>
    <path d="m7.00002 12h1v1h-1z" style="fill:currentColor" class="ColorScheme-Text"/>
    <path d="m3.00002 2h1v1h-1z" style="fill:currentColor" class="ColorScheme-Text"/>
    <path d="m5.00002 2h1v1h-1z" style="fill:currentColor" class="ColorScheme-Text"/>
    <path d="m7.00002 2h1v1h-1z" style="fill:currentColor" class="ColorScheme-Text"/>
    <path d="m11.00002 2h1v1h-1z" style="fill:currentColor" class="ColorScheme-Text"/>
    <path d="m9.00002 12h1v1h-1z" style="fill:currentColor" class="ColorScheme-Text"/>
    <path d="m9.00002 2h1v1h-1z" style="fill:currentColor" class="ColorScheme-Text"/>
    <path d="m13.00002 6h1v1h-1z" style="fill:currentColor" class="ColorScheme-Text"/>
    <path d="m1.00002 6h1v1h-1z" style="fill:currentColor" class="ColorScheme-Text"/>
  </g>
</svg>
