<svg height="16" width="16" xmlns="http://www.w3.org/2000/svg"> <defs>
  <style id="current-color-scheme" type="text/css">.ColorScheme-Text { color:#727272; } .ColorScheme-Highlight { color:#5294e2; }</style>
 </defs>
  <path d="m8 .5a7.5 7.5 0 0 0 -7.06054688 5h14.12304688a7.5 7.5 0 0 0 -7.0625-5zm-7.34765625 6a7.5 7.5 0 0 0 -.12695313 1h14.95703138a7.5 7.5 0 0 0 -.142578-1zm-.13476563 2a7.5 7.5 0 0 0 .14257813 1h14.68749975a7.5 7.5 0 0 0 .126953-1zm.41992188 2a7.5 7.5 0 0 0 7.0625 5 7.5 7.5 0 0 0 7.060547-5z" style="fill:currentColor" class="ColorScheme-Text"/>
</svg>
