<?xml version="1.0" encoding="UTF-8" standalone="no"?>
<svg
   height="16"
   width="16"
   version="1.1"
   id="svg443"
   sodipodi:docname="aptik-battery-monitor.svg"
   inkscape:version="1.2 (dc2aedaf03, 2022-05-15)"
   xmlns:inkscape="http://www.inkscape.org/namespaces/inkscape"
   xmlns:sodipodi="http://sodipodi.sourceforge.net/DTD/sodipodi-0.dtd"
   xmlns="http://www.w3.org/2000/svg"
   xmlns:svg="http://www.w3.org/2000/svg">
  <sodipodi:namedview
     id="namedview445"
     pagecolor="#505050"
     bordercolor="#eeeeee"
     borderopacity="1"
     inkscape:showpageshadow="0"
     inkscape:pageopacity="0"
     inkscape:pagecheckerboard="0"
     inkscape:deskcolor="#505050"
     showgrid="false"
     inkscape:zoom="12.462757"
     inkscape:cx="8.4251021"
     inkscape:cy="10.35084"
     inkscape:window-width="1308"
     inkscape:window-height="742"
     inkscape:window-x="58"
     inkscape:window-y="26"
     inkscape:window-maximized="1"
     inkscape:current-layer="svg443" />
  <defs
     id="defs435">
    <style
       id="current-color-scheme"
       type="text/css">.ColorScheme-Text { color:#727272; } .ColorScheme-Highlight { color:#5294e2; }</style>
  </defs>
  <g
     fill="#f2f2f7"
     transform="matrix(0.799998,0,0,0.80000002,-424.39894,-142)"
     id="g441">
    <path
       d="m 540.00004,192.5 2.50044,-5.50047 h -1.5 v -4.5 L 538.50004,188 h 1.5 z"
       style="fill:currentColor"
       class="ColorScheme-Text"
       id="path437" />
    <path
       d="m 540.5,180 c -4.13621,0 -7.5,3.36379 -7.5,7.5 0,4.13621 3.36379,7.5 7.5,7.5 4.13621,0 7.5,-3.36379 7.5,-7.5 0,-4.13621 -3.36379,-7.5 -7.5,-7.5 z m 0,1 c 3.59577,0 6.5,2.90423 6.5,6.5 0,3.59577 -2.90423,6.5 -6.5,6.5 -3.59577,0 -6.5,-2.90423 -6.5,-6.5 0,-3.59577 2.90423,-6.5 6.5,-6.5 z"
       style="fill:currentColor"
       class="ColorScheme-Text"
       id="path439" />
  </g>
</svg>
