<?xml version="1.0" encoding="UTF-8" standalone="no"?>
<svg
   height="16.000032"
   width="16.000046"
   version="1.1"
   id="svg11"
   sodipodi:docname="error-app.svg"
   inkscape:version="1.2 (dc2aedaf03, 2022-05-15)"
   xmlns:inkscape="http://www.inkscape.org/namespaces/inkscape"
   xmlns:sodipodi="http://sodipodi.sourceforge.net/DTD/sodipodi-0.dtd"
   xmlns="http://www.w3.org/2000/svg"
   xmlns:svg="http://www.w3.org/2000/svg">
  <sodipodi:namedview
     id="namedview13"
     pagecolor="#505050"
     bordercolor="#eeeeee"
     borderopacity="1"
     inkscape:showpageshadow="0"
     inkscape:pageopacity="0"
     inkscape:pagecheckerboard="0"
     inkscape:deskcolor="#505050"
     showgrid="false"
     inkscape:zoom="12.462732"
     inkscape:cx="8.3448799"
     inkscape:cy="9.7089468"
     inkscape:window-width="1308"
     inkscape:window-height="742"
     inkscape:window-x="58"
     inkscape:window-y="26"
     inkscape:window-maximized="1"
     inkscape:current-layer="svg11" />
  <defs
     id="defs3">
    <style
       id="current-color-scheme"
       type="text/css">.ColorScheme-Text { color:#727272; } .ColorScheme-Highlight { color:#5294e2; }</style>
  </defs>
  <g
     fill="#f2f2f7"
     transform="matrix(0.75,0,0,0.75,-427.00003,-178)"
     id="g9">
    <path
       d="m 580.00004,240 a 8,8 0 0 0 -8,8 8,8 0 0 0 8,8 8,8 0 0 0 8,-8 8,8 0 0 0 -8,-8 z m 0,1 a 7,7 0 0 1 7,7 7,7 0 0 1 -7,7 7,7 0 0 1 -7,-7 7,7 0 0 1 7,-7 z"
       style="fill:currentColor"
       class="ColorScheme-Text"
       id="path5" />
    <path
       d="m 580.7083,245.66291 q 0,1.1898 -0.085,2.16714 -0.085,0.96317 -0.21247,1.92635 h -0.82153 q -0.12747,-0.96318 -0.21246,-1.92635 -0.085,-0.97734 -0.085,-2.16714 v -2.66289 h 1.41643 z m 0.24079,6.3881 q 0,0.38244 -0.25496,0.66573 -0.25495,0.28328 -0.69405,0.28328 -0.43909,0 -0.69405,-0.28328 -0.25496,-0.28329 -0.25496,-0.66573 0,-0.38243 0.25496,-0.66572 0.25496,-0.28328 0.69405,-0.28328 0.4391,0 0.69405,0.28328 0.25496,0.28329 0.25496,0.66572 z"
       style="fill:currentColor"
       class="ColorScheme-Text"
       id="path7" />
  </g>
</svg>
