<?xml version="1.0" encoding="UTF-8" standalone="no"?>
<svg
   height="16.000061"
   width="15.999999"
   version="1.1"
   id="svg7"
   sodipodi:docname="kup.svg"
   inkscape:version="1.2 (1:1.2+202206011326+fc4e4096c5)"
   xmlns:inkscape="http://www.inkscape.org/namespaces/inkscape"
   xmlns:sodipodi="http://sodipodi.sourceforge.net/DTD/sodipodi-0.dtd"
   xmlns="http://www.w3.org/2000/svg"
   xmlns:svg="http://www.w3.org/2000/svg">
  <sodipodi:namedview
     id="namedview9"
     pagecolor="#ffffff"
     bordercolor="#000000"
     borderopacity="0.25"
     inkscape:showpageshadow="2"
     inkscape:pageopacity="0.0"
     inkscape:pagecheckerboard="0"
     inkscape:deskcolor="#d1d1d1"
     showgrid="false"
     inkscape:zoom="12.506903"
     inkscape:cx="14.192162"
     inkscape:cy="8.07554"
     inkscape:window-width="1308"
     inkscape:window-height="742"
     inkscape:window-x="0"
     inkscape:window-y="0"
     inkscape:window-maximized="1"
     inkscape:current-layer="svg7" />
  <defs
     id="defs3">
    <style
       id="current-color-scheme"
       type="text/css">.ColorScheme-Text { color:#727272; } .ColorScheme-Highlight { color:#5294e2; }</style>
  </defs>
  <path
     d="M 6.1206045,2.0000305 C 5.1769545,2.0109055 4.486437,1.9770805 3.9218745,2.288608 3.639597,2.444353 3.416952,2.708143 3.293457,3.037138 3.1699545,3.3661405 3.1249995,3.756823 3.1249995,4.2500305 v 7.5000005 c 0,0.493208 0.044925,0.883935 0.1684575,1.212893 0.12351,0.328957 0.3461475,0.591389 0.6284175,0.747067 0.56454,0.311347 1.255155,0.278737 2.19873,0.29004 h 0.0015 3.754395 0.003 c 0.9436425,-0.01087 1.6341675,0.02295 2.1987305,-0.288578 0.282277,-0.155745 0.504915,-0.419535 0.628417,-0.748529 C 12.82994,12.633921 12.875,12.243239 12.875,11.750031 V 4.2500305 C 12.875,3.756823 12.83008,3.3660955 12.706542,3.037138 12.583033,2.7081805 12.360395,2.445748 12.078125,2.2900705 11.513585,1.978723 10.822963,2.011333 9.8793945,2.0000305 h -0.0015 -3.754395 z m 0.0045,0.75 h 3.75 c 0.9439655,0.0114 1.5668255,0.044925 1.8413105,0.19629 0.137565,0.07587 0.215415,0.159645 0.28857,0.354495 C 12.07796,3.495658 12.125,3.805738 12.125,4.2500305 v 7.5000005 c 0,0.444292 -0.04695,0.754297 -0.12012,0.949215 -0.0732,0.194932 -0.151013,0.278603 -0.28857,0.354495 -0.27447,0.15144 -0.89742,0.185257 -1.8413105,0.19629 h -3.745605 -0.0045 c -0.9439725,-0.0114 -1.566825,-0.04492 -1.84131,-0.19629 -0.137565,-0.07587 -0.215415,-0.159645 -0.28857,-0.354495 -0.0732,-0.194843 -0.12012,-0.504922 -0.12012,-0.949215 V 4.2500305 c 0,-0.4442925 0.04695,-0.7542975 0.12012,-0.949215 0.0732,-0.1949325 0.1510125,-0.2786025 0.28857,-0.354495 0.27447,-0.15144 0.8974125,-0.185265 1.84131,-0.19629 z m 1.875,1.5 c -1.0355325,0 -1.875,0.8394675 -1.875,1.875 0,1.0355325 0.8394675,1.875 1.875,1.875 1.0355325,0 1.875,-0.8394675 1.875,-1.875 0,-1.0355325 -0.8394675,-1.875 -1.875,-1.875 z m 0,0.75 c 0.6213225,0 1.125,0.5036775 1.125,1.125 0,0.6213225 -0.5036775,1.125 -1.125,1.125 -0.6213225,0 -1.125,-0.5036775 -1.125,-1.125 0,-0.6213225 0.5036775,-1.125 1.125,-1.125 z m 1.55859,3.74121 c -0.081735,-0.00967 -0.17322,0.0075 -0.250485,0.064425 L 8.288682,9.557128 C 8.1971,9.519253 8.099022,9.499903 7.9999995,9.500053 c -0.1028325,2.25e-4 -0.20463,0.02175 -0.29883,0.063 L 6.6918945,8.818918 C 6.537372,8.7049105 6.3268695,8.748493 6.2480445,8.854093 l -0.064425,0.08496 c -0.094965,0.12723 -0.079808,0.37227 0.0747,0.48633 l 0.99756,0.736816 c -0.00375,0.02917 -0.00525,0.0585 -0.006,0.08789 7.35e-4,0.26721 0.1435875,0.513855 0.375,0.64746 v 1.22748 c 0,0.20775 0.156495,0.375 0.3515625,0.375 h 0.046875 c 0.1950075,2e-6 0.3516825,-0.167248 0.3516825,-0.374998 v -1.226078 c 0.23187,-0.133867 0.37479,-0.381187 0.375,-0.648922 0,-0.03383 -0.003,-0.06765 -0.0075,-0.101078 l 0.99903,-0.736815 c 0.1545075,-0.11406 0.169665,-0.359115 0.0747,-0.4863225 L 9.7518045,8.840848 C 9.7124295,8.788048 9.640212,8.7509155 9.5584395,8.7412405 Z"
     style="fill:currentColor;stroke-width:0.75"
     class="ColorScheme-Text"
     id="path5" />
</svg>
