<?xml version="1.0" encoding="UTF-8" standalone="no"?>
<svg
   height="16"
   width="16"
   version="1.1"
   id="svg308"
   sodipodi:docname="com.github.stsdc.monitor.svg"
   inkscape:version="1.2 (dc2aedaf03, 2022-05-15)"
   xmlns:inkscape="http://www.inkscape.org/namespaces/inkscape"
   xmlns:sodipodi="http://sodipodi.sourceforge.net/DTD/sodipodi-0.dtd"
   xmlns="http://www.w3.org/2000/svg"
   xmlns:svg="http://www.w3.org/2000/svg">
  <sodipodi:namedview
     id="namedview310"
     pagecolor="#505050"
     bordercolor="#eeeeee"
     borderopacity="1"
     inkscape:showpageshadow="0"
     inkscape:pageopacity="0"
     inkscape:pagecheckerboard="0"
     inkscape:deskcolor="#505050"
     showgrid="false"
     inkscape:zoom="35.25"
     inkscape:cx="7.9148936"
     inkscape:cy="8"
     inkscape:window-width="1308"
     inkscape:window-height="742"
     inkscape:window-x="58"
     inkscape:window-y="26"
     inkscape:window-maximized="1"
     inkscape:current-layer="svg308" />
  <defs
     id="defs304">
    <style
       id="current-color-scheme"
       type="text/css">.ColorScheme-Text { color:#727272; } .ColorScheme-Highlight { color:#5294e2; }</style>
  </defs>
  <path
     d="M 4.995635,2.75006 C 4.051985,2.760935 3.3614675,2.72711 2.796905,3.0386375 2.5146275,3.1943825 2.2919825,3.4581725 2.1684875,3.7871675 2.044985,4.11617 2.00003,4.5068525 2.00003,5.00006 v 6 c 0,0.493208 0.044925,0.883898 0.1684575,1.212893 0.1235025,0.328995 0.34614,0.592792 0.6284175,0.74853 0.5645625,0.31149 1.2550875,0.27765 2.19873,0.288577 h 0.003 6.002925 0.003 c 0.943643,-0.01087 1.634168,0.02295 2.19873,-0.288577 0.282278,-0.155745 0.504915,-0.419535 0.628418,-0.74853 0.123232,-0.329003 0.168322,-0.719685 0.168322,-1.212893 v -6 c 0,-0.4932075 -0.04493,-0.88389 -0.168457,-1.2128925 -0.123495,-0.328995 -0.34614,-0.592785 -0.628418,-0.74853 C 12.638593,2.7271325 11.948075,2.76095 11.004425,2.75006 h -0.003 H 4.9985 Z m 1.125,3 A 0.3750375,0.3750375 0 0 1 6.4853825,6.0210575 L 7.689485,10.17389 8.3984675,8.24615 a 0.3750375,0.3750375 0 0 1 0.687015,-0.0381 l 0.64599,1.29201 h 3.1435575 0.375 v 0.75 h -0.375 -3.375 A 0.3750375,0.3750375 0 0 1 9.1645775,10.042055 L 8.8027625,9.3184175 8.00003,11.50397 A 0.3750375,0.3750375 0 0 1 7.288115,11.47907 L 6.1191725,7.4492825 5.35892,9.983465 A 0.3750375,0.3750375 0 0 1 5.00003,10.25006 h -1.875 -0.375 v -0.75 h 0.375 1.5966825 L 5.76614,6.0166625 A 0.3750375,0.3750375 0 0 1 6.120635,5.75006 Z"
     style="fill:currentColor;stroke-width:0.75"
     class="ColorScheme-Text"
     id="path306" />
</svg>
