<?xml version="1.0" encoding="UTF-8" standalone="no"?>
<svg
   height="16"
   width="16"
   version="1.1"
   id="svg18717"
   sodipodi:docname="juk.svg"
   inkscape:version="1.2 (dc2aedaf03, 2022-05-15)"
   xmlns:inkscape="http://www.inkscape.org/namespaces/inkscape"
   xmlns:sodipodi="http://sodipodi.sourceforge.net/DTD/sodipodi-0.dtd"
   xmlns="http://www.w3.org/2000/svg"
   xmlns:svg="http://www.w3.org/2000/svg">
  <sodipodi:namedview
     id="namedview18719"
     pagecolor="#505050"
     bordercolor="#eeeeee"
     borderopacity="1"
     inkscape:showpageshadow="0"
     inkscape:pageopacity="0"
     inkscape:pagecheckerboard="0"
     inkscape:deskcolor="#505050"
     showgrid="false"
     inkscape:zoom="24.925514"
     inkscape:cx="10.671796"
     inkscape:cy="8.6256997"
     inkscape:window-width="1308"
     inkscape:window-height="742"
     inkscape:window-x="58"
     inkscape:window-y="26"
     inkscape:window-maximized="1"
     inkscape:current-layer="svg18717" />
  <defs
     id="defs18713">
    <style
       id="current-color-scheme"
       type="text/css">.ColorScheme-Text { color:#727272; } .ColorScheme-Highlight { color:#5294e2; }</style>
  </defs>
  <path
     d="m 12.098263,1.9107874 c -0.08646,-0.006 -0.18789,0.0015 -0.307612,0.0117 l -5.4067429,0.84375 c -0.60999,0.0621 -0.67632,0.346845 -0.6708975,0.701655 V 10.60754 c -0.310035,-0.203663 -0.6418275,-0.34863 -1.0839825,-0.34863 -0.5693325,0 -0.9092175,0.218235 -1.1147475,0.505372 -0.2055225,0.287138 -0.27393,0.64893 -0.27393,0.92871 0,0.337373 0.1163325,0.696803 0.3662175,0.97119 0.249885,0.274388 0.6341325,0.46728 1.1865225,0.467288 0.6237675,0 1.0615275,-0.173993 1.3095675,-0.514163 0.1952925,-0.267832 0.3042375,-0.626505 0.3427725,-1.067872 0.00525,-0.05355 0.00833,-0.108863 0.0117,-0.165525 0.003,-0.04493 0.00225,-0.07635 0.003,-0.12891 h 0.003 V 5.4776599 c 0.016575,-0.464535 0.437985,-0.533205 0.437985,-0.533205 l 4.3901404,-0.685545 c 0.421447,-0.1288425 0.421875,0.3925725 0.421875,0.3925725 v 5.2060575 c -0.310035,-0.20367 -0.641828,-0.34863 -1.083983,-0.3486375 -0.569332,0 -0.9092174,0.218235 -1.1147474,0.5053726 -0.2055225,0.287137 -0.27393,0.648937 -0.27393,0.92871 0,0.337372 0.1163325,0.696802 0.3662175,0.971197 0.249885,0.274388 0.6341329,0.467273 1.1865229,0.46728 0.623767,0 1.061527,-0.173985 1.309567,-0.514155 0.195293,-0.267832 0.304238,-0.626512 0.342773,-1.067872 0.0053,-0.05355 0.0083,-0.108863 0.0117,-0.165533 0.003,-0.04493 0.0023,-0.07635 0.003,-0.128902 h 0.003 V 2.5787299 c 0.0089,-0.51423 -0.105368,-0.6496425 -0.364748,-0.667965 z"
     style="fill:currentColor;stroke-width:0.75"
     class="ColorScheme-Text"
     fill-rule="evenodd"
     id="path18715" />
</svg>
