<?xml version="1.0" encoding="UTF-8" standalone="no"?>
<svg
   height="16"
   width="16"
   version="1.1"
   id="svg13"
   sodipodi:docname="preferences-desktop-notification.svg"
   inkscape:version="1.2 (1:1.2+202206011326+fc4e4096c5)"
   xmlns:inkscape="http://www.inkscape.org/namespaces/inkscape"
   xmlns:sodipodi="http://sodipodi.sourceforge.net/DTD/sodipodi-0.dtd"
   xmlns="http://www.w3.org/2000/svg"
   xmlns:svg="http://www.w3.org/2000/svg">
  <sodipodi:namedview
     id="namedview15"
     pagecolor="#ffffff"
     bordercolor="#000000"
     borderopacity="0.25"
     inkscape:showpageshadow="2"
     inkscape:pageopacity="0.0"
     inkscape:pagecheckerboard="0"
     inkscape:deskcolor="#d1d1d1"
     showgrid="false"
     inkscape:zoom="8.84375"
     inkscape:cx="10.515901"
     inkscape:cy="11.872792"
     inkscape:window-width="1308"
     inkscape:window-height="742"
     inkscape:window-x="0"
     inkscape:window-y="0"
     inkscape:window-maximized="1"
     inkscape:current-layer="svg13" />
  <defs
     id="defs3">
    <style
       id="current-color-scheme"
       type="text/css">.ColorScheme-Text { color:#727272; } .ColorScheme-Highlight { color:#5294e2; }</style>
  </defs>
  <g
     transform="matrix(0.75,0,0,0.75,-426.99928,-118)"
     id="g11">
    <path
       d="m 580.00004,161 a 1,1 0 0 0 -1,1 1,1 0 0 0 0.01,0.13867 c -1.72793,0.44251 -3.01,1.9959 -3.01,3.86133 6.6e-4,0.11019 0.006,0.22032 0.0156,0.33008 v 3.23633 c 0,0.3597 -0.0337,0.6898 -0.10156,0.98828 -0.0679,0.29862 -0.18774,0.55134 -0.35742,0.76172 -0.16288,0.21718 -0.38382,0.38462 -0.66211,0.5 -0.2712,0.11906 -0.611,0.17693 -1.01758,0.17968 V 172 h 2.13867 3.98438 3.98438 2.13671 v -0.004 c -0.40658,-0.003 -0.74637,-0.0606 -1.01757,-0.17968 -0.27829,-0.11538 -0.49923,-0.28283 -0.66211,-0.5 -0.16968,-0.21039 -0.28761,-0.4631 -0.35547,-0.76172 -0.0679,-0.29848 -0.10161,-0.62859 -0.10156,-0.98828 v -3.24805 -0.002 c 0.009,-0.10522 0.0146,-0.21078 0.0156,-0.31641 0,-1.86608 -1.28333,-3.41946 -3.01172,-3.86133 a 1,1 0 0 0 0.0118,-0.13853 1,1 0 0 0 -1,-1 z m 0,2 c 1.65685,0 3,1.34315 3,3 v 5 h -6 v -5 c 0,-1.65685 1.34315,-3 3,-3 z m -3.9082,8.7168 -0.0156,0.0195 c 0.003,-0.003 0.004,-0.008 0.006,-0.0117 0.002,-0.003 0.008,-0.004 0.01,-0.008 z m 7.8164,0 c 0.002,0.003 0.008,0.004 0.01,0.008 0.003,0.003 0.004,0.008 0.006,0.0117 z M 578.00004,173 c 0.0125,1.10862 0.91475,2 2.02344,2 1.10868,0 2.01094,-0.89138 2.02344,-2 z"
       style="fill:currentColor"
       class="ColorScheme-Text"
       id="path5" />
    <path
       d="m 584.06612,172.3138 c 0.003,0.004 0.007,0.006 0.009,0.009 0.003,0.004 0.005,0.01 0.008,0.0137 z"
       style="fill:currentColor"
       class="ColorScheme-Text"
       id="path7" />
    <path
       d="m 575.9268,172.31607 -0.0179,0.0231 c 0.003,-0.004 0.005,-0.009 0.008,-0.0137 0.003,-0.004 0.007,-0.006 0.009,-0.009 z"
       style="fill:currentColor"
       class="ColorScheme-Text"
       id="path9" />
  </g>
</svg>
