<?xml version="1.0" encoding="UTF-8" standalone="no"?>
<svg
   height="16.000032"
   width="16.000061"
   version="1.1"
   id="svg11"
   sodipodi:docname="mintsources-keys.svg"
   inkscape:version="1.2 (dc2aedaf03, 2022-05-15)"
   xmlns:inkscape="http://www.inkscape.org/namespaces/inkscape"
   xmlns:sodipodi="http://sodipodi.sourceforge.net/DTD/sodipodi-0.dtd"
   xmlns="http://www.w3.org/2000/svg"
   xmlns:svg="http://www.w3.org/2000/svg">
  <sodipodi:namedview
     id="namedview13"
     pagecolor="#505050"
     bordercolor="#eeeeee"
     borderopacity="1"
     inkscape:showpageshadow="0"
     inkscape:pageopacity="0"
     inkscape:pagecheckerboard="0"
     inkscape:deskcolor="#505050"
     showgrid="false"
     inkscape:zoom="24.925464"
     inkscape:cx="7.8634445"
     inkscape:cy="9.0269134"
     inkscape:window-width="1308"
     inkscape:window-height="742"
     inkscape:window-x="58"
     inkscape:window-y="26"
     inkscape:window-maximized="1"
     inkscape:current-layer="svg11" />
  <defs
     id="defs3">
    <style
       id="current-color-scheme"
       type="text/css">.ColorScheme-Text { color:#727272; } .ColorScheme-Highlight { color:#5294e2; }</style>
  </defs>
  <g
     fill="#f2f2f7"
     transform="matrix(0.75,0,0,0.75,-382.00003,-208)"
     id="g9">
    <path
       d="m 520.00004,280 a 8,8 0 0 0 -8,8 8,8 0 0 0 8,8 8,8 0 0 0 8,-8 8,8 0 0 0 -8,-8 z m 0,1 a 7,7 0 0 1 7,7 7,7 0 0 1 -7,7 7,7 0 0 1 -7,-7 7,7 0 0 1 7,-7 z"
       style="fill:currentColor"
       class="ColorScheme-Text"
       id="path5" />
    <path
       d="m 519.00004,283 h 2 v 5.5 l -1,1 1,1 v 2.5 h -2 v -5.5 l 1,-1 -1,-1 z"
       style="fill:currentColor"
       class="ColorScheme-Text"
       id="path7" />
  </g>
</svg>
