<?xml version="1.0" encoding="UTF-8" standalone="no"?>
<svg
   height="16"
   width="16"
   version="1.1"
   id="svg1534"
   sodipodi:docname="plasma-browser-integration.svg"
   inkscape:version="1.2 (1:1.2+202206011326+fc4e4096c5)"
   xmlns:inkscape="http://www.inkscape.org/namespaces/inkscape"
   xmlns:sodipodi="http://sodipodi.sourceforge.net/DTD/sodipodi-0.dtd"
   xmlns="http://www.w3.org/2000/svg"
   xmlns:svg="http://www.w3.org/2000/svg">
  <sodipodi:namedview
     id="namedview1536"
     pagecolor="#ffffff"
     bordercolor="#000000"
     borderopacity="0.25"
     inkscape:showpageshadow="2"
     inkscape:pageopacity="0.0"
     inkscape:pagecheckerboard="0"
     inkscape:deskcolor="#d1d1d1"
     showgrid="false"
     inkscape:zoom="8.84375"
     inkscape:cx="-0.73498233"
     inkscape:cy="8.9328622"
     inkscape:window-width="1308"
     inkscape:window-height="742"
     inkscape:window-x="0"
     inkscape:window-y="0"
     inkscape:window-maximized="1"
     inkscape:current-layer="svg1534" />
<defs>
  <style id="current-color-scheme" type="text/css">.ColorScheme-Text { color:#727272; } .ColorScheme-Highlight { color:#5294e2; }</style>
 </defs>
  <path
     d="m 5.3663757,2.7327502 c -0.3647572,0 -0.6584062,0.2936506 -0.6584062,0.6584061 0,0.3647572 0.2936505,0.6584059 0.6584062,0.6584059 0.3647573,0 0.6584055,-0.2936506 0.6584055,-0.6584059 0,-0.3647571 -0.2936505,-0.6584061 -0.6584055,-0.6584061 z m 4.1385525,0 L 8,4.2376788 10.257392,6.4950714 8,8.7524641 9.5049282,10.257393 11.76232,7.9999996 13.26725,6.4950714 11.76232,4.990143 Z M 3.7203597,6.6831875 c -0.5471317,0 -0.9876097,0.4404696 -0.9876097,0.9876093 0,0.5471318 0.440478,0.987609 0.9876097,0.987609 0.5471393,0 0.9876098,-0.4404772 0.9876098,-0.987609 0,-0.5471397 -0.4404705,-0.9876093 -0.9876098,-0.9876093 z m 2.9628278,3.9504375 c -0.7295138,0 -1.3168118,0.587298 -1.3168118,1.316813 0,0.729514 0.587298,1.316812 1.3168118,1.316812 C 7.412702,13.26725 8,12.679952 8,11.950438 8,11.220923 7.412702,10.633625 6.6831875,10.633625 Z"
     style="fill:currentColor" class="ColorScheme-Text"
     id="path860" />
</svg>
