<?xml version="1.0" encoding="UTF-8" standalone="no"?>
<svg
   height="16"
   width="16"
   version="1.1"
   id="svg7"
   sodipodi:docname="krunner.svg"
   inkscape:version="1.2 (dc2aedaf03, 2022-05-15)"
   xmlns:inkscape="http://www.inkscape.org/namespaces/inkscape"
   xmlns:sodipodi="http://sodipodi.sourceforge.net/DTD/sodipodi-0.dtd"
   xmlns="http://www.w3.org/2000/svg"
   xmlns:svg="http://www.w3.org/2000/svg">
  <sodipodi:namedview
     id="namedview9"
     pagecolor="#505050"
     bordercolor="#eeeeee"
     borderopacity="1"
     inkscape:showpageshadow="0"
     inkscape:pageopacity="0"
     inkscape:pagecheckerboard="0"
     inkscape:deskcolor="#505050"
     showgrid="false"
     inkscape:zoom="12.462757"
     inkscape:cx="9.548449"
     inkscape:cy="9.3879709"
     inkscape:window-width="1308"
     inkscape:window-height="742"
     inkscape:window-x="58"
     inkscape:window-y="26"
     inkscape:window-maximized="1"
     inkscape:current-layer="svg7" />
  <defs
     id="defs3">
    <style
       id="current-color-scheme"
       type="text/css">.ColorScheme-Text { color:#727272; } .ColorScheme-Highlight { color:#5294e2; }</style>
  </defs>
  <path
     d="M 7.2472414,2.375 C 4.5593844,2.375 2.375,4.5593872 2.375,7.2472393 c 0,2.6878514 2.1843844,4.8722387 4.8722414,4.8722387 A 4.8478778,4.8478778 0 0 0 10.390646,10.964757 L 13.050076,13.625 13.625,13.050076 10.964755,10.390645 A 4.8478778,4.8478778 0 0 0 12.119476,7.2472393 C 12.119476,4.5593872 9.9350914,2.375 7.2472414,2.375 Z m 0,0.8120398 A 4.0601992,4.0601992 0 0 1 11.307437,7.2472393 4.0601992,4.0601992 0 0 1 7.2472414,11.307438 4.0601992,4.0601992 0 0 1 3.1870391,7.2472393 4.0601992,4.0601992 0 0 1 7.2472414,3.1870398 Z"
     style="fill:currentColor;stroke-width:0.703125"
     class="ColorScheme-Text"
     id="path5" />
</svg>
