<svg height="16.0002" width="16" xmlns="http://www.w3.org/2000/svg"> <defs>
  <style id="current-color-scheme" type="text/css">.ColorScheme-Text { color:#727272; } .ColorScheme-Highlight { color:#5294e2; }</style>
 </defs>
  <g fill="#f2f2f7" transform="translate(-492.00004 -180)">
    <path d="m494 187.0001-.00003 9.0001h12v-9zm.99997 1.0001h10v7h-10z" style="fill:currentColor" class="ColorScheme-Text"/>
    <path d="m500.00004 180c-2.76214 0-5 2.23787-5 5v2h1v-2c0-2.222 1.77799-4 4-4s4 1.778 4 4v2h1v-2c0-2.76213-2.23786-5-5-5z" style="fill:currentColor" class="ColorScheme-Text"/>
    <path d="m494.00004 187v9h12v-9zm1 1h10v7h-10zm4 2v3h2v-3.25z" style="fill:currentColor" class="ColorScheme-Text"/>
  </g>
</svg>
