<?xml version="1.0" encoding="UTF-8" standalone="no"?>
<svg
   height="16"
   width="16"
   version="1.1"
   id="svg37"
   sodipodi:docname="cpu-freq.svg"
   inkscape:version="1.2 (dc2aedaf03, 2022-05-15)"
   xmlns:inkscape="http://www.inkscape.org/namespaces/inkscape"
   xmlns:sodipodi="http://sodipodi.sourceforge.net/DTD/sodipodi-0.dtd"
   xmlns="http://www.w3.org/2000/svg"
   xmlns:svg="http://www.w3.org/2000/svg">
  <sodipodi:namedview
     id="namedview39"
     pagecolor="#505050"
     bordercolor="#eeeeee"
     borderopacity="1"
     inkscape:showpageshadow="0"
     inkscape:pageopacity="0"
     inkscape:pagecheckerboard="0"
     inkscape:deskcolor="#505050"
     showgrid="false"
     inkscape:zoom="12.462757"
     inkscape:cx="3.4502799"
     inkscape:cy="10.992752"
     inkscape:window-width="1308"
     inkscape:window-height="742"
     inkscape:window-x="58"
     inkscape:window-y="26"
     inkscape:window-maximized="1"
     inkscape:current-layer="svg37" />
  <defs
     id="defs3">
    <style
       id="current-color-scheme"
       type="text/css">.ColorScheme-Text { color:#727272; } .ColorScheme-Highlight { color:#5294e2; }</style>
  </defs>
  <g
     fill="#f2f2f7"
     id="g35"
     transform="matrix(0.75,0,0,0.75,2,2)">
    <path
       d="M 4.5,4 C 4.223,4 4,4.223 4,4.5 v 7 C 4,11.777 4.223,12 4.5,12 h 7 c 0.277,0 0.5,-0.223 0.5,-0.5 v -7 C 12,4.223 11.777,4 11.5,4 Z M 5,5 h 6 v 6 H 5 Z"
       style="fill:currentColor"
       class="ColorScheme-Text"
       id="path5" />
    <rect
       height="3"
       rx="0.5"
       width="2"
       x="4"
       style="fill:currentColor"
       class="ColorScheme-Text"
       id="rect7"
       y="0" />
    <rect
       height="3"
       rx="0.5"
       width="2"
       x="7"
       style="fill:currentColor"
       class="ColorScheme-Text"
       id="rect9"
       y="0" />
    <rect
       height="3"
       rx="0.5"
       width="2"
       x="10"
       style="fill:currentColor"
       class="ColorScheme-Text"
       id="rect11"
       y="0" />
    <rect
       height="3"
       rx="0.5"
       width="2"
       x="4"
       y="13"
       style="fill:currentColor"
       class="ColorScheme-Text"
       id="rect13" />
    <rect
       height="3"
       rx="0.5"
       width="2"
       x="7"
       y="13"
       style="fill:currentColor"
       class="ColorScheme-Text"
       id="rect15" />
    <rect
       height="3"
       rx="0.5"
       width="2"
       x="10"
       y="13"
       style="fill:currentColor"
       class="ColorScheme-Text"
       id="rect17" />
    <g
       transform="rotate(-90)"
       id="g31">
      <rect
         height="3"
         rx="0.5"
         width="2"
         x="-6"
         y="13"
         style="fill:currentColor"
         class="ColorScheme-Text"
         id="rect19" />
      <rect
         height="3"
         rx="0.5"
         width="2"
         x="-9"
         y="13"
         style="fill:currentColor"
         class="ColorScheme-Text"
         id="rect21" />
      <rect
         height="3"
         rx="0.5"
         width="2"
         x="-12"
         y="13"
         style="fill:currentColor"
         class="ColorScheme-Text"
         id="rect23" />
      <rect
         height="3"
         rx="0.5"
         width="2"
         x="-6"
         style="fill:currentColor"
         class="ColorScheme-Text"
         id="rect25"
         y="0" />
      <rect
         height="3"
         rx="0.5"
         width="2"
         x="-9"
         style="fill:currentColor"
         class="ColorScheme-Text"
         id="rect27"
         y="0" />
      <rect
         height="3"
         rx="0.5"
         width="2"
         x="-12"
         style="fill:currentColor"
         class="ColorScheme-Text"
         id="rect29"
         y="0" />
    </g>
    <path
       d="M 4,2 C 2.892,2 2,2.892 2,4 v 8 c 0,1.108 0.892,2 2,2 h 8 c 1.108,0 2,-0.892 2,-2 V 4 C 14,2.892 13.108,2 12,2 Z m 0.5,1 h 7 C 12.331,3 13,3.669 13,4.5 v 7 c 0,0.831 -0.669,1.5 -1.5,1.5 h -7 C 3.669,13 3,12.331 3,11.5 v -7 C 3,3.669 3.669,3 4.5,3 Z"
       style="fill:currentColor"
       class="ColorScheme-Text"
       id="path33" />
  </g>
</svg>
