<?xml version="1.0" encoding="UTF-8" standalone="no"?>
<svg
   height="16"
   id="svg7384"
   version="1.1"
   width="16"
   sodipodi:docname="system-log-out.svg"
   inkscape:version="1.2 (1:1.2+202206011326+fc4e4096c5)"
   xmlns:inkscape="http://www.inkscape.org/namespaces/inkscape"
   xmlns:sodipodi="http://sodipodi.sourceforge.net/DTD/sodipodi-0.dtd"
   xmlns="http://www.w3.org/2000/svg"
   xmlns:svg="http://www.w3.org/2000/svg"
   xmlns:rdf="http://www.w3.org/1999/02/22-rdf-syntax-ns#"
   xmlns:cc="http://creativecommons.org/ns#"
   xmlns:dc="http://purl.org/dc/elements/1.1/">
  <sodipodi:namedview
     pagecolor="#ffffff"
     bordercolor="#dfdfdf"
     borderopacity="1"
     objecttolerance="10"
     gridtolerance="10"
     guidetolerance="10"
     inkscape:pageopacity="0"
     inkscape:pageshadow="2"
     inkscape:window-width="1308"
     inkscape:window-height="742"
     id="namedview22"
     showgrid="true"
     inkscape:zoom="25.455844"
     inkscape:cx="10.311974"
     inkscape:cy="9.1138208"
     inkscape:current-layer="svg7384"
     inkscape:showpageshadow="2"
     inkscape:pagecheckerboard="0"
     inkscape:deskcolor="#d1d1d1"
     inkscape:window-x="0"
     inkscape:window-y="0"
     inkscape:window-maximized="1">
    <inkscape:grid
       type="xygrid"
       id="grid24" />
  </sodipodi:namedview>
  <metadata
     id="metadata20854">
    <rdf:RDF>
      <cc:Work
         rdf:about="">
        <dc:title />
        <dc:format>image/svg+xml</dc:format>
        <dc:type
           rdf:resource="http://purl.org/dc/dcmitype/StillImage" />
      </cc:Work>
    </rdf:RDF>
  </metadata>
  <defs
     id="defs6">
    <style
       id="current-color-scheme"
       type="text/css">.ColorScheme-Text { color:#727272; } .ColorScheme-Highlight { color:#5294e2; }</style>
  </defs>
  <g
     id="g1174"
     transform="matrix(0.75,0,0,0.75,2.375,1.625)">
    <g
       id="layer9"
       label="status"
       style="display:inline"
       transform="translate(-293.00017,47)" />
    <g
       id="layer2"
       style="display:inline"
       transform="translate(-51.999969,-320)" />
    <g
       id="layer4"
       style="display:inline"
       transform="translate(-51.999969,-320)" />
    <g
       id="g1812"
       style="display:inline"
       transform="translate(-51.999969,-320)" />
    <g
       id="g6217"
       style="display:inline"
       transform="translate(-51.999969,-320)" />
    <g
       id="layer3"
       style="display:inline"
       transform="translate(-51.999969,-320)" />
    <g
       id="g1833"
       style="display:inline"
       transform="translate(-51.999969,-320)" />
    <path
       inkscape:connector-curvature="0"
       style="fill:currentColor"
       class="ColorScheme-Text"
       id="path3206"
       d="M 11,8 H 4 v 1 h 7 z" />
    <path
       inkscape:connector-curvature="0"
       id="path4"
       overflow="visible"
       style="fill:currentColor"
       class="ColorScheme-Text"
       d="m 8,6 0.002,5 A 36.975,36.975 0 0 0 10.325,9.834 C 11.105,9.403 11.859,8.958 12.584,8.5 11.859,8.051 11.106,7.611 10.324,7.18 9.536,6.75 8.762,6.357 8.001,6 Z" />
    <path
       style="fill:currentColor"
       class="ColorScheme-Text"
       d="M 7.5,1 C 3.363787,1 0,4.3637867 0,8.5 0,12.636213 3.363787,16 7.5,16 11.636213,16 15,12.636213 15,8.5 15,4.3637867 11.636213,1 7.5,1 Z m 0,1 C 11.095773,2 14,4.9042268 14,8.5 14,12.095773 11.095773,15 7.5,15 3.904227,15 1,12.095773 1,8.5 1,4.9042268 3.904227,2 7.5,2 Z"
       id="path831"
       inkscape:connector-curvature="0" />
  </g>
</svg>
