<?xml version="1.0" encoding="UTF-8" standalone="no"?>
<svg
   height="16"
   width="16"
   version="1.1"
   id="svg7"
   sodipodi:docname="accessories-camera.svg"
   inkscape:version="1.2 (dc2aedaf03, 2022-05-15)"
   xmlns:inkscape="http://www.inkscape.org/namespaces/inkscape"
   xmlns:sodipodi="http://sodipodi.sourceforge.net/DTD/sodipodi-0.dtd"
   xmlns="http://www.w3.org/2000/svg"
   xmlns:svg="http://www.w3.org/2000/svg">
  <sodipodi:namedview
     id="namedview9"
     pagecolor="#505050"
     bordercolor="#eeeeee"
     borderopacity="1"
     inkscape:showpageshadow="0"
     inkscape:pageopacity="0"
     inkscape:pagecheckerboard="0"
     inkscape:deskcolor="#505050"
     showgrid="false"
     inkscape:zoom="12.462757"
     inkscape:cx="6.5796035"
     inkscape:cy="10.832274"
     inkscape:window-width="1308"
     inkscape:window-height="742"
     inkscape:window-x="58"
     inkscape:window-y="26"
     inkscape:window-maximized="1"
     inkscape:current-layer="svg7" />
  <defs
     id="defs3">
    <style
       id="current-color-scheme"
       type="text/css">.ColorScheme-Text { color:#727272; } .ColorScheme-Highlight { color:#5294e2; }</style>
  </defs>
  <path
     d="M 4.995605,3.62506 C 4.051955,3.635935 3.3614375,3.60211 2.796875,3.9136375 2.5145975,4.0693825 2.2919525,4.3331725 2.1684575,4.6621675 2.044955,4.99117 2,5.3818525 2,5.87506 v 5.25 c 0,0.493208 0.044925,0.883897 0.1684575,1.212893 0.1235025,0.328994 0.34614,0.592792 0.6284175,0.748529 0.5645625,0.311491 1.2550875,0.277651 2.19873,0.288578 h 0.003 6.002925 0.003 c 0.943643,-0.01087 1.634168,0.02295 2.19873,-0.288578 0.282278,-0.155745 0.504915,-0.419535 0.628418,-0.748529 C 13.95464,12.00895 14,11.618268 14,11.12506 v -5.25 C 14,5.3818525 13.955075,4.99117 13.831543,4.6621675 13.708048,4.3331725 13.485403,4.0693825 13.203125,3.9136375 12.638563,3.6021325 11.948045,3.63595 11.004395,3.62506 h -0.003 H 4.99847 Z M 7.17236,4.44391 c 1.31172,-0.003 2.6229525,-7.5e-4 3.934575,0.016125 0.645877,0.1100325 1.62078,-0.256155 2.005372,0.5009775 0.191805,2.1929925 0.05205,4.4114775 0.09668,6.6137695 -0.06533,0.285143 -0.138615,0.857708 -0.547852,0.846683 C 10.008822,12.598 7.342535,12.50281 4.68506,12.522535 4.095215,12.43855 3.1851275,12.74026 2.881835,12.003985 2.75396,10.154785 2.815235,8.291755 2.814485,6.4273225 2.9057975,5.796535 2.5925,4.87894 3.33011,4.5435325 4.59701,4.3848175 5.8864025,4.4854075 7.17239,4.443925 Z M 11.75,5.12506 c -0.4155,0 -0.75,0.3345 -0.75,0.75 0,0.4155 0.3345,0.75 0.75,0.75 0.4155,0 0.75,-0.3345 0.75,-0.75 0,-0.4155 -0.3345,-0.75 -0.75,-0.75 z M 8,5.87506 c -1.662,0 -3,1.338 -3,3 0,1.662 1.338,3 3,3 1.662,0 3,-1.338 3,-3 0,-1.662 -1.338,-3 -3,-3 z m 0,0.75 c 1.2465,0 2.25,1.0035 2.25,2.25 0,1.2465 -1.0035,2.25 -2.25,2.25 -1.2465,0 -2.25,-1.0035 -2.25,-2.25 0,-1.2465 1.0035,-2.25 2.25,-2.25 z"
     style="fill:currentColor;stroke-width:0.75"
     class="ColorScheme-Text"
     id="path5" />
</svg>
