<?xml version="1.0" encoding="UTF-8" standalone="no"?>
<svg
   height="16"
   width="16.000031"
   version="1.1"
   id="svg302"
   sodipodi:docname="konsole.svg"
   inkscape:version="1.2 (dc2aedaf03, 2022-05-15)"
   xmlns:inkscape="http://www.inkscape.org/namespaces/inkscape"
   xmlns:sodipodi="http://sodipodi.sourceforge.net/DTD/sodipodi-0.dtd"
   xmlns="http://www.w3.org/2000/svg"
   xmlns:svg="http://www.w3.org/2000/svg">
  <sodipodi:namedview
     id="namedview304"
     pagecolor="#505050"
     bordercolor="#eeeeee"
     borderopacity="1"
     inkscape:showpageshadow="0"
     inkscape:pageopacity="0"
     inkscape:pagecheckerboard="0"
     inkscape:deskcolor="#505050"
     showgrid="false"
     inkscape:zoom="35.25"
     inkscape:cx="7.9148936"
     inkscape:cy="8"
     inkscape:window-width="1308"
     inkscape:window-height="742"
     inkscape:window-x="58"
     inkscape:window-y="26"
     inkscape:window-maximized="1"
     inkscape:current-layer="svg302" />
  <defs
     id="defs298">
    <style
       id="current-color-scheme"
       type="text/css">.ColorScheme-Text { color:#727272; } .ColorScheme-Highlight { color:#5294e2; }</style>
  </defs>
  <path
     d="M 4.995635,3.62506 C 4.051985,3.635935 3.3614675,3.60211 2.796905,3.9136375 2.5146275,4.0693825 2.2919825,4.3331725 2.1684875,4.6621675 2.044985,4.99117 2.00003,5.3818525 2.00003,5.87506 v 5.25 c 0,0.493208 0.044925,0.883898 0.1684575,1.212893 0.1235025,0.328995 0.34614,0.592792 0.6284175,0.74853 0.5645625,0.31149 1.2550875,0.27765 2.19873,0.288577 h 0.003 6.002925 0.003 c 0.943643,-0.01087 1.634168,0.02295 2.19873,-0.288577 0.282278,-0.155745 0.504915,-0.419535 0.628418,-0.74853 0.123097,-0.329003 0.168322,-0.719685 0.168322,-1.212893 v -5.25 c 0,-0.4932075 -0.04493,-0.88389 -0.168457,-1.2128925 -0.123495,-0.328995 -0.34614,-0.592785 -0.628418,-0.74853 C 12.638593,3.6021325 11.948075,3.63595 11.004425,3.62506 h -0.003 H 4.9985 Z M 7.17239,4.44391 c 1.31172,-0.003 2.6229525,-7.5e-4 3.934575,0.016125 0.645878,0.1100325 1.62078,-0.256155 2.005373,0.5009775 0.191804,2.1929925 0.05205,4.4114775 0.09668,6.6137705 -0.06533,0.285142 -0.138615,0.857707 -0.547853,0.846682 C 10.008853,12.598 7.342565,12.50281 4.68509,12.522535 4.095245,12.43855 3.1851575,12.74026 2.881865,12.003985 2.75399,10.154785 2.815265,8.291755 2.814515,6.4273225 2.9058275,5.796535 2.59253,4.87894 3.33014,4.5435325 4.59704,4.3848175 5.8864325,4.4854075 7.17242,4.443925 Z M 4.611845,5.85895 C 4.256465,5.873425 4.1189375,6.3282175 4.406765,6.5371675 l 1.1001,0.8247075 -1.1001,0.8247075 c -0.4003875,0.30078 0.050775,0.901365 0.4511775,0.600585 l 1.5,-1.125 c 0.20049,-0.15 0.20049,-0.450585 0,-0.600585 l -1.5,-1.125 C 4.7876675,5.8824325 4.70048,5.8552 4.611845,5.85895 Z m 1.8955125,3.002925 v 0.75 h 2.25 v -0.75 z"
     style="fill:currentColor;stroke-width:0.75"
     class="ColorScheme-Text"
     id="path300" />
</svg>
