<svg height="16" width="15.999999" xmlns="http://www.w3.org/2000/svg"><defs>
  <style id="current-color-scheme" type="text/css">.ColorScheme-Text { color:#727272; } .ColorScheme-Highlight { color:#5294e2; }</style>
 </defs>
  <g fill="#f2f2f7" transform="translate(-552.00004 -300)">
    <path d="m554.00004 301.00006c-.554 0-1 .446-1 1v4c0 .554.446 1 1 1h12c.554 0 1-.446 1-1v-4c0-.554-.446-1-1-1zm7.5 1h4c.277 0 .5.223.5.5v3c0 .277-.223.5-.5.5h-4c-.277 0-.5-.223-.5-.5v-3c0-.277.223-.5.5-.5z" style="fill:currentColor" class="ColorScheme-Text"/>
    <path d="m554.00004 309.00006c-.554 0-1 .446-1 1v4c0 .554.446 1 1 1h12c.554 0 1-.446 1-1v-4c0-.554-.446-1-1-1zm.5 1h4c.277 0 .5.223.5.5v3c0 .277-.223.5-.5.5h-4c-.277 0-.5-.223-.5-.5v-3c0-.277.223-.5.5-.5z" style="fill:currentColor" class="ColorScheme-Text"/>
  </g>
</svg>
