<svg width="16" height="16" version="1.1" xmlns="http://www.w3.org/2000/svg" xmlns:osb="http://www.openswatchbook.org/uri/2009/osb">
 <defs>
  <style id="current-color-scheme" type="text/css">.ColorScheme-Text { color:#727272; } .ColorScheme-Highlight { color:#5294e2; }</style>
 </defs>
<g fill="#dfdfdf">
<path d="m4.5 4c-0.277 0-0.5 0.223-0.5 0.5v7c0 0.277 0.223 0.5 0.5 0.5h7c0.277 0 0.5-0.223 0.5-0.5v-7c0-0.277-0.223-0.5-0.5-0.5zm0.5 1h6v6h-6z" style="fill:currentColor" class="ColorScheme-Text"/>
<rect x="4" width="2" height="3" rx=".5" ry=".5" style="fill:currentColor" class="ColorScheme-Text"/>
<rect x="7" width="2" height="3" rx=".5" ry=".5" style="fill:currentColor" class="ColorScheme-Text"/>
<rect x="10" width="2" height="3" rx=".5" ry=".5" style="fill:currentColor" class="ColorScheme-Text"/>
<rect x="4" y="13" width="2" height="3" rx=".5" ry=".5" style="fill:currentColor" class="ColorScheme-Text"/>
<rect x="7" y="13" width="2" height="3" rx=".5" ry=".5" style="fill:currentColor" class="ColorScheme-Text"/>
<rect x="10" y="13" width="2" height="3" rx=".5" ry=".5" style="fill:currentColor" class="ColorScheme-Text"/>
<rect transform="rotate(-90)" x="-6" y="13" width="2" height="3" rx=".5" ry=".5" style="fill:currentColor" class="ColorScheme-Text"/>
<rect transform="rotate(-90)" x="-9" y="13" width="2" height="3" rx=".5" ry=".5" style="fill:currentColor" class="ColorScheme-Text"/>
<rect transform="rotate(-90)" x="-12" y="13" width="2" height="3" rx=".5" ry=".5" style="fill:currentColor" class="ColorScheme-Text"/>
<rect transform="rotate(-90)" x="-6" y="3.6739e-16" width="2" height="3" rx=".5" ry=".5" style="fill:currentColor" class="ColorScheme-Text"/>
<rect transform="rotate(-90)" x="-9" y="5.5109e-16" width="2" height="3" rx=".5" ry=".5" style="fill:currentColor" class="ColorScheme-Text"/>
<rect transform="rotate(-90)" x="-12" y="7.3479e-16" width="2" height="3" rx=".5" ry=".5" style="fill:currentColor" class="ColorScheme-Text"/>
<path d="m4 2c-1.108 0-2 0.892-2 2v8c0 1.108 0.892 2 2 2h8c1.108 0 2-0.892 2-2v-8c0-1.108-0.892-2-2-2zm0.5 1h7c0.831 0 1.5 0.669 1.5 1.5v7c0 0.831-0.669 1.5-1.5 1.5h-7c-0.831 0-1.5-0.669-1.5-1.5v-7c0-0.831 0.669-1.5 1.5-1.5z" style="fill:currentColor" class="ColorScheme-Text"/>
</g>
</svg>
