<?xml version="1.0" encoding="UTF-8" standalone="no"?>
<svg
   width="16"
   height="16"
   version="1.1"
   id="svg9"
   sodipodi:docname="drive-removable-media-usb-pendrive.svg"
   inkscape:version="1.1.2 (0a00cf5339, 2022-02-04)"
   xmlns:inkscape="http://www.inkscape.org/namespaces/inkscape"
   xmlns:sodipodi="http://sodipodi.sourceforge.net/DTD/sodipodi-0.dtd"
   xmlns="http://www.w3.org/2000/svg"
   xmlns:svg="http://www.w3.org/2000/svg">
  <sodipodi:namedview
     id="namedview11"
     pagecolor="#505050"
     bordercolor="#ffffff"
     borderopacity="1"
     inkscape:pageshadow="0"
     inkscape:pageopacity="0"
     inkscape:pagecheckerboard="1"
     showgrid="false"
     inkscape:zoom="17.4375"
     inkscape:cx="5.8207885"
     inkscape:cy="8.8888889"
     inkscape:window-width="1308"
     inkscape:window-height="742"
     inkscape:window-x="58"
     inkscape:window-y="26"
     inkscape:window-maximized="1"
     inkscape:current-layer="svg9" />
  <defs
     id="defs3">
    <style
       id="current-color-scheme"
       type="text/css">.ColorScheme-Text { color:#727272; } .ColorScheme-Highlight { color:#5294e2; }</style>
  </defs>
  <g
     id="g830"
     transform="matrix(0.8,0,0,0.8,1.5,1.6)">
    <path
       d="M 5,4 C 4.342,4 3.822,4.06 3.383,4.225 A 1.88,1.88 0 0 0 2.385,5.063 C 1.969,5.815 2.015,6.736 2,7.994 v 4.012 c 0.015,1.258 -0.03,2.179 0.385,2.932 0.207,0.376 0.56,0.673 0.998,0.838 C 3.821,15.94 4.343,16 5,16 h 5 c 0.658,0 1.179,-0.06 1.617,-0.225 0.439,-0.164 0.789,-0.461 0.996,-0.837 0.416,-0.753 0.372,-1.674 0.387,-2.932 V 7.994 C 12.986,6.736 13.03,5.815 12.615,5.062 A 1.88,1.88 0 0 0 11.617,4.224 C 11.18,4.06 10.657,4 10,4 Z m 0,1 h 5 c 0.592,0 1.006,0.063 1.266,0.16 0.26,0.098 0.371,0.204 0.472,0.387 C 11.94,5.913 11.985,6.742 12,8 v 3.994 c -0.015,1.264 -0.06,2.092 -0.262,2.46 -0.1,0.183 -0.212,0.288 -0.472,0.386 C 11.006,14.937 10.592,15 10,15 H 5 C 4.408,15 3.994,14.937 3.734,14.84 3.474,14.742 3.363,14.637 3.262,14.453 3.06,14.087 3.015,13.26 3,12 V 8 C 3.015,6.742 3.06,5.913 3.262,5.547 3.362,5.364 3.475,5.257 3.734,5.16 3.994,5.063 4.408,5 5,5 Z"
       style="fill:currentColor"
       class="ColorScheme-Text"
       id="path5" />
    <path
       d="M 4,0 V 3 H 5 V 1 h 5 v 2 h 1 V 0 Z M 6,2 V 3 H 7 V 2 Z M 8,2 V 3 H 9 V 2 Z"
       style="fill:currentColor"
       class="ColorScheme-Text"
       id="path7" />
  </g>
</svg>
