<svg width="16" height="16" version="1.1" xmlns="http://www.w3.org/2000/svg"> <defs>
  <style id="current-color-scheme" type="text/css">.ColorScheme-Text { color:#727272; } .ColorScheme-Highlight { color:#5294e2; }</style>
 </defs>
 <path d="m4.994 0c-1.258 0.015-2.179-0.03-2.931 0.385a1.88 1.88 0 0 0-0.838 0.998c-0.165 0.439-0.225 0.96-0.225 1.617v10c0 0.658 0.06 1.179 0.225 1.617 0.164 0.439 0.461 0.79 0.838 0.998 0.752 0.416 1.673 0.37 2.931 0.385h5.012c1.258-0.014 2.179 0.03 2.932-0.385a1.88 1.88 0 0 0 0.838-0.998c0.164-0.438 0.224-0.96 0.224-1.617v-10c0-0.658-0.06-1.178-0.225-1.617a1.88 1.88 0 0 0-0.837-0.998c-0.753-0.415-1.674-0.37-2.932-0.385h-5.008zm6e-3 1h5c1.259 0.015 2.087 0.06 2.453 0.262 0.184 0.101 0.29 0.213 0.387 0.472 0.097 0.26 0.16 0.674 0.16 1.266v10c0 0.592-0.063 1.006-0.16 1.266-0.098 0.26-0.203 0.371-0.387 0.472-0.366 0.202-1.194 0.247-2.453 0.262h-5c-1.258-0.015-2.09-0.06-2.455-0.262-0.183-0.1-0.287-0.212-0.385-0.472-0.097-0.26-0.16-0.674-0.16-1.266v-10c0-0.592 0.063-1.006 0.16-1.266 0.098-0.26 0.202-0.371 0.385-0.472 0.365-0.202 1.195-0.247 2.455-0.262z" style="fill:currentColor" class="ColorScheme-Text"/>
 <path d="m5 3v1c-0.545 0-1 0.455-1 1h-1v1h1v1h-1v1h1v1h-1v1h1v1h-1v1h1c0 0.545 0.455 1 1 1v1h1v-1h1v1h1v-1h1v1h1v-1c0.545 0 1-0.455 1-1h1v-1h-1v-1h1v-1h-1v-1h1v-1h-1v-1h1v-1h-1c0-0.545-0.455-1-1-1v-1.25l-1 0.25v1h-1v-1.25l-1 0.25v1h-1v-1.25zm0.5 2h4s0.5 0 0.5 0.5v6c0 0.5-0.5 0.5-0.5 0.5h-4c-0.5 0-0.5-0.5-0.5-0.5v-6s0-0.5 0.5-0.5z" style="fill:currentColor" class="ColorScheme-Text"/>
</svg>
