<?xml version="1.0" encoding="UTF-8" standalone="no"?>
<svg
   width="16"
   height="16"
   version="1.1"
   id="svg13"
   sodipodi:docname="drive-harddisk.svg"
   inkscape:version="1.1.2 (0a00cf5339, 2022-02-04)"
   xmlns:inkscape="http://www.inkscape.org/namespaces/inkscape"
   xmlns:sodipodi="http://sodipodi.sourceforge.net/DTD/sodipodi-0.dtd"
   xmlns="http://www.w3.org/2000/svg"
   xmlns:svg="http://www.w3.org/2000/svg">
  <sodipodi:namedview
     id="namedview15"
     pagecolor="#505050"
     bordercolor="#ffffff"
     borderopacity="1"
     inkscape:pageshadow="0"
     inkscape:pageopacity="0"
     inkscape:pagecheckerboard="1"
     showgrid="false"
     inkscape:zoom="17.4375"
     inkscape:cx="10.351254"
     inkscape:cy="10.207885"
     inkscape:window-width="1308"
     inkscape:window-height="742"
     inkscape:window-x="58"
     inkscape:window-y="26"
     inkscape:window-maximized="1"
     inkscape:current-layer="svg13" />
  <defs
     id="defs3">
    <style
       id="current-color-scheme"
       type="text/css">.ColorScheme-Text { color:#727272; } .ColorScheme-Highlight { color:#5294e2; }</style>
  </defs>
  <g
     fill="#dfdfdf"
     id="g11"
     transform="matrix(0.8,0,0,0.8,1.49999,1.600004)">
    <path
       d="M 4.9941,0 C 3.7361,0.015 2.8145,-0.030234 2.0625,0.38477 A 1.88,1.88 0 0 0 1.22461,1.38282 C 1.05961,1.82182 1,2.34301 1,3.00002 v 10 c 0,0.658 0.059609,1.1792 0.22461,1.6172 0.164,0.439 0.46089,0.79005 0.83789,0.99805 0.752,0.416 1.6736,0.36977 2.9316,0.38477 h 5.0117 c 1.258,-0.014 2.1786,0.03023 2.9316,-0.38477 a 1.88,1.88 0 0 0 0.83789,-0.99805 c 0.164,-0.438 0.22461,-0.96019 0.22461,-1.6172 v -10 c 0,-0.658 -0.05961,-1.1782 -0.22461,-1.6172 A 1.88,1.88 0 0 0 12.9374,0.38477 C 12.1844,-0.03023 11.2638,0.015 10.0058,0 H 4.998 4.9940937 Z m 0.00586,1 h 5 c 1.2589996,0.015 2.0870996,0.059719 2.4530996,0.26172 0.184,0.101 0.28972,0.21366 0.38672,0.47266 0.097,0.26 0.16016,0.67362 0.16016,1.2656 v 10 c 0,0.592 -0.06316,1.0056 -0.16016,1.2656 -0.098,0.26 -0.20272,0.37166 -0.38672,0.47266 -0.366,0.202 -1.1941,0.24672 -2.4530996,0.26172 h -5 c -1.258,-0.015 -2.0901,-0.05972 -2.4551,-0.26172 -0.183,-0.1 -0.28677,-0.21266 -0.38477,-0.47266 -0.097,-0.26 -0.16016,-0.67362 -0.16016,-1.2656 v -10 c 0,-0.592 0.063156,-1.0056 0.16016,-1.2656 0.098,-0.26 0.20177,-0.37166 0.38477,-0.47266 0.365,-0.202 1.1951,-0.24672 2.4551,-0.26172 z"
       style="fill:currentColor"
       class="ColorScheme-Text"
       id="path5" />
    <path
       d="m 7.795,5.012 a 4.487,4.487 0 0 0 -3.033,0.918 4.506,4.506 0 0 0 -1.16,5.82 4.508,4.508 0 0 0 5.62,1.908 4.51,4.51 0 0 0 2.628,-5.324 l -0.131,-0.482 -0.967,0.26 0.13,0.482 A 3.494,3.494 0 0 1 8.84,12.733 3.494,3.494 0 0 1 4.469,11.25 3.494,3.494 0 0 1 9.589,6.703 L 8.945,7.348 9.652,8.055 10.328,7.379 H 10.33 L 10.684,7.024 11.037,6.672 10.684,6.319 A 4.494,4.494 0 0 0 7.795,5.012 Z"
       style="fill:currentColor"
       class="ColorScheme-Text"
       id="path7" />
    <path
       d="M 7.5,8 A 1.5,1.5 0 0 0 6,9.5 1.5,1.5 0 0 0 7.5,11 1.5,1.5 0 0 0 9,9.5 1.5,1.5 0 0 0 7.5,8 Z m 0,1 A 0.5,0.5 0 0 1 8,9.5 0.5,0.5 0 0 1 7.5,10 0.5,0.5 0 0 1 7,9.5 0.5,0.5 0 0 1 7.5,9 Z"
       style="fill:currentColor"
       class="ColorScheme-Text"
       id="path9" />
  </g>
</svg>
