<svg width="16" height="16" version="1.1" xmlns="http://www.w3.org/2000/svg"> <defs>
  <style id="current-color-scheme" type="text/css">.ColorScheme-Text { color:#727272; } .ColorScheme-Highlight { color:#5294e2; }</style>
 </defs>
<path d="m5.5 16s-1-1-4.5-6h2v-3h1v4h-1.219c2.219 3 2.719 3.406 2.719 3.406s0.5-0.406 2.719-3.406h-1.219v-3h1v2h2c-3.5 5-4.5 6-4.5 6z" style="fill:currentColor" class="ColorScheme-Text"/>
<path d="m9.5 0s1 1 4.5 6h-2v3h-1v-4h1.219c-2.219-3-2.719-3.406-2.719-3.406s-0.5 0.406-2.719 3.406h1.219v3h-1v-2h-2c3.5-5 4.5-6 4.5-6z" style="fill:currentColor" class="ColorScheme-Text" opacity=".5"/>
</svg>
