<?xml version="1.0" encoding="UTF-8" standalone="no"?>
<svg
   height="16"
   width="16"
   version="1.1"
   id="svg8"
   sodipodi:docname="configure-shortcuts.svg"
   inkscape:version="1.1.1 (3bf5ae0d25, 2021-09-20, custom)"
   xmlns:inkscape="http://www.inkscape.org/namespaces/inkscape"
   xmlns:sodipodi="http://sodipodi.sourceforge.net/DTD/sodipodi-0.dtd"
   xmlns="http://www.w3.org/2000/svg"
   xmlns:svg="http://www.w3.org/2000/svg"
   xmlns:rdf="http://www.w3.org/1999/02/22-rdf-syntax-ns#"
   xmlns:cc="http://creativecommons.org/ns#"
   xmlns:dc="http://purl.org/dc/elements/1.1/">
  <metadata
     id="metadata14">
    <rdf:RDF>
      <cc:Work
         rdf:about="">
        <dc:format>image/svg+xml</dc:format>
        <dc:type
           rdf:resource="http://purl.org/dc/dcmitype/StillImage" />
      </cc:Work>
    </rdf:RDF>
  </metadata>
 <defs>
  <style id="current-color-scheme" type="text/css">.ColorScheme-Text { color:#727272; } .ColorScheme-Highlight { color:#5294e2; }</style>
 </defs>
  <g
     id="g843">
    <path
       style="fill:currentColor" class="ColorScheme-Text"
       d="M 3.994,3 C 2.736,3.015 1.815,2.97 1.063,3.385 A 1.88,1.88 0 0 0 0.225,4.383 C 0.06,4.822 0,5.343 0,6 v 5 c 0,0.658 0.06,1.179 0.225,1.617 0.164,0.439 0.461,0.79 0.838,0.998 0.752,0.416 1.673,0.37 2.931,0.385 h 7.012 c 1.258,-0.014 2.179,0.03 2.932,-0.385 a 1.88,1.88 0 0 0 0.838,-0.998 C 14.94,12.179 15,11.657 15,11 V 6 C 15,5.342 14.94,4.822 14.775,4.383 A 1.88,1.88 0 0 0 13.938,3.385 C 13.185,2.969 12.264,3.015 11.006,3 H 3.998 Z M 4,4 h 7 c 1.259,0.015 2.087,0.06 2.453,0.262 0.184,0.101 0.29,0.213 0.387,0.472 C 13.937,4.994 14,5.408 14,6 v 5 c 0,0.592 -0.063,1.006 -0.16,1.266 -0.098,0.26 -0.203,0.371 -0.387,0.472 C 13.087,12.94 12.259,12.985 11,13 H 4 C 2.742,12.985 1.913,12.94 1.547,12.738 1.364,12.638 1.257,12.526 1.16,12.266 1.063,12.006 1,11.592 1,11 V 6 C 1,5.408 1.063,4.994 1.16,4.734 1.258,4.474 1.364,4.363 1.547,4.262 1.913,4.06 2.742,4.015 4,4 Z" />
    <path
       style="fill:currentColor" class="ColorScheme-Text"
       d="M 3,6 V 7 H 4 V 6 Z M 5,6 V 7 H 6 V 6 Z M 7,6 V 7 H 8 V 6 Z m 2,0 v 1 h 1 V 6 Z m 2,0 v 1 h 1 V 6 Z M 3.998,8 4.002,9 H 5 V 8 Z M 6,8 V 9 H 7 V 8 Z M 8,8 V 9 H 9 V 8 Z m 2,0 v 1 h 1 V 8 Z m -7,2 v 1 h 1 v -1 z m 2,0 v 1 h 5 v -1 z m 6,0 0.012,1 h 0.994 l -0.012,-1 z" />
  </g>
</svg>
