<?xml version="1.0" encoding="UTF-8" standalone="no"?>
<svg
   width="16"
   height="16"
   version="1.1"
   id="svg6"
   sodipodi:docname="device-notifier.svg"
   inkscape:version="1.1.1 (3bf5ae0d25, 2021-09-20, custom)"
   xmlns:inkscape="http://www.inkscape.org/namespaces/inkscape"
   xmlns:sodipodi="http://sodipodi.sourceforge.net/DTD/sodipodi-0.dtd"
   xmlns="http://www.w3.org/2000/svg"
   xmlns:svg="http://www.w3.org/2000/svg">
 <defs>
  <style id="current-color-scheme" type="text/css">.ColorScheme-Text { color:#727272; } .ColorScheme-Highlight { color:#5294e2; }</style>
 </defs>
  <path
     d="M 5.6205,2 C 4.677,2.01125 3.98625,1.9775 3.42225,2.28875 a 1.41,1.41 0 0 0 -0.6285,0.7485 C 2.67,3.3665 2.625,3.75725 2.625,4.25 v 7.5 c 0,0.4935 0.045,0.88425 0.16875,1.21275 0.123,0.32925 0.34575,0.5925 0.6285,0.7485 0.564,0.312 1.25475,0.2775 2.19825,0.28875 h 3.759 c 0.9435,-0.0105 1.63425,0.0225 2.199,-0.28875 a 1.41,1.41 0 0 0 0.6285,-0.7485 c 0.123,-0.3285 0.168,-0.72 0.168,-1.21275 v -7.5 c 0,-0.4935 -0.045,-0.8835 -0.16875,-1.21275 A 1.41,1.41 0 0 0 11.5785,2.28875 C 11.01375,1.9775 10.323,2.01125 9.3795,2 H 5.6235 Z M 5.625,2.75 h 3.75 c 0.94425,0.01125 1.56525,0.045 1.83975,0.1965 0.138,0.07575 0.2175,0.15975 0.29025,0.354 0.07275,0.195 0.12,0.5055 0.12,0.9495 v 7.5 c 0,0.444 -0.04725,0.7545 -0.12,0.9495 -0.0735,0.195 -0.15225,0.27825 -0.29025,0.354 -0.2745,0.1515 -0.8955,0.18525 -1.83975,0.1965 H 5.625 C 4.6815,13.23875 4.0575,13.205 3.78375,13.0535 3.6465,12.9785 3.5685,12.8945 3.495,12.6995 3.42225,12.5045 3.375,12.194 3.375,11.75 V 4.25 C 3.375,3.806 3.42225,3.4955 3.495,3.3005 3.5685,3.1055 3.6465,3.02225 3.78375,2.9465 4.0575,2.795 4.68,2.76125 5.625,2.75 Z"
     style="fill:currentColor" class="ColorScheme-Text"/>
  <path
     d="m 7.125,4.25 -0.75,1.5 h 0.75 V 9.1145 A 6.54225,6.54225 0 0 0 6.54375,8.78975 C 6.2625,8.64875 6.00225,8.513 5.84175,8.3795 5.68125,8.246 5.625,8.156 5.625,8 A 0.75,0.75 0 0 0 6.375,7.25 0.75,0.75 0 0 0 5.625,6.5 0.75,0.75 0 0 0 4.875,7.25 V 8 C 4.875,8.4065 5.1,8.73875 5.361,8.95625 5.62275,9.17375 5.9265,9.32 6.2085,9.46025 6.489,9.60125 6.74775,9.737 6.90825,9.8705 7.06875,10.00475 7.125,10.094 7.125,10.25 6.91725,10.25 6.75,10.41725 6.75,10.625 v 0.75 c 0,0.20775 0.16725,0.375 0.375,0.375 h 0.75 c 0.20775,0 0.375,-0.16725 0.375,-0.375 v -0.75 C 8.25,10.41725 8.08275,10.25 7.875,10.25 V 9.5 C 7.875,9.344 7.93125,9.25475 8.0925,9.1205 8.25225,8.987 8.5125,8.8505 8.79375,8.71025 9.075,8.57 9.37725,8.4245 9.639,8.20625 9.9,7.98875 10.125,7.6565 10.125,7.25 V 6.125 C 10.125,5.91725 9.95775,5.75 9.75,5.75 H 9 c -0.20775,0 -0.375,0.16725 -0.375,0.375 v 0.75 C 8.625,7.08275 8.79225,7.25 9,7.25 h 0.375 c 0,0.156 -0.05625,0.246 -0.21675,0.3795 -0.1605,0.1335 -0.41925,0.27 -0.7005,0.41025 -0.192,0.096 -0.39,0.2025 -0.58275,0.32475 V 5.75 h 0.75 l -0.75,-1.5 z"
     style="fill:currentColor" class="ColorScheme-Text"/>
</svg>
