<?xml version="1.0" encoding="UTF-8" standalone="no"?>
<svg
   version="1.1"
   viewBox="0 0 16 16"
   id="svg6"
   sodipodi:docname="applications-all.svg"
   inkscape:version="1.1.1 (3bf5ae0d25, 2021-09-20, custom)"
   xmlns:inkscape="http://www.inkscape.org/namespaces/inkscape"
   xmlns:sodipodi="http://sodipodi.sourceforge.net/DTD/sodipodi-0.dtd"
   xmlns="http://www.w3.org/2000/svg"
   xmlns:svg="http://www.w3.org/2000/svg">
  <defs
     id="defs10" />
  <sodipodi:namedview
     id="namedview8"
     pagecolor="#505050"
     bordercolor="#ffffff"
     borderopacity="1"
     inkscape:pageshadow="0"
     inkscape:pageopacity="0"
     inkscape:pagecheckerboard="1"
     showgrid="false"
     inkscape:zoom="34.75"
     inkscape:cx="7.9856115"
     inkscape:cy="7.9856115"
     inkscape:window-width="1306"
     inkscape:window-height="709"
     inkscape:window-x="60"
     inkscape:window-y="28"
     inkscape:window-maximized="1"
     inkscape:current-layer="svg6" />
  <g
     transform="matrix(0.75,0,0,0.75,-382.00117,-361)"
     id="g4">
    <path
       d="m 515.8,487 c -0.53643,0 -0.80469,1.5e-4 -0.80469,0.625 v 0.75 c 0,0.62485 0.26826,0.625 0.80469,0.625 h 0.39062 c 0.53643,0 0.80469,-1.5e-4 0.80469,-0.625 v -0.75 c 0,-0.60253 -0.26826,-0.625 -0.80469,-0.625 z m 4,0 c -0.53643,0 -0.80469,1.5e-4 -0.80469,0.625 v 0.75 c 0,0.62485 0.26826,0.625 0.80469,0.625 h 0.39062 c 0.53643,0 0.80469,-1.5e-4 0.80469,-0.625 v -0.75 c 0,-0.60253 -0.26826,-0.625 -0.80469,-0.625 z m 4,0 c -0.53643,0 -0.80469,1.5e-4 -0.80469,0.625 v 0.75 c 0,0.62485 0.26826,0.625 0.80469,0.625 h 0.39062 c 0.53643,0 0.80469,-1.5e-4 0.80469,-0.625 v -0.75 c 0,-0.60253 -0.26826,-0.625 -0.80469,-0.625 z m -8,4 c -0.53643,0 -0.80469,1.5e-4 -0.80469,0.625 v 0.75 c 0,0.62485 0.26826,0.625 0.80469,0.625 h 0.39062 c 0.53643,0 0.80469,-1.5e-4 0.80469,-0.625 v -0.75 c 0,-0.60253 -0.26826,-0.625 -0.80469,-0.625 z m 4,0 c -0.53643,0 -0.80469,1.5e-4 -0.80469,0.625 v 0.75 c 0,0.62485 0.26826,0.625 0.80469,0.625 h 0.39062 c 0.53643,0 0.80469,-1.5e-4 0.80469,-0.625 v -0.75 c 0,-0.60253 -0.26826,-0.625 -0.80469,-0.625 z m 4,0 c -0.53643,0 -0.80469,1.5e-4 -0.80469,0.625 v 0.75 c 0,0.62485 0.26826,0.625 0.80469,0.625 h 0.39062 c 0.53643,0 0.80469,-1.5e-4 0.80469,-0.625 v -0.75 c 0,-0.60253 -0.26826,-0.625 -0.80469,-0.625 z m -8,4 c -0.53643,0 -0.80469,1.5e-4 -0.80469,0.625 v 0.75 c 0,0.62485 0.26826,0.625 0.80469,0.625 h 0.39062 c 0.53643,0 0.80469,-1.5e-4 0.80469,-0.625 v -0.75 c 0,-0.60253 -0.26826,-0.625 -0.80469,-0.625 z m 4,0 c -0.53643,0 -0.80469,1.5e-4 -0.80469,0.625 v 0.75 c 0,0.62485 0.26826,0.625 0.80469,0.625 h 0.39062 c 0.53643,0 0.80469,-1.5e-4 0.80469,-0.625 v -0.75 c 0,-0.60253 -0.26826,-0.625 -0.80469,-0.625 z m 4,0 c -0.53643,0 -0.80469,1.5e-4 -0.80469,0.625 v 0.75 c 0,0.62485 0.26826,0.625 0.80469,0.625 h 0.39062 c 0.53643,0 0.80469,-1.5e-4 0.80469,-0.625 v -0.75 c 0,-0.60253 -0.26826,-0.625 -0.80469,-0.625 z"
       color="#000000"
       fill="#dfdfdf"
       id="path2" />
  </g>
</svg>
