<?xml version="1.0" encoding="UTF-8" standalone="no"?>
<svg
   viewBox="0 0 16 16"
   version="1.1"
   id="svg4"
   sodipodi:docname="preferences-desktop-search.svg"
   inkscape:version="1.2 (dc2aedaf03, 2022-05-15)"
   xmlns:inkscape="http://www.inkscape.org/namespaces/inkscape"
   xmlns:sodipodi="http://sodipodi.sourceforge.net/DTD/sodipodi-0.dtd"
   xmlns="http://www.w3.org/2000/svg"
   xmlns:svg="http://www.w3.org/2000/svg">
  <sodipodi:namedview
     id="namedview2197"
     pagecolor="#505050"
     bordercolor="#eeeeee"
     borderopacity="1"
     inkscape:showpageshadow="0"
     inkscape:pageopacity="0"
     inkscape:pagecheckerboard="0"
     inkscape:deskcolor="#505050"
     showgrid="false"
     inkscape:zoom="6.2313785"
     inkscape:cx="0.4814344"
     inkscape:cy="22.306461"
     inkscape:window-width="1308"
     inkscape:window-height="742"
     inkscape:window-x="58"
     inkscape:window-y="26"
     inkscape:window-maximized="1"
     inkscape:current-layer="svg4" />
  <defs
     id="defs2192">
    <style
       id="current-color-scheme"
       type="text/css">.ColorScheme-Text { color:#727272; } .ColorScheme-Highlight { color:#5294e2; }</style>
  </defs>
  <path
     d="m 7.19875,2.69875 c -2.4825,0 -4.5,2.0175 -4.5,4.5 0,2.4825 2.0175,4.5 4.5,4.5 A 4.461,4.461 0 0 0 9.94675,10.744 L 12.094,12.89125 12.89125,12.094 10.744,9.94675 a 4.46175,4.46175 0 0 0 0.95475,-2.748 c 0,-2.4825 -2.0175,-4.5 -4.5,-4.5 z m 0,0.75 a 3.75,3.75 0 0 1 3.75,3.75 3.75,3.75 0 0 1 -3.75,3.75 3.75,3.75 0 0 1 -3.75,-3.75 3.75,3.75 0 0 1 3.75,-3.75 z"
     style="fill:currentColor"
     class="ColorScheme-Text"
     id="path2194" />
</svg>
