<?xml version="1.0" encoding="UTF-8" standalone="no"?>
<svg
   height="16"
   id="svg7384"
   version="1.1"
   width="16"
   sodipodi:docname="preferences-desktop-theme-applications.svg"
   inkscape:version="1.1.1 (3bf5ae0d25, 2021-09-20, custom)"
   xmlns:inkscape="http://www.inkscape.org/namespaces/inkscape"
   xmlns:sodipodi="http://sodipodi.sourceforge.net/DTD/sodipodi-0.dtd"
   xmlns="http://www.w3.org/2000/svg"
   xmlns:svg="http://www.w3.org/2000/svg"
   xmlns:rdf="http://www.w3.org/1999/02/22-rdf-syntax-ns#"
   xmlns:cc="http://creativecommons.org/ns#"
   xmlns:dc="http://purl.org/dc/elements/1.1/">
  <sodipodi:namedview
     id="namedview21"
     pagecolor="#505050"
     bordercolor="#ffffff"
     borderopacity="1"
     inkscape:pageshadow="0"
     inkscape:pageopacity="0"
     inkscape:pagecheckerboard="1"
     showgrid="false"
     inkscape:zoom="34.75"
     inkscape:cx="7.9856115"
     inkscape:cy="7.9856115"
     inkscape:window-width="1306"
     inkscape:window-height="709"
     inkscape:window-x="60"
     inkscape:window-y="28"
     inkscape:window-maximized="1"
     inkscape:current-layer="svg7384" />
  <metadata
     id="metadata20854">
    <rdf:RDF>
      <cc:Work
         rdf:about="">
        <dc:title />
        <dc:format>image/svg+xml</dc:format>
        <dc:type
           rdf:resource="http://purl.org/dc/dcmitype/StillImage" />
      </cc:Work>
    </rdf:RDF>
  </metadata>
 <defs>
  <style id="current-color-scheme" type="text/css">.ColorScheme-Text { color:#727272; } .ColorScheme-Highlight { color:#5294e2; }</style>
 </defs>
  <g
     id="layer9"
     label="status"
     style="fill:currentColor" class="ColorScheme-Text"
     transform="translate(-793.00024,167.00006)" />
  <g
     id="layer2"
     style="fill:currentColor" class="ColorScheme-Text"
     transform="translate(-552.00004,-199.99994)" />
  <g
     id="layer4"
     style="fill:currentColor" class="ColorScheme-Text"
     transform="translate(-552.00004,-199.99994)" />
  <g
     id="g1812"
     style="fill:currentColor" class="ColorScheme-Text"
     transform="translate(-552.00004,-199.99994)" />
  <g
     id="g6217"
     style="fill:currentColor" class="ColorScheme-Text"
     transform="translate(-552.00004,-199.99994)" />
  <g
     id="layer3"
     style="fill:currentColor" class="ColorScheme-Text"
     transform="translate(-552.00004,-199.99994)" />
  <g
     id="g1833"
     style="fill:currentColor" class="ColorScheme-Text"
     transform="matrix(0.75,0,0,0.75,-412.00003,-147.87494)">
    <path
       d="m 555.99418,202 c -1.25819,0.0145 -2.17883,-0.0306 -2.93164,0.38477 -0.37641,0.20768 -0.67518,0.55942 -0.83984,0.99804 -0.16465,0.43863 -0.22266,0.9596 -0.22266,1.61719 v 7 c 0,0.65759 0.058,1.17856 0.22266,1.61719 0.16466,0.43862 0.46343,0.79036 0.83984,0.99804 0.75281,0.41535 1.67345,0.37023 2.93164,0.38477 h 0.004 8.0039 0.004 c 1.25819,-0.0145 2.17883,0.0306 2.93164,-0.38477 0.37641,-0.20768 0.67324,-0.55942 0.83789,-0.99804 0.16415,-0.43863 0.22443,-0.9596 0.22443,-1.61719 v -7 c 0,-0.65759 -0.06,-1.17856 -0.22461,-1.61719 -0.16465,-0.43862 -0.46148,-0.79036 -0.83789,-0.99804 -0.75281,-0.41536 -1.67345,-0.37023 -2.93164,-0.38477 h -0.004 -8.00586 z m 0.006,1 h 8 c 1.25957,0.0147 2.08706,0.0578 2.45312,0.25977 0.1834,0.10118 0.28915,0.21464 0.38672,0.4746 0.0975,0.25994 0.16016,0.67322 0.16016,1.26563 v 7 c 0,0.59241 -0.0626,1.00567 -0.16016,1.26562 -0.0976,0.25995 -0.20334,0.37343 -0.38672,0.47461 -0.36607,0.20198 -1.19355,0.24508 -2.45312,0.25977 h -0.006 -7.994 z m -2.16602,0 h 0.33204 c 0.667,0 0.83398,0.2 0.83398,1 0,0.8 -0.16698,1 -0.83398,1 h -0.33204 c -0.66714,0 -0.83398,-0.2 -0.83398,-1 0,-0.8 0.16698,-1 0.83398,-1 z m 0,3 h 0.33204 c 0.667,0 0.83398,0.2 0.83398,1 0,0.8 -0.16698,1 -0.83398,1 h -0.33204 c -0.66714,0 -0.83398,-0.2 -0.83398,-1 0,-0.8 0.16698,-1 0.83398,-1 z m 0,3 h 0.33204 c 0.667,0 0.83398,0.2 0.83398,1 0,0.8 -0.16698,1 -0.83398,1 h -0.33204 c -0.66714,0 -0.83398,-0.2 -0.83398,-1 0,-0.8 0.16698,-1 0.83398,-1 z m 0,3 h 0.33204 c 0.667,0 0.83398,0.2 0.83398,1 0,0.8 -0.16698,1 -0.83398,1 h -0.33204 c -0.66714,0 -0.83398,-0.2 -0.83398,-1 0,-0.8 0.16698,-1 0.83398,-1 z"
       style="fill:currentColor" class="ColorScheme-Text" />
  </g>
  <g
     id="layer1"
     style="fill:currentColor" class="ColorScheme-Text"
     transform="translate(-552.00004,-199.99994)" />
</svg>
