<?xml version="1.0" encoding="UTF-8" standalone="no"?>
<svg
   version="1.1"
   viewBox="0 0 16 16"
   id="svg16"
   sodipodi:docname="preferences-desktop-gaming.svg"
   inkscape:version="1.1.1 (3bf5ae0d25, 2021-09-20, custom)"
   xmlns:inkscape="http://www.inkscape.org/namespaces/inkscape"
   xmlns:sodipodi="http://sodipodi.sourceforge.net/DTD/sodipodi-0.dtd"
   xmlns="http://www.w3.org/2000/svg"
   xmlns:svg="http://www.w3.org/2000/svg">
 <defs>
  <style id="current-color-scheme" type="text/css">.ColorScheme-Text { color:#727272; } .ColorScheme-Highlight { color:#5294e2; }</style>
 </defs>
  <g
     transform="matrix(0.75,0,0,0.75,-382.12603,-343)"
     fill="#dfdfdf"
     id="g14">
    <path
       d="m 516.99,460 c -1.2582,0.0145 -2.1789,-0.0306 -2.9316,0.38477 -0.37637,0.20766 -0.67323,0.55938 -0.83789,0.99804 -0.16467,0.43867 -0.22461,0.95958 -0.22461,1.6172 v 10 c 0,0.65761 0.0599,1.1786 0.22461,1.6172 0.16468,0.43861 0.46153,0.78852 0.83789,0.99609 0.75272,0.41513 1.6735,0.37165 2.9316,0.38672 h 0.002 5.0059 0.004 c 1.2582,-0.0145 2.1789,0.0306 2.9316,-0.38477 0.37637,-0.20766 0.67322,-0.55938 0.83789,-0.99804 0.16453,-0.43867 0.22447,-0.95958 0.22447,-1.6172 v -10 c 0,-0.65761 -0.0599,-1.1786 -0.22461,-1.6172 -0.16468,-0.43861 -0.46153,-0.78852 -0.83789,-0.99609 -0.75272,-0.41513 -1.6736,-0.37165 -2.9316,-0.38672 h -0.002 -5.0059 z m 0.006,1 h 5 c 1.2586,0.0152 2.0891,0.0599 2.4551,0.26172 0.18342,0.10116 0.28722,0.21286 0.38476,0.47266 0.0974,0.25979 0.16002,0.67323 0.16002,1.2656 v 10 c 0,0.59239 -0.0626,1.0057 -0.16016,1.2656 -0.0976,0.25991 -0.20135,0.37147 -0.38476,0.47266 -0.36596,0.20192 -1.1966,0.24701 -2.4551,0.26172 h -4.9941 -0.006 c -1.2586,-0.0152 -2.0891,-0.0599 -2.4551,-0.26172 -0.18342,-0.10116 -0.28722,-0.21286 -0.38476,-0.47266 -0.0975,-0.25979 -0.16016,-0.67323 -0.16016,-1.2656 v -10 c 0,-0.59239 0.0626,-1.0057 0.16016,-1.2656 0.0976,-0.25991 0.20331,-0.37147 0.38672,-0.47266 0.36595,-0.20191 1.1946,-0.24702 2.4531,-0.26172 z"
       style="fill:currentColor" class="ColorScheme-Text"/>
    <path
       d="m 515.5,462 c -0.277,0 -0.5,0.223 -0.5,0.5 v 4 c 0,0.277 0.223,0.5 0.5,0.5 h 8 c 0.277,0 0.5,-0.223 0.5,-0.5 v -4 c 0,-0.277 -0.223,-0.5 -0.5,-0.5 z m 0.75,1 h 6.5 c 0.1385,0 0.25,0.1115 0.25,0.25 v 2.5 c 0,0.1385 -0.1115,0.25 -0.25,0.25 h -6.5 c -0.1385,0 -0.25,-0.1115 -0.25,-0.25 v -2.5 c 0,-0.1385 0.1115,-0.25 0.25,-0.25 z"
       style="fill:currentColor" class="ColorScheme-Text" />
    <rect
       x="516"
       y="468.5"
       width="1"
       height="4"
       rx="0.5"
       ry="0.5"
       style="fill:currentColor" class="ColorScheme-Text" />
    <rect
       x="514.5"
       y="470"
       width="4"
       height="1"
       rx="0.5"
       ry="0.5"
       style="fill:currentColor" class="ColorScheme-Text" />
    <rect
       x="522"
       y="469"
       width="2"
       height="2"
       rx="1"
       ry="1"
       style="fill:currentColor" class="ColorScheme-Text" />
    <rect
       x="520"
       y="471"
       width="2"
       height="2"
       rx="1"
       ry="1"
       style="fill:currentColor" class="ColorScheme-Text"/>
  </g>
</svg>
