<?xml version="1.0" encoding="UTF-8" standalone="no"?>
<svg
   height="16"
   width="16"
   version="1.1"
   id="svg4"
   sodipodi:docname="preferences-system-login.svg"
   inkscape:version="1.1.1 (3bf5ae0d25, 2021-09-20, custom)"
   xmlns:inkscape="http://www.inkscape.org/namespaces/inkscape"
   xmlns:sodipodi="http://sodipodi.sourceforge.net/DTD/sodipodi-0.dtd"
   xmlns="http://www.w3.org/2000/svg"
   xmlns:svg="http://www.w3.org/2000/svg"
   xmlns:rdf="http://www.w3.org/1999/02/22-rdf-syntax-ns#"
   xmlns:cc="http://creativecommons.org/ns#"
   xmlns:dc="http://purl.org/dc/elements/1.1/">
  <metadata
     id="metadata10">
    <rdf:RDF>
      <cc:Work
         rdf:about="">
        <dc:format>image/svg+xml</dc:format>
        <dc:type
           rdf:resource="http://purl.org/dc/dcmitype/StillImage" />
      </cc:Work>
    </rdf:RDF>
  </metadata>
 <defs>
  <style id="current-color-scheme" type="text/css">.ColorScheme-Text { color:#727272; } .ColorScheme-Highlight { color:#5294e2; }</style>
 </defs>
  <path
     style="fill:currentColor" class="ColorScheme-Text"
     d="m 3.8339844,4.25 c -0.39,0 -0.7055156,0.036305 -0.9785156,0.1435547 -0.273,0.108 -0.4965235,0.3070312 -0.6240235,0.5507812 C 1.9764453,5.4303359 2.0075,5.9963164 2,6.7680664 v 2.4638672 c 0.009,0.7717504 -0.023555,1.3384804 0.2314453,1.8237304 0.1275,0.243 0.3510235,0.442781 0.6240235,0.550782 0.273,0.10725 0.5885156,0.143554 0.9785156,0.143554 h 2.333496 c 0.39,0 0.7055157,-0.0363 0.9785157,-0.143554 0.273,-0.108001 0.4950585,-0.307032 0.6225586,-0.550782 0.222,-0.42225 0.2225859,-0.930879 0.2255859,-1.5571288 L 9.453125,9.4956054 9.875,9.125 10.25,9.5 10.625,9.125 11,9.5 11.375,9.125 12.125,9.875 14,8 12.5,6.5 7.9941406,6.5014648 c 0,-0.62625 -0.00809,-1.1348788 -0.2255859,-1.5571289 A 1.20525,1.20525 0 0 0 7.1445312,4.3935547 C 6.8722812,4.2855546 6.5574804,4.25 6.1674804,4.25 Z m 0,0.75 h 2.333496 c 0.33825,0 0.5674102,0.039035 0.7016602,0.092285 0.135,0.0525 0.1825898,0.1001835 0.2358398,0.2006835 0.105,0.201 0.1367696,0.7083867 0.1450196,1.4838867 V 7.2514648 L 12.189454,7.25 12.939454,8 12.125,8.8144531 l -0.75,-0.75 -0.375,0.375 -0.375,-0.375 -0.375,0.375 L 9.9086915,8.0981446 9.1704102,8.7456054 7.25,8.75 V 9.2231446 C 7.24175,9.9993943 7.20998,10.505281 7.1049804,10.707031 7.0524804,10.806781 7.0041406,10.854465 6.8691406,10.907715 6.7341406,10.960215 6.5057304,11 6.1674804,11 h -2.333496 c -0.33825,0 -0.568875,-0.03904 -0.703125,-0.09229 -0.135,-0.05325 -0.181125,-0.100184 -0.234375,-0.200684 C 2.7914844,10.506781 2.759,9.9992893 2.75,9.2275391 V 6.7724609 c 0.009,-0.77175 0.041484,-1.2784922 0.1464844,-1.4794922 0.0525,-0.1005 0.099375,-0.1474335 0.234375,-0.2006835 C 3.2658594,5.0390352 3.4957344,5 3.8339844,5 Z"
     id="path816" />
  <path
     style="fill:currentColor" class="ColorScheme-Text"
     d="M 3,7.25 A 0.75,0.75 0 0 0 2.25,8 0.75,0.75 0 0 0 3,8.75 0.75,0.75 0 0 0 3.75,8 0.75,0.75 0 0 0 3,7.25 Z"
     id="path2" />
</svg>
