<?xml version="1.0" encoding="UTF-8" standalone="no"?>
<svg
   version="1.1"
   viewBox="0 0 16 16"
   id="svg18"
   sodipodi:docname="preferences-desktop-color.svg"
   inkscape:version="1.1.1 (3bf5ae0d25, 2021-09-20, custom)"
   xmlns:inkscape="http://www.inkscape.org/namespaces/inkscape"
   xmlns:sodipodi="http://sodipodi.sourceforge.net/DTD/sodipodi-0.dtd"
   xmlns="http://www.w3.org/2000/svg"
   xmlns:svg="http://www.w3.org/2000/svg">
 <defs>
  <style id="current-color-scheme" type="text/css">.ColorScheme-Text { color:#727272; } .ColorScheme-Highlight { color:#5294e2; }</style>
 </defs>
  <g
     fill="#808080"
     fill-rule="evenodd"
     stroke-linecap="square"
     id="g16"
     transform="matrix(0.75,0,0,0.75,2,2)"
     style="fill:#dfdfdf;fill-opacity:1">
    <path
       d="M 5.5,5 A 5.5,5.5 0 0 0 0,10.5 5.5,5.5 0 0 0 5.5,16 5.5,5.5 0 0 0 11,10.5 5.5,5.5 0 0 0 5.5,5 Z m 0,1 A 4.5,4.5 0 0 1 10,10.5 4.5,4.5 0 0 1 5.5,15 4.5,4.5 0 0 1 1,10.5 4.5,4.5 0 0 1 5.5,6 Z"
       style="fill:currentColor" class="ColorScheme-Text"/>
    <path
       d="M 10.5,5 A 5.5,5.5 0 0 0 5,10.5 5.5,5.5 0 0 0 10.5,16 5.5,5.5 0 0 0 16,10.5 5.5,5.5 0 0 0 10.5,5 Z m 0,1 A 4.5,4.5 0 0 1 15,10.5 4.5,4.5 0 0 1 10.5,15 4.5,4.5 0 0 1 6,10.5 4.5,4.5 0 0 1 10.5,6 Z"
       style="fill:currentColor" class="ColorScheme-Text"/>
    <path
       d="M 8,0 A 5.5,5.5 0 0 0 2.5,5.5 5.5,5.5 0 0 0 8,11 5.5,5.5 0 0 0 13.5,5.5 5.5,5.5 0 0 0 8,0 Z M 8,1 A 4.5,4.5 0 0 1 12.5,5.5 4.5,4.5 0 0 1 8,10 4.5,4.5 0 0 1 3.5,5.5 4.5,4.5 0 0 1 8,1 Z"
       style="fill:currentColor" class="ColorScheme-Text"/>
    <path
       d="M 10.5,6 C 8.3354,6 6.53,7.5299 6.0996,9.5664 6.67858,9.83765 7.3184,9.99999 8,9.99999 c 2.1646,0 3.97,-1.5299 4.4004,-3.5664 C 11.82142,6.16234 11.1816,6 10.5,6 Z"
       opacity="0.5"
       id="path8"
       style="fill:#dfdfdf;fill-opacity:1" />
    <path
       d="M 8,6.7598 C 6.7949,7.5672 6,8.9405 6,10.5 6,12.0595 6.79488,13.4328 8,14.2402 9.2051,13.4328 10,12.0595 10,10.5 10,8.9405 9.20512,7.5672 8,6.7598 Z"
       opacity="0.5"
       id="path10"
       style="fill:#dfdfdf;fill-opacity:1" />
    <path
       d="M 5.5,6 C 4.81836,6 4.1786,6.16234 3.5996,6.43359 4.03,8.47009 5.8353,9.99999 8,9.99999 8.68164,9.99999 9.3214,9.83765 9.9004,9.5664 9.47,7.5299 7.6647,6 5.5,6 Z"
       opacity="0.5"
       id="path12"
       style="fill:#dfdfdf;fill-opacity:1" />
    <path
       d="M 8,6.7598 C 7.04265,7.4012 6.3459,8.4009 6.0996,9.5664 6.67858,9.83765 7.3184,9.99999 8,9.99999 8.68164,9.99999 9.3214,9.83765 9.9004,9.5664 9.65407,8.4008 8.95736,7.4012 8,6.7598 Z"
       id="path14"
       style="fill:#dfdfdf;fill-opacity:1" />
  </g>
</svg>
