<?xml version="1.0" encoding="UTF-8" standalone="no"?>
<svg
   version="1.1"
   viewBox="0 0 16 16"
   id="svg8"
   sodipodi:docname="preferences-desktop.svg"
   inkscape:version="1.1.1 (3bf5ae0d25, 2021-09-20, custom)"
   xmlns:inkscape="http://www.inkscape.org/namespaces/inkscape"
   xmlns:sodipodi="http://sodipodi.sourceforge.net/DTD/sodipodi-0.dtd"
   xmlns="http://www.w3.org/2000/svg"
   xmlns:svg="http://www.w3.org/2000/svg">
<defs>
  <style id="current-color-scheme" type="text/css">.ColorScheme-Text { color:#727272; } .ColorScheme-Highlight { color:#5294e2; }</style>
 </defs>
  <g
     transform="matrix(0.75,0,0,0.75,-412,-223)"
     fill="#dfdfdf"
     id="g6">
    <path
       d="m 556.5,300 c -1.939,0 -3.5,1.5331 -3.5,3.4375 v 0.125 c 0,1.9044 1.561,3.4375 3.5,3.4375 h 7 c 1.939,0 3.5,-1.5331 3.5,-3.4375 v -0.125 C 567,301.5331 565.439,300 563.5,300 Z m 6.873,1.0039 a 2.5,2.5 0 0 1 2.623,2.3672 v 0.002 a 2.5,2.5 0 0 1 -2.3691,2.623 2.5,2.5 0 0 1 -2.623,-2.3691 2.5,2.5 0 0 1 2.3691,-2.623 z"
       id="path2" style="fill:currentColor" class="ColorScheme-Text"/>
    <path
       d="m 556.5,309 c -1.939,0 -3.5,1.561 -3.5,3.5 0,1.939 1.561,3.5 3.5,3.5 h 7 c 1.939,0 3.5,-1.561 3.5,-3.5 0,-1.939 -1.561,-3.5 -3.5,-3.5 z m -0.12695,1.0039 a 2.5,2.5 0 0 1 2.623,2.3672 v 0.002 a 2.5,2.5 0 0 1 -2.3691,2.623 2.5,2.5 0 0 1 -2.623,-2.3691 2.5,2.5 0 0 1 2.3691,-2.623 z"
       id="path4" style="fill:currentColor" class="ColorScheme-Text"/>
  </g>
</svg>
