<?xml version="1.0" encoding="UTF-8" standalone="no"?>
<svg
   version="1.1"
   viewBox="0 0 16 16"
   id="svg10"
   sodipodi:docname="preferences-desktop-user-password.svg"
   inkscape:version="1.1.1 (3bf5ae0d25, 2021-09-20, custom)"
   xmlns:inkscape="http://www.inkscape.org/namespaces/inkscape"
   xmlns:sodipodi="http://sodipodi.sourceforge.net/DTD/sodipodi-0.dtd"
   xmlns="http://www.w3.org/2000/svg"
   xmlns:svg="http://www.w3.org/2000/svg">
 <defs>
  <style id="current-color-scheme" type="text/css">.ColorScheme-Text { color:#727272; } .ColorScheme-Highlight { color:#5294e2; }</style>
 </defs>
  <g
     transform="matrix(0.75,0,0,0.75,-22.000004,-237.99999)"
     fill="#dfdfdf"
     shape-rendering="auto"
     id="g8">
    <path
       d="m 34,327 -3e-5,9.0001 h 12 v -9 z m 0.99997,1.0001 h 10 v 7 h -10 z"
       style="fill:currentColor" class="ColorScheme-Text" />
    <path
       d="m 40,320 c -2.7621,0 -5,2.2379 -5,5 v 2 h 1 v -2 c 0,-2.222 1.778,-4 4,-4 2.222,0 4,1.778 4,4 v 2 h 1 v -2 c 0,-2.7621 -2.2379,-5 -5,-5 z"
       style="fill:currentColor" class="ColorScheme-Text" />
    <path
       d="m 34,327 v 9 h 12 v -9 z m 1,1 h 10 v 7 H 35 Z m 4,2 v 3 h 2 v -3 z"
       style="fill:currentColor" class="ColorScheme-Text" />
  </g>
</svg>
