<?xml version="1.0" encoding="UTF-8" standalone="no"?>
<svg
   width="16"
   height="16"
   version="1.1"
   id="svg9"
   sodipodi:docname="preferences-desktop-tablet.svg"
   inkscape:version="1.2 (dc2aedaf03, 2022-05-15)"
   xmlns:inkscape="http://www.inkscape.org/namespaces/inkscape"
   xmlns:sodipodi="http://sodipodi.sourceforge.net/DTD/sodipodi-0.dtd"
   xmlns="http://www.w3.org/2000/svg"
   xmlns:svg="http://www.w3.org/2000/svg">
  <sodipodi:namedview
     id="namedview11"
     pagecolor="#505050"
     bordercolor="#eeeeee"
     borderopacity="1"
     inkscape:showpageshadow="0"
     inkscape:pageopacity="0"
     inkscape:pagecheckerboard="0"
     inkscape:deskcolor="#505050"
     showgrid="false"
     inkscape:zoom="17.625"
     inkscape:cx="8.3120567"
     inkscape:cy="8.5106383"
     inkscape:window-width="1308"
     inkscape:window-height="742"
     inkscape:window-x="58"
     inkscape:window-y="26"
     inkscape:window-maximized="1"
     inkscape:current-layer="svg9" />
  <defs
     id="defs3">
    <style
       id="current-color-scheme"
       type="text/css">.ColorScheme-Text { color:#727272; } .ColorScheme-Highlight { color:#5294e2; }</style>
  </defs>
  <g
     id="g296"
     transform="matrix(0.75,0,0,0.75,2,1.875)">
    <path
       d="M 3.994,1 C 2.736,1.015 1.815,0.97 1.063,1.385 A 1.88,1.88 0 0 0 0.225,2.383 C 0.06,2.822 0,3.343 0,4 v 8 c 0,0.658 0.06,1.179 0.225,1.617 0.164,0.439 0.461,0.79 0.838,0.998 0.752,0.416 1.673,0.37 2.931,0.385 h 8.012 c 1.258,-0.014 2.179,0.03 2.932,-0.385 a 1.88,1.88 0 0 0 0.838,-0.998 C 15.94,13.179 16,12.657 16,12 V 4 C 16,3.342 15.94,2.822 15.775,2.383 15.77,2.37 15.763,2.36 15.758,2.348 l -0.82,0.806 C 14.975,3.384 15,3.653 15,4 v 8 c 0,0.592 -0.063,1.006 -0.16,1.266 -0.098,0.26 -0.203,0.371 -0.387,0.472 C 14.087,13.94 13.259,13.985 12,14 H 4 C 2.741,13.985 1.91,13.94 1.545,13.738 1.362,13.638 1.258,13.526 1.16,13.266 1.063,13.006 1,12.592 1,12 V 4 C 1,3.408 1.063,2.994 1.16,2.734 1.258,2.474 1.362,2.363 1.545,2.262 1.91,2.06 2.74,2.015 4,2 H 7.852 L 8.834,1 H 3.998 Z"
       style="fill:currentColor"
       class="ColorScheme-Text"
       id="path5" />
    <path
       d="M 11.238,0 10.885,0.36 3.916,7.455 3.886,7.5 C 3.825,7.599 3.616,7.95 3.303,8.588 2.989,9.226 2.603,10.098 2.291,11.08 L 2,12 2.92,11.709 A 18.163,18.163 0 0 0 5.412,10.697 C 6.05,10.384 6.399,10.177 6.5,10.113 L 6.545,10.084 14,2.762 Z M 4.891,7.89 6.109,9.11 5.932,9.285 C 5.939,9.28 5.553,9.512 4.971,9.799 4.757,9.904 4.435,10.021 4.137,10.137 L 3.863,9.863 C 3.979,9.565 4.096,9.243 4.201,9.029 4.488,8.447 4.719,8.063 4.715,8.069 Z M 4,12 v 1 H 14 V 7 h -1 v 5 z"
       style="fill:currentColor"
       class="ColorScheme-Text"
       id="path7" />
  </g>
</svg>
