<?xml version="1.0" encoding="UTF-8" standalone="no"?>
<svg
   width="16"
   height="16"
   version="1.1"
   id="svg10"
   sodipodi:docname="input-touchpad.svg"
   inkscape:version="1.1.1 (3bf5ae0d25, 2021-09-20, custom)"
   xmlns:inkscape="http://www.inkscape.org/namespaces/inkscape"
   xmlns:sodipodi="http://sodipodi.sourceforge.net/DTD/sodipodi-0.dtd"
   xmlns="http://www.w3.org/2000/svg"
   xmlns:svg="http://www.w3.org/2000/svg">
 <defs>
  <style id="current-color-scheme" type="text/css">.ColorScheme-Text { color:#727272; } .ColorScheme-Highlight { color:#5294e2; }</style>
 </defs>
  <g
     fill="#dfdfdf"
     id="g8"
     transform="matrix(0.75,0,0,0.75,1.875,2)">
    <path
       d="M 3.994,1 C 2.736,1.015 1.815,0.97 1.063,1.385 A 1.88,1.88 0 0 0 0.225,2.383 C 0.06,2.822 0,3.343 0,4 v 8 c 0,0.658 0.06,1.179 0.225,1.617 0.164,0.439 0.461,0.79 0.838,0.998 0.752,0.416 1.673,0.37 2.931,0.385 h 7.012 c 1.258,-0.014 2.179,0.03 2.932,-0.385 a 1.88,1.88 0 0 0 0.838,-0.998 C 14.94,13.179 15,12.657 15,12 V 4 C 15,3.342 14.94,2.822 14.775,2.383 A 1.88,1.88 0 0 0 13.938,1.385 C 13.185,0.969 12.264,1.015 11.006,1 H 3.998 Z M 4,2 h 7 c 1.259,0.015 2.087,0.06 2.453,0.262 0.184,0.101 0.29,0.213 0.387,0.472 C 13.937,2.994 14,3.408 14,4 v 8 c 0,0.592 -0.063,1.006 -0.16,1.266 -0.098,0.26 -0.203,0.371 -0.387,0.472 C 13.087,13.94 12.259,13.985 11,14 H 4 C 2.742,13.985 1.91,13.94 1.545,13.738 1.362,13.638 1.258,13.526 1.16,13.266 1.063,13.006 1,12.592 1,12 V 4 C 1,3.408 1.063,2.994 1.16,2.734 1.258,2.474 1.362,2.363 1.545,2.262 1.91,2.06 2.74,2.015 4,2 Z"
       style="fill:currentColor" class="ColorScheme-Text"/>
    <path
       d="m 0.5,11 v 1 h 14 v -1 z"
       style="fill:currentColor" class="ColorScheme-Text" />
    <path
       d="m 7,11.5 v 3 h 1 v -3 z"
       style="fill:currentColor" class="ColorScheme-Text"/>
  </g>
</svg>
