<?xml version="1.0" encoding="UTF-8" standalone="no"?>
<svg
   height="16"
   width="16"
   version="1.1"
   id="svg47"
   sodipodi:docname="preferences-security-firewall.svg"
   inkscape:version="1.1.2 (0a00cf5339, 2022-02-04, custom)"
   xmlns:inkscape="http://www.inkscape.org/namespaces/inkscape"
   xmlns:sodipodi="http://sodipodi.sourceforge.net/DTD/sodipodi-0.dtd"
   xmlns="http://www.w3.org/2000/svg"
   xmlns:svg="http://www.w3.org/2000/svg">
  <sodipodi:namedview
     id="namedview49"
     pagecolor="#ffffff"
     bordercolor="#111111"
     borderopacity="1"
     inkscape:pageshadow="0"
     inkscape:pageopacity="0"
     inkscape:pagecheckerboard="1"
     showgrid="false"
     inkscape:zoom="17.437501"
     inkscape:cx="8.8602147"
     inkscape:cy="4.3584228"
     inkscape:window-width="1310"
     inkscape:window-height="742"
     inkscape:window-x="56"
     inkscape:window-y="26"
     inkscape:window-maximized="1"
     inkscape:current-layer="svg47" />
  <defs
     id="defs3">
    <style
       id="current-color-scheme"
       type="text/css">.ColorScheme-Text { color:#727272; } .ColorScheme-Highlight { color:#5294e2; }</style>
  </defs>
  <g
     style="fill:currentColor"
     class="ColorScheme-Text"
     id="g45"
     transform="matrix(0.80000002,0,0,0.80000002,1.5999998,1.3411762)">
    <path
       d="M 2.2647059,12.735294 V 14.5 h 2.6470588 v -1.764706 z"
       id="path5" />
    <path
       d="M 5.7941176,12.735294 V 14.5 h 2.6470589 v -1.764706 z"
       id="path7" />
    <path
       d="M 9.3235294,12.735294 V 14.5 h 2.6470586 v -1.764706 z"
       id="path9" />
    <path
       d="M 12.852941,12.735294 V 14.5 H 15.5 v -1.764706 z"
       id="path11" />
    <path
       d="m 0.5,10.088235 v 1.764706 h 2.6470588 v -1.764706 z"
       id="path13" />
    <path
       d="m 4.0294118,10.088235 v 1.764706 h 2.6470588 v -1.764706 z"
       id="path15" />
    <path
       d="m 7.5588235,10.088235 v 1.764706 h 2.6470585 v -1.764706 z"
       id="path17" />
    <path
       d="m 11.088235,10.088235 v 1.764706 h 2.647059 v -1.764706 z"
       id="path19" />
    <path
       d="M 2.2647059,7.4411767 V 9.2058826 H 4.9117647 V 7.4411767 Z"
       id="path21" />
    <path
       d="M 5.7941176,7.4411767 V 9.2058826 H 8.4411765 V 7.4411767 Z"
       id="path23" />
    <path
       d="M 9.3235294,7.4411767 V 9.2058826 H 11.970588 V 7.4411767 Z"
       id="path25" />
    <path
       d="M 12.852941,7.4411767 V 9.2058826 H 15.5 V 7.4411767 Z"
       id="path27" />
    <path
       d="M 0.5,4.7941178 V 6.5588237 H 3.1470588 V 4.7941178 Z"
       id="path29" />
    <path
       d="M 4.0294118,4.7941178 V 6.5588237 H 6.6764706 V 4.7941178 Z"
       id="path31" />
    <path
       d="M 7.5588235,4.7941178 V 6.5588237 H 10.205882 V 4.7941178 Z"
       id="path33" />
    <path
       d="m 11.088235,4.7941178 v 1.7647059 h 2.647059 V 4.7941178 Z"
       id="path35" />
    <path
       d="M 2.2647059,2.147059 V 3.9117649 H 4.9117647 V 2.147059 Z"
       id="path37" />
    <path
       d="M 5.7941176,2.147059 V 3.9117649 H 8.4411765 V 2.147059 Z"
       id="path39" />
    <path
       d="M 9.3235294,2.147059 V 3.9117649 H 11.970588 V 2.147059 Z"
       id="path41" />
    <path
       d="M 12.852941,2.147059 V 3.9117649 H 15.5 V 2.147059 Z"
       id="path43" />
  </g>
</svg>
