<?xml version="1.0" encoding="UTF-8" standalone="no"?>
<svg
   height="16"
   width="16"
   version="1.1"
   id="svg13"
   sodipodi:docname="messaggero.svg"
   inkscape:version="1.1.2 (0a00cf5339, 2022-02-04, custom)"
   xmlns:inkscape="http://www.inkscape.org/namespaces/inkscape"
   xmlns:sodipodi="http://sodipodi.sourceforge.net/DTD/sodipodi-0.dtd"
   xmlns="http://www.w3.org/2000/svg"
   xmlns:svg="http://www.w3.org/2000/svg">
  <sodipodi:namedview
     id="namedview15"
     pagecolor="#ffffff"
     bordercolor="#666666"
     borderopacity="1.0"
     inkscape:pageshadow="2"
     inkscape:pageopacity="0.0"
     inkscape:pagecheckerboard="0"
     showgrid="false"
     inkscape:zoom="3.0825436"
     inkscape:cx="-10.867648"
     inkscape:cy="13.625111"
     inkscape:window-width="1310"
     inkscape:window-height="742"
     inkscape:window-x="56"
     inkscape:window-y="26"
     inkscape:window-maximized="1"
     inkscape:current-layer="svg13" />
  <defs
     id="defs3">
    <style
       id="current-color-scheme"
       type="text/css">.ColorScheme-Text { color:#727272; } .ColorScheme-Highlight { color:#5294e2; }</style>
  </defs>
  <path
     d="M 3.5,2.875 C 2.669,2.875 2,3.544 2,4.375 v 6 c 0,0.831 0.669,1.5 1.5,1.5 H 4.64111 L 6.5,14.125 8,11.875 h 4.5 c 0.831,0 1.5,-0.669 1.5,-1.5 v -6 c 0,-0.831 -0.669,-1.5 -1.5,-1.5 z m 0,0.75 h 9 c 0.4155,0 0.75,0.3345 0.75,0.75 v 6 c 0,0.4155 -0.3345,0.75 -0.75,0.75 H 7.6745 L 6.5,12.925 5.0255,11.125 H 3.5 c -0.4155,0 -0.75,-0.3345 -0.75,-0.75 v -6 c 0,-0.4155 0.3345,-0.75 0.75,-0.75 z m -0.524415,8.25 c 0.1139025,0.0126 0.2406225,0.01582 0.39258,0 z"
     style="fill:currentColor;stroke-width:0.75"
     class="ColorScheme-Text"
     id="path5" />
  <g
     id="g1030"
     transform="translate(4.0625)">
    <path
       style="fill:currentColor;stroke-width:0.75"
       class="ColorScheme-Text"
       d="m 0.9375,6.3456541 c 0.51777,0 0.9375,0.41973 0.9375,0.9375 0,0.51777 -0.41973,0.9375 -0.9375,0.9375 -0.51777,0 -0.9375,-0.41973 -0.9375,-0.9375 0,-0.51777 0.41973,-0.9375 0.9375,-0.9375 z"
       id="path825" />
    <path
       style="fill:currentColor;stroke-width:0.75"
       class="ColorScheme-Text"
       d="M 3.9375,6.346 C 4.45527,6.346 4.875,6.76573 4.875,7.2835 4.875,7.80127 4.45527,8.221 3.9375,8.221 3.41973,8.221 3,7.80127 3,7.2835 3,6.76573 3.41973,6.346 3.9375,6.346 Z"
       id="path825-3" />
    <path
       style="fill:currentColor;stroke-width:0.75"
       class="ColorScheme-Text"
       d="M 6.9375,6.346 C 7.455269,6.346 7.875,6.76573 7.875,7.2835 7.875,7.80127 7.45527,8.221 6.9375,8.221 6.41973,8.221 6,7.80127 6,7.2835 6,6.76573 6.41973,6.346 6.9375,6.346 Z"
       id="path825-6" />
  </g>
</svg>
