<?xml version="1.0" encoding="UTF-8" standalone="no"?>
<svg
   version="1.1"
   viewBox="0 0 16 16"
   id="svg6"
   sodipodi:docname="preferences-desktop-online-accounts-symbolic.svg"
   inkscape:version="1.1.1 (3bf5ae0d25, 2021-09-20, custom)"
   xmlns:inkscape="http://www.inkscape.org/namespaces/inkscape"
   xmlns:sodipodi="http://sodipodi.sourceforge.net/DTD/sodipodi-0.dtd"
   xmlns="http://www.w3.org/2000/svg"
   xmlns:svg="http://www.w3.org/2000/svg">
 <defs>
  <style id="current-color-scheme" type="text/css">.ColorScheme-Text { color:#727272; } .ColorScheme-Highlight { color:#5294e2; }</style>
 </defs>
  <g
     transform="matrix(0.75,0,0,0.75,-412.00025,-133.16596)"
     id="g4">
    <path
       d="m 560.64,181.67 c -2.159,0.002 -3.993,1.3312 -4.8691,3.2324 l -0.061,0.12891 -0.1386,0.01 c -1.9941,0.14525 -3.5723,1.8703 -3.5723,3.9688 0,2.1929 1.7161,3.9922 3.8379,3.9922 h 4.8047 4.4805 c 1.591,0 2.8769,-1.3504 2.8769,-2.9883 0,-1.242 -0.7469,-2.2851 -1.8047,-2.7344 l -0.1367,-0.0586 -0.01,-0.14844 c -0.1356,-2.9931 -2.4869,-5.4002 -5.4043,-5.4023 z m 0,1 c 2.3676,0.002 4.2913,1.9522 4.4043,4.4473 v 0.01 l 0.051,0.77539 0.7031,0.29688 c 0.701,0.29774 1.1953,0.97292 1.1953,1.8144 0.01,1.1141 -0.8459,1.9883 -1.871,1.9883 h -4.4786 -4.8066 c -1.5562,0 -2.8379,-1.3211 -2.8379,-2.9922 0,-1.597 1.1845,-2.8663 2.6445,-2.9726 l 0.7227,-0.0508 0.3105,-0.66211 v -0.004 c 0.7282,-1.5804 2.2126,-2.6488 3.961,-2.6504 z"
       style="fill:currentColor" class="ColorScheme-Text"/>
  </g>
</svg>
