<?xml version="1.0" encoding="UTF-8" standalone="no"?>
<svg
   height="16"
   width="16"
   version="1.1"
   id="svg15"
   sodipodi:docname="visualizzatore-di-documenti.svg"
   inkscape:version="1.2 (dc2aedaf03, 2022-05-15)"
   xmlns:inkscape="http://www.inkscape.org/namespaces/inkscape"
   xmlns:sodipodi="http://sodipodi.sourceforge.net/DTD/sodipodi-0.dtd"
   xmlns="http://www.w3.org/2000/svg"
   xmlns:svg="http://www.w3.org/2000/svg">
  <sodipodi:namedview
     id="namedview17"
     pagecolor="#505050"
     bordercolor="#eeeeee"
     borderopacity="1"
     inkscape:showpageshadow="0"
     inkscape:pageopacity="0"
     inkscape:pagecheckerboard="0"
     inkscape:deskcolor="#505050"
     showgrid="false"
     inkscape:zoom="11.313709"
     inkscape:cx="4.1100582"
     inkscape:cy="18.473165"
     inkscape:window-width="1308"
     inkscape:window-height="742"
     inkscape:window-x="58"
     inkscape:window-y="26"
     inkscape:window-maximized="1"
     inkscape:current-layer="svg15" />
  <defs
     id="defs3">
    <style
       id="current-color-scheme"
       type="text/css">.ColorScheme-Text { color:#727272; } .ColorScheme-Highlight { color:#5294e2; }</style>
  </defs>
  <g
     id="g755"
     transform="matrix(0.75,0,0,0.75,2.0372741,1.9995884)">
    <g
       fill="#f2f2f7"
       transform="translate(-532.00004,-240)"
       id="g13">
      <path
         d="m 536.99418,240 c -1.2582,0.0145 -2.17889,-0.0306 -2.93164,0.38477 -0.37637,0.20766 -0.67323,0.55938 -0.83789,0.99804 -0.16467,0.43867 -0.22461,0.95958 -0.22461,1.61719 v 9.9999 c 0,0.65761 0.0599,1.17859 0.22461,1.61719 0.16468,0.43861 0.46153,0.78852 0.83789,0.9961 0.68082,0.37549 1.53445,0.37113 2.6155,0.3789 l -0.24497,-1.05077 c 0,0 -1.6994,-0.0991 -1.88811,-0.20313 -0.18342,-0.10117 -0.28722,-0.21285 -0.38476,-0.47266 -0.0976,-0.25981 -0.16016,-0.67323 -0.16016,-1.26563 v -2 V 243 c 0,-0.59239 0.0626,-1.00573 0.16016,-1.26562 0.0976,-0.25991 0.20135,-0.37147 0.38476,-0.47266 0.36596,-0.20192 1.19655,-0.24702 2.45508,-0.26172 h 5 c 1.25862,0.0152 2.0891,0.0599 2.45508,0.26172 0.18342,0.10116 0.28722,0.21286 0.38476,0.47266 0.0974,0.25979 0.16016,0.67323 0.16016,1.26562 v 2.689 l 1,1.4e-4 V 243 c 0,-0.65761 -0.0599,-1.17858 -0.22461,-1.61719 -0.16468,-0.43861 -0.46153,-0.78852 -0.83789,-0.99609 -0.75272,-0.41513 -1.67355,-0.37165 -2.93164,-0.38672 h -0.002 -5.00586 z"
         style="fill:currentColor"
         class="ColorScheme-Text"
         id="path5"
         sodipodi:nodetypes="cccssccccccscsccccccsccscccccc" />
    </g>
    <g
       fill="#f2f2f7"
       transform="matrix(0.625,0,0,0.625,-352.59931,-118.99894)"
       id="g565">
      <path
         d="m 575.994,200 c -1.2582,0.0145 -2.17889,-0.0306 -2.93164,0.38477 -0.37637,0.20766 -0.67323,0.55938 -0.83789,0.99804 -0.16467,0.43867 -0.22461,0.95958 -0.22461,1.61719 v 10.00006 c 0,0.65761 0.0599,1.17858 0.22461,1.61719 0.16468,0.43861 0.46153,0.78852 0.83789,0.99609 0.75272,0.41514 1.67354,0.37165 2.93164,0.38672 h 0.002 8.00586 0.004 c 1.25819,-0.0145 2.17889,0.0306 2.93164,-0.38477 0.37637,-0.20766 0.67323,-0.55938 0.83789,-0.99804 0.16453,-0.43867 0.22447,-0.95958 0.22447,-1.61719 V 203 c 0,-0.65761 -0.0599,-1.17858 -0.22461,-1.61719 -0.16468,-0.43861 -0.46153,-0.78852 -0.83789,-0.99609 -0.75272,-0.41513 -1.67355,-0.37165 -2.93164,-0.38672 h -0.002 -8.00586 z m 0.006,1 h 8 c 1.25862,0.0152 2.0891,0.0599 2.45508,0.26172 0.18342,0.10116 0.28722,0.21286 0.38476,0.47266 0.0974,0.25979 0.16002,0.67323 0.16002,1.26562 v 10.00006 c 0,0.59239 -0.0626,1.00572 -0.16016,1.26562 -0.0976,0.25991 -0.20135,0.37147 -0.38476,0.47266 -0.36596,0.20192 -1.19656,0.24701 -2.45508,0.26172 h -7.99414 -0.006 c -1.25863,-0.0152 -2.0891,-0.0599 -2.45508,-0.26172 -0.18342,-0.10116 -0.28722,-0.21286 -0.38476,-0.47266 -0.0975,-0.25979 -0.16016,-0.67323 -0.16016,-1.26562 V 203 c 0,-0.59239 0.0626,-1.00572 0.16016,-1.26562 0.0976,-0.25991 0.20135,-0.37147 0.38476,-0.47266 0.36596,-0.20192 1.19655,-0.24702 2.45508,-0.26172 z"
         style="fill:currentColor;stroke:currentColor;stroke-opacity:1;stroke-width:0.59733333;stroke-dasharray:none"
         class="ColorScheme-Text"
         id="path557" />
      <path
         d="m 580,203 a 5,5 0 0 0 -5,5 5,5 0 0 0 5,5 5,5 0 0 0 5,-5 5,5 0 0 0 -5,-5 z m 0,1 a 4,4 0 0 1 4,4 4,4 0 0 1 -4,4 4,4 0 0 1 -4,-4 4,4 0 0 1 4,-4 z"
         style="fill:currentColor"
         class="ColorScheme-Text"
         id="path559" />
      <path
         d="m 580.98085,202.02868 -1.97416,0.29495 v 1.01501 a 4.8670025,4.858121 43.145679 0 1 1.97416,0.004 v -1.3136 z m -4.03938,0.89296 -1.50408,1.27868 0.74101,0.88318 a 4.8670025,4.858121 43.145679 0 1 1.51302,-1.26807 z m 6.0965,0.01 -0.74464,0.88765 a 4.8670025,4.858121 43.145679 0 1 0.12792,0.0679 4.8670025,4.858121 43.145679 0 1 1.38343,1.20216 l 0.75385,-0.89827 z m -8.70749,3.16263 -0.33042,1.94651 1.13651,0.20055 a 4.8670025,4.858121 43.145679 0 1 0.34132,-1.94456 z m 11.31429,0.002 -1.1421,0.20138 a 4.8670025,4.858121 43.145679 0 1 0.34774,1.94316 l 1.14965,-0.2025 z m -10.26185,3.52098 -1.01362,0.58544 h -2.5e-4 l 0.99826,1.70323 1.00356,-0.57928 a 4.8670025,4.858121 43.145679 0 1 -0.98793,-1.70939 z m 9.22561,0.002 a 4.8670025,4.858121 43.145679 0 1 -0.40109,0.91111 4.8670025,4.858121 43.145679 0 1 -0.58041,0.8019 l 1.00413,0.57985 0.97618,-1.71609 z m -7.16765,2.60373 -0.4011,1.1016 1.85965,0.66336 0.39439,-1.084 a 4.8670025,4.858121 43.145679 0 1 -1.72754,-0.59997 4.8670025,4.858121 43.145679 0 1 -0.1254,-0.081 z m 5.10997,0.0115 a 4.8670025,4.858121 43.145679 0 1 -1.85601,0.67314 l 0.39773,1.09238 1.85071,-0.68738 z"
         style="fill:currentColor"
         class="ColorScheme-Text"
         id="path561" />
      <path
         d="m 580,205 a 3,3 0 0 0 -3,3 3,3 0 0 0 3,3 3,3 0 0 0 3,-3 3,3 0 0 0 -3,-3 z m 0,1 a 2,2 0 0 1 2,2 2,2 0 0 1 -2,2 2,2 0 0 1 -2,-2 2,2 0 0 1 2,-2 z"
         style="fill:currentColor"
         class="ColorScheme-Text"
         id="path563" />
    </g>
  </g>
</svg>
