<?xml version="1.0" encoding="UTF-8" standalone="no"?>
<svg
   version="1.1"
   viewBox="0 0 16 16"
   id="svg4"
   sodipodi:docname="preferences-web-browser-ssl.svg"
   inkscape:version="1.2 (1:1.2+202206011326+fc4e4096c5)"
   xmlns:inkscape="http://www.inkscape.org/namespaces/inkscape"
   xmlns:sodipodi="http://sodipodi.sourceforge.net/DTD/sodipodi-0.dtd"
   xmlns="http://www.w3.org/2000/svg"
   xmlns:svg="http://www.w3.org/2000/svg">
  <sodipodi:namedview
     id="namedview8"
     pagecolor="#ffffff"
     bordercolor="#000000"
     borderopacity="0.25"
     inkscape:showpageshadow="2"
     inkscape:pageopacity="0.0"
     inkscape:pagecheckerboard="0"
     inkscape:deskcolor="#d1d1d1"
     showgrid="false"
     inkscape:zoom="12.506951"
     inkscape:cx="15.95113"
     inkscape:cy="14.791774"
     inkscape:window-width="1308"
     inkscape:window-height="742"
     inkscape:window-x="0"
     inkscape:window-y="0"
     inkscape:window-maximized="1"
     inkscape:current-layer="svg4" />
<defs>
  <style id="current-color-scheme" type="text/css">.ColorScheme-Text { color:#727272; } .ColorScheme-Highlight { color:#5294e2; }</style>
 </defs>
  <path
     id="path5"
     style="fill:currentColor" class="ColorScheme-Text"
     d="M 8 2 C 4.6895033 2 2 4.6895033 2 8 C 2 11.310497 4.6895033 14 8 14 C 11.310497 14 14 11.310497 14 8 C 14 4.6895033 11.310497 2 8 2 z M 7.9707031 2.7519531 L 7.9550781 3.2148438 L 8.640625 3.3164062 L 9.1054688 2.8691406 A 5.199 5.199 0 0 1 10.404297 3.3378906 L 10.242188 3.5976562 L 10.699219 4.0019531 L 10.242188 4.3847656 L 10.421875 4.8417969 L 11.4375 4.359375 L 12.074219 4.8417969 L 12.107422 4.7382812 C 12.245422 4.9122811 12.368875 5.0954064 12.484375 5.2851562 L 11.84375 5.4003906 L 11.462891 4.9941406 L 10.294922 5.0703125 L 9.78125 5.8769531 L 9.78125 6.6796875 L 10.066406 7.3828125 L 10.458984 7.5039062 C 10.490171 7.5066068 10.519189 7.5145355 10.544922 7.5292969 L 11.640625 7.8671875 L 11.947266 9.7226562 L 12.326172 10.6875 L 12.595703 10.535156 A 5.2515 5.2515 0 0 1 8 13.25 C 5.1035029 13.25 2.75 10.896497 2.75 8 C 2.75 7.3910006 2.8595314 6.8074213 3.0507812 6.2636719 L 3.0761719 6.3671875 L 3.8886719 6.5957031 L 4.9550781 7.3828125 L 4.9804688 8.5273438 L 5.3496094 9.03125 L 5.3496094 7.7109375 C 5.3496094 7.5946622 5.4423209 7.5019531 5.5585938 7.5019531 L 6.21875 7.5019531 L 6.21875 7.0253906 L 5.7949219 6.8261719 L 5.2363281 7.1542969 L 4.5742188 6.1640625 L 4.1933594 6.3417969 L 3.8632812 5.7832031 L 4.4472656 5.4785156 L 5.0058594 5.8085938 L 5.9726562 4.6132812 L 7.3691406 3.7480469 L 6.9882812 3.0371094 L 5.8457031 3.4453125 L 5.703125 3.2871094 A 5.21025 5.21025 0 0 1 7.9707031 2.7519531 z M 5.9394531 11.171875 L 6.0742188 12.009766 L 6.8105469 12.466797 L 6.6074219 11.527344 L 6.8632812 11.171875 L 5.9394531 11.171875 z " />
  <path
     style="fill:currentColor" class="ColorScheme-Text"
     d="m 7.9999875,5.4999997 c -0.69035,0 -1.25,0.5596411 -1.25,1.25 v 1.25 H 5.9166625 V 10.5 H 10.083337 V 7.9999997 H 9.2499875 v -1.25 c 0,-0.6903589 -0.559642,-1.25 -1.25,-1.25 z m 0,0.4166675 c 0.46025,0 0.83335,0.373095 0.83335,0.8333325 v 1.25 h -1.666675 v -1.25 c 0,-0.4602375 0.37309,-0.8333325 0.833325,-0.8333325 z"
     id="path117" />
</svg>
