<?xml version="1.0" encoding="UTF-8" standalone="no"?>
<svg
   version="1.1"
   viewBox="0 0 16 16"
   id="svg12"
   sodipodi:docname="preferences-desktop-display.svg"
   inkscape:version="1.1.1 (3bf5ae0d25, 2021-09-20, custom)"
   xmlns:inkscape="http://www.inkscape.org/namespaces/inkscape"
   xmlns:sodipodi="http://sodipodi.sourceforge.net/DTD/sodipodi-0.dtd"
   xmlns="http://www.w3.org/2000/svg"
   xmlns:svg="http://www.w3.org/2000/svg">
 <defs>
  <style id="current-color-scheme" type="text/css">.ColorScheme-Text { color:#727272; } .ColorScheme-Highlight { color:#5294e2; }</style>
 </defs>
  <g
     transform="matrix(0.75,0,0,0.75,-412.00103,-117.875)"
     fill="#dfdfdf"
     id="g10">
    <path
       d="m 555.99,161 c -1.2582,0.0145 -2.1789,-0.0306 -2.9316,0.38477 -0.37637,0.20766 -0.67323,0.55938 -0.83789,0.99804 -0.16467,0.43867 -0.22461,0.95958 -0.22461,1.6172 v 6 c 0,0.65761 0.0599,1.1785 0.22461,1.6172 0.16467,0.43866 0.46152,0.79039 0.83789,0.99804 0.75275,0.41532 1.6734,0.3702 2.9316,0.38477 h 0.004 8.0039 0.004 c 1.2582,-0.0145 2.1789,0.0306 2.9316,-0.38477 0.37637,-0.20766 0.67322,-0.55938 0.83789,-0.99804 0.16449,-0.43867 0.22443,-0.95958 0.22443,-1.6172 v -6 c 0,-0.65761 -0.0599,-1.1785 -0.22461,-1.6172 -0.16466,-0.43866 -0.46152,-0.79038 -0.83789,-0.99804 -0.75275,-0.41534 -1.6734,-0.37025 -2.9316,-0.38477 h -0.004 -8.0039 z m 0.006,1 h 8 c 1.2585,0.0147 2.0872,0.0598 2.4531,0.26172 0.18341,0.1012 0.28916,0.21274 0.38672,0.47266 0.0974,0.25991 0.16002,0.67323 0.16002,1.2656 v 6 c 0,0.59239 -0.0626,1.0057 -0.16016,1.2656 -0.0976,0.25991 -0.20331,0.37147 -0.38672,0.47266 -0.36595,0.20191 -1.1946,0.24701 -2.4531,0.26172 h -7.9941 -0.006 c -1.2585,-0.0147 -2.0872,-0.0598 -2.4531,-0.26172 -0.18341,-0.10119 -0.28916,-0.21275 -0.38672,-0.47266 -0.0976,-0.2599 -0.16016,-0.67323 -0.16016,-1.2656 v -6 c 0,-0.59239 0.0626,-1.0057 0.16016,-1.2656 0.0976,-0.25991 0.20331,-0.37147 0.38672,-0.47266 0.36595,-0.20191 1.1946,-0.24701 2.4531,-0.26172 z"
       style="fill:currentColor" class="ColorScheme-Text"/>
    <path
       d="m 558,172 h 4 v 1.5 c 0,1.5 0.5,1.5 1.5,1.5 h 0.5 v 1 h -8 v -1 h 0.5 c 1,0 1.5,0 1.5,-1.5 z"
       style="fill:currentColor" class="ColorScheme-Text"/>
    <path
       d="m 552.5,163 a 0.50005,0.50005 0 0 0 -0.50195,0.5 v 5.5 h 1 v -4.5469 l 10.9,7.5469 h -7.3184 v 1 h 8.918 a 0.50005,0.50005 0 0 0 0.28516,-0.91016 l -13,-9 A 0.50005,0.50005 0 0 0 552.4996,163 Z"
       style="fill:currentColor" class="ColorScheme-Text"/>
    <path
       d="m 554.47,167 a 0.50005,0.50005 0 0 0 -0.47266,0.5 v 2.5 c 0,0.41667 0.28309,0.76264 0.52734,0.88477 0.24426,0.12212 0.47266,0.11523 0.47266,0.11523 h 3.5 a 0.50005,0.50005 0 0 0 0.30078,-0.90039 l -4,-3 A 0.50005,0.50005 0 0 0 554.47,167 Z m 0.52734,1.5 1.998,1.5 h -1.998 z"
       style="fill:currentColor" class="ColorScheme-Text"/>
  </g>
</svg>
