<?xml version="1.0" encoding="UTF-8" standalone="no"?>
<svg
   width="16"
   height="16"
   version="1.1"
   id="svg4"
   sodipodi:docname="preferences-system-network-share-windows.svg"
   inkscape:version="1.1.1 (3bf5ae0d25, 2021-09-20, custom)"
   xmlns:inkscape="http://www.inkscape.org/namespaces/inkscape"
   xmlns:sodipodi="http://sodipodi.sourceforge.net/DTD/sodipodi-0.dtd"
   xmlns="http://www.w3.org/2000/svg"
   xmlns:svg="http://www.w3.org/2000/svg">
 <defs>
  <style id="current-color-scheme" type="text/css">.ColorScheme-Text { color:#727272; } .ColorScheme-Highlight { color:#5294e2; }</style>
 </defs>
  <path
     d="m 13.25,3.75 c 0,-1.03125 -0.84375,-1.875 -1.875,-1.875 A 1.881,1.881 0 0 0 9.5,3.75 c 0,1.03125 0.84375,1.875 1.875,1.875 1.03125,0 1.875,-0.84375 1.875,-1.875 z m 0,7.5 c 0,-1.03125 -0.84375,-1.875 -1.875,-1.875 A 1.881,1.881 0 0 0 9.5,11.25 c 0,1.03125 0.84375,1.875 1.875,1.875 1.03125,0 1.875,-0.84375 1.875,-1.875 z M 12.5,3.75 c 0,0.6255 -0.4995,1.125 -1.125,1.125 -0.6255,0 -1.125,-0.4995 -1.125,-1.125 0,-0.6255 0.4995,-1.125 1.125,-1.125 0.6255,0 1.125,0.4995 1.125,1.125 z m 0,7.5 c 0,0.6255 -0.4995,1.125 -1.125,1.125 -0.6255,0 -1.125,-0.4995 -1.125,-1.125 0,-0.6255 0.4995,-1.125 1.125,-1.125 0.6255,0 1.125,0.4995 1.125,1.125 z M 9.3005,5.3325 A 2.62125,2.62125 0 0 1 8.93,4.6785 L 6.04025,6.28575 A 1.86525,1.86525 0 0 0 4.625,5.625 1.881,1.881 0 0 0 2.75,7.5 c 0,1.03125 0.84375,1.875 1.875,1.875 0.56625,0 1.07025,-0.26025 1.41525,-0.66 L 8.93,10.3215 C 9.0215,10.0845 9.1475,9.867 9.3005,9.66825 L 6.4055,8.0595 C 6.46025,7.8825 6.5,7.69575 6.5,7.5 6.5,7.30425 6.461,7.11825 6.40475,6.9405 Z M 5.75,7.5 C 5.75,8.1255 5.2505,8.625 4.625,8.625 3.9995,8.625 3.5,8.1255 3.5,7.5 3.5,6.8745 3.9995,6.375 4.625,6.375 5.2505,6.375 5.75,6.8745 5.75,7.5 Z"
     style="fill:currentColor" class="ColorScheme-Text"/>
</svg>
