<?xml version="1.0" encoding="UTF-8" standalone="no"?>
<svg
   version="1.1"
   viewBox="0 0 16 16"
   id="svg8"
   sodipodi:docname="preferences-system-devices.svg"
   inkscape:version="1.1.1 (3bf5ae0d25, 2021-09-20, custom)"
   xmlns:inkscape="http://www.inkscape.org/namespaces/inkscape"
   xmlns:sodipodi="http://sodipodi.sourceforge.net/DTD/sodipodi-0.dtd"
   xmlns="http://www.w3.org/2000/svg"
   xmlns:svg="http://www.w3.org/2000/svg">
  <defs
     id="defs12" />
  <sodipodi:namedview
     id="namedview10"
     pagecolor="#505050"
     bordercolor="#ffffff"
     borderopacity="1"
     inkscape:pageshadow="0"
     inkscape:pageopacity="0"
     inkscape:pagecheckerboard="1"
     showgrid="false"
     inkscape:zoom="34.75"
     inkscape:cx="7.9856115"
     inkscape:cy="7.9856115"
     inkscape:window-width="1306"
     inkscape:window-height="709"
     inkscape:window-x="60"
     inkscape:window-y="28"
     inkscape:window-maximized="1"
     inkscape:current-layer="svg8" />
  <g
     transform="matrix(0.75,0,0,0.75,-427.00053,-133)"
     fill="#dfdfdf"
     shape-rendering="auto"
     id="g6">
    <path
       d="m 575.99,181 c -1.2582,0.0145 -2.1789,-0.0306 -2.9316,0.38477 -0.37637,0.20766 -0.67323,0.55938 -0.83789,0.99804 -0.16467,0.43867 -0.22461,0.95958 -0.22461,1.6172 v 3 c 0,0.65761 0.0599,1.1785 0.22461,1.6172 0.16467,0.43866 0.46152,0.79039 0.83789,0.99804 0.75275,0.41532 1.6734,0.3702 2.9316,0.38477 h 0.004 0.95898 c -0.0961,0.7495 -0.41264,0.94583 -0.95703,0.98242 v 1.0176 h 1 v -3 h -0.99423 -0.006 c -1.2585,-0.0147 -2.0891,-0.0598 -2.4551,-0.26172 -0.18341,-0.10119 -0.2872,-0.21274 -0.38476,-0.47266 -0.0976,-0.2599 -0.16016,-0.67323 -0.16016,-1.2656 v -3 c 0,-0.59239 0.0626,-1.0057 0.16016,-1.2656 0.0976,-0.25991 0.20135,-0.37147 0.38476,-0.47266 0.36596,-0.20191 1.1966,-0.24701 2.4551,-0.26172 h 4 c 1.2585,0.0147 2.0872,0.0598 2.4531,0.26172 0.18341,0.1012 0.28916,0.21274 0.38672,0.47266 0.0974,0.25991 0.16016,0.67323 0.16016,1.2656 h 1 c 0,-0.65761 -0.0599,-1.1785 -0.22461,-1.6172 -0.16466,-0.43866 -0.46152,-0.79038 -0.83789,-0.99804 -0.75275,-0.41534 -1.6734,-0.37025 -2.9316,-0.38477 h -0.004 -4.0039 z"
       color="#000000"
       color-rendering="auto"
       dominant-baseline="auto"
       image-rendering="auto"
       solid-color="#000000"
       style="font-variant-ligatures:normal;font-variant-position:normal;font-variant-caps:normal;font-variant-numeric:normal;font-variant-alternates:normal;font-feature-settings:normal;text-indent:0;text-decoration-line:none;text-decoration-style:solid;text-decoration-color:#000000;text-transform:none;text-orientation:mixed;white-space:normal;shape-padding:0;isolation:auto;mix-blend-mode:normal"
       id="path2" />
    <path
       d="m 580,185 v 2.0273 c -0.38599,0.0266 -0.72359,0.0835 -1.0352,0.21485 -0.31492,0.13272 -0.59792,0.37784 -0.75586,0.69922 -0.15793,0.32138 -0.20898,0.68778 -0.20898,1.1211 v 1.875 c 0,0.43331 0.0511,0.79971 0.20898,1.1211 0.15793,0.32139 0.44094,0.56649 0.75586,0.69922 0.0111,0.005 0.024,0.005 0.0352,0.01 v -1.8303 -0.9375 -0.9375 c 0,-0.34793 0.0489,-0.56447 0.10547,-0.67969 0.0566,-0.11522 0.10301,-0.1604 0.24609,-0.2207 0.28562,-0.12038 0.98134,-0.15291 2.0117,-0.16211 h 3.2734 c 1.0304,0.009 1.7261,0.0417 2.0117,0.16211 0.14308,0.0603 0.18947,0.10548 0.24609,0.2207 0.0566,0.11522 0.10547,0.33176 0.10547,0.67969 v 0.9375 0.9375 1.8301 c 0.0112,-0.005 0.024,-0.005 0.0352,-0.01 0.31492,-0.13272 0.59792,-0.37784 0.75586,-0.69922 0.15767,-0.32092 0.2089,-0.68755 0.2089,-1.1209 v -1.875 c 0,-0.43331 -0.0511,-0.79971 -0.20898,-1.1211 -0.15794,-0.32139 -0.44094,-0.56649 -0.75586,-0.69922 -0.31157,-0.13132 -0.64918,-0.18822 -1.0352,-0.21485 V 185 Z m 1,1 h 4 v 1.0059 c -0.12725,-5.4e-4 -0.2221,-0.005 -0.35938,-0.006 h -0.002 -3.2773 -0.002 c -0.13728,0.001 -0.23213,0.005 -0.35938,0.006 z m 4.5,3 a 0.5,0.5 0 0 0 -0.5,0.5 0.5,0.5 0 0 0 0.5,0.5 0.5,0.5 0 0 0 0.5,-0.5 0.5,0.5 0 0 0 -0.5,-0.5 z m -5.5,2 v 4 h 6 v -4 h -1 v 3 h -4 v -3 z"
       color="#000000"
       color-rendering="auto"
       dominant-baseline="auto"
       image-rendering="auto"
       solid-color="#000000"
       style="font-variant-ligatures:normal;font-variant-position:normal;font-variant-caps:normal;font-variant-numeric:normal;font-variant-alternates:normal;font-feature-settings:normal;text-indent:0;text-decoration-line:none;text-decoration-style:solid;text-decoration-color:#000000;text-transform:none;text-orientation:mixed;white-space:normal;shape-padding:0;isolation:auto;mix-blend-mode:normal"
       id="path4" />
  </g>
</svg>
