<?xml version="1.0" encoding="UTF-8" standalone="no"?>
<svg
   width="16"
   height="16"
   version="1.1"
   id="svg12"
   sodipodi:docname="preferences-desktop-effects.svg"
   inkscape:version="1.1.1 (3bf5ae0d25, 2021-09-20, custom)"
   xmlns:inkscape="http://www.inkscape.org/namespaces/inkscape"
   xmlns:sodipodi="http://sodipodi.sourceforge.net/DTD/sodipodi-0.dtd"
   xmlns="http://www.w3.org/2000/svg"
   xmlns:svg="http://www.w3.org/2000/svg">
 <defs>
  <style id="current-color-scheme" type="text/css">.ColorScheme-Text { color:#727272; } .ColorScheme-Highlight { color:#5294e2; }</style>
 </defs>
  <g
     transform="matrix(0.75,0,0,0.75,-21.987218,-163.32315)"
     id="g10">
    <path
       style="fill:currentColor" class="ColorScheme-Text"
       d="m 37.988739,228.53897 -2.297797,-2.35131 -2.888395,1.48949 1.526172,-2.91193 -2.309155,-2.28675 3.241023,0.55164 1.461259,-2.90278 0.476891,3.25286 3.212262,0.49274 -2.946288,1.45874 z"
       transform="matrix(0.64913853,-0.86150281,0.86150281,0.64913853,-179.99636,110.92512)"
       id="path2" />
    <path
       d="m 37.988739,228.53897 -2.297797,-2.35131 -2.888395,1.48949 1.526172,-2.91193 -2.309155,-2.28675 3.241023,0.55164 1.461259,-2.90278 0.476891,3.25286 3.212262,0.49274 -2.946288,1.45874 z"
       transform="matrix(0.17246664,-0.59507374,0.59507374,0.17246664,-97.308777,206.28836)"
       style="fill:currentColor" class="ColorScheme-Text"
       id="path4" />
    <path
       style="fill:currentColor" class="ColorScheme-Text"
       d="m 37.988739,228.53897 -2.297797,-2.35131 -2.888395,1.48949 1.526172,-2.91193 -2.309155,-2.28675 3.241023,0.55164 1.461259,-2.90278 0.476891,3.25286 3.212262,0.49274 -2.946288,1.45874 z"
       transform="matrix(0.31512729,-0.24426588,0.24426588,0.31512729,-20.343182,164.16536)"
       id="path6" />
    <path
       style="fill:currentColor" class="ColorScheme-Text"
       d="m 39.751212,228.25156 c -0.449408,9e-5 -0.670595,0.54685 -0.347656,0.85938 l 6.011567,6.18638 c 0.471254,0.49084 1.197872,-0.23577 0.707032,-0.70703 l -6.011568,-6.18639 c -0.09421,-0.0974 -0.223892,-0.15234 -0.359375,-0.15234 z"/>
  </g>
</svg>
