<?xml version="1.0" encoding="UTF-8" standalone="no"?>
<svg
   version="1.1"
   viewBox="0 0 16 16"
   id="svg6"
   sodipodi:docname="preferences-desktop-font.svg"
   inkscape:version="1.1.1 (3bf5ae0d25, 2021-09-20, custom)"
   xmlns:inkscape="http://www.inkscape.org/namespaces/inkscape"
   xmlns:sodipodi="http://sodipodi.sourceforge.net/DTD/sodipodi-0.dtd"
   xmlns="http://www.w3.org/2000/svg"
   xmlns:svg="http://www.w3.org/2000/svg">
 <defs>
  <style id="current-color-scheme" type="text/css">.ColorScheme-Text { color:#727272; } .ColorScheme-Highlight { color:#5294e2; }</style>
 </defs>
  <path
     d="M 8.7008825,2 C 8.397545,2.640695 8.1021125,3.290225 7.8161075,3.948275 7.7425018,4.117625 7.6662275,4.309085 7.591985,4.4829425 L 8.37566,6.5366675 C 8.51591,6.155645 8.660225,5.7601925 8.7916775,5.4160925 9.05168,4.7580725 9.28082,4.1992175 9.480155,3.7402925 c 0.190665,0.441555 0.41529,0.995925 0.675293,1.6626 0.222735,0.571095 0.455715,1.1997 0.69141,1.847175 H 8.6495825 l 0.5727525,1.5 h 2.058075 c 0.121335,0.3636375 0.305063,0.851925 0.43506,1.198275 0.129998,0.3463505 0.256598,0.6967795 0.377933,1.0517255 h 1.76805 c -0.338003,-0.96105 -0.663585,-1.8477755 -0.9756,-2.6616005 -0.303338,-0.813825 -0.601815,-1.585725 -0.896475,-2.313 -0.285998,-0.727275 -0.5724,-1.41915 -0.858376,-2.077125 -0.285997,-0.6580125 -0.57996,-1.30755 -0.883274,-1.948275 H 8.7008525 Z"
     style="fill:currentColor" class="ColorScheme-Text"/>
  <path
     d="m 6.9864575,5 h -1.0125 l -3.1266,8.25 h -0.86715 V 14 h 2.25 V 13.25 H 3.648665 L 4.505615,11 H 7.67849 l 0.85695,2.25 H 7.9802675 V 14 h 3.0000005 v -0.75 h -0.840826 z m -0.89445,1.8369 1.3008,3.4131 h -2.6016 z"
     style="fill:currentColor" class="ColorScheme-Text" />
</svg>
