<?xml version="1.0" encoding="UTF-8" standalone="no"?>
<svg
   width="16"
   height="16"
   version="1.1"
   id="svg17"
   sodipodi:docname="preferences-devices-printer.svg"
   inkscape:version="1.2 (1:1.2+202206011326+fc4e4096c5)"
   xmlns:inkscape="http://www.inkscape.org/namespaces/inkscape"
   xmlns:sodipodi="http://sodipodi.sourceforge.net/DTD/sodipodi-0.dtd"
   xmlns="http://www.w3.org/2000/svg"
   xmlns:svg="http://www.w3.org/2000/svg">
  <sodipodi:namedview
     id="namedview19"
     pagecolor="#ffffff"
     bordercolor="#000000"
     borderopacity="0.25"
     inkscape:showpageshadow="2"
     inkscape:pageopacity="0.0"
     inkscape:pagecheckerboard="0"
     inkscape:deskcolor="#d1d1d1"
     showgrid="false"
     inkscape:zoom="12.506951"
     inkscape:cx="8.9150424"
     inkscape:cy="7.1160428"
     inkscape:window-width="1308"
     inkscape:window-height="742"
     inkscape:window-x="0"
     inkscape:window-y="0"
     inkscape:window-maximized="1"
     inkscape:current-layer="svg17" />
  <defs
     id="defs3">
    <style
       id="current-color-scheme"
       type="text/css">.ColorScheme-Text { color:#727272; } .ColorScheme-Highlight { color:#5294e2; }</style>
  </defs>
  <g
     fill="#dfdfdf"
     id="g15"
     transform="matrix(0.75,0,0,0.75,2,2)">
    <path
       d="M 3,0 V 4.0254 C 2.25,4.0434 1.5895,4.094775 1.0625,4.38478 A 1.88,1.88 0 0 0 0.22461,5.38283 C 0.05961,5.82183 0,6.34302 0,7.00003 v 3 c 0,0.658 0.059609,1.1792 0.22461,1.6172 0.164,0.439 0.46089,0.79005 0.83789,0.99805 0.282,0.156 0.5995,0.23411 0.9375,0.28711 v -1.0254 A 1.627,1.627 0 0 1 1.54492,11.73832 c -0.183,-0.1 -0.28677,-0.21266 -0.38477,-0.47266 -0.097,-0.26 -0.16016,-0.67362 -0.16016,-1.2656 v -3 c 0,-0.592 0.063156,-1.0056 0.16016,-1.2656 0.098,-0.26 0.20177,-0.37166 0.38477,-0.47266 0.365,-0.202 1.1951,-0.24672 2.4551,-0.26172 h 8 c 1.259,0.015 2.0871,0.059719 2.4531,0.26172 0.184,0.101 0.28972,0.21366 0.38672,0.47266 C 14.93684,5.99446 15,6.40808 15,7.00006 v 3 c 0,0.592 -0.06316,1.0056 -0.16016,1.2656 -0.098,0.26 -0.20272,0.37166 -0.38672,0.47266 -0.107,0.06 -0.26712,0.10367 -0.45312,0.13867 v 1.0254 c 0.338,-0.053 0.6545,-0.13011 0.9375,-0.28711 a 1.88,1.88 0 0 0 0.83789,-0.99805 C 15.94039,11.17923 16,10.65704 16,10.00003 v -3 c 0,-0.658 -0.05961,-1.1782 -0.22461,-1.6172 A 1.88,1.88 0 0 0 14.9375,4.38478 C 14.4105,4.09478 13.75,4.0434 13,4.0254 V 0 Z m 1,1 h 8 V 4 H 4 Z"
       style="fill:currentColor"
       class="ColorScheme-Text"
       id="path5" />
    <path
       d="M 13.5,6 A 0.5,0.5 0 0 0 13,6.5 0.5,0.5 0 0 0 13.5,7 0.5,0.5 0 0 0 14,6.5 0.5,0.5 0 0 0 13.5,6 Z"
       style="fill:currentColor"
       class="ColorScheme-Text"
       id="path7" />
    <path
       d="m 3,10 v 6 h 10 v -6 h -1 v 5 H 4 v -5 z"
       style="fill:currentColor"
       class="ColorScheme-Text"
       id="path9" />
    <path
       d="m 5,11 v 1 h 6 v -1 z"
       style="fill:currentColor"
       class="ColorScheme-Text"
       id="path11" />
    <path
       d="m 5,13 v 1 h 6 v -1 z"
       style="fill:currentColor"
       class="ColorScheme-Text"
       id="path13" />
  </g>
</svg>
