<?xml version="1.0" encoding="UTF-8" standalone="no"?>
<svg
   height="16"
   id="svg7384"
   version="1.1"
   width="16"
   sodipodi:docname="preferences-desktop-notification-bell.svg"
   inkscape:version="1.1.1 (3bf5ae0d25, 2021-09-20, custom)"
   xmlns:inkscape="http://www.inkscape.org/namespaces/inkscape"
   xmlns:sodipodi="http://sodipodi.sourceforge.net/DTD/sodipodi-0.dtd"
   xmlns="http://www.w3.org/2000/svg"
   xmlns:svg="http://www.w3.org/2000/svg"
   xmlns:rdf="http://www.w3.org/1999/02/22-rdf-syntax-ns#"
   xmlns:cc="http://creativecommons.org/ns#"
   xmlns:dc="http://purl.org/dc/elements/1.1/">
  <metadata
     id="metadata20854">
    <rdf:RDF>
      <cc:Work
         rdf:about="">
        <dc:title />
        <dc:format>image/svg+xml</dc:format>
        <dc:type
           rdf:resource="http://purl.org/dc/dcmitype/StillImage" />
      </cc:Work>
    </rdf:RDF>
  </metadata>
 <defs>
  <style id="current-color-scheme" type="text/css">.ColorScheme-Text { color:#727272; } .ColorScheme-Highlight { color:#5294e2; }</style>
 </defs>
  <g
     id="layer9"
     label="status"
     style="display:inline"
     transform="translate(-813.00024,207)" />
  <g
     id="layer2"
     style="display:inline"
     transform="translate(-572.00004,-160)" />
  <g
     id="layer4"
     style="display:inline"
     transform="translate(-572.00004,-160)" />
  <g
     id="g1812"
     style="display:inline"
     transform="translate(-572.00004,-160)" />
  <g
     id="g6217"
     style="display:inline"
     transform="translate(-572.00004,-160)" />
  <g
     id="layer3"
     style="display:inline"
     transform="translate(-572.00004,-160)" />
  <g
     id="g1833"
     style="display:inline"
     transform="translate(-572.00004,-160)">
    <g
       id="g873"
       transform="matrix(0.75,0,0,0.75,144.99977,42)">
      <path
         style="fill:currentColor" class="ColorScheme-Text"
         d="m 8,1 a 1,1 0 0 0 -1,1 1,1 0 0 0 0.00977,0.1386719 C 5.2818356,2.5811819 4,4.13457 4,6 c 6.6e-4,0.11019 0.00603,0.2203181 0.015625,0.3300781 v 3.2363281 c 0,0.3597001 -0.033702,0.6898008 -0.1015625,0.9882818 -0.0679,0.298619 -0.1877419,0.551338 -0.3574219,0.761718 -0.16288,0.21718 -0.3838194,0.38462 -0.6621094,0.5 -0.2712,0.11906 -0.6109981,0.176938 -1.0175781,0.179688 V 12 H 4.015625 8 h 3.984375 2.136719 v -0.0039 c -0.40658,-0.003 -0.746378,-0.06061 -1.017578,-0.179688 -0.27829,-0.11538 -0.49923,-0.28283 -0.66211,-0.5 -0.16968,-0.21039 -0.287609,-0.463099 -0.355468,-0.761718 -0.0679,-0.298481 -0.101613,-0.6285917 -0.101563,-0.9882818 V 6.3183594 6.3164062 C 11.993375,6.2111862 11.999,6.10563 12,6 12,4.13392 10.716671,2.5805419 8.9882812,2.1386719 A 1,1 0 0 0 9,2 1,1 0 0 0 8,1 Z m 0,2 c 1.65685,0 3,1.34315 3,3 v 5 H 5 V 6 C 5,4.34315 6.34315,3 8,3 Z"
         id="path837"
         transform="translate(572.00004,160)" />
      <path
         style="fill:currentColor" class="ColorScheme-Text"
         d="m 576.09184,171.7168 -0.0156,0.0195 c 0.003,-0.003 0.004,-0.008 0.006,-0.0117 0.002,-0.003 0.008,-0.004 0.01,-0.008 z"
         id="path833" />
      <path
         style="fill:currentColor" class="ColorScheme-Text"
         d="m 583.90824,171.7168 c 0.002,0.003 0.008,0.004 0.01,0.008 0.003,0.003 0.004,0.008 0.006,0.0117 z"
         id="path831" />
      <path
         style="fill:currentColor" class="ColorScheme-Text"
         d="m 578.00004,173 c 0.0125,1.10862 0.91475,2 2.02344,2 1.10868,0 2.01094,-0.89138 2.02344,-2 z"
         id="path1381" />
      <path
         style="fill:currentColor" class="ColorScheme-Text"
         d="m 584.06612,172.3138 c 0.003,0.004 0.007,0.006 0.009,0.009 0.003,0.004 0.005,0.01 0.008,0.0137 z"
         id="path1383" />
      <path
         style="fill:currentColor" class="ColorScheme-Text"
         d="m 575.9268,172.31607 -0.0179,0.0231 c 0.003,-0.004 0.005,-0.009 0.008,-0.0137 0.003,-0.004 0.007,-0.006 0.009,-0.009 z"/>
    </g>
  </g>
  <g
     id="layer1"
     style="display:inline"
     transform="translate(-572.00004,-160)" />
</svg>
