<?xml version="1.0" encoding="UTF-8" standalone="no"?>
<svg
   version="1.1"
   viewBox="0 0 16 16"
   id="svg4"
   sodipodi:docname="preferences-desktop-accessibility.svg"
   inkscape:version="1.1.1 (3bf5ae0d25, 2021-09-20, custom)"
   xmlns:inkscape="http://www.inkscape.org/namespaces/inkscape"
   xmlns:sodipodi="http://sodipodi.sourceforge.net/DTD/sodipodi-0.dtd"
   xmlns="http://www.w3.org/2000/svg"
   xmlns:svg="http://www.w3.org/2000/svg">
 <defs>
  <style id="current-color-scheme" type="text/css">.ColorScheme-Text { color:#727272; } .ColorScheme-Highlight { color:#5294e2; }</style>
 </defs>
  <path
     d="m 8,2.75 a 1.5,1.5 0 1 1 0,3 1.5,1.5 0 0 1 0,-3 z M 3.5,6.5 h 9 v 0.7515 h -0.90525 c -0.33525,0 -0.723,0.05625 -0.996,0.1755 A 1.53525,1.53525 0 0 0 9.9485,7.91825 1.80525,1.80525 0 0 0 9.60275,8.65925 4.191,4.191 0 0 0 9.5075,9.578 l -0.018,3.672 h -0.75 L 8.75,11 A 0.7485,0.7485 0 0 0 8,10.25 C 7.586,10.25 7.253,10.586 7.25,11 L 7.2395,13.25 H 6.5 L 6.518,9.5735 V 9.5675 C 6.49775,9.24725 6.488,8.945 6.42275,8.65925 6.3575,8.37425 6.24275,8.126 6.077,7.919 A 1.5345,1.5345 0 0 0 5.42675,7.427 C 5.153,7.307 4.8215,7.2515 4.43075,7.2515 H 3.5 Z"
     style="fill:currentColor" class="ColorScheme-Text"/>
</svg>
