<?xml version="1.0" encoding="UTF-8" standalone="no"?>
<svg
   height="16"
   width="16"
   version="1.1"
   id="svg4"
   sodipodi:docname="preferences-desktop-default-applications.svg"
   inkscape:version="1.1.1 (3bf5ae0d25, 2021-09-20, custom)"
   xmlns:inkscape="http://www.inkscape.org/namespaces/inkscape"
   xmlns:sodipodi="http://sodipodi.sourceforge.net/DTD/sodipodi-0.dtd"
   xmlns="http://www.w3.org/2000/svg"
   xmlns:svg="http://www.w3.org/2000/svg"
   xmlns:rdf="http://www.w3.org/1999/02/22-rdf-syntax-ns#"
   xmlns:cc="http://creativecommons.org/ns#"
   xmlns:dc="http://purl.org/dc/elements/1.1/">
  <metadata
     id="metadata10">
    <rdf:RDF>
      <cc:Work
         rdf:about="">
        <dc:format>image/svg+xml</dc:format>
        <dc:type
           rdf:resource="http://purl.org/dc/dcmitype/StillImage" />
      </cc:Work>
    </rdf:RDF>
  </metadata>
 <defs>
  <style id="current-color-scheme" type="text/css">.ColorScheme-Text { color:#727272; } .ColorScheme-Highlight { color:#5294e2; }</style>
 </defs>
  <path
     style="fill:currentColor" class="ColorScheme-Text"
     d="m 7.99875,2.666625 -0.0015,7.5e-4 -7.5e-4,0.0015 -0.0015,7.5e-4 -0.0015,0.0015 c -0.63225,1.3575 -1.12125,2.7405 -1.3995,3.588 -0.91425,0 -2.4195,0.03525 -3.855,0.22125 v 0.0015 l 7.5e-4,0.0015 7.5e-4,0.0015 7.5e-4,7.5e-4 c 1.095,1.0215 2.2605,1.91325 2.98125,2.43975 -0.282,0.87 -0.71475,2.313 -0.981,3.735 h 0.006 c 1.3095,-0.72675 2.5185,-1.5585 3.2415,-2.08125 0.74025,0.537 1.97925,1.39425 3.24975,2.08725 v -0.0015 -0.0015 -0.0015 l 7.5e-4,-0.0015 c -0.28575,-1.47 -0.7035,-2.877 -0.97725,-3.726 0.7395,-0.53775 1.93725,-1.45125 2.98875,-2.445 l -0.0023,-7.5e-4 h -0.0015 l -0.0015,-0.0015 -7.5e-4,-0.0015 c -1.48725,-0.1815 -2.9535,-0.219 -3.846,-0.22125 -0.282,-0.87 -0.78075,-2.2905 -1.40175,-3.59775 z"/>
</svg>
