<?xml version="1.0" encoding="UTF-8" standalone="no"?>
<svg
   width="16"
   height="16"
   version="1.1"
   style="enable-background:new"
   id="svg6"
   sodipodi:docname="preferences-system-details.svg"
   inkscape:version="1.1.1 (3bf5ae0d25, 2021-09-20, custom)"
   xmlns:inkscape="http://www.inkscape.org/namespaces/inkscape"
   xmlns:sodipodi="http://sodipodi.sourceforge.net/DTD/sodipodi-0.dtd"
   xmlns="http://www.w3.org/2000/svg"
   xmlns:svg="http://www.w3.org/2000/svg"
   xmlns:rdf="http://www.w3.org/1999/02/22-rdf-syntax-ns#"
   xmlns:cc="http://creativecommons.org/ns#"
   xmlns:dc="http://purl.org/dc/elements/1.1/">
  <metadata
     id="metadata12">
    <rdf:RDF>
      <cc:Work
         rdf:about="">
        <dc:format>image/svg+xml</dc:format>
        <dc:type
           rdf:resource="http://purl.org/dc/dcmitype/StillImage" />
      </cc:Work>
    </rdf:RDF>
  </metadata>
 <defs>
  <style id="current-color-scheme" type="text/css">.ColorScheme-Text { color:#727272; } .ColorScheme-Highlight { color:#5294e2; }</style>
 </defs>
  <g
     id="g827"
     transform="matrix(0.75,0,0,0.75,2,2)">
    <path
       style="fill:currentColor" class="ColorScheme-Text"
       d="M 8,0 C 3.5816801,0 0,3.5818516 0,8 c 0,4.418321 3.5816801,8 8,8 4.41832,0 8,-3.581679 8,-8 C 16,3.5818516 12.41832,0 8,0 Z m 0,1 c 3.866029,0 7,3.13412 7,7 0,3.866031 -3.133971,7 -7,7 C 4.1339699,15 1,11.866031 1,8 1,4.13412 4.1339699,1 8,1 Z"
       id="path827" />
    <path
       style="fill:currentColor" class="ColorScheme-Text"
       d="m 7.9998,3.75336 c 0.69036,0 1.25,0.55964 1.25,1.25 0,0.69036 -0.55964,1.25 -1.25,1.25 -0.69036,0 -1.25,-0.55964 -1.25,-1.25 0,-0.69036 0.55964,-1.25 1.25,-1.25 z"
       id="path825" />
    <path
       style="fill:currentColor" class="ColorScheme-Text"
       d="m 6.9998,7.165728 h 0.9736517 0.9736517 v 6 H 6.9998 Z"
       id="path2"
       inkscape:connector-curvature="0" />
  </g>
</svg>
