<?xml version="1.0" encoding="UTF-8" standalone="no"?>
<svg
   width="16"
   height="16"
   version="1.1"
   id="svg4"
   sodipodi:docname="preferences-desktop-mouse.svg"
   inkscape:version="1.1.1 (3bf5ae0d25, 2021-09-20, custom)"
   xmlns:inkscape="http://www.inkscape.org/namespaces/inkscape"
   xmlns:sodipodi="http://sodipodi.sourceforge.net/DTD/sodipodi-0.dtd"
   xmlns="http://www.w3.org/2000/svg"
   xmlns:svg="http://www.w3.org/2000/svg">
 <defs>
  <style id="current-color-scheme" type="text/css">.ColorScheme-Text { color:#727272; } .ColorScheme-Highlight { color:#5294e2; }</style>
 </defs>
  <path
     d="m 7.43925,2.8749109 c -0.97125,0 -1.942275,0.17091 -2.853525,0.50391 l -0.12891,0.046875 -0.81735,4.085475 c -0.1395,0.69525 -0.2775375,1.4124 -0.2797875,2.1504 -0.00225,0.7387501 0.13446,1.4885251 0.45996,2.1665251 a 4.09125,4.09125 0 0 0 1.4751,1.6743 4.008,4.008 0 0 0 4.289025,0 4.0875,4.0875 0 0 0 1.4736005,-1.6743 c 0.3255,-0.678 0.462209,-1.427025 0.459959,-2.1665251 -0.0023,-0.73725 -0.138817,-1.45515 -0.278317,-2.1504 l -0.81885,-4.085475 -0.128903,-0.046875 a 8.34,8.34 0 0 0 -2.8520245,-0.50391 z m -0.3295875,0.766125 v 2.233875 h 0.75 v -2.229525 c 0.6525,0.0465 1.2957,0.18933 1.91895,0.39258 l 0.7250995,3.621075 c 0.13875,0.6915 0.26217,1.357425 0.26367,2.003925 0.0023,0.6450001 -0.117502,1.2833251 -0.385252,1.8398251 A 3.3525,3.3525 0 0 1 9.179505,12.869516 3.26475,3.26475 0 0 1 7.43928,13.374888 3.27,3.27 0 0 1 5.697555,12.869516 3.3525,3.3525 0 0 1 4.49493,11.502791 c -0.26775,-0.5565 -0.3875025,-1.194825 -0.3852525,-1.8398251 0.00225,-0.6465 0.12639,-1.312425 0.26514,-2.003925 l 0.7251,-3.621075 c 0.6525,-0.21225 1.327275,-0.357975 2.009775,-0.396975 z"
     style="fill:currentColor" class="ColorScheme-Text" />
</svg>
