<?xml version="1.0" encoding="UTF-8" standalone="no"?>
<svg
   width="16"
   height="16"
   version="1.1"
   id="svg4"
   sodipodi:docname="preferences-desktop-virtual.svg"
   inkscape:version="1.1.1 (3bf5ae0d25, 2021-09-20, custom)"
   xmlns:inkscape="http://www.inkscape.org/namespaces/inkscape"
   xmlns:sodipodi="http://sodipodi.sourceforge.net/DTD/sodipodi-0.dtd"
   xmlns="http://www.w3.org/2000/svg"
   xmlns:svg="http://www.w3.org/2000/svg">
 <defs>
  <style id="current-color-scheme" type="text/css">.ColorScheme-Text { color:#727272; } .ColorScheme-Highlight { color:#5294e2; }</style>
 </defs>
  <path
     d="M 4.25,2 C 3.0035,2 2,3.0035 2,4.25 v 7.5 C 2,12.9965 3.0035,14 4.25,14 h 7.5 C 12.9965,14 14,12.9965 14,11.75 V 4.25 C 14,3.0035 12.9965,2 11.75,2 Z m 0,0.75 h 7.5 c 0.831,0 1.5,0.669 1.5,1.5 V 11 H 2.75 V 4.25 c 0,-0.831 0.669,-1.5 1.5,-1.5 z m 0,9 h 1.5 v 1.5 h -1.5 z m 3,0 h 1.5 v 1.5 h -1.5 z m 3,0 h 1.5 v 1.5 h -1.5 z"
     style="fill:currentColor" class="ColorScheme-Text"/>
</svg>
