<svg version="1.1" viewBox="0 0 16 16" xmlns="http://www.w3.org/2000/svg">
 <defs>
  <style id="current-color-scheme" type="text/css">.ColorScheme-Text { color:#727272; } .ColorScheme-Highlight { color:#5294e2; }</style>
 </defs>
 <g fill="#dfdfdf">
  <g>
   <path d="m4.4766 1a0.50005 0.50005 0 0 0-0.33008 0.14648l-3 3a0.50005 0.50005 0 0 0 0 0.70703l3 3a0.50005 0.50005 0 0 0 0.70703 0l3-3a0.50005 0.50005 0 0 0 0-0.70703l-3-3a0.50005 0.50005 0 0 0-0.37695-0.14648zm0.023438 1.207 2.293 2.293-2.293 2.293-2.293-2.293 2.293-2.293z" style="fill:currentColor" class="ColorScheme-Text"/>
   <path d="m12.018 2a0.50005 0.50005 0 0 0-0.46484 0.27734l-2.5 5a0.50005 0.50005 0 0 0 0.44727 0.72266h5a0.50005 0.50005 0 0 0 0.44727-0.72266l-2.5-5a0.50005 0.50005 0 0 0-0.42969-0.27734zm-0.017578 1.6172 1.6914 3.3828h-3.3828l1.6914-3.3828z" style="fill:currentColor" class="ColorScheme-Text"/>
  </g>
  <path d="m6.9492 9a3 3 0 0 0-2.9492 3 3 3 0 0 0 3 3 3 3 0 0 0 3-3 3 3 0 0 0-3-3 3 3 0 0 0-0.050781 0zm0.0019531 1a2 2 0 0 1 0.048828 0 2 2 0 0 1 2 2 2 2 0 0 1-2 2 2 2 0 0 1-2-2 2 2 0 0 1 1.9512-2z" style="fill:currentColor" class="ColorScheme-Text"/>
 </g>
</svg>
