<?xml version="1.0" encoding="UTF-8" standalone="no"?>
<svg
   version="1.1"
   viewBox="0 0 16 16"
   id="svg10"
   sodipodi:docname="system-users.svg"
   inkscape:version="1.1.1 (3bf5ae0d25, 2021-09-20, custom)"
   xmlns:inkscape="http://www.inkscape.org/namespaces/inkscape"
   xmlns:sodipodi="http://sodipodi.sourceforge.net/DTD/sodipodi-0.dtd"
   xmlns="http://www.w3.org/2000/svg"
   xmlns:svg="http://www.w3.org/2000/svg">
  <defs
     id="defs14" />
  <sodipodi:namedview
     id="namedview12"
     pagecolor="#505050"
     bordercolor="#ffffff"
     borderopacity="1"
     inkscape:pageshadow="0"
     inkscape:pageopacity="0"
     inkscape:pagecheckerboard="1"
     showgrid="false"
     inkscape:zoom="22.443089"
     inkscape:cx="9.9585223"
     inkscape:cy="9.245608"
     inkscape:window-width="1306"
     inkscape:window-height="709"
     inkscape:window-x="60"
     inkscape:window-y="28"
     inkscape:window-maximized="1"
     inkscape:current-layer="svg10" />
  <g
     fill="#dfdfdf"
     id="g8"
     transform="matrix(0.75,0,0,0.75,2,2.12525)">
    <path
       d="m 8,12 c -2.216,0 -4,1.784 -4,4 h 1 c 0,-1.662 1.338,-3 3,-3 h 4 c 1.662,0 3,1.338 3,3 h 1 c 0,-2.216 -1.784,-4 -4,-4 z"
       id="path2" />
    <path
       d="M 10,4.002 C 9.54065,4.002 9.10308,4.0873 8.7012,4.25982 8.30165,4.42406 7.94906,4.66432 7.6543,4.97661 l -0.006,0.006 C 7.36116,5.29635 7.14011,5.67375 6.98424,6.10171 6.82546,6.53007 6.74986,7.00024 6.74986,7.50211 c 0,0.50876 0.0753,0.98099 0.23438,1.4102 0.15624,0.42152 0.37762,0.79443 0.66406,1.1074 l 0.002,0.002 0.004,0.002 c 0.29405,0.31157 0.64524,0.55682 1.043,0.72851 l 0.002,0.002 0.004,0.002 c 0.40108,0.16427 0.83823,0.24609 1.2969,0.24609 0.45856,0 0.89352,-0.0816 1.2949,-0.24609 v -0.002 c 0.39741,-0.17155 0.74615,-0.41777 1.0332,-0.73047 0.29498,-0.31303 0.52286,-0.68618 0.67969,-1.1094 0.1597,-0.42918 0.23438,-0.90336 0.23438,-1.4121 h 0.008 c 0,-0.50128 -0.0759,-0.96854 -0.23438,-1.3965 C 12.85978,5.67594 12.63383,5.29667 12.33826,4.98275 12.0505,4.66906 11.69843,4.42634 11.29916,4.26205 10.89725,4.08774 10.46003,4.00228 10.00036,4.00228 Z M 9.88672,5.0411 c 0.54235,-0.0425 1.1101,0.10554 1.5176,0.47656 0.76785,0.62626 0.93583,1.7168 0.74804,2.6426 -0.12867,0.83869 -0.78758,1.6012 -1.6328,1.7637 -0.82209,0.1883 -1.767,-0.0641 -2.2617,-0.7793 C 7.72767,8.45293 7.7074,7.52286 7.85943,6.70126 8.07016,5.78121 8.91623,5.00346 9.88673,5.04106 Z"
       color="#000000"
       color-rendering="auto"
       dominant-baseline="auto"
       image-rendering="auto"
       shape-rendering="auto"
       solid-color="#000000"
       style="font-variant-ligatures:normal;font-variant-position:normal;font-variant-caps:normal;font-variant-numeric:normal;font-variant-alternates:normal;font-feature-settings:normal;text-indent:0;text-decoration-line:none;text-decoration-style:solid;text-decoration-color:#000000;text-transform:none;text-orientation:mixed;white-space:normal;shape-padding:0;isolation:auto;mix-blend-mode:normal"
       id="path4" />
    <path
       d="M 6,1.002 C 5.54065,1.002 5.10308,1.0873 4.7012,1.25982 4.30165,1.42406 3.94906,1.66432 3.6543,1.97661 l -0.006,0.006 C 3.36116,2.29635 3.1401,2.67375 2.98424,3.10171 2.82546,3.53007 2.74986,4.00024 2.74986,4.50211 c 0,0.50876 0.0753,0.98099 0.23438,1.4102 0.15624,0.42152 0.37762,0.79443 0.66406,1.1074 l 0.002,0.002 0.004,0.002 c 0.29405,0.31157 0.64524,0.55682 1.043,0.72851 l 0.002,0.002 0.004,0.002 C 5.03718,7.89296 5.40012,7.95994 5.7756,7.98278 5.7666,7.89838 5.7603,7.81369 5.7561,7.72888 5.7454,7.4739 5.7552,7.21842 5.7854,6.9652 5.18671,6.9153 4.6086,6.65161 4.258,6.14489 3.72781,5.45316 3.70751,4.52309 3.85957,3.70149 4.0703,2.78144 4.91637,2.00369 5.88687,2.04129 6.42922,1.99879 6.99697,2.14683 7.40447,2.51785 7.72479,2.7791 7.93537,3.12309 8.06462,3.50027 8.36755,3.33451 8.68821,3.20795 9.0197,3.12332 9.0177,3.11732 9.0177,3.11132 9.0157,3.10572 8.8595,2.67591 8.63354,2.29664 8.33797,1.98272 8.05021,1.66903 7.69814,1.42631 7.29887,1.26202 6.89696,1.08771 6.45974,1.00225 6.00007,1.00225 Z M 4,9 C 1.784,9 0,10.784 0,13 v 1 h 1 l -10e-6,-1 c -1e-5,-1.662 1.338,-3 3,-3 h 2.4707 C 6.27449,9.68877 6.11571,9.35284 5.99804,9 Z"
       opacity="0.5"
       id="path6" />
  </g>
</svg>
