<?xml version="1.0" encoding="UTF-8" standalone="no"?>
<svg
   width="16"
   height="16"
   version="1.1"
   id="svg19"
   sodipodi:docname="notification.svg"
   inkscape:version="1.1.2 (0a00cf5339, 2022-02-04, custom)"
   xmlns:inkscape="http://www.inkscape.org/namespaces/inkscape"
   xmlns:sodipodi="http://sodipodi.sourceforge.net/DTD/sodipodi-0.dtd"
   xmlns="http://www.w3.org/2000/svg"
   xmlns:svg="http://www.w3.org/2000/svg">
  <sodipodi:namedview
     id="namedview21"
     pagecolor="#505050"
     bordercolor="#ffffff"
     borderopacity="1"
     inkscape:pageshadow="0"
     inkscape:pageopacity="0"
     inkscape:pagecheckerboard="1"
     showgrid="false"
     inkscape:zoom="35"
     inkscape:cx="8.0142857"
     inkscape:cy="8"
     inkscape:window-width="1308"
     inkscape:window-height="744"
     inkscape:window-x="58"
     inkscape:window-y="24"
     inkscape:window-maximized="1"
     inkscape:current-layer="svg19" />
  <defs
     id="defs3">
    <style
       id="current-color-scheme"
       type="text/css">.ColorScheme-Text { color:#727272; } .ColorScheme-Highlight { color:#5294e2; }</style>
  </defs>
  <g
     transform="translate(-572 -160)"
     fill="#dfdfdf"
     id="g17"
     style="fill:#f7f7f7;fill-opacity:1">
    <path
       transform="translate(572 160)"
       d="m8 1a1 1 0 0 0-1 1 1 1 0 0 0 0.0097656 0.13867c-1.7279 0.44251-3.0098 1.9959-3.0098 3.8613 6.6e-4 0.11019 0.006025 0.22032 0.015625 0.33008v3.2363c0 0.3597-0.033702 0.6898-0.10156 0.98828-0.0679 0.29862-0.18774 0.55134-0.35742 0.76172-0.16288 0.21718-0.38382 0.38462-0.66211 0.5-0.2712 0.11906-0.611 0.17694-1.0176 0.17969v0.003906h12.244v-0.003906c-0.40658-3e-3 -0.74638-0.060608-1.0176-0.17969-0.27829-0.11538-0.49923-0.28283-0.66211-0.5-0.16968-0.21039-0.28761-0.4631-0.35547-0.76172-0.067901-0.29848-0.10161-0.62859-0.10156-0.98828v-3.25c9e-3 -0.10522 0.014625-0.21078 0.015625-0.31641 0-1.8661-1.2833-3.4195-3.0117-3.8613a1 1 0 0 0 0.011719-0.13867 1 1 0 0 0-1-1zm0 2c1.6568 0 3 1.3432 3 3v5h-6v-5c0-1.6568 1.3432-3 3-3z"
       style="fill:#f7f7f7;fill-opacity:1"
       class="ColorScheme-Text"
       id="path5" />
    <path
       d="m576.09 171.72-0.0156 0.0195c3e-3 -3e-3 4e-3 -8e-3 6e-3 -0.0117 2e-3 -3e-3 8e-3 -4e-3 0.01-8e-3z"
       style="fill:#f7f7f7;fill-opacity:1"
       class="ColorScheme-Text"
       id="path7" />
    <path
       d="m583.91 171.72c2e-3 3e-3 8e-3 4e-3 0.01 8e-3 3e-3 3e-3 4e-3 8e-3 6e-3 0.0117z"
       style="fill:#f7f7f7;fill-opacity:1"
       class="ColorScheme-Text"
       id="path9" />
    <path
       d="m578 173c0.0125 1.1086 0.91475 2 2.0234 2 1.1087 0 2.0109-0.89138 2.0234-2z"
       style="fill:#f7f7f7;fill-opacity:1"
       class="ColorScheme-Text"
       id="path11" />
    <path
       d="m584.07 172.31c3e-3 4e-3 7e-3 6e-3 9e-3 9e-3 3e-3 4e-3 5e-3 0.01 8e-3 0.0137z"
       style="fill:#f7f7f7;fill-opacity:1"
       class="ColorScheme-Text"
       id="path13" />
    <path
       d="m575.93 172.32-0.0179 0.0231c3e-3 -4e-3 5e-3 -9e-3 8e-3 -0.0137 3e-3 -4e-3 7e-3 -6e-3 9e-3 -9e-3z"
       style="fill:#f7f7f7;fill-opacity:1"
       class="ColorScheme-Text"
       id="path15" />
  </g>
</svg>
