<?xml version="1.0" encoding="UTF-8" standalone="no"?>
<svg
   height="16"
   id="svg7384"
   version="1.1"
   width="16"
   sodipodi:docname="system-shutdown.svg"
   inkscape:version="1.1.2 (0a00cf5339, 2022-02-04, custom)"
   xmlns:inkscape="http://www.inkscape.org/namespaces/inkscape"
   xmlns:sodipodi="http://sodipodi.sourceforge.net/DTD/sodipodi-0.dtd"
   xmlns="http://www.w3.org/2000/svg"
   xmlns:svg="http://www.w3.org/2000/svg"
   xmlns:rdf="http://www.w3.org/1999/02/22-rdf-syntax-ns#"
   xmlns:cc="http://creativecommons.org/ns#"
   xmlns:dc="http://purl.org/dc/elements/1.1/">
  <sodipodi:namedview
     id="namedview9"
     pagecolor="#505050"
     bordercolor="#ffffff"
     borderopacity="1"
     inkscape:pageshadow="0"
     inkscape:pageopacity="0"
     inkscape:pagecheckerboard="1"
     showgrid="false"
     inkscape:zoom="8.75"
     inkscape:cx="1.3714286"
     inkscape:cy="10.857143"
     inkscape:window-width="1308"
     inkscape:window-height="744"
     inkscape:window-x="58"
     inkscape:window-y="24"
     inkscape:window-maximized="1"
     inkscape:current-layer="svg7384" />
  <metadata
     id="metadata20854">
    <rdf:RDF>
      <cc:Work
         rdf:about="">
        <dc:title />
        <dc:format>image/svg+xml</dc:format>
        <dc:type
           rdf:resource="http://purl.org/dc/dcmitype/StillImage" />
      </cc:Work>
    </rdf:RDF>
  </metadata>
  <defs
     id="defs4">
    <style
       id="current-color-scheme"
       type="text/css">.ColorScheme-Text { color:#727272; } .ColorScheme-Highlight { color:#5294e2; }</style>
  </defs>
  <g
     id="g828"
     transform="translate(0.50019104,0.5)"
     style="fill:#f7f7f7;fill-opacity:1">
    <path
       inkscape:connector-curvature="0"
       style="fill:#f7f7f7;fill-opacity:1"
       class="ColorScheme-Text"
       id="path3202"
       d="m 1.000031,7.42578 c -0.0103,0.6801 0.08756,1.36907 0.300781,2.04297 C 2.153715,12.16433 4.665768,14 7.500031,14 10.334294,14 12.846347,12.16433 13.69925,9.46875 14.552152,6.77317 13.55085,3.83329 11.228547,2.21289 L 10.656281,3.0332 c 1.968157,1.37329 2.811943,3.85259 2.089844,6.13477 C 12.024025,11.45015 9.903452,13 7.500031,13 5.09661,13 2.976037,11.45015 2.253937,9.16797 1.531838,6.88579 2.375624,4.40649 4.343781,3.0332 L 3.771515,2.21289 C 2.029788,3.42819 1.030936,5.38548 1.000031,7.42578 Z" />
    <path
       inkscape:connector-curvature="0"
       style="fill:#f7f7f7;fill-opacity:1"
       class="ColorScheme-Text"
       id="path3206"
       d="m 7.000031,1 v 7 h 1 V 1 Z" />
  </g>
</svg>
