<?xml version="1.0" encoding="UTF-8" standalone="no"?>
<svg
   version="1.1"
   viewBox="0 0 16 16"
   id="svg11"
   sodipodi:docname="volume.svg"
   inkscape:version="1.1.2 (0a00cf5339, 2022-02-04, custom)"
   xmlns:inkscape="http://www.inkscape.org/namespaces/inkscape"
   xmlns:sodipodi="http://sodipodi.sourceforge.net/DTD/sodipodi-0.dtd"
   xmlns="http://www.w3.org/2000/svg"
   xmlns:svg="http://www.w3.org/2000/svg">
  <sodipodi:namedview
     id="namedview13"
     pagecolor="#505050"
     bordercolor="#ffffff"
     borderopacity="1"
     inkscape:pageshadow="0"
     inkscape:pageopacity="0"
     inkscape:pagecheckerboard="1"
     showgrid="false"
     inkscape:zoom="35"
     inkscape:cx="8.0142857"
     inkscape:cy="8"
     inkscape:window-width="1308"
     inkscape:window-height="744"
     inkscape:window-x="58"
     inkscape:window-y="24"
     inkscape:window-maximized="1"
     inkscape:current-layer="svg11" />
  <defs
     id="defs3">
    <style
       id="current-color-scheme"
       type="text/css">.ColorScheme-Text { color:#727272; } .ColorScheme-Highlight { color:#5294e2; }</style>
  </defs>
  <path
     d="M 8,1.333 4.5,5 H 1.87 C 1.87,5 1,5.893 1,8.001 1,10.11 1.87,11 1.87,11 H 4.5 L 8,14.667 Z"
     style="fill:#f7f7f7;fill-opacity:1"
     class="ColorScheme-Text"
     id="path5" />
  <path
     d="m10.524 4.926-0.707 0.707 0.354 0.354a2.999 2.999 0 0 1 0 4.242l-0.354 0.353 0.707 0.707 0.354-0.353a4 4 0 0 0 0-5.656z"
     style="fill:#f7f7f7;fill-opacity:1"
     class="ColorScheme-Text"
     font-family="sans-serif"
     font-weight="400"
     overflow="visible"
     id="path7" />
  <path
     d="m12.645 2.805-0.707 0.707 0.354 0.353a5.999 5.999 0 0 1 0 8.485l-0.354 0.353 0.707 0.707 0.354-0.353a7 7 0 0 0 0-9.899z"
     style="fill:#f7f7f7;fill-opacity:1"
     class="ColorScheme-Text"
     font-family="sans-serif"
     font-weight="400"
     overflow="visible"
     id="path9" />
</svg>
