<svg width="16" height="16" version="1.1" xmlns="http://www.w3.org/2000/svg" xmlns:osb="http://www.openswatchbook.org/uri/2009/osb">
<g fill="#dfdfdf" shape-rendering="auto">
<path d="m3.9941 2c-1.2582 0.0145-2.1789-0.030604-2.9316 0.38477-0.37637 0.20766-0.67323 0.55939-0.83789 0.99805-0.16467 0.43867-0.22461 0.95958-0.22461 1.6172v7c0 0.65761 0.059899 1.1785 0.22461 1.6172 0.16467 0.43866 0.46152 0.7904 0.83789 0.99805 0.75275 0.41532 1.6735 0.3702 2.9316 0.38477h0.0039063 8.0039 0.003906c1.2582-0.0145 2.1789 0.030604 2.9316-0.38477 0.37637-0.20766 0.67322-0.55939 0.83789-0.99805 0.16413-0.43867 0.22461-0.95958 0.22461-1.6172v-7c0-0.65761-0.059899-1.1785-0.22461-1.6172-0.16466-0.43866-0.46152-0.79039-0.83789-0.99805-0.75275-0.41534-1.6734-0.37025-2.9316-0.38477h-0.003906-8.0039-0.0039063zm2.9023 1.0918c1.749-4e-3 3.4973-0.0010157 5.2461 0.021484 0.86117 0.14671 2.161-0.34154 2.6738 0.66797 0.25574 2.924 0.069407 5.882 0.12891 8.8184-0.087099 0.38019-0.18482 1.1436-0.73047 1.1289-3.5364 0.23538-7.0915 0.10846-10.635 0.13476-0.78646-0.11198-1.9999 0.29029-2.4043-0.69141-0.1705-2.4656-0.088844-4.9496-0.089844-7.4355 0.12175-0.84105-0.29598-2.0645 0.6875-2.5117 1.6892-0.21162 3.4084-0.077502 5.123-0.13281z" color="#000000" color-rendering="auto" dominant-baseline="auto" image-rendering="auto" solid-color="#000000" style="font-feature-settings:normal;font-variant-alternates:normal;font-variant-caps:normal;font-variant-ligatures:normal;font-variant-numeric:normal;font-variant-position:normal;isolation:auto;mix-blend-mode:normal;shape-padding:0;text-decoration-color:#000000;text-decoration-line:none;text-decoration-style:solid;text-indent:0;text-orientation:mixed;text-transform:none;white-space:normal"/>
<path d="m3.4824 4.9786c-0.47384 0.0193-0.65721 0.62569-0.27344 0.90429l1.4668 1.0996-1.4668 1.0996c-0.53385 0.40104 0.0677 1.2018 0.60157 0.80078l2-1.5c0.26732-0.2 0.26732-0.60078 0-0.80078l-2-1.5c-0.0937-0.0722-0.20995-0.10851-0.32813-0.10351z" color="#000000" color-rendering="auto" dominant-baseline="auto" image-rendering="auto" solid-color="#000000" style="font-feature-settings:normal;font-variant-alternates:normal;font-variant-caps:normal;font-variant-ligatures:normal;font-variant-numeric:normal;font-variant-position:normal;isolation:auto;mix-blend-mode:normal;shape-padding:0;text-decoration-color:#000000;text-decoration-line:none;text-decoration-style:solid;text-indent:0;text-orientation:mixed;text-transform:none;white-space:normal"/>
<path d="m6.0098 8.9825v1h3v-1z" color="#000000" color-rendering="auto" dominant-baseline="auto" image-rendering="auto" solid-color="#000000" style="font-feature-settings:normal;font-variant-alternates:normal;font-variant-caps:normal;font-variant-ligatures:normal;font-variant-numeric:normal;font-variant-position:normal;isolation:auto;mix-blend-mode:normal;shape-padding:0;text-decoration-color:#000000;text-decoration-line:none;text-decoration-style:solid;text-indent:0;text-orientation:mixed;text-transform:none;white-space:normal"/>
</g>
</svg>
