<?xml version="1.0" encoding="UTF-8" standalone="no"?>
<svg
   version="1.1"
   viewBox="0 0 16.125 16"
   id="svg10"
   sodipodi:docname="folder-pictures.svg"
   inkscape:version="1.1.1 (3bf5ae0d25, 2021-09-20, custom)"
   xmlns:inkscape="http://www.inkscape.org/namespaces/inkscape"
   xmlns:sodipodi="http://sodipodi.sourceforge.net/DTD/sodipodi-0.dtd"
   xmlns="http://www.w3.org/2000/svg"
   xmlns:svg="http://www.w3.org/2000/svg">
 <defs>
  <style id="current-color-scheme" type="text/css">.ColorScheme-Text { color:#727272; } .ColorScheme-Highlight { color:#5294e2; }</style>
 </defs>
  <g
     transform="matrix(0.75,0,0,0.75,-231.9854,-27.999995)"
     style="fill:currentColor" class="ColorScheme-Text">
    <path
       d="m 323.5,43 c -0.82843,0 -1.5,0.67157 -1.5,1.5 0,0.82843 0.67157,1.5 1.5,1.5 0.82843,0 1.5,-0.67158 1.5,-1.5 0,-0.82843 -0.67157,-1.5 -1.5,-1.5 z"
       color="#000000"
       id="path2" />
    <path
       d="m 315.99,41 c -1.2582,0.0145 -2.1789,-0.0306 -2.9316,0.38477 -0.37637,0.20766 -0.67323,0.55939 -0.83789,0.99805 -0.16467,0.43867 -0.0652,0.97919 -0.22461,1.6172 v 4 4 c 0,0.65761 0.0599,1.1785 0.22461,1.6172 0.16467,0.43866 0.46152,0.7904 0.83789,0.99805 0.75275,0.41532 1.6734,0.3702 2.9316,0.38477 h 0.004 2.002 4.125 2.002 0.004 c 1.2582,-0.01457 2.1789,0.03055 2.9316,-0.38477 0.37637,-0.20765 0.67322,-0.55939 0.83789,-0.99805 0.16453,-0.43866 0.22443,-0.95958 0.22443,-1.6172 v -4 -4 c 0,-0.65761 -0.0599,-1.1785 -0.22461,-1.6172 -0.16466,-0.43866 -0.46152,-0.79039 -0.83789,-0.99805 C 326.30567,40.9694 325.38502,41.0145 324.12682,41 h -0.004 -2.002 -4.125 -2.002 z m 2.0059,1 h 4.125 c 2,0 3.4845,-0.01562 4.2266,0.22461 0.98348,0.44721 0.77344,1.7754 0.77344,2.7754 -8.5e-4,2.1232 -0.0362,4.677 -0.125,7 h -4.875 -4.125 -4.875 c -0.0888,-2.323 -0.12415,-4.8768 -0.125,-7 0,-1 -0.21004,-2.3282 0.77344,-2.7754 C 314.51157,41.98438 315.99598,42 317.99598,42 Z"
       style="fill:currentColor" class="ColorScheme-Text"/>
    <path
       d="M 318,45.5 315,51 H 317.7182 323 l -2.5,-4.5 -1,1.5 z"
       style="fill:currentColor" class="ColorScheme-Text"/>
  </g>
</svg>
