<svg width="16" height="16" version="1.1" viewBox="0 0 16 16" xmlns="http://www.w3.org/2000/svg">
 <defs>
  <style id="current-color-scheme" type="text/css">.ColorScheme-Text { color:#727272; } .ColorScheme-Highlight { color:#5294e2; }</style>
 </defs>
<path d="m6.2781 16h4.7758c0.0028-1.0178 0.0057-2.2171 0.0057-2.9993 0-0.92186-0.38118-1.525-0.7265-1.8303 2.1452-0.24454 4.3974-1.0811 4.3974-4.8789 0-1.079-0.3001-1.9617-0.91736-2.6523 0.09876-0.24983 0.43014-1.2559-0.09551-2.6164 0 0-0.05061-0.015118-0.155-0.022677h-8.23e-4c-0.31317-0.015118-1.1955 0.089953-2.5747 1.0493-0.77155-0.23282-1.6523-0.31861-2.5704-0.31635-0.83994 0.00121-1.711 0.070677-2.5576 0.31635-1.3796-0.9594-2.0846-1.0633-2.3981-1.0486-0.1045 0.00378-0.155 0.018898-0.155 0.018898-0.52448 1.3606-0.19279 2.3671-0.09347 2.6171-0.61613 0.69063-0.9775 1.5727-0.9775 2.6517 0 3.7881 2.4544 4.6366 4.5932 4.886-0.27496 0.24718-0.44796 0.75761-0.53548 1.396-0.54872 0.25323-2.0207 0.87243-2.8798-0.63814 0 0-0.50826-0.94946-1.4751-1.0192 0 0-0.93991-0.01134-0.06535 0.60087 0 0 0.63134 0.30425 1.0695 1.4463 0 0 0.65075 1.7386 3.3299 1.1414 0.0023 0.40604 0.0042 1.1625 0.0061 1.8952z" style="fill:currentColor" class="ColorScheme-Text"/>
</svg>
