<?xml version="1.0" encoding="UTF-8" standalone="no"?>
<svg
   height="16"
   width="16"
   version="1.1"
   id="svg12"
   sodipodi:docname="folder_home.svg"
   inkscape:version="1.1.2 (0a00cf5339, 2022-02-04)"
   xmlns:inkscape="http://www.inkscape.org/namespaces/inkscape"
   xmlns:sodipodi="http://sodipodi.sourceforge.net/DTD/sodipodi-0.dtd"
   xmlns="http://www.w3.org/2000/svg"
   xmlns:svg="http://www.w3.org/2000/svg">
 <defs>
  <style id="current-color-scheme" type="text/css">.ColorScheme-Text { color:#727272; } .ColorScheme-Highlight { color:#5294e2; }</style>
 </defs>
  <g
     style="fill:currentColor" class="ColorScheme-Text"
     transform="matrix(0.75,0,0,0.75,-382,-22.088375)">
    <path
       d="m 526,37 v -2 h -2.002 z"
       id="path2" />
    <path
       d="m 514,39 v 8 h 9 v -1 h -8 V 38.333 Z M 525.002,38 525,47 h 1 v -8 z"
       id="path4" />
    <path
       d="m 520,40.986 a 8.47,8.47 0 0 1 0.607,-0.122 c 0.253,-0.043 0.543,-0.064 0.872,-0.064 0.295,0 0.54,0.043 0.735,0.129 0.195,0.08 0.35,0.197 0.465,0.35 0.119,0.147 0.202,0.326 0.25,0.535 0.047,0.21 0.071,0.44 0.071,0.693 V 46.2 h -3 z"
       id="path6" />
    <path
       d="m 520,32.293 -7.854,7.853 0.708,0.708 7.146,-7.147 7.146,7.147 0.708,-0.708 z"
       style="fill:currentColor" class="ColorScheme-Text" />
  </g>
  <rect
     style="opacity:0;fill:#f7f7f7;fill-opacity:1;fill-rule:evenodd;stroke:none;stroke-width:4.94388"
     id="rect859"
     width="16"
     height="16"
     x="0"
     y="-16"
     transform="scale(1,-1)"
     class="ColorScheme-Text" />
</svg>
