<svg version="1.1" viewBox="0 0 16 16" xmlns="http://www.w3.org/2000/svg">
 <defs>
  <style id="current-color-scheme" type="text/css">.ColorScheme-Text { color:#727272; } .ColorScheme-Highlight { color:#5294e2; }</style>
 </defs>
 <path d="m3 10v1h3v-1z" style="fill:currentColor" class="ColorScheme-Text"/>
 <path d="m3 8v1h3v-1z" style="fill:currentColor" class="ColorScheme-Text"/>
 <path d="m3 6v1h3v-1z" style="fill:currentColor" class="ColorScheme-Text"/>
 <path d="m3 4v1h3v-1z" style="fill:currentColor" class="ColorScheme-Text"/>
 <path d="m2 1c-1 0-2 0-2 2v9c0 2 1 2 3 2h3c0.94422 0.016902 1.5835 0.77896 1.6016 0.80078 2.603e-4 3.14e-4 0.0058594 0.007813 0.0058594 0.007813v0.001953l0.38477 0.50781 0.0078125-0.009765 0.0078125 0.009765 0.38477-0.50781 0.0058594-0.009766c0.018095-0.021819 0.65735-0.78388 1.6016-0.80078h3c1 0 1.75 0 2.25-0.25s0.75-0.75 0.75-1.75v-9c0-2-1-2-2-2v0.023438c-0.30839-0.013821-0.61905-0.023438-1-0.023438h-3c-0.40045 0-0.71841 0.081699-1 0.1875-0.22419 0.084235-0.42179 0.18342-0.58398 0.29688-0.16113 0.1127-0.30443 0.22741-0.41602 0.33594-0.11159-0.10853-0.25489-0.22324-0.41602-0.33594-0.1622-0.11345-0.35979-0.21264-0.58398-0.29688-0.28159-0.1058-0.59955-0.1875-1-0.1875h-3c-0.38095 0-0.69161 0.0096165-1 0.023438v-0.023438zm1 1h3c0.40945 0 0.73577 0.14491 1 0.30664v0.0019532c0.37008 0.22657 0.59961 0.49023 0.59961 0.49023l0.40039 0.53516 0.40039-0.53516s0.22953-0.26367 0.59961-0.49023c2.575e-4 -1.578e-4 -2.577e-4 -0.0017955 0-0.0019532 0.26423-0.16173 0.59055-0.30664 1-0.30664h3c1 0 2 0 2 1v9c0 1-1 1-2 1h-3.0078c-7.129e-4 1e-5 -0.0012407-1.1e-5 -0.0019531 0a2.792 2.792 0 0 0-1.9902 0.82031 2.792 2.792 0 0 0-1.9902-0.82031 2.792 2.792 0 0 0-0.0019531 0h-3.0078c-1 0-2 0-2-1v-9c0-1 1-1 2-1z" style="fill:currentColor" class="ColorScheme-Text"/>
</svg>
