<svg width="16" height="16" version="1.1" xmlns="http://www.w3.org/2000/svg">
 <defs>
  <style id="current-color-scheme" type="text/css">.ColorScheme-Text { color:#727272; } .ColorScheme-Highlight { color:#5294e2; }</style>
 </defs>
<path d="m6.7559 1.0001c-0.48485 1.0101-0.95009 2.0333-1.3945 3.0703-0.44445 1.0236-0.89561 2.1011-1.3535 3.2324-0.2098 0.53405-0.4328 1.1333-0.64843 1.6973h-0.85938c-0.831 0-1.5 0.669-1.5 1.5 0 0.74119 0.53361 1.349 1.2383 1.4727-0.36109 0.96894-0.72149 1.9338-1.1191 3.0273h2.6582l1.0684-3h7.3594c0.12199 0.33907 0.24149 0.67202 0.36719 1.0195 0.22895 0.633 0.47067 1.2936 0.72656 1.9805h1.5156c-0.41034-1.0809-0.77559-2.0494-1.1406-3.0176 0.74736-0.0867 1.3262-0.71105 1.3262-1.4824 0-0.831-0.669-1.5-1.5-1.5h-0.9707c-0.21556-0.55206-0.43194-1.1177-0.64453-1.6367-0.44445-1.1313-0.88955-2.2149-1.334-3.252-0.44445-1.037-0.91574-2.0743-1.4141-3.1113h-1.1973zm1.7344 1.5762c0.51179 1.1582 1.0113 2.3365 1.4961 3.5352 0.3611 0.89271 0.73747 1.8913 1.1133 2.8887h-5.1856c0.31844-0.87809 0.63703-1.7549 0.95508-2.5859 0.34411-0.8818 0.70044-1.733 1.0703-2.5547v-0.0156c0.18202-0.42526 0.36522-0.84762 0.55078-1.2676zm-5.9902 7.4238h11.066c0.24027 0 0.43359 0.19332 0.43359 0.43359v0.13282c0 0.24027-0.19332 0.43359-0.43359 0.43359h-11.066c-0.277 0-0.5-0.223-0.5-0.5s0.223-0.5 0.5-0.5z" style="fill:currentColor" class="ColorScheme-Text"/>
</svg>
