<svg width="16" height="16" version="1.1" xmlns="http://www.w3.org/2000/svg" xmlns:osb="http://www.openswatchbook.org/uri/2009/osb">
 <defs>
  <style id="current-color-scheme" type="text/css">.ColorScheme-Text { color:#727272; } .ColorScheme-Highlight { color:#5294e2; }</style>
 </defs>
<path d="m8 1c-0.5287 0-1.0315 0.0977-1.4941 0.29492-0.45986 0.18776-0.8678 0.46333-1.207 0.82031l-2e-3 4e-3 -2e-3 2e-3c-0.33049 0.35865-0.58621 0.79003-0.76562 1.2793-0.18275 0.48966-0.26953 1.0259-0.26953 1.5996 0 0.58157 0.0864 1.1227 0.26953 1.6133 0.17983 0.48185 0.43594 0.90784 0.76562 1.2656l4e-3 4e-3c0.33844 0.35616 0.74339 0.63577 1.2012 0.83203l8e-3 4e-3c0.46162 0.18779 0.9641 0.28092 1.492 0.28092 0.5278 0 1.0282-0.0932 1.4902-0.28125v-2e-3c0.4574-0.1961 0.85906-0.47653 1.1895-0.83399 0.3395-0.35783 0.60075-0.78575 0.78125-1.2695 0.1838-0.49061 0.27148-1.0317 0.27148-1.6133h8e-3c0-0.57304-0.0871-1.1085-0.26953-1.5977-0.1798-0.49134-0.44105-0.9243-0.78125-1.2832-0.3312-0.3586-0.73581-0.63642-1.1953-0.82422-0.46259-0.19756-0.96523-0.29487-1.4943-0.29487zm0 1c0.4062 0 0.77086 0.0735 1.1016 0.21484l0.01 4e-3 0.01 2e-3c0.3299 0.13484 0.60699 0.3262 0.83789 0.57618v0.01c0.2398 0.25296 0.43086 0.56352 0.56836 0.93945v6e-3c0.1307 0.3506 0.19402 0.75253 0.19922 1.2012v0.04636c0 0.48184-0.072 0.9-0.20703 1.2617v2e-3c-0.1372 0.3676-0.32781 0.67603-0.57031 0.93164l-0.01 4e-3v4e-3c-0.2332 0.25229-0.51385 0.45039-0.84765 0.59376-0.32634 0.13143-0.68744 0.20288-1.092 0.20288-0.4099 0-0.7766-0.072-1.1094-0.20703-9.9e-4 -4.4e-4 -3e-3 4.4e-4 -4e-3 0-0.32499-0.14054-0.59973-0.33671-0.83789-0.58203l-0.0508-0.0703-8e-3 -6e-3c-0.21279-0.24477-0.39416-0.52471-0.52343-0.8711-0.13561-0.36337-0.20703-0.78282-0.20703-1.2637 0-0.47122 0.071-0.88558 0.20703-1.25l2e-3 -2e-3v-4e-3c0.13798-0.37629 0.32457-0.68362 0.55469-0.93555l0.0117-0.01c0.23979-0.25006 0.52018-0.44362 0.84961-0.57813l6e-3 -4e-3 8e-3 -2e-3c0.33144-0.14051 0.6957-0.21419 1.1015-0.21419z" style="fill:currentColor" class="ColorScheme-Text"/>
<path d="m15 16-1 5e-4c-5e-4 -0.86468-0.069-1.2991-0.2348-1.8326-0.1654-0.53351-0.41-0.90462-0.8144-1.21-0.8089-0.6107-2.1094-0.93361-4.9218-0.93361-2.8125 0-4.165 0.32183-4.9748 0.93274-0.4049 0.30545-0.64974 0.67683-0.81592 1.2105-0.16618 0.53362-0.23582 0.9684-0.23779 1.8331l-1.0005-2e-3c2e-3 -0.91456 0.069-1.44 0.2832-2.1279 0.21421-0.68788 0.59372-1.2776 1.1685-1.7112 1.1495-0.86718 2.6959-1.1343 5.5772-1.1343 2.8813 0 4.3759 0.26781 5.5248 1.1352 0.5745 0.43369 0.9532 1.0237 1.1665 1.7117 0.2134 0.68801 0.2792 1.2138 0.2799 2.1284z" style="fill:currentColor" class="ColorScheme-Text"/>
</svg>
