<svg width="16" height="16" version="1.1" viewBox="0 0 16 16" xmlns="http://www.w3.org/2000/svg">
<defs>
<style id="current-color-scheme" type="text/css">.ColorScheme-Text { color:#dfdfdf; } .ColorScheme-Highlight { color:#5294e2; }</style>
<style type="text/css">.ColorScheme-Text { color:#5c616c; } .ColorScheme-Highlight { color:#5c616c; } .ColorScheme-ButtonBackground { color:#5c616c; }</style>
</defs>
<path class="ColorScheme-Text" d="m11.641 1c-2.7346 0-3.2476 4.1543-1.709 4.1543 1.5379 0 4.4439-4.1543 1.709-4.1543zm-4.2109 0.63867c-0.04308-2e-4 -0.090192-2.344e-4 -0.13867 0.0097656-1.5496 0.1957-1.0047 2.8183-0.17969 2.8672 0.7988 0.048 1.672-2.8704 0.31641-2.875l0.0019531-0.0019531zm-2.6875 0.96875c-0.09481-0.01-0.19957 0.012547-0.31641 0.060547-1.2456 0.5114-0.18949 2.6224 0.50781 2.4805 0.63291-0.1286 0.72392-2.4815-0.19141-2.541zm-2.0332 1.7266c-0.10826 0-0.22468 0.033653-0.34961 0.12695-0.99701 0.7441 0.33522 2.5424 0.92188 2.2637 0.51315-0.2441 0.18577-2.3632-0.57227-2.3906zm5.8887 1.7148c-2.1603-0.037-5.0099 1.0594-5.4961 3.2617-0.52608 2.3827 2.1669 5.6895 4.9766 5.6895 1.3822 0 2.9769-1.2636 3.2754-2.8633 0.22777-1.2198-2.6825-0.73073-2.5781 0.076172 0.12546 0.9675-0.69998 1.4459-1.5098 0.82226-2.5777-1.9855 4.268-2.977 3.8164-5.6895-0.14054-0.8444-1.1882-1.2747-2.4844-1.2969z" fill="#dfdfdf"/>
</svg>
