<?xml version="1.0" encoding="UTF-8" standalone="no"?>
<svg
   version="1.1"
   viewBox="0 0 16 16"
   id="svg4"
   sodipodi:docname="folder-videos.svg"
   inkscape:version="1.1.1 (3bf5ae0d25, 2021-09-20, custom)"
   xmlns:inkscape="http://www.inkscape.org/namespaces/inkscape"
   xmlns:sodipodi="http://sodipodi.sourceforge.net/DTD/sodipodi-0.dtd"
   xmlns="http://www.w3.org/2000/svg"
   xmlns:svg="http://www.w3.org/2000/svg">
 <defs>
  <style id="current-color-scheme" type="text/css">.ColorScheme-Text { color:#727272; } .ColorScheme-Highlight { color:#5294e2; }</style>
 </defs>
  <path
     d="m 2.875,3.625 v 9.75 h 0.75 v -0.75 h 0.75 v 0.75 h 8.25 v -0.75 h 0.75 v 0.75 h 0.75 v -9.75 h -0.75 v 0.75 h -0.75 v -0.75 h -8.25 v 0.75 h -0.75 v -0.75 z m 2.25,0.75 h 6.75 v 3.75 h -6.75 z m -1.5,0.75 h 0.75 v 0.75 h -0.75 z m 9,0 h 0.75 v 0.75 h -0.75 z m -9,1.5 h 0.75 v 0.75 h -0.75 z m 9,0 h 0.75 v 0.75 h -0.75 z m -9,1.5 h 0.75 v 0.75 h -0.75 z m 9,0 h 0.75 v 0.75 h -0.75 z m -7.5,0.75 h 6.75 v 3.75 h -6.75 z m -1.5,0.75 h 0.75 v 0.75 h -0.75 z m 9,0 h 0.75 v 0.75 h -0.75 z m -9,1.5 h 0.75 v 0.75 h -0.75 z m 9,0 h 0.75 v 0.75 h -0.75 z"
     style="fill:currentColor" class="ColorScheme-Text" />
</svg>
