<svg width="16" height="16" version="1.1" xmlns="http://www.w3.org/2000/svg">
 <defs>
  <style id="current-color-scheme" type="text/css">.ColorScheme-Text { color:#727272; } .ColorScheme-Highlight { color:#5294e2; }</style>
 </defs>
<g fill="#dfdfdf">
<path d="m8.1541 3.1178c-0.77724 0.54683-1.6581 1.1666-2.1301 2.192-0.81981 1.789 1.6775 3.7404 1.7843 3.8225 0.024804 0.019094 0.054503 0.028625 0.084104 0.028625 0.03144 0 0.062914-0.010747 0.088473-0.032174 0.049575-0.041475 0.063636-0.11194 0.033871-0.16932-0.0090341-0.017418-0.90546-1.7592-0.87215-3.0088 0.011794-0.43522 0.62066-0.92894 1.2652-1.4516 0.59037-0.47877 1.2596-1.0214 1.6511-1.6562 0.85957-1.3973-0.095799-2.7712-0.10556-2.7849-0.037945-0.053306-0.10799-0.072597-0.16788-0.046339-0.059825 0.026423-0.092974 0.091133-0.079307 0.15512 0.0019384 0.0091034 0.18772 0.91767-0.32925 1.8537-0.21295 0.38681-0.68091 0.71605-1.2228 1.0973z" style="fill:currentColor" class="ColorScheme-Text"/>
<path d="m11.429 3.734c0.05483-0.04131 0.07093-0.11667 0.03778-0.17681-0.03321-0.060142-0.10549-0.086663-0.16969-0.062278-0.13204 0.050217-3.2333 1.2461-3.2333 2.6909 0 0.99602 0.42532 1.5222 0.73588 1.9064 0.12182 0.15072 0.22698 0.28086 0.26164 0.39197 0.097574 0.3202-0.13358 0.89894-0.23079 1.0949-0.028024 0.05633-0.014291 0.12462 0.033379 0.16577 0.025757 0.022249 0.05792 0.033554 0.090116 0.033554 0.0274 0 0.05493-0.00815 0.078716-0.024714 0.053321-0.03707 1.3032-0.92105 1.079-1.9861-0.083512-0.40482-0.28237-0.7006-0.45784-0.96161-0.27183-0.4044-0.46816-0.69649-0.17031-1.236 0.34896-0.62929 1.9294-1.8241 1.9454-1.8361z" style="fill:currentColor" class="ColorScheme-Text"/>
<g stroke-width=".029292">
<path d="m3.356 9.8013c-0.053156 0.15923-0.028056 0.31717 0.072507 0.45691 0.33619 0.4669 1.527 0.72397 3.3532 0.72397h2.343e-4c0.24745 0 0.5087-0.0049 0.77628-0.01446 2.9198-0.10454 4.0028-1.0145 4.0475-1.0532 0.04869-0.042165 0.0617-0.11236 0.03144-0.16915-0.03029-0.056757-0.09557-0.085283-0.15796-0.068095-1.0283 0.28086-2.9485 0.38057-4.2804 0.38057-1.4903 0-2.2493-0.1074-2.4351-0.1867 0.09534-0.13096 0.68341-0.36483 1.4121-0.50821 0.069648-0.013671 0.11752-0.07802 0.11062-0.14868-0.0069-0.070658-0.066232-0.12456-0.13723-0.12456-0.42716 0-2.5693 0.034311-2.7933 0.71158z" style="fill:currentColor" class="ColorScheme-Text"/>
<path d="m13.126 8.8641c-0.60223 0-1.1733 0.30196-1.1974 0.31474-0.05569 0.029841-0.08394 0.093729-0.06866 0.15512 0.01534 0.061292 0.07044 0.10438 0.13361 0.10444 0.01278 0 1.2846 0.010418 1.3998 0.73734 0.10204 0.62712-1.2034 1.6432-1.715 1.9818-0.05526 0.03658-0.07671 0.10724-0.05105 0.16836 0.02185 0.05202 0.07247 0.08456 0.12708 0.08456 0.0095 0 0.01919-9.87e-4 0.02878-3e-3 0.12142-0.026 2.9701-0.65397 2.6689-2.3131-0.18376-1.0168-0.82262-1.2303-1.3261-1.2303z" style="fill:currentColor" class="ColorScheme-Text"/>
<path d="m11.173 11.955c0.0099-0.05314-0.01219-0.1072-0.05641-0.13826l-0.68305-0.4786c-0.03331-0.02333-0.0754-0.03066-0.11449-0.02031-0.0071 0.0018-0.72142 0.18966-1.7585 0.30485-0.41158 0.04618-0.87258 0.07056-1.3332 0.07056-1.0368 0-1.7147-0.12186-1.8134-0.21125-0.013076-0.02511-0.00894-0.03651-0.0066-0.04285 0.017938-0.04989 0.11407-0.10918 0.17603-0.13264 0.068433-0.02534 0.10533-0.09968 0.084038-0.16948-0.021223-0.0699-0.093204-0.11102-0.16423-0.09396-0.68518 0.16541-1.0202 0.3967-0.99584 0.68746 0.0433 0.51551 1.2369 0.7801 2.246 0.85004 0.14511 0.0099 0.30205 0.01495 0.46635 0.01495h2.636e-4c1.6779 0 3.829-0.52665 3.8505-0.53201 0.05253-0.01282 0.09258-0.05525 0.10253-0.10848z" style="fill:currentColor" class="ColorScheme-Text"/>
<path d="m6.0232 13.061c0.051744-0.03365 0.074675-0.09764 0.05631-0.15656-0.018299-0.05893-0.073394-0.09764-0.13529-0.09682-0.091824 0.0024-0.8985 0.03885-0.95497 0.55261-0.017083 0.15354 0.026874 0.29384 0.13072 0.41692 0.28963 0.34337 1.0715 0.54745 2.3898 0.6239 0.15595 0.0094 0.31437 0.01407 0.47092 0.01407 1.676 0 2.8048-0.52494 2.852-0.54729 0.04583-0.02169 0.07606-0.06675 0.07875-0.11736 0.0027-0.05061-0.02257-0.09863-0.0658-0.12508l-0.86322-0.52715c-0.029962-0.01827-0.065805-0.02432-0.099972-0.01732-0.00545 0.0012-0.55354 0.11486-1.3807 0.22719-0.15651 0.0213-0.35251 0.03211-0.58248 0.03211-0.82625 0-1.7453-0.13504-1.9215-0.22348-0.00256-0.0165 6.911e-4 -0.03747 0.025461-0.05574z" style="fill:currentColor" class="ColorScheme-Text"/>
<path d="m7.1995 16c3.839-0.0033 5.8995-0.68621 6.2964-1.116 0.14051-0.15203 0.15569-0.29598 0.14376-0.39-0.0295-0.23136-0.24019-0.37301-0.26407-0.38839-0.05762-0.03707-0.13496-0.02738-0.1799 0.02448-0.04484 0.05186-0.04589 0.12764-8.87e-4 0.17947 0.02421 0.03116 0.03821 0.08331-0.03259 0.1542-0.15868 0.14825-1.7591 0.59826-4.4239 0.73346-0.36503 0.01896-0.7479 0.02862-1.1379 0.02869-2.3859 0-4.132-0.32693-4.3612-0.51742 0.088342-0.12699 0.70598-0.32986 1.3628-0.44462 0.074018-0.01291 0.12402-0.08269 0.11255-0.15696-0.011465-0.07424-0.079898-0.12534-0.1547-0.11565-0.018529 0.0025-0.08141 0.0063-0.15421 0.01075-1.0838 0.06619-2.3361 0.21372-2.4015 0.77231-0.019843 0.1702 0.030718 0.32473 0.15034 0.45921 0.29269 0.32897 1.134 0.76636 5.0448 0.76636 5.86e-5 5.9e-5 5.86e-5 5.9e-5 1.172e-4 5.9e-5z" style="fill:currentColor" class="ColorScheme-Text"/>
</g>
</g>
</svg>
