<svg width="16" height="16" version="1.1" viewBox="0 0 4.23 4.23" xmlns="http://www.w3.org/2000/svg">
<path transform="scale(.26438)" d="m8.0059 0.5c-4.1458 0-7.5059 3.3606-7.5059 7.5059 0 4.1453 3.3601 7.5059 7.5059 7.5059 4.1458 0 7.5059-3.3605 7.5059-7.5059 0-4.1453-3.3601-7.5059-7.5059-7.5059zm-0.0019532 0.95898c3.6109 0 6.5371 2.9247 6.5371 6.5352 0 3.6105-2.9262 6.5391-6.5371 6.5391-3.6105 0-6.5371-2.9286-6.5371-6.5391 0-3.61 2.9266-6.5352 6.5371-6.5352z" fill="#dfdfdf" stroke-width="3.7825"/>
<path transform="scale(.26438)" d="m6.0527 4.3438c-0.5819 0-1.0527 0.47038-1.0527 1.0527v5.7187c0 0.5819 0.47084 1.0547 1.0527 1.0547 0.58283 0 1.0547-0.47279 1.0547-1.0547v-1.2168h2.043v-0.0039063c1.533 0 2.7754-1.2424 2.7754-2.7754 0-1.5334-1.242-2.7754-2.7754-2.7754h-3.0977zm1.0469 1.957h0.0078125 2.043 0.0078125c0.45316 0 0.82031 0.36548 0.82031 0.81836 0 0.45318-0.36716 0.82031-0.82031 0.82031h-0.0078125-2.043-0.0078125v-1.6387z" fill="#dfdfdf" stroke-width="3.7825"/>
</svg>
