<?xml version="1.0" encoding="UTF-8" standalone="no"?>
<svg
   width="16"
   height="16"
   version="1.1"
   id="svg4"
   sodipodi:docname="folder-network.svg"
   inkscape:version="1.1.1 (3bf5ae0d25, 2021-09-20, custom)"
   xmlns:inkscape="http://www.inkscape.org/namespaces/inkscape"
   xmlns:sodipodi="http://sodipodi.sourceforge.net/DTD/sodipodi-0.dtd"
   xmlns="http://www.w3.org/2000/svg"
   xmlns:svg="http://www.w3.org/2000/svg">
 <defs>
  <style id="current-color-scheme" type="text/css">.ColorScheme-Text { color:#727272; } .ColorScheme-Highlight { color:#5294e2; }</style>
 </defs>
  <path
     d="M 8,2 C 4.6895,2 2,4.6895 2,8 c 0,3.3105 2.6895,6 6,6 3.3105,0 6,-2.6895 6,-6 C 14,4.6895 11.3105,2 8,2 Z M 7.97,2.7515 7.955,3.21425 8.64125,3.317 9.10475,2.8685 a 5.199,5.199 0 0 1 1.299,0.46875 l -0.16125,0.2595 0.4575,0.405 -0.4575,0.3825 0.1785,0.4575 1.017,-0.483 0.636,0.483 0.033,-0.10425 c 0.138,0.174 0.2625,0.35775 0.378,0.5475 l -0.64125,0.11625 -0.381,-0.40725 -1.1685,0.0765 -0.7125,1.119 0.48375,1.194 1.57575,0.483 0.30525,1.85625 0.38025,0.96525 0.2685,-0.15225 A 5.2515,5.2515 0 0 1 8,13.25 C 5.1035,13.25 2.75,10.8965 2.75,8 2.75,7.391 2.85875,6.80825 3.05,6.2645 l 0.0255,0.102 0.813,0.22875 1.06725,0.7875 0.0255,1.1445 0.687,0.9405 0.405,2.5425 0.73725,0.4575 L 6.608,11.52725 7.853,9.7985 8.387,8.63 7.142,7.46 5.79425,6.8255 5.2355,7.15475 4.574,6.16325 4.193,6.34175 3.863,5.78225 4.448,5.47775 5.006,5.80775 5.97275,4.613 7.37,3.749 6.989,3.0365 5.84525,3.4445 5.70275,3.28625 a 5.21025,5.21025 0 0 1 2.268,-0.53475 z"
     style="fill:currentColor" class="ColorScheme-Text" />
</svg>
