<svg width="16" height="16" version="1.1" xmlns="http://www.w3.org/2000/svg">
<defs>
<style id="current-color-scheme" type="text/css">.ColorScheme-Text { color:#444444; } .ColorScheme-Highlight { color:#4285f4; }</style>
</defs>
<g fill="#dfdfdf" fill-rule="evenodd">
<path d="m2.9905 1.001c-0.12219 0-0.24537 0.065765-0.291 0.19921l-1.7733 4.8005h4.1287l-1.7753-4.8005c-0.045648-0.13344-0.16686-0.19921-0.28905-0.19921z"/>
<path d="m5.0548 6.0006 2.9452 8.9994 2.9452-8.9994z"/>
<path d="m10.945 6.0006h4.1287l-1.7733-4.8005c-0.09126-0.26688-0.48874-0.26688-0.58005 0z"/>
<path d="m15.074 6.0006-7.0738 8.9994 7.7476-5.3473c0.21379-0.1475 0.30429-0.40969 0.22264-0.64839z"/>
<path d="m8 15-7.0738-8.9994-0.89644 3.0037c-0.081646 0.2387 0.0088995 0.50089 0.22264 0.64839z"/>
</g>
</svg>
