<svg width="16" height="16" version="1.1" viewBox="0 0 16 16" xmlns="http://www.w3.org/2000/svg">
<path d="m12.5 2a3.5 3.5 0 0 0-3.4531 2.9414l-2.4785 4.1152a3 3 0 0 0-0.56836-0.056641 3 3 0 0 0-1.3066 0.30273l-4.4258-2.5547a10 10 0 0 0-0.26758 2.252 10 10 0 0 0 0.072266 1.0996l2.9355 1.6934a3 3 0 0 0-0.0078125 0.20703 3 3 0 0 0 3 3 3 3 0 0 0 3-3 3 3 0 0 0-0.015625-0.2832l4.377-2.8301a3.5 3.5 0 0 0 2.6387-3.3867 3.5 3.5 0 0 0-3.5-3.5zm0 1a2.5 2.5 0 0 1 2.5 2.5 2.5 2.5 0 0 1-2.5 2.5 2.5 2.5 0 0 1-2.5-2.5 2.5 2.5 0 0 1 2.5-2.5zm-6.5 7a2 2 0 0 1 2 2 2 2 0 0 1-2 2 2 2 0 0 1-1.959-1.6113l0.70508 0.4082c0.71967 0.4155 1.6333 0.17084 2.0488-0.54883s0.17084-1.6333-0.54883-2.0488l-0.33789-0.19531a2 2 0 0 1 0.091797-0.003906z" fill="#dfdfdf"/>
<path d="m12.5 4a1.5 1.5 0 0 0-1.5 1.5 1.5 1.5 0 0 0 1.5 1.5 1.5 1.5 0 0 0 1.5-1.5 1.5 1.5 0 0 0-1.5-1.5z" fill="#dfdfdf"/>
</svg>
