<?xml version="1.0" encoding="UTF-8" standalone="no"?>
<svg
   version="1.1"
   viewBox="0 0 16 16"
   id="svg4"
   sodipodi:docname="folder-documents.svg"
   inkscape:version="1.1.1 (3bf5ae0d25, 2021-09-20, custom)"
   xmlns:inkscape="http://www.inkscape.org/namespaces/inkscape"
   xmlns:sodipodi="http://sodipodi.sourceforge.net/DTD/sodipodi-0.dtd"
   xmlns="http://www.w3.org/2000/svg"
   xmlns:svg="http://www.w3.org/2000/svg">
 <defs>
  <style id="current-color-scheme" type="text/css">.ColorScheme-Text { color:#727272; } .ColorScheme-Highlight { color:#5294e2; }</style>
 </defs>
  <path
     d="M 5.741475,13.999996 C 4.797825,13.989099 4.1073,14.022916 3.542775,13.711419 3.2604975,13.555674 3.0378525,13.291884 2.9143575,12.962881 2.790855,12.633879 2.7459,12.243196 2.7459,11.749981 V 4.2499812 C 2.7459,3.7567738 2.790825,3.3660313 2.9143575,3.0370813 3.0378675,2.7081238 3.260505,2.4456838 3.542775,2.2900138 4.107315,1.9786588 4.7979,2.0112763 5.741475,1.9999738 H 10.0584 l 3.1875,3.1875 v 6.5625002 c 0,0.493207 -0.04493,0.88395 -0.168457,1.2129 -0.12351,0.328957 -0.346148,0.591397 -0.628418,0.747067 -0.56454,0.311348 -1.2552,0.278738 -2.1987,0.29004 H 5.7444 Z m 0.0045,-0.75 h 4.5 c 0.94395,-0.01142 1.566825,-0.04491 1.841325,-0.19629 0.137565,-0.07587 0.215415,-0.159645 0.28857,-0.354495 0.0732,-0.19485 0.12012,-0.504922 0.12012,-0.9492 V 5.7500112 h -3 v -3 H 5.745915 c -0.94395,0.011423 -1.566825,0.04491 -1.841325,0.19629 -0.137565,0.07587 -0.215415,0.159645 -0.28857,0.354495 -0.0732,0.19485 -0.12012,0.5049225 -0.12012,0.9492 v 7.4999998 c 0,0.444293 0.04695,0.754275 0.12012,0.9492 0.0732,0.194933 0.1510125,0.278595 0.28857,0.354495 0.27447,0.151433 0.89745,0.185265 1.841325,0.19629 z m -0.75,-3 V 9.4999963 h 6 v 0.7499997 z m 0,-1.4999997 V 7.9999962 h 6 v 0.7500001 z m 0,-1.5000001 v -0.75 h 6 v 0.75 z m 0,4.4999998 v -0.75 h 3 v 0.75 z"
     style="fill:currentColor" class="ColorScheme-Text" />
</svg>
