<svg width="16" height="16" style="isolation:isolate" version="1.1" viewBox="0 0 16 16" xmlns="http://www.w3.org/2000/svg">
<defs>
<style id="current-color-scheme" type="text/css">.ColorScheme-Text { color:#dfdfdf; } .ColorScheme-Highlight { color:#5294e2; }</style>
</defs>
<path class="ColorScheme-Text" d="m11.324 11.768c-0.416-0.044-0.84-0.24-1.171-0.541l-0.123-0.112 0.13-0.152c0.617-0.723 0.836-1.664 0.601-2.58-0.031-0.121-0.079-0.274-0.107-0.339l-0.05-0.119 0.133-0.063c0.072-0.034 0.212-0.083 0.31-0.108 0.154-0.04 0.223-0.046 0.524-0.045 0.376 2e-3 0.522 0.028 0.777 0.141 0.626 0.277 1.039 0.773 1.204 1.448 0.052 0.213 0.056 0.63 9e-3 0.843-0.201 0.901-0.907 1.535-1.814 1.628-0.11 0.011-0.215 0.019-0.233 0.018s-0.103-0.01-0.19-0.019zm-6.602-0.055c-0.497-0.143-0.806-0.61-0.741-1.122 0.065-0.511 0.502-0.896 1.018-0.896 0.179 0 0.204 0.011 0.228 0.105 0.111 0.422 0.354 0.88 0.624 1.177l0.114 0.126-0.058 0.11c-0.123 0.232-0.388 0.438-0.652 0.507-0.151 0.039-0.384 0.036-0.533-7e-3zm-2.125-6e-3c-0.19-0.027-0.492-0.136-0.677-0.246-0.225-0.133-0.546-0.455-0.666-0.667-0.302-0.538-0.336-1.151-0.094-1.711 0.228-0.528 0.755-0.96 1.313-1.077 0.14-0.03 0.46-0.064 0.46-0.049-1e-3 4e-3 -0.014 0.079-0.029 0.166-0.037 0.206-0.038 0.574-1e-3 0.783 0.093 0.529 0.372 1.007 0.798 1.364l0.106 0.088-0.024 0.088c-0.032 0.118-0.032 0.419-1e-3 0.553 0.014 0.06 0.056 0.175 0.093 0.256 0.052 0.113 0.061 0.15 0.042 0.163-0.369 0.247-0.858 0.354-1.32 0.289zm4.951-9e-3c-0.956-0.171-1.747-0.852-2.053-1.768-0.096-0.288-0.121-0.457-0.121-0.829 0-0.384 0.019-0.511 0.121-0.827 0.294-0.905 1.058-1.575 2.013-1.766 0.259-0.051 0.677-0.055 0.94-8e-3 1.095 0.196 1.93 1.021 2.147 2.122 0.051 0.255 0.047 0.744-8e-3 0.995-0.116 0.53-0.349 0.963-0.72 1.338-0.403 0.407-0.88 0.653-1.449 0.746-0.222 0.036-0.659 0.035-0.87-3e-3zm6.263-0.068c-0.164-0.028-0.317-0.095-0.447-0.193-0.17-0.13-0.175-0.142-0.09-0.236 0.324-0.358 0.529-0.901 0.537-1.418l3e-3 -0.185 0.089-0.012c0.145-0.02 0.349 0.022 0.524 0.108 0.248 0.122 0.433 0.327 0.526 0.584 0.062 0.172 0.063 0.484 1e-3 0.662-0.078 0.223-0.249 0.438-0.436 0.548-0.208 0.123-0.49 0.18-0.707 0.142zm-10.066-1.612c-0.299-0.277-0.505-0.629-0.607-1.035-0.057-0.229-0.052-0.741 9e-3 -0.969 0.157-0.58 0.527-1.043 1.047-1.311 0.304-0.156 0.652-0.24 0.941-0.227l0.137 7e-3 0.042 0.158c0.068 0.25 0.191 0.506 0.334 0.698l0.049 0.066-0.117 0.18c-0.207 0.321-0.361 0.747-0.415 1.152-0.012 0.094-0.019 0.299-0.015 0.456l7e-3 0.284h-0.141c-0.437 0-0.843 0.22-1.072 0.582l-0.057 0.09zm6.629-2.502c-0.18-0.272-0.522-0.614-0.793-0.794l-0.201-0.132 0.023-0.074c0.012-0.042 0.022-0.22 0.022-0.417l1e-3 -0.343 0.208 0.011c0.701 0.039 1.301 0.447 1.602 1.089 0.071 0.151 0.141 0.387 0.163 0.548l0.01 0.072-0.122 0.013c-0.224 0.025-0.404 0.078-0.756 0.222-0.012 5e-3 -0.083-0.083-0.157-0.195zm-4.618-0.406c-0.097-0.151-0.184-0.344-0.238-0.533-0.039-0.133-0.045-0.199-0.044-0.49 1e-3 -0.308 6e-3 -0.35 0.054-0.509 0.138-0.449 0.399-0.802 0.78-1.056 0.26-0.174 0.54-0.271 0.857-0.301 0.786-0.072 1.513 0.334 1.863 1.04 0.138 0.278 0.191 0.515 0.189 0.845-1e-3 0.266-0.019 0.378-0.059 0.372-0.015-2e-3 -0.131-0.039-0.256-0.082-0.306-0.105-0.558-0.146-0.899-0.145-0.709 0-1.312 0.222-1.865 0.686-0.1 0.084-0.205 0.183-0.233 0.22s-0.057 0.067-0.064 0.067c-7e-3 -1e-3 -0.045-0.052-0.085-0.114zm-1.764-0.635c-0.051-0.099-0.09-0.28-0.09-0.417 1e-3 -0.429 0.283-0.807 0.697-0.932 0.236-0.072 0.614-0.028 0.776 0.089 0.036 0.027 0.036 0.032-0.018 0.185-0.073 0.21-0.11 0.43-0.111 0.659v0.19l-0.233 0.012c-0.272 0.014-0.543 0.078-0.782 0.182-0.089 0.04-0.172 0.076-0.185 0.082s-0.037-0.017-0.054-0.05z" color="#dfdfdf" fill="#dfdfdf"/>
</svg>
