<?xml version="1.0" encoding="UTF-8" standalone="no"?>
<svg
   version="1.1"
   viewBox="0 0 16 16"
   id="svg4"
   sodipodi:docname="folder-music.svg"
   inkscape:version="1.1.1 (3bf5ae0d25, 2021-09-20, custom)"
   xmlns:inkscape="http://www.inkscape.org/namespaces/inkscape"
   xmlns:sodipodi="http://sodipodi.sourceforge.net/DTD/sodipodi-0.dtd"
   xmlns="http://www.w3.org/2000/svg"
   xmlns:svg="http://www.w3.org/2000/svg">
 <defs>
  <style id="current-color-scheme" type="text/css">.ColorScheme-Text { color:#727272; } .ColorScheme-Highlight { color:#5294e2; }</style>
 </defs>
  <path
     d="m 12.098457,1.9109059 a 2.061,2.061 0 0 0 -0.3075,0.012 l -5.4074999,0.84375 c -0.60975,0.0615 -0.67575,0.3465 -0.6705,0.70125 v 7.1400001 c -0.30975,-0.204 -0.642,-0.34875 -1.08375,-0.34875 -0.57,0 -0.90975,0.2175 -1.11525,0.5055 -0.2055,0.28725 -0.27375,0.64875 -0.27375,0.9285 0,0.3375 0.11625,0.6975 0.366,0.97125 0.2505,0.2745 0.6345,0.46725 1.1865,0.46725 0.624,0 1.062,-0.174 1.31025,-0.5145 0.195,-0.26775 0.30375,-0.62625 0.34275,-1.06725 0.00525,-0.054 0.0075,-0.1095 0.01125,-0.16575 0.003,-0.045 0.00225,-0.0765 0.003,-0.129 h 0.003 V 5.4779059 c 0.0165,-0.465 0.438,-0.53325 0.438,-0.53325 l 4.3904999,-0.6855 c 0.42075,-0.129 0.4215,0.39225 0.4215,0.39225 v 5.2065 c -0.30975,-0.204 -0.642,-0.34875 -1.08375,-0.34875 -0.57,0 -0.9097499,0.2175 -1.1152499,0.5055001 -0.2055,0.28725 -0.27375,0.64875 -0.27375,0.9285 0,0.3375 0.11625,0.6975 0.366,0.97125 0.2505,0.2745 0.6344999,0.46725 1.1864999,0.46725 0.624,0 1.062,-0.174 1.31025,-0.5145 0.195,-0.26775 0.30375,-0.62625 0.34275,-1.06725 0.0053,-0.054 0.0075,-0.1095 0.01125,-0.16575 0.003,-0.045 0.0023,-0.0765 0.003,-0.129 h 0.003 V 2.5791559 c 0.009,-0.5145 -0.105,-0.65025 -0.3645,-0.66825 z"
     style="fill:currentColor" class="ColorScheme-Text" />
</svg>
