<?xml version="1.0" encoding="UTF-8" standalone="no"?>
<svg
   viewBox="0 0 16 16"
   version="1.1"
   id="svg1190"
   sodipodi:docname="user-bookmarks-symbolic.svg"
   inkscape:version="1.2 (1:1.2+202206011326+fc4e4096c5)"
   xmlns:inkscape="http://www.inkscape.org/namespaces/inkscape"
   xmlns:sodipodi="http://sodipodi.sourceforge.net/DTD/sodipodi-0.dtd"
   xmlns="http://www.w3.org/2000/svg"
   xmlns:svg="http://www.w3.org/2000/svg">
 <defs>
  <style id="current-color-scheme" type="text/css">.ColorScheme-Text { color:#727272; } .ColorScheme-Highlight { color:#5294e2; }</style>
 </defs>
  <path
     d="m 2,4.13075 v 6.75 c 0,1.5 0.75,1.5 2.25,1.5 H 6.5 c 0.73125,0 1.2015,0.6 1.2015,0.6 l 0.2925,0.3885 0.3,-0.3825 c 0,0 0.489,-0.59475 1.209,-0.606 h 2.247 c 1.5,0 2.25,0 2.25,-1.5 v -6.75 c 0,-1.5 -0.75,-1.5 -1.5,-1.5 v 0.75 c 0,0 0.75,0 0.75,0.75 v 6.75 c 0,0.75 -0.75,0.75 -1.5,0.75 H 9.494 c -0.76875,0.01125 -1.218,0.3585 -1.491,0.618 A 2.094,2.094 0 0 0 6.5,11.63075 H 4.25 c -0.75,0 -1.5,0 -1.5,-0.75 v -6.75 c 0,-0.75 0.75,-0.75 1.5,-0.75 H 6.5 C 7.23725,3.38075 7.7,3.98 7.7,3.98 L 8,4.38125 8.3,3.98 c 0,0 0.46275,-0.59925 1.2,-0.59925 v 5.25 l 2.25,-0.75 v -5.25 H 9.5 C 8.723,2.63075 8.27375,2.9795 8,3.24575 7.72625,2.9795 7.277,2.63075 6.5,2.63075 H 4.25 c -1.5,0 -2.25,0 -2.25,1.5 z m 2.25,0.75 v 0.75 H 6.5 v -0.75 z m 0,1.5 v 0.75 H 6.5 v -0.75 z m 0,1.5 v 0.75 H 6.5 v -0.75 z m 0,1.5 v 0.75 H 6.5 v -0.75 z"
     style="fill:currentColor" class="ColorScheme-Text"
     id="path1188" />
</svg>
