<?xml version="1.0" encoding="UTF-8" standalone="no"?>
<svg
   version="1.1"
   viewBox="0 0 16 16.001"
   id="svg4"
   sodipodi:docname="user-trash.svg"
   inkscape:version="1.1.1 (3bf5ae0d25, 2021-09-20, custom)"
   xmlns:inkscape="http://www.inkscape.org/namespaces/inkscape"
   xmlns:sodipodi="http://sodipodi.sourceforge.net/DTD/sodipodi-0.dtd"
   xmlns="http://www.w3.org/2000/svg"
   xmlns:svg="http://www.w3.org/2000/svg">
 <defs>
  <style id="current-color-scheme" type="text/css">.ColorScheme-Text { color:#727272; } .ColorScheme-Highlight { color:#5294e2; }</style>
 </defs>
  <path
     d="m 7.5,2.0001168 c -0.825,0 -1.60875,0.24 -1.60875,0.24 l -0.26625,0.081 v 1.26225 a 10.41,10.41 0 0 0 -2.2485,0.66675 l -0.0015,0.75 h -0.75 v 0.75 h 0.75 l 0.003,6.7500002 c 0,0.32925 0.03,0.591 0.1125,0.8115 0.08325,0.2205 0.23325,0.396 0.42225,0.501 0.37725,0.21 0.84,0.1875 1.46475,0.1875 h 4.248 c 0.62475,0 1.0875,0.0225 1.46475,-0.1875 0.189,-0.105 0.3375,-0.2805 0.42,-0.501 0.0825,-0.2205 0.11475,-0.48225 0.11475,-0.8115 L 11.6235,6.5001168 h -0.75 l 0.0015,6.0000002 c 0,0.282 -0.03,0.45225 -0.066,0.54675 -0.0255,0.0675 -0.0585,0.09675 -0.0825,0.1095 -0.12975,0.07275 -0.45825,0.09375 -1.101,0.09375 h -4.248 c -0.64275,0 -0.97125,-0.021 -1.10175,-0.09375 A 0.20025,0.20025 0 0 1 4.191,13.046867 v -0.0015 c -0.0345,-0.0915 -0.063,-0.261 -0.063,-0.54525 v -0.0015 L 4.125,5.7501168 h 8.25 v -0.75 h -0.7515 l 0.0015,-0.75 a 10.39125,10.39125 0 0 0 -2.25,-0.66675 v -1.24575 l -0.2475,-0.08925 c 0,0 -0.68475,-0.2475 -1.6275,-0.2475 z m 0,0.75 c 0.6675,0 0.9675,0.11625 1.125,0.165 v 0.55425 a 10.5375,10.5375 0 0 0 -1.1235,-0.063 c -0.3765,0 -0.75225,0.024 -1.1265,0.0645 v -0.5505 c 0.1995,-0.0525 0.579,-0.17025 1.125,-0.17025 z m -1.875,3.75 v 4.5000002 h 0.75 V 6.5001168 Z m 1.5,0 v 4.5000002 h 0.75 V 6.5001168 Z m 1.5,0 v 4.5000002 h 0.75 V 6.5001168 Z"
     style="fill:currentColor" class="ColorScheme-Text" />
</svg>
