<?xml version="1.0" encoding="UTF-8" standalone="no"?>
<svg
   width="16"
   height="16.001"
   version="1.1"
   id="svg16"
   sodipodi:docname="user-trash-full.svg"
   inkscape:version="1.1.1 (3bf5ae0d25, 2021-09-20, custom)"
   xmlns:inkscape="http://www.inkscape.org/namespaces/inkscape"
   xmlns:sodipodi="http://sodipodi.sourceforge.net/DTD/sodipodi-0.dtd"
   xmlns="http://www.w3.org/2000/svg"
   xmlns:svg="http://www.w3.org/2000/svg">
 <defs>
  <style id="current-color-scheme" type="text/css">.ColorScheme-Text { color:#727272; } .ColorScheme-Highlight { color:#5294e2; }</style>
 </defs>
  <g
     style="fill:currentColor" class="ColorScheme-Text"
     transform="matrix(0.75,0,0,0.75,2.1252487,2.0001113)">
    <path
       d="M 7.5,0 C 6.4,0 5.3555,0.32031 5.3555,0.32031 L 5.00003,0.42773 v 1.6836 C 3.97703,2.29733 2.97003,2.585 2.00203,3 v 1 h -1 v 1 h 1 v 9 c 0,0.439 0.040391,0.78803 0.15039,1.082 0.111,0.294 0.3105,0.52797 0.5625,0.66797 0.503,0.28 1.1201,0.25 1.9531,0.25 h 3.3301 v -1 h -3.3301 c -0.857,0 -1.2948,-0.028 -1.4688,-0.125 A 0.266,0.266 0 0 1 3.08594,14.72849 v -0.002 c -0.046,-0.122 -0.083984,-0.34756 -0.083984,-0.72656 v -9 h 11 v -1 h -1.002 v -1 a 13.856,13.856 0 0 0 -3,-0.88867 v -1.6621 l -0.33008,-0.11914 c 0,0 -0.91292,-0.33008 -2.1699,-0.33008 z m 0,1 C 8.39,1 8.791,1.1557 9,1.2207 V 1.95898 A 14.048,14.048 0 0 0 7.502,1.874996 c -0.501,0 -1.003,0.031938 -1.502,0.085938 v -0.73438 c 0.266,-0.07 0.773,-0.22656 1.5,-0.22656 z"
       id="path2" />
    <path
       d="m 5,6 v 6 H 6 V 6 Z"
       id="path4" />
    <path
       d="m 7,6 v 6 H 8 V 6 Z"
       id="path6" />
    <path
       d="m 9,6 v 4 h 1 V 6 Z"
       id="path8" />
    <path
       d="m 11.998,6 v 2 h 1 V 6 Z"
       id="path10" />
    <path
       d="m 11.5,9 a 0.5,0.5 0 0 0 -0.35352,0.85352 l 0.55664,0.55664 c -0.298,0.165 -0.49795,0.24895 -1.002,0.62695 -0.396,0.297 -0.80105,0.64683 -1.123,1.0488 C 9.25612,12.48791 9,12.95797 9,13.50001 c 0,0.861 0.34538,1.5863 0.98438,1.9863 0.64,0.4 1.4736,0.51367 2.5156,0.51367 1.042,0 1.8756,-0.11367 2.5156,-0.51367 0.64,-0.4 0.98438,-1.1253 0.98438,-1.9863 0,-0.542 -0.25612,-1.0121 -0.57812,-1.4141 -0.322,-0.402 -0.72509,-0.75183 -1.1211,-1.0488 -0.505,-0.379 -0.70691,-0.46195 -1.0039,-0.62695 L 13.85348,9.85352 A 0.5,0.5 0 0 0 13.49996,9 h -2 z m 1,2.0879 c 0.174,0.091 0.60517,0.303 1.2012,0.75 0.354,0.265 0.69845,0.57205 0.93945,0.87305 0.24,0.3 0.35938,0.58006 0.35938,0.78906 0,0.639 -0.15462,0.91367 -0.51562,1.1387 -0.36,0.225 -1.0264,0.36133 -1.9844,0.36133 -0.958,0 -1.6244,-0.13633 -1.9844,-0.36133 -0.36,-0.225 -0.51562,-0.49967 -0.51562,-1.1387 0,-0.208 0.11838,-0.48706 0.35938,-0.78906 0.24,-0.3 0.58841,-0.60805 0.94141,-0.87305 0.597,-0.447 1.0242,-0.658 1.1992,-0.75 z"
       style="fill:currentColor" class="ColorScheme-Text"/>
  </g>
</svg>
