<?xml version="1.0" encoding="UTF-8" standalone="no"?>
<svg
   version="1.1"
   viewBox="0 0 16 16"
   id="svg4"
   sodipodi:docname="user-desktop.svg"
   inkscape:version="1.1.1 (3bf5ae0d25, 2021-09-20, custom)"
   xmlns:inkscape="http://www.inkscape.org/namespaces/inkscape"
   xmlns:sodipodi="http://sodipodi.sourceforge.net/DTD/sodipodi-0.dtd"
   xmlns="http://www.w3.org/2000/svg"
   xmlns:svg="http://www.w3.org/2000/svg">
 <defs>
  <style id="current-color-scheme" type="text/css">.ColorScheme-Text { color:#727272; } .ColorScheme-Highlight { color:#5294e2; }</style>
 </defs>
  <path
     d="M 4.991465,3.625005 C 4.047815,3.63588 3.357365,3.602055 2.792765,3.9135825 2.5104575,4.0693425 2.28638,4.333155 2.162885,4.66212 2.0393975,4.9910925 1.99589,5.38182 1.99589,5.87502 v 5.25 c 0,0.493193 0.0435,0.88395 0.166995,1.2129 0.123495,0.328965 0.3475725,0.592778 0.62988,0.748538 0.5646075,0.311512 1.25505,0.277672 2.1987,0.288577 h 6.008925 c 0.94365,-0.01088 1.6341,0.02295 2.1987,-0.288577 0.282308,-0.15576 0.50493,-0.419573 0.628417,-0.748538 0.123113,-0.328972 0.168323,-0.7197 0.168323,-1.2129 v -5.25 c 0,-0.4931925 -0.045,-0.88395 -0.168458,-1.2129 C 13.703885,4.333155 13.481263,4.0693425 13.198955,3.9135825 12.634348,3.6020625 11.943905,3.63591 11.000255,3.625005 H 4.99283 Z m 0.0045,0.75 h 6 c 0.9447,0.011025 1.565325,0.04335 1.839825,0.1948275 0.13755,0.075885 0.216863,0.1609875 0.29004,0.3559575 0.07312,0.194955 0.12012,0.504915 0.12012,0.9492 v 5.25 c 0,0.444308 -0.04695,0.754275 -0.12012,0.9492 -0.0732,0.194963 -0.152505,0.280073 -0.29004,0.355958 -0.274552,0.151485 -0.8952,0.18381 -1.839825,0.194827 h -6 z"
     style="fill:currentColor" class="ColorScheme-Text" />
</svg>
