<?xml version="1.0" encoding="UTF-8" standalone="no"?>
<svg
   xmlns:osb="http://www.openswatchbook.org/uri/2009/osb"
   xmlns:dc="http://purl.org/dc/elements/1.1/"
   xmlns:cc="http://creativecommons.org/ns#"
   xmlns:rdf="http://www.w3.org/1999/02/22-rdf-syntax-ns#"
   xmlns:svg="http://www.w3.org/2000/svg"
   xmlns="http://www.w3.org/2000/svg"
   xmlns:sodipodi="http://sodipodi.sourceforge.net/DTD/sodipodi-0.dtd"
   xmlns:inkscape="http://www.inkscape.org/namespaces/inkscape"
   height="16"
   id="svg7384"
   version="1.1"
   width="16"
   sodipodi:docname="archive.svg"
   inkscape:version="0.92.3 (2405546, 2018-03-11)">
  <metadata
     id="metadata20854">
    <rdf:RDF>
      <cc:Work
         rdf:about="">
        <dc:title />
        <dc:format>image/svg+xml</dc:format>
        <dc:type
           rdf:resource="http://purl.org/dc/dcmitype/StillImage" />
      </cc:Work>
    </rdf:RDF>
  </metadata>
<defs>
  <style id="current-color-scheme" type="text/css">.ColorScheme-Text { color:#727272; } .ColorScheme-Highlight { color:#5294e2; }</style>
 </defs>
  <path
     inkscape:connector-curvature="0"
     style="fill:currentColor" class="ColorScheme-Text"
     id="path2732-8-1-3-8"
     d="M 4.9941,0 C 3.7359,0.0145 2.81521,-0.0306 2.06246,0.38477 1.68609,0.59243 1.38923,0.94415 1.22457,1.38281 1.0599,1.82148 0.99996,2.34239 0.99996,3 v 9 c 0,0.65761 0.0599,1.17858 0.22461,1.61719 0.16468,0.43861 0.46153,0.78852 0.83789,0.99609 C 2.81518,15.02841 3.736,14.98493 4.9941,15 h 0.002 5.00586 0.004 c 1.25819,-0.0145 2.17889,0.0306 2.93164,-0.38477 0.37637,-0.20766 0.67322,-0.55938 0.83789,-0.99804 C 13.94002,13.17852 13.99996,12.65761 13.99996,12 V 3 c 0,-0.65761 -0.0599,-1.17858 -0.22461,-1.61719 C 13.61067,0.9442 13.31382,0.59429 12.93746,0.38672 12.18474,-0.02841 11.26391,0.01507 10.00582,0 h -0.002 -5.00586 z m 0.006,1 h 5 c 1.25862,0.0152 2.0891,0.0599 2.45508,0.26172 0.18342,0.10116 0.28722,0.21286 0.38476,0.47266 C 12.93735,1.99417 12.99996,2.40761 12.99996,3 v 9 c 0,0.59239 -0.0626,1.00572 -0.16016,1.26562 -0.0976,0.25991 -0.20135,0.37147 -0.38476,0.47266 C 12.08908,13.9402 11.25848,13.98529 9.99996,14 H 5.00582 4.99996 C 3.74133,13.9848 2.91086,13.9401 2.54488,13.73828 2.36146,13.63712 2.25766,13.52542 2.16012,13.26562 2.06257,13.00583 1.99996,12.59239 1.99996,12 V 3 c 0,-0.59239 0.0626,-1.00572 0.16016,-1.26562 C 2.25772,1.47447 2.36343,1.36291 2.54684,1.26172 2.91279,1.05981 3.74144,1.0147 4.99996,1 Z" />
  <path
     inkscape:connector-curvature="0"
     style="fill:currentColor" class="ColorScheme-Text"
     id="rect3694-0"
     d="M 3.33366,10 C 3.149,10 3.00033,10.1115 3.00033,10.25 v 2.5 c 0,0.1385 0.14867,0.25 0.33333,0.25 h 2.33299 c 0.18466,0 0.33333,-0.1115 0.33333,-0.25 v -2.5 C 5.99998,10.1115 5.85131,10 5.66665,10 Z" />
  <rect
     y="12"
     x="8.9999905"
     width="3"
     style="fill:currentColor" class="ColorScheme-Text"
     ry="0.25"
     rx="0.25"
     id="rect3696-8"
     height="1" />
  <rect
     y="10"
     x="8.9999905"
     width="3"
     style="fill:currentColor" class="ColorScheme-Text"
     ry="0.25"
     rx="0.25"
     id="rect3698-8"
     height="1" />
  <rect
     y="1"
     x="6.9374905"
     width="1.0625"
     style="fill:currentColor" class="ColorScheme-Text"
     id="rect6221"
     height="13" />
</svg>
