<svg width="16" height="16" version="1.1" xmlns="http://www.w3.org/2000/svg"><defs>
  <style id="current-color-scheme" type="text/css">.ColorScheme-Text { color:#727272; } .ColorScheme-Highlight { color:#5294e2; }</style>
 </defs>
 <path d="m7.5 3v5.207l3.1465 3.1465 0.70704-0.70704-2.8535-2.8535v-4.793z" style="fill:currentColor" class="ColorScheme-Text"/>
 <path d="m8 0a8 8 0 0 0-8 8 8 8 0 0 0 8 8 8 8 0 0 0 8-8 8 8 0 0 0-8-8zm0 1a7 7 0 0 1 7 7 7 7 0 0 1-7 7 7 7 0 0 1-7-7 7 7 0 0 1 7-7z" style="fill:currentColor" class="ColorScheme-Text"/>
</svg>
