<svg version="1.1" viewBox="0 0 16 16" xmlns="http://www.w3.org/2000/svg"><defs>
  <style id="current-color-scheme" type="text/css">.ColorScheme-Text { color:#727272; } .ColorScheme-Highlight { color:#5294e2; }</style>
 </defs>
 <path d="m8 3a5 5 0 1 0 0 10 5 5 0 0 0 0-10z" style="fill:currentColor" class="ColorScheme-Text"/>
 <path d="m8.5 13.999h-1v2h1z" style="fill:currentColor" class="ColorScheme-Text"/>
 <path d="m3.404 11.889-1.414 1.414 0.707 0.707 1.414-1.414z" style="fill:currentColor" class="ColorScheme-Text"/>
 <path d="m12.596 11.889-0.707 0.707 1.414 1.414 0.707-0.707z" style="fill:currentColor" class="ColorScheme-Text"/>
 <path d="m2 7.5h-2v1h2z" style="fill:currentColor" class="ColorScheme-Text"/>
 <path d="m16 7.5h-2v1h2z" style="fill:currentColor" class="ColorScheme-Text"/>
 <path d="m2.697 1.99-0.707 0.707 1.414 1.413 0.707-0.707z" style="fill:currentColor" class="ColorScheme-Text"/>
 <path d="m13.303 1.99-1.413 1.414 0.707 0.707 1.414-1.414z" style="fill:currentColor" class="ColorScheme-Text"/>
 <path d="m8.5 0h-1v2h1z" style="fill:currentColor" class="ColorScheme-Text"/>
</svg>
