<svg xmlns="http://www.w3.org/2000/svg" width="16" height="16"> <defs>
  <style id="current-color-scheme" type="text/css">.ColorScheme-Text { color:#727272; } .ColorScheme-Highlight { color:#5294e2; }</style>
 </defs>
 <g fill="#dfdfdf" color="#000">
  <path d="M8 3v5a36.973 36.973 0 0 1-2.324-1.166A44.09 44.09 0 0 1 3.417 5.5a52.149 52.149 0 0 1 2.26-1.32A43.18 43.18 0 0 1 8 3z" overflow="visible" style="fill:currentColor" class="ColorScheme-Text"/>
  <path d="M7 5v1h4.5C12.894 6 14 7.106 14 8.5S12.894 11 11.5 11H1v1h10.5c1.93 0 3.5-1.57 3.5-3.5S13.43 5 11.5 5h-4z" font-family="sans-serif" font-weight="400" overflow="visible" style="fill:currentColor" class="ColorScheme-Text"/>
 </g>
</svg>
