<svg xmlns="http://www.w3.org/2000/svg" width="16" height="16">
<defs>
  <style id="current-color-scheme" type="text/css">.ColorScheme-Text { color:#727272; } .ColorScheme-Highlight { color:#5294e2; }</style>
 </defs>
 <path style="fill:currentColor" class="ColorScheme-Text" d="M8 1C4.128 1 1 4.128 1 8s3.128 7 7 7 7-3.128 7-7-3.128-7-7-7zm0 1a6 6 0 0 1 6 6 6 6 0 0 1-6 6 6 6 0 0 1-6-6 6 6 0 0 1 6-6zM5.854 5.146l-.708.708L7.293 8l-2.147 2.146.708.708L8 8.707l2.146 2.147.708-.708L8.707 8l2.147-2.146-.708-.708L8 7.293z" overflow="visible"/>
</svg>
