<?xml version="1.0" encoding="UTF-8" standalone="no"?>
<svg
   xmlns:dc="http://purl.org/dc/elements/1.1/"
   xmlns:cc="http://creativecommons.org/ns#"
   xmlns:rdf="http://www.w3.org/1999/02/22-rdf-syntax-ns#"
   xmlns:svg="http://www.w3.org/2000/svg"
   xmlns="http://www.w3.org/2000/svg"
   xmlns:sodipodi="http://sodipodi.sourceforge.net/DTD/sodipodi-0.dtd"
   xmlns:inkscape="http://www.inkscape.org/namespaces/inkscape"
   height="16"
   width="16"
   version="1.1"
   id="svg8"
   sodipodi:docname="filename-title-amarok.svg"
   inkscape:version="0.92.3 (2405546, 2018-03-11)">
  <metadata
     id="metadata14">
    <rdf:RDF>
      <cc:Work
         rdf:about="">
        <dc:format>image/svg+xml</dc:format>
        <dc:type
           rdf:resource="http://purl.org/dc/dcmitype/StillImage" />
      </cc:Work>
    </rdf:RDF>
  </metadata>
  <defs>
  <style id="current-color-scheme" type="text/css">.ColorScheme-Text { color:#727272; } .ColorScheme-Highlight { color:#5294e2; }</style>
 </defs>
  <path
     inkscape:connector-curvature="0"
     id="path2"
     overflow="visible"
     font-weight="400"
     style="fill:currentColor" class="ColorScheme-Text"
     d="M 4.994,1 C 3.736,1.015 2.815,0.97 2.062,1.385 A 1.88,1.88 0 0 0 1.225,2.383 C 1.06,2.821 1,3.343 1,4 V 15 H 15 V 4 C 15,3.342 14.94,2.821 14.775,2.383 A 1.88,1.88 0 0 0 13.938,1.385 C 13.185,0.969 12.264,1.015 11.006,1 H 4.998 Z M 5,2 h 6 c 1.259,0.015 2.087,0.06 2.453,0.262 0.184,0.1 0.29,0.212 0.387,0.472 C 13.937,2.994 14,3.408 14,4 V 14 H 2 V 4 C 2,3.408 2.063,2.994 2.16,2.734 2.258,2.474 2.362,2.363 2.545,2.262 2.911,2.06 3.741,2.015 5,2 Z" />
  <rect
     style="fill:currentColor" class="ColorScheme-Text"
     id="rect4"
     y="2"
     x="4"
     width="8"
     height="4" />
</svg>
