<?xml version="1.0" encoding="UTF-8" standalone="no"?>
<svg
   xmlns:dc="http://purl.org/dc/elements/1.1/"
   xmlns:cc="http://creativecommons.org/ns#"
   xmlns:rdf="http://www.w3.org/1999/02/22-rdf-syntax-ns#"
   xmlns:svg="http://www.w3.org/2000/svg"
   xmlns="http://www.w3.org/2000/svg"
   xmlns:sodipodi="http://sodipodi.sourceforge.net/DTD/sodipodi-0.dtd"
   xmlns:inkscape="http://www.inkscape.org/namespaces/inkscape"
   width="16"
   height="16"
   version="1.1"
   viewBox="0 0 16 16"
   id="svg13"
   sodipodi:docname="giggle-branch.svg"
   inkscape:version="0.92.3 (2405546, 2018-03-11)">
  <metadata
     id="metadata17">
    <rdf:RDF>
      <cc:Work
         rdf:about="">
        <dc:format>image/svg+xml</dc:format>
        <dc:type
           rdf:resource="http://purl.org/dc/dcmitype/StillImage" />
      </cc:Work>
    </rdf:RDF>
  </metadata>
<defs>
  <style id="current-color-scheme" type="text/css">.ColorScheme-Text { color:#727272; } .ColorScheme-Highlight { color:#5294e2; }</style>
 </defs>
  <path
     style="fill:currentColor" class="ColorScheme-Text"
     d="M 4.5 10 A 2.5 2.5 0 0 0 2 12.5 A 2.5 2.5 0 0 0 4.5 15 A 2.5 2.5 0 0 0 7 12.5 A 2.5 2.5 0 0 0 4.5 10 z M 4.5 11 A 1.5 1.5 0 0 1 6 12.5 A 1.5 1.5 0 0 1 4.5 14 A 1.5 1.5 0 0 1 3 12.5 A 1.5 1.5 0 0 1 4.5 11 z "
     id="circle5" />
  <path
     style="fill:currentColor" class="ColorScheme-Text"
     d="M 4.5 1 A 2.5 2.5 0 0 0 2 3.5 A 2.5 2.5 0 0 0 4.5 6 A 2.5 2.5 0 0 0 7 3.5 A 2.5 2.5 0 0 0 4.5 1 z M 4.5 2 A 1.5 1.5 0 0 1 6 3.5 A 1.5 1.5 0 0 1 4.5 5 A 1.5 1.5 0 0 1 3 3.5 A 1.5 1.5 0 0 1 4.5 2 z "
     id="circle7" />
  <path
     style="fill:currentColor" class="ColorScheme-Text"
     d="M 11.5 8 A 2.5 2.5 0 0 0 9 10.5 A 2.5 2.5 0 0 0 11.5 13 A 2.5 2.5 0 0 0 14 10.5 A 2.5 2.5 0 0 0 11.5 8 z M 11.5 9 A 1.5 1.5 0 0 1 13 10.5 A 1.5 1.5 0 0 1 11.5 12 A 1.5 1.5 0 0 1 10 10.5 A 1.5 1.5 0 0 1 11.5 9 z "
     id="circle9" />
  <path
     style="fill:currentColor" class="ColorScheme-Text"
     d="M 5.8515625 4.1445312 A 1.5 1.5 0 0 1 4.5 5 A 1.5 1.5 0 0 1 4 4.9121094 L 4 11.087891 A 1.5 1.5 0 0 1 4.5 11 A 1.5 1.5 0 0 1 5 11.087891 L 5 5.2929688 C 5.1467652 5.2509948 5.280623 5.1952267 5.4140625 5.1210938 L 10.148438 9.8554688 A 1.5 1.5 0 0 1 10.855469 9.1484375 L 5.8515625 4.1445312 z M 10.003906 10.408203 L 5.7207031 11.632812 A 1.5 1.5 0 0 1 6 12.5 A 1.5 1.5 0 0 1 5.9960938 12.591797 L 10.279297 11.369141 A 1.5 1.5 0 0 1 10 10.5 A 1.5 1.5 0 0 1 10.003906 10.408203 z "
     id="path11" />
</svg>
