<svg width="16" height="16" version="1.1" xmlns="http://www.w3.org/2000/svg">
<defs>
  <style id="current-color-scheme" type="text/css">.ColorScheme-Text { color:#727272; } .ColorScheme-Highlight { color:#5294e2; }</style>
 </defs>
 <path d="m14 5v-2h-2.002z" style="fill:currentColor" class="ColorScheme-Text" overflow="visible"/>
 <path d="m2 7v8h9v-1h-8v-7.667zm11.002-1-2e-3 9h1v-8z" style="fill:currentColor" class="ColorScheme-Text"/>
 <path d="m8 8.986a8.47 8.47 0 0 1 0.607-0.122 5.24 5.24 0 0 1 0.872-0.064c0.295 0 0.54 0.043 0.735 0.129 0.195 0.08 0.35 0.197 0.465 0.35 0.119 0.147 0.202 0.326 0.25 0.535 0.047 0.21 0.071 0.44 0.071 0.693v3.693h-3z" style="fill:currentColor" class="ColorScheme-Text"/>
 <path d="m8 0.293-7.854 7.853 0.708 0.708 7.146-7.147 7.146 7.147 0.708-0.708z" style="fill:currentColor" class="ColorScheme-Text"/>
</svg>
