<svg xmlns="http://www.w3.org/2000/svg" width="16" height="16" version="1.1"><defs>
  <style id="current-color-scheme" type="text/css">.ColorScheme-Text { color:#727272; } .ColorScheme-Highlight { color:#5294e2; }</style>
 </defs>
 <g transform="translate(-31.97559,-220.36218)">
  <path style="fill:currentColor" class="ColorScheme-Text" d="m 45,225.3622 -10,0 0,-5 10,4 z"/>
  <path d="m 45,230.3622 -10,0 0,5 10,-4 z" style="fill:currentColor" class="ColorScheme-Text"/>
  <path style="fill:currentColor" class="ColorScheme-Text" d="m 1.02441,7.00002 0,1 2,0 0,-1 -2,0" transform="translate(31.97559,220.36218)"/>
  <path style="fill:currentColor" class="ColorScheme-Text" d="m 4.02441,7.00002 0,1 2,0 0,-1 -2,0" transform="translate(31.97559,220.36218)"/>
  <path d="m 39,227.3622 0,1 2,0 0,-1" style="fill:currentColor" class="ColorScheme-Text"/>
  <path style="fill:currentColor" class="ColorScheme-Text" d="m 42,227.3622 0,1 2,0 0,-1"/>
  <path d="m 45,227.3622 0,1 2,0 0,-1" style="fill:currentColor" class="ColorScheme-Text"/>
 </g>
</svg>
