<svg xmlns="http://www.w3.org/2000/svg" width="16" height="16" version="1.1"><defs>
  <style id="current-color-scheme" type="text/css">.ColorScheme-Text { color:#727272; } .ColorScheme-Highlight { color:#5294e2; }</style>
 </defs>
 <g transform="translate(-31.97559,-220.36218)">
  <path style="fill:currentColor" class="ColorScheme-Text" d="m 37,223.3622 0,10 -5,0 4,-10 z"/>
  <path d="m 42,223.3622 0,10 5,0 -4,-10 z" style="fill:currentColor" class="ColorScheme-Text"/>
  <path style="fill:currentColor" class="ColorScheme-Text" d="m 7.0244098,1.00002 1,0 0,2 -1,0 z" transform="translate(31.97559,220.36218)"/>
  <path style="fill:currentColor" class="ColorScheme-Text" d="m 7.0244098,4.00002 1,0 0,2 -1,0 z" transform="translate(31.97559,220.36218)"/>
  <path style="fill:currentColor" class="ColorScheme-Text" d="m 7.0244098,7.00002 1,0 0,2 -1,0 z" transform="translate(31.97559,220.36218)"/>
  <path style="fill:currentColor" class="ColorScheme-Text" d="m 7.0244098,10.00002 1,0 0,2 -1,0 z" transform="translate(31.97559,220.36218)"/>
  <path style="fill:currentColor" class="ColorScheme-Text" d="m 7.0244098,13.00002 1,0 0,2 -1,0 z" transform="translate(31.97559,220.36218)"/>
 </g>
</svg>
