<?xml version="1.0" encoding="UTF-8" standalone="no"?>
<svg
   xmlns:osb="http://www.openswatchbook.org/uri/2009/osb"
   xmlns:dc="http://purl.org/dc/elements/1.1/"
   xmlns:cc="http://creativecommons.org/ns#"
   xmlns:rdf="http://www.w3.org/1999/02/22-rdf-syntax-ns#"
   xmlns:svg="http://www.w3.org/2000/svg"
   xmlns="http://www.w3.org/2000/svg"
   xmlns:sodipodi="http://sodipodi.sourceforge.net/DTD/sodipodi-0.dtd"
   xmlns:inkscape="http://www.inkscape.org/namespaces/inkscape"
   height="16.000032"
   id="svg7384"
   version="1.1"
   width="16.000031"
   sodipodi:docname="iso-image-new.svg"
   inkscape:version="0.92.2 (unknown)">
  <sodipodi:namedview
     pagecolor="#ffffff"
     bordercolor="#dfdfdf"
     borderopacity="1"
     objecttolerance="10"
     gridtolerance="10"
     guidetolerance="10"
     inkscape:pageopacity="0"
     inkscape:pageshadow="2"
     inkscape:window-width="1920"
     inkscape:window-height="1013"
     id="namedview16"
     showgrid="false"
     inkscape:zoom="14.74997"
     inkscape:cx="8.0000153"
     inkscape:cy="8.0000162"
     inkscape:window-x="0"
     inkscape:window-y="34"
     inkscape:window-maximized="1"
     inkscape:current-layer="svg7384" />
  <metadata
     id="metadata20854">
    <rdf:RDF>
      <cc:Work
         rdf:about="">
        <dc:title></dc:title>
        <dc:format>image/svg+xml</dc:format>
        <dc:type
           rdf:resource="http://purl.org/dc/dcmitype/StillImage" />
      </cc:Work>
    </rdf:RDF>
  </metadata>
<defs>
  <style id="current-color-scheme" type="text/css">.ColorScheme-Text { color:#727272; } .ColorScheme-Highlight { color:#5294e2; }</style>
 </defs>
  <g
     id="layer9"
     label="status"
     style="display:inline"
     transform="translate(-513.0002,207)" />
  <g
     id="layer2"
     transform="translate(-272,-160)" />
  <g
     id="layer3"
     style="display:inline"
     transform="translate(-272,-160)" />
  <g
     id="g6217"
     transform="translate(-272,-160)">
    <path
       d="m 280,165 a 3,3 0 0 0 -3,3 3,3 0 0 0 3,3 3,3 0 0 0 3,-3 3,3 0 0 0 -3,-3 z m 0,1.5 a 1.5,1.5 0 0 1 1.5,1.5 1.5,1.5 0 0 1 -1.5,1.5 1.5,1.5 0 0 1 -1.5,-1.5 1.5,1.5 0 0 1 1.5,-1.5 z"
       id="path7100"
       style="fill:currentColor" class="ColorScheme-Text" />
    <path
       style="fill:currentColor" class="ColorScheme-Text"
       d="M 8 0 A 8 8 0 0 0 0 8 A 8 8 0 0 0 8 16 A 8 8 0 0 0 9.4921875 15.855469 L 9.4921875 14.830078 A 7 7 0 0 1 8 15 A 7 7 0 0 1 1 8 A 7 7 0 0 1 8 1 A 7 7 0 0 1 15 8 A 7 7 0 0 1 14.355469 10.916016 L 15.449219 10.916016 A 8 8 0 0 0 16 8 A 8 8 0 0 0 8 0 z "
       transform="translate(272,160)"
       id="path7069" />
  </g>
  <g
     id="layer1"
     transform="translate(-272,-160)" />
  <path
     inkscape:connector-curvature="0"
     d="m 12.500001,11.000032 v 2 H 10.5 v 1 h 2.000001 v 2 h 1 v -2 h 2 v -1 h -2 v -2 z"
     id="path5656-3"
     style="fill:currentColor" class="ColorScheme-Text" />
</svg>
