<?xml version="1.0" encoding="UTF-8" standalone="no"?>
<svg
   xmlns:dc="http://purl.org/dc/elements/1.1/"
   xmlns:cc="http://creativecommons.org/ns#"
   xmlns:rdf="http://www.w3.org/1999/02/22-rdf-syntax-ns#"
   xmlns:svg="http://www.w3.org/2000/svg"
   xmlns="http://www.w3.org/2000/svg"
   xmlns:sodipodi="http://sodipodi.sourceforge.net/DTD/sodipodi-0.dtd"
   xmlns:inkscape="http://www.inkscape.org/namespaces/inkscape"
   height="16"
   width="16"
   version="1.1"
   id="svg10"
   sodipodi:docname="kdenlive-hide-audio.svg"
   inkscape:version="0.92.3 (2405546, 2018-03-11)">
  <metadata
     id="metadata16">
    <rdf:RDF>
      <cc:Work
         rdf:about="">
        <dc:format>image/svg+xml</dc:format>
        <dc:type
           rdf:resource="http://purl.org/dc/dcmitype/StillImage" />
      </cc:Work>
    </rdf:RDF>
  </metadata>
<defs>
  <style id="current-color-scheme" type="text/css">.ColorScheme-Text { color:#727272; } .ColorScheme-Highlight { color:#5294e2; }</style>
 </defs>
  <path
     style="fill:currentColor" class="ColorScheme-Text"
     inkscape:connector-curvature="0"
     id="path2"
     d="M 8,1.333 4.5,5 H 1.87 C 1.87,5 1,5.893 1,8.001 1,10.11 1.87,11 1.87,11 H 4.5 L 8,14.667 Z" />
  <path
     inkscape:connector-curvature="0"
     id="path4"
     overflow="visible"
     font-weight="400"
     style="fill:currentColor" class="ColorScheme-Text"
     d="m 10.524,4.926 -0.707,0.707 0.354,0.354 a 2.999,2.999 0 0 1 0,4.242 l -0.354,0.353 0.707,0.707 0.354,-0.353 a 4,4 0 0 0 0,-5.656 z" />
  <path
     inkscape:connector-curvature="0"
     id="path6"
     overflow="visible"
     font-weight="400"
     style="fill:currentColor" class="ColorScheme-Text"
     d="m 12.645,2.805 -0.707,0.707 0.354,0.353 a 5.999,5.999 0 0 1 0,8.485 l -0.354,0.353 0.707,0.707 0.354,-0.353 a 7,7 0 0 0 0,-9.899 z" />
</svg>
