<?xml version="1.0" encoding="UTF-8" standalone="no"?>
<svg
   xmlns:dc="http://purl.org/dc/elements/1.1/"
   xmlns:cc="http://creativecommons.org/ns#"
   xmlns:rdf="http://www.w3.org/1999/02/22-rdf-syntax-ns#"
   xmlns:svg="http://www.w3.org/2000/svg"
   xmlns="http://www.w3.org/2000/svg"
   xmlns:sodipodi="http://sodipodi.sourceforge.net/DTD/sodipodi-0.dtd"
   xmlns:inkscape="http://www.inkscape.org/namespaces/inkscape"
   width="16"
   height="16.045"
   version="1.1"
   id="svg8"
   sodipodi:docname="mail-unread-new.svg"
   inkscape:version="0.92.3 (2405546, 2018-03-11)">
  <metadata
     id="metadata14">
    <rdf:RDF>
      <cc:Work
         rdf:about="">
        <dc:format>image/svg+xml</dc:format>
        <dc:type
           rdf:resource="http://purl.org/dc/dcmitype/StillImage" />
      </cc:Work>
    </rdf:RDF>
  </metadata>
<defs>
  <style id="current-color-scheme" type="text/css">.ColorScheme-Text { color:#727272; } .ColorScheme-Highlight { color:#5294e2; }</style>
 </defs>
  <path
     style="overflow:visible;fill:currentColor;opacity:0.5" class="ColorScheme-Text"
     inkscape:connector-curvature="0"
     id="path2"
     overflow="visible"
     d="m 2.498,3.052 c -0.83,0 -1.5,0.669 -1.5,1.5 v 7 c 0,0.831 0.67,1.5 1.5,1.5 h 6.5 v -1 h -6.5 a 0.499,0.499 0 0 1 -0.5,-0.5 V 4.566 L 7.69,8.948 c 0.015,0.013 0.034,0.016 0.05,0.026 0.018,0.01 0.036,0.019 0.055,0.027 0.038,0.017 0.075,0.03 0.115,0.037 0.03,0.006 0.058,0.006 0.088,0.006 0.03,0 0.059,0 0.088,-0.006 A 0.489,0.489 0 0 0 8.201,9.001 C 8.221,8.992 8.238,8.985 8.256,8.974 8.273,8.964 8.291,8.961 8.306,8.948 l 5.692,-4.384 v 4.488 h 1 v -4.5 c 0,-0.831 -0.669,-1.5 -1.5,-1.5 z m 0.475,1 H 13.022 L 7.998,7.923 Z" />
  <path
     style="overflow:visible;fill:currentColor;opacity:0.5" class="ColorScheme-Text"
     inkscape:connector-curvature="0"
     id="path4"
     overflow="visible"
     d="m 11.998,10.055 v 1.996 h -2 v 1.998 h 2 v 1.996 h 2 v -1.996 h 2 v -1.998 h -2 v -1.996 z" />
</svg>
