<?xml version="1.0" encoding="UTF-8" standalone="no"?>
<svg
   xmlns:osb="http://www.openswatchbook.org/uri/2009/osb"
   xmlns:dc="http://purl.org/dc/elements/1.1/"
   xmlns:cc="http://creativecommons.org/ns#"
   xmlns:rdf="http://www.w3.org/1999/02/22-rdf-syntax-ns#"
   xmlns:svg="http://www.w3.org/2000/svg"
   xmlns="http://www.w3.org/2000/svg"
   xmlns:sodipodi="http://sodipodi.sourceforge.net/DTD/sodipodi-0.dtd"
   xmlns:inkscape="http://www.inkscape.org/namespaces/inkscape"
   height="16"
   id="svg7384"
   version="1.1"
   width="16"
   sodipodi:docname="map-globe.svg"
   inkscape:version="0.92.3 (2405546, 2018-03-11)">
  <metadata
     id="metadata20854">
    <rdf:RDF>
      <cc:Work
         rdf:about="">
        <dc:title />
        <dc:format>image/svg+xml</dc:format>
        <dc:type
           rdf:resource="http://purl.org/dc/dcmitype/StillImage" />
      </cc:Work>
    </rdf:RDF>
  </metadata>
 <defs>
  <style id="current-color-scheme" type="text/css">.ColorScheme-Text { color:#727272; } .ColorScheme-Highlight { color:#5294e2; }</style>
 </defs>
  <g
     id="layer9"
     label="status"
     style="fill:currentColor" class="ColorScheme-Text"
     transform="translate(-853.00024,207)" />
  <g
     id="layer2"
     style="fill:currentColor" class="ColorScheme-Text"
     transform="translate(-612.00004,-160)" />
  <g
     id="layer4"
     style="fill:currentColor" class="ColorScheme-Text"
     transform="translate(-612.00004,-160)" />
  <g
     id="g1812"
     style="fill:currentColor" class="ColorScheme-Text"
     transform="translate(-612.00004,-160)" />
  <g
     id="g6217"
     style="fill:currentColor" class="ColorScheme-Text"
     transform="translate(-612.00004,-160)" />
  <g
     id="layer3"
     style="fill:currentColor" class="ColorScheme-Text"
     transform="translate(-612.00004,-160)" />
  <g
     id="g1833"
     style="fill:currentColor" class="ColorScheme-Text"
     transform="translate(-612.00004,-160)">
    <path
       d="m 620.5,160 c -4.13621,0 -7.5,3.36379 -7.5,7.5 0,4.13621 3.36379,7.5 7.5,7.5 4.13621,0 7.5,-3.36379 7.5,-7.5 0,-4.13621 -3.36379,-7.5 -7.5,-7.5 z m 0,1 c 3.59577,0 6.5,2.90423 6.5,6.5 0,3.59577 -2.90423,6.5 -6.5,6.5 -3.59577,0 -6.5,-2.90423 -6.5,-6.5 0,-3.59577 2.90423,-6.5 6.5,-6.5 z"
       id="circle4880"
       style="fill:currentColor" class="ColorScheme-Text" />
    <path
       d="m 613.5,167 v 1 h 14 v -1 z"
       id="path4882"
       style="fill:currentColor" class="ColorScheme-Text" />
    <path
       d="m 620.85352,160.14648 -0.70704,0.70704 c 2.07402,2.07401 3.10919,4.52027 3.08399,6.68164 -0.0256,2.19636 -1.00756,4.53488 -3.08399,6.61132 l 0.70704,0.70704 c 2.23125,-2.23128 3.34796,-4.81979 3.37695,-7.30664 0.029,-2.48649 -1.14329,-5.16673 -3.37695,-7.4004 z"
       id="path4884"
       style="fill:currentColor" class="ColorScheme-Text" />
    <path
       d="m 620.14648,160.14648 c -2.23365,2.23367 -3.40596,4.9139 -3.37695,7.4004 0.029,2.48685 1.14571,5.07536 3.37695,7.30664 l 0.70704,-0.70704 c -2.07642,-2.07644 -3.05838,-4.41496 -3.08399,-6.61132 -0.0252,-2.16137 1.00998,-4.60763 3.08399,-6.68164 z"
       id="path4886"
       style="fill:currentColor" class="ColorScheme-Text" />
  </g>
  <g
     id="layer1"
     style="fill:currentColor" class="ColorScheme-Text"
     transform="translate(-612.00004,-160)" />
</svg>
