<svg xmlns="http://www.w3.org/2000/svg" width="16" height="16"><defs>
  <style id="current-color-scheme" type="text/css">.ColorScheme-Text { color:#727272; } .ColorScheme-Highlight { color:#5294e2; }</style>
 </defs>
 <path style="fill:currentColor" class="ColorScheme-Text" d="M8 1a4 4 0 0 0-4 4 4 4 0 0 0 .254 1.395 4 4 0 0 1-.068-.192C4.918 8.401 6.392 12.585 8 15.77c1.608-3.185 3.082-7.37 3.814-9.567A4 4 0 0 0 12 5a4 4 0 0 0-4-4zm0 1a3 3 0 0 1 3 3 3 3 0 0 1-3 3 3 3 0 0 1-3-3 3 3 0 0 1 3-3z" overflow="visible"/>
</svg>
