<svg version="1.1" viewBox="0 0 16 16" xmlns="http://www.w3.org/2000/svg"><defs>
  <style id="current-color-scheme" type="text/css">.ColorScheme-Text { color:#727272; } .ColorScheme-Highlight { color:#5294e2; }</style>
 </defs>
 <path d="m11 10v2h-11v1h11.002v2c0.76-0.348 1.534-0.736 2.322-1.166 0.781-0.43 1.533-0.876 2.258-1.334-0.725-0.45-1.477-0.89-2.258-1.32a43.094 43.094 0 0 0-2.324-1.18z" style="fill:currentColor" class="ColorScheme-Text"/>
 <path d="m11 1v2h-11v1h11.002v2c0.76-0.348 1.534-0.736 2.322-1.166 0.781-0.43 1.533-0.876 2.258-1.334-0.725-0.45-1.477-0.89-2.258-1.32a43.094 43.094 0 0 0-2.324-1.18z" style="fill:currentColor" class="ColorScheme-Text"/>
</svg>
