<?xml version="1.0" encoding="UTF-8" standalone="no"?>
<svg
   xmlns:dc="http://purl.org/dc/elements/1.1/"
   xmlns:cc="http://creativecommons.org/ns#"
   xmlns:rdf="http://www.w3.org/1999/02/22-rdf-syntax-ns#"
   xmlns:svg="http://www.w3.org/2000/svg"
   xmlns="http://www.w3.org/2000/svg"
   xmlns:sodipodi="http://sodipodi.sourceforge.net/DTD/sodipodi-0.dtd"
   xmlns:inkscape="http://www.inkscape.org/namespaces/inkscape"
   height="16"
   width="16"
   version="1.1"
   id="svg4"
   sodipodi:docname="run-build-clean.svg"
   inkscape:version="0.92.3 (2405546, 2018-03-11)">
  <metadata
     id="metadata10">
    <rdf:RDF>
      <cc:Work
         rdf:about="">
        <dc:format>image/svg+xml</dc:format>
        <dc:type
           rdf:resource="http://purl.org/dc/dcmitype/StillImage" />
      </cc:Work>
    </rdf:RDF>
  </metadata>
<defs>
  <style id="current-color-scheme" type="text/css">.ColorScheme-Text { color:#727272; } .ColorScheme-Highlight { color:#5294e2; }</style>
 </defs>
  <path
     style="fill:currentColor" class="ColorScheme-Text"
     d="M 8 0 L 5.6894531 1.6503906 L 2.8574219 1.8710938 L 2.1484375 4.6210938 L 0.12109375 6.6113281 L 1.3457031 9.1738281 L 1.0722656 12 L 3.6582031 13.175781 L 5.2636719 15.517578 L 8 14.757812 L 10.736328 15.517578 L 12.341797 13.175781 L 14.927734 12 L 14.654297 9.1738281 L 15.880859 6.609375 L 13.853516 4.6191406 L 13.142578 1.8691406 L 10.3125 1.6503906 L 8 0 z M 8.5 4 L 9.1894531 4.71875 L 6.9082031 7 L 11.001953 7 L 11.001953 8 L 6.9082031 8 L 9.1894531 10.28125 L 8.5 11 L 5.1875 7.71875 L 5 7.5 L 5.1875 7.28125 L 8.5 4 z "
     id="path11" />
</svg>
