<?xml version="1.0" encoding="UTF-8" standalone="no"?>
<svg
   xmlns:osb="http://www.openswatchbook.org/uri/2009/osb"
   xmlns:dc="http://purl.org/dc/elements/1.1/"
   xmlns:cc="http://creativecommons.org/ns#"
   xmlns:rdf="http://www.w3.org/1999/02/22-rdf-syntax-ns#"
   xmlns:svg="http://www.w3.org/2000/svg"
   xmlns="http://www.w3.org/2000/svg"
   xmlns:sodipodi="http://sodipodi.sourceforge.net/DTD/sodipodi-0.dtd"
   xmlns:inkscape="http://www.inkscape.org/namespaces/inkscape"
   height="16"
   id="svg7384"
   version="1.1"
   width="16"
   sodipodi:docname="tools-rip-audio-cd.svg"
   inkscape:version="0.92.3 (2405546, 2018-03-11)">
  <sodipodi:namedview
     pagecolor="#ffffff"
     bordercolor="#dfdfdf"
     borderopacity="1"
     objecttolerance="10"
     gridtolerance="10"
     guidetolerance="10"
     inkscape:pageopacity="0"
     inkscape:pageshadow="2"
     inkscape:window-width="640"
     inkscape:window-height="480"
     id="namedview21"
     showgrid="false"
     inkscape:zoom="18.25"
     inkscape:cx="-1.5342466"
     inkscape:cy="7.5616438"
     inkscape:current-layer="svg7384" />
  <metadata
     id="metadata20854">
    <rdf:RDF>
      <cc:Work
         rdf:about="">
        <dc:title />
        <dc:format>image/svg+xml</dc:format>
        <dc:type
           rdf:resource="http://purl.org/dc/dcmitype/StillImage" />
      </cc:Work>
    </rdf:RDF>
  </metadata>
  <defs>
  <style id="current-color-scheme" type="text/css">.ColorScheme-Text { color:#727272; } .ColorScheme-Highlight { color:#5294e2; }</style>
 </defs>
  <g
     id="layer9"
     label="status"
     style="display:inline"
     transform="translate(-893.00024,107.00001)" />
  <g
     id="layer2"
     style="display:inline"
     transform="translate(-652.00004,-259.99999)" />
  <g
     id="layer4"
     style="display:inline"
     transform="translate(-652.00004,-259.99999)" />
  <g
     id="g1812"
     style="display:inline"
     transform="translate(-652.00004,-259.99999)" />
  <g
     id="g6217"
     style="display:inline"
     transform="translate(-652.00004,-259.99999)" />
  <g
     id="layer3"
     style="display:inline"
     transform="translate(-652.00004,-259.99999)" />
  <path
     inkscape:connector-curvature="0"
     style="fill:currentColor" class="ColorScheme-Text"
     id="path2341-3"
     d="m 13.51367,0.04103 c -0.11528,-0.008 -0.25052,0.002 -0.41015,0.0156 l -7.20899,1.125 C 5.08121,1.26443 4.99277,1.64409 5,2.11717 V 11.6367 C 4.58662,11.36515 4.14423,11.17186 3.55469,11.17186 c -0.75911,0 -1.21229,0.29098 -1.48633,0.67383 -0.27403,0.38285 -0.36524,0.86524 -0.36524,1.23828 0,0.44983 0.15511,0.92907 0.48829,1.29492 0.33318,0.36585 0.84551,0.62304 1.58203,0.62305 0.83169,0 1.41537,-0.23199 1.74609,-0.68555 0.26039,-0.35711 0.40565,-0.83534 0.45703,-1.42383 0.007,-0.0714 0.0111,-0.14515 0.0156,-0.2207 0.004,-0.0599 0.003,-0.1018 0.004,-0.17188 h 0.004 V 4.79686 C 6.02226,4.17748 6.58414,4.08592 6.58414,4.08592 l 5.85352,-0.91406 c 0.56193,-0.17179 0.5625,0.52343 0.5625,0.52343 v 6.94141 c -0.41338,-0.27156 -0.85577,-0.46484 -1.44531,-0.46485 -0.75911,0 -1.21229,0.29098 -1.48633,0.67383 -0.27403,0.38285 -0.36524,0.86525 -0.36524,1.23828 0,0.44983 0.15511,0.92907 0.48829,1.29493 0.33318,0.36585 0.84551,0.62303 1.58203,0.62304 0.83169,0 1.41537,-0.23198 1.74609,-0.68554 0.26039,-0.35711 0.40565,-0.83535 0.45703,-1.42383 0.007,-0.0714 0.0111,-0.14515 0.0156,-0.22071 0.004,-0.0599 0.003,-0.1018 0.004,-0.17187 h 0.004 V 0.93162 C 14.01222,0.24598 13.85983,0.06543 13.51399,0.041 Z" />
  <g
     id="layer1"
     style="display:inline"
     transform="translate(-652.00004,-259.99999)" />
</svg>
