<?xml version="1.0" encoding="UTF-8" standalone="no"?>
<svg
   xmlns:osb="http://www.openswatchbook.org/uri/2009/osb"
   xmlns:dc="http://purl.org/dc/elements/1.1/"
   xmlns:cc="http://creativecommons.org/ns#"
   xmlns:rdf="http://www.w3.org/1999/02/22-rdf-syntax-ns#"
   xmlns:svg="http://www.w3.org/2000/svg"
   xmlns="http://www.w3.org/2000/svg"
   xmlns:sodipodi="http://sodipodi.sourceforge.net/DTD/sodipodi-0.dtd"
   xmlns:inkscape="http://www.inkscape.org/namespaces/inkscape"
   height="16"
   id="svg7384"
   version="1.1"
   width="16"
   sodipodi:docname="view-readermode.svg"
   inkscape:version="0.92.3 (2405546, 2018-03-11)">
  <sodipodi:namedview
     pagecolor="#ffffff"
     bordercolor="#dfdfdf"
     borderopacity="1"
     objecttolerance="10"
     gridtolerance="10"
     guidetolerance="10"
     inkscape:pageopacity="0"
     inkscape:pageshadow="2"
     inkscape:window-width="640"
     inkscape:window-height="480"
     id="namedview26"
     showgrid="false"
     inkscape:zoom="18.25"
     inkscape:cx="-2.6096879"
     inkscape:cy="8.1239439"
     inkscape:current-layer="svg7384" />
  <metadata
     id="metadata20854">
    <rdf:RDF>
      <cc:Work
         rdf:about="">
        <dc:title />
        <dc:format>image/svg+xml</dc:format>
        <dc:type
           rdf:resource="http://purl.org/dc/dcmitype/StillImage" />
      </cc:Work>
    </rdf:RDF>
  </metadata>
  <defs>
  <style id="current-color-scheme" type="text/css">.ColorScheme-Text { color:#727272; } .ColorScheme-Highlight { color:#5294e2; }</style>
 </defs>
  <path
     inkscape:connector-curvature="0"
     style="fill:currentColor" class="ColorScheme-Text"
     id="path2732-8-1-77"
     d="M 4.99421,0 C 3.73601,0.0145 2.81532,-0.0306 2.06257,0.38477 1.87317,0.48926 1.70498,0.6306 1.56257,0.80078 h -0.0625 v 0.0879 C 1.38951,1.03703 1.29322,1.20022 1.22468,1.38282 1.06001,1.82148 1.00007,2.34239 1.00007,3 v 10 c 0,0.65761 0.0599,1.17858 0.22461,1.61719 0.16468,0.43861 0.46153,0.78852 0.83789,0.99609 C 2.81529,16.02841 3.73611,15.98493 4.99421,16 h 0.002 5.00579 0.004 c 1.25819,-0.0145 2.17889,0.0306 2.93164,-0.38477 0.37637,-0.20766 0.67322,-0.55938 0.83789,-0.99804 C 13.93992,14.17852 14,13.65761 14,13 V 3 C 14,2.34239 13.9401,1.82142 13.77539,1.38281 13.70689,1.20036 13.61046,1.03852 13.5,0.89062 V 0.80082 H 13.4375 C 13.2953,0.63165 13.12645,0.49097 12.9375,0.38676 12.18478,-0.02837 11.26395,0.01511 10.00586,4e-5 h -0.002 -5.00579 z M 2.00007,3 H 13 v 10 c 0,0.59239 -0.0626,1.00573 -0.16016,1.26562 -0.0976,0.25991 -0.20135,0.37147 -0.38476,0.47266 C 12.08912,14.9402 11.25852,14.98529 10,15 H 5.00593 4.99993 C 3.7413,14.9848 2.91083,14.9401 2.54485,14.73828 2.36143,14.63712 2.25763,14.52542 2.16009,14.26562 2.06259,14.00583 1.99992,13.59239 1.99993,13 Z" />
  <path
     inkscape:connector-curvature="0"
     style="fill:currentColor" class="ColorScheme-Text"
     id="rect4009"
     d="M 5,5 H 6 L 4,10 H 3 Z" />
  <path
     inkscape:connector-curvature="0"
     style="fill:currentColor" class="ColorScheme-Text"
     id="rect4009-7"
     d="M 6,5 H 5 l 2,5 h 1 z" />
  <rect
     y="-8.5"
     x="4.500021"
     width="2"
     transform="scale(1,-1)"
     style="fill:currentColor" class="ColorScheme-Text"
     id="rect4042"
     height="0.5" />
  <rect
     y="9.5"
     x="3.000021"
     width="1.5"
     style="fill:currentColor" class="ColorScheme-Text"
     id="rect4042-3"
     height="0.5" />
  <rect
     y="9.5"
     x="6.500021"
     width="1.5"
     style="fill:currentColor" class="ColorScheme-Text"
     id="rect4042-3-2"
     height="0.5" />
</svg>
