<svg xmlns="http://www.w3.org/2000/svg" height="22" version="1.1" width="22"><defs>
  <style id="current-color-scheme" type="text/css">.ColorScheme-Text { color:#727272; } .ColorScheme-Highlight { color:#5294e2; }</style>
 </defs><path d="M11 4.002a4 4 0 0 0-4 4 4 4 0 0 0 .254 1.394 4 4 0 0 1-.068-.191c.732 2.197 2.206 6.381 3.814 9.566 1.608-3.185 3.082-7.369 3.814-9.566A4 4 0 0 0 15 8.002a4 4 0 0 0-4-4zm0 1a3 3 0 0 1 3 3 3 3 0 0 1-3 3 3 3 0 0 1-3-3 3 3 0 0 1 3-3z" style="fill:currentColor" class="ColorScheme-Text"/></svg>
