<svg xmlns="http://www.w3.org/2000/svg" width="22" height="22" version="1.1"> <defs>
  <style id="current-color-scheme" type="text/css">.ColorScheme-Text { color:#727272; } .ColorScheme-Highlight { color:#5294e2; }</style>
 </defs><g fill="#dfdfdf"><path d="M17.009 9V7h-2.002z" overflow="visible"/><path d="M5.009 11v8h9v-1h-8v-7.667zm11.002-1l-.002 9h1v-8z" style="fill:currentColor" class="ColorScheme-Text"/><path d="M11.009 12.986a8.47 8.47 0 0 1 .607-.122 5.24 5.24 0 0 1 .872-.064c.295 0 .54.043.735.129.195.08.35.197.465.35.119.147.202.326.25.535.047.21.071.44.071.693V18.2h-3z" style="fill:currentColor" class="ColorScheme-Text"/><path d="M11.009 4.293l-7.854 7.853.708.708 7.146-7.147 7.146 7.147.708-.708z" style="fill:currentColor" class="ColorScheme-Text"/></g></svg>
