<svg width="22" height="22" version="1.1" xmlns="http://www.w3.org/2000/svg">
 <defs>
  <style id="current-color-scheme" type="text/css">.ColorScheme-Text { color:#727272; } .ColorScheme-Highlight { color:#5294e2; }</style>
 </defs>
 <path d="m11 3c-4.4183 0-8 3.5819-8 8 0 4.4183 3.5817 8 8 8 4.4183 0 8-3.5817 8-8 0-4.4181-3.5817-8-8-8zm0 1c3.866 0 7 3.1341 7 7 0 3.866-3.134 7-7 7-3.866 0-7-3.134-7-7 0-3.8659 3.134-7 7-7z" style="fill:currentColor" class="ColorScheme-Text"/>
 <path d="m11 6.5779c0.69036 0 1.25 0.55964 1.25 1.25s-0.55964 1.25-1.25 1.25-1.25-0.55964-1.25-1.25 0.55964-1.25 1.25-1.25z" style="fill:currentColor" class="ColorScheme-Text"/>
 <path d="m10 10h1.9473v6h-1.9473z" style="fill:currentColor" class="ColorScheme-Text"/>
</svg>
