<?xml version="1.0" encoding="UTF-8" standalone="no"?>
<svg
   width="16"
   height="16"
   version="1.1"
   id="svg18"
   sodipodi:docname="notifications-disabled.svg"
   inkscape:version="1.1.1 (3bf5ae0d25, 2021-09-20, custom)"
   xmlns:inkscape="http://www.inkscape.org/namespaces/inkscape"
   xmlns:sodipodi="http://sodipodi.sourceforge.net/DTD/sodipodi-0.dtd"
   xmlns="http://www.w3.org/2000/svg"
   xmlns:svg="http://www.w3.org/2000/svg">
 <defs>
  <style id="current-color-scheme" type="text/css">.ColorScheme-Text { color:#727272; } .ColorScheme-Highlight { color:#5294e2; }</style>
 </defs>
  <g
     transform="matrix(0.75,0,0,0.75,-426.99783,-118)"
     fill="#dfdfdf"
     id="g16">
    <path
       transform="translate(572,160)"
       d="m 8,1 a 1,1 0 0 0 -1,1 1,1 0 0 0 0.00977,0.13867 c -1.7279,0.44251 -3.0098,1.9959 -3.0098,3.8613 6.6e-4,0.11019 0.00602,0.22032 0.015625,0.33008 v 3.2363 c 0,0.12246 -0.00584,0.23995 -0.013672,0.35547 l 0.99805,-0.99805 v -2.9238 c 0,-1.6568 1.3432,-3 3,-3 0.807,0 1.537,0.32152 2.0762004,0.83984 l 0.52734,-0.52734 a 6.3532,4.484 45 0 1 0.0059,0.00391 l 0.17383,-0.17383 c -0.49353,-0.47612 -1.1085004,-0.82841 -1.7949004,-1.0039 a 1,1 0 0 0 0.011719,-0.13867 1,1 0 0 0 -1,-1 z m 3.8418,3.8926 -0.85547,0.85547 c 0.0069,0.083305 0.01367,0.16685 0.01367,0.25195 v 5 h -5.2656 l -1,1 h 3.2656 3.9844 2.1367 v -0.0039 c -0.40658,-0.003 -0.74638,-0.06061 -1.0176,-0.17969 -0.27829,-0.11538 -0.49923,-0.28283 -0.66211,-0.5 -0.16968,-0.21039 -0.28761,-0.4631 -0.35547,-0.76172 -0.0679,-0.29848 -0.10161,-0.62859 -0.10156,-0.98828 v -3.248 -0.00195 c 0.009,-0.10522 0.01462,-0.21078 0.01563,-0.31641 0,-0.38514 -0.05624,-0.75594 -0.1582,-1.1074 z m -9.9102,7.1016 c -0.01868,3.69e-4 -0.035717,0.0018 -0.054688,0.002 v 0.0039 H 1.92574 Z"
       opacity="0.5"
       style="fill:currentColor" class="ColorScheme-Text" />
    <path
       d="m 576.09,171.72 -0.0156,0.0195 c 0.003,-0.003 0.004,-0.008 0.006,-0.0117 0.002,-0.003 0.008,-0.004 0.01,-0.008 z"
       opacity="0.5"
       style="fill:currentColor" class="ColorScheme-Text" />
    <path
       d="m 583.91,171.72 c 0.002,0.003 0.008,0.004 0.01,0.008 0.003,0.003 0.004,0.008 0.006,0.0117 z"
       opacity="0.5"
       style="fill:currentColor" class="ColorScheme-Text" />
    <path
       d="m 578,173 c 0.0125,1.1086 0.91475,2 2.0234,2 1.1087,0 2.0109,-0.89138 2.0234,-2 z"
       opacity="0.5"
       style="fill:currentColor" class="ColorScheme-Text" />
    <path
       d="m 584.07,172.31 c 0.003,0.004 0.007,0.006 0.009,0.009 0.003,0.004 0.005,0.01 0.008,0.0137 z"
       opacity="0.5"
       style="fill:currentColor" class="ColorScheme-Text" />
    <path
       d="m 575.93,172.32 -0.0179,0.0231 c 0.003,-0.004 0.005,-0.009 0.008,-0.0137 0.003,-0.004 0.007,-0.006 0.009,-0.009 z"
       opacity="0.5"
       style="fill:currentColor" class="ColorScheme-Text" />
    <path
       d="m 573.86,174.88 13,-13 -0.70291,-0.7029 -2.8476,2.8477 a 6.3532,4.484 45 0 0 -0.005,-0.003 l -0.69727,0.69727 a 4.9449,3.49 45 0 1 0.005,0.003 l -0.66211,0.6621 c -0.002,-0.001 -0.004,-0.002 -0.005,-0.003 l -4.0308,4.0336 4.3e-4,0.002 -4.7574,4.7602 z"
       opacity="0.5"
       stroke-width="1.1903"
       style="fill:currentColor" class="ColorScheme-Text" />
  </g>
</svg>
