<svg width="22" height="22" version="1.1" xmlns="http://www.w3.org/2000/svg"><defs>
  <style id="current-color-scheme" type="text/css">.ColorScheme-Text { color:#727272; } .ColorScheme-Highlight { color:#5294e2; }</style>
 </defs>
 <path d="M3 3.994v1h1v8.035c0 .546.455 1 1 1h5v1.215l-2.72 1.844c-.26.125-.352.513-.188.75.164.236.541.26.75.062l2.658-1.812 2.658 1.812c.209.198.587.174.75-.062.164-.237.071-.625-.187-.75L11 15.244V14.03h5c.545 0 1-.454 1-1V4.994h1v-1zm2 1h11v7.5c0 .5-.5.5-.5.5h-10c-.5 0-.5-.5-.5-.5zm3 2a2 2 0 1 0 2 2H8zm3 0v1h4v-1zm0 2v1h3v-1z" style="fill:currentColor" class="ColorScheme-Text"/>
</svg>
