<svg xmlns="http://www.w3.org/2000/svg" width="22" height="22" version="1.1"> <defs>
  <style id="current-color-scheme" type="text/css">.ColorScheme-Text { color:#727272; } .ColorScheme-Highlight { color:#5294e2; }</style>
 </defs><g style="fill:currentColor" class="ColorScheme-Text"><path d="M10.5 3.987a6.508 6.508 0 0 0-6.5 6.5c0 3.584 2.916 6.5 6.5 6.5s6.5-2.916 6.5-6.5-2.916-6.5-6.5-6.5zm0 1.04a5.452 5.452 0 0 1 5.46 5.46 5.452 5.452 0 0 1-5.46 5.46 5.454 5.454 0 0 1-5.461-5.46c0-3.022 2.44-5.46 5.461-5.46z" overflow="visible" style="fill:currentColor" class="ColorScheme-Text"/><path d="M14.853 14.133l-.707.708 3.5 3.5.707-.708zM8 9.987v1h5v-1z" overflow="visible" fill-rule="evenodd" style="fill:currentColor" class="ColorScheme-Text"/></g></svg>
